<svg width="155" height="189" viewBox="0 0 155 189" fill="none" xmlns="http://www.w3.org/2000/svg">
<path d="M122.156 55.0174L103.185 40.4727L75.9923 43.6345L76.6247 144.183L122.156 139.756L132.274 113.829L122.156 92.3277V55.0174Z" fill="#0C0302" stroke="black"/>
<path fill-rule="evenodd" clip-rule="evenodd" d="M53.5829 97.3862C53.5829 97.3862 55.4684 107.922 53.5829 114.22C52.2573 118.648 51.2208 121.353 47.9717 124.641C42.2587 130.421 27.9315 130.252 27.9315 130.252L66.4086 153.499H72.0198V154.3H80.0359L118.513 131.054C118.513 131.054 104.186 131.223 98.4729 125.442C95.2238 122.155 94.1873 119.449 92.8616 115.021C90.9761 108.724 92.8616 98.1877 92.8616 98.1877H74.4247V97.3862H53.5829Z" fill="#DFB396"/>
<g filter="url(#filter0_d)">
<ellipse cx="73.4628" cy="62.6049" rx="35.4132" ry="44.8989" fill="#DFB396"/>
</g>
<g filter="url(#filter1_d)">
<path d="M83.5808 75.8855C84.9327 72.5536 81.0512 67.0322 81.0512 67.0322C81.0512 67.0322 83.5394 72.6424 82.316 75.8855C81.5662 77.8732 78.5217 80.3122 78.5217 80.3122C78.5217 80.3122 82.5938 78.3181 83.5808 75.8855Z" fill="#4A4A4A"/>
</g>
<path d="M76.6247 87.2682C71.68 87.3517 63.3447 86.0034 63.3447 86.0034C63.3447 86.0034 67.8481 90.1405 70.9333 91.0624C72.6064 91.5625 73.6186 92.1958 75.3599 92.3272C77.33 92.4759 79.0989 92.6295 81.0513 92.3272C85.5315 91.6335 90.537 86.0034 90.537 86.0034C90.537 86.0034 82.0794 87.176 76.6247 87.2682Z" fill="white"/>
<path d="M55.0751 53.2675C53.801 54.4765 50.6971 57.9103 50.6971 57.9103C50.6971 57.9103 55.5191 54.9435 57.702 54.1961C59.3612 53.628 60.3373 53.3271 62.08 53.2675C64.1588 53.1964 65.3509 53.5294 67.3336 54.1961C69.5201 54.9314 72.5872 56.982 72.5872 56.982L73.4628 53.2672L71.7116 52.3386L69.0848 51.41C67.8003 50.7937 65.2308 50.6616 63.8312 50.4816C62.4733 50.3071 61.6763 50.2331 60.3288 50.4816C58.0688 50.8985 56.7846 51.6454 55.0751 53.2675Z" fill="#4B2D24"/>
<path d="M100.704 53.2675C101.978 54.4765 105.082 57.9103 105.082 57.9103C105.082 57.9103 100.26 54.9435 98.0769 54.1961C96.4176 53.628 95.4415 53.3271 93.6989 53.2675C91.62 53.1964 90.4279 53.5294 88.4452 54.1961C86.2587 54.9314 83.1916 56.982 83.1916 56.982L82.316 53.2672L84.0672 52.3386L86.694 51.41C87.9785 50.7937 90.5481 50.6616 91.9477 50.4816C93.3055 50.3071 94.1025 50.2331 95.4501 50.4816C97.71 50.8985 98.9942 51.6454 100.704 53.2675Z" fill="#4B2D24"/>
<path d="M67.139 5.75147C64.8951 7.41628 59.5504 13.9123 59.5504 13.9123L60.1828 32.2513C60.1828 32.2513 72.4367 33.509 77.8894 36.0456C83.9185 38.8503 85.1939 45.2035 91.1693 48.1208C98.4692 51.6848 105.477 48.9172 110.773 55.077C114.391 59.2852 114.379 63.0007 115.832 68.3569C116.821 72.003 117.361 74.0829 117.729 77.8426C118.091 81.5293 117.729 87.3283 117.729 87.3283C117.729 87.3283 117.698 94.055 118.994 98.0787C120.01 101.232 120.901 102.944 122.788 105.667C124.284 107.825 126.32 108.258 127.215 110.726C128.057 113.048 127.485 114.595 127.215 117.05C126.881 120.087 125.318 124.639 125.318 124.639L120.891 133.492L133.717 154.179C133.717 154.179 137.344 132.851 138.598 130.33C139.958 127.595 140.086 125.769 140.495 122.742C140.991 119.07 141.273 116.878 140.495 113.256C139.82 110.117 138.772 108.537 137.333 105.667C135.091 101.198 131.642 99.7547 130.377 94.9168C129.749 92.5157 129.573 91.069 129.744 88.5931C129.976 85.2421 132.274 80.3721 132.274 80.3721C132.274 80.3721 135 75.1092 134.803 71.5188C134.662 68.9444 133.8 67.6134 132.906 65.1951C131.872 62.3962 130.996 60.9476 129.744 58.2389C126.871 52.0224 124.175 48.9734 122.156 42.4294C120.528 37.1527 119.626 28.5171 119.626 28.5171C119.626 28.5171 117.683 20.8424 115.2 16.5019C113.016 12.6853 111.573 10.5202 108.244 7.64861C104.81 4.68781 102.399 3.47194 98.1255 1.9572C93.1878 0.206844 90.0794 -0.167491 84.8456 0.0600677C80.8291 0.234694 78.5202 0.62411 74.7275 1.9572C71.6017 3.05589 69.7999 3.77725 67.139 5.75147Z" fill="#413027"/>
<path fill-rule="evenodd" clip-rule="evenodd" d="M54.8232 124.907C54.8232 124.907 43.451 127.447 36.7372 130.559C28.5169 134.369 24.2242 136.415 18.6512 143.558C14.3365 149.089 13.3636 153.095 11.8689 159.949C10.3168 167.065 10.1733 177.469 10.1733 177.469H77.9959H145.819C145.819 177.469 145.675 167.065 144.123 159.949C142.628 153.095 141.655 149.089 137.341 143.558C131.768 136.415 127.475 134.369 119.255 130.559C112.541 127.447 101.169 124.907 101.169 124.907L99.4731 124.342C99.4731 124.342 96.8114 127.411 94.3864 128.863C91.1506 130.801 88.4367 131.903 84.7782 132.82C82.1736 133.473 77.9959 133.385 77.9959 133.385C77.9959 133.385 73.8183 133.473 71.2137 132.82C67.5552 131.903 64.8413 130.801 61.6055 128.863C59.1805 127.411 56.5188 124.342 56.5188 124.342L54.8232 124.907Z" fill="#BFE3DB"/>
<path fill-rule="evenodd" clip-rule="evenodd" d="M105.69 126.037C105.69 126.037 117.235 129.343 124.907 132.899C134.3 137.253 138.944 141.528 145.313 149.691C150.243 156.011 151.354 160.589 153.062 168.42C154.836 176.552 155 188.441 155 188.441H77.5V188.441H0C0 188.441 0.163948 176.552 1.9375 168.42C3.64552 160.589 4.75713 156.011 9.6875 149.691C16.0557 141.528 20.9609 139.19 30.3542 134.837C38.026 131.281 51.0208 128.378 51.0208 128.378L52.9583 127.733C52.9583 127.733 55.9998 131.24 58.7708 132.899C62.4684 135.114 65.5695 136.372 69.75 137.42C72.7262 138.166 77.5 138.066 77.5 138.066V138.066C77.5 138.066 82.2738 138.166 85.25 137.42C89.4305 136.372 92.5316 135.113 96.2292 132.899C99.0002 131.24 102.864 125.472 102.864 125.472L105.69 126.037Z" fill="#8AB0AE"/>
<path d="M50.9259 8.91781C54.2424 8.69327 63.2014 11.2443 63.2014 11.2443L61.8619 32.3775L50.9259 43.6578C50.9259 43.6578 45.4486 49.5216 43.2319 54.1674C40.9059 59.0422 40.2401 62.23 39.7346 67.6798C39.1638 73.8336 40.8754 77.7736 42.3516 83.7514C43.3263 87.6984 47.5861 91.8411 47.5861 91.8411C47.5861 91.8411 51.0465 95.9353 54.2481 100.407C57.4281 104.847 58.3646 116.454 58.3646 116.454L59.3194 130.737C59.3194 130.737 59.6002 142.858 56.5216 149.505C54.5272 153.81 52.8067 155.988 49.527 159.263C45.754 163.032 43.1544 164.808 38.3356 166.77C32.918 168.976 29.3649 170.03 23.647 169.022C18.9397 168.192 16.1292 167.034 12.4557 163.768C7.83773 159.661 6.1628 155.763 4.76166 149.505C3.6129 144.374 3.37012 141.053 4.76166 135.992C5.62599 132.849 6.71985 131.316 8.25895 128.485C11.5914 122.356 15.3289 120.295 18.7508 114.222C20.9635 110.296 23.647 103.713 23.647 103.713C23.647 103.713 17.9112 94.6319 16.6525 87.9483C15.6242 82.4886 15.5595 79.1304 16.6525 73.6852C17.4537 69.6936 18.7654 67.7297 20.1497 63.9263C22.2907 58.0443 23.8033 54.8736 25.7454 48.9126C28.8293 39.447 32.5701 24.4274 32.5701 24.4274C32.5701 24.4274 36.3918 16.6366 40.7126 13.1829C43.9693 10.5798 46.8732 9.19218 50.9259 8.91781Z" fill="#413027"/>
<path fill-rule="evenodd" clip-rule="evenodd" d="M68.3597 66.3997C68.3887 66.1926 68.4037 65.9816 68.4037 65.7675C68.4037 62.9735 65.8556 60.7085 62.7123 60.7085C59.569 60.7085 57.0209 62.9735 57.0209 65.7675C57.0209 65.9817 57.0358 66.1928 57.0649 66.3999C57.4149 63.9043 59.8099 61.9731 62.7123 61.9731C65.6146 61.9731 68.0096 63.9042 68.3597 66.3997Z" fill="#4A4A4A"/>
<path fill-rule="evenodd" clip-rule="evenodd" d="M98.7139 66.3996C98.743 66.1924 98.7579 65.9813 98.7579 65.767C98.7579 62.973 96.2098 60.708 93.0665 60.708C89.9233 60.708 87.3751 62.973 87.3751 65.767C87.3751 65.9812 87.3901 66.1923 87.4192 66.3995C87.7694 63.9041 90.1643 61.9731 93.0665 61.9731C95.9688 61.9731 98.3637 63.9041 98.7139 66.3996Z" fill="#4A4A4A"/>
<path d="M52.5625 188.208L137.341 140.732C137.341 140.732 142.646 146.072 145.253 149.775C148.095 153.81 149.263 155.859 150.905 160.514C152.778 165.82 153.081 169.619 153.731 175.208C154.293 180.037 154.296 188.208 154.296 188.208H52.5625Z" fill="#79A4A1"/>
<defs>
<filter id="filter0_d" x="34.0496" y="17.7061" width="78.8264" height="97.7977" filterUnits="userSpaceOnUse" color-interpolation-filters="sRGB">
<feFlood flood-opacity="0" result="BackgroundImageFix"/>
<feColorMatrix in="SourceAlpha" type="matrix" values="0 0 0 0 0 0 0 0 0 0 0 0 0 0 0 0 0 0 127 0"/>
<feOffset dy="4"/>
<feGaussianBlur stdDeviation="2"/>
<feColorMatrix type="matrix" values="0 0 0 0 0 0 0 0 0 0 0 0 0 0 0 0 0 0 0.35 0"/>
<feBlend mode="normal" in2="BackgroundImageFix" result="effect1_dropShadow"/>
<feBlend mode="normal" in="SourceGraphic" in2="effect1_dropShadow" result="shape"/>
</filter>
<filter id="filter1_d" x="74.5217" y="67.0322" width="13.3449" height="21.2799" filterUnits="userSpaceOnUse" color-interpolation-filters="sRGB">
<feFlood flood-opacity="0" result="BackgroundImageFix"/>
<feColorMatrix in="SourceAlpha" type="matrix" values="0 0 0 0 0 0 0 0 0 0 0 0 0 0 0 0 0 0 127 0"/>
<feOffset dy="4"/>
<feGaussianBlur stdDeviation="2"/>
<feColorMatrix type="matrix" values="0 0 0 0 0 0 0 0 0 0 0 0 0 0 0 0 0 0 0.25 0"/>
<feBlend mode="normal" in2="BackgroundImageFix" result="effect1_dropShadow"/>
<feBlend mode="normal" in="SourceGraphic" in2="effect1_dropShadow" result="shape"/>
</filter>
</defs>
</svg>
