<svg width="856" height="407" viewBox="0 0 856 407" fill="none" xmlns="http://www.w3.org/2000/svg">
<rect width="77.4932" height="667.428" transform="matrix(0.0026358 0.999997 -1 0.000764405 855.796 0)" fill="#428EFC"/>
<path d="M370.223 34.6716C373.443 36.1183 375.053 38.2183 375.053 40.9716C375.053 42.255 374.691 43.4216 373.968 44.4716C373.245 45.4983 372.218 46.315 370.888 46.9216C369.581 47.5283 368.053 47.8316 366.303 47.8316C364.576 47.8316 363.071 47.54 361.788 46.9566C360.505 46.35 359.513 45.5333 358.813 44.5066C358.113 43.48 357.763 42.325 357.763 41.0416C357.763 38.335 359.256 36.3516 362.243 35.0916C359.886 33.8083 358.708 31.9533 358.708 29.5266C358.708 28.29 359.046 27.205 359.723 26.2716C360.423 25.315 361.356 24.5916 362.523 24.1016C363.713 23.5883 365.008 23.3316 366.408 23.3316C367.831 23.3316 369.126 23.565 370.293 24.0316C371.46 24.4983 372.381 25.1866 373.058 26.0966C373.758 27.0066 374.108 28.0916 374.108 29.3516C374.108 31.5683 372.813 33.3416 370.223 34.6716ZM366.408 26.4816C365.358 26.4816 364.53 26.75 363.923 27.2866C363.34 27.8233 363.048 28.5933 363.048 29.5966C363.048 30.53 363.328 31.2766 363.888 31.8366C364.448 32.3733 365.346 32.8633 366.583 33.3066L367.248 33.5516C368.158 32.9916 368.8 32.4083 369.173 31.8016C369.57 31.1716 369.768 30.425 369.768 29.5616C369.768 28.605 369.476 27.8583 368.893 27.3216C368.31 26.7616 367.481 26.4816 366.408 26.4816ZM366.408 44.5066C367.691 44.5066 368.695 44.18 369.418 43.5266C370.141 42.8733 370.503 42.0216 370.503 40.9716C370.503 39.8983 370.188 39.0583 369.558 38.4516C368.928 37.8216 367.808 37.215 366.198 36.6316L365.113 36.2466C363.223 37.25 362.278 38.8016 362.278 40.9016C362.278 42.0216 362.651 42.9083 363.398 43.5616C364.145 44.1916 365.148 44.5066 366.408 44.5066ZM384.14 23.3316C385.726 23.3316 387.091 23.6233 388.235 24.2066C389.401 24.79 390.288 25.5833 390.895 26.5866C391.501 27.59 391.805 28.71 391.805 29.9466C391.805 31.2766 391.513 32.56 390.93 33.7966C390.37 35.01 389.425 36.3633 388.095 37.8566C386.765 39.35 384.816 41.3216 382.25 43.7716H392.33L391.84 47.3066H377.175V44.0166C380.161 40.9833 382.296 38.7433 383.58 37.2966C384.886 35.8266 385.808 34.5783 386.345 33.5516C386.905 32.5016 387.185 31.4166 387.185 30.2966C387.185 29.2233 386.87 28.3833 386.24 27.7766C385.633 27.17 384.816 26.8666 383.79 26.8666C382.88 26.8666 382.075 27.065 381.375 27.4616C380.698 27.835 379.986 28.465 379.24 29.3516L376.51 27.1816C378.493 24.615 381.036 23.3316 384.14 23.3316ZM415.179 22.2466L418.084 24.1016L401.844 48.5666L398.974 46.7116L415.179 22.2466ZM400.969 23.3316C402.089 23.3316 403.104 23.5883 404.014 24.1016C404.924 24.5916 405.636 25.3033 406.149 26.2366C406.686 27.17 406.954 28.2433 406.954 29.4566C406.954 30.67 406.686 31.7433 406.149 32.6766C405.636 33.61 404.924 34.3333 404.014 34.8466C403.104 35.3366 402.089 35.5816 400.969 35.5816C399.849 35.5816 398.834 35.3366 397.924 34.8466C397.037 34.3333 396.326 33.61 395.789 32.6766C395.276 31.7433 395.019 30.67 395.019 29.4566C395.019 28.2433 395.276 27.17 395.789 26.2366C396.326 25.3033 397.037 24.5916 397.924 24.1016C398.834 23.5883 399.849 23.3316 400.969 23.3316ZM400.969 26.1316C400.059 26.1316 399.406 26.4466 399.009 27.0766C398.636 27.6833 398.449 28.4766 398.449 29.4566C398.449 30.4133 398.636 31.2066 399.009 31.8366C399.406 32.4666 400.059 32.7816 400.969 32.7816C402.649 32.7816 403.489 31.6733 403.489 29.4566C403.489 27.24 402.649 26.1316 400.969 26.1316ZM416.019 35.5816C417.139 35.5816 418.154 35.8383 419.064 36.3516C419.974 36.8416 420.686 37.5533 421.199 38.4866C421.712 39.42 421.969 40.4933 421.969 41.7066C421.969 42.92 421.712 43.9933 421.199 44.9266C420.686 45.86 419.974 46.5833 419.064 47.0966C418.154 47.5866 417.139 47.8316 416.019 47.8316C414.899 47.8316 413.884 47.5866 412.974 47.0966C412.064 46.5833 411.341 45.86 410.804 44.9266C410.291 43.9933 410.034 42.92 410.034 41.7066C410.034 40.4933 410.291 39.42 410.804 38.4866C411.341 37.5533 412.064 36.8416 412.974 36.3516C413.884 35.8383 414.899 35.5816 416.019 35.5816ZM416.019 38.3816C415.109 38.3816 414.456 38.6966 414.059 39.3266C413.686 39.9333 413.499 40.7266 413.499 41.7066C413.499 42.6633 413.686 43.4566 414.059 44.0866C414.456 44.7166 415.109 45.0316 416.019 45.0316C417.699 45.0316 418.539 43.9233 418.539 41.7066C418.539 39.49 417.699 38.3816 416.019 38.3816Z" fill="white"/>
<rect width="77.4933" height="504.552" transform="matrix(0.00294318 0.999996 -1 0.000684572 692.92 109.664)" fill="#81CD81"/>
<path d="M367.948 141.308C369.185 141.308 370.305 141.611 371.308 142.218C372.335 142.801 373.14 143.676 373.723 144.843C374.306 145.986 374.598 147.363 374.598 148.973C374.598 150.606 374.26 152.076 373.583 153.383C372.906 154.666 371.95 155.681 370.713 156.428C369.5 157.151 368.111 157.513 366.548 157.513C363.655 157.513 361.508 156.498 360.108 154.468C358.731 152.438 358.043 149.649 358.043 146.103C358.043 143.489 358.428 141.203 359.198 139.243C359.991 137.259 361.111 135.731 362.558 134.658C364.028 133.561 365.743 133.013 367.703 133.013C369.64 133.013 371.355 133.514 372.848 134.518L371.168 137.283C370.095 136.653 368.963 136.338 367.773 136.338C366.28 136.338 365.078 137.014 364.168 138.368C363.281 139.698 362.78 141.541 362.663 143.898C364.086 142.171 365.848 141.308 367.948 141.308ZM366.548 154.188C367.715 154.188 368.59 153.733 369.173 152.823C369.78 151.889 370.083 150.629 370.083 149.043C370.083 147.433 369.803 146.289 369.243 145.613C368.706 144.913 367.913 144.563 366.863 144.563C366.07 144.563 365.311 144.784 364.588 145.228C363.888 145.648 363.258 146.231 362.698 146.978C362.745 149.521 363.06 151.364 363.643 152.508C364.25 153.628 365.218 154.188 366.548 154.188ZM383.489 133.013C385.053 133.013 386.394 133.281 387.514 133.818C388.658 134.354 389.509 135.078 390.069 135.988C390.653 136.898 390.944 137.901 390.944 138.998C390.944 140.421 390.536 141.611 389.719 142.568C388.903 143.501 387.783 144.154 386.359 144.528C387.923 144.668 389.206 145.228 390.209 146.208C391.213 147.188 391.714 148.541 391.714 150.268C391.714 151.621 391.364 152.846 390.664 153.943C389.988 155.039 389.008 155.914 387.724 156.568C386.441 157.198 384.924 157.513 383.174 157.513C379.954 157.513 377.411 156.381 375.544 154.118L378.029 151.738C378.823 152.531 379.604 153.114 380.374 153.488C381.144 153.838 381.996 154.013 382.929 154.013C384.189 154.013 385.193 153.663 385.939 152.963C386.709 152.239 387.094 151.271 387.094 150.058C387.094 148.704 386.733 147.736 386.009 147.153C385.309 146.569 384.259 146.278 382.859 146.278H381.004L381.529 143.093H382.789C383.933 143.093 384.843 142.778 385.519 142.148C386.219 141.518 386.569 140.643 386.569 139.523C386.569 138.566 386.254 137.819 385.624 137.283C384.994 136.723 384.154 136.443 383.104 136.443C382.194 136.443 381.366 136.618 380.619 136.968C379.873 137.294 379.126 137.808 378.379 138.508L376.104 136.023C378.228 134.016 380.689 133.013 383.489 133.013ZM414.666 131.928L417.571 133.783L401.331 158.248L398.461 156.393L414.666 131.928ZM400.456 133.013C401.576 133.013 402.591 133.269 403.501 133.783C404.411 134.273 405.123 134.984 405.636 135.918C406.173 136.851 406.441 137.924 406.441 139.138C406.441 140.351 406.173 141.424 405.636 142.358C405.123 143.291 404.411 144.014 403.501 144.528C402.591 145.018 401.576 145.263 400.456 145.263C399.336 145.263 398.321 145.018 397.411 144.528C396.525 144.014 395.813 143.291 395.276 142.358C394.763 141.424 394.506 140.351 394.506 139.138C394.506 137.924 394.763 136.851 395.276 135.918C395.813 134.984 396.525 134.273 397.411 133.783C398.321 133.269 399.336 133.013 400.456 133.013ZM400.456 135.813C399.546 135.813 398.893 136.128 398.496 136.758C398.123 137.364 397.936 138.158 397.936 139.138C397.936 140.094 398.123 140.888 398.496 141.518C398.893 142.148 399.546 142.463 400.456 142.463C402.136 142.463 402.976 141.354 402.976 139.138C402.976 136.921 402.136 135.813 400.456 135.813ZM415.506 145.263C416.626 145.263 417.641 145.519 418.551 146.033C419.461 146.523 420.173 147.234 420.686 148.168C421.2 149.101 421.456 150.174 421.456 151.388C421.456 152.601 421.2 153.674 420.686 154.608C420.173 155.541 419.461 156.264 418.551 156.778C417.641 157.268 416.626 157.513 415.506 157.513C414.386 157.513 413.371 157.268 412.461 156.778C411.551 156.264 410.828 155.541 410.291 154.608C409.778 153.674 409.521 152.601 409.521 151.388C409.521 150.174 409.778 149.101 410.291 148.168C410.828 147.234 411.551 146.523 412.461 146.033C413.371 145.519 414.386 145.263 415.506 145.263ZM415.506 148.063C414.596 148.063 413.943 148.378 413.546 149.008C413.173 149.614 412.986 150.408 412.986 151.388C412.986 152.344 413.173 153.138 413.546 153.768C413.943 154.398 414.596 154.713 415.506 154.713C417.186 154.713 418.026 153.604 418.026 151.388C418.026 149.171 417.186 148.063 415.506 148.063Z" fill="white"/>
<rect width="77.4933" height="457.972" transform="matrix(0.00294318 0.999996 -1 0.000684572 646.339 219.338)" fill="#8592EF"/>
<path d="M371.833 246.441H363.013V252.286C364.18 251.703 365.37 251.411 366.583 251.411C367.89 251.411 369.056 251.715 370.083 252.321C371.11 252.928 371.903 253.803 372.463 254.946C373.046 256.09 373.338 257.443 373.338 259.006C373.338 260.616 372.976 262.04 372.253 263.276C371.53 264.513 370.503 265.481 369.173 266.181C367.843 266.858 366.303 267.196 364.553 267.196C362.99 267.196 361.601 266.916 360.388 266.356C359.198 265.773 358.113 264.945 357.133 263.871L359.688 261.491C361.041 262.985 362.628 263.731 364.448 263.731C365.778 263.731 366.816 263.323 367.563 262.506C368.333 261.69 368.718 260.523 368.718 259.006C368.718 256.09 367.458 254.631 364.938 254.631C364.401 254.631 363.9 254.701 363.433 254.841C362.966 254.958 362.453 255.156 361.893 255.436H358.708V243.116H372.358L371.833 246.441ZM389.846 246.441H381.026V252.286C382.192 251.703 383.382 251.411 384.596 251.411C385.902 251.411 387.069 251.715 388.096 252.321C389.122 252.928 389.916 253.803 390.476 254.946C391.059 256.09 391.351 257.443 391.351 259.006C391.351 260.616 390.989 262.04 390.266 263.276C389.542 264.513 388.516 265.481 387.186 266.181C385.856 266.858 384.316 267.196 382.566 267.196C381.002 267.196 379.614 266.916 378.401 266.356C377.211 265.773 376.126 264.945 375.146 263.871L377.701 261.491C379.054 262.985 380.641 263.731 382.461 263.731C383.791 263.731 384.829 263.323 385.576 262.506C386.346 261.69 386.731 260.523 386.731 259.006C386.731 256.09 385.471 254.631 382.951 254.631C382.414 254.631 381.912 254.701 381.446 254.841C380.979 254.958 380.466 255.156 379.906 255.436H376.721V243.116H390.371L389.846 246.441ZM413.436 241.611L416.341 243.466L400.101 267.931L397.231 266.076L413.436 241.611ZM399.226 242.696C400.346 242.696 401.361 242.953 402.271 243.466C403.181 243.956 403.892 244.668 404.406 245.601C404.942 246.535 405.211 247.608 405.211 248.821C405.211 250.035 404.942 251.108 404.406 252.041C403.892 252.975 403.181 253.698 402.271 254.211C401.361 254.701 400.346 254.946 399.226 254.946C398.106 254.946 397.091 254.701 396.181 254.211C395.294 253.698 394.582 252.975 394.046 252.041C393.532 251.108 393.276 250.035 393.276 248.821C393.276 247.608 393.532 246.535 394.046 245.601C394.582 244.668 395.294 243.956 396.181 243.466C397.091 242.953 398.106 242.696 399.226 242.696ZM399.226 245.496C398.316 245.496 397.662 245.811 397.266 246.441C396.892 247.048 396.706 247.841 396.706 248.821C396.706 249.778 396.892 250.571 397.266 251.201C397.662 251.831 398.316 252.146 399.226 252.146C400.906 252.146 401.746 251.038 401.746 248.821C401.746 246.605 400.906 245.496 399.226 245.496ZM414.276 254.946C415.396 254.946 416.411 255.203 417.321 255.716C418.231 256.206 418.942 256.918 419.456 257.851C419.969 258.785 420.226 259.858 420.226 261.071C420.226 262.285 419.969 263.358 419.456 264.291C418.942 265.225 418.231 265.948 417.321 266.461C416.411 266.951 415.396 267.196 414.276 267.196C413.156 267.196 412.141 266.951 411.231 266.461C410.321 265.948 409.597 265.225 409.061 264.291C408.547 263.358 408.291 262.285 408.291 261.071C408.291 259.858 408.547 258.785 409.061 257.851C409.597 256.918 410.321 256.206 411.231 255.716C412.141 255.203 413.156 254.946 414.276 254.946ZM414.276 257.746C413.366 257.746 412.712 258.061 412.316 258.691C411.942 259.298 411.756 260.091 411.756 261.071C411.756 262.028 411.942 262.821 412.316 263.451C412.712 264.081 413.366 264.396 414.276 264.396C415.956 264.396 416.796 263.288 416.796 261.071C416.796 258.855 415.956 257.746 414.276 257.746Z" fill="white"/>
<rect width="77.4933" height="402.655" transform="matrix(0.00294318 0.999996 -1 0.000684572 591.023 329.059)" fill="#FD818D"/>
<path d="M374.843 367.534V370.964H372.008V376.354H367.633V370.964H357.623V367.884L364.483 352.344L368.298 353.779L362.278 367.534H367.668L368.123 361.619H372.008V367.534H374.843ZM390.734 356.124H381.914V361.969C383.081 361.386 384.271 361.094 385.484 361.094C386.791 361.094 387.958 361.397 388.984 362.004C390.011 362.611 390.804 363.486 391.364 364.629C391.948 365.772 392.239 367.126 392.239 368.689C392.239 370.299 391.878 371.722 391.154 372.959C390.431 374.196 389.404 375.164 388.074 375.864C386.744 376.541 385.204 376.879 383.454 376.879C381.891 376.879 380.503 376.599 379.289 376.039C378.099 375.456 377.014 374.627 376.034 373.554L378.589 371.174C379.943 372.667 381.529 373.414 383.349 373.414C384.679 373.414 385.718 373.006 386.464 372.189C387.234 371.372 387.619 370.206 387.619 368.689C387.619 365.772 386.359 364.314 383.839 364.314C383.303 364.314 382.801 364.384 382.334 364.524C381.868 364.641 381.354 364.839 380.794 365.119H377.609V352.799H391.259L390.734 356.124ZM414.324 351.294L417.229 353.149L400.989 377.614L398.119 375.759L414.324 351.294ZM400.114 352.379C401.234 352.379 402.249 352.636 403.159 353.149C404.069 353.639 404.781 354.351 405.294 355.284C405.831 356.217 406.099 357.291 406.099 358.504C406.099 359.717 405.831 360.791 405.294 361.724C404.781 362.657 404.069 363.381 403.159 363.894C402.249 364.384 401.234 364.629 400.114 364.629C398.994 364.629 397.979 364.384 397.069 363.894C396.183 363.381 395.471 362.657 394.934 361.724C394.421 360.791 394.164 359.717 394.164 358.504C394.164 357.291 394.421 356.217 394.934 355.284C395.471 354.351 396.183 353.639 397.069 353.149C397.979 352.636 398.994 352.379 400.114 352.379ZM400.114 355.179C399.204 355.179 398.551 355.494 398.154 356.124C397.781 356.731 397.594 357.524 397.594 358.504C397.594 359.461 397.781 360.254 398.154 360.884C398.551 361.514 399.204 361.829 400.114 361.829C401.794 361.829 402.634 360.721 402.634 358.504C402.634 356.287 401.794 355.179 400.114 355.179ZM415.164 364.629C416.284 364.629 417.299 364.886 418.209 365.399C419.119 365.889 419.831 366.601 420.344 367.534C420.858 368.467 421.114 369.541 421.114 370.754C421.114 371.967 420.858 373.041 420.344 373.974C419.831 374.907 419.119 375.631 418.209 376.144C417.299 376.634 416.284 376.879 415.164 376.879C414.044 376.879 413.029 376.634 412.119 376.144C411.209 375.631 410.486 374.907 409.949 373.974C409.436 373.041 409.179 371.967 409.179 370.754C409.179 369.541 409.436 368.467 409.949 367.534C410.486 366.601 411.209 365.889 412.119 365.399C413.029 364.886 414.044 364.629 415.164 364.629ZM415.164 367.429C414.254 367.429 413.601 367.744 413.204 368.374C412.831 368.981 412.644 369.774 412.644 370.754C412.644 371.711 412.831 372.504 413.204 373.134C413.601 373.764 414.254 374.079 415.164 374.079C416.844 374.079 417.684 372.971 417.684 370.754C417.684 368.537 416.844 367.429 415.164 367.429Z" fill="white"/>
<path d="M29.1879 47.9719C28.0412 47.9719 27.0479 47.6919 26.2079 47.1319C25.3812 46.5585 24.7412 45.7452 24.2879 44.6919C23.8479 43.6252 23.6279 42.3519 23.6279 40.8719C23.6279 39.3785 23.8412 38.0985 24.2679 37.0319C24.7079 35.9519 25.3279 35.1319 26.1279 34.5719C26.9412 33.9985 27.9012 33.7119 29.0079 33.7119C30.1412 33.7119 31.1079 33.9652 31.9079 34.4719C32.7212 34.9652 33.3545 35.6652 33.8079 36.5719L32.6079 37.2719C32.1812 36.4852 31.6812 35.9252 31.1079 35.5919C30.5345 35.2452 29.8345 35.0719 29.0079 35.0719C27.8212 35.0719 26.8879 35.5852 26.2079 36.6119C25.5412 37.6252 25.2079 39.0385 25.2079 40.8519C25.2079 42.0385 25.3612 43.0652 25.6679 43.9319C25.9745 44.7985 26.4145 45.4652 26.9879 45.9319C27.5612 46.3852 28.2279 46.6119 28.9879 46.6119C29.9345 46.6119 30.6679 46.4052 31.1879 45.9919C31.7212 45.5652 32.2145 44.9052 32.6679 44.0119L33.9279 44.7719C33.4479 45.8119 32.8079 46.6052 32.0079 47.1519C31.2212 47.6985 30.2812 47.9719 29.1879 47.9719ZM40.4973 37.9719C40.8173 37.9719 41.1239 38.0185 41.4173 38.1119V39.3519C41.1373 39.2185 40.8306 39.1519 40.4973 39.1519C39.9239 39.1519 39.3906 39.3119 38.8973 39.6319C38.4039 39.9519 38.0039 40.4185 37.6973 41.0319C37.4039 41.6319 37.2573 42.3452 37.2573 43.1719V47.6519H35.8973V38.2919H37.2573V40.1719C37.6173 39.4785 38.0706 38.9385 38.6173 38.5519C39.1773 38.1652 39.8039 37.9719 40.4973 37.9719ZM46.5193 37.9719C47.3593 37.9719 48.1193 38.1785 48.7993 38.5919C49.4793 39.0052 50.0126 39.5719 50.3993 40.2919C50.786 40.9985 50.9793 41.7919 50.9793 42.6719C50.9793 42.9252 50.9726 43.1185 50.9593 43.2519H43.2593C43.3126 44.2119 43.626 45.0319 44.1993 45.7119C44.7726 46.3919 45.5526 46.7319 46.5393 46.7319C47.3393 46.7319 47.9993 46.5852 48.5193 46.2919C49.0526 45.9852 49.4793 45.5652 49.7993 45.0319L50.8793 45.7519C50.4393 46.4452 49.8593 46.9919 49.1393 47.3919C48.4193 47.7785 47.566 47.9719 46.5793 47.9719C45.6726 47.9719 44.866 47.7585 44.1593 47.3319C43.4526 46.9052 42.8993 46.3119 42.4993 45.5519C42.0993 44.7919 41.8993 43.9319 41.8993 42.9719C41.8993 42.0119 42.0926 41.1519 42.4793 40.3919C42.8793 39.6319 43.426 39.0385 44.1193 38.6119C44.826 38.1852 45.626 37.9719 46.5193 37.9719ZM49.6193 42.1319C49.486 41.1585 49.1593 40.4319 48.6393 39.9519C48.1193 39.4585 47.4126 39.2119 46.5193 39.2119C45.6526 39.2119 44.9393 39.4919 44.3793 40.0519C43.8326 40.5985 43.486 41.2919 43.3393 42.1319H49.6193ZM61.6871 38.2919V47.6519H60.3271V46.2719C59.9404 46.8052 59.4671 47.2252 58.9071 47.5319C58.3471 47.8252 57.7338 47.9719 57.0671 47.9719C56.1738 47.9719 55.3738 47.7585 54.6671 47.3319C53.9604 46.9052 53.4071 46.3119 53.0071 45.5519C52.6071 44.7919 52.4071 43.9252 52.4071 42.9519C52.4071 41.9919 52.6004 41.1385 52.9871 40.3919C53.3871 39.6319 53.9338 39.0385 54.6271 38.6119C55.3338 38.1852 56.1338 37.9719 57.0271 37.9719C57.7071 37.9719 58.3271 38.1252 58.8871 38.4319C59.4604 38.7252 59.9404 39.1452 60.3271 39.6919V38.2919H61.6871ZM57.0271 46.7319C57.6671 46.7319 58.2338 46.5719 58.7271 46.2519C59.2338 45.9319 59.6271 45.4852 59.9071 44.9119C60.1871 44.3385 60.3271 43.6919 60.3271 42.9719C60.3271 42.2519 60.1871 41.6052 59.9071 41.0319C59.6271 40.4585 59.2338 40.0119 58.7271 39.6919C58.2338 39.3719 57.6671 39.2119 57.0271 39.2119C56.4004 39.2119 55.8404 39.3719 55.3471 39.6919C54.8538 40.0119 54.4671 40.4585 54.1871 41.0319C53.9071 41.5919 53.7671 42.2319 53.7671 42.9519C53.7671 43.6852 53.9071 44.3385 54.1871 44.9119C54.4671 45.4852 54.8538 45.9319 55.3471 46.2519C55.8404 46.5719 56.4004 46.7319 57.0271 46.7319ZM64.698 47.6519V39.5319H63.098V38.2919H64.698V35.1919H66.058V38.2919H68.218V39.5319H66.058V47.6519H64.698ZM73.7458 37.9719C74.5858 37.9719 75.3458 38.1785 76.0258 38.5919C76.7058 39.0052 77.2392 39.5719 77.6258 40.2919C78.0125 40.9985 78.2058 41.7919 78.2058 42.6719C78.2058 42.9252 78.1992 43.1185 78.1858 43.2519H70.4858C70.5392 44.2119 70.8525 45.0319 71.4258 45.7119C71.9992 46.3919 72.7792 46.7319 73.7658 46.7319C74.5658 46.7319 75.2258 46.5852 75.7458 46.2919C76.2792 45.9852 76.7058 45.5652 77.0258 45.0319L78.1058 45.7519C77.6658 46.4452 77.0858 46.9919 76.3658 47.3919C75.6458 47.7785 74.7925 47.9719 73.8058 47.9719C72.8992 47.9719 72.0925 47.7585 71.3858 47.3319C70.6792 46.9052 70.1258 46.3119 69.7258 45.5519C69.3258 44.7919 69.1258 43.9319 69.1258 42.9719C69.1258 42.0119 69.3192 41.1519 69.7058 40.3919C70.1058 39.6319 70.6525 39.0385 71.3458 38.6119C72.0525 38.1852 72.8525 37.9719 73.7458 37.9719ZM76.8458 42.1319C76.7125 41.1585 76.3858 40.4319 75.8658 39.9519C75.3458 39.4585 74.6392 39.2119 73.7458 39.2119C72.8792 39.2119 72.1658 39.4919 71.6058 40.0519C71.0592 40.5985 70.7125 41.2919 70.5658 42.1319H76.8458ZM90.0668 47.9719C88.9201 47.9719 87.9268 47.6919 87.0868 47.1319C86.2601 46.5585 85.6201 45.7452 85.1668 44.6919C84.7268 43.6252 84.5068 42.3519 84.5068 40.8719C84.5068 39.3785 84.7201 38.0985 85.1468 37.0319C85.5868 35.9519 86.2068 35.1319 87.0068 34.5719C87.8201 33.9985 88.7801 33.7119 89.8868 33.7119C91.0201 33.7119 91.9868 33.9652 92.7868 34.4719C93.6001 34.9652 94.2335 35.6652 94.6868 36.5719L93.4868 37.2719C93.0601 36.4852 92.5601 35.9252 91.9868 35.5919C91.4135 35.2452 90.7135 35.0719 89.8868 35.0719C88.7001 35.0719 87.7668 35.5852 87.0868 36.6119C86.4201 37.6252 86.0868 39.0385 86.0868 40.8519C86.0868 42.0385 86.2401 43.0652 86.5468 43.9319C86.8535 44.7985 87.2935 45.4652 87.8668 45.9319C88.4401 46.3852 89.1068 46.6119 89.8668 46.6119C90.8135 46.6119 91.5468 46.4052 92.0668 45.9919C92.6001 45.5652 93.0935 44.9052 93.5468 44.0119L94.8068 44.7719C94.3268 45.8119 93.6868 46.6052 92.8868 47.1519C92.1001 47.6985 91.1601 47.9719 90.0668 47.9719ZM100.856 47.9719C99.9628 47.9719 99.1628 47.7585 98.4562 47.3319C97.7495 46.9052 97.1962 46.3119 96.7962 45.5519C96.3962 44.7785 96.1962 43.9119 96.1962 42.9519C96.1962 41.9919 96.3895 41.1385 96.7762 40.3919C97.1762 39.6319 97.7228 39.0385 98.4162 38.6119C99.1228 38.1852 99.9228 37.9719 100.816 37.9719C101.709 37.9719 102.509 38.1852 103.216 38.6119C103.923 39.0385 104.476 39.6319 104.876 40.3919C105.276 41.1519 105.476 42.0119 105.476 42.9719C105.476 43.9319 105.276 44.7919 104.876 45.5519C104.489 46.3119 103.943 46.9052 103.236 47.3319C102.543 47.7585 101.749 47.9719 100.856 47.9719ZM100.816 46.7319C101.456 46.7319 102.023 46.5719 102.516 46.2519C103.023 45.9319 103.416 45.4852 103.696 44.9119C103.976 44.3385 104.116 43.6919 104.116 42.9719C104.116 42.2519 103.976 41.6052 103.696 41.0319C103.416 40.4585 103.023 40.0119 102.516 39.6919C102.023 39.3719 101.456 39.2119 100.816 39.2119C100.189 39.2119 99.6295 39.3719 99.1362 39.6919C98.6428 40.0119 98.2562 40.4585 97.9762 41.0319C97.6962 41.5919 97.5562 42.2319 97.5562 42.9519C97.5562 43.6852 97.6962 44.3385 97.9762 44.9119C98.2562 45.4852 98.6428 45.9319 99.1362 46.2519C99.6295 46.5719 100.189 46.7319 100.816 46.7319ZM111.861 37.9719C112.514 37.9719 113.114 38.1052 113.661 38.3719C114.221 38.6385 114.661 39.0319 114.981 39.5519C115.314 40.0719 115.481 40.6852 115.481 41.3919V47.6519H114.121V41.9919C114.121 40.1385 113.294 39.2119 111.641 39.2119C110.681 39.2119 109.961 39.5519 109.481 40.2319C109.001 40.9119 108.761 41.8252 108.761 42.9719V47.6519H107.401V38.2919H108.761V39.8519C109.081 39.2519 109.501 38.7919 110.021 38.4719C110.554 38.1385 111.168 37.9719 111.861 37.9719ZM118.643 47.6519V39.5319H117.043V38.2919H118.643V35.1919H120.003V38.2919H122.163V39.5319H120.003V47.6519H118.643ZM127.691 37.9719C128.531 37.9719 129.291 38.1785 129.971 38.5919C130.651 39.0052 131.184 39.5719 131.571 40.2919C131.958 40.9985 132.151 41.7919 132.151 42.6719C132.151 42.9252 132.144 43.1185 132.131 43.2519H124.431C124.484 44.2119 124.798 45.0319 125.371 45.7119C125.944 46.3919 126.724 46.7319 127.711 46.7319C128.511 46.7319 129.171 46.5852 129.691 46.2919C130.224 45.9852 130.651 45.5652 130.971 45.0319L132.051 45.7519C131.611 46.4452 131.031 46.9919 130.311 47.3919C129.591 47.7785 128.738 47.9719 127.751 47.9719C126.844 47.9719 126.038 47.7585 125.331 47.3319C124.624 46.9052 124.071 46.3119 123.671 45.5519C123.271 44.7919 123.071 43.9319 123.071 42.9719C123.071 42.0119 123.264 41.1519 123.651 40.3919C124.051 39.6319 124.598 39.0385 125.291 38.6119C125.998 38.1852 126.798 37.9719 127.691 37.9719ZM130.791 42.1319C130.658 41.1585 130.331 40.4319 129.811 39.9519C129.291 39.4585 128.584 39.2119 127.691 39.2119C126.824 39.2119 126.111 39.4919 125.551 40.0519C125.004 40.5985 124.658 41.2919 124.511 42.1319H130.791ZM138.619 37.9719C139.272 37.9719 139.872 38.1052 140.419 38.3719C140.979 38.6385 141.419 39.0319 141.739 39.5519C142.072 40.0719 142.239 40.6852 142.239 41.3919V47.6519H140.879V41.9919C140.879 40.1385 140.052 39.2119 138.399 39.2119C137.439 39.2119 136.719 39.5519 136.239 40.2319C135.759 40.9119 135.519 41.8252 135.519 42.9719V47.6519H134.159V38.2919H135.519V39.8519C135.839 39.2519 136.259 38.7919 136.779 38.4719C137.312 38.1385 137.926 37.9719 138.619 37.9719ZM145.401 47.6519V39.5319H143.801V38.2919H145.401V35.1919H146.761V38.2919H148.921V39.5319H146.761V47.6519H145.401Z" fill="#3B3B3B"/>
<path d="M60.2216 157.231C59.2216 157.231 58.2482 156.984 57.3016 156.491C56.3549 155.984 55.5682 155.304 54.9416 154.451L56.1616 153.371C56.6416 154.131 57.2549 154.737 58.0016 155.191C58.7482 155.631 59.5549 155.851 60.4216 155.851C61.3682 155.851 62.0882 155.644 62.5816 155.231C63.0749 154.804 63.3216 154.231 63.3216 153.511C63.3216 152.724 63.0549 152.124 62.5216 151.711C62.0016 151.284 61.1682 150.911 60.0216 150.591C57.1416 149.884 55.7016 148.577 55.7016 146.671C55.7016 145.484 56.0882 144.571 56.8616 143.931C57.6349 143.291 58.7082 142.971 60.0816 142.971C61.0816 142.971 61.9749 143.157 62.7616 143.531C63.5616 143.904 64.2749 144.477 64.9016 145.251L63.7216 146.251C63.2416 145.597 62.7149 145.117 62.1416 144.811C61.5682 144.491 60.8816 144.331 60.0816 144.331C59.2416 144.331 58.5549 144.531 58.0216 144.931C57.4882 145.317 57.2216 145.851 57.2216 146.531C57.2216 147.224 57.4682 147.777 57.9616 148.191C58.4549 148.591 59.2882 148.931 60.4616 149.211C61.8482 149.584 62.9216 150.097 63.6816 150.751C64.4549 151.404 64.8416 152.324 64.8416 153.511C64.8416 154.244 64.6549 154.891 64.2816 155.451C63.9082 156.011 63.3682 156.451 62.6616 156.771C61.9682 157.077 61.1549 157.231 60.2216 157.231ZM71.0617 157.231C70.1551 157.231 69.3484 157.017 68.6417 156.591C67.9351 156.164 67.3817 155.571 66.9817 154.811C66.5817 154.051 66.3817 153.191 66.3817 152.231C66.3817 151.271 66.5751 150.411 66.9617 149.651C67.3617 148.891 67.9151 148.297 68.6217 147.871C69.3284 147.444 70.1284 147.231 71.0217 147.231C71.7817 147.231 72.4417 147.397 73.0017 147.731C73.5751 148.051 74.0951 148.511 74.5617 149.111L73.5617 149.891C72.9084 148.944 72.0617 148.471 71.0217 148.471C70.3951 148.471 69.8284 148.631 69.3217 148.951C68.8284 149.271 68.4417 149.717 68.1617 150.291C67.8817 150.864 67.7417 151.511 67.7417 152.231C67.7417 152.951 67.8817 153.597 68.1617 154.171C68.4417 154.744 68.8284 155.191 69.3217 155.511C69.8284 155.831 70.3951 155.991 71.0217 155.991C71.6617 155.991 72.1884 155.884 72.6017 155.671C73.0151 155.444 73.3884 155.117 73.7217 154.691L74.7817 155.431C74.3417 155.977 73.7951 156.417 73.1417 156.751C72.5017 157.071 71.8084 157.231 71.0617 157.231ZM80.993 147.231C81.6463 147.231 82.2463 147.364 82.793 147.631C83.353 147.897 83.793 148.291 84.113 148.811C84.4463 149.331 84.613 149.944 84.613 150.651V156.911H83.253V151.251C83.253 149.397 82.4263 148.471 80.773 148.471C79.813 148.471 79.093 148.811 78.613 149.491C78.133 150.171 77.893 151.084 77.893 152.231V156.911H76.533V142.391H77.893V149.111C78.213 148.511 78.633 148.051 79.153 147.731C79.6863 147.397 80.2996 147.231 80.993 147.231ZM91.2566 147.231C92.0966 147.231 92.8566 147.437 93.5366 147.851C94.2166 148.264 94.7499 148.831 95.1366 149.551C95.5232 150.257 95.7166 151.051 95.7166 151.931C95.7166 152.184 95.7099 152.377 95.6966 152.511H87.9966C88.0499 153.471 88.3632 154.291 88.9366 154.971C89.5099 155.651 90.2899 155.991 91.2766 155.991C92.0766 155.991 92.7366 155.844 93.2566 155.551C93.7899 155.244 94.2166 154.824 94.5366 154.291L95.6166 155.011C95.1766 155.704 94.5966 156.251 93.8766 156.651C93.1566 157.037 92.3032 157.231 91.3166 157.231C90.4099 157.231 89.6032 157.017 88.8966 156.591C88.1899 156.164 87.6366 155.571 87.2366 154.811C86.8366 154.051 86.6366 153.191 86.6366 152.231C86.6366 151.271 86.8299 150.411 87.2166 149.651C87.6166 148.891 88.1632 148.297 88.8566 147.871C89.5632 147.444 90.3632 147.231 91.2566 147.231ZM94.3566 151.391C94.2232 150.417 93.8966 149.691 93.3766 149.211C92.8566 148.717 92.1499 148.471 91.2566 148.471C90.3899 148.471 89.6766 148.751 89.1166 149.311C88.5699 149.857 88.2232 150.551 88.0766 151.391H94.3566ZM106.424 142.391V156.911H105.064V155.531C104.678 156.064 104.204 156.484 103.644 156.791C103.084 157.084 102.471 157.231 101.804 157.231C100.911 157.231 100.111 157.017 99.4044 156.591C98.6977 156.164 98.1444 155.571 97.7444 154.811C97.3444 154.051 97.1444 153.184 97.1444 152.211C97.1444 151.251 97.3377 150.397 97.7244 149.651C98.1244 148.891 98.6711 148.297 99.3644 147.871C100.071 147.444 100.871 147.231 101.764 147.231C102.444 147.231 103.064 147.384 103.624 147.691C104.198 147.984 104.678 148.404 105.064 148.951V142.391H106.424ZM101.764 155.991C102.404 155.991 102.971 155.831 103.464 155.511C103.971 155.191 104.364 154.744 104.644 154.171C104.924 153.597 105.064 152.951 105.064 152.231C105.064 151.511 104.924 150.864 104.644 150.291C104.364 149.717 103.971 149.271 103.464 148.951C102.971 148.631 102.404 148.471 101.764 148.471C101.138 148.471 100.578 148.631 100.084 148.951C99.5911 149.271 99.2044 149.717 98.9244 150.291C98.6444 150.851 98.5044 151.491 98.5044 152.211C98.5044 152.944 98.6444 153.597 98.9244 154.171C99.2044 154.744 99.5911 155.191 100.084 155.511C100.578 155.831 101.138 155.991 101.764 155.991ZM117.155 147.551V156.911H115.795V155.351C115.475 155.951 115.049 156.417 114.515 156.751C113.995 157.071 113.389 157.231 112.695 157.231C112.042 157.231 111.435 157.097 110.875 156.831C110.329 156.564 109.889 156.171 109.555 155.651C109.235 155.131 109.075 154.517 109.075 153.811V147.551H110.435V153.211C110.435 155.064 111.262 155.991 112.915 155.991C113.875 155.991 114.595 155.651 115.075 154.971C115.555 154.291 115.795 153.377 115.795 152.231V147.551H117.155ZM119.778 156.911V142.391H121.138V156.911H119.778ZM124.48 156.911V147.551H125.84V156.911H124.48ZM125.16 145.731C124.853 145.731 124.593 145.624 124.38 145.411C124.18 145.197 124.08 144.937 124.08 144.631C124.08 144.337 124.18 144.091 124.38 143.891C124.593 143.677 124.853 143.571 125.16 143.571C125.453 143.571 125.707 143.677 125.92 143.891C126.133 144.091 126.24 144.344 126.24 144.651C126.24 144.944 126.133 145.197 125.92 145.411C125.707 145.624 125.453 145.731 125.16 145.731ZM133.552 147.231C134.205 147.231 134.805 147.364 135.352 147.631C135.912 147.897 136.352 148.291 136.672 148.811C137.005 149.331 137.172 149.944 137.172 150.651V156.911H135.812V151.251C135.812 149.397 134.985 148.471 133.332 148.471C132.372 148.471 131.652 148.811 131.172 149.491C130.692 150.171 130.452 151.084 130.452 152.231V156.911H129.092V147.551H130.452V149.111C130.772 148.511 131.192 148.051 131.712 147.731C132.245 147.397 132.858 147.231 133.552 147.231ZM148.534 147.551V156.551C148.534 157.391 148.36 158.137 148.014 158.791C147.667 159.457 147.18 159.977 146.554 160.351C145.927 160.724 145.214 160.911 144.414 160.911H140.534V159.671H144.414C145.227 159.671 145.887 159.377 146.394 158.791C146.914 158.204 147.174 157.457 147.174 156.551V155.531C146.787 156.064 146.314 156.484 145.754 156.791C145.194 157.084 144.58 157.231 143.914 157.231C143.02 157.231 142.22 157.017 141.514 156.591C140.807 156.164 140.254 155.571 139.854 154.811C139.454 154.051 139.254 153.184 139.254 152.211C139.254 151.251 139.447 150.397 139.834 149.651C140.234 148.891 140.78 148.297 141.474 147.871C142.18 147.444 142.98 147.231 143.874 147.231C144.554 147.231 145.174 147.384 145.734 147.691C146.307 147.984 146.787 148.404 147.174 148.951V147.551H148.534ZM143.874 155.991C144.514 155.991 145.08 155.831 145.574 155.511C146.08 155.191 146.474 154.744 146.754 154.171C147.034 153.597 147.174 152.951 147.174 152.231C147.174 151.511 147.034 150.864 146.754 150.291C146.474 149.717 146.08 149.271 145.574 148.951C145.08 148.631 144.514 148.471 143.874 148.471C143.247 148.471 142.687 148.631 142.194 148.951C141.7 149.271 141.314 149.717 141.034 150.291C140.754 150.851 140.614 151.491 140.614 152.211C140.614 152.944 140.754 153.597 141.034 154.171C141.314 154.744 141.7 155.191 142.194 155.511C142.687 155.831 143.247 155.991 143.874 155.991Z" fill="#3B3B3B"/>
<path d="M31.6962 267.913C30.5495 267.913 29.5562 267.633 28.7162 267.073C27.8895 266.5 27.2495 265.687 26.7962 264.633C26.3562 263.567 26.1362 262.293 26.1362 260.813C26.1362 259.32 26.3495 258.04 26.7762 256.973C27.2162 255.893 27.8362 255.073 28.6362 254.513C29.4495 253.94 30.4095 253.653 31.5162 253.653C32.6495 253.653 33.6162 253.907 34.4162 254.413C35.2295 254.907 35.8629 255.607 36.3162 256.513L35.1162 257.213C34.6895 256.427 34.1895 255.867 33.6162 255.533C33.0429 255.187 32.3429 255.013 31.5162 255.013C30.3295 255.013 29.3962 255.527 28.7162 256.553C28.0495 257.567 27.7162 258.98 27.7162 260.793C27.7162 261.98 27.8695 263.007 28.1762 263.873C28.4829 264.74 28.9229 265.407 29.4962 265.873C30.0695 266.327 30.7362 266.553 31.4962 266.553C32.4429 266.553 33.1762 266.347 33.6962 265.933C34.2295 265.507 34.7229 264.847 35.1762 263.953L36.4362 264.713C35.9562 265.753 35.3162 266.547 34.5162 267.093C33.7295 267.64 32.7895 267.913 31.6962 267.913ZM42.4856 267.913C41.5923 267.913 40.7923 267.7 40.0856 267.273C39.3789 266.847 38.8256 266.253 38.4256 265.493C38.0256 264.72 37.8256 263.853 37.8256 262.893C37.8256 261.933 38.0189 261.08 38.4056 260.333C38.8056 259.573 39.3523 258.98 40.0456 258.553C40.7523 258.127 41.5523 257.913 42.4456 257.913C43.3389 257.913 44.1389 258.127 44.8456 258.553C45.5523 258.98 46.1056 259.573 46.5056 260.333C46.9056 261.093 47.1056 261.953 47.1056 262.913C47.1056 263.873 46.9056 264.733 46.5056 265.493C46.1189 266.253 45.5723 266.847 44.8656 267.273C44.1723 267.7 43.3789 267.913 42.4856 267.913ZM42.4456 266.673C43.0856 266.673 43.6523 266.513 44.1456 266.193C44.6523 265.873 45.0456 265.427 45.3256 264.853C45.6056 264.28 45.7456 263.633 45.7456 262.913C45.7456 262.193 45.6056 261.547 45.3256 260.973C45.0456 260.4 44.6523 259.953 44.1456 259.633C43.6523 259.313 43.0856 259.153 42.4456 259.153C41.8189 259.153 41.2589 259.313 40.7656 259.633C40.2723 259.953 39.8856 260.4 39.6056 260.973C39.3256 261.533 39.1856 262.173 39.1856 262.893C39.1856 263.627 39.3256 264.28 39.6056 264.853C39.8856 265.427 40.2723 265.873 40.7656 266.193C41.2589 266.513 41.8189 266.673 42.4456 266.673ZM49.1306 267.593V253.073H50.4906V267.593H49.1306ZM53.1931 267.593V253.073H54.5531V267.593H53.1931ZM65.8556 258.233V267.593H64.4956V266.213C64.1089 266.747 63.6356 267.167 63.0756 267.473C62.5156 267.767 61.9023 267.913 61.2356 267.913C60.3423 267.913 59.5423 267.7 58.8356 267.273C58.1289 266.847 57.5756 266.253 57.1756 265.493C56.7756 264.733 56.5756 263.867 56.5756 262.893C56.5756 261.933 56.7689 261.08 57.1556 260.333C57.5556 259.573 58.1023 258.98 58.7956 258.553C59.5023 258.127 60.3023 257.913 61.1956 257.913C61.8756 257.913 62.4956 258.067 63.0556 258.373C63.6289 258.667 64.1089 259.087 64.4956 259.633V258.233H65.8556ZM61.1956 266.673C61.8356 266.673 62.4023 266.513 62.8956 266.193C63.4023 265.873 63.7956 265.427 64.0756 264.853C64.3556 264.28 64.4956 263.633 64.4956 262.913C64.4956 262.193 64.3556 261.547 64.0756 260.973C63.7956 260.4 63.4023 259.953 62.8956 259.633C62.4023 259.313 61.8356 259.153 61.1956 259.153C60.5689 259.153 60.0089 259.313 59.5156 259.633C59.0223 259.953 58.6356 260.4 58.3556 260.973C58.0756 261.533 57.9356 262.173 57.9356 262.893C57.9356 263.627 58.0756 264.28 58.3556 264.853C58.6356 265.427 59.0223 265.873 59.5156 266.193C60.0089 266.513 60.5689 266.673 61.1956 266.673ZM73.0465 257.913C73.9399 257.913 74.7332 258.127 75.4265 258.553C76.1332 258.98 76.6799 259.573 77.0665 260.333C77.4665 261.08 77.6665 261.933 77.6665 262.893C77.6665 263.867 77.4665 264.733 77.0665 265.493C76.6665 266.253 76.1132 266.847 75.4065 267.273C74.6999 267.7 73.8999 267.913 73.0065 267.913C72.3399 267.913 71.7265 267.767 71.1665 267.473C70.6065 267.167 70.1332 266.747 69.7465 266.213V267.593H68.3865V253.073H69.7465V259.633C70.1332 259.087 70.6065 258.667 71.1665 258.373C71.7399 258.067 72.3665 257.913 73.0465 257.913ZM73.0465 266.673C73.6732 266.673 74.2332 266.513 74.7265 266.193C75.2199 265.873 75.6065 265.427 75.8865 264.853C76.1665 264.28 76.3065 263.627 76.3065 262.893C76.3065 262.173 76.1665 261.533 75.8865 260.973C75.6065 260.4 75.2199 259.953 74.7265 259.633C74.2332 259.313 73.6732 259.153 73.0465 259.153C72.4065 259.153 71.8332 259.313 71.3265 259.633C70.8332 259.953 70.4465 260.4 70.1665 260.973C69.8865 261.547 69.7465 262.193 69.7465 262.913C69.7465 263.633 69.8865 264.28 70.1665 264.853C70.4465 265.427 70.8332 265.873 71.3265 266.193C71.8332 266.513 72.4065 266.673 73.0465 266.673ZM83.6575 267.913C82.7641 267.913 81.9641 267.7 81.2575 267.273C80.5508 266.847 79.9975 266.253 79.5975 265.493C79.1975 264.72 78.9975 263.853 78.9975 262.893C78.9975 261.933 79.1908 261.08 79.5775 260.333C79.9775 259.573 80.5241 258.98 81.2175 258.553C81.9241 258.127 82.7241 257.913 83.6175 257.913C84.5108 257.913 85.3108 258.127 86.0175 258.553C86.7241 258.98 87.2775 259.573 87.6775 260.333C88.0775 261.093 88.2775 261.953 88.2775 262.913C88.2775 263.873 88.0775 264.733 87.6775 265.493C87.2908 266.253 86.7441 266.847 86.0375 267.273C85.3441 267.7 84.5508 267.913 83.6575 267.913ZM83.6175 266.673C84.2575 266.673 84.8241 266.513 85.3175 266.193C85.8241 265.873 86.2175 265.427 86.4975 264.853C86.7775 264.28 86.9175 263.633 86.9175 262.913C86.9175 262.193 86.7775 261.547 86.4975 260.973C86.2175 260.4 85.8241 259.953 85.3175 259.633C84.8241 259.313 84.2575 259.153 83.6175 259.153C82.9908 259.153 82.4308 259.313 81.9375 259.633C81.4441 259.953 81.0575 260.4 80.7775 260.973C80.4975 261.533 80.3575 262.173 80.3575 262.893C80.3575 263.627 80.4975 264.28 80.7775 264.853C81.0575 265.427 81.4441 265.873 81.9375 266.193C82.4308 266.513 82.9908 266.673 83.6175 266.673ZM94.8025 257.913C95.1225 257.913 95.4291 257.96 95.7225 258.053V259.293C95.4425 259.16 95.1358 259.093 94.8025 259.093C94.2291 259.093 93.6958 259.253 93.2025 259.573C92.7091 259.893 92.3091 260.36 92.0025 260.973C91.7091 261.573 91.5625 262.287 91.5625 263.113V267.593H90.2025V258.233H91.5625V260.113C91.9225 259.42 92.3758 258.88 92.9225 258.493C93.4825 258.107 94.1091 257.913 94.8025 257.913ZM105.68 258.233V267.593H104.32V266.213C103.933 266.747 103.46 267.167 102.9 267.473C102.34 267.767 101.726 267.913 101.06 267.913C100.166 267.913 99.3665 267.7 98.6598 267.273C97.9531 266.847 97.3998 266.253 96.9998 265.493C96.5998 264.733 96.3998 263.867 96.3998 262.893C96.3998 261.933 96.5931 261.08 96.9798 260.333C97.3798 259.573 97.9265 258.98 98.6198 258.553C99.3265 258.127 100.126 257.913 101.02 257.913C101.7 257.913 102.32 258.067 102.88 258.373C103.453 258.667 103.933 259.087 104.32 259.633V258.233H105.68ZM101.02 266.673C101.66 266.673 102.226 266.513 102.72 266.193C103.226 265.873 103.62 265.427 103.9 264.853C104.18 264.28 104.32 263.633 104.32 262.913C104.32 262.193 104.18 261.547 103.9 260.973C103.62 260.4 103.226 259.953 102.72 259.633C102.226 259.313 101.66 259.153 101.02 259.153C100.393 259.153 99.8331 259.313 99.3398 259.633C98.8465 259.953 98.4598 260.4 98.1798 260.973C97.8998 261.533 97.7598 262.173 97.7598 262.893C97.7598 263.627 97.8998 264.28 98.1798 264.853C98.4598 265.427 98.8465 265.873 99.3398 266.193C99.8331 266.513 100.393 266.673 101.02 266.673ZM108.691 267.593V259.473H107.091V258.233H108.691V255.133H110.051V258.233H112.211V259.473H110.051V267.593H108.691ZM114.439 267.593V258.233H115.799V267.593H114.439ZM115.119 256.413C114.812 256.413 114.552 256.307 114.339 256.093C114.139 255.88 114.039 255.62 114.039 255.313C114.039 255.02 114.139 254.773 114.339 254.573C114.552 254.36 114.812 254.253 115.119 254.253C115.412 254.253 115.665 254.36 115.879 254.573C116.092 254.773 116.199 255.027 116.199 255.333C116.199 255.627 116.092 255.88 115.879 256.093C115.665 256.307 115.412 256.413 115.119 256.413ZM123.13 267.913C122.237 267.913 121.437 267.7 120.73 267.273C120.023 266.847 119.47 266.253 119.07 265.493C118.67 264.72 118.47 263.853 118.47 262.893C118.47 261.933 118.663 261.08 119.05 260.333C119.45 259.573 119.997 258.98 120.69 258.553C121.397 258.127 122.197 257.913 123.09 257.913C123.983 257.913 124.783 258.127 125.49 258.553C126.197 258.98 126.75 259.573 127.15 260.333C127.55 261.093 127.75 261.953 127.75 262.913C127.75 263.873 127.55 264.733 127.15 265.493C126.763 266.253 126.217 266.847 125.51 267.273C124.817 267.7 124.023 267.913 123.13 267.913ZM123.09 266.673C123.73 266.673 124.297 266.513 124.79 266.193C125.297 265.873 125.69 265.427 125.97 264.853C126.25 264.28 126.39 263.633 126.39 262.913C126.39 262.193 126.25 261.547 125.97 260.973C125.69 260.4 125.297 259.953 124.79 259.633C124.297 259.313 123.73 259.153 123.09 259.153C122.463 259.153 121.903 259.313 121.41 259.633C120.917 259.953 120.53 260.4 120.25 260.973C119.97 261.533 119.83 262.173 119.83 262.893C119.83 263.627 119.97 264.28 120.25 264.853C120.53 265.427 120.917 265.873 121.41 266.193C121.903 266.513 122.463 266.673 123.09 266.673ZM134.135 257.913C134.788 257.913 135.388 258.047 135.935 258.313C136.495 258.58 136.935 258.973 137.255 259.493C137.588 260.013 137.755 260.627 137.755 261.333V267.593H136.395V261.933C136.395 260.08 135.568 259.153 133.915 259.153C132.955 259.153 132.235 259.493 131.755 260.173C131.275 260.853 131.035 261.767 131.035 262.913V267.593H129.675V258.233H131.035V259.793C131.355 259.193 131.775 258.733 132.295 258.413C132.828 258.08 133.442 257.913 134.135 257.913Z" fill="#3B3B3B"/>
<path d="M42.406 378.019C40.726 378.019 39.466 377.566 38.626 376.659C37.786 375.739 37.366 374.399 37.366 372.639V364.059H38.866V372.639C38.866 375.319 40.046 376.659 42.406 376.659C43.4727 376.659 44.3127 376.313 44.926 375.619C45.5527 374.926 45.866 373.933 45.866 372.639V364.059H47.366V372.639C47.366 374.373 46.926 375.706 46.046 376.639C45.1793 377.559 43.966 378.019 42.406 378.019ZM54.8691 368.019C55.7625 368.019 56.5625 368.233 57.2691 368.659C57.9758 369.086 58.5291 369.679 58.9291 370.439C59.3291 371.199 59.5291 372.066 59.5291 373.039C59.5291 373.999 59.3291 374.859 58.9291 375.619C58.5425 376.366 57.9958 376.953 57.2891 377.379C56.5958 377.806 55.8025 378.019 54.9091 378.019C54.2291 378.019 53.6025 377.873 53.0291 377.579C52.4691 377.273 51.9958 376.846 51.6091 376.299V381.699H50.2491V368.339H51.6091V369.719C51.9958 369.186 52.4691 368.773 53.0291 368.479C53.5891 368.173 54.2025 368.019 54.8691 368.019ZM54.9091 376.779C55.5358 376.779 56.0958 376.619 56.5891 376.299C57.0825 375.979 57.4691 375.539 57.7491 374.979C58.0291 374.406 58.1691 373.759 58.1691 373.039C58.1691 372.306 58.0291 371.653 57.7491 371.079C57.4691 370.506 57.0825 370.059 56.5891 369.739C56.0958 369.419 55.5358 369.259 54.9091 369.259C54.2691 369.259 53.6958 369.419 53.1891 369.739C52.6958 370.059 52.3091 370.506 52.0291 371.079C51.7491 371.653 51.6091 372.299 51.6091 373.019C51.6091 373.739 51.7491 374.386 52.0291 374.959C52.3091 375.533 52.6958 375.979 53.1891 376.299C53.6958 376.619 54.2691 376.779 54.9091 376.779ZM61.5401 377.699V363.179H62.9001V377.699H61.5401ZM69.5826 378.019C68.6892 378.019 67.8892 377.806 67.1826 377.379C66.4759 376.953 65.9226 376.359 65.5226 375.599C65.1226 374.826 64.9226 373.959 64.9226 372.999C64.9226 372.039 65.1159 371.186 65.5026 370.439C65.9026 369.679 66.4492 369.086 67.1426 368.659C67.8492 368.233 68.6492 368.019 69.5426 368.019C70.4359 368.019 71.2359 368.233 71.9426 368.659C72.6492 369.086 73.2026 369.679 73.6026 370.439C74.0026 371.199 74.2026 372.059 74.2026 373.019C74.2026 373.979 74.0026 374.839 73.6026 375.599C73.2159 376.359 72.6692 376.953 71.9626 377.379C71.2692 377.806 70.4759 378.019 69.5826 378.019ZM69.5426 376.779C70.1826 376.779 70.7492 376.619 71.2426 376.299C71.7492 375.979 72.1426 375.533 72.4226 374.959C72.7026 374.386 72.8426 373.739 72.8426 373.019C72.8426 372.299 72.7026 371.653 72.4226 371.079C72.1426 370.506 71.7492 370.059 71.2426 369.739C70.7492 369.419 70.1826 369.259 69.5426 369.259C68.9159 369.259 68.3559 369.419 67.8626 369.739C67.3692 370.059 66.9826 370.506 66.7026 371.079C66.4226 371.639 66.2826 372.279 66.2826 372.999C66.2826 373.733 66.4226 374.386 66.7026 374.959C66.9826 375.533 67.3692 375.979 67.8626 376.299C68.3559 376.619 68.9159 376.779 69.5426 376.779ZM84.8276 368.339V377.699H83.4676V376.319C83.0809 376.853 82.6076 377.273 82.0476 377.579C81.4876 377.873 80.8742 378.019 80.2076 378.019C79.3142 378.019 78.5142 377.806 77.8076 377.379C77.1009 376.953 76.5476 376.359 76.1476 375.599C75.7476 374.839 75.5476 373.973 75.5476 372.999C75.5476 372.039 75.7409 371.186 76.1276 370.439C76.5276 369.679 77.0742 369.086 77.7676 368.659C78.4742 368.233 79.2742 368.019 80.1676 368.019C80.8476 368.019 81.4676 368.173 82.0276 368.479C82.6009 368.773 83.0809 369.193 83.4676 369.739V368.339H84.8276ZM80.1676 376.779C80.8076 376.779 81.3742 376.619 81.8676 376.299C82.3742 375.979 82.7676 375.533 83.0476 374.959C83.3276 374.386 83.4676 373.739 83.4676 373.019C83.4676 372.299 83.3276 371.653 83.0476 371.079C82.7676 370.506 82.3742 370.059 81.8676 369.739C81.3742 369.419 80.8076 369.259 80.1676 369.259C79.5409 369.259 78.9809 369.419 78.4876 369.739C77.9942 370.059 77.6076 370.506 77.3276 371.079C77.0476 371.639 76.9076 372.279 76.9076 372.999C76.9076 373.733 77.0476 374.386 77.3276 374.959C77.6076 375.533 77.9942 375.979 78.4876 376.299C78.9809 376.619 79.5409 376.779 80.1676 376.779ZM96.0385 363.179V377.699H94.6785V376.319C94.2918 376.853 93.8185 377.273 93.2585 377.579C92.6985 377.873 92.0852 378.019 91.4185 378.019C90.5252 378.019 89.7252 377.806 89.0185 377.379C88.3118 376.953 87.7585 376.359 87.3585 375.599C86.9585 374.839 86.7585 373.973 86.7585 372.999C86.7585 372.039 86.9518 371.186 87.3385 370.439C87.7385 369.679 88.2852 369.086 88.9785 368.659C89.6852 368.233 90.4852 368.019 91.3785 368.019C92.0585 368.019 92.6785 368.173 93.2385 368.479C93.8118 368.773 94.2918 369.193 94.6785 369.739V363.179H96.0385ZM91.3785 376.779C92.0185 376.779 92.5852 376.619 93.0785 376.299C93.5852 375.979 93.9785 375.533 94.2585 374.959C94.5385 374.386 94.6785 373.739 94.6785 373.019C94.6785 372.299 94.5385 371.653 94.2585 371.079C93.9785 370.506 93.5852 370.059 93.0785 369.739C92.5852 369.419 92.0185 369.259 91.3785 369.259C90.7518 369.259 90.1918 369.419 89.6985 369.739C89.2052 370.059 88.8185 370.506 88.5385 371.079C88.2585 371.639 88.1185 372.279 88.1185 372.999C88.1185 373.733 88.2585 374.386 88.5385 374.959C88.8185 375.533 89.2052 375.979 89.6985 376.299C90.1918 376.619 90.7518 376.779 91.3785 376.779ZM107.326 377.699V364.059H114.766V365.319H108.826V370.079H113.226V371.299H108.826V377.699H107.326ZM116.77 377.699V368.339H118.13V377.699H116.77ZM117.45 366.519C117.143 366.519 116.883 366.413 116.67 366.199C116.47 365.986 116.37 365.726 116.37 365.419C116.37 365.126 116.47 364.879 116.67 364.679C116.883 364.466 117.143 364.359 117.45 364.359C117.743 364.359 117.997 364.466 118.21 364.679C118.423 364.879 118.53 365.133 118.53 365.439C118.53 365.733 118.423 365.986 118.21 366.199C117.997 366.413 117.743 366.519 117.45 366.519ZM121.481 377.699V363.179H122.841V377.699H121.481ZM129.484 368.019C130.324 368.019 131.084 368.226 131.764 368.639C132.444 369.053 132.977 369.619 133.364 370.339C133.751 371.046 133.944 371.839 133.944 372.719C133.944 372.973 133.937 373.166 133.924 373.299H126.224C126.277 374.259 126.591 375.079 127.164 375.759C127.737 376.439 128.517 376.779 129.504 376.779C130.304 376.779 130.964 376.633 131.484 376.339C132.017 376.033 132.444 375.613 132.764 375.079L133.844 375.799C133.404 376.493 132.824 377.039 132.104 377.439C131.384 377.826 130.531 378.019 129.544 378.019C128.637 378.019 127.831 377.806 127.124 377.379C126.417 376.953 125.864 376.359 125.464 375.599C125.064 374.839 124.864 373.979 124.864 373.019C124.864 372.059 125.057 371.199 125.444 370.439C125.844 369.679 126.391 369.086 127.084 368.659C127.791 368.233 128.591 368.019 129.484 368.019ZM132.584 372.179C132.451 371.206 132.124 370.479 131.604 369.999C131.084 369.506 130.377 369.259 129.484 369.259C128.617 369.259 127.904 369.539 127.344 370.099C126.797 370.646 126.451 371.339 126.304 372.179H132.584ZM139.252 378.019C138.345 378.019 137.545 377.826 136.852 377.439C136.172 377.053 135.652 376.506 135.292 375.799L136.512 375.199C137.005 376.253 137.972 376.779 139.412 376.779C140.105 376.779 140.678 376.653 141.132 376.399C141.585 376.146 141.812 375.753 141.812 375.219C141.812 374.673 141.625 374.266 141.252 373.999C140.892 373.733 140.252 373.559 139.332 373.479C138.052 373.373 137.132 373.086 136.572 372.619C136.025 372.153 135.752 371.533 135.752 370.759C135.752 369.893 136.065 369.219 136.692 368.739C137.318 368.259 138.178 368.019 139.272 368.019C141.125 368.019 142.385 368.753 143.052 370.219L141.832 370.819C141.605 370.286 141.272 369.893 140.832 369.639C140.405 369.386 139.852 369.259 139.172 369.259C138.478 369.259 137.945 369.386 137.572 369.639C137.212 369.893 137.032 370.253 137.032 370.719C137.032 371.159 137.225 371.519 137.612 371.799C138.012 372.066 138.692 372.239 139.652 372.319C140.838 372.426 141.718 372.719 142.292 373.199C142.878 373.666 143.172 374.286 143.172 375.059C143.172 375.686 142.992 376.226 142.632 376.679C142.272 377.119 141.792 377.453 141.192 377.679C140.592 377.906 139.945 378.019 139.252 378.019Z" fill="#3B3B3B"/>
</svg>
