<svg width="307" height="397" viewBox="0 0 307 397" fill="none" xmlns="http://www.w3.org/2000/svg">
<rect x="7" y="57.6458" width="56.8339" height="276.05" fill="#555C6E"/>
<path d="M21.3553 309.752C23.1953 310.578 24.1153 311.778 24.1153 313.352C24.1153 314.085 23.9086 314.752 23.4953 315.352C23.082 315.938 22.4953 316.405 21.7353 316.752C20.9886 317.098 20.1153 317.272 19.1153 317.272C18.1286 317.272 17.2686 317.105 16.5353 316.772C15.802 316.425 15.2353 315.958 14.8353 315.372C14.4353 314.785 14.2353 314.125 14.2353 313.392C14.2353 311.845 15.0886 310.712 16.7953 309.992C15.4486 309.258 14.7753 308.198 14.7753 306.812C14.7753 306.105 14.9686 305.485 15.3553 304.952C15.7553 304.405 16.2886 303.992 16.9553 303.712C17.6353 303.418 18.3753 303.272 19.1753 303.272C19.9886 303.272 20.7286 303.405 21.3953 303.672C22.062 303.938 22.5886 304.332 22.9753 304.852C23.3753 305.372 23.5753 305.992 23.5753 306.712C23.5753 307.978 22.8353 308.992 21.3553 309.752ZM19.1753 305.072C18.5753 305.072 18.102 305.225 17.7553 305.532C17.422 305.838 17.2553 306.278 17.2553 306.852C17.2553 307.385 17.4153 307.812 17.7353 308.132C18.0553 308.438 18.5686 308.718 19.2753 308.972L19.6553 309.112C20.1753 308.792 20.542 308.458 20.7553 308.112C20.982 307.752 21.0953 307.325 21.0953 306.832C21.0953 306.285 20.9286 305.858 20.5953 305.552C20.262 305.232 19.7886 305.072 19.1753 305.072ZM19.1753 315.372C19.9086 315.372 20.482 315.185 20.8953 314.812C21.3086 314.438 21.5153 313.952 21.5153 313.352C21.5153 312.738 21.3353 312.258 20.9753 311.912C20.6153 311.552 19.9753 311.205 19.0553 310.872L18.4353 310.652C17.3553 311.225 16.8153 312.112 16.8153 313.312C16.8153 313.952 17.0286 314.458 17.4553 314.832C17.882 315.192 18.4553 315.372 19.1753 315.372ZM29.3076 303.272C30.2143 303.272 30.9943 303.438 31.6476 303.772C32.3143 304.105 32.821 304.558 33.1676 305.132C33.5143 305.705 33.6876 306.345 33.6876 307.052C33.6876 307.812 33.521 308.545 33.1876 309.252C32.8676 309.945 32.3276 310.718 31.5676 311.572C30.8076 312.425 29.6943 313.552 28.2276 314.952H33.9876L33.7076 316.972H25.3276V315.092C27.0343 313.358 28.2543 312.078 28.9876 311.252C29.7343 310.412 30.261 309.698 30.5676 309.112C30.8876 308.512 31.0476 307.892 31.0476 307.252C31.0476 306.638 30.8676 306.158 30.5076 305.812C30.161 305.465 29.6943 305.292 29.1076 305.292C28.5876 305.292 28.1276 305.405 27.7276 305.632C27.341 305.845 26.9343 306.205 26.5076 306.712L24.9476 305.472C26.081 304.005 27.5343 303.272 29.3076 303.272ZM47.0444 302.652L48.7044 303.712L39.4244 317.692L37.7844 316.632L47.0444 302.652ZM38.9244 303.272C39.5644 303.272 40.1444 303.418 40.6644 303.712C41.1844 303.992 41.591 304.398 41.8844 304.932C42.191 305.465 42.3444 306.078 42.3444 306.772C42.3444 307.465 42.191 308.078 41.8844 308.612C41.591 309.145 41.1844 309.558 40.6644 309.852C40.1444 310.132 39.5644 310.272 38.9244 310.272C38.2844 310.272 37.7044 310.132 37.1844 309.852C36.6777 309.558 36.271 309.145 35.9644 308.612C35.671 308.078 35.5244 307.465 35.5244 306.772C35.5244 306.078 35.671 305.465 35.9644 304.932C36.271 304.398 36.6777 303.992 37.1844 303.712C37.7044 303.418 38.2844 303.272 38.9244 303.272ZM38.9244 304.872C38.4044 304.872 38.031 305.052 37.8044 305.412C37.591 305.758 37.4844 306.212 37.4844 306.772C37.4844 307.318 37.591 307.772 37.8044 308.132C38.031 308.492 38.4044 308.672 38.9244 308.672C39.8844 308.672 40.3644 308.038 40.3644 306.772C40.3644 305.505 39.8844 304.872 38.9244 304.872ZM47.5244 310.272C48.1644 310.272 48.7444 310.418 49.2644 310.712C49.7844 310.992 50.191 311.398 50.4844 311.932C50.7777 312.465 50.9244 313.078 50.9244 313.772C50.9244 314.465 50.7777 315.078 50.4844 315.612C50.191 316.145 49.7844 316.558 49.2644 316.852C48.7444 317.132 48.1644 317.272 47.5244 317.272C46.8844 317.272 46.3044 317.132 45.7844 316.852C45.2644 316.558 44.851 316.145 44.5444 315.612C44.251 315.078 44.1044 314.465 44.1044 313.772C44.1044 313.078 44.251 312.465 44.5444 311.932C44.851 311.398 45.2644 310.992 45.7844 310.712C46.3044 310.418 46.8844 310.272 47.5244 310.272ZM47.5244 311.872C47.0044 311.872 46.631 312.052 46.4044 312.412C46.191 312.758 46.0844 313.212 46.0844 313.772C46.0844 314.318 46.191 314.772 46.4044 315.132C46.631 315.492 47.0044 315.672 47.5244 315.672C48.4844 315.672 48.9644 315.038 48.9644 313.772C48.9644 312.505 48.4844 311.872 47.5244 311.872Z" fill="white"/>
<rect x="83.5768" y="157.511" width="56.8339" height="176.997" fill="#555C6E"/>
<path d="M99.8797 308.824C100.586 308.824 101.226 308.997 101.8 309.344C102.386 309.677 102.846 310.177 103.18 310.844C103.513 311.497 103.68 312.284 103.68 313.204C103.68 314.137 103.486 314.977 103.1 315.724C102.713 316.457 102.166 317.037 101.46 317.464C100.766 317.877 99.9731 318.084 99.0797 318.084C97.4264 318.084 96.1997 317.504 95.3997 316.344C94.6131 315.184 94.2197 313.59 94.2197 311.564C94.2197 310.07 94.4397 308.764 94.8797 307.644C95.3331 306.51 95.9731 305.637 96.7997 305.024C97.6397 304.397 98.6197 304.084 99.7397 304.084C100.846 304.084 101.826 304.37 102.68 304.944L101.72 306.524C101.106 306.164 100.46 305.984 99.7797 305.984C98.9264 305.984 98.2397 306.37 97.7197 307.144C97.2131 307.904 96.9264 308.957 96.8597 310.304C97.6731 309.317 98.6797 308.824 99.8797 308.824ZM99.0797 316.184C99.7464 316.184 100.246 315.924 100.58 315.404C100.926 314.87 101.1 314.15 101.1 313.244C101.1 312.324 100.94 311.67 100.62 311.284C100.313 310.884 99.8597 310.684 99.2597 310.684C98.8064 310.684 98.3731 310.81 97.9597 311.064C97.5597 311.304 97.1997 311.637 96.8797 312.064C96.9064 313.517 97.0864 314.57 97.4197 315.224C97.7664 315.864 98.3197 316.184 99.0797 316.184ZM108.761 304.084C109.654 304.084 110.421 304.237 111.061 304.544C111.714 304.85 112.201 305.264 112.521 305.784C112.854 306.304 113.021 306.877 113.021 307.504C113.021 308.317 112.787 308.997 112.321 309.544C111.854 310.077 111.214 310.45 110.401 310.664C111.294 310.744 112.027 311.064 112.601 311.624C113.174 312.184 113.461 312.957 113.461 313.944C113.461 314.717 113.261 315.417 112.861 316.044C112.474 316.67 111.914 317.17 111.181 317.544C110.447 317.904 109.581 318.084 108.581 318.084C106.741 318.084 105.287 317.437 104.221 316.144L105.641 314.784C106.094 315.237 106.541 315.57 106.981 315.784C107.421 315.984 107.907 316.084 108.441 316.084C109.161 316.084 109.734 315.884 110.161 315.484C110.601 315.07 110.821 314.517 110.821 313.824C110.821 313.05 110.614 312.497 110.201 312.164C109.801 311.83 109.201 311.664 108.401 311.664H107.341L107.641 309.844H108.361C109.014 309.844 109.534 309.664 109.921 309.304C110.321 308.944 110.521 308.444 110.521 307.804C110.521 307.257 110.341 306.83 109.981 306.524C109.621 306.204 109.141 306.044 108.541 306.044C108.021 306.044 107.547 306.144 107.121 306.344C106.694 306.53 106.267 306.824 105.841 307.224L104.541 305.804C105.754 304.657 107.161 304.084 108.761 304.084ZM126.576 303.464L128.236 304.524L118.956 318.504L117.316 317.444L126.576 303.464ZM118.456 304.084C119.096 304.084 119.676 304.23 120.196 304.524C120.716 304.804 121.123 305.21 121.416 305.744C121.723 306.277 121.876 306.89 121.876 307.584C121.876 308.277 121.723 308.89 121.416 309.424C121.123 309.957 120.716 310.37 120.196 310.664C119.676 310.944 119.096 311.084 118.456 311.084C117.816 311.084 117.236 310.944 116.716 310.664C116.209 310.37 115.803 309.957 115.496 309.424C115.203 308.89 115.056 308.277 115.056 307.584C115.056 306.89 115.203 306.277 115.496 305.744C115.803 305.21 116.209 304.804 116.716 304.524C117.236 304.23 117.816 304.084 118.456 304.084ZM118.456 305.684C117.936 305.684 117.563 305.864 117.336 306.224C117.123 306.57 117.016 307.024 117.016 307.584C117.016 308.13 117.123 308.584 117.336 308.944C117.563 309.304 117.936 309.484 118.456 309.484C119.416 309.484 119.896 308.85 119.896 307.584C119.896 306.317 119.416 305.684 118.456 305.684ZM127.056 311.084C127.696 311.084 128.276 311.23 128.796 311.524C129.316 311.804 129.723 312.21 130.016 312.744C130.309 313.277 130.456 313.89 130.456 314.584C130.456 315.277 130.309 315.89 130.016 316.424C129.723 316.957 129.316 317.37 128.796 317.664C128.276 317.944 127.696 318.084 127.056 318.084C126.416 318.084 125.836 317.944 125.316 317.664C124.796 317.37 124.383 316.957 124.076 316.424C123.783 315.89 123.636 315.277 123.636 314.584C123.636 313.89 123.783 313.277 124.076 312.744C124.383 312.21 124.796 311.804 125.316 311.524C125.836 311.23 126.416 311.084 127.056 311.084ZM127.056 312.684C126.536 312.684 126.163 312.864 125.936 313.224C125.723 313.57 125.616 314.024 125.616 314.584C125.616 315.13 125.723 315.584 125.936 315.944C126.163 316.304 126.536 316.484 127.056 316.484C128.016 316.484 128.496 315.85 128.496 314.584C128.496 313.317 128.016 312.684 127.056 312.684Z" fill="white"/>
<rect x="166.966" y="178.621" width="56.8339" height="155.075" fill="#555C6E"/>
<path d="M185.488 305.412H180.448V308.752C181.115 308.418 181.795 308.252 182.488 308.252C183.235 308.252 183.902 308.425 184.488 308.772C185.075 309.118 185.528 309.618 185.848 310.272C186.182 310.925 186.348 311.698 186.348 312.592C186.348 313.512 186.142 314.325 185.728 315.032C185.315 315.738 184.728 316.292 183.968 316.692C183.208 317.078 182.328 317.272 181.328 317.272C180.435 317.272 179.642 317.112 178.948 316.792C178.268 316.458 177.648 315.985 177.088 315.372L178.548 314.012C179.322 314.865 180.228 315.292 181.268 315.292C182.028 315.292 182.622 315.058 183.048 314.592C183.488 314.125 183.708 313.458 183.708 312.592C183.708 310.925 182.988 310.092 181.548 310.092C181.242 310.092 180.955 310.132 180.688 310.212C180.422 310.278 180.128 310.392 179.808 310.552H177.988V303.512H185.788L185.488 305.412ZM195.781 305.412H190.741V308.752C191.408 308.418 192.088 308.252 192.781 308.252C193.528 308.252 194.195 308.425 194.781 308.772C195.368 309.118 195.821 309.618 196.141 310.272C196.475 310.925 196.641 311.698 196.641 312.592C196.641 313.512 196.435 314.325 196.021 315.032C195.608 315.738 195.021 316.292 194.261 316.692C193.501 317.078 192.621 317.272 191.621 317.272C190.728 317.272 189.935 317.112 189.241 316.792C188.561 316.458 187.941 315.985 187.381 315.372L188.841 314.012C189.615 314.865 190.521 315.292 191.561 315.292C192.321 315.292 192.915 315.058 193.341 314.592C193.781 314.125 194.001 313.458 194.001 312.592C194.001 310.925 193.281 310.092 191.841 310.092C191.535 310.092 191.248 310.132 190.981 310.212C190.715 310.278 190.421 310.392 190.101 310.552H188.281V303.512H196.081L195.781 305.412ZM209.261 302.652L210.921 303.712L201.641 317.692L200.001 316.632L209.261 302.652ZM201.141 303.272C201.781 303.272 202.361 303.418 202.881 303.712C203.401 303.992 203.808 304.398 204.101 304.932C204.408 305.465 204.561 306.078 204.561 306.772C204.561 307.465 204.408 308.078 204.101 308.612C203.808 309.145 203.401 309.558 202.881 309.852C202.361 310.132 201.781 310.272 201.141 310.272C200.501 310.272 199.921 310.132 199.401 309.852C198.895 309.558 198.488 309.145 198.181 308.612C197.888 308.078 197.741 307.465 197.741 306.772C197.741 306.078 197.888 305.465 198.181 304.932C198.488 304.398 198.895 303.992 199.401 303.712C199.921 303.418 200.501 303.272 201.141 303.272ZM201.141 304.872C200.621 304.872 200.248 305.052 200.021 305.412C199.808 305.758 199.701 306.212 199.701 306.772C199.701 307.318 199.808 307.772 200.021 308.132C200.248 308.492 200.621 308.672 201.141 308.672C202.101 308.672 202.581 308.038 202.581 306.772C202.581 305.505 202.101 304.872 201.141 304.872ZM209.741 310.272C210.381 310.272 210.961 310.418 211.481 310.712C212.001 310.992 212.408 311.398 212.701 311.932C212.995 312.465 213.141 313.078 213.141 313.772C213.141 314.465 212.995 315.078 212.701 315.612C212.408 316.145 212.001 316.558 211.481 316.852C210.961 317.132 210.381 317.272 209.741 317.272C209.101 317.272 208.521 317.132 208.001 316.852C207.481 316.558 207.068 316.145 206.761 315.612C206.468 315.078 206.321 314.465 206.321 313.772C206.321 313.078 206.468 312.465 206.761 311.932C207.068 311.398 207.481 310.992 208.001 310.712C208.521 310.418 209.101 310.272 209.741 310.272ZM209.741 311.872C209.221 311.872 208.848 312.052 208.621 312.412C208.408 312.758 208.301 313.212 208.301 313.772C208.301 314.318 208.408 314.772 208.621 315.132C208.848 315.492 209.221 315.672 209.741 315.672C210.701 315.672 211.181 315.038 211.181 313.772C211.181 312.505 210.701 311.872 209.741 311.872Z" fill="white"/>
<rect x="250.166" y="179.433" width="56.8339" height="155.075" fill="#555C6E"/>
<path d="M274.372 306.224H269.332V309.564C269.999 309.23 270.679 309.064 271.372 309.064C272.119 309.064 272.786 309.237 273.372 309.584C273.959 309.93 274.412 310.43 274.732 311.084C275.066 311.737 275.232 312.51 275.232 313.404C275.232 314.324 275.026 315.137 274.612 315.844C274.199 316.55 273.612 317.104 272.852 317.504C272.092 317.89 271.212 318.084 270.212 318.084C269.319 318.084 268.526 317.924 267.832 317.604C267.152 317.27 266.532 316.797 265.972 316.184L267.432 314.824C268.206 315.677 269.112 316.104 270.152 316.104C270.912 316.104 271.506 315.87 271.932 315.404C272.372 314.937 272.592 314.27 272.592 313.404C272.592 311.737 271.872 310.904 270.432 310.904C270.126 310.904 269.839 310.944 269.572 311.024C269.306 311.09 269.012 311.204 268.692 311.364H266.872V304.324H274.672L274.372 306.224ZM284.665 306.224H279.625V309.564C280.292 309.23 280.972 309.064 281.665 309.064C282.412 309.064 283.079 309.237 283.665 309.584C284.252 309.93 284.705 310.43 285.025 311.084C285.359 311.737 285.525 312.51 285.525 313.404C285.525 314.324 285.319 315.137 284.905 315.844C284.492 316.55 283.905 317.104 283.145 317.504C282.385 317.89 281.505 318.084 280.505 318.084C279.612 318.084 278.819 317.924 278.125 317.604C277.445 317.27 276.825 316.797 276.265 316.184L277.725 314.824C278.499 315.677 279.405 316.104 280.445 316.104C281.205 316.104 281.799 315.87 282.225 315.404C282.665 314.937 282.885 314.27 282.885 313.404C282.885 311.737 282.165 310.904 280.725 310.904C280.419 310.904 280.132 310.944 279.865 311.024C279.599 311.09 279.305 311.204 278.985 311.364H277.165V304.324H284.965L284.665 306.224ZM298.145 303.464L299.805 304.524L290.525 318.504L288.885 317.444L298.145 303.464ZM290.025 304.084C290.665 304.084 291.245 304.23 291.765 304.524C292.285 304.804 292.692 305.21 292.985 305.744C293.292 306.277 293.445 306.89 293.445 307.584C293.445 308.277 293.292 308.89 292.985 309.424C292.692 309.957 292.285 310.37 291.765 310.664C291.245 310.944 290.665 311.084 290.025 311.084C289.385 311.084 288.805 310.944 288.285 310.664C287.779 310.37 287.372 309.957 287.065 309.424C286.772 308.89 286.625 308.277 286.625 307.584C286.625 306.89 286.772 306.277 287.065 305.744C287.372 305.21 287.779 304.804 288.285 304.524C288.805 304.23 289.385 304.084 290.025 304.084ZM290.025 305.684C289.505 305.684 289.132 305.864 288.905 306.224C288.692 306.57 288.585 307.024 288.585 307.584C288.585 308.13 288.692 308.584 288.905 308.944C289.132 309.304 289.505 309.484 290.025 309.484C290.985 309.484 291.465 308.85 291.465 307.584C291.465 306.317 290.985 305.684 290.025 305.684ZM298.625 311.084C299.265 311.084 299.845 311.23 300.365 311.524C300.885 311.804 301.292 312.21 301.585 312.744C301.879 313.277 302.025 313.89 302.025 314.584C302.025 315.277 301.879 315.89 301.585 316.424C301.292 316.957 300.885 317.37 300.365 317.664C299.845 317.944 299.265 318.084 298.625 318.084C297.985 318.084 297.405 317.944 296.885 317.664C296.365 317.37 295.952 316.957 295.645 316.424C295.352 315.89 295.205 315.277 295.205 314.584C295.205 313.89 295.352 313.277 295.645 312.744C295.952 312.21 296.365 311.804 296.885 311.524C297.405 311.23 297.985 311.084 298.625 311.084ZM298.625 312.684C298.105 312.684 297.732 312.864 297.505 313.224C297.292 313.57 297.185 314.024 297.185 314.584C297.185 315.13 297.292 315.584 297.505 315.944C297.732 316.304 298.105 316.484 298.625 316.484C299.585 316.484 300.065 315.85 300.065 314.584C300.065 313.317 299.585 312.684 298.625 312.684Z" fill="white"/>
<rect x="14.6834" y="2" width="37.4256" height="43.4878" stroke="#2BB09F" stroke-width="4"/>
<path d="M22.7872 10.6091H44.5103M22.7872 15.661H44.5103M22.7872 21.2181H44.5103M22.7872 26.27H44.5103M22.7872 31.3219L44.5103 30.8167M22.7872 36.3738H44.5103" stroke="#2BB09F" stroke-width="3"/>
<circle cx="45.9718" cy="39.3508" r="12.1787" fill="#2BB09F"/>
<path d="M45.9718 34.1313V44.5702M40.7524 39.3508H51.1912" stroke="white" stroke-width="2"/>
<path fill-rule="evenodd" clip-rule="evenodd" d="M93.0721 109.608C91.4152 109.608 90.0721 110.951 90.0721 112.608V144.768C90.0721 146.425 91.4152 147.768 93.0721 147.768H131.727C133.384 147.768 134.727 146.425 134.727 144.768V112.608C134.727 110.951 133.384 109.608 131.727 109.608H93.0721ZM130.668 118.539H94.1317V142.897H130.668V118.539Z" fill="#2BB09F"/>
<rect x="98.815" y="103.737" width="7.68339" height="10.1191" rx="3" fill="#2BB09F" stroke="white" stroke-width="2"/>
<rect x="117.489" y="103.737" width="7.68339" height="10.1191" rx="3" fill="#2BB09F" stroke="white" stroke-width="2"/>
<rect x="99.815" y="123.411" width="4.05956" height="4.05956" rx="1" fill="#2BB09F"/>
<rect x="106.31" y="123.411" width="4.05956" height="4.05956" rx="1" fill="#2BB09F"/>
<rect x="112.806" y="123.411" width="4.05956" height="4.05956" rx="1" fill="#2BB09F"/>
<rect x="119.301" y="123.411" width="4.05956" height="4.05956" rx="1" fill="#2BB09F"/>
<rect x="119.301" y="129.094" width="4.05956" height="4.05956" rx="1" fill="#2BB09F"/>
<rect x="119.301" y="134.777" width="4.05956" height="4.05956" rx="1" fill="#2BB09F"/>
<rect x="112.806" y="129.094" width="4.05956" height="4.05956" rx="1" fill="#2BB09F"/>
<rect x="106.31" y="129.094" width="4.05956" height="4.05956" rx="1" fill="#2BB09F"/>
<rect x="99.815" y="129.094" width="4.05956" height="4.05956" rx="1" fill="#2BB09F"/>
<rect x="99.815" y="134.777" width="4.05956" height="4.05956" rx="1" fill="#2BB09F"/>
<rect x="106.31" y="134.777" width="4.05956" height="4.05956" rx="1" fill="#2BB09F"/>
<rect x="112.806" y="134.777" width="4.05956" height="4.05956" rx="1" fill="#2BB09F"/>
<rect x="257.85" y="124.599" width="37.4256" height="43.4878" stroke="#2BB09F" stroke-width="4"/>
<path d="M265.953 133.208H287.676M265.953 138.26H287.676M265.953 143.817H287.676M265.953 148.869H287.676M265.953 153.416H287.676M265.953 158.973H287.676" stroke="#2BB09F" stroke-width="3"/>
<circle cx="289.95" cy="160.759" r="10.6787" fill="#2BB09F" stroke="#2BB09F" stroke-width="3"/>
<path d="M289.95 168.587V154.669M289.95 154.669L295.169 159.888M289.95 154.669L284.73 159.888" stroke="white" stroke-width="3"/>
<circle cx="182.664" cy="152.488" r="5.87122" fill="#2BB09F"/>
<path d="M172.649 168.72C172.649 163.379 176.978 159.05 182.319 159.05H183.01C188.351 159.05 192.68 163.379 192.68 168.72H172.649Z" fill="#2BB09F"/>
<circle cx="208.912" cy="152.488" r="5.87122" fill="#2BB09F"/>
<path d="M198.897 168.72C198.897 163.379 203.226 159.05 208.567 159.05H209.258C214.598 159.05 218.928 163.379 218.928 168.72H198.897Z" fill="#2BB09F"/>
<mask id="path-36-inside-1" fill="white">
<path fill-rule="evenodd" clip-rule="evenodd" d="M194.062 141.782C196.363 141.782 198.373 140.531 199.447 138.672C200.256 139.323 201.261 139.709 202.35 139.709C204.305 139.709 205.989 138.466 206.751 136.677C207.326 136.852 207.935 136.947 208.567 136.947C212 136.947 214.784 134.163 214.784 130.73C214.784 127.499 212.318 124.844 209.166 124.542C208.729 122.163 206.771 120.369 204.423 120.369C204.049 120.369 203.686 120.414 203.337 120.5C202.453 118.406 200.18 116.915 197.515 116.915C195.264 116.915 193.293 117.979 192.202 119.571C191.41 119.198 190.517 118.987 189.572 118.987C187.09 118.987 184.967 120.437 184.108 122.486C183.862 122.457 183.61 122.441 183.355 122.441C180.113 122.441 177.484 124.915 177.484 127.967C177.484 130.696 179.585 132.963 182.348 133.412C182.614 136.177 184.664 138.328 187.154 138.328C187.586 138.328 188.004 138.263 188.403 138.142C189.382 140.289 191.547 141.782 194.062 141.782Z"/>
</mask>
<path d="M199.447 138.672L201.957 135.557L198.321 132.628L195.984 136.67L199.447 138.672ZM206.751 136.677L207.918 132.851L204.48 131.803L203.071 135.11L206.751 136.677ZM209.166 124.542L205.232 125.266L205.779 128.236L208.785 128.524L209.166 124.542ZM203.337 120.5L199.652 122.056L200.979 125.198L204.292 124.385L203.337 120.5ZM192.202 119.571L190.493 123.188L193.575 124.644L195.502 121.832L192.202 119.571ZM184.108 122.486L183.63 126.458L186.629 126.819L187.797 124.033L184.108 122.486ZM182.348 133.412L186.33 133.03L186.035 129.959L182.991 129.464L182.348 133.412ZM188.403 138.142L192.042 136.482L190.588 133.295L187.237 134.316L188.403 138.142ZM195.984 136.67C195.595 137.343 194.877 137.782 194.062 137.782V145.782C197.849 145.782 201.15 143.719 202.91 140.674L195.984 136.67ZM202.35 135.709C202.231 135.709 202.1 135.672 201.957 135.557L196.938 141.787C198.412 142.974 200.291 143.709 202.35 143.709V135.709ZM203.071 135.11C202.865 135.594 202.524 135.709 202.35 135.709V143.709C206.086 143.709 209.114 141.338 210.431 138.245L203.071 135.11ZM208.567 132.947C208.335 132.947 208.118 132.912 207.918 132.851L205.585 140.503C206.533 140.793 207.536 140.947 208.567 140.947V132.947ZM210.784 130.73C210.784 131.954 209.791 132.947 208.567 132.947V140.947C214.209 140.947 218.784 136.373 218.784 130.73H210.784ZM208.785 128.524C209.905 128.631 210.784 129.58 210.784 130.73H218.784C218.784 125.418 214.732 121.056 209.547 120.56L208.785 128.524ZM204.423 124.369C204.549 124.369 204.694 124.411 204.851 124.551C205.017 124.698 205.173 124.942 205.232 125.266L213.1 123.818C212.356 119.772 208.926 116.369 204.423 116.369V124.369ZM204.292 124.385C204.332 124.375 204.374 124.369 204.423 124.369V116.369C203.724 116.369 203.041 116.454 202.383 116.616L204.292 124.385ZM197.515 120.915C198.74 120.915 199.456 121.591 199.652 122.056L207.023 118.944C205.45 115.22 201.621 112.915 197.515 112.915V120.915ZM195.502 121.832C195.803 121.392 196.504 120.915 197.515 120.915V112.915C194.024 112.915 190.782 114.566 188.902 117.311L195.502 121.832ZM189.572 122.987C189.92 122.987 190.231 123.064 190.493 123.188L193.91 115.955C192.59 115.331 191.114 114.987 189.572 114.987V122.987ZM187.797 124.033C188.011 123.522 188.644 122.987 189.572 122.987V114.987C185.535 114.987 181.923 117.352 180.419 120.94L187.797 124.033ZM183.355 126.441C183.45 126.441 183.542 126.447 183.63 126.458L184.587 118.515C184.182 118.466 183.771 118.441 183.355 118.441V126.441ZM181.484 127.967C181.484 127.349 182.09 126.441 183.355 126.441V118.441C178.135 118.441 173.484 122.481 173.484 127.967H181.484ZM182.991 129.464C181.954 129.295 181.484 128.529 181.484 127.967H173.484C173.484 132.862 177.217 136.63 181.706 137.36L182.991 129.464ZM187.154 134.328C187.109 134.328 186.978 134.318 186.788 134.122C186.588 133.915 186.379 133.544 186.33 133.03L178.367 133.795C178.784 138.144 182.165 142.328 187.154 142.328V134.328ZM187.237 134.316C187.209 134.324 187.183 134.328 187.154 134.328V142.328C187.988 142.328 188.799 142.203 189.568 141.969L187.237 134.316ZM194.062 137.782C193.171 137.782 192.395 137.257 192.042 136.482L184.763 139.802C186.369 143.322 189.924 145.782 194.062 145.782V137.782Z" fill="#2BB09F" mask="url(#path-36-inside-1)"/>
<circle cx="190.608" cy="143.854" r="2.07219" fill="#2BB09F"/>
<circle cx="200.969" cy="143.854" r="2.07219" fill="#2BB09F"/>
<circle cx="203.386" cy="146.962" r="1.0361" fill="#2BB09F"/>
<circle cx="188.19" cy="146.962" r="1.0361" fill="#2BB09F"/>
<path d="M13.2577 355.256C12.3404 355.256 11.5457 355.032 10.8737 354.584C10.2124 354.125 9.70035 353.475 9.33769 352.632C8.98569 351.779 8.80969 350.76 8.80969 349.576C8.80969 348.381 8.98035 347.357 9.32169 346.504C9.67369 345.64 10.1697 344.984 10.8097 344.536C11.4604 344.077 12.2284 343.848 13.1137 343.848C14.0204 343.848 14.7937 344.051 15.4337 344.456C16.0844 344.851 16.591 345.411 16.9537 346.136L15.9937 346.696C15.6524 346.067 15.2524 345.619 14.7937 345.352C14.335 345.075 13.775 344.936 13.1137 344.936C12.1644 344.936 11.4177 345.347 10.8737 346.168C10.3404 346.979 10.0737 348.109 10.0737 349.56C10.0737 350.509 10.1964 351.331 10.4417 352.024C10.687 352.717 11.039 353.251 11.4977 353.624C11.9564 353.987 12.4897 354.168 13.0977 354.168C13.855 354.168 14.4417 354.003 14.8577 353.672C15.2844 353.331 15.679 352.803 16.0417 352.088L17.0497 352.696C16.6657 353.528 16.1537 354.163 15.5137 354.6C14.8844 355.037 14.1324 355.256 13.2577 355.256ZM22.3052 347.256C22.5612 347.256 22.8065 347.293 23.0412 347.368V348.36C22.8172 348.253 22.5719 348.2 22.3052 348.2C21.8465 348.2 21.4199 348.328 21.0252 348.584C20.6305 348.84 20.3105 349.213 20.0652 349.704C19.8305 350.184 19.7132 350.755 19.7132 351.416V355H18.6252V347.512H19.7132V349.016C20.0012 348.461 20.3639 348.029 20.8012 347.72C21.2492 347.411 21.7505 347.256 22.3052 347.256ZM27.1228 347.256C27.7948 347.256 28.4028 347.421 28.9468 347.752C29.4908 348.083 29.9175 348.536 30.2268 349.112C30.5361 349.677 30.6908 350.312 30.6908 351.016C30.6908 351.219 30.6855 351.373 30.6748 351.48H24.5148C24.5575 352.248 24.8081 352.904 25.2668 353.448C25.7255 353.992 26.3495 354.264 27.1388 354.264C27.7788 354.264 28.3068 354.147 28.7228 353.912C29.1495 353.667 29.4908 353.331 29.7468 352.904L30.6108 353.48C30.2588 354.035 29.7948 354.472 29.2188 354.792C28.6428 355.101 27.9601 355.256 27.1708 355.256C26.4455 355.256 25.8001 355.085 25.2348 354.744C24.6695 354.403 24.2268 353.928 23.9068 353.32C23.5868 352.712 23.4268 352.024 23.4268 351.256C23.4268 350.488 23.5815 349.8 23.8908 349.192C24.2108 348.584 24.6481 348.109 25.2028 347.768C25.7681 347.427 26.4081 347.256 27.1228 347.256ZM29.6028 350.584C29.4961 349.805 29.2348 349.224 28.8188 348.84C28.4028 348.445 27.8375 348.248 27.1228 348.248C26.4295 348.248 25.8588 348.472 25.4108 348.92C24.9735 349.357 24.6961 349.912 24.5788 350.584H29.6028ZM39.2571 347.512V355H38.1691V353.896C37.8597 354.323 37.4811 354.659 37.0331 354.904C36.5851 355.139 36.0944 355.256 35.5611 355.256C34.8464 355.256 34.2064 355.085 33.6411 354.744C33.0757 354.403 32.6331 353.928 32.3131 353.32C31.9931 352.712 31.8331 352.019 31.8331 351.24C31.8331 350.472 31.9877 349.789 32.2971 349.192C32.6171 348.584 33.0544 348.109 33.6091 347.768C34.1744 347.427 34.8144 347.256 35.5291 347.256C36.0731 347.256 36.5691 347.379 37.0171 347.624C37.4757 347.859 37.8597 348.195 38.1691 348.632V347.512H39.2571ZM35.5291 354.264C36.0411 354.264 36.4944 354.136 36.8891 353.88C37.2944 353.624 37.6091 353.267 37.8331 352.808C38.0571 352.349 38.1691 351.832 38.1691 351.256C38.1691 350.68 38.0571 350.163 37.8331 349.704C37.6091 349.245 37.2944 348.888 36.8891 348.632C36.4944 348.376 36.0411 348.248 35.5291 348.248C35.0277 348.248 34.5797 348.376 34.1851 348.632C33.7904 348.888 33.4811 349.245 33.2571 349.704C33.0331 350.152 32.9211 350.664 32.9211 351.24C32.9211 351.827 33.0331 352.349 33.2571 352.808C33.4811 353.267 33.7904 353.624 34.1851 353.88C34.5797 354.136 35.0277 354.264 35.5291 354.264ZM41.6658 355V348.504H40.3858V347.512H41.6658V345.032H42.7538V347.512H44.4818V348.504H42.7538V355H41.6658ZM48.9041 347.256C49.5761 347.256 50.1841 347.421 50.7281 347.752C51.2721 348.083 51.6987 348.536 52.0081 349.112C52.3174 349.677 52.4721 350.312 52.4721 351.016C52.4721 351.219 52.4667 351.373 52.4561 351.48H46.2961C46.3387 352.248 46.5894 352.904 47.0481 353.448C47.5067 353.992 48.1307 354.264 48.9201 354.264C49.5601 354.264 50.0881 354.147 50.5041 353.912C50.9307 353.667 51.2721 353.331 51.5281 352.904L52.3921 353.48C52.0401 354.035 51.5761 354.472 51.0001 354.792C50.4241 355.101 49.7414 355.256 48.9521 355.256C48.2267 355.256 47.5814 355.085 47.0161 354.744C46.4507 354.403 46.0081 353.928 45.6881 353.32C45.3681 352.712 45.2081 352.024 45.2081 351.256C45.2081 350.488 45.3627 349.8 45.6721 349.192C45.9921 348.584 46.4294 348.109 46.9841 347.768C47.5494 347.427 48.1894 347.256 48.9041 347.256ZM51.3841 350.584C51.2774 349.805 51.0161 349.224 50.6001 348.84C50.1841 348.445 49.6187 348.248 48.9041 348.248C48.2107 348.248 47.6401 348.472 47.1921 348.92C46.7547 349.357 46.4774 349.912 46.3601 350.584H51.3841ZM9.53113 376.256C8.61379 376.256 7.81913 376.032 7.14713 375.584C6.48579 375.125 5.97379 374.475 5.61113 373.632C5.25913 372.779 5.08313 371.76 5.08313 370.576C5.08313 369.381 5.25379 368.357 5.59513 367.504C5.94713 366.64 6.44313 365.984 7.08313 365.536C7.73379 365.077 8.50179 364.848 9.38713 364.848C10.2938 364.848 11.0671 365.051 11.7071 365.456C12.3578 365.851 12.8645 366.411 13.2271 367.136L12.2671 367.696C11.9258 367.067 11.5258 366.619 11.0671 366.352C10.6085 366.075 10.0485 365.936 9.38713 365.936C8.43779 365.936 7.69113 366.347 7.14713 367.168C6.61379 367.979 6.34713 369.109 6.34713 370.56C6.34713 371.509 6.46979 372.331 6.71513 373.024C6.96046 373.717 7.31246 374.251 7.77113 374.624C8.22979 374.987 8.76313 375.168 9.37113 375.168C10.1285 375.168 10.7151 375.003 11.1311 374.672C11.5578 374.331 11.9525 373.803 12.3151 373.088L13.3231 373.696C12.9391 374.528 12.4271 375.163 11.7871 375.6C11.1578 376.037 10.4058 376.256 9.53113 376.256ZM18.1626 376.256C17.448 376.256 16.808 376.085 16.2426 375.744C15.6773 375.403 15.2346 374.928 14.9146 374.32C14.5946 373.701 14.4346 373.008 14.4346 372.24C14.4346 371.472 14.5893 370.789 14.8986 370.192C15.2186 369.584 15.656 369.109 16.2106 368.768C16.776 368.427 17.416 368.256 18.1306 368.256C18.8453 368.256 19.4853 368.427 20.0506 368.768C20.616 369.109 21.0586 369.584 21.3786 370.192C21.6986 370.8 21.8586 371.488 21.8586 372.256C21.8586 373.024 21.6986 373.712 21.3786 374.32C21.0693 374.928 20.632 375.403 20.0666 375.744C19.512 376.085 18.8773 376.256 18.1626 376.256ZM18.1306 375.264C18.6426 375.264 19.096 375.136 19.4906 374.88C19.896 374.624 20.2106 374.267 20.4346 373.808C20.6586 373.349 20.7706 372.832 20.7706 372.256C20.7706 371.68 20.6586 371.163 20.4346 370.704C20.2106 370.245 19.896 369.888 19.4906 369.632C19.096 369.376 18.6426 369.248 18.1306 369.248C17.6293 369.248 17.1813 369.376 16.7866 369.632C16.392 369.888 16.0826 370.245 15.8586 370.704C15.6346 371.152 15.5226 371.664 15.5226 372.24C15.5226 372.827 15.6346 373.349 15.8586 373.808C16.0826 374.267 16.392 374.624 16.7866 374.88C17.1813 375.136 17.6293 375.264 18.1306 375.264ZM26.9666 368.256C27.4893 368.256 27.9693 368.363 28.4066 368.576C28.8546 368.789 29.2066 369.104 29.4626 369.52C29.7293 369.936 29.8626 370.427 29.8626 370.992V376H28.7746V371.472C28.7746 369.989 28.1133 369.248 26.7906 369.248C26.0226 369.248 25.4466 369.52 25.0626 370.064C24.6786 370.608 24.4866 371.339 24.4866 372.256V376H23.3986V368.512H24.4866V369.76C24.7426 369.28 25.0786 368.912 25.4946 368.656C25.9213 368.389 26.412 368.256 26.9666 368.256ZM32.3924 376V369.504H31.1124V368.512H32.3924V366.032H33.4804V368.512H35.2084V369.504H33.4804V376H32.3924ZM39.6306 368.256C40.3026 368.256 40.9106 368.421 41.4546 368.752C41.9986 369.083 42.4253 369.536 42.7346 370.112C43.044 370.677 43.1986 371.312 43.1986 372.016C43.1986 372.219 43.1933 372.373 43.1826 372.48H37.0226C37.0653 373.248 37.316 373.904 37.7746 374.448C38.2333 374.992 38.8573 375.264 39.6466 375.264C40.2866 375.264 40.8146 375.147 41.2306 374.912C41.6573 374.667 41.9986 374.331 42.2546 373.904L43.1186 374.48C42.7666 375.035 42.3026 375.472 41.7266 375.792C41.1506 376.101 40.468 376.256 39.6786 376.256C38.9533 376.256 38.308 376.085 37.7426 375.744C37.1773 375.403 36.7346 374.928 36.4146 374.32C36.0946 373.712 35.9346 373.024 35.9346 372.256C35.9346 371.488 36.0893 370.8 36.3986 370.192C36.7186 369.584 37.156 369.109 37.7106 368.768C38.276 368.427 38.916 368.256 39.6306 368.256ZM42.1106 371.584C42.004 370.805 41.7426 370.224 41.3266 369.84C40.9106 369.445 40.3453 369.248 39.6306 369.248C38.9373 369.248 38.3666 369.472 37.9186 369.92C37.4813 370.357 37.204 370.912 37.0866 371.584H42.1106ZM48.3729 368.256C48.8955 368.256 49.3755 368.363 49.8129 368.576C50.2609 368.789 50.6129 369.104 50.8689 369.52C51.1355 369.936 51.2689 370.427 51.2689 370.992V376H50.1809V371.472C50.1809 369.989 49.5195 369.248 48.1969 369.248C47.4289 369.248 46.8529 369.52 46.4689 370.064C46.0849 370.608 45.8929 371.339 45.8929 372.256V376H44.8049V368.512H45.8929V369.76C46.1489 369.28 46.4849 368.912 46.9009 368.656C47.3275 368.389 47.8182 368.256 48.3729 368.256ZM53.7986 376V369.504H52.5186V368.512H53.7986V366.032H54.8866V368.512H56.6146V369.504H54.8866V376H53.7986Z" fill="#3B3B3B"/>
<path d="M78.6308 355.256C77.8308 355.256 77.0521 355.059 76.2948 354.664C75.5374 354.259 74.9081 353.715 74.4068 353.032L75.3828 352.168C75.7668 352.776 76.2574 353.261 76.8548 353.624C77.4521 353.976 78.0974 354.152 78.7908 354.152C79.5481 354.152 80.1241 353.987 80.5188 353.656C80.9134 353.315 81.1108 352.856 81.1108 352.28C81.1108 351.651 80.8974 351.171 80.4708 350.84C80.0548 350.499 79.3881 350.2 78.4708 349.944C76.1668 349.379 75.0148 348.333 75.0148 346.808C75.0148 345.859 75.3241 345.128 75.9428 344.616C76.5614 344.104 77.4201 343.848 78.5188 343.848C79.3188 343.848 80.0334 343.997 80.6628 344.296C81.3028 344.595 81.8734 345.053 82.3748 345.672L81.4308 346.472C81.0468 345.949 80.6254 345.565 80.1668 345.32C79.7081 345.064 79.1588 344.936 78.5188 344.936C77.8468 344.936 77.2974 345.096 76.8708 345.416C76.4441 345.725 76.2308 346.152 76.2308 346.696C76.2308 347.251 76.4281 347.693 76.8228 348.024C77.2174 348.344 77.8841 348.616 78.8228 348.84C79.9321 349.139 80.7908 349.549 81.3988 350.072C82.0174 350.595 82.3268 351.331 82.3268 352.28C82.3268 352.867 82.1774 353.384 81.8788 353.832C81.5801 354.28 81.1481 354.632 80.5828 354.888C80.0281 355.133 79.3774 355.256 78.6308 355.256ZM87.3029 355.256C86.5775 355.256 85.9322 355.085 85.3669 354.744C84.8015 354.403 84.3589 353.928 84.0389 353.32C83.7189 352.712 83.5589 352.024 83.5589 351.256C83.5589 350.488 83.7135 349.8 84.0229 349.192C84.3429 348.584 84.7855 348.109 85.3509 347.768C85.9162 347.427 86.5562 347.256 87.2709 347.256C87.8789 347.256 88.4069 347.389 88.8549 347.656C89.3135 347.912 89.7295 348.28 90.1029 348.76L89.3029 349.384C88.7802 348.627 88.1029 348.248 87.2709 348.248C86.7695 348.248 86.3162 348.376 85.9109 348.632C85.5162 348.888 85.2069 349.245 84.9829 349.704C84.7589 350.163 84.6469 350.68 84.6469 351.256C84.6469 351.832 84.7589 352.349 84.9829 352.808C85.2069 353.267 85.5162 353.624 85.9109 353.88C86.3162 354.136 86.7695 354.264 87.2709 354.264C87.7829 354.264 88.2042 354.179 88.5349 354.008C88.8655 353.827 89.1642 353.565 89.4309 353.224L90.2789 353.816C89.9269 354.253 89.4895 354.605 88.9669 354.872C88.4549 355.128 87.9002 355.256 87.3029 355.256ZM95.2479 347.256C95.7705 347.256 96.2505 347.363 96.6879 347.576C97.1359 347.789 97.4879 348.104 97.7439 348.52C98.0105 348.936 98.1439 349.427 98.1439 349.992V355H97.0559V350.472C97.0559 348.989 96.3945 348.248 95.0719 348.248C94.3039 348.248 93.7279 348.52 93.3439 349.064C92.9599 349.608 92.7679 350.339 92.7679 351.256V355H91.6799V343.384H92.7679V348.76C93.0239 348.28 93.3599 347.912 93.7759 347.656C94.2025 347.389 94.6932 347.256 95.2479 347.256ZM103.459 347.256C104.131 347.256 104.739 347.421 105.283 347.752C105.827 348.083 106.253 348.536 106.563 349.112C106.872 349.677 107.027 350.312 107.027 351.016C107.027 351.219 107.021 351.373 107.011 351.48H100.851C100.893 352.248 101.144 352.904 101.603 353.448C102.061 353.992 102.685 354.264 103.475 354.264C104.115 354.264 104.643 354.147 105.059 353.912C105.485 353.667 105.827 353.331 106.083 352.904L106.947 353.48C106.595 354.035 106.131 354.472 105.555 354.792C104.979 355.101 104.296 355.256 103.507 355.256C102.781 355.256 102.136 355.085 101.571 354.744C101.005 354.403 100.563 353.928 100.243 353.32C99.9228 352.712 99.7628 352.024 99.7628 351.256C99.7628 350.488 99.9174 349.8 100.227 349.192C100.547 348.584 100.984 348.109 101.539 347.768C102.104 347.427 102.744 347.256 103.459 347.256ZM105.939 350.584C105.832 349.805 105.571 349.224 105.155 348.84C104.739 348.445 104.173 348.248 103.459 348.248C102.765 348.248 102.195 348.472 101.747 348.92C101.309 349.357 101.032 349.912 100.915 350.584H105.939ZM115.593 343.384V355H114.505V353.896C114.196 354.323 113.817 354.659 113.369 354.904C112.921 355.139 112.43 355.256 111.897 355.256C111.182 355.256 110.542 355.085 109.977 354.744C109.412 354.403 108.969 353.928 108.649 353.32C108.329 352.712 108.169 352.019 108.169 351.24C108.169 350.472 108.324 349.789 108.633 349.192C108.953 348.584 109.39 348.109 109.945 347.768C110.51 347.427 111.15 347.256 111.865 347.256C112.409 347.256 112.905 347.379 113.353 347.624C113.812 347.859 114.196 348.195 114.505 348.632V343.384H115.593ZM111.865 354.264C112.377 354.264 112.83 354.136 113.225 353.88C113.63 353.624 113.945 353.267 114.169 352.808C114.393 352.349 114.505 351.832 114.505 351.256C114.505 350.68 114.393 350.163 114.169 349.704C113.945 349.245 113.63 348.888 113.225 348.632C112.83 348.376 112.377 348.248 111.865 348.248C111.364 348.248 110.916 348.376 110.521 348.632C110.126 348.888 109.817 349.245 109.593 349.704C109.369 350.152 109.257 350.664 109.257 351.24C109.257 351.827 109.369 352.349 109.593 352.808C109.817 353.267 110.126 353.624 110.521 353.88C110.916 354.136 111.364 354.264 111.865 354.264ZM124.178 347.512V355H123.09V353.752C122.834 354.232 122.492 354.605 122.066 354.872C121.65 355.128 121.164 355.256 120.61 355.256C120.087 355.256 119.602 355.149 119.154 354.936C118.716 354.723 118.364 354.408 118.098 353.992C117.842 353.576 117.714 353.085 117.714 352.52V347.512H118.802V352.04C118.802 353.523 119.463 354.264 120.786 354.264C121.554 354.264 122.13 353.992 122.514 353.448C122.898 352.904 123.09 352.173 123.09 351.256V347.512H124.178ZM126.276 355V343.384H127.364V355H126.276ZM130.038 355V347.512H131.126V355H130.038ZM130.582 346.056C130.336 346.056 130.128 345.971 129.958 345.8C129.798 345.629 129.718 345.421 129.718 345.176C129.718 344.941 129.798 344.744 129.958 344.584C130.128 344.413 130.336 344.328 130.582 344.328C130.816 344.328 131.019 344.413 131.19 344.584C131.36 344.744 131.446 344.947 131.446 345.192C131.446 345.427 131.36 345.629 131.19 345.8C131.019 345.971 130.816 346.056 130.582 346.056ZM137.295 347.256C137.817 347.256 138.297 347.363 138.735 347.576C139.183 347.789 139.535 348.104 139.791 348.52C140.057 348.936 140.191 349.427 140.191 349.992V355H139.103V350.472C139.103 348.989 138.441 348.248 137.119 348.248C136.351 348.248 135.775 348.52 135.391 349.064C135.007 349.608 134.815 350.339 134.815 351.256V355H133.727V347.512H134.815V348.76C135.071 348.28 135.407 347.912 135.823 347.656C136.249 347.389 136.74 347.256 137.295 347.256ZM149.281 347.512V354.712C149.281 355.384 149.142 355.981 148.865 356.504C148.587 357.037 148.198 357.453 147.697 357.752C147.195 358.051 146.625 358.2 145.985 358.2H142.881V357.208H145.985C146.635 357.208 147.163 356.973 147.569 356.504C147.985 356.035 148.193 355.437 148.193 354.712V353.896C147.883 354.323 147.505 354.659 147.057 354.904C146.609 355.139 146.118 355.256 145.585 355.256C144.87 355.256 144.23 355.085 143.664 354.744C143.099 354.403 142.657 353.928 142.337 353.32C142.017 352.712 141.857 352.019 141.857 351.24C141.857 350.472 142.011 349.789 142.321 349.192C142.641 348.584 143.078 348.109 143.633 347.768C144.198 347.427 144.838 347.256 145.553 347.256C146.097 347.256 146.593 347.379 147.041 347.624C147.499 347.859 147.883 348.195 148.193 348.632V347.512H149.281ZM145.553 354.264C146.065 354.264 146.518 354.136 146.913 353.88C147.318 353.624 147.633 353.267 147.857 352.808C148.081 352.349 148.193 351.832 148.193 351.256C148.193 350.68 148.081 350.163 147.857 349.704C147.633 349.245 147.318 348.888 146.913 348.632C146.518 348.376 146.065 348.248 145.553 348.248C145.051 348.248 144.603 348.376 144.209 348.632C143.814 348.888 143.505 349.245 143.281 349.704C143.057 350.152 142.945 350.664 142.945 351.24C142.945 351.827 143.057 352.349 143.281 352.808C143.505 353.267 143.814 353.624 144.209 353.88C144.603 354.136 145.051 354.264 145.553 354.264Z" fill="#3B3B3B"/>
<path d="M259.703 355.256C258.359 355.256 257.351 354.893 256.679 354.168C256.007 353.432 255.671 352.36 255.671 350.952V344.088H256.871V350.952C256.871 353.096 257.815 354.168 259.703 354.168C260.556 354.168 261.228 353.891 261.719 353.336C262.22 352.781 262.471 351.987 262.471 350.952V344.088H263.671V350.952C263.671 352.339 263.319 353.405 262.615 354.152C261.921 354.888 260.951 355.256 259.703 355.256ZM269.673 347.256C270.388 347.256 271.028 347.427 271.593 347.768C272.158 348.109 272.601 348.584 272.921 349.192C273.241 349.8 273.401 350.493 273.401 351.272C273.401 352.04 273.241 352.728 272.921 353.336C272.612 353.933 272.174 354.403 271.609 354.744C271.054 355.085 270.42 355.256 269.705 355.256C269.161 355.256 268.66 355.139 268.201 354.904C267.753 354.659 267.374 354.317 267.065 353.88V358.2H265.977V347.512H267.065V348.616C267.374 348.189 267.753 347.859 268.201 347.624C268.649 347.379 269.14 347.256 269.673 347.256ZM269.705 354.264C270.206 354.264 270.654 354.136 271.049 353.88C271.444 353.624 271.753 353.272 271.977 352.824C272.201 352.365 272.313 351.848 272.313 351.272C272.313 350.685 272.201 350.163 271.977 349.704C271.753 349.245 271.444 348.888 271.049 348.632C270.654 348.376 270.206 348.248 269.705 348.248C269.193 348.248 268.734 348.376 268.329 348.632C267.934 348.888 267.625 349.245 267.401 349.704C267.177 350.163 267.065 350.68 267.065 351.256C267.065 351.832 267.177 352.349 267.401 352.808C267.625 353.267 267.934 353.624 268.329 353.88C268.734 354.136 269.193 354.264 269.705 354.264ZM275.01 355V343.384H276.098V355H275.01ZM281.444 355.256C280.729 355.256 280.089 355.085 279.524 354.744C278.959 354.403 278.516 353.928 278.196 353.32C277.876 352.701 277.716 352.008 277.716 351.24C277.716 350.472 277.871 349.789 278.18 349.192C278.5 348.584 278.937 348.109 279.492 347.768C280.057 347.427 280.697 347.256 281.412 347.256C282.127 347.256 282.767 347.427 283.332 347.768C283.897 348.109 284.34 348.584 284.66 349.192C284.98 349.8 285.14 350.488 285.14 351.256C285.14 352.024 284.98 352.712 284.66 353.32C284.351 353.928 283.913 354.403 283.348 354.744C282.793 355.085 282.159 355.256 281.444 355.256ZM281.412 354.264C281.924 354.264 282.377 354.136 282.772 353.88C283.177 353.624 283.492 353.267 283.716 352.808C283.94 352.349 284.052 351.832 284.052 351.256C284.052 350.68 283.94 350.163 283.716 349.704C283.492 349.245 283.177 348.888 282.772 348.632C282.377 348.376 281.924 348.248 281.412 348.248C280.911 348.248 280.463 348.376 280.068 348.632C279.673 348.888 279.364 349.245 279.14 349.704C278.916 350.152 278.804 350.664 278.804 351.24C278.804 351.827 278.916 352.349 279.14 352.808C279.364 353.267 279.673 353.624 280.068 353.88C280.463 354.136 280.911 354.264 281.412 354.264ZM293.64 347.512V355H292.552V353.896C292.243 354.323 291.864 354.659 291.416 354.904C290.968 355.139 290.477 355.256 289.944 355.256C289.229 355.256 288.589 355.085 288.024 354.744C287.459 354.403 287.016 353.928 286.696 353.32C286.376 352.712 286.216 352.019 286.216 351.24C286.216 350.472 286.371 349.789 286.68 349.192C287 348.584 287.437 348.109 287.992 347.768C288.557 347.427 289.197 347.256 289.912 347.256C290.456 347.256 290.952 347.379 291.4 347.624C291.859 347.859 292.243 348.195 292.552 348.632V347.512H293.64ZM289.912 354.264C290.424 354.264 290.877 354.136 291.272 353.88C291.677 353.624 291.992 353.267 292.216 352.808C292.44 352.349 292.552 351.832 292.552 351.256C292.552 350.68 292.44 350.163 292.216 349.704C291.992 349.245 291.677 348.888 291.272 348.632C290.877 348.376 290.424 348.248 289.912 348.248C289.411 348.248 288.963 348.376 288.568 348.632C288.173 348.888 287.864 349.245 287.64 349.704C287.416 350.152 287.304 350.664 287.304 351.24C287.304 351.827 287.416 352.349 287.64 352.808C287.864 353.267 288.173 353.624 288.568 353.88C288.963 354.136 289.411 354.264 289.912 354.264ZM302.609 343.384V355H301.521V353.896C301.211 354.323 300.833 354.659 300.385 354.904C299.937 355.139 299.446 355.256 298.913 355.256C298.198 355.256 297.558 355.085 296.993 354.744C296.427 354.403 295.985 353.928 295.665 353.32C295.345 352.712 295.185 352.019 295.185 351.24C295.185 350.472 295.339 349.789 295.649 349.192C295.969 348.584 296.406 348.109 296.961 347.768C297.526 347.427 298.166 347.256 298.881 347.256C299.425 347.256 299.921 347.379 300.369 347.624C300.827 347.859 301.211 348.195 301.521 348.632V343.384H302.609ZM298.881 354.264C299.393 354.264 299.846 354.136 300.241 353.88C300.646 353.624 300.961 353.267 301.185 352.808C301.409 352.349 301.521 351.832 301.521 351.256C301.521 350.68 301.409 350.163 301.185 349.704C300.961 349.245 300.646 348.888 300.241 348.632C299.846 348.376 299.393 348.248 298.881 348.248C298.379 348.248 297.931 348.376 297.537 348.632C297.142 348.888 296.833 349.245 296.609 349.704C296.385 350.152 296.273 350.664 296.273 351.24C296.273 351.827 296.385 352.349 296.609 352.808C296.833 353.267 297.142 353.624 297.537 353.88C297.931 354.136 298.379 354.264 298.881 354.264ZM264.975 376V365.088H270.927V366.096H266.175V369.904H269.695V370.88H266.175V376H264.975ZM272.53 376V368.512H273.618V376H272.53ZM273.074 367.056C272.828 367.056 272.62 366.971 272.45 366.8C272.29 366.629 272.21 366.421 272.21 366.176C272.21 365.941 272.29 365.744 272.45 365.584C272.62 365.413 272.828 365.328 273.074 365.328C273.308 365.328 273.511 365.413 273.682 365.584C273.852 365.744 273.938 365.947 273.938 366.192C273.938 366.427 273.852 366.629 273.682 366.8C273.511 366.971 273.308 367.056 273.074 367.056ZM276.299 376V364.384H277.387V376H276.299ZM282.701 368.256C283.373 368.256 283.981 368.421 284.525 368.752C285.069 369.083 285.496 369.536 285.805 370.112C286.114 370.677 286.269 371.312 286.269 372.016C286.269 372.219 286.264 372.373 286.253 372.48H280.093C280.136 373.248 280.386 373.904 280.845 374.448C281.304 374.992 281.928 375.264 282.717 375.264C283.357 375.264 283.885 375.147 284.301 374.912C284.728 374.667 285.069 374.331 285.325 373.904L286.189 374.48C285.837 375.035 285.373 375.472 284.797 375.792C284.221 376.101 283.538 376.256 282.749 376.256C282.024 376.256 281.378 376.085 280.813 375.744C280.248 375.403 279.805 374.928 279.485 374.32C279.165 373.712 279.005 373.024 279.005 372.256C279.005 371.488 279.16 370.8 279.469 370.192C279.789 369.584 280.226 369.109 280.781 368.768C281.346 368.427 281.986 368.256 282.701 368.256ZM285.181 371.584C285.074 370.805 284.813 370.224 284.397 369.84C283.981 369.445 283.416 369.248 282.701 369.248C282.008 369.248 281.437 369.472 280.989 369.92C280.552 370.357 280.274 370.912 280.157 371.584H285.181ZM290.515 376.256C289.79 376.256 289.15 376.101 288.595 375.792C288.051 375.483 287.635 375.045 287.347 374.48L288.323 374C288.718 374.843 289.491 375.264 290.643 375.264C291.198 375.264 291.657 375.163 292.019 374.96C292.382 374.757 292.563 374.443 292.563 374.016C292.563 373.579 292.414 373.253 292.115 373.04C291.827 372.827 291.315 372.688 290.579 372.624C289.555 372.539 288.819 372.309 288.371 371.936C287.934 371.563 287.715 371.067 287.715 370.448C287.715 369.755 287.966 369.216 288.467 368.832C288.969 368.448 289.657 368.256 290.531 368.256C292.014 368.256 293.022 368.843 293.555 370.016L292.579 370.496C292.398 370.069 292.131 369.755 291.779 369.552C291.438 369.349 290.995 369.248 290.451 369.248C289.897 369.248 289.47 369.349 289.171 369.552C288.883 369.755 288.739 370.043 288.739 370.416C288.739 370.768 288.894 371.056 289.203 371.28C289.523 371.493 290.067 371.632 290.835 371.696C291.785 371.781 292.489 372.016 292.947 372.4C293.417 372.773 293.651 373.269 293.651 373.888C293.651 374.389 293.507 374.821 293.219 375.184C292.931 375.536 292.547 375.803 292.067 375.984C291.587 376.165 291.07 376.256 290.515 376.256Z" fill="#3B3B3B"/>
<path d="M179.516 355.256C178.598 355.256 177.804 355.032 177.132 354.584C176.47 354.125 175.958 353.475 175.596 352.632C175.244 351.779 175.068 350.76 175.068 349.576C175.068 348.381 175.238 347.357 175.58 346.504C175.932 345.64 176.428 344.984 177.068 344.536C177.718 344.077 178.486 343.848 179.372 343.848C180.278 343.848 181.052 344.051 181.692 344.456C182.342 344.851 182.849 345.411 183.212 346.136L182.252 346.696C181.91 346.067 181.51 345.619 181.052 345.352C180.593 345.075 180.033 344.936 179.372 344.936C178.422 344.936 177.676 345.347 177.132 346.168C176.598 346.979 176.332 348.109 176.332 349.56C176.332 350.509 176.454 351.331 176.7 352.024C176.945 352.717 177.297 353.251 177.756 353.624C178.214 353.987 178.748 354.168 179.356 354.168C180.113 354.168 180.7 354.003 181.116 353.672C181.542 353.331 181.937 352.803 182.3 352.088L183.308 352.696C182.924 353.528 182.412 354.163 181.772 354.6C181.142 355.037 180.39 355.256 179.516 355.256ZM188.147 355.256C187.432 355.256 186.792 355.085 186.227 354.744C185.662 354.403 185.219 353.928 184.899 353.32C184.579 352.701 184.419 352.008 184.419 351.24C184.419 350.472 184.574 349.789 184.883 349.192C185.203 348.584 185.64 348.109 186.195 347.768C186.76 347.427 187.4 347.256 188.115 347.256C188.83 347.256 189.47 347.427 190.035 347.768C190.6 348.109 191.043 348.584 191.363 349.192C191.683 349.8 191.843 350.488 191.843 351.256C191.843 352.024 191.683 352.712 191.363 353.32C191.054 353.928 190.616 354.403 190.051 354.744C189.496 355.085 188.862 355.256 188.147 355.256ZM188.115 354.264C188.627 354.264 189.08 354.136 189.475 353.88C189.88 353.624 190.195 353.267 190.419 352.808C190.643 352.349 190.755 351.832 190.755 351.256C190.755 350.68 190.643 350.163 190.419 349.704C190.195 349.245 189.88 348.888 189.475 348.632C189.08 348.376 188.627 348.248 188.115 348.248C187.614 348.248 187.166 348.376 186.771 348.632C186.376 348.888 186.067 349.245 185.843 349.704C185.619 350.152 185.507 350.664 185.507 351.24C185.507 351.827 185.619 352.349 185.843 352.808C186.067 353.267 186.376 353.624 186.771 353.88C187.166 354.136 187.614 354.264 188.115 354.264ZM193.463 355V343.384H194.551V355H193.463ZM196.713 355V343.384H197.801V355H196.713ZM206.843 347.512V355H205.755V353.896C205.446 354.323 205.067 354.659 204.619 354.904C204.171 355.139 203.68 355.256 203.147 355.256C202.432 355.256 201.792 355.085 201.227 354.744C200.662 354.403 200.219 353.928 199.899 353.32C199.579 352.712 199.419 352.019 199.419 351.24C199.419 350.472 199.574 349.789 199.883 349.192C200.203 348.584 200.64 348.109 201.195 347.768C201.76 347.427 202.4 347.256 203.115 347.256C203.659 347.256 204.155 347.379 204.603 347.624C205.062 347.859 205.446 348.195 205.755 348.632V347.512H206.843ZM203.115 354.264C203.627 354.264 204.08 354.136 204.475 353.88C204.88 353.624 205.195 353.267 205.419 352.808C205.643 352.349 205.755 351.832 205.755 351.256C205.755 350.68 205.643 350.163 205.419 349.704C205.195 349.245 204.88 348.888 204.475 348.632C204.08 348.376 203.627 348.248 203.115 348.248C202.614 348.248 202.166 348.376 201.771 348.632C201.376 348.888 201.067 349.245 200.843 349.704C200.619 350.152 200.507 350.664 200.507 351.24C200.507 351.827 200.619 352.349 200.843 352.808C201.067 353.267 201.376 353.624 201.771 353.88C202.166 354.136 202.614 354.264 203.115 354.264ZM212.596 347.256C213.31 347.256 213.945 347.427 214.5 347.768C215.065 348.109 215.502 348.584 215.812 349.192C216.132 349.789 216.292 350.472 216.292 351.24C216.292 352.019 216.132 352.712 215.812 353.32C215.492 353.928 215.049 354.403 214.484 354.744C213.918 355.085 213.278 355.256 212.564 355.256C212.03 355.256 211.54 355.139 211.092 354.904C210.644 354.659 210.265 354.323 209.956 353.896V355H208.868V343.384H209.956V348.632C210.265 348.195 210.644 347.859 211.092 347.624C211.55 347.379 212.052 347.256 212.596 347.256ZM212.596 354.264C213.097 354.264 213.545 354.136 213.94 353.88C214.334 353.624 214.644 353.267 214.868 352.808C215.092 352.349 215.204 351.827 215.204 351.24C215.204 350.664 215.092 350.152 214.868 349.704C214.644 349.245 214.334 348.888 213.94 348.632C213.545 348.376 213.097 348.248 212.596 348.248C212.084 348.248 211.625 348.376 211.22 348.632C210.825 348.888 210.516 349.245 210.292 349.704C210.068 350.163 209.956 350.68 209.956 351.256C209.956 351.832 210.068 352.349 210.292 352.808C210.516 353.267 210.825 353.624 211.22 353.88C211.625 354.136 212.084 354.264 212.596 354.264Z" fill="#3B3B3B"/>
</svg>
