<svg width="191" height="61" viewBox="0 0 191 61" fill="none" xmlns="http://www.w3.org/2000/svg">
<path d="M47.5147 34.003C47.5147 31.595 47.9877 29.4593 48.9337 27.596C49.9084 25.7327 51.2127 24.2993 52.8467 23.296C54.5094 22.2927 56.3584 21.791 58.3937 21.791C60.171 21.791 61.719 22.1493 63.0377 22.866C64.385 23.5827 65.46 24.4857 66.2627 25.575V22.178H72.3257V46H66.2627V42.517C65.4887 43.635 64.4137 44.5667 63.0377 45.312C61.6904 46.0287 60.128 46.387 58.3507 46.387C56.344 46.387 54.5094 45.871 52.8467 44.839C51.2127 43.807 49.9084 42.3593 48.9337 40.496C47.9877 38.604 47.5147 36.4397 47.5147 34.003ZM66.2627 34.089C66.2627 32.627 65.976 31.38 65.4027 30.348C64.8294 29.2873 64.0554 28.4847 63.0807 27.94C62.106 27.3667 61.0597 27.08 59.9417 27.08C58.8237 27.08 57.7917 27.3523 56.8457 27.897C55.8997 28.4417 55.1257 29.2443 54.5237 30.305C53.9504 31.337 53.6637 32.5697 53.6637 34.003C53.6637 35.4363 53.9504 36.6977 54.5237 37.787C55.1257 38.8477 55.8997 39.6647 56.8457 40.238C57.8204 40.8113 58.8524 41.098 59.9417 41.098C61.0597 41.098 62.106 40.8257 63.0807 40.281C64.0554 39.7077 64.8294 38.905 65.4027 37.873C65.976 36.8123 66.2627 35.551 66.2627 34.089ZM83.0643 27.123V38.647C83.0643 39.4497 83.2506 40.0373 83.6233 40.41C84.0246 40.754 84.6839 40.926 85.6013 40.926H88.3963V46H84.6123C79.5383 46 77.0013 43.5347 77.0013 38.604V27.123H74.1633V22.178H77.0013V16.287H83.0643V22.178H88.3963V27.123H83.0643ZM89.0282 34.003C89.0282 31.595 89.5012 29.4593 90.4472 27.596C91.4218 25.7327 92.7262 24.2993 94.3602 23.296C96.0228 22.2927 97.8718 21.791 99.9072 21.791C101.685 21.791 103.233 22.1493 104.551 22.866C105.899 23.5827 106.974 24.4857 107.776 25.575V22.178H113.839V46H107.776V42.517C107.002 43.635 105.927 44.5667 104.551 45.312C103.204 46.0287 101.642 46.387 99.8642 46.387C97.8575 46.387 96.0228 45.871 94.3602 44.839C92.7262 43.807 91.4218 42.3593 90.4472 40.496C89.5012 38.604 89.0282 36.4397 89.0282 34.003ZM107.776 34.089C107.776 32.627 107.49 31.38 106.916 30.348C106.343 29.2873 105.569 28.4847 104.594 27.94C103.62 27.3667 102.573 27.08 101.455 27.08C100.337 27.08 99.3052 27.3523 98.3592 27.897C97.4132 28.4417 96.6392 29.2443 96.0372 30.305C95.4638 31.337 95.1772 32.5697 95.1772 34.003C95.1772 35.4363 95.4638 36.6977 96.0372 37.787C96.6392 38.8477 97.4132 39.6647 98.3592 40.238C99.3338 40.8113 100.366 41.098 101.455 41.098C102.573 41.098 103.62 40.8257 104.594 40.281C105.569 39.7077 106.343 38.905 106.916 37.873C107.49 36.8123 107.776 35.551 107.776 34.089ZM123.589 14.18V46H117.569V14.18H123.589ZM150.177 22.178L135.428 57.266H129.021L134.181 45.398L124.635 22.178H131.386L137.535 38.819L143.77 22.178H150.177ZM160.388 46.387C158.438 46.387 156.69 46.043 155.142 45.355C153.594 44.6383 152.361 43.678 151.444 42.474C150.555 41.27 150.068 39.937 149.982 38.475H156.045C156.159 39.3923 156.604 40.152 157.378 40.754C158.18 41.356 159.169 41.657 160.345 41.657C161.491 41.657 162.38 41.4277 163.011 40.969C163.67 40.5103 164 39.9227 164 39.206C164 38.432 163.598 37.8587 162.796 37.486C162.022 37.0847 160.775 36.6547 159.055 36.196C157.277 35.766 155.815 35.3217 154.669 34.863C153.551 34.4043 152.576 33.702 151.745 32.756C150.942 31.81 150.541 30.5343 150.541 28.929C150.541 27.6103 150.913 26.4063 151.659 25.317C152.433 24.2277 153.522 23.3677 154.927 22.737C156.36 22.1063 158.037 21.791 159.958 21.791C162.796 21.791 165.06 22.5077 166.752 23.941C168.443 25.3457 169.375 27.252 169.547 29.66H163.785C163.699 28.714 163.297 27.9687 162.581 27.424C161.893 26.8507 160.961 26.564 159.786 26.564C158.696 26.564 157.851 26.7647 157.249 27.166C156.675 27.5673 156.389 28.1263 156.389 28.843C156.389 29.6457 156.79 30.262 157.593 30.692C158.395 31.0933 159.642 31.509 161.334 31.939C163.054 32.369 164.473 32.8133 165.591 33.272C166.709 33.7307 167.669 34.4473 168.472 35.422C169.303 36.368 169.733 37.6293 169.762 39.206C169.762 40.582 169.375 41.8147 168.601 42.904C167.855 43.9933 166.766 44.8533 165.333 45.484C163.928 46.086 162.28 46.387 160.388 46.387ZM179.562 27.123V38.647C179.562 39.4497 179.749 40.0373 180.121 40.41C180.523 40.754 181.182 40.926 182.099 40.926H184.894V46H181.11C176.036 46 173.499 43.5347 173.499 38.604V27.123H170.661V22.178H173.499V16.287H179.562V22.178H184.894V27.123H179.562Z" fill="#1DA373"/>
<path fill-rule="evenodd" clip-rule="evenodd" d="M16.2589 41.9245C16.2589 42.4036 16.3776 42.8563 16.5884 43.2574C16.5457 43.2763 16.5033 43.2945 16.4614 43.3121C15.2984 43.7999 14.7935 43.6603 14.6302 43.5735C14.4669 43.4868 14.0769 43.1509 13.9019 41.952C13.7315 40.7855 13.8274 39.138 14.2664 37.0702C14.4419 36.2435 14.6684 35.3675 14.9445 34.4506C16.5032 35.9434 18.4817 36.6897 20.88 36.6897C20.9937 36.6897 21.1064 36.688 21.2183 36.6845C21.7024 37.2992 22.1893 37.8921 22.6771 38.4616C22.2661 38.8937 21.8588 39.3029 21.4569 39.688C20.9054 39.2249 20.1813 38.9439 19.3882 38.9439C17.66 38.9439 16.2589 40.2784 16.2589 41.9245ZM23.4886 36.3371C23.6668 36.5547 23.8451 36.7689 24.0234 36.9798C24.3967 36.5505 24.7717 36.104 25.1473 35.6412C24.6267 35.9348 24.0738 36.1668 23.4886 36.3371ZM30.4367 31.7697C28.7768 34.2835 27.0498 36.547 25.3448 38.4808C26.6576 39.9112 27.9553 41.1441 29.1925 42.1472C30.507 43.213 31.6973 43.9736 32.7161 44.4473C33.2893 44.0925 33.844 43.7066 34.38 43.2897C35.1413 42.6892 35.8453 42.0439 36.4921 41.3539C36.4584 40.4663 36.3255 39.4375 36.0787 38.2787C35.665 36.3366 34.9531 34.1296 33.9595 31.7697H30.4367ZM36.1356 31.7697C37.2129 34.4419 37.9435 36.9348 38.2954 39.0988C39.7298 36.9835 40.7446 34.5405 41.34 31.7697H36.1356ZM30.6337 45.5624C27.8279 46.8473 24.6367 47.4897 21.06 47.4897C16.9 47.4897 13.22 46.5897 10.02 44.7897C6.82 42.9497 4.34 40.4097 2.58 37.1697C0.86 33.8897 0 30.1497 0 25.9497C0 21.7897 0.86 18.0897 2.58 14.8497C4.34 11.5697 6.82 9.02973 10.02 7.22973C13.22 5.38973 16.9 4.46973 21.06 4.46973C24.6899 4.46973 27.9228 5.14086 30.7587 6.48313C28.6971 8.06697 26.4488 10.3477 24.2128 13.1477C19.3634 8.04753 14.6554 5.45073 12.0258 6.92797C10.7437 7.64823 10.1123 9.24895 10.0731 11.4549C9.05825 11.9477 8.3632 12.9526 8.3632 14.1121C8.3632 15.5591 9.44576 16.7653 10.8815 17.036C11.1299 17.9694 11.434 18.9442 11.7919 19.9514C4.91338 20.9919 0.184098 23.0597 0.224053 25.3679C0.24745 26.7196 1.9026 27.9375 4.65818 28.8803C4.92214 30.2719 6.2004 31.3275 7.73751 31.3275C8.74151 31.3275 9.63507 30.8772 10.2077 30.177C10.9664 30.2945 11.7568 30.3981 12.5747 30.4865C12.8043 31.2122 13.0961 31.8865 13.4502 32.5094C11.2575 38.9684 11.1532 43.9888 13.6194 45.2993C14.7676 45.9094 16.3415 45.6456 18.1618 44.6676C18.5384 44.8206 18.9529 44.9052 19.3882 44.9052C21.1165 44.9052 22.5175 43.5707 22.5175 41.9245C22.5175 41.7604 22.5036 41.5994 22.4768 41.4425C22.9781 40.977 23.486 40.477 23.9981 39.9446C26.2985 42.4251 28.579 44.3534 30.6337 45.5624ZM12.4539 21.8758C12.1113 23.0924 11.94 24.4504 11.94 25.9497C11.94 26.8198 11.9963 27.6434 12.1089 28.4205C11.685 28.3692 11.2703 28.3136 10.8653 28.2541C10.8139 26.6508 9.43321 25.3662 7.73751 25.3662C6.56694 25.3662 5.54649 25.9784 5.0098 26.885C4.1378 26.5696 3.45239 26.2411 2.95506 25.9196C2.52284 25.6401 2.33844 25.4398 2.26286 25.3359C2.3348 25.2296 2.51217 25.0236 2.93448 24.7308C3.7148 24.1897 4.97926 23.6154 6.72451 23.0911C8.34556 22.6041 10.2841 22.1887 12.4539 21.8758ZM22.5005 15.3985C21.9828 15.3127 21.4427 15.2697 20.88 15.2697C18.16 15.2697 15.98 16.2497 14.34 18.2097C14.0903 18.5093 13.8601 18.825 13.6494 19.1568C13.3616 18.3336 13.113 17.5371 12.9045 16.7728C13.9234 16.2813 14.6218 15.2743 14.6218 14.1121C14.6218 12.6711 13.5483 11.4689 12.1215 11.1916C12.1366 10.9077 12.1641 10.6434 12.2035 10.399C12.3943 9.21333 12.8045 8.7824 13.0787 8.6284C13.3528 8.47439 13.9472 8.34095 15.129 8.75555C16.2971 9.16537 17.7579 10.0242 19.4164 11.3689C20.5666 12.3015 21.769 13.4328 22.9874 14.7366C22.8248 14.9546 22.6625 15.1753 22.5005 15.3985ZM34.4491 20.1897H32.7435C31.7311 19.9947 30.6483 19.8264 29.5072 19.688C28.2237 17.8489 26.8978 16.154 25.5689 14.6354C27.2849 12.4552 28.9984 10.6068 30.6054 9.17336C31.3346 8.52293 32.0241 7.974 32.6652 7.52378C33.2566 7.89239 33.8282 8.29438 34.38 8.72973C35.4221 9.54024 36.3569 10.4362 37.1845 11.4177C37.1252 11.7813 37.0539 12.1607 36.9701 12.5554C36.4948 14.7943 35.6459 17.3941 34.4491 20.1897ZM36.6284 20.1897H41.34C40.8163 17.7525 39.968 15.574 38.7952 13.654C38.3199 15.6458 37.5913 17.8544 36.6284 20.1897Z" fill="#1DA373"/>
</svg>
