<svg width="343" height="230" viewBox="0 0 343 230" fill="none" xmlns="http://www.w3.org/2000/svg">
<circle cx="65.5" cy="65.5" r="65.5" fill="#555C6E"/>
<path fill-rule="evenodd" clip-rule="evenodd" d="M65.8075 0.00070662C65.7051 0.000235711 65.6026 0 65.5 0C29.3253 0 0 29.3253 0 65.5C0 101.675 29.3253 131 65.5 131C101.675 131 131 101.675 131 65.5C131 65.3974 131 65.2949 130.999 65.1925H65.8075V0.00070662Z" fill="#E5E5E5"/>
<path d="M44.95 82.75C46.1667 82.75 47.2083 82.9667 48.075 83.4C48.9583 83.8333 49.625 84.4167 50.075 85.15C50.5417 85.8833 50.775 86.6917 50.775 87.575C50.775 88.475 50.5917 89.3333 50.225 90.15C49.8583 90.9667 49.2083 91.9083 48.275 92.975C47.3417 94.025 45.9833 95.3583 44.2 96.975H51.125L50.725 100H39.725V97.2C41.775 95.1833 43.2667 93.6667 44.2 92.65C45.1333 91.6167 45.7833 90.7583 46.15 90.075C46.5333 89.3917 46.725 88.6917 46.725 87.975C46.725 87.2917 46.525 86.7583 46.125 86.375C45.7417 85.975 45.2167 85.775 44.55 85.775C43.95 85.775 43.4167 85.9167 42.95 86.2C42.4833 86.4667 41.9917 86.9083 41.475 87.525L39.15 85.675C39.85 84.7583 40.6833 84.0417 41.65 83.525C42.6333 83.0083 43.7333 82.75 44.95 82.75ZM64.7826 93.4V96.35H62.8826V100H59.0326L59.0076 96.35H51.8826V93.725L56.6826 82.675L60.0326 83.925L55.9576 93.4H59.0576L59.4826 89.4H62.8826V93.4H64.7826ZM79.6674 82L82.0924 83.55L70.5174 101L68.0924 99.45L79.6674 82ZM69.4924 82.75C70.3257 82.75 71.0757 82.9333 71.7424 83.3C72.4257 83.6667 72.9591 84.1917 73.3424 84.875C73.7424 85.5583 73.9424 86.35 73.9424 87.25C73.9424 88.15 73.7424 88.9417 73.3424 89.625C72.9591 90.3083 72.4257 90.8333 71.7424 91.2C71.0757 91.5667 70.3257 91.75 69.4924 91.75C68.659 91.75 67.9007 91.5667 67.2174 91.2C66.5507 90.8167 66.0174 90.2917 65.6174 89.625C65.234 88.9417 65.0424 88.15 65.0424 87.25C65.0424 86.35 65.234 85.5667 65.6174 84.9C66.0174 84.2167 66.5507 83.6917 67.2174 83.325C67.9007 82.9417 68.659 82.75 69.4924 82.75ZM69.4924 85.125C68.409 85.125 67.8674 85.8333 67.8674 87.25C67.8674 87.8667 67.984 88.375 68.2174 88.775C68.4674 89.175 68.8924 89.375 69.4924 89.375C70.5591 89.375 71.0924 88.6667 71.0924 87.25C71.0924 85.8333 70.5591 85.125 69.4924 85.125ZM80.6174 91.45C81.4507 91.45 82.2007 91.6333 82.8674 92C83.5507 92.3667 84.0841 92.8917 84.4674 93.575C84.8674 94.2417 85.0674 95.025 85.0674 95.925C85.0674 96.825 84.8674 97.6167 84.4674 98.3C84.0841 98.9833 83.5507 99.5083 82.8674 99.875C82.2007 100.242 81.4507 100.425 80.6174 100.425C79.7841 100.425 79.0257 100.242 78.3424 99.875C77.6591 99.5083 77.1174 98.9833 76.7174 98.3C76.334 97.6167 76.1424 96.825 76.1424 95.925C76.1424 95.025 76.334 94.2417 76.7174 93.575C77.1174 92.8917 77.6591 92.3667 78.3424 92C79.0257 91.6333 79.7841 91.45 80.6174 91.45ZM80.6174 93.825C79.534 93.825 78.9924 94.525 78.9924 95.925C78.9924 96.5417 79.109 97.0583 79.3424 97.475C79.5924 97.875 80.0174 98.075 80.6174 98.075C81.684 98.075 82.2174 97.3583 82.2174 95.925C82.2174 94.525 81.684 93.825 80.6174 93.825Z" fill="#555C6E"/>
<path d="M5.994 163.288C4.962 163.288 4.068 163.036 3.312 162.532C2.568 162.016 1.992 161.284 1.584 160.336C1.188 159.376 0.99 158.23 0.99 156.898C0.99 155.554 1.182 154.402 1.566 153.442C1.962 152.47 2.52 151.732 3.24 151.228C3.972 150.712 4.836 150.454 5.832 150.454C6.852 150.454 7.722 150.682 8.442 151.138C9.174 151.582 9.744 152.212 10.152 153.028L9.072 153.658C8.688 152.95 8.238 152.446 7.722 152.146C7.206 151.834 6.576 151.678 5.832 151.678C4.764 151.678 3.924 152.14 3.312 153.064C2.712 153.976 2.412 155.248 2.412 156.88C2.412 157.948 2.55 158.872 2.826 159.652C3.102 160.432 3.498 161.032 4.014 161.452C4.53 161.86 5.13 162.064 5.814 162.064C6.666 162.064 7.326 161.878 7.794 161.506C8.274 161.122 8.718 160.528 9.126 159.724L10.26 160.408C9.828 161.344 9.252 162.058 8.532 162.55C7.824 163.042 6.978 163.288 5.994 163.288ZM19.4304 154.576V163H18.2064V161.596C17.9184 162.136 17.5344 162.556 17.0544 162.856C16.5864 163.144 16.0404 163.288 15.4164 163.288C14.8284 163.288 14.2824 163.168 13.7784 162.928C13.2864 162.688 12.8904 162.334 12.5904 161.866C12.3024 161.398 12.1584 160.846 12.1584 160.21V154.576H13.3824V159.67C13.3824 161.338 14.1264 162.172 15.6144 162.172C16.4784 162.172 17.1264 161.866 17.5584 161.254C17.9904 160.642 18.2064 159.82 18.2064 158.788V154.576H19.4304ZM25.8404 154.288C26.1284 154.288 26.4044 154.33 26.6684 154.414V155.53C26.4164 155.41 26.1404 155.35 25.8404 155.35C25.3244 155.35 24.8444 155.494 24.4004 155.782C23.9564 156.07 23.5964 156.49 23.3204 157.042C23.0564 157.582 22.9244 158.224 22.9244 158.968V163H21.7004V154.576H22.9244V156.268C23.2484 155.644 23.6564 155.158 24.1484 154.81C24.6524 154.462 25.2164 154.288 25.8404 154.288ZM31.94 154.288C32.228 154.288 32.504 154.33 32.768 154.414V155.53C32.516 155.41 32.24 155.35 31.94 155.35C31.424 155.35 30.944 155.494 30.5 155.782C30.056 156.07 29.696 156.49 29.42 157.042C29.156 157.582 29.024 158.224 29.024 158.968V163H27.8V154.576H29.024V156.268C29.348 155.644 29.756 155.158 30.248 154.81C30.752 154.462 31.316 154.288 31.94 154.288ZM37.3598 154.288C38.1158 154.288 38.7998 154.474 39.4118 154.846C40.0238 155.218 40.5038 155.728 40.8518 156.376C41.1998 157.012 41.3738 157.726 41.3738 158.518C41.3738 158.746 41.3678 158.92 41.3558 159.04H34.4258C34.4738 159.904 34.7558 160.642 35.2718 161.254C35.7878 161.866 36.4898 162.172 37.3778 162.172C38.0978 162.172 38.6918 162.04 39.1598 161.776C39.6398 161.5 40.0238 161.122 40.3118 160.642L41.2838 161.29C40.8878 161.914 40.3658 162.406 39.7178 162.766C39.0698 163.114 38.3018 163.288 37.4138 163.288C36.5978 163.288 35.8718 163.096 35.2358 162.712C34.5998 162.328 34.1018 161.794 33.7418 161.11C33.3818 160.426 33.2018 159.652 33.2018 158.788C33.2018 157.924 33.3758 157.15 33.7238 156.466C34.0838 155.782 34.5758 155.248 35.1998 154.864C35.8358 154.48 36.5558 154.288 37.3598 154.288ZM40.1498 158.032C40.0298 157.156 39.7358 156.502 39.2678 156.07C38.7998 155.626 38.1638 155.404 37.3598 155.404C36.5798 155.404 35.9378 155.656 35.4338 156.16C34.9418 156.652 34.6298 157.276 34.4978 158.032H40.1498ZM47.1949 154.288C47.7829 154.288 48.3229 154.408 48.8149 154.648C49.3189 154.888 49.7149 155.242 50.0029 155.71C50.3029 156.178 50.4529 156.73 50.4529 157.366V163H49.2289V157.906C49.2289 156.238 48.4849 155.404 46.9969 155.404C46.1329 155.404 45.4849 155.71 45.0529 156.322C44.6209 156.934 44.4049 157.756 44.4049 158.788V163H43.1809V154.576H44.4049V155.98C44.6929 155.44 45.0709 155.026 45.5389 154.738C46.0189 154.438 46.5709 154.288 47.1949 154.288ZM53.2988 163V155.692H51.8588V154.576H53.2988V151.786H54.5228V154.576H56.4668V155.692H54.5228V163H53.2988ZM57.8959 163V149.932H59.1199V163H57.8959ZM67.2581 154.576H68.4101L63.8561 166.6H62.6321L63.9641 163.162L60.5081 154.576H61.7861L64.5761 161.56L67.2581 154.576ZM80.9539 154.576V163H79.7299V161.596C79.4419 162.136 79.0579 162.556 78.5779 162.856C78.1099 163.144 77.5639 163.288 76.9399 163.288C76.3519 163.288 75.8059 163.168 75.3019 162.928C74.8099 162.688 74.4139 162.334 74.1139 161.866C73.8259 161.398 73.6819 160.846 73.6819 160.21V154.576H74.9059V159.67C74.9059 161.338 75.6499 162.172 77.1379 162.172C78.0019 162.172 78.6499 161.866 79.0819 161.254C79.5139 160.642 79.7299 159.82 79.7299 158.788V154.576H80.9539ZM86.1938 163.288C85.3778 163.288 84.6578 163.114 84.0338 162.766C83.4218 162.418 82.9538 161.926 82.6298 161.29L83.7278 160.75C84.1718 161.698 85.0418 162.172 86.3378 162.172C86.9618 162.172 87.4778 162.058 87.8858 161.83C88.2938 161.602 88.4978 161.248 88.4978 160.768C88.4978 160.276 88.3298 159.91 87.9938 159.67C87.6698 159.43 87.0938 159.274 86.2658 159.202C85.1138 159.106 84.2858 158.848 83.7818 158.428C83.2898 158.008 83.0438 157.45 83.0438 156.754C83.0438 155.974 83.3258 155.368 83.8898 154.936C84.4538 154.504 85.2278 154.288 86.2118 154.288C87.8798 154.288 89.0138 154.948 89.6138 156.268L88.5158 156.808C88.3118 156.328 88.0118 155.974 87.6158 155.746C87.2318 155.518 86.7338 155.404 86.1218 155.404C85.4978 155.404 85.0178 155.518 84.6818 155.746C84.3578 155.974 84.1958 156.298 84.1958 156.718C84.1958 157.114 84.3698 157.438 84.7178 157.69C85.0778 157.93 85.6898 158.086 86.5538 158.158C87.6218 158.254 88.4138 158.518 88.9298 158.95C89.4578 159.37 89.7218 159.928 89.7218 160.624C89.7218 161.188 89.5598 161.674 89.2358 162.082C88.9118 162.478 88.4798 162.778 87.9398 162.982C87.3998 163.186 86.8178 163.288 86.1938 163.288ZM95.2095 154.288C95.9655 154.288 96.6495 154.474 97.2615 154.846C97.8735 155.218 98.3535 155.728 98.7015 156.376C99.0495 157.012 99.2235 157.726 99.2235 158.518C99.2235 158.746 99.2175 158.92 99.2055 159.04H92.2755C92.3235 159.904 92.6055 160.642 93.1215 161.254C93.6375 161.866 94.3395 162.172 95.2275 162.172C95.9475 162.172 96.5415 162.04 97.0095 161.776C97.4895 161.5 97.8735 161.122 98.1615 160.642L99.1335 161.29C98.7375 161.914 98.2155 162.406 97.5675 162.766C96.9195 163.114 96.1515 163.288 95.2635 163.288C94.4475 163.288 93.7215 163.096 93.0855 162.712C92.4495 162.328 91.9515 161.794 91.5915 161.11C91.2315 160.426 91.0515 159.652 91.0515 158.788C91.0515 157.924 91.2255 157.15 91.5735 156.466C91.9335 155.782 92.4255 155.248 93.0495 154.864C93.6855 154.48 94.4055 154.288 95.2095 154.288ZM97.9995 158.032C97.8795 157.156 97.5855 156.502 97.1175 156.07C96.6495 155.626 96.0135 155.404 95.2095 155.404C94.4295 155.404 93.7875 155.656 93.2835 156.16C92.7915 156.652 92.4795 157.276 92.3475 158.032H97.9995ZM112.868 154.576V163H111.644V161.758C111.296 162.238 110.87 162.616 110.366 162.892C109.862 163.156 109.31 163.288 108.71 163.288C107.906 163.288 107.186 163.096 106.55 162.712C105.914 162.328 105.416 161.794 105.056 161.11C104.696 160.426 104.516 159.646 104.516 158.77C104.516 157.906 104.69 157.138 105.038 156.466C105.398 155.782 105.89 155.248 106.514 154.864C107.15 154.48 107.87 154.288 108.674 154.288C109.286 154.288 109.844 154.426 110.348 154.702C110.864 154.966 111.296 155.344 111.644 155.836V154.576H112.868ZM108.674 162.172C109.25 162.172 109.76 162.028 110.204 161.74C110.66 161.452 111.014 161.05 111.266 160.534C111.518 160.018 111.644 159.436 111.644 158.788C111.644 158.14 111.518 157.558 111.266 157.042C111.014 156.526 110.66 156.124 110.204 155.836C109.76 155.548 109.25 155.404 108.674 155.404C108.11 155.404 107.606 155.548 107.162 155.836C106.718 156.124 106.37 156.526 106.118 157.042C105.866 157.546 105.74 158.122 105.74 158.77C105.74 159.43 105.866 160.018 106.118 160.534C106.37 161.05 106.718 161.452 107.162 161.74C107.606 162.028 108.11 162.172 108.674 162.172ZM122.79 163.288C121.974 163.288 121.248 163.096 120.612 162.712C119.976 162.328 119.478 161.794 119.118 161.11C118.758 160.426 118.578 159.652 118.578 158.788C118.578 157.924 118.752 157.15 119.1 156.466C119.46 155.782 119.958 155.248 120.594 154.864C121.23 154.48 121.95 154.288 122.754 154.288C123.438 154.288 124.032 154.438 124.536 154.738C125.052 155.026 125.52 155.44 125.94 155.98L125.04 156.682C124.452 155.83 123.69 155.404 122.754 155.404C122.19 155.404 121.68 155.548 121.224 155.836C120.78 156.124 120.432 156.526 120.18 157.042C119.928 157.558 119.802 158.14 119.802 158.788C119.802 159.436 119.928 160.018 120.18 160.534C120.432 161.05 120.78 161.452 121.224 161.74C121.68 162.028 122.19 162.172 122.754 162.172C123.33 162.172 123.804 162.076 124.176 161.884C124.548 161.68 124.884 161.386 125.184 161.002L126.138 161.668C125.742 162.16 125.25 162.556 124.662 162.856C124.086 163.144 123.462 163.288 122.79 163.288ZM127.804 163V149.932H129.028V163H127.804ZM135.042 163.288C134.238 163.288 133.518 163.096 132.882 162.712C132.246 162.328 131.748 161.794 131.388 161.11C131.028 160.414 130.848 159.634 130.848 158.77C130.848 157.906 131.022 157.138 131.37 156.466C131.73 155.782 132.222 155.248 132.846 154.864C133.482 154.48 134.202 154.288 135.006 154.288C135.81 154.288 136.53 154.48 137.166 154.864C137.802 155.248 138.3 155.782 138.66 156.466C139.02 157.15 139.2 157.924 139.2 158.788C139.2 159.652 139.02 160.426 138.66 161.11C138.312 161.794 137.82 162.328 137.184 162.712C136.56 163.096 135.846 163.288 135.042 163.288ZM135.006 162.172C135.582 162.172 136.092 162.028 136.536 161.74C136.992 161.452 137.346 161.05 137.598 160.534C137.85 160.018 137.976 159.436 137.976 158.788C137.976 158.14 137.85 157.558 137.598 157.042C137.346 156.526 136.992 156.124 136.536 155.836C136.092 155.548 135.582 155.404 135.006 155.404C134.442 155.404 133.938 155.548 133.494 155.836C133.05 156.124 132.702 156.526 132.45 157.042C132.198 157.546 132.072 158.122 132.072 158.77C132.072 159.43 132.198 160.018 132.45 160.534C132.702 161.05 133.05 161.452 133.494 161.74C133.938 162.028 134.442 162.172 135.006 162.172ZM148.331 154.576V163H147.107V161.596C146.819 162.136 146.435 162.556 145.955 162.856C145.487 163.144 144.941 163.288 144.317 163.288C143.729 163.288 143.183 163.168 142.679 162.928C142.187 162.688 141.791 162.334 141.491 161.866C141.203 161.398 141.059 160.846 141.059 160.21V154.576H142.283V159.67C142.283 161.338 143.027 162.172 144.515 162.172C145.379 162.172 146.027 161.866 146.459 161.254C146.891 160.642 147.107 159.82 147.107 158.788V154.576H148.331ZM158.431 149.932V163H157.207V161.758C156.859 162.238 156.433 162.616 155.929 162.892C155.425 163.156 154.873 163.288 154.273 163.288C153.469 163.288 152.749 163.096 152.113 162.712C151.477 162.328 150.979 161.794 150.619 161.11C150.259 160.426 150.079 159.646 150.079 158.77C150.079 157.906 150.253 157.138 150.601 156.466C150.961 155.782 151.453 155.248 152.077 154.864C152.713 154.48 153.433 154.288 154.237 154.288C154.849 154.288 155.407 154.426 155.911 154.702C156.427 154.966 156.859 155.344 157.207 155.836V149.932H158.431ZM154.237 162.172C154.813 162.172 155.323 162.028 155.767 161.74C156.223 161.452 156.577 161.05 156.829 160.534C157.081 160.018 157.207 159.436 157.207 158.788C157.207 158.14 157.081 157.558 156.829 157.042C156.577 156.526 156.223 156.124 155.767 155.836C155.323 155.548 154.813 155.404 154.237 155.404C153.673 155.404 153.169 155.548 152.725 155.836C152.281 156.124 151.933 156.526 151.681 157.042C151.429 157.546 151.303 158.122 151.303 158.77C151.303 159.43 151.429 160.018 151.681 160.534C151.933 161.05 152.281 161.452 152.725 161.74C153.169 162.028 153.673 162.172 154.237 162.172ZM4.104 187.288C3.288 187.288 2.568 187.114 1.944 186.766C1.332 186.418 0.864 185.926 0.54 185.29L1.638 184.75C2.082 185.698 2.952 186.172 4.248 186.172C4.872 186.172 5.388 186.058 5.796 185.83C6.204 185.602 6.408 185.248 6.408 184.768C6.408 184.276 6.24 183.91 5.904 183.67C5.58 183.43 5.004 183.274 4.176 183.202C3.024 183.106 2.196 182.848 1.692 182.428C1.2 182.008 0.954 181.45 0.954 180.754C0.954 179.974 1.236 179.368 1.8 178.936C2.364 178.504 3.138 178.288 4.122 178.288C5.79 178.288 6.924 178.948 7.524 180.268L6.426 180.808C6.222 180.328 5.922 179.974 5.526 179.746C5.142 179.518 4.644 179.404 4.032 179.404C3.408 179.404 2.928 179.518 2.592 179.746C2.268 179.974 2.106 180.298 2.106 180.718C2.106 181.114 2.28 181.438 2.628 181.69C2.988 181.93 3.6 182.086 4.464 182.158C5.532 182.254 6.324 182.518 6.84 182.95C7.368 183.37 7.632 183.928 7.632 184.624C7.632 185.188 7.47 185.674 7.146 186.082C6.822 186.478 6.39 186.778 5.85 186.982C5.31 187.186 4.728 187.288 4.104 187.288ZM9.93361 187V179.692H8.49361V178.576H9.93361V175.786H11.1576V178.576H13.1016V179.692H11.1576V187H9.93361ZM18.1126 187.288C17.3086 187.288 16.5886 187.096 15.9526 186.712C15.3166 186.328 14.8186 185.794 14.4586 185.11C14.0986 184.414 13.9186 183.634 13.9186 182.77C13.9186 181.906 14.0926 181.138 14.4406 180.466C14.8006 179.782 15.2926 179.248 15.9166 178.864C16.5526 178.48 17.2726 178.288 18.0766 178.288C18.8806 178.288 19.6006 178.48 20.2366 178.864C20.8726 179.248 21.3706 179.782 21.7306 180.466C22.0906 181.15 22.2706 181.924 22.2706 182.788C22.2706 183.652 22.0906 184.426 21.7306 185.11C21.3826 185.794 20.8906 186.328 20.2546 186.712C19.6306 187.096 18.9166 187.288 18.1126 187.288ZM18.0766 186.172C18.6526 186.172 19.1626 186.028 19.6066 185.74C20.0626 185.452 20.4166 185.05 20.6686 184.534C20.9206 184.018 21.0466 183.436 21.0466 182.788C21.0466 182.14 20.9206 181.558 20.6686 181.042C20.4166 180.526 20.0626 180.124 19.6066 179.836C19.1626 179.548 18.6526 179.404 18.0766 179.404C17.5126 179.404 17.0086 179.548 16.5646 179.836C16.1206 180.124 15.7726 180.526 15.5206 181.042C15.2686 181.546 15.1426 182.122 15.1426 182.77C15.1426 183.43 15.2686 184.018 15.5206 184.534C15.7726 185.05 16.1206 185.452 16.5646 185.74C17.0086 186.028 17.5126 186.172 18.0766 186.172ZM28.1431 178.288C28.4311 178.288 28.7071 178.33 28.9711 178.414V179.53C28.7191 179.41 28.4431 179.35 28.1431 179.35C27.6271 179.35 27.1471 179.494 26.7031 179.782C26.2591 180.07 25.8991 180.49 25.6231 181.042C25.3591 181.582 25.2271 182.224 25.2271 182.968V187H24.0031V178.576H25.2271V180.268C25.5511 179.644 25.9591 179.158 26.4511 178.81C26.9551 178.462 27.5191 178.288 28.1431 178.288ZM37.9328 178.576V187H36.7088V185.758C36.3608 186.238 35.9348 186.616 35.4308 186.892C34.9268 187.156 34.3748 187.288 33.7748 187.288C32.9708 187.288 32.2508 187.096 31.6147 186.712C30.9788 186.328 30.4808 185.794 30.1208 185.11C29.7608 184.426 29.5808 183.646 29.5808 182.77C29.5808 181.906 29.7548 181.138 30.1028 180.466C30.4628 179.782 30.9548 179.248 31.5788 178.864C32.2148 178.48 32.9348 178.288 33.7388 178.288C34.3508 178.288 34.9088 178.426 35.4128 178.702C35.9288 178.966 36.3608 179.344 36.7088 179.836V178.576H37.9328ZM33.7388 186.172C34.3148 186.172 34.8248 186.028 35.2688 185.74C35.7248 185.452 36.0788 185.05 36.3308 184.534C36.5828 184.018 36.7088 183.436 36.7088 182.788C36.7088 182.14 36.5828 181.558 36.3308 181.042C36.0788 180.526 35.7248 180.124 35.2688 179.836C34.8248 179.548 34.3148 179.404 33.7388 179.404C33.1748 179.404 32.6708 179.548 32.2268 179.836C31.7828 180.124 31.4348 180.526 31.1828 181.042C30.9308 181.546 30.8048 182.122 30.8048 182.77C30.8048 183.43 30.9308 184.018 31.1828 184.534C31.4348 185.05 31.7828 185.452 32.2268 185.74C32.6708 186.028 33.1748 186.172 33.7388 186.172ZM48.0226 178.576V186.676C48.0226 187.432 47.8666 188.104 47.5546 188.692C47.2426 189.292 46.8046 189.76 46.2406 190.096C45.6766 190.432 45.0346 190.6 44.3146 190.6H40.8226V189.484H44.3146C45.0466 189.484 45.6406 189.22 46.0966 188.692C46.5646 188.164 46.7986 187.492 46.7986 186.676V185.758C46.4506 186.238 46.0246 186.616 45.5206 186.892C45.0166 187.156 44.4646 187.288 43.8646 187.288C43.0606 187.288 42.3406 187.096 41.7046 186.712C41.0686 186.328 40.5706 185.794 40.2106 185.11C39.8506 184.426 39.6706 183.646 39.6706 182.77C39.6706 181.906 39.8446 181.138 40.1926 180.466C40.5526 179.782 41.0446 179.248 41.6686 178.864C42.3046 178.48 43.0246 178.288 43.8286 178.288C44.4406 178.288 44.9986 178.426 45.5026 178.702C46.0186 178.966 46.4506 179.344 46.7986 179.836V178.576H48.0226ZM43.8286 186.172C44.4046 186.172 44.9146 186.028 45.3586 185.74C45.8146 185.452 46.1686 185.05 46.4206 184.534C46.6726 184.018 46.7986 183.436 46.7986 182.788C46.7986 182.14 46.6726 181.558 46.4206 181.042C46.1686 180.526 45.8146 180.124 45.3586 179.836C44.9146 179.548 44.4046 179.404 43.8286 179.404C43.2646 179.404 42.7606 179.548 42.3166 179.836C41.8726 180.124 41.5246 180.526 41.2726 181.042C41.0206 181.546 40.8946 182.122 40.8946 182.77C40.8946 183.43 41.0206 184.018 41.2726 184.534C41.5246 185.05 41.8726 185.452 42.3166 185.74C42.7606 186.028 43.2646 186.172 43.8286 186.172ZM53.9184 178.288C54.6744 178.288 55.3584 178.474 55.9704 178.846C56.5824 179.218 57.0624 179.728 57.4104 180.376C57.7584 181.012 57.9324 181.726 57.9324 182.518C57.9324 182.746 57.9264 182.92 57.9144 183.04H50.9844C51.0324 183.904 51.3144 184.642 51.8304 185.254C52.3464 185.866 53.0484 186.172 53.9364 186.172C54.6564 186.172 55.2504 186.04 55.7184 185.776C56.1984 185.5 56.5824 185.122 56.8704 184.642L57.8424 185.29C57.4464 185.914 56.9244 186.406 56.2764 186.766C55.6284 187.114 54.8604 187.288 53.9724 187.288C53.1564 187.288 52.4304 187.096 51.7944 186.712C51.1584 186.328 50.6604 185.794 50.3004 185.11C49.9404 184.426 49.7604 183.652 49.7604 182.788C49.7604 181.924 49.9344 181.15 50.2824 180.466C50.6424 179.782 51.1344 179.248 51.7584 178.864C52.3944 178.48 53.1144 178.288 53.9184 178.288ZM56.7084 182.032C56.5884 181.156 56.2944 180.502 55.8264 180.07C55.3584 179.626 54.7224 179.404 53.9184 179.404C53.1384 179.404 52.4964 179.656 51.9924 180.16C51.5004 180.652 51.1884 181.276 51.0564 182.032H56.7084ZM67.9233 178.288C68.7273 178.288 69.4473 178.48 70.0833 178.864C70.7193 179.248 71.2173 179.782 71.5773 180.466C71.9373 181.15 72.1173 181.93 72.1173 182.806C72.1173 183.67 71.9373 184.444 71.5773 185.128C71.2293 185.8 70.7373 186.328 70.1013 186.712C69.4773 187.096 68.7633 187.288 67.9593 187.288C67.3473 187.288 66.7833 187.156 66.2673 186.892C65.7633 186.616 65.3373 186.232 64.9893 185.74V190.6H63.7653V178.576H64.9893V179.818C65.3373 179.338 65.7633 178.966 66.2673 178.702C66.7713 178.426 67.3233 178.288 67.9233 178.288ZM67.9593 186.172C68.5233 186.172 69.0273 186.028 69.4713 185.74C69.9153 185.452 70.2633 185.056 70.5153 184.552C70.7673 184.036 70.8933 183.454 70.8933 182.806C70.8933 182.146 70.7673 181.558 70.5153 181.042C70.2633 180.526 69.9153 180.124 69.4713 179.836C69.0273 179.548 68.5233 179.404 67.9593 179.404C67.3833 179.404 66.8673 179.548 66.4113 179.836C65.9673 180.124 65.6193 180.526 65.3673 181.042C65.1153 181.558 64.9893 182.14 64.9893 182.788C64.9893 183.436 65.1153 184.018 65.3673 184.534C65.6193 185.05 65.9673 185.452 66.4113 185.74C66.8673 186.028 67.3833 186.172 67.9593 186.172ZM77.9771 178.288C78.2651 178.288 78.5411 178.33 78.8051 178.414V179.53C78.5531 179.41 78.2771 179.35 77.9771 179.35C77.4611 179.35 76.9811 179.494 76.5371 179.782C76.0931 180.07 75.7331 180.49 75.4571 181.042C75.1931 181.582 75.0611 182.224 75.0611 182.968V187H73.8371V178.576H75.0611V180.268C75.3851 179.644 75.7931 179.158 76.2851 178.81C76.7891 178.462 77.3531 178.288 77.9771 178.288ZM83.433 187.288C82.629 187.288 81.909 187.096 81.273 186.712C80.637 186.328 80.139 185.794 79.779 185.11C79.419 184.414 79.239 183.634 79.239 182.77C79.239 181.906 79.413 181.138 79.761 180.466C80.121 179.782 80.613 179.248 81.237 178.864C81.873 178.48 82.593 178.288 83.397 178.288C84.201 178.288 84.921 178.48 85.557 178.864C86.193 179.248 86.691 179.782 87.051 180.466C87.411 181.15 87.591 181.924 87.591 182.788C87.591 183.652 87.411 184.426 87.051 185.11C86.703 185.794 86.211 186.328 85.575 186.712C84.951 187.096 84.237 187.288 83.433 187.288ZM83.397 186.172C83.973 186.172 84.483 186.028 84.927 185.74C85.383 185.452 85.737 185.05 85.989 184.534C86.241 184.018 86.367 183.436 86.367 182.788C86.367 182.14 86.241 181.558 85.989 181.042C85.737 180.526 85.383 180.124 84.927 179.836C84.483 179.548 83.973 179.404 83.397 179.404C82.833 179.404 82.329 179.548 81.885 179.836C81.441 180.124 81.093 180.526 80.841 181.042C80.589 181.546 80.463 182.122 80.463 182.77C80.463 183.43 80.589 184.018 80.841 184.534C81.093 185.05 81.441 185.452 81.885 185.74C82.329 186.028 82.833 186.172 83.397 186.172ZM97.1535 173.932V187H95.9295V185.758C95.5815 186.238 95.1555 186.616 94.6515 186.892C94.1475 187.156 93.5955 187.288 92.9955 187.288C92.1915 187.288 91.4715 187.096 90.8355 186.712C90.1995 186.328 89.7015 185.794 89.3415 185.11C88.9815 184.426 88.8015 183.646 88.8015 182.77C88.8015 181.906 88.9755 181.138 89.3235 180.466C89.6835 179.782 90.1755 179.248 90.7995 178.864C91.4355 178.48 92.1555 178.288 92.9595 178.288C93.5715 178.288 94.1295 178.426 94.6335 178.702C95.1495 178.966 95.5815 179.344 95.9295 179.836V173.932H97.1535ZM92.9595 186.172C93.5355 186.172 94.0455 186.028 94.4895 185.74C94.9455 185.452 95.2995 185.05 95.5515 184.534C95.8035 184.018 95.9295 183.436 95.9295 182.788C95.9295 182.14 95.8035 181.558 95.5515 181.042C95.2995 180.526 94.9455 180.124 94.4895 179.836C94.0455 179.548 93.5355 179.404 92.9595 179.404C92.3955 179.404 91.8915 179.548 91.4475 179.836C91.0035 180.124 90.6555 180.526 90.4035 181.042C90.1515 181.546 90.0255 182.122 90.0255 182.77C90.0255 183.43 90.1515 184.018 90.4035 184.534C90.6555 185.05 91.0035 185.452 91.4475 185.74C91.8915 186.028 92.3955 186.172 92.9595 186.172ZM106.811 178.576V187H105.587V185.596C105.299 186.136 104.915 186.556 104.435 186.856C103.967 187.144 103.421 187.288 102.797 187.288C102.209 187.288 101.663 187.168 101.159 186.928C100.667 186.688 100.271 186.334 99.9713 185.866C99.6833 185.398 99.5393 184.846 99.5393 184.21V178.576H100.763V183.67C100.763 185.338 101.507 186.172 102.995 186.172C103.859 186.172 104.507 185.866 104.939 185.254C105.371 184.642 105.587 183.82 105.587 182.788V178.576H106.811ZM112.735 187.288C111.919 187.288 111.193 187.096 110.557 186.712C109.921 186.328 109.423 185.794 109.063 185.11C108.703 184.426 108.523 183.652 108.523 182.788C108.523 181.924 108.697 181.15 109.045 180.466C109.405 179.782 109.903 179.248 110.539 178.864C111.175 178.48 111.895 178.288 112.699 178.288C113.383 178.288 113.977 178.438 114.481 178.738C114.997 179.026 115.465 179.44 115.885 179.98L114.985 180.682C114.397 179.83 113.635 179.404 112.699 179.404C112.135 179.404 111.625 179.548 111.169 179.836C110.725 180.124 110.377 180.526 110.125 181.042C109.873 181.558 109.747 182.14 109.747 182.788C109.747 183.436 109.873 184.018 110.125 184.534C110.377 185.05 110.725 185.452 111.169 185.74C111.625 186.028 112.135 186.172 112.699 186.172C113.275 186.172 113.749 186.076 114.121 185.884C114.493 185.68 114.829 185.386 115.129 185.002L116.083 185.668C115.687 186.16 115.195 186.556 114.607 186.856C114.031 187.144 113.407 187.288 112.735 187.288ZM118.109 187V179.692H116.669V178.576H118.109V175.786H119.333V178.576H121.277V179.692H119.333V187H118.109ZM129.738 174.742C129.318 174.742 128.97 174.886 128.694 175.174C128.43 175.462 128.298 175.834 128.298 176.29V178.576H130.242V179.692H128.298V187H127.074V179.692H125.994V178.576H127.074V176.29C127.074 175.51 127.32 174.874 127.812 174.382C128.316 173.878 128.958 173.626 129.738 173.626H130.242V174.742H129.738ZM135.253 187.288C134.449 187.288 133.729 187.096 133.093 186.712C132.457 186.328 131.959 185.794 131.599 185.11C131.239 184.414 131.059 183.634 131.059 182.77C131.059 181.906 131.233 181.138 131.581 180.466C131.941 179.782 132.433 179.248 133.057 178.864C133.693 178.48 134.413 178.288 135.217 178.288C136.021 178.288 136.741 178.48 137.377 178.864C138.013 179.248 138.511 179.782 138.871 180.466C139.231 181.15 139.411 181.924 139.411 182.788C139.411 183.652 139.231 184.426 138.871 185.11C138.523 185.794 138.031 186.328 137.395 186.712C136.771 187.096 136.057 187.288 135.253 187.288ZM135.217 186.172C135.793 186.172 136.303 186.028 136.747 185.74C137.203 185.452 137.557 185.05 137.809 184.534C138.061 184.018 138.187 183.436 138.187 182.788C138.187 182.14 138.061 181.558 137.809 181.042C137.557 180.526 137.203 180.124 136.747 179.836C136.303 179.548 135.793 179.404 135.217 179.404C134.653 179.404 134.149 179.548 133.705 179.836C133.261 180.124 132.913 180.526 132.661 181.042C132.409 181.546 132.283 182.122 132.283 182.77C132.283 183.43 132.409 184.018 132.661 184.534C132.913 185.05 133.261 185.452 133.705 185.74C134.149 186.028 134.653 186.172 135.217 186.172ZM145.284 178.288C145.572 178.288 145.848 178.33 146.112 178.414V179.53C145.86 179.41 145.584 179.35 145.284 179.35C144.768 179.35 144.288 179.494 143.844 179.782C143.4 180.07 143.04 180.49 142.764 181.042C142.5 181.582 142.368 182.224 142.368 182.968V187H141.144V178.576H142.368V180.268C142.692 179.644 143.1 179.158 143.592 178.81C144.096 178.462 144.66 178.288 145.284 178.288ZM1.584 211V203.692H0.144V202.576H1.584V199.786H2.808V202.576H4.752V203.692H2.808V211H1.584ZM10.105 202.288C10.693 202.288 11.233 202.408 11.725 202.648C12.229 202.888 12.625 203.242 12.913 203.71C13.213 204.178 13.363 204.73 13.363 205.366V211H12.139V205.906C12.139 204.238 11.395 203.404 9.90703 203.404C9.04303 203.404 8.39503 203.71 7.96303 204.322C7.53103 204.934 7.31503 205.756 7.31503 206.788V211H6.09103V197.932H7.31503V203.98C7.60303 203.44 7.98103 203.026 8.44903 202.738C8.92903 202.438 9.48103 202.288 10.105 202.288ZM19.3423 202.288C20.0983 202.288 20.7823 202.474 21.3943 202.846C22.0063 203.218 22.4863 203.728 22.8343 204.376C23.1823 205.012 23.3563 205.726 23.3563 206.518C23.3563 206.746 23.3503 206.92 23.3383 207.04H16.4083C16.4563 207.904 16.7383 208.642 17.2543 209.254C17.7703 209.866 18.4723 210.172 19.3603 210.172C20.0803 210.172 20.6743 210.04 21.1423 209.776C21.6223 209.5 22.0063 209.122 22.2943 208.642L23.2663 209.29C22.8703 209.914 22.3483 210.406 21.7003 210.766C21.0523 211.114 20.2843 211.288 19.3963 211.288C18.5803 211.288 17.8543 211.096 17.2183 210.712C16.5823 210.328 16.0843 209.794 15.7243 209.11C15.3643 208.426 15.1843 207.652 15.1843 206.788C15.1843 205.924 15.3583 205.15 15.7063 204.466C16.0663 203.782 16.5583 203.248 17.1823 202.864C17.8183 202.48 18.5383 202.288 19.3423 202.288ZM22.1323 206.032C22.0123 205.156 21.7183 204.502 21.2503 204.07C20.7823 203.626 20.1463 203.404 19.3423 203.404C18.5623 203.404 17.9203 203.656 17.4163 204.16C16.9243 204.652 16.6123 205.276 16.4803 206.032H22.1323ZM29.3033 202.288C29.5913 202.288 29.8673 202.33 30.1313 202.414V203.53C29.8793 203.41 29.6033 203.35 29.3033 203.35C28.7873 203.35 28.3073 203.494 27.8633 203.782C27.4193 204.07 27.0593 204.49 26.7833 205.042C26.5193 205.582 26.3873 206.224 26.3873 206.968V211H25.1633V202.576H26.3873V204.268C26.7113 203.644 27.1193 203.158 27.6113 202.81C28.1153 202.462 28.6793 202.288 29.3033 202.288ZM39.0929 202.576V211H37.8689V209.758C37.5209 210.238 37.0949 210.616 36.5909 210.892C36.0869 211.156 35.5349 211.288 34.9349 211.288C34.1309 211.288 33.4109 211.096 32.7749 210.712C32.1389 210.328 31.6409 209.794 31.2809 209.11C30.9209 208.426 30.7409 207.646 30.7409 206.77C30.7409 205.906 30.9149 205.138 31.2629 204.466C31.6229 203.782 32.1149 203.248 32.7389 202.864C33.3749 202.48 34.0949 202.288 34.8989 202.288C35.5109 202.288 36.0689 202.426 36.5729 202.702C37.0889 202.966 37.5209 203.344 37.8689 203.836V202.576H39.0929ZM34.8989 210.172C35.4749 210.172 35.9849 210.028 36.4289 209.74C36.8849 209.452 37.2389 209.05 37.4909 208.534C37.7429 208.018 37.8689 207.436 37.8689 206.788C37.8689 206.14 37.7429 205.558 37.4909 205.042C37.2389 204.526 36.8849 204.124 36.4289 203.836C35.9849 203.548 35.4749 203.404 34.8989 203.404C34.3349 203.404 33.8309 203.548 33.3869 203.836C32.9429 204.124 32.5949 204.526 32.3429 205.042C32.0909 205.546 31.9649 206.122 31.9649 206.77C31.9649 207.43 32.0909 208.018 32.3429 208.534C32.5949 209.05 32.9429 209.452 33.3869 209.74C33.8309 210.028 34.3349 210.172 34.8989 210.172ZM45.5288 202.288C46.3328 202.288 47.0528 202.48 47.6888 202.864C48.3248 203.248 48.8228 203.782 49.1828 204.466C49.5428 205.15 49.7227 205.93 49.7227 206.806C49.7227 207.67 49.5428 208.444 49.1828 209.128C48.8348 209.8 48.3428 210.328 47.7068 210.712C47.0828 211.096 46.3688 211.288 45.5648 211.288C44.9528 211.288 44.3888 211.156 43.8728 210.892C43.3688 210.616 42.9428 210.232 42.5947 209.74V214.6H41.3708V202.576H42.5947V203.818C42.9428 203.338 43.3688 202.966 43.8728 202.702C44.3768 202.426 44.9288 202.288 45.5288 202.288ZM45.5648 210.172C46.1288 210.172 46.6328 210.028 47.0768 209.74C47.5208 209.452 47.8688 209.056 48.1208 208.552C48.3728 208.036 48.4988 207.454 48.4988 206.806C48.4988 206.146 48.3728 205.558 48.1208 205.042C47.8688 204.526 47.5208 204.124 47.0768 203.836C46.6328 203.548 46.1288 203.404 45.5648 203.404C44.9888 203.404 44.4728 203.548 44.0168 203.836C43.5728 204.124 43.2248 204.526 42.9728 205.042C42.7208 205.558 42.5947 206.14 42.5947 206.788C42.5947 207.436 42.7208 208.018 42.9728 208.534C43.2248 209.05 43.5728 209.452 44.0168 209.74C44.4728 210.028 44.9888 210.172 45.5648 210.172ZM57.2386 202.576H58.3906L53.8366 214.6H52.6126L53.9446 211.162L50.4886 202.576H51.7666L54.5566 209.56L57.2386 202.576ZM67.9942 211V203.692H66.5542V202.576H67.9942V199.786H69.2182V202.576H71.1622V203.692H69.2182V211H67.9942ZM80.3312 202.576V211H79.1072V209.758C78.7592 210.238 78.3332 210.616 77.8292 210.892C77.3252 211.156 76.7732 211.288 76.1732 211.288C75.3692 211.288 74.6492 211.096 74.0132 210.712C73.3772 210.328 72.8792 209.794 72.5192 209.11C72.1592 208.426 71.9792 207.646 71.9792 206.77C71.9792 205.906 72.1532 205.138 72.5012 204.466C72.8612 203.782 73.3532 203.248 73.9772 202.864C74.6132 202.48 75.3332 202.288 76.1372 202.288C76.7492 202.288 77.3072 202.426 77.8112 202.702C78.3272 202.966 78.7592 203.344 79.1072 203.836V202.576H80.3312ZM76.1372 210.172C76.7132 210.172 77.2232 210.028 77.6672 209.74C78.1232 209.452 78.4772 209.05 78.7292 208.534C78.9812 208.018 79.1072 207.436 79.1072 206.788C79.1072 206.14 78.9812 205.558 78.7292 205.042C78.4772 204.526 78.1232 204.124 77.6672 203.836C77.2232 203.548 76.7132 203.404 76.1372 203.404C75.5732 203.404 75.0692 203.548 74.6252 203.836C74.1812 204.124 73.8332 204.526 73.5812 205.042C73.3292 205.546 73.2032 206.122 73.2032 206.77C73.2032 207.43 73.3292 208.018 73.5812 208.534C73.8332 209.05 74.1812 209.452 74.6252 209.74C75.0692 210.028 75.5732 210.172 76.1372 210.172ZM85.561 211.288C84.745 211.288 84.025 211.114 83.401 210.766C82.789 210.418 82.321 209.926 81.997 209.29L83.095 208.75C83.539 209.698 84.409 210.172 85.705 210.172C86.329 210.172 86.845 210.058 87.253 209.83C87.661 209.602 87.865 209.248 87.865 208.768C87.865 208.276 87.697 207.91 87.361 207.67C87.037 207.43 86.461 207.274 85.633 207.202C84.481 207.106 83.653 206.848 83.149 206.428C82.657 206.008 82.411 205.45 82.411 204.754C82.411 203.974 82.693 203.368 83.257 202.936C83.821 202.504 84.595 202.288 85.579 202.288C87.247 202.288 88.381 202.948 88.981 204.268L87.883 204.808C87.679 204.328 87.379 203.974 86.983 203.746C86.599 203.518 86.101 203.404 85.489 203.404C84.865 203.404 84.385 203.518 84.049 203.746C83.725 203.974 83.563 204.298 83.563 204.718C83.563 205.114 83.737 205.438 84.085 205.69C84.445 205.93 85.057 206.086 85.921 206.158C86.989 206.254 87.781 206.518 88.297 206.95C88.825 207.37 89.089 207.928 89.089 208.624C89.089 209.188 88.927 209.674 88.603 210.082C88.279 210.478 87.847 210.778 87.307 210.982C86.767 211.186 86.185 211.288 85.561 211.288ZM96.1426 211L93.1906 206.662L92.1646 207.652V211H90.9406V197.932H92.1646V206.104L95.8546 202.576H97.4386L94.0366 205.852L97.5106 211H96.1426ZM101.75 211.288C100.934 211.288 100.214 211.114 99.5905 210.766C98.9785 210.418 98.5105 209.926 98.1865 209.29L99.2845 208.75C99.7285 209.698 100.598 210.172 101.894 210.172C102.518 210.172 103.034 210.058 103.442 209.83C103.85 209.602 104.054 209.248 104.054 208.768C104.054 208.276 103.886 207.91 103.55 207.67C103.226 207.43 102.65 207.274 101.822 207.202C100.67 207.106 99.8425 206.848 99.3385 206.428C98.8465 206.008 98.6005 205.45 98.6005 204.754C98.6005 203.974 98.8825 203.368 99.4465 202.936C100.01 202.504 100.784 202.288 101.768 202.288C103.436 202.288 104.57 202.948 105.17 204.268L104.072 204.808C103.868 204.328 103.568 203.974 103.172 203.746C102.788 203.518 102.29 203.404 101.678 203.404C101.054 203.404 100.574 203.518 100.238 203.746C99.9145 203.974 99.7525 204.298 99.7525 204.718C99.7525 205.114 99.9265 205.438 100.274 205.69C100.634 205.93 101.246 206.086 102.11 206.158C103.178 206.254 103.97 206.518 104.486 206.95C105.014 207.37 105.278 207.928 105.278 208.624C105.278 209.188 105.116 209.674 104.792 210.082C104.468 210.478 104.036 210.778 103.496 210.982C102.956 211.186 102.374 211.288 101.75 211.288Z" fill="#3B3B3B"/>
<ellipse cx="273.495" cy="65.5" rx="65.495" ry="65.5" fill="#E5E5E5"/>
<path fill-rule="evenodd" clip-rule="evenodd" d="M210.712 84.179C218.752 111.253 243.823 131 273.505 131C309.677 131 339 101.675 339 65.5C339 29.3253 309.677 0 273.505 0C273.402 0 273.3 0.000228882 273.198 0.000701904L273.198 65.1926H272.648L210.712 84.179Z" fill="#555C6E"/>
<path d="M262.625 93.6909C263.558 93.6909 264.392 93.9159 265.125 94.3659C265.858 94.7993 266.433 95.4409 266.85 96.2909C267.267 97.1243 267.475 98.1243 267.475 99.2909C267.475 100.441 267.225 101.491 266.725 102.441C266.225 103.374 265.508 104.116 264.575 104.666C263.658 105.216 262.583 105.491 261.35 105.491C259.183 105.491 257.575 104.766 256.525 103.316C255.475 101.866 254.95 99.8743 254.95 97.3409C254.95 95.4409 255.242 93.7743 255.825 92.3409C256.425 90.9076 257.275 89.7993 258.375 89.0159C259.492 88.2159 260.8 87.8159 262.3 87.8159C263.75 87.8159 265.033 88.1909 266.15 88.9409L264.7 91.2909C263.95 90.8576 263.183 90.6409 262.4 90.6409C261.45 90.6409 260.683 91.0409 260.1 91.8409C259.517 92.6409 259.167 93.7743 259.05 95.2409C260.067 94.2076 261.258 93.6909 262.625 93.6909ZM261.4 102.666C262.1 102.666 262.625 102.374 262.975 101.791C263.342 101.191 263.525 100.374 263.525 99.3409C263.525 98.2909 263.358 97.5409 263.025 97.0909C262.692 96.6409 262.192 96.4159 261.525 96.4159C260.625 96.4159 259.8 96.8576 259.05 97.7409C259.083 99.5243 259.275 100.791 259.625 101.541C259.975 102.291 260.567 102.666 261.4 102.666ZM278.536 95.9909C279.67 96.5409 280.511 97.1909 281.061 97.9409C281.611 98.6743 281.886 99.5243 281.886 100.491C281.886 101.408 281.62 102.249 281.086 103.016C280.57 103.766 279.811 104.366 278.811 104.816C277.811 105.266 276.636 105.491 275.286 105.491C273.97 105.491 272.82 105.274 271.836 104.841C270.87 104.391 270.128 103.799 269.611 103.066C269.095 102.316 268.836 101.483 268.836 100.566C268.836 98.6826 269.886 97.2826 271.986 96.3659C270.336 95.3993 269.511 94.0659 269.511 92.3659C269.511 91.4659 269.761 90.6743 270.261 89.9909C270.761 89.3076 271.453 88.7742 272.336 88.3909C273.236 88.0076 274.253 87.8159 275.386 87.8159C277.103 87.8159 278.503 88.2076 279.586 88.9909C280.686 89.7576 281.236 90.8159 281.236 92.1659C281.236 92.9159 281.011 93.6243 280.561 94.2909C280.128 94.9409 279.453 95.5076 278.536 95.9909ZM275.411 90.4909C274.778 90.4909 274.27 90.6576 273.886 90.9909C273.52 91.3243 273.336 91.7993 273.336 92.4159C273.336 92.9826 273.495 93.4493 273.811 93.8159C274.145 94.1659 274.67 94.4909 275.386 94.7909L275.911 94.9909C276.478 94.6243 276.87 94.2409 277.086 93.8409C277.303 93.4243 277.411 92.9326 277.411 92.3659C277.411 91.7993 277.236 91.3493 276.886 91.0159C276.553 90.6659 276.061 90.4909 275.411 90.4909ZM275.411 102.666C276.211 102.666 276.828 102.466 277.261 102.066C277.711 101.649 277.936 101.116 277.936 100.466C277.936 99.7826 277.745 99.2493 277.361 98.8659C276.978 98.4659 276.303 98.0909 275.336 97.7409L274.511 97.4409C273.378 98.0743 272.811 99.0493 272.811 100.366C272.811 101.066 273.045 101.624 273.511 102.041C273.978 102.458 274.611 102.666 275.411 102.666ZM297.988 87.0659L300.413 88.6159L288.838 106.066L286.413 104.516L297.988 87.0659ZM287.813 87.8159C288.646 87.8159 289.396 87.9992 290.063 88.3659C290.746 88.7326 291.279 89.2576 291.663 89.9409C292.063 90.6243 292.263 91.4159 292.263 92.3159C292.263 93.2159 292.063 94.0076 291.663 94.6909C291.279 95.3743 290.746 95.8993 290.063 96.2659C289.396 96.6326 288.646 96.8159 287.813 96.8159C286.979 96.8159 286.221 96.6326 285.538 96.2659C284.871 95.8826 284.338 95.3576 283.938 94.6909C283.554 94.0076 283.363 93.2159 283.363 92.3159C283.363 91.4159 283.554 90.6326 283.938 89.9659C284.338 89.2826 284.871 88.7576 285.538 88.3909C286.221 88.0076 286.979 87.8159 287.813 87.8159ZM287.813 90.1909C286.729 90.1909 286.188 90.8993 286.188 92.3159C286.188 92.9326 286.304 93.4409 286.538 93.8409C286.788 94.2409 287.213 94.4409 287.813 94.4409C288.879 94.4409 289.413 93.7326 289.413 92.3159C289.413 90.8993 288.879 90.1909 287.813 90.1909ZM298.938 96.5159C299.771 96.5159 300.521 96.6993 301.188 97.0659C301.871 97.4326 302.404 97.9576 302.788 98.6409C303.188 99.3076 303.388 100.091 303.388 100.991C303.388 101.891 303.188 102.683 302.788 103.366C302.404 104.049 301.871 104.574 301.188 104.941C300.521 105.308 299.771 105.491 298.938 105.491C298.104 105.491 297.346 105.308 296.663 104.941C295.979 104.574 295.438 104.049 295.038 103.366C294.654 102.683 294.463 101.891 294.463 100.991C294.463 100.091 294.654 99.3076 295.038 98.6409C295.438 97.9576 295.979 97.4326 296.663 97.0659C297.346 96.6993 298.104 96.5159 298.938 96.5159ZM298.938 98.8909C297.854 98.8909 297.313 99.5909 297.313 100.991C297.313 101.608 297.429 102.124 297.663 102.541C297.913 102.941 298.338 103.141 298.938 103.141C300.004 103.141 300.538 102.424 300.538 100.991C300.538 99.5909 300.004 98.8909 298.938 98.8909Z" fill="white"/>
<path d="M217.644 150.724H218.922L215.646 163H214.242L211.686 153.136L209.058 163H207.672L204.396 150.724H205.782L208.41 161.056L211.146 150.724H212.244L214.998 161.146L217.644 150.724ZM223.396 163.288C222.592 163.288 221.872 163.096 221.236 162.712C220.6 162.328 220.102 161.794 219.742 161.11C219.382 160.414 219.202 159.634 219.202 158.77C219.202 157.906 219.376 157.138 219.724 156.466C220.084 155.782 220.576 155.248 221.2 154.864C221.836 154.48 222.556 154.288 223.36 154.288C224.164 154.288 224.884 154.48 225.52 154.864C226.156 155.248 226.654 155.782 227.014 156.466C227.374 157.15 227.554 157.924 227.554 158.788C227.554 159.652 227.374 160.426 227.014 161.11C226.666 161.794 226.174 162.328 225.538 162.712C224.914 163.096 224.2 163.288 223.396 163.288ZM223.36 162.172C223.936 162.172 224.446 162.028 224.89 161.74C225.346 161.452 225.7 161.05 225.952 160.534C226.204 160.018 226.33 159.436 226.33 158.788C226.33 158.14 226.204 157.558 225.952 157.042C225.7 156.526 225.346 156.124 224.89 155.836C224.446 155.548 223.936 155.404 223.36 155.404C222.796 155.404 222.292 155.548 221.848 155.836C221.404 156.124 221.056 156.526 220.804 157.042C220.552 157.546 220.426 158.122 220.426 158.77C220.426 159.43 220.552 160.018 220.804 160.534C221.056 161.05 221.404 161.452 221.848 161.74C222.292 162.028 222.796 162.172 223.36 162.172ZM236.684 154.576V163H235.46V161.596C235.172 162.136 234.788 162.556 234.308 162.856C233.84 163.144 233.294 163.288 232.67 163.288C232.082 163.288 231.536 163.168 231.032 162.928C230.54 162.688 230.144 162.334 229.844 161.866C229.556 161.398 229.412 160.846 229.412 160.21V154.576H230.636V159.67C230.636 161.338 231.38 162.172 232.868 162.172C233.732 162.172 234.38 161.866 234.812 161.254C235.244 160.642 235.46 159.82 235.46 158.788V154.576H236.684ZM239.044 163V149.932H240.268V163H239.044ZM250.441 149.932V163H249.217V161.758C248.869 162.238 248.443 162.616 247.939 162.892C247.435 163.156 246.883 163.288 246.283 163.288C245.479 163.288 244.759 163.096 244.123 162.712C243.487 162.328 242.989 161.794 242.629 161.11C242.269 160.426 242.089 159.646 242.089 158.77C242.089 157.906 242.263 157.138 242.611 156.466C242.971 155.782 243.463 155.248 244.087 154.864C244.723 154.48 245.443 154.288 246.247 154.288C246.859 154.288 247.417 154.426 247.921 154.702C248.437 154.966 248.869 155.344 249.217 155.836V149.932H250.441ZM246.247 162.172C246.823 162.172 247.333 162.028 247.777 161.74C248.233 161.452 248.587 161.05 248.839 160.534C249.091 160.018 249.217 159.436 249.217 158.788C249.217 158.14 249.091 157.558 248.839 157.042C248.587 156.526 248.233 156.124 247.777 155.836C247.333 155.548 246.823 155.404 246.247 155.404C245.683 155.404 245.179 155.548 244.735 155.836C244.291 156.124 243.943 156.526 243.691 157.042C243.439 157.546 243.313 158.122 243.313 158.77C243.313 159.43 243.439 160.018 243.691 160.534C243.943 161.05 244.291 161.452 244.735 161.74C245.179 162.028 245.683 162.172 246.247 162.172ZM264.106 154.576V163H262.882V161.596C262.594 162.136 262.21 162.556 261.73 162.856C261.262 163.144 260.716 163.288 260.092 163.288C259.504 163.288 258.958 163.168 258.454 162.928C257.962 162.688 257.566 162.334 257.266 161.866C256.978 161.398 256.834 160.846 256.834 160.21V154.576H258.058V159.67C258.058 161.338 258.802 162.172 260.29 162.172C261.154 162.172 261.802 161.866 262.234 161.254C262.666 160.642 262.882 159.82 262.882 158.788V154.576H264.106ZM269.346 163.288C268.53 163.288 267.81 163.114 267.186 162.766C266.574 162.418 266.106 161.926 265.782 161.29L266.88 160.75C267.324 161.698 268.194 162.172 269.49 162.172C270.114 162.172 270.63 162.058 271.038 161.83C271.446 161.602 271.65 161.248 271.65 160.768C271.65 160.276 271.482 159.91 271.146 159.67C270.822 159.43 270.246 159.274 269.418 159.202C268.266 159.106 267.438 158.848 266.934 158.428C266.442 158.008 266.196 157.45 266.196 156.754C266.196 155.974 266.478 155.368 267.042 154.936C267.606 154.504 268.38 154.288 269.364 154.288C271.032 154.288 272.166 154.948 272.766 156.268L271.668 156.808C271.464 156.328 271.164 155.974 270.768 155.746C270.384 155.518 269.886 155.404 269.274 155.404C268.65 155.404 268.17 155.518 267.834 155.746C267.51 155.974 267.348 156.298 267.348 156.718C267.348 157.114 267.522 157.438 267.87 157.69C268.23 157.93 268.842 158.086 269.706 158.158C270.774 158.254 271.566 158.518 272.082 158.95C272.61 159.37 272.874 159.928 272.874 160.624C272.874 161.188 272.712 161.674 272.388 162.082C272.064 162.478 271.632 162.778 271.092 162.982C270.552 163.186 269.97 163.288 269.346 163.288ZM278.362 154.288C279.118 154.288 279.802 154.474 280.414 154.846C281.026 155.218 281.506 155.728 281.854 156.376C282.202 157.012 282.376 157.726 282.376 158.518C282.376 158.746 282.37 158.92 282.358 159.04H275.428C275.476 159.904 275.758 160.642 276.274 161.254C276.79 161.866 277.492 162.172 278.38 162.172C279.1 162.172 279.694 162.04 280.162 161.776C280.642 161.5 281.026 161.122 281.314 160.642L282.286 161.29C281.89 161.914 281.368 162.406 280.72 162.766C280.072 163.114 279.304 163.288 278.416 163.288C277.6 163.288 276.874 163.096 276.238 162.712C275.602 162.328 275.104 161.794 274.744 161.11C274.384 160.426 274.204 159.652 274.204 158.788C274.204 157.924 274.378 157.15 274.726 156.466C275.086 155.782 275.578 155.248 276.202 154.864C276.838 154.48 277.558 154.288 278.362 154.288ZM281.152 158.032C281.032 157.156 280.738 156.502 280.27 156.07C279.802 155.626 279.166 155.404 278.362 155.404C277.582 155.404 276.94 155.656 276.436 156.16C275.944 156.652 275.632 157.276 275.5 158.032H281.152ZM296.021 154.576V163H294.797V161.758C294.449 162.238 294.023 162.616 293.519 162.892C293.015 163.156 292.463 163.288 291.863 163.288C291.059 163.288 290.339 163.096 289.703 162.712C289.067 162.328 288.569 161.794 288.209 161.11C287.849 160.426 287.669 159.646 287.669 158.77C287.669 157.906 287.843 157.138 288.191 156.466C288.551 155.782 289.043 155.248 289.667 154.864C290.303 154.48 291.023 154.288 291.827 154.288C292.439 154.288 292.997 154.426 293.501 154.702C294.017 154.966 294.449 155.344 294.797 155.836V154.576H296.021ZM291.827 162.172C292.403 162.172 292.913 162.028 293.357 161.74C293.813 161.452 294.167 161.05 294.419 160.534C294.671 160.018 294.797 159.436 294.797 158.788C294.797 158.14 294.671 157.558 294.419 157.042C294.167 156.526 293.813 156.124 293.357 155.836C292.913 155.548 292.403 155.404 291.827 155.404C291.263 155.404 290.759 155.548 290.315 155.836C289.871 156.124 289.523 156.526 289.271 157.042C289.019 157.546 288.893 158.122 288.893 158.77C288.893 159.43 289.019 160.018 289.271 160.534C289.523 161.05 289.871 161.452 290.315 161.74C290.759 162.028 291.263 162.172 291.827 162.172ZM305.942 163.288C305.126 163.288 304.4 163.096 303.764 162.712C303.128 162.328 302.63 161.794 302.27 161.11C301.91 160.426 301.73 159.652 301.73 158.788C301.73 157.924 301.904 157.15 302.252 156.466C302.612 155.782 303.11 155.248 303.746 154.864C304.382 154.48 305.102 154.288 305.906 154.288C306.59 154.288 307.184 154.438 307.688 154.738C308.204 155.026 308.672 155.44 309.092 155.98L308.192 156.682C307.604 155.83 306.842 155.404 305.906 155.404C305.342 155.404 304.832 155.548 304.376 155.836C303.932 156.124 303.584 156.526 303.332 157.042C303.08 157.558 302.954 158.14 302.954 158.788C302.954 159.436 303.08 160.018 303.332 160.534C303.584 161.05 303.932 161.452 304.376 161.74C304.832 162.028 305.342 162.172 305.906 162.172C306.482 162.172 306.956 162.076 307.328 161.884C307.7 161.68 308.036 161.386 308.336 161.002L309.29 161.668C308.894 162.16 308.402 162.556 307.814 162.856C307.238 163.144 306.614 163.288 305.942 163.288ZM310.956 163V149.932H312.18V163H310.956ZM318.195 163.288C317.391 163.288 316.671 163.096 316.035 162.712C315.399 162.328 314.901 161.794 314.541 161.11C314.181 160.414 314.001 159.634 314.001 158.77C314.001 157.906 314.175 157.138 314.523 156.466C314.883 155.782 315.375 155.248 315.999 154.864C316.635 154.48 317.355 154.288 318.159 154.288C318.963 154.288 319.683 154.48 320.319 154.864C320.955 155.248 321.453 155.782 321.813 156.466C322.173 157.15 322.353 157.924 322.353 158.788C322.353 159.652 322.173 160.426 321.813 161.11C321.465 161.794 320.973 162.328 320.337 162.712C319.713 163.096 318.999 163.288 318.195 163.288ZM318.159 162.172C318.735 162.172 319.245 162.028 319.689 161.74C320.145 161.452 320.499 161.05 320.751 160.534C321.003 160.018 321.129 159.436 321.129 158.788C321.129 158.14 321.003 157.558 320.751 157.042C320.499 156.526 320.145 156.124 319.689 155.836C319.245 155.548 318.735 155.404 318.159 155.404C317.595 155.404 317.091 155.548 316.647 155.836C316.203 156.124 315.855 156.526 315.603 157.042C315.351 157.546 315.225 158.122 315.225 158.77C315.225 159.43 315.351 160.018 315.603 160.534C315.855 161.05 316.203 161.452 316.647 161.74C317.091 162.028 317.595 162.172 318.159 162.172ZM331.483 154.576V163H330.259V161.596C329.971 162.136 329.587 162.556 329.107 162.856C328.639 163.144 328.093 163.288 327.469 163.288C326.881 163.288 326.335 163.168 325.831 162.928C325.339 162.688 324.943 162.334 324.643 161.866C324.355 161.398 324.211 160.846 324.211 160.21V154.576H325.435V159.67C325.435 161.338 326.179 162.172 327.667 162.172C328.531 162.172 329.179 161.866 329.611 161.254C330.043 160.642 330.259 159.82 330.259 158.788V154.576H331.483ZM341.583 149.932V163H340.359V161.758C340.011 162.238 339.585 162.616 339.081 162.892C338.577 163.156 338.025 163.288 337.425 163.288C336.621 163.288 335.901 163.096 335.265 162.712C334.629 162.328 334.131 161.794 333.771 161.11C333.411 160.426 333.231 159.646 333.231 158.77C333.231 157.906 333.405 157.138 333.753 156.466C334.113 155.782 334.605 155.248 335.229 154.864C335.865 154.48 336.585 154.288 337.389 154.288C338.001 154.288 338.559 154.426 339.063 154.702C339.579 154.966 340.011 155.344 340.359 155.836V149.932H341.583ZM337.389 162.172C337.965 162.172 338.475 162.028 338.919 161.74C339.375 161.452 339.729 161.05 339.981 160.534C340.233 160.018 340.359 159.436 340.359 158.788C340.359 158.14 340.233 157.558 339.981 157.042C339.729 156.526 339.375 156.124 338.919 155.836C338.475 155.548 337.965 155.404 337.389 155.404C336.825 155.404 336.321 155.548 335.877 155.836C335.433 156.124 335.085 156.526 334.833 157.042C334.581 157.546 334.455 158.122 334.455 158.77C334.455 159.43 334.581 160.018 334.833 160.534C335.085 161.05 335.433 161.452 335.877 161.74C336.321 162.028 336.825 162.172 337.389 162.172ZM209.31 178.288C210.114 178.288 210.834 178.48 211.47 178.864C212.106 179.248 212.604 179.782 212.964 180.466C213.324 181.15 213.504 181.93 213.504 182.806C213.504 183.67 213.324 184.444 212.964 185.128C212.616 185.8 212.124 186.328 211.488 186.712C210.864 187.096 210.15 187.288 209.346 187.288C208.734 187.288 208.17 187.156 207.654 186.892C207.15 186.616 206.724 186.232 206.376 185.74V190.6H205.152V178.576H206.376V179.818C206.724 179.338 207.15 178.966 207.654 178.702C208.158 178.426 208.71 178.288 209.31 178.288ZM209.346 186.172C209.91 186.172 210.414 186.028 210.858 185.74C211.302 185.452 211.65 185.056 211.902 184.552C212.154 184.036 212.28 183.454 212.28 182.806C212.28 182.146 212.154 181.558 211.902 181.042C211.65 180.526 211.302 180.124 210.858 179.836C210.414 179.548 209.91 179.404 209.346 179.404C208.77 179.404 208.254 179.548 207.798 179.836C207.354 180.124 207.006 180.526 206.754 181.042C206.502 181.558 206.376 182.14 206.376 182.788C206.376 183.436 206.502 184.018 206.754 184.534C207.006 185.05 207.354 185.452 207.798 185.74C208.254 186.028 208.77 186.172 209.346 186.172ZM219.364 178.288C219.652 178.288 219.928 178.33 220.192 178.414V179.53C219.94 179.41 219.664 179.35 219.364 179.35C218.848 179.35 218.368 179.494 217.924 179.782C217.48 180.07 217.12 180.49 216.844 181.042C216.58 181.582 216.448 182.224 216.448 182.968V187H215.224V178.576H216.448V180.268C216.772 179.644 217.18 179.158 217.672 178.81C218.176 178.462 218.74 178.288 219.364 178.288ZM224.82 187.288C224.016 187.288 223.296 187.096 222.66 186.712C222.024 186.328 221.526 185.794 221.166 185.11C220.806 184.414 220.626 183.634 220.626 182.77C220.626 181.906 220.8 181.138 221.148 180.466C221.508 179.782 222 179.248 222.624 178.864C223.26 178.48 223.98 178.288 224.784 178.288C225.588 178.288 226.308 178.48 226.944 178.864C227.58 179.248 228.078 179.782 228.438 180.466C228.798 181.15 228.978 181.924 228.978 182.788C228.978 183.652 228.798 184.426 228.438 185.11C228.09 185.794 227.598 186.328 226.962 186.712C226.338 187.096 225.624 187.288 224.82 187.288ZM224.784 186.172C225.36 186.172 225.87 186.028 226.314 185.74C226.77 185.452 227.124 185.05 227.376 184.534C227.628 184.018 227.754 183.436 227.754 182.788C227.754 182.14 227.628 181.558 227.376 181.042C227.124 180.526 226.77 180.124 226.314 179.836C225.87 179.548 225.36 179.404 224.784 179.404C224.22 179.404 223.716 179.548 223.272 179.836C222.828 180.124 222.48 180.526 222.228 181.042C221.976 181.546 221.85 182.122 221.85 182.77C221.85 183.43 221.976 184.018 222.228 184.534C222.48 185.05 222.828 185.452 223.272 185.74C223.716 186.028 224.22 186.172 224.784 186.172ZM238.54 173.932V187H237.316V185.758C236.968 186.238 236.542 186.616 236.038 186.892C235.534 187.156 234.982 187.288 234.382 187.288C233.578 187.288 232.858 187.096 232.222 186.712C231.586 186.328 231.088 185.794 230.728 185.11C230.368 184.426 230.188 183.646 230.188 182.77C230.188 181.906 230.362 181.138 230.71 180.466C231.07 179.782 231.562 179.248 232.186 178.864C232.822 178.48 233.542 178.288 234.346 178.288C234.958 178.288 235.516 178.426 236.02 178.702C236.536 178.966 236.968 179.344 237.316 179.836V173.932H238.54ZM234.346 186.172C234.922 186.172 235.432 186.028 235.876 185.74C236.332 185.452 236.686 185.05 236.938 184.534C237.19 184.018 237.316 183.436 237.316 182.788C237.316 182.14 237.19 181.558 236.938 181.042C236.686 180.526 236.332 180.124 235.876 179.836C235.432 179.548 234.922 179.404 234.346 179.404C233.782 179.404 233.278 179.548 232.834 179.836C232.39 180.124 232.042 180.526 231.79 181.042C231.538 181.546 231.412 182.122 231.412 182.77C231.412 183.43 231.538 184.018 231.79 184.534C232.042 185.05 232.39 185.452 232.834 185.74C233.278 186.028 233.782 186.172 234.346 186.172ZM248.198 178.576V187H246.974V185.596C246.686 186.136 246.302 186.556 245.822 186.856C245.354 187.144 244.808 187.288 244.184 187.288C243.596 187.288 243.05 187.168 242.546 186.928C242.054 186.688 241.658 186.334 241.358 185.866C241.07 185.398 240.926 184.846 240.926 184.21V178.576H242.15V183.67C242.15 185.338 242.894 186.172 244.382 186.172C245.246 186.172 245.894 185.866 246.326 185.254C246.758 184.642 246.974 183.82 246.974 182.788V178.576H248.198ZM254.122 187.288C253.306 187.288 252.58 187.096 251.944 186.712C251.308 186.328 250.81 185.794 250.45 185.11C250.09 184.426 249.91 183.652 249.91 182.788C249.91 181.924 250.084 181.15 250.432 180.466C250.792 179.782 251.29 179.248 251.926 178.864C252.562 178.48 253.282 178.288 254.086 178.288C254.77 178.288 255.364 178.438 255.868 178.738C256.384 179.026 256.852 179.44 257.272 179.98L256.372 180.682C255.784 179.83 255.022 179.404 254.086 179.404C253.522 179.404 253.012 179.548 252.556 179.836C252.112 180.124 251.764 180.526 251.512 181.042C251.26 181.558 251.134 182.14 251.134 182.788C251.134 183.436 251.26 184.018 251.512 184.534C251.764 185.05 252.112 185.452 252.556 185.74C253.012 186.028 253.522 186.172 254.086 186.172C254.662 186.172 255.136 186.076 255.508 185.884C255.88 185.68 256.216 185.386 256.516 185.002L257.47 185.668C257.074 186.16 256.582 186.556 255.994 186.856C255.418 187.144 254.794 187.288 254.122 187.288ZM259.496 187V179.692H258.056V178.576H259.496V175.786H260.72V178.576H262.664V179.692H260.72V187H259.496ZM275.841 173.932V187H274.617V185.758C274.269 186.238 273.843 186.616 273.339 186.892C272.835 187.156 272.283 187.288 271.683 187.288C270.879 187.288 270.159 187.096 269.523 186.712C268.887 186.328 268.389 185.794 268.029 185.11C267.669 184.426 267.489 183.646 267.489 182.77C267.489 181.906 267.663 181.138 268.011 180.466C268.371 179.782 268.863 179.248 269.487 178.864C270.123 178.48 270.843 178.288 271.647 178.288C272.259 178.288 272.817 178.426 273.321 178.702C273.837 178.966 274.269 179.344 274.617 179.836V173.932H275.841ZM271.647 186.172C272.223 186.172 272.733 186.028 273.177 185.74C273.633 185.452 273.987 185.05 274.239 184.534C274.491 184.018 274.617 183.436 274.617 182.788C274.617 182.14 274.491 181.558 274.239 181.042C273.987 180.526 273.633 180.124 273.177 179.836C272.733 179.548 272.223 179.404 271.647 179.404C271.083 179.404 270.579 179.548 270.135 179.836C269.691 180.124 269.343 180.526 269.091 181.042C268.839 181.546 268.713 182.122 268.713 182.77C268.713 183.43 268.839 184.018 269.091 184.534C269.343 185.05 269.691 185.452 270.135 185.74C270.579 186.028 271.083 186.172 271.647 186.172ZM281.737 178.288C282.493 178.288 283.177 178.474 283.789 178.846C284.401 179.218 284.881 179.728 285.229 180.376C285.577 181.012 285.751 181.726 285.751 182.518C285.751 182.746 285.745 182.92 285.733 183.04H278.803C278.851 183.904 279.133 184.642 279.649 185.254C280.165 185.866 280.867 186.172 281.755 186.172C282.475 186.172 283.069 186.04 283.537 185.776C284.017 185.5 284.401 185.122 284.689 184.642L285.661 185.29C285.265 185.914 284.743 186.406 284.095 186.766C283.447 187.114 282.679 187.288 281.791 187.288C280.975 187.288 280.249 187.096 279.613 186.712C278.977 186.328 278.479 185.794 278.119 185.11C277.759 184.426 277.579 183.652 277.579 182.788C277.579 181.924 277.753 181.15 278.101 180.466C278.461 179.782 278.953 179.248 279.577 178.864C280.213 178.48 280.933 178.288 281.737 178.288ZM284.527 182.032C284.407 181.156 284.113 180.502 283.645 180.07C283.177 179.626 282.541 179.404 281.737 179.404C280.957 179.404 280.315 179.656 279.811 180.16C279.319 180.652 279.007 181.276 278.875 182.032H284.527ZM290.528 187.288C289.712 187.288 288.992 187.114 288.368 186.766C287.756 186.418 287.288 185.926 286.964 185.29L288.062 184.75C288.506 185.698 289.376 186.172 290.672 186.172C291.296 186.172 291.812 186.058 292.22 185.83C292.628 185.602 292.832 185.248 292.832 184.768C292.832 184.276 292.664 183.91 292.328 183.67C292.004 183.43 291.428 183.274 290.6 183.202C289.448 183.106 288.62 182.848 288.116 182.428C287.624 182.008 287.378 181.45 287.378 180.754C287.378 179.974 287.66 179.368 288.224 178.936C288.788 178.504 289.562 178.288 290.546 178.288C292.214 178.288 293.348 178.948 293.948 180.268L292.85 180.808C292.646 180.328 292.346 179.974 291.95 179.746C291.566 179.518 291.068 179.404 290.456 179.404C289.832 179.404 289.352 179.518 289.016 179.746C288.692 179.974 288.53 180.298 288.53 180.718C288.53 181.114 288.704 181.438 289.052 181.69C289.412 181.93 290.024 182.086 290.888 182.158C291.956 182.254 292.748 182.518 293.264 182.95C293.792 183.37 294.056 183.928 294.056 184.624C294.056 185.188 293.894 185.674 293.57 186.082C293.246 186.478 292.814 186.778 292.274 186.982C291.734 187.186 291.152 187.288 290.528 187.288ZM296.573 187V178.576H297.797V187H296.573ZM297.185 176.938C296.909 176.938 296.675 176.842 296.483 176.65C296.303 176.458 296.213 176.224 296.213 175.948C296.213 175.684 296.303 175.462 296.483 175.282C296.675 175.09 296.909 174.994 297.185 174.994C297.449 174.994 297.677 175.09 297.869 175.282C298.061 175.462 298.157 175.69 298.157 175.966C298.157 176.23 298.061 176.458 297.869 176.65C297.677 176.842 297.449 176.938 297.185 176.938ZM308.554 178.576V186.676C308.554 187.432 308.398 188.104 308.086 188.692C307.774 189.292 307.336 189.76 306.772 190.096C306.208 190.432 305.566 190.6 304.846 190.6H301.354V189.484H304.846C305.578 189.484 306.172 189.22 306.628 188.692C307.096 188.164 307.33 187.492 307.33 186.676V185.758C306.982 186.238 306.556 186.616 306.052 186.892C305.548 187.156 304.996 187.288 304.396 187.288C303.592 187.288 302.872 187.096 302.236 186.712C301.6 186.328 301.102 185.794 300.742 185.11C300.382 184.426 300.202 183.646 300.202 182.77C300.202 181.906 300.376 181.138 300.724 180.466C301.084 179.782 301.576 179.248 302.2 178.864C302.836 178.48 303.556 178.288 304.36 178.288C304.972 178.288 305.53 178.426 306.034 178.702C306.55 178.966 306.982 179.344 307.33 179.836V178.576H308.554ZM304.36 186.172C304.936 186.172 305.446 186.028 305.89 185.74C306.346 185.452 306.7 185.05 306.952 184.534C307.204 184.018 307.33 183.436 307.33 182.788C307.33 182.14 307.204 181.558 306.952 181.042C306.7 180.526 306.346 180.124 305.89 179.836C305.446 179.548 304.936 179.404 304.36 179.404C303.796 179.404 303.292 179.548 302.848 179.836C302.404 180.124 302.056 180.526 301.804 181.042C301.552 181.546 301.426 182.122 301.426 182.77C301.426 183.43 301.552 184.018 301.804 184.534C302.056 185.05 302.404 185.452 302.848 185.74C303.292 186.028 303.796 186.172 304.36 186.172ZM314.828 178.288C315.416 178.288 315.956 178.408 316.448 178.648C316.952 178.888 317.348 179.242 317.636 179.71C317.936 180.178 318.086 180.73 318.086 181.366V187H316.862V181.906C316.862 180.238 316.118 179.404 314.63 179.404C313.766 179.404 313.118 179.71 312.686 180.322C312.254 180.934 312.038 181.756 312.038 182.788V187H310.814V178.576H312.038V179.98C312.326 179.44 312.704 179.026 313.172 178.738C313.652 178.438 314.204 178.288 314.828 178.288ZM324.118 178.288C324.874 178.288 325.558 178.474 326.17 178.846C326.782 179.218 327.262 179.728 327.61 180.376C327.958 181.012 328.132 181.726 328.132 182.518C328.132 182.746 328.126 182.92 328.114 183.04H321.184C321.232 183.904 321.514 184.642 322.03 185.254C322.546 185.866 323.248 186.172 324.136 186.172C324.856 186.172 325.45 186.04 325.918 185.776C326.398 185.5 326.782 185.122 327.07 184.642L328.042 185.29C327.646 185.914 327.124 186.406 326.476 186.766C325.828 187.114 325.06 187.288 324.172 187.288C323.356 187.288 322.63 187.096 321.994 186.712C321.358 186.328 320.86 185.794 320.5 185.11C320.14 184.426 319.96 183.652 319.96 182.788C319.96 181.924 320.134 181.15 320.482 180.466C320.842 179.782 321.334 179.248 321.958 178.864C322.594 178.48 323.314 178.288 324.118 178.288ZM326.908 182.032C326.788 181.156 326.494 180.502 326.026 180.07C325.558 179.626 324.922 179.404 324.118 179.404C323.338 179.404 322.696 179.656 322.192 180.16C321.7 180.652 321.388 181.276 321.256 182.032H326.908ZM337.769 173.932V187H336.545V185.758C336.197 186.238 335.771 186.616 335.267 186.892C334.763 187.156 334.211 187.288 333.611 187.288C332.807 187.288 332.087 187.096 331.451 186.712C330.815 186.328 330.317 185.794 329.957 185.11C329.597 184.426 329.417 183.646 329.417 182.77C329.417 181.906 329.591 181.138 329.939 180.466C330.299 179.782 330.791 179.248 331.415 178.864C332.051 178.48 332.771 178.288 333.575 178.288C334.187 178.288 334.745 178.426 335.249 178.702C335.765 178.966 336.197 179.344 336.545 179.836V173.932H337.769ZM333.575 186.172C334.151 186.172 334.661 186.028 335.105 185.74C335.561 185.452 335.915 185.05 336.167 184.534C336.419 184.018 336.545 183.436 336.545 182.788C336.545 182.14 336.419 181.558 336.167 181.042C335.915 180.526 335.561 180.124 335.105 179.836C334.661 179.548 334.151 179.404 333.575 179.404C333.011 179.404 332.507 179.548 332.063 179.836C331.619 180.124 331.271 180.526 331.019 181.042C330.767 181.546 330.641 182.122 330.641 182.77C330.641 183.43 330.767 184.018 331.019 184.534C331.271 185.05 331.619 185.452 332.063 185.74C332.507 186.028 333.011 186.172 333.575 186.172ZM208.248 198.742C207.828 198.742 207.48 198.886 207.204 199.174C206.94 199.462 206.808 199.834 206.808 200.29V202.576H208.752V203.692H206.808V211H205.584V203.692H204.504V202.576H205.584V200.29C205.584 199.51 205.83 198.874 206.322 198.382C206.826 197.878 207.468 197.626 208.248 197.626H208.752V198.742H208.248ZM213.763 211.288C212.959 211.288 212.239 211.096 211.603 210.712C210.967 210.328 210.469 209.794 210.109 209.11C209.749 208.414 209.569 207.634 209.569 206.77C209.569 205.906 209.743 205.138 210.091 204.466C210.451 203.782 210.943 203.248 211.567 202.864C212.203 202.48 212.923 202.288 213.727 202.288C214.531 202.288 215.251 202.48 215.887 202.864C216.523 203.248 217.021 203.782 217.381 204.466C217.741 205.15 217.921 205.924 217.921 206.788C217.921 207.652 217.741 208.426 217.381 209.11C217.033 209.794 216.541 210.328 215.905 210.712C215.281 211.096 214.567 211.288 213.763 211.288ZM213.727 210.172C214.303 210.172 214.813 210.028 215.257 209.74C215.713 209.452 216.067 209.05 216.319 208.534C216.571 208.018 216.697 207.436 216.697 206.788C216.697 206.14 216.571 205.558 216.319 205.042C216.067 204.526 215.713 204.124 215.257 203.836C214.813 203.548 214.303 203.404 213.727 203.404C213.163 203.404 212.659 203.548 212.215 203.836C211.771 204.124 211.423 204.526 211.171 205.042C210.919 205.546 210.793 206.122 210.793 206.77C210.793 207.43 210.919 208.018 211.171 208.534C211.423 209.05 211.771 209.452 212.215 209.74C212.659 210.028 213.163 210.172 213.727 210.172ZM223.794 202.288C224.082 202.288 224.358 202.33 224.622 202.414V203.53C224.37 203.41 224.094 203.35 223.794 203.35C223.278 203.35 222.798 203.494 222.354 203.782C221.91 204.07 221.55 204.49 221.274 205.042C221.01 205.582 220.878 206.224 220.878 206.968V211H219.654V202.576H220.878V204.268C221.202 203.644 221.61 203.158 222.102 202.81C222.606 202.462 223.17 202.288 223.794 202.288ZM234.219 211V203.692H232.779V202.576H234.219V199.786H235.443V202.576H237.387V203.692H235.443V211H234.219ZM242.74 202.288C243.328 202.288 243.868 202.408 244.36 202.648C244.864 202.888 245.26 203.242 245.548 203.71C245.848 204.178 245.998 204.73 245.998 205.366V211H244.774V205.906C244.774 204.238 244.03 203.404 242.542 203.404C241.678 203.404 241.03 203.71 240.598 204.322C240.166 204.934 239.95 205.756 239.95 206.788V211H238.726V197.932H239.95V203.98C240.238 203.44 240.616 203.026 241.084 202.738C241.564 202.438 242.116 202.288 242.74 202.288ZM251.977 202.288C252.733 202.288 253.417 202.474 254.029 202.846C254.641 203.218 255.121 203.728 255.469 204.376C255.817 205.012 255.991 205.726 255.991 206.518C255.991 206.746 255.985 206.92 255.973 207.04H249.043C249.091 207.904 249.373 208.642 249.889 209.254C250.405 209.866 251.107 210.172 251.995 210.172C252.715 210.172 253.309 210.04 253.777 209.776C254.257 209.5 254.641 209.122 254.929 208.642L255.901 209.29C255.505 209.914 254.983 210.406 254.335 210.766C253.687 211.114 252.919 211.288 252.031 211.288C251.215 211.288 250.489 211.096 249.853 210.712C249.217 210.328 248.719 209.794 248.359 209.11C247.999 208.426 247.819 207.652 247.819 206.788C247.819 205.924 247.993 205.15 248.341 204.466C248.701 203.782 249.193 203.248 249.817 202.864C250.453 202.48 251.173 202.288 251.977 202.288ZM254.767 206.032C254.647 205.156 254.353 204.502 253.885 204.07C253.417 203.626 252.781 203.404 251.977 203.404C251.197 203.404 250.555 203.656 250.051 204.16C249.559 204.652 249.247 205.276 249.115 206.032H254.767ZM261.938 202.288C262.226 202.288 262.502 202.33 262.766 202.414V203.53C262.514 203.41 262.238 203.35 261.938 203.35C261.422 203.35 260.942 203.494 260.498 203.782C260.054 204.07 259.694 204.49 259.418 205.042C259.154 205.582 259.022 206.224 259.022 206.968V211H257.798V202.576H259.022V204.268C259.346 203.644 259.754 203.158 260.246 202.81C260.75 202.462 261.314 202.288 261.938 202.288ZM271.728 202.576V211H270.504V209.758C270.156 210.238 269.73 210.616 269.226 210.892C268.722 211.156 268.17 211.288 267.57 211.288C266.766 211.288 266.046 211.096 265.41 210.712C264.774 210.328 264.276 209.794 263.916 209.11C263.556 208.426 263.376 207.646 263.376 206.77C263.376 205.906 263.55 205.138 263.898 204.466C264.258 203.782 264.75 203.248 265.374 202.864C266.01 202.48 266.73 202.288 267.534 202.288C268.146 202.288 268.704 202.426 269.208 202.702C269.724 202.966 270.156 203.344 270.504 203.836V202.576H271.728ZM267.534 210.172C268.11 210.172 268.62 210.028 269.064 209.74C269.52 209.452 269.874 209.05 270.126 208.534C270.378 208.018 270.504 207.436 270.504 206.788C270.504 206.14 270.378 205.558 270.126 205.042C269.874 204.526 269.52 204.124 269.064 203.836C268.62 203.548 268.11 203.404 267.534 203.404C266.97 203.404 266.466 203.548 266.022 203.836C265.578 204.124 265.23 204.526 264.978 205.042C264.726 205.546 264.6 206.122 264.6 206.77C264.6 207.43 264.726 208.018 264.978 208.534C265.23 209.05 265.578 209.452 266.022 209.74C266.466 210.028 266.97 210.172 267.534 210.172ZM278.164 202.288C278.968 202.288 279.688 202.48 280.324 202.864C280.96 203.248 281.458 203.782 281.818 204.466C282.178 205.15 282.358 205.93 282.358 206.806C282.358 207.67 282.178 208.444 281.818 209.128C281.47 209.8 280.978 210.328 280.342 210.712C279.718 211.096 279.004 211.288 278.2 211.288C277.588 211.288 277.024 211.156 276.508 210.892C276.004 210.616 275.578 210.232 275.23 209.74V214.6H274.006V202.576H275.23V203.818C275.578 203.338 276.004 202.966 276.508 202.702C277.012 202.426 277.564 202.288 278.164 202.288ZM278.2 210.172C278.764 210.172 279.268 210.028 279.712 209.74C280.156 209.452 280.504 209.056 280.756 208.552C281.008 208.036 281.134 207.454 281.134 206.806C281.134 206.146 281.008 205.558 280.756 205.042C280.504 204.526 280.156 204.124 279.712 203.836C279.268 203.548 278.764 203.404 278.2 203.404C277.624 203.404 277.108 203.548 276.652 203.836C276.208 204.124 275.86 204.526 275.608 205.042C275.356 205.558 275.23 206.14 275.23 206.788C275.23 207.436 275.356 208.018 275.608 208.534C275.86 209.05 276.208 209.452 276.652 209.74C277.108 210.028 277.624 210.172 278.2 210.172ZM284.743 211V202.576H285.967V211H284.743ZM285.355 200.938C285.079 200.938 284.845 200.842 284.653 200.65C284.473 200.458 284.383 200.224 284.383 199.948C284.383 199.684 284.473 199.462 284.653 199.282C284.845 199.09 285.079 198.994 285.355 198.994C285.619 198.994 285.847 199.09 286.039 199.282C286.231 199.462 286.327 199.69 286.327 199.966C286.327 200.23 286.231 200.458 286.039 200.65C285.847 200.842 285.619 200.938 285.355 200.938ZM291.864 211.288C291.048 211.288 290.328 211.114 289.704 210.766C289.092 210.418 288.624 209.926 288.3 209.29L289.398 208.75C289.842 209.698 290.712 210.172 292.008 210.172C292.632 210.172 293.148 210.058 293.556 209.83C293.964 209.602 294.168 209.248 294.168 208.768C294.168 208.276 294 207.91 293.664 207.67C293.34 207.43 292.764 207.274 291.936 207.202C290.784 207.106 289.956 206.848 289.452 206.428C288.96 206.008 288.714 205.45 288.714 204.754C288.714 203.974 288.996 203.368 289.56 202.936C290.124 202.504 290.898 202.288 291.882 202.288C293.55 202.288 294.684 202.948 295.284 204.268L294.186 204.808C293.982 204.328 293.682 203.974 293.286 203.746C292.902 203.518 292.404 203.404 291.792 203.404C291.168 203.404 290.688 203.518 290.352 203.746C290.028 203.974 289.866 204.298 289.866 204.718C289.866 205.114 290.04 205.438 290.388 205.69C290.748 205.93 291.36 206.086 292.224 206.158C293.292 206.254 294.084 206.518 294.6 206.95C295.128 207.37 295.392 207.928 295.392 208.624C295.392 209.188 295.23 209.674 294.906 210.082C294.582 210.478 294.15 210.778 293.61 210.982C293.07 211.186 292.488 211.288 291.864 211.288ZM297.693 211V203.692H296.253V202.576H297.693V199.786H298.917V202.576H300.861V203.692H298.917V211H297.693Z" fill="#3B3B3B"/>
</svg>
