<svg width="772" height="217" viewBox="0 0 772 217" fill="none" xmlns="http://www.w3.org/2000/svg">
<path d="M8.33 157.85C10.0333 157.85 11.4917 158.153 12.705 158.76C13.9417 159.367 14.875 160.183 15.505 161.21C16.1583 162.237 16.485 163.368 16.485 164.605C16.485 165.865 16.2283 167.067 15.715 168.21C15.2017 169.353 14.2917 170.672 12.985 172.165C11.6783 173.635 9.77667 175.502 7.28 177.765H16.975L16.415 182H1.015V178.08C3.885 175.257 5.97333 173.133 7.28 171.71C8.58667 170.263 9.49667 169.062 10.01 168.105C10.5467 167.148 10.815 166.168 10.815 165.165C10.815 164.208 10.535 163.462 9.975 162.925C9.43833 162.365 8.70333 162.085 7.77 162.085C6.93 162.085 6.18333 162.283 5.53 162.68C4.87667 163.053 4.18833 163.672 3.465 164.535L0.21 161.945C1.19 160.662 2.35667 159.658 3.71 158.935C5.08667 158.212 6.62667 157.85 8.33 157.85ZM33.9711 162.295H25.3961V167.265C26.4927 166.752 27.6594 166.495 28.8961 166.495C30.2027 166.495 31.3694 166.798 32.3961 167.405C33.4227 168.012 34.2277 168.898 34.8111 170.065C35.3944 171.232 35.6861 172.608 35.6861 174.195C35.6861 175.852 35.3011 177.322 34.5311 178.605C33.7844 179.865 32.6994 180.845 31.2761 181.545C29.8761 182.245 28.2544 182.595 26.4111 182.595C23.2144 182.595 20.5894 181.405 18.5361 179.025L21.6161 176.155C22.8994 177.672 24.4277 178.43 26.2011 178.43C27.4144 178.43 28.3477 178.068 29.0011 177.345C29.6777 176.622 30.0161 175.583 30.0161 174.23C30.0161 171.593 28.9077 170.275 26.6911 170.275C26.2244 170.275 25.7694 170.345 25.3261 170.485C24.8827 170.602 24.3927 170.812 23.8561 171.115H20.1111V158.34H34.6011L33.9711 162.295ZM57.6521 156.8L61.0471 158.97L44.8421 183.4L41.4471 181.23L57.6521 156.8ZM43.4071 157.85C44.5738 157.85 45.6238 158.107 46.5571 158.62C47.5138 159.133 48.2604 159.868 48.7971 160.825C49.3571 161.782 49.6371 162.89 49.6371 164.15C49.6371 165.41 49.3571 166.518 48.7971 167.475C48.2604 168.432 47.5138 169.167 46.5571 169.68C45.6238 170.193 44.5738 170.45 43.4071 170.45C42.2404 170.45 41.1788 170.193 40.2221 169.68C39.2888 169.143 38.5421 168.408 37.9821 167.475C37.4454 166.518 37.1771 165.41 37.1771 164.15C37.1771 162.89 37.4454 161.793 37.9821 160.86C38.5421 159.903 39.2888 159.168 40.2221 158.655C41.1788 158.118 42.2404 157.85 43.4071 157.85ZM43.4071 161.175C41.8904 161.175 41.1321 162.167 41.1321 164.15C41.1321 165.013 41.2954 165.725 41.6221 166.285C41.9721 166.845 42.5671 167.125 43.4071 167.125C44.9004 167.125 45.6471 166.133 45.6471 164.15C45.6471 162.167 44.9004 161.175 43.4071 161.175ZM58.9821 170.03C60.1488 170.03 61.1988 170.287 62.1321 170.8C63.0888 171.313 63.8354 172.048 64.3721 173.005C64.9321 173.938 65.2121 175.035 65.2121 176.295C65.2121 177.555 64.9321 178.663 64.3721 179.62C63.8354 180.577 63.0888 181.312 62.1321 181.825C61.1988 182.338 60.1488 182.595 58.9821 182.595C57.8154 182.595 56.7538 182.338 55.7971 181.825C54.8404 181.312 54.0821 180.577 53.5221 179.62C52.9854 178.663 52.7171 177.555 52.7171 176.295C52.7171 175.035 52.9854 173.938 53.5221 173.005C54.0821 172.048 54.8404 171.313 55.7971 170.8C56.7538 170.287 57.8154 170.03 58.9821 170.03ZM58.9821 173.355C57.4654 173.355 56.7071 174.335 56.7071 176.295C56.7071 177.158 56.8704 177.882 57.1971 178.465C57.5471 179.025 58.1421 179.305 58.9821 179.305C60.4754 179.305 61.2221 178.302 61.2221 176.295C61.2221 174.335 60.4754 173.355 58.9821 173.355ZM80.4199 182.352C79.4372 182.352 78.5572 182.117 77.7799 181.648C77.0026 181.179 76.3939 180.526 75.9539 179.69C75.5139 178.839 75.2939 177.886 75.2939 176.83C75.2939 175.774 75.5066 174.835 75.9319 174.014C76.3719 173.178 76.9732 172.525 77.7359 172.056C78.5132 171.587 79.3932 171.352 80.3759 171.352C81.3586 171.352 82.2386 171.587 83.0159 172.056C83.7932 172.525 84.4019 173.178 84.8419 174.014C85.2819 174.85 85.5019 175.796 85.5019 176.852C85.5019 177.908 85.2819 178.854 84.8419 179.69C84.4166 180.526 83.8152 181.179 83.0379 181.648C82.2752 182.117 81.4026 182.352 80.4199 182.352ZM80.3759 180.988C81.0799 180.988 81.7032 180.812 82.2459 180.46C82.8032 180.108 83.2359 179.617 83.5439 178.986C83.8519 178.355 84.0059 177.644 84.0059 176.852C84.0059 176.06 83.8519 175.349 83.5439 174.718C83.2359 174.087 82.8032 173.596 82.2459 173.244C81.7032 172.892 81.0799 172.716 80.3759 172.716C79.6866 172.716 79.0706 172.892 78.5279 173.244C77.9852 173.596 77.5599 174.087 77.2519 174.718C76.9439 175.334 76.7899 176.038 76.7899 176.83C76.7899 177.637 76.9439 178.355 77.2519 178.986C77.5599 179.617 77.9852 180.108 78.5279 180.46C79.0706 180.812 79.6866 180.988 80.3759 180.988ZM91.4254 167.018C90.9121 167.018 90.4867 167.194 90.1494 167.546C89.8267 167.898 89.6654 168.353 89.6654 168.91V171.704H92.0414V173.068H89.6654V182H88.1694V173.068H86.8494V171.704H88.1694V168.91C88.1694 167.957 88.4701 167.179 89.0714 166.578C89.6874 165.962 90.4721 165.654 91.4254 165.654H92.0414V167.018H91.4254ZM99.1264 182V173.068H97.3664V171.704H99.1264V168.294H100.622V171.704H102.998V173.068H100.622V182H99.1264ZM109.541 171.352C110.26 171.352 110.92 171.499 111.521 171.792C112.137 172.085 112.621 172.518 112.973 173.09C113.34 173.662 113.523 174.337 113.523 175.114V182H112.027V175.774C112.027 173.735 111.118 172.716 109.299 172.716C108.243 172.716 107.451 173.09 106.923 173.838C106.395 174.586 106.131 175.591 106.131 176.852V182H104.635V166.028H106.131V173.42C106.483 172.76 106.945 172.254 107.517 171.902C108.104 171.535 108.778 171.352 109.541 171.352ZM120.831 171.352C121.755 171.352 122.591 171.579 123.339 172.034C124.087 172.489 124.674 173.112 125.099 173.904C125.524 174.681 125.737 175.554 125.737 176.522C125.737 176.801 125.73 177.013 125.715 177.16H117.245C117.304 178.216 117.648 179.118 118.279 179.866C118.91 180.614 119.768 180.988 120.853 180.988C121.733 180.988 122.459 180.827 123.031 180.504C123.618 180.167 124.087 179.705 124.439 179.118L125.627 179.91C125.143 180.673 124.505 181.274 123.713 181.714C122.921 182.139 121.982 182.352 120.897 182.352C119.9 182.352 119.012 182.117 118.235 181.648C117.458 181.179 116.849 180.526 116.409 179.69C115.969 178.854 115.749 177.908 115.749 176.852C115.749 175.796 115.962 174.85 116.387 174.014C116.827 173.178 117.428 172.525 118.191 172.056C118.968 171.587 119.848 171.352 120.831 171.352ZM124.241 175.928C124.094 174.857 123.735 174.058 123.163 173.53C122.591 172.987 121.814 172.716 120.831 172.716C119.878 172.716 119.093 173.024 118.477 173.64C117.876 174.241 117.494 175.004 117.333 175.928H124.241ZM133.006 171.352C133.358 171.352 133.695 171.403 134.018 171.506V172.87C133.71 172.723 133.372 172.65 133.006 172.65C132.375 172.65 131.788 172.826 131.246 173.178C130.703 173.53 130.263 174.043 129.926 174.718C129.603 175.378 129.442 176.163 129.442 177.072V182H127.946V171.704H129.442V173.772C129.838 173.009 130.336 172.415 130.938 171.99C131.554 171.565 132.243 171.352 133.006 171.352ZM144.971 171.704V182H143.475V180.482C143.049 181.069 142.529 181.531 141.913 181.868C141.297 182.191 140.622 182.352 139.889 182.352C138.906 182.352 138.026 182.117 137.249 181.648C136.471 181.179 135.863 180.526 135.423 179.69C134.983 178.854 134.763 177.901 134.763 176.83C134.763 175.774 134.975 174.835 135.401 174.014C135.841 173.178 136.442 172.525 137.205 172.056C137.982 171.587 138.862 171.352 139.845 171.352C140.593 171.352 141.275 171.521 141.891 171.858C142.521 172.181 143.049 172.643 143.475 173.244V171.704H144.971ZM139.845 180.988C140.549 180.988 141.172 180.812 141.715 180.46C142.272 180.108 142.705 179.617 143.013 178.986C143.321 178.355 143.475 177.644 143.475 176.852C143.475 176.06 143.321 175.349 143.013 174.718C142.705 174.087 142.272 173.596 141.715 173.244C141.172 172.892 140.549 172.716 139.845 172.716C139.155 172.716 138.539 172.892 137.997 173.244C137.454 173.596 137.029 174.087 136.721 174.718C136.413 175.334 136.259 176.038 136.259 176.83C136.259 177.637 136.413 178.355 136.721 178.986C137.029 179.617 137.454 180.108 137.997 180.46C138.539 180.812 139.155 180.988 139.845 180.988ZM152.837 171.352C153.819 171.352 154.699 171.587 155.477 172.056C156.254 172.525 156.863 173.178 157.303 174.014C157.743 174.85 157.963 175.803 157.963 176.874C157.963 177.93 157.743 178.876 157.303 179.712C156.877 180.533 156.276 181.179 155.499 181.648C154.736 182.117 153.863 182.352 152.881 182.352C152.133 182.352 151.443 182.191 150.813 181.868C150.197 181.531 149.676 181.061 149.251 180.46V186.4H147.755V171.704H149.251V173.222C149.676 172.635 150.197 172.181 150.813 171.858C151.429 171.521 152.103 171.352 152.837 171.352ZM152.881 180.988C153.57 180.988 154.186 180.812 154.729 180.46C155.271 180.108 155.697 179.624 156.005 179.008C156.313 178.377 156.467 177.666 156.467 176.874C156.467 176.067 156.313 175.349 156.005 174.718C155.697 174.087 155.271 173.596 154.729 173.244C154.186 172.892 153.57 172.716 152.881 172.716C152.177 172.716 151.546 172.892 150.989 173.244C150.446 173.596 150.021 174.087 149.713 174.718C149.405 175.349 149.251 176.06 149.251 176.852C149.251 177.644 149.405 178.355 149.713 178.986C150.021 179.617 150.446 180.108 150.989 180.46C151.546 180.812 152.177 180.988 152.881 180.988ZM160.879 182V171.704H162.375V182H160.879ZM161.627 169.702C161.289 169.702 161.003 169.585 160.769 169.35C160.549 169.115 160.439 168.829 160.439 168.492C160.439 168.169 160.549 167.898 160.769 167.678C161.003 167.443 161.289 167.326 161.627 167.326C161.949 167.326 162.228 167.443 162.463 167.678C162.697 167.898 162.815 168.177 162.815 168.514C162.815 168.837 162.697 169.115 162.463 169.35C162.228 169.585 161.949 169.702 161.627 169.702ZM169.581 182.352C168.584 182.352 167.704 182.139 166.941 181.714C166.193 181.289 165.621 180.687 165.225 179.91L166.567 179.25C167.11 180.409 168.173 180.988 169.757 180.988C170.52 180.988 171.151 180.849 171.649 180.57C172.148 180.291 172.397 179.859 172.397 179.272C172.397 178.671 172.192 178.223 171.781 177.93C171.385 177.637 170.681 177.446 169.669 177.358C168.261 177.241 167.249 176.925 166.633 176.412C166.032 175.899 165.731 175.217 165.731 174.366C165.731 173.413 166.076 172.672 166.765 172.144C167.455 171.616 168.401 171.352 169.603 171.352C171.642 171.352 173.028 172.159 173.761 173.772L172.419 174.432C172.17 173.845 171.803 173.413 171.319 173.134C170.85 172.855 170.241 172.716 169.493 172.716C168.731 172.716 168.144 172.855 167.733 173.134C167.337 173.413 167.139 173.809 167.139 174.322C167.139 174.806 167.352 175.202 167.777 175.51C168.217 175.803 168.965 175.994 170.021 176.082C171.327 176.199 172.295 176.522 172.925 177.05C173.571 177.563 173.893 178.245 173.893 179.096C173.893 179.785 173.695 180.379 173.299 180.878C172.903 181.362 172.375 181.729 171.715 181.978C171.055 182.227 170.344 182.352 169.581 182.352ZM176.707 182V173.068H174.947V171.704H176.707V168.294H178.203V171.704H180.579V173.068H178.203V182H176.707ZM185.845 182.352C184.848 182.352 183.968 182.139 183.205 181.714C182.457 181.289 181.885 180.687 181.489 179.91L182.831 179.25C183.374 180.409 184.437 180.988 186.021 180.988C186.784 180.988 187.414 180.849 187.913 180.57C188.412 180.291 188.661 179.859 188.661 179.272C188.661 178.671 188.456 178.223 188.045 177.93C187.649 177.637 186.945 177.446 185.933 177.358C184.525 177.241 183.513 176.925 182.897 176.412C182.296 175.899 181.995 175.217 181.995 174.366C181.995 173.413 182.34 172.672 183.029 172.144C183.718 171.616 184.664 171.352 185.867 171.352C187.906 171.352 189.292 172.159 190.025 173.772L188.683 174.432C188.434 173.845 188.067 173.413 187.583 173.134C187.114 172.855 186.505 172.716 185.757 172.716C184.994 172.716 184.408 172.855 183.997 173.134C183.601 173.413 183.403 173.809 183.403 174.322C183.403 174.806 183.616 175.202 184.041 175.51C184.481 175.803 185.229 175.994 186.285 176.082C187.59 176.199 188.558 176.522 189.189 177.05C189.834 177.563 190.157 178.245 190.157 179.096C190.157 179.785 189.959 180.379 189.563 180.878C189.167 181.362 188.639 181.729 187.979 181.978C187.319 182.227 186.608 182.352 185.845 182.352ZM201.785 182.352C200.787 182.352 199.9 182.117 199.123 181.648C198.345 181.179 197.737 180.526 197.297 179.69C196.857 178.854 196.637 177.908 196.637 176.852C196.637 175.796 196.849 174.85 197.275 174.014C197.715 173.178 198.323 172.525 199.101 172.056C199.878 171.587 200.758 171.352 201.741 171.352C202.577 171.352 203.303 171.535 203.919 171.902C204.549 172.254 205.121 172.76 205.635 173.42L204.535 174.278C203.816 173.237 202.885 172.716 201.741 172.716C201.051 172.716 200.428 172.892 199.871 173.244C199.328 173.596 198.903 174.087 198.595 174.718C198.287 175.349 198.133 176.06 198.133 176.852C198.133 177.644 198.287 178.355 198.595 178.986C198.903 179.617 199.328 180.108 199.871 180.46C200.428 180.812 201.051 180.988 201.741 180.988C202.445 180.988 203.024 180.871 203.479 180.636C203.933 180.387 204.344 180.027 204.711 179.558L205.877 180.372C205.393 180.973 204.791 181.457 204.073 181.824C203.369 182.176 202.606 182.352 201.785 182.352ZM216.845 171.704V182H215.349V180.284C214.997 180.944 214.528 181.457 213.941 181.824C213.369 182.176 212.702 182.352 211.939 182.352C211.22 182.352 210.553 182.205 209.937 181.912C209.336 181.619 208.852 181.186 208.485 180.614C208.133 180.042 207.957 179.367 207.957 178.59V171.704H209.453V177.93C209.453 179.969 210.362 180.988 212.181 180.988C213.237 180.988 214.029 180.614 214.557 179.866C215.085 179.118 215.349 178.113 215.349 176.852V171.704H216.845ZM224.679 171.352C225.031 171.352 225.369 171.403 225.691 171.506V172.87C225.383 172.723 225.046 172.65 224.679 172.65C224.049 172.65 223.462 172.826 222.919 173.178C222.377 173.53 221.937 174.043 221.599 174.718C221.277 175.378 221.115 176.163 221.115 177.072V182H219.619V171.704H221.115V173.772C221.511 173.009 222.01 172.415 222.611 171.99C223.227 171.565 223.917 171.352 224.679 171.352ZM232.134 171.352C232.486 171.352 232.824 171.403 233.146 171.506V172.87C232.838 172.723 232.501 172.65 232.134 172.65C231.504 172.65 230.917 172.826 230.374 173.178C229.832 173.53 229.392 174.043 229.054 174.718C228.732 175.378 228.57 176.163 228.57 177.072V182H227.074V171.704H228.57V173.772C228.966 173.009 229.465 172.415 230.066 171.99C230.682 171.565 231.372 171.352 232.134 171.352ZM238.759 171.352C239.683 171.352 240.519 171.579 241.267 172.034C242.015 172.489 242.601 173.112 243.027 173.904C243.452 174.681 243.665 175.554 243.665 176.522C243.665 176.801 243.657 177.013 243.643 177.16H235.173C235.231 178.216 235.576 179.118 236.207 179.866C236.837 180.614 237.695 180.988 238.781 180.988C239.661 180.988 240.387 180.827 240.959 180.504C241.545 180.167 242.015 179.705 242.367 179.118L243.555 179.91C243.071 180.673 242.433 181.274 241.641 181.714C240.849 182.139 239.91 182.352 238.825 182.352C237.827 182.352 236.94 182.117 236.163 181.648C235.385 181.179 234.777 180.526 234.337 179.69C233.897 178.854 233.677 177.908 233.677 176.852C233.677 175.796 233.889 174.85 234.315 174.014C234.755 173.178 235.356 172.525 236.119 172.056C236.896 171.587 237.776 171.352 238.759 171.352ZM242.169 175.928C242.022 174.857 241.663 174.058 241.091 173.53C240.519 172.987 239.741 172.716 238.759 172.716C237.805 172.716 237.021 173.024 236.405 173.64C235.803 174.241 235.422 175.004 235.261 175.928H242.169ZM250.779 171.352C251.498 171.352 252.158 171.499 252.759 171.792C253.375 172.085 253.859 172.518 254.211 173.09C254.578 173.662 254.761 174.337 254.761 175.114V182H253.265V175.774C253.265 173.735 252.356 172.716 250.537 172.716C249.481 172.716 248.689 173.09 248.161 173.838C247.633 174.586 247.369 175.591 247.369 176.852V182H245.873V171.704H247.369V173.42C247.721 172.76 248.183 172.254 248.755 171.902C249.342 171.535 250.017 171.352 250.779 171.352ZM258.24 182V173.068H256.48V171.704H258.24V168.294H259.736V171.704H262.112V173.068H259.736V182H258.24ZM263.858 182V166.028H265.354V182H263.858ZM275.301 171.704H276.709L271.143 186.4H269.647L271.275 182.198L267.051 171.704H268.613L272.023 180.24L275.301 171.704ZM292.04 171.704V182H290.544V180.284C290.192 180.944 289.723 181.457 289.136 181.824C288.564 182.176 287.897 182.352 287.134 182.352C286.416 182.352 285.748 182.205 285.132 181.912C284.531 181.619 284.047 181.186 283.68 180.614C283.328 180.042 283.152 179.367 283.152 178.59V171.704H284.648V177.93C284.648 179.969 285.558 180.988 287.376 180.988C288.432 180.988 289.224 180.614 289.752 179.866C290.28 179.118 290.544 178.113 290.544 176.852V171.704H292.04ZM298.445 182.352C297.447 182.352 296.567 182.139 295.805 181.714C295.057 181.289 294.485 180.687 294.089 179.91L295.431 179.25C295.973 180.409 297.037 180.988 298.621 180.988C299.383 180.988 300.014 180.849 300.513 180.57C301.011 180.291 301.261 179.859 301.261 179.272C301.261 178.671 301.055 178.223 300.645 177.93C300.249 177.637 299.545 177.446 298.533 177.358C297.125 177.241 296.113 176.925 295.497 176.412C294.895 175.899 294.595 175.217 294.595 174.366C294.595 173.413 294.939 172.672 295.629 172.144C296.318 171.616 297.264 171.352 298.467 171.352C300.505 171.352 301.891 172.159 302.625 173.772L301.283 174.432C301.033 173.845 300.667 173.413 300.183 173.134C299.713 172.855 299.105 172.716 298.357 172.716C297.594 172.716 297.007 172.855 296.597 173.134C296.201 173.413 296.003 173.809 296.003 174.322C296.003 174.806 296.215 175.202 296.641 175.51C297.081 175.803 297.829 175.994 298.885 176.082C300.19 176.199 301.158 176.522 301.789 177.05C302.434 177.563 302.757 178.245 302.757 179.096C302.757 179.785 302.559 180.379 302.163 180.878C301.767 181.362 301.239 181.729 300.579 181.978C299.919 182.227 299.207 182.352 298.445 182.352ZM309.464 171.352C310.388 171.352 311.224 171.579 311.972 172.034C312.72 172.489 313.306 173.112 313.732 173.904C314.157 174.681 314.37 175.554 314.37 176.522C314.37 176.801 314.362 177.013 314.348 177.16H305.878C305.936 178.216 306.281 179.118 306.912 179.866C307.542 180.614 308.4 180.988 309.486 180.988C310.366 180.988 311.092 180.827 311.664 180.504C312.25 180.167 312.72 179.705 313.072 179.118L314.26 179.91C313.776 180.673 313.138 181.274 312.346 181.714C311.554 182.139 310.615 182.352 309.53 182.352C308.532 182.352 307.645 182.117 306.868 181.648C306.09 181.179 305.482 180.526 305.042 179.69C304.602 178.854 304.382 177.908 304.382 176.852C304.382 175.796 304.594 174.85 305.02 174.014C305.46 173.178 306.061 172.525 306.824 172.056C307.601 171.587 308.481 171.352 309.464 171.352ZM312.874 175.928C312.727 174.857 312.368 174.058 311.796 173.53C311.224 172.987 310.446 172.716 309.464 172.716C308.51 172.716 307.726 173.024 307.11 173.64C306.508 174.241 306.127 175.004 305.966 175.928H312.874ZM5.852 211.352C4.85467 211.352 3.96733 211.117 3.19 210.648C2.41267 210.179 1.804 209.526 1.364 208.69C0.924 207.854 0.704 206.908 0.704 205.852C0.704 204.796 0.916667 203.85 1.342 203.014C1.782 202.178 2.39067 201.525 3.168 201.056C3.94533 200.587 4.82533 200.352 5.808 200.352C6.644 200.352 7.37 200.535 7.986 200.902C8.61667 201.254 9.18867 201.76 9.702 202.42L8.602 203.278C7.88333 202.237 6.952 201.716 5.808 201.716C5.11867 201.716 4.49533 201.892 3.938 202.244C3.39533 202.596 2.97 203.087 2.662 203.718C2.354 204.349 2.2 205.06 2.2 205.852C2.2 206.644 2.354 207.355 2.662 207.986C2.97 208.617 3.39533 209.108 3.938 209.46C4.49533 209.812 5.11867 209.988 5.808 209.988C6.512 209.988 7.09133 209.871 7.546 209.636C8.00067 209.387 8.41133 209.027 8.778 208.558L9.944 209.372C9.46 209.973 8.85867 210.457 8.14 210.824C7.436 211.176 6.67333 211.352 5.852 211.352ZM11.9804 211V195.028H13.4764V211H11.9804ZM20.8271 211.352C19.8445 211.352 18.9645 211.117 18.1871 210.648C17.4098 210.179 16.8011 209.526 16.3611 208.69C15.9211 207.839 15.7011 206.886 15.7011 205.83C15.7011 204.774 15.9138 203.835 16.3391 203.014C16.7791 202.178 17.3805 201.525 18.1431 201.056C18.9205 200.587 19.8005 200.352 20.7831 200.352C21.7658 200.352 22.6458 200.587 23.4231 201.056C24.2005 201.525 24.8091 202.178 25.2491 203.014C25.6891 203.85 25.9091 204.796 25.9091 205.852C25.9091 206.908 25.6891 207.854 25.2491 208.69C24.8238 209.526 24.2225 210.179 23.4451 210.648C22.6825 211.117 21.8098 211.352 20.8271 211.352ZM20.7831 209.988C21.4871 209.988 22.1105 209.812 22.6531 209.46C23.2105 209.108 23.6431 208.617 23.9511 207.986C24.2591 207.355 24.4131 206.644 24.4131 205.852C24.4131 205.06 24.2591 204.349 23.9511 203.718C23.6431 203.087 23.2105 202.596 22.6531 202.244C22.1105 201.892 21.4871 201.716 20.7831 201.716C20.0938 201.716 19.4778 201.892 18.9351 202.244C18.3925 202.596 17.9671 203.087 17.6591 203.718C17.3511 204.334 17.1971 205.038 17.1971 205.83C17.1971 206.637 17.3511 207.355 17.6591 207.986C17.9671 208.617 18.3925 209.108 18.9351 209.46C19.4778 209.812 20.0938 209.988 20.7831 209.988ZM37.0686 200.704V211H35.5726V209.284C35.2206 209.944 34.7513 210.457 34.1646 210.824C33.5926 211.176 32.9253 211.352 32.1626 211.352C31.444 211.352 30.7766 211.205 30.1606 210.912C29.5593 210.619 29.0753 210.186 28.7086 209.614C28.3566 209.042 28.1806 208.367 28.1806 207.59V200.704H29.6766V206.93C29.6766 208.969 30.586 209.988 32.4046 209.988C33.4606 209.988 34.2526 209.614 34.7806 208.866C35.3086 208.118 35.5726 207.113 35.5726 205.852V200.704H37.0686ZM49.413 195.028V211H47.917V209.482C47.4917 210.069 46.971 210.531 46.355 210.868C45.739 211.191 45.0644 211.352 44.331 211.352C43.3484 211.352 42.4684 211.117 41.691 210.648C40.9137 210.179 40.305 209.526 39.865 208.69C39.425 207.854 39.205 206.901 39.205 205.83C39.205 204.774 39.4177 203.835 39.843 203.014C40.283 202.178 40.8844 201.525 41.647 201.056C42.4244 200.587 43.3044 200.352 44.287 200.352C45.035 200.352 45.717 200.521 46.333 200.858C46.9637 201.181 47.4917 201.643 47.917 202.244V195.028H49.413ZM44.287 209.988C44.991 209.988 45.6144 209.812 46.157 209.46C46.7144 209.108 47.147 208.617 47.455 207.986C47.763 207.355 47.917 206.644 47.917 205.852C47.917 205.06 47.763 204.349 47.455 203.718C47.147 203.087 46.7144 202.596 46.157 202.244C45.6144 201.892 44.991 201.716 44.287 201.716C43.5977 201.716 42.9817 201.892 42.439 202.244C41.8964 202.596 41.471 203.087 41.163 203.718C40.855 204.334 40.701 205.038 40.701 205.83C40.701 206.637 40.855 207.355 41.163 207.986C41.471 208.617 41.8964 209.108 42.439 209.46C42.9817 209.812 43.5977 209.988 44.287 209.988ZM60.7035 211.352C59.7062 211.352 58.8262 211.139 58.0635 210.714C57.3155 210.289 56.7435 209.687 56.3475 208.91L57.6895 208.25C58.2322 209.409 59.2955 209.988 60.8795 209.988C61.6422 209.988 62.2728 209.849 62.7715 209.57C63.2702 209.291 63.5195 208.859 63.5195 208.272C63.5195 207.671 63.3142 207.223 62.9035 206.93C62.5075 206.637 61.8035 206.446 60.7915 206.358C59.3835 206.241 58.3715 205.925 57.7555 205.412C57.1542 204.899 56.8535 204.217 56.8535 203.366C56.8535 202.413 57.1982 201.672 57.8875 201.144C58.5768 200.616 59.5228 200.352 60.7255 200.352C62.7642 200.352 64.1502 201.159 64.8835 202.772L63.5415 203.432C63.2922 202.845 62.9255 202.413 62.4415 202.134C61.9722 201.855 61.3635 201.716 60.6155 201.716C59.8528 201.716 59.2662 201.855 58.8555 202.134C58.4595 202.413 58.2615 202.809 58.2615 203.322C58.2615 203.806 58.4742 204.202 58.8995 204.51C59.3395 204.803 60.0875 204.994 61.1435 205.082C62.4488 205.199 63.4168 205.522 64.0475 206.05C64.6928 206.563 65.0155 207.245 65.0155 208.096C65.0155 208.785 64.8175 209.379 64.4215 209.878C64.0255 210.362 63.4975 210.729 62.8375 210.978C62.1775 211.227 61.4662 211.352 60.7035 211.352ZM67.8286 211V202.068H66.0686V200.704H67.8286V197.294H69.3246V200.704H71.7006V202.068H69.3246V211H67.8286ZM77.8252 211.352C76.8425 211.352 75.9625 211.117 75.1852 210.648C74.4078 210.179 73.7992 209.526 73.3592 208.69C72.9192 207.839 72.6992 206.886 72.6992 205.83C72.6992 204.774 72.9118 203.835 73.3372 203.014C73.7772 202.178 74.3785 201.525 75.1412 201.056C75.9185 200.587 76.7985 200.352 77.7812 200.352C78.7638 200.352 79.6438 200.587 80.4212 201.056C81.1985 201.525 81.8072 202.178 82.2472 203.014C82.6872 203.85 82.9072 204.796 82.9072 205.852C82.9072 206.908 82.6872 207.854 82.2472 208.69C81.8218 209.526 81.2205 210.179 80.4432 210.648C79.6805 211.117 78.8078 211.352 77.8252 211.352ZM77.7812 209.988C78.4852 209.988 79.1085 209.812 79.6512 209.46C80.2085 209.108 80.6412 208.617 80.9492 207.986C81.2572 207.355 81.4112 206.644 81.4112 205.852C81.4112 205.06 81.2572 204.349 80.9492 203.718C80.6412 203.087 80.2085 202.596 79.6512 202.244C79.1085 201.892 78.4852 201.716 77.7812 201.716C77.0918 201.716 76.4758 201.892 75.9332 202.244C75.3905 202.596 74.9652 203.087 74.6572 203.718C74.3492 204.334 74.1952 205.038 74.1952 205.83C74.1952 206.637 74.3492 207.355 74.6572 207.986C74.9652 208.617 75.3905 209.108 75.9332 209.46C76.4758 209.812 77.0918 209.988 77.7812 209.988ZM90.0847 200.352C90.4367 200.352 90.774 200.403 91.0967 200.506V201.87C90.7887 201.723 90.4513 201.65 90.0847 201.65C89.454 201.65 88.8673 201.826 88.3247 202.178C87.782 202.53 87.342 203.043 87.0047 203.718C86.682 204.378 86.5207 205.163 86.5207 206.072V211H85.0247V200.704H86.5207V202.772C86.9167 202.009 87.4153 201.415 88.0167 200.99C88.6327 200.565 89.322 200.352 90.0847 200.352ZM102.05 200.704V211H100.554V209.482C100.128 210.069 99.6078 210.531 98.9918 210.868C98.3758 211.191 97.7011 211.352 96.9678 211.352C95.9851 211.352 95.1051 211.117 94.3277 210.648C93.5504 210.179 92.9418 209.526 92.5018 208.69C92.0618 207.854 91.8418 206.901 91.8418 205.83C91.8418 204.774 92.0544 203.835 92.4798 203.014C92.9198 202.178 93.5211 201.525 94.2838 201.056C95.0611 200.587 95.9411 200.352 96.9238 200.352C97.6718 200.352 98.3538 200.521 98.9698 200.858C99.6004 201.181 100.128 201.643 100.554 202.244V200.704H102.05ZM96.9238 209.988C97.6278 209.988 98.2511 209.812 98.7938 209.46C99.3511 209.108 99.7838 208.617 100.092 207.986C100.4 207.355 100.554 206.644 100.554 205.852C100.554 205.06 100.4 204.349 100.092 203.718C99.7838 203.087 99.3511 202.596 98.7938 202.244C98.2511 201.892 97.6278 201.716 96.9238 201.716C96.2344 201.716 95.6184 201.892 95.0758 202.244C94.5331 202.596 94.1078 203.087 93.7998 203.718C93.4918 204.334 93.3378 205.038 93.3378 205.83C93.3378 206.637 93.4918 207.355 93.7998 207.986C94.1078 208.617 94.5331 209.108 95.0758 209.46C95.6184 209.812 96.2344 209.988 96.9238 209.988ZM114.382 200.704V210.604C114.382 211.528 114.191 212.349 113.81 213.068C113.428 213.801 112.893 214.373 112.204 214.784C111.514 215.195 110.73 215.4 109.85 215.4H105.582V214.036H109.85C110.744 214.036 111.47 213.713 112.028 213.068C112.6 212.423 112.886 211.601 112.886 210.604V209.482C112.46 210.069 111.94 210.531 111.324 210.868C110.708 211.191 110.033 211.352 109.3 211.352C108.317 211.352 107.437 211.117 106.66 210.648C105.882 210.179 105.274 209.526 104.834 208.69C104.394 207.854 104.174 206.901 104.174 205.83C104.174 204.774 104.386 203.835 104.812 203.014C105.252 202.178 105.853 201.525 106.616 201.056C107.393 200.587 108.273 200.352 109.256 200.352C110.004 200.352 110.686 200.521 111.302 200.858C111.932 201.181 112.46 201.643 112.886 202.244V200.704H114.382ZM109.256 209.988C109.96 209.988 110.583 209.812 111.126 209.46C111.683 209.108 112.116 208.617 112.424 207.986C112.732 207.355 112.886 206.644 112.886 205.852C112.886 205.06 112.732 204.349 112.424 203.718C112.116 203.087 111.683 202.596 111.126 202.244C110.583 201.892 109.96 201.716 109.256 201.716C108.566 201.716 107.95 201.892 107.408 202.244C106.865 202.596 106.44 203.087 106.132 203.718C105.824 204.334 105.67 205.038 105.67 205.83C105.67 206.637 105.824 207.355 106.132 207.986C106.44 208.617 106.865 209.108 107.408 209.46C107.95 209.812 108.566 209.988 109.256 209.988ZM121.588 200.352C122.512 200.352 123.348 200.579 124.096 201.034C124.844 201.489 125.43 202.112 125.856 202.904C126.281 203.681 126.494 204.554 126.494 205.522C126.494 205.801 126.486 206.013 126.472 206.16H118.002C118.06 207.216 118.405 208.118 119.036 208.866C119.666 209.614 120.524 209.988 121.61 209.988C122.49 209.988 123.216 209.827 123.788 209.504C124.374 209.167 124.844 208.705 125.196 208.118L126.384 208.91C125.9 209.673 125.262 210.274 124.47 210.714C123.678 211.139 122.739 211.352 121.654 211.352C120.656 211.352 119.769 211.117 118.992 210.648C118.214 210.179 117.606 209.526 117.166 208.69C116.726 207.854 116.506 206.908 116.506 205.852C116.506 204.796 116.718 203.85 117.144 203.014C117.584 202.178 118.185 201.525 118.948 201.056C119.725 200.587 120.605 200.352 121.588 200.352ZM124.998 204.928C124.851 203.857 124.492 203.058 123.92 202.53C123.348 201.987 122.57 201.716 121.588 201.716C120.634 201.716 119.85 202.024 119.234 202.64C118.632 203.241 118.251 204.004 118.09 204.928H124.998ZM137.407 196.018C136.894 196.018 136.468 196.194 136.131 196.546C135.808 196.898 135.647 197.353 135.647 197.91V200.704H138.023V202.068H135.647V211H134.151V202.068H132.831V200.704H134.151V197.91C134.151 196.957 134.452 196.179 135.053 195.578C135.669 194.962 136.454 194.654 137.407 194.654H138.023V196.018H137.407ZM144.147 211.352C143.165 211.352 142.285 211.117 141.507 210.648C140.73 210.179 140.121 209.526 139.681 208.69C139.241 207.839 139.021 206.886 139.021 205.83C139.021 204.774 139.234 203.835 139.659 203.014C140.099 202.178 140.701 201.525 141.463 201.056C142.241 200.587 143.121 200.352 144.103 200.352C145.086 200.352 145.966 200.587 146.743 201.056C147.521 201.525 148.129 202.178 148.569 203.014C149.009 203.85 149.229 204.796 149.229 205.852C149.229 206.908 149.009 207.854 148.569 208.69C148.144 209.526 147.543 210.179 146.765 210.648C146.003 211.117 145.13 211.352 144.147 211.352ZM144.103 209.988C144.807 209.988 145.431 209.812 145.973 209.46C146.531 209.108 146.963 208.617 147.271 207.986C147.579 207.355 147.733 206.644 147.733 205.852C147.733 205.06 147.579 204.349 147.271 203.718C146.963 203.087 146.531 202.596 145.973 202.244C145.431 201.892 144.807 201.716 144.103 201.716C143.414 201.716 142.798 201.892 142.255 202.244C141.713 202.596 141.287 203.087 140.979 203.718C140.671 204.334 140.517 205.038 140.517 205.83C140.517 206.637 140.671 207.355 140.979 207.986C141.287 208.617 141.713 209.108 142.255 209.46C142.798 209.812 143.414 209.988 144.103 209.988ZM156.407 200.352C156.759 200.352 157.096 200.403 157.419 200.506V201.87C157.111 201.723 156.774 201.65 156.407 201.65C155.776 201.65 155.19 201.826 154.647 202.178C154.104 202.53 153.664 203.043 153.327 203.718C153.004 204.378 152.843 205.163 152.843 206.072V211H151.347V200.704H152.843V202.772C153.239 202.009 153.738 201.415 154.339 200.99C154.955 200.565 155.644 200.352 156.407 200.352ZM164.25 211V202.068H162.49V200.704H164.25V197.294H165.746V200.704H168.122V202.068H165.746V211H164.25ZM174.665 200.352C175.384 200.352 176.044 200.499 176.645 200.792C177.261 201.085 177.745 201.518 178.097 202.09C178.464 202.662 178.647 203.337 178.647 204.114V211H177.151V204.774C177.151 202.735 176.242 201.716 174.423 201.716C173.367 201.716 172.575 202.09 172.047 202.838C171.519 203.586 171.255 204.591 171.255 205.852V211H169.759V195.028H171.255V202.42C171.607 201.76 172.069 201.254 172.641 200.902C173.228 200.535 173.902 200.352 174.665 200.352ZM185.955 200.352C186.879 200.352 187.715 200.579 188.463 201.034C189.211 201.489 189.798 202.112 190.223 202.904C190.648 203.681 190.861 204.554 190.861 205.522C190.861 205.801 190.854 206.013 190.839 206.16H182.369C182.428 207.216 182.772 208.118 183.403 208.866C184.034 209.614 184.892 209.988 185.977 209.988C186.857 209.988 187.583 209.827 188.155 209.504C188.742 209.167 189.211 208.705 189.563 208.118L190.751 208.91C190.267 209.673 189.629 210.274 188.837 210.714C188.045 211.139 187.106 211.352 186.021 211.352C185.024 211.352 184.136 211.117 183.359 210.648C182.582 210.179 181.973 209.526 181.533 208.69C181.093 207.854 180.873 206.908 180.873 205.852C180.873 204.796 181.086 203.85 181.511 203.014C181.951 202.178 182.552 201.525 183.315 201.056C184.092 200.587 184.972 200.352 185.955 200.352ZM189.365 204.928C189.218 203.857 188.859 203.058 188.287 202.53C187.715 201.987 186.938 201.716 185.955 201.716C185.002 201.716 184.217 202.024 183.601 202.64C183 203.241 182.618 204.004 182.457 204.928H189.365ZM198.13 200.352C198.482 200.352 198.819 200.403 199.142 200.506V201.87C198.834 201.723 198.496 201.65 198.13 201.65C197.499 201.65 196.912 201.826 196.37 202.178C195.827 202.53 195.387 203.043 195.05 203.718C194.727 204.378 194.566 205.163 194.566 206.072V211H193.07V200.704H194.566V202.772C194.962 202.009 195.46 201.415 196.062 200.99C196.678 200.565 197.367 200.352 198.13 200.352ZM210.095 200.704V211H208.599V209.482C208.173 210.069 207.653 210.531 207.037 210.868C206.421 211.191 205.746 211.352 205.013 211.352C204.03 211.352 203.15 211.117 202.373 210.648C201.595 210.179 200.987 209.526 200.547 208.69C200.107 207.854 199.887 206.901 199.887 205.83C199.887 204.774 200.099 203.835 200.525 203.014C200.965 202.178 201.566 201.525 202.329 201.056C203.106 200.587 203.986 200.352 204.969 200.352C205.717 200.352 206.399 200.521 207.015 200.858C207.645 201.181 208.173 201.643 208.599 202.244V200.704H210.095ZM204.969 209.988C205.673 209.988 206.296 209.812 206.839 209.46C207.396 209.108 207.829 208.617 208.137 207.986C208.445 207.355 208.599 206.644 208.599 205.852C208.599 205.06 208.445 204.349 208.137 203.718C207.829 203.087 207.396 202.596 206.839 202.244C206.296 201.892 205.673 201.716 204.969 201.716C204.279 201.716 203.663 201.892 203.121 202.244C202.578 202.596 202.153 203.087 201.845 203.718C201.537 204.334 201.383 205.038 201.383 205.83C201.383 206.637 201.537 207.355 201.845 207.986C202.153 208.617 202.578 209.108 203.121 209.46C203.663 209.812 204.279 209.988 204.969 209.988ZM217.961 200.352C218.943 200.352 219.823 200.587 220.601 201.056C221.378 201.525 221.987 202.178 222.427 203.014C222.867 203.85 223.087 204.803 223.087 205.874C223.087 206.93 222.867 207.876 222.427 208.712C222.001 209.533 221.4 210.179 220.623 210.648C219.86 211.117 218.987 211.352 218.005 211.352C217.257 211.352 216.567 211.191 215.937 210.868C215.321 210.531 214.8 210.061 214.375 209.46V215.4H212.879V200.704H214.375V202.222C214.8 201.635 215.321 201.181 215.937 200.858C216.553 200.521 217.227 200.352 217.961 200.352ZM218.005 209.988C218.694 209.988 219.31 209.812 219.853 209.46C220.395 209.108 220.821 208.624 221.129 208.008C221.437 207.377 221.591 206.666 221.591 205.874C221.591 205.067 221.437 204.349 221.129 203.718C220.821 203.087 220.395 202.596 219.853 202.244C219.31 201.892 218.694 201.716 218.005 201.716C217.301 201.716 216.67 201.892 216.113 202.244C215.57 202.596 215.145 203.087 214.837 203.718C214.529 204.349 214.375 205.06 214.375 205.852C214.375 206.644 214.529 207.355 214.837 207.986C215.145 208.617 215.57 209.108 216.113 209.46C216.67 209.812 217.301 209.988 218.005 209.988ZM232.273 200.704H233.681L228.115 215.4H226.619L228.247 211.198L224.023 200.704H225.585L228.995 209.24L232.273 200.704ZM240.52 211V202.068H238.76V200.704H240.52V197.294H242.016V200.704H244.392V202.068H242.016V211H240.52ZM255.599 200.704V211H254.103V209.482C253.677 210.069 253.157 210.531 252.541 210.868C251.925 211.191 251.25 211.352 250.517 211.352C249.534 211.352 248.654 211.117 247.877 210.648C247.099 210.179 246.491 209.526 246.051 208.69C245.611 207.854 245.391 206.901 245.391 205.83C245.391 204.774 245.603 203.835 246.029 203.014C246.469 202.178 247.07 201.525 247.833 201.056C248.61 200.587 249.49 200.352 250.473 200.352C251.221 200.352 251.903 200.521 252.519 200.858C253.149 201.181 253.677 201.643 254.103 202.244V200.704H255.599ZM250.473 209.988C251.177 209.988 251.8 209.812 252.343 209.46C252.9 209.108 253.333 208.617 253.641 207.986C253.949 207.355 254.103 206.644 254.103 205.852C254.103 205.06 253.949 204.349 253.641 203.718C253.333 203.087 252.9 202.596 252.343 202.244C251.8 201.892 251.177 201.716 250.473 201.716C249.783 201.716 249.167 201.892 248.625 202.244C248.082 202.596 247.657 203.087 247.349 203.718C247.041 204.334 246.887 205.038 246.887 205.83C246.887 206.637 247.041 207.355 247.349 207.986C247.657 208.617 248.082 209.108 248.625 209.46C249.167 209.812 249.783 209.988 250.473 209.988ZM261.991 211.352C260.993 211.352 260.113 211.139 259.351 210.714C258.603 210.289 258.031 209.687 257.635 208.91L258.977 208.25C259.519 209.409 260.583 209.988 262.167 209.988C262.929 209.988 263.56 209.849 264.059 209.57C264.557 209.291 264.807 208.859 264.807 208.272C264.807 207.671 264.601 207.223 264.191 206.93C263.795 206.637 263.091 206.446 262.079 206.358C260.671 206.241 259.659 205.925 259.043 205.412C258.441 204.899 258.141 204.217 258.141 203.366C258.141 202.413 258.485 201.672 259.175 201.144C259.864 200.616 260.81 200.352 262.013 200.352C264.051 200.352 265.437 201.159 266.171 202.772L264.829 203.432C264.579 202.845 264.213 202.413 263.729 202.134C263.259 201.855 262.651 201.716 261.903 201.716C261.14 201.716 260.553 201.855 260.143 202.134C259.747 202.413 259.549 202.809 259.549 203.322C259.549 203.806 259.761 204.202 260.187 204.51C260.627 204.803 261.375 204.994 262.431 205.082C263.736 205.199 264.704 205.522 265.335 206.05C265.98 206.563 266.303 207.245 266.303 208.096C266.303 208.785 266.105 209.379 265.709 209.878C265.313 210.362 264.785 210.729 264.125 210.978C263.465 211.227 262.753 211.352 261.991 211.352ZM274.924 211L271.316 205.698L270.062 206.908V211H268.566V195.028H270.062V205.016L274.572 200.704H276.508L272.35 204.708L276.596 211H274.924ZM281.778 211.352C280.78 211.352 279.9 211.139 279.138 210.714C278.39 210.289 277.818 209.687 277.422 208.91L278.764 208.25C279.306 209.409 280.37 209.988 281.954 209.988C282.716 209.988 283.347 209.849 283.846 209.57C284.344 209.291 284.594 208.859 284.594 208.272C284.594 207.671 284.388 207.223 283.978 206.93C283.582 206.637 282.878 206.446 281.866 206.358C280.458 206.241 279.446 205.925 278.83 205.412C278.228 204.899 277.928 204.217 277.928 203.366C277.928 202.413 278.272 201.672 278.962 201.144C279.651 200.616 280.597 200.352 281.8 200.352C283.838 200.352 285.224 201.159 285.958 202.772L284.616 203.432C284.366 202.845 284 202.413 283.516 202.134C283.046 201.855 282.438 201.716 281.69 201.716C280.927 201.716 280.34 201.855 279.93 202.134C279.534 202.413 279.336 202.809 279.336 203.322C279.336 203.806 279.548 204.202 279.974 204.51C280.414 204.803 281.162 204.994 282.218 205.082C283.523 205.199 284.491 205.522 285.122 206.05C285.767 206.563 286.09 207.245 286.09 208.096C286.09 208.785 285.892 209.379 285.496 209.878C285.1 210.362 284.572 210.729 283.912 210.978C283.252 211.227 282.54 211.352 281.778 211.352Z" fill="#0A1417"/>
<path d="M444.075 166.075C445.382 166.075 446.548 166.39 447.575 167.02C448.602 167.627 449.407 168.525 449.99 169.715C450.573 170.882 450.865 172.282 450.865 173.915C450.865 175.525 450.515 176.995 449.815 178.325C449.115 179.632 448.112 180.67 446.805 181.44C445.522 182.21 444.017 182.595 442.29 182.595C439.257 182.595 437.005 181.58 435.535 179.55C434.065 177.52 433.33 174.732 433.33 171.185C433.33 168.525 433.738 166.192 434.555 164.185C435.395 162.178 436.585 160.627 438.125 159.53C439.688 158.41 441.52 157.85 443.62 157.85C445.65 157.85 447.447 158.375 449.01 159.425L446.98 162.715C445.93 162.108 444.857 161.805 443.76 161.805C442.43 161.805 441.357 162.365 440.54 163.485C439.723 164.605 439.233 166.192 439.07 168.245C440.493 166.798 442.162 166.075 444.075 166.075ZM442.36 178.64C443.34 178.64 444.075 178.232 444.565 177.415C445.078 176.575 445.335 175.432 445.335 173.985C445.335 172.515 445.102 171.465 444.635 170.835C444.168 170.205 443.468 169.89 442.535 169.89C441.275 169.89 440.12 170.508 439.07 171.745C439.117 174.242 439.385 176.015 439.875 177.065C440.365 178.115 441.193 178.64 442.36 178.64ZM466.617 158.34V162.085L457.937 182.56L452.932 180.88L460.877 162.505H451.322V158.34H466.617ZM489.071 156.8L492.466 158.97L476.261 183.4L472.866 181.23L489.071 156.8ZM474.826 157.85C475.993 157.85 477.043 158.107 477.976 158.62C478.933 159.133 479.679 159.868 480.216 160.825C480.776 161.782 481.056 162.89 481.056 164.15C481.056 165.41 480.776 166.518 480.216 167.475C479.679 168.432 478.933 169.167 477.976 169.68C477.043 170.193 475.993 170.45 474.826 170.45C473.659 170.45 472.598 170.193 471.641 169.68C470.708 169.143 469.961 168.408 469.401 167.475C468.864 166.518 468.596 165.41 468.596 164.15C468.596 162.89 468.864 161.793 469.401 160.86C469.961 159.903 470.708 159.168 471.641 158.655C472.598 158.118 473.659 157.85 474.826 157.85ZM474.826 161.175C473.309 161.175 472.551 162.167 472.551 164.15C472.551 165.013 472.714 165.725 473.041 166.285C473.391 166.845 473.986 167.125 474.826 167.125C476.319 167.125 477.066 166.133 477.066 164.15C477.066 162.167 476.319 161.175 474.826 161.175ZM490.401 170.03C491.568 170.03 492.618 170.287 493.551 170.8C494.508 171.313 495.254 172.048 495.791 173.005C496.351 173.938 496.631 175.035 496.631 176.295C496.631 177.555 496.351 178.663 495.791 179.62C495.254 180.577 494.508 181.312 493.551 181.825C492.618 182.338 491.568 182.595 490.401 182.595C489.234 182.595 488.173 182.338 487.216 181.825C486.259 181.312 485.501 180.577 484.941 179.62C484.404 178.663 484.136 177.555 484.136 176.295C484.136 175.035 484.404 173.938 484.941 173.005C485.501 172.048 486.259 171.313 487.216 170.8C488.173 170.287 489.234 170.03 490.401 170.03ZM490.401 173.355C488.884 173.355 488.126 174.335 488.126 176.295C488.126 177.158 488.289 177.882 488.616 178.465C488.966 179.025 489.561 179.305 490.401 179.305C491.894 179.305 492.641 178.302 492.641 176.295C492.641 174.335 491.894 173.355 490.401 173.355ZM511.795 171.352C512.719 171.352 513.555 171.579 514.303 172.034C515.051 172.489 515.638 173.112 516.063 173.904C516.488 174.681 516.701 175.554 516.701 176.522C516.701 176.801 516.694 177.013 516.679 177.16H508.209C508.268 178.216 508.612 179.118 509.243 179.866C509.874 180.614 510.732 180.988 511.817 180.988C512.697 180.988 513.423 180.827 513.995 180.504C514.582 180.167 515.051 179.705 515.403 179.118L516.591 179.91C516.107 180.673 515.469 181.274 514.677 181.714C513.885 182.139 512.946 182.352 511.861 182.352C510.864 182.352 509.976 182.117 509.199 181.648C508.422 181.179 507.813 180.526 507.373 179.69C506.933 178.854 506.713 177.908 506.713 176.852C506.713 175.796 506.926 174.85 507.351 174.014C507.791 173.178 508.392 172.525 509.155 172.056C509.932 171.587 510.812 171.352 511.795 171.352ZM515.205 175.928C515.058 174.857 514.699 174.058 514.127 173.53C513.555 172.987 512.778 172.716 511.795 172.716C510.842 172.716 510.057 173.024 509.441 173.64C508.84 174.241 508.458 175.004 508.297 175.928H515.205ZM526.317 182H524.601L521.917 177.71L519.233 182H517.561L520.861 176.72L517.759 171.704H519.453L521.939 175.752L524.557 171.704H526.207L522.973 176.698L526.317 182ZM533.51 171.352C534.492 171.352 535.372 171.587 536.15 172.056C536.927 172.525 537.536 173.178 537.976 174.014C538.416 174.85 538.636 175.803 538.636 176.874C538.636 177.93 538.416 178.876 537.976 179.712C537.55 180.533 536.949 181.179 536.172 181.648C535.409 182.117 534.536 182.352 533.554 182.352C532.806 182.352 532.116 182.191 531.486 181.868C530.87 181.531 530.349 181.061 529.924 180.46V186.4H528.428V171.704H529.924V173.222C530.349 172.635 530.87 172.181 531.486 171.858C532.102 171.521 532.776 171.352 533.51 171.352ZM533.554 180.988C534.243 180.988 534.859 180.812 535.402 180.46C535.944 180.108 536.37 179.624 536.678 179.008C536.986 178.377 537.14 177.666 537.14 176.874C537.14 176.067 536.986 175.349 536.678 174.718C536.37 174.087 535.944 173.596 535.402 173.244C534.859 172.892 534.243 172.716 533.554 172.716C532.85 172.716 532.219 172.892 531.662 173.244C531.119 173.596 530.694 174.087 530.386 174.718C530.078 175.349 529.924 176.06 529.924 176.852C529.924 177.644 530.078 178.355 530.386 178.986C530.694 179.617 531.119 180.108 531.662 180.46C532.219 180.812 532.85 180.988 533.554 180.988ZM545.798 171.352C546.15 171.352 546.487 171.403 546.81 171.506V172.87C546.502 172.723 546.164 172.65 545.798 172.65C545.167 172.65 544.58 172.826 544.038 173.178C543.495 173.53 543.055 174.043 542.718 174.718C542.395 175.378 542.234 176.163 542.234 177.072V182H540.738V171.704H542.234V173.772C542.63 173.009 543.128 172.415 543.73 171.99C544.346 171.565 545.035 171.352 545.798 171.352ZM552.422 171.352C553.346 171.352 554.182 171.579 554.93 172.034C555.678 172.489 556.264 173.112 556.69 173.904C557.115 174.681 557.328 175.554 557.328 176.522C557.328 176.801 557.32 177.013 557.306 177.16H548.836C548.894 178.216 549.239 179.118 549.87 179.866C550.5 180.614 551.358 180.988 552.444 180.988C553.324 180.988 554.05 180.827 554.622 180.504C555.208 180.167 555.678 179.705 556.03 179.118L557.218 179.91C556.734 180.673 556.096 181.274 555.304 181.714C554.512 182.139 553.573 182.352 552.488 182.352C551.49 182.352 550.603 182.117 549.826 181.648C549.048 181.179 548.44 180.526 548 179.69C547.56 178.854 547.34 177.908 547.34 176.852C547.34 175.796 547.552 174.85 547.978 174.014C548.418 173.178 549.019 172.525 549.782 172.056C550.559 171.587 551.439 171.352 552.422 171.352ZM555.832 175.928C555.685 174.857 555.326 174.058 554.754 173.53C554.182 172.987 553.404 172.716 552.422 172.716C551.468 172.716 550.684 173.024 550.068 173.64C549.466 174.241 549.085 175.004 548.924 175.928H555.832ZM563.166 182.352C562.169 182.352 561.289 182.139 560.526 181.714C559.778 181.289 559.206 180.687 558.81 179.91L560.152 179.25C560.695 180.409 561.758 180.988 563.342 180.988C564.105 180.988 564.736 180.849 565.234 180.57C565.733 180.291 565.982 179.859 565.982 179.272C565.982 178.671 565.777 178.223 565.366 177.93C564.97 177.637 564.266 177.446 563.254 177.358C561.846 177.241 560.834 176.925 560.218 176.412C559.617 175.899 559.316 175.217 559.316 174.366C559.316 173.413 559.661 172.672 560.35 172.144C561.04 171.616 561.986 171.352 563.188 171.352C565.227 171.352 566.613 172.159 567.346 173.772L566.004 174.432C565.755 173.845 565.388 173.413 564.904 173.134C564.435 172.855 563.826 172.716 563.078 172.716C562.316 172.716 561.729 172.855 561.318 173.134C560.922 173.413 560.724 173.809 560.724 174.322C560.724 174.806 560.937 175.202 561.362 175.51C561.802 175.803 562.55 175.994 563.606 176.082C564.912 176.199 565.88 176.522 566.51 177.05C567.156 177.563 567.478 178.245 567.478 179.096C567.478 179.785 567.28 180.379 566.884 180.878C566.488 181.362 565.96 181.729 565.3 181.978C564.64 182.227 563.929 182.352 563.166 182.352ZM573.371 182.352C572.374 182.352 571.494 182.139 570.731 181.714C569.983 181.289 569.411 180.687 569.015 179.91L570.357 179.25C570.9 180.409 571.963 180.988 573.547 180.988C574.31 180.988 574.941 180.849 575.439 180.57C575.938 180.291 576.187 179.859 576.187 179.272C576.187 178.671 575.982 178.223 575.571 177.93C575.175 177.637 574.471 177.446 573.459 177.358C572.051 177.241 571.039 176.925 570.423 176.412C569.822 175.899 569.521 175.217 569.521 174.366C569.521 173.413 569.866 172.672 570.555 172.144C571.245 171.616 572.191 171.352 573.393 171.352C575.432 171.352 576.818 172.159 577.551 173.772L576.209 174.432C575.96 173.845 575.593 173.413 575.109 173.134C574.64 172.855 574.031 172.716 573.283 172.716C572.521 172.716 571.934 172.855 571.523 173.134C571.127 173.413 570.929 173.809 570.929 174.322C570.929 174.806 571.142 175.202 571.567 175.51C572.007 175.803 572.755 175.994 573.811 176.082C575.117 176.199 576.085 176.522 576.715 177.05C577.361 177.563 577.683 178.245 577.683 179.096C577.683 179.785 577.485 180.379 577.089 180.878C576.693 181.362 576.165 181.729 575.505 181.978C574.845 182.227 574.134 182.352 573.371 182.352ZM584.391 171.352C585.315 171.352 586.151 171.579 586.899 172.034C587.647 172.489 588.233 173.112 588.659 173.904C589.084 174.681 589.297 175.554 589.297 176.522C589.297 176.801 589.289 177.013 589.275 177.16H580.805C580.863 178.216 581.208 179.118 581.839 179.866C582.469 180.614 583.327 180.988 584.413 180.988C585.293 180.988 586.019 180.827 586.591 180.504C587.177 180.167 587.647 179.705 587.999 179.118L589.187 179.91C588.703 180.673 588.065 181.274 587.273 181.714C586.481 182.139 585.542 182.352 584.457 182.352C583.459 182.352 582.572 182.117 581.795 181.648C581.017 181.179 580.409 180.526 579.969 179.69C579.529 178.854 579.309 177.908 579.309 176.852C579.309 175.796 579.521 174.85 579.947 174.014C580.387 173.178 580.988 172.525 581.751 172.056C582.528 171.587 583.408 171.352 584.391 171.352ZM587.801 175.928C587.654 174.857 587.295 174.058 586.723 173.53C586.151 172.987 585.373 172.716 584.391 172.716C583.437 172.716 582.653 173.024 582.037 173.64C581.435 174.241 581.054 175.004 580.893 175.928H587.801ZM601.075 166.028V182H599.579V180.482C599.154 181.069 598.633 181.531 598.017 181.868C597.401 182.191 596.726 182.352 595.993 182.352C595.01 182.352 594.13 182.117 593.353 181.648C592.576 181.179 591.967 180.526 591.527 179.69C591.087 178.854 590.867 177.901 590.867 176.83C590.867 175.774 591.08 174.835 591.505 174.014C591.945 173.178 592.546 172.525 593.309 172.056C594.086 171.587 594.966 171.352 595.949 171.352C596.697 171.352 597.379 171.521 597.995 171.858C598.626 172.181 599.154 172.643 599.579 173.244V166.028H601.075ZM595.949 180.988C596.653 180.988 597.276 180.812 597.819 180.46C598.376 180.108 598.809 179.617 599.117 178.986C599.425 178.355 599.579 177.644 599.579 176.852C599.579 176.06 599.425 175.349 599.117 174.718C598.809 174.087 598.376 173.596 597.819 173.244C597.276 172.892 596.653 172.716 595.949 172.716C595.26 172.716 594.644 172.892 594.101 173.244C593.558 173.596 593.133 174.087 592.825 174.718C592.517 175.334 592.363 176.038 592.363 176.83C592.363 177.637 592.517 178.355 592.825 178.986C593.133 179.617 593.558 180.108 594.101 180.46C594.644 180.812 595.26 180.988 595.949 180.988ZM618.306 171.704V182H616.81V180.482C616.384 181.069 615.864 181.531 615.248 181.868C614.632 182.191 613.957 182.352 613.224 182.352C612.241 182.352 611.361 182.117 610.584 181.648C609.806 181.179 609.198 180.526 608.758 179.69C608.318 178.854 608.098 177.901 608.098 176.83C608.098 175.774 608.31 174.835 608.736 174.014C609.176 173.178 609.777 172.525 610.54 172.056C611.317 171.587 612.197 171.352 613.18 171.352C613.928 171.352 614.61 171.521 615.226 171.858C615.856 172.181 616.384 172.643 616.81 173.244V171.704H618.306ZM613.18 180.988C613.884 180.988 614.507 180.812 615.05 180.46C615.607 180.108 616.04 179.617 616.348 178.986C616.656 178.355 616.81 177.644 616.81 176.852C616.81 176.06 616.656 175.349 616.348 174.718C616.04 174.087 615.607 173.596 615.05 173.244C614.507 172.892 613.884 172.716 613.18 172.716C612.49 172.716 611.874 172.892 611.332 173.244C610.789 173.596 610.364 174.087 610.056 174.718C609.748 175.334 609.594 176.038 609.594 176.83C609.594 177.637 609.748 178.355 610.056 178.986C610.364 179.617 610.789 180.108 611.332 180.46C611.874 180.812 612.49 180.988 613.18 180.988ZM625.974 171.352C626.692 171.352 627.352 171.499 627.954 171.792C628.57 172.085 629.054 172.518 629.406 173.09C629.772 173.662 629.956 174.337 629.956 175.114V182H628.46V175.774C628.46 173.735 627.55 172.716 625.732 172.716C624.676 172.716 623.884 173.09 623.356 173.838C622.828 174.586 622.564 175.591 622.564 176.852V182H621.068V171.704H622.564V173.42C622.916 172.76 623.378 172.254 623.95 171.902C624.536 171.535 625.211 171.352 625.974 171.352ZM638.596 182V171.704H640.092V182H638.596ZM639.344 169.702C639.007 169.702 638.721 169.585 638.486 169.35C638.266 169.115 638.156 168.829 638.156 168.492C638.156 168.169 638.266 167.898 638.486 167.678C638.721 167.443 639.007 167.326 639.344 167.326C639.667 167.326 639.946 167.443 640.18 167.678C640.415 167.898 640.532 168.177 640.532 168.514C640.532 168.837 640.415 169.115 640.18 169.35C639.946 169.585 639.667 169.702 639.344 169.702ZM648.575 171.352C649.294 171.352 649.954 171.499 650.555 171.792C651.171 172.085 651.655 172.518 652.007 173.09C652.374 173.662 652.557 174.337 652.557 175.114V182H651.061V175.774C651.061 173.735 650.152 172.716 648.333 172.716C647.277 172.716 646.485 173.09 645.957 173.838C645.429 174.586 645.165 175.591 645.165 176.852V182H643.669V171.704H645.165V173.42C645.517 172.76 645.979 172.254 646.551 171.902C647.138 171.535 647.813 171.352 648.575 171.352ZM656.036 182V173.068H654.276V171.704H656.036V168.294H657.532V171.704H659.908V173.068H657.532V182H656.036ZM665.988 171.352C666.912 171.352 667.748 171.579 668.496 172.034C669.244 172.489 669.831 173.112 670.256 173.904C670.682 174.681 670.894 175.554 670.894 176.522C670.894 176.801 670.887 177.013 670.872 177.16H662.402C662.461 178.216 662.806 179.118 663.436 179.866C664.067 180.614 664.925 180.988 666.01 180.988C666.89 180.988 667.616 180.827 668.188 180.504C668.775 180.167 669.244 179.705 669.596 179.118L670.784 179.91C670.3 180.673 669.662 181.274 668.87 181.714C668.078 182.139 667.14 182.352 666.054 182.352C665.057 182.352 664.17 182.117 663.392 181.648C662.615 181.179 662.006 180.526 661.566 179.69C661.126 178.854 660.906 177.908 660.906 176.852C660.906 175.796 661.119 174.85 661.544 174.014C661.984 173.178 662.586 172.525 663.348 172.056C664.126 171.587 665.006 171.352 665.988 171.352ZM669.398 175.928C669.252 174.857 668.892 174.058 668.32 173.53C667.748 172.987 666.971 172.716 665.988 172.716C665.035 172.716 664.25 173.024 663.634 173.64C663.033 174.241 662.652 175.004 662.49 175.928H669.398ZM678.163 171.352C678.515 171.352 678.852 171.403 679.175 171.506V172.87C678.867 172.723 678.529 172.65 678.163 172.65C677.532 172.65 676.945 172.826 676.403 173.178C675.86 173.53 675.42 174.043 675.083 174.718C674.76 175.378 674.599 176.163 674.599 177.072V182H673.103V171.704H674.599V173.772C674.995 173.009 675.493 172.415 676.095 171.99C676.711 171.565 677.4 171.352 678.163 171.352ZM684.787 171.352C685.711 171.352 686.547 171.579 687.295 172.034C688.043 172.489 688.63 173.112 689.055 173.904C689.48 174.681 689.693 175.554 689.693 176.522C689.693 176.801 689.686 177.013 689.671 177.16H681.201C681.26 178.216 681.604 179.118 682.235 179.866C682.866 180.614 683.724 180.988 684.809 180.988C685.689 180.988 686.415 180.827 686.987 180.504C687.574 180.167 688.043 179.705 688.395 179.118L689.583 179.91C689.099 180.673 688.461 181.274 687.669 181.714C686.877 182.139 685.938 182.352 684.853 182.352C683.856 182.352 682.968 182.117 682.191 181.648C681.414 181.179 680.805 180.526 680.365 179.69C679.925 178.854 679.705 177.908 679.705 176.852C679.705 175.796 679.918 174.85 680.343 174.014C680.783 173.178 681.384 172.525 682.147 172.056C682.924 171.587 683.804 171.352 684.787 171.352ZM688.197 175.928C688.05 174.857 687.691 174.058 687.119 173.53C686.547 172.987 685.77 172.716 684.787 172.716C683.834 172.716 683.049 173.024 682.433 173.64C681.832 174.241 681.45 175.004 681.289 175.928H688.197ZM695.532 182.352C694.534 182.352 693.654 182.139 692.892 181.714C692.144 181.289 691.572 180.687 691.176 179.91L692.518 179.25C693.06 180.409 694.124 180.988 695.708 180.988C696.47 180.988 697.101 180.849 697.6 180.57C698.098 180.291 698.348 179.859 698.348 179.272C698.348 178.671 698.142 178.223 697.732 177.93C697.336 177.637 696.632 177.446 695.62 177.358C694.212 177.241 693.2 176.925 692.584 176.412C691.982 175.899 691.682 175.217 691.682 174.366C691.682 173.413 692.026 172.672 692.716 172.144C693.405 171.616 694.351 171.352 695.554 171.352C697.592 171.352 698.978 172.159 699.712 173.772L698.37 174.432C698.12 173.845 697.754 173.413 697.27 173.134C696.8 172.855 696.192 172.716 695.444 172.716C694.681 172.716 694.094 172.855 693.684 173.134C693.288 173.413 693.09 173.809 693.09 174.322C693.09 174.806 693.302 175.202 693.728 175.51C694.168 175.803 694.916 175.994 695.972 176.082C697.277 176.199 698.245 176.522 698.876 177.05C699.521 177.563 699.844 178.245 699.844 179.096C699.844 179.785 699.646 180.379 699.25 180.878C698.854 181.362 698.326 181.729 697.666 181.978C697.006 182.227 696.294 182.352 695.532 182.352ZM702.657 182V173.068H700.897V171.704H702.657V168.294H704.153V171.704H706.529V173.068H704.153V182H702.657ZM713.878 182V171.704H715.374V182H713.878ZM714.626 169.702C714.288 169.702 714.002 169.585 713.768 169.35C713.548 169.115 713.438 168.829 713.438 168.492C713.438 168.169 713.548 167.898 713.768 167.678C714.002 167.443 714.288 167.326 714.626 167.326C714.948 167.326 715.227 167.443 715.462 167.678C715.696 167.898 715.814 168.177 715.814 168.514C715.814 168.837 715.696 169.115 715.462 169.35C715.227 169.585 714.948 169.702 714.626 169.702ZM723.856 171.352C724.575 171.352 725.235 171.499 725.836 171.792C726.452 172.085 726.936 172.518 727.288 173.09C727.655 173.662 727.838 174.337 727.838 175.114V182H726.342V175.774C726.342 173.735 725.433 172.716 723.614 172.716C722.558 172.716 721.766 173.09 721.238 173.838C720.71 174.586 720.446 175.591 720.446 176.852V182H718.95V171.704H720.446V173.42C720.798 172.76 721.26 172.254 721.832 171.902C722.419 171.535 723.094 171.352 723.856 171.352ZM745.235 171.704V182H743.739V180.482C743.314 181.069 742.793 181.531 742.177 181.868C741.561 182.191 740.887 182.352 740.153 182.352C739.171 182.352 738.291 182.117 737.513 181.648C736.736 181.179 736.127 180.526 735.687 179.69C735.247 178.854 735.027 177.901 735.027 176.83C735.027 175.774 735.24 174.835 735.665 174.014C736.105 173.178 736.707 172.525 737.469 172.056C738.247 171.587 739.127 171.352 740.109 171.352C740.857 171.352 741.539 171.521 742.155 171.858C742.786 172.181 743.314 172.643 743.739 173.244V171.704H745.235ZM740.109 180.988C740.813 180.988 741.437 180.812 741.979 180.46C742.537 180.108 742.969 179.617 743.277 178.986C743.585 178.355 743.739 177.644 743.739 176.852C743.739 176.06 743.585 175.349 743.277 174.718C742.969 174.087 742.537 173.596 741.979 173.244C741.437 172.892 740.813 172.716 740.109 172.716C739.42 172.716 738.804 172.892 738.261 173.244C737.719 173.596 737.293 174.087 736.985 174.718C736.677 175.334 736.523 176.038 736.523 176.83C736.523 177.637 736.677 178.355 736.985 178.986C737.293 179.617 737.719 180.108 738.261 180.46C738.804 180.812 739.42 180.988 740.109 180.988ZM438.49 200.352C439.473 200.352 440.353 200.587 441.13 201.056C441.907 201.525 442.516 202.178 442.956 203.014C443.396 203.85 443.616 204.803 443.616 205.874C443.616 206.93 443.396 207.876 442.956 208.712C442.531 209.533 441.929 210.179 441.152 210.648C440.389 211.117 439.517 211.352 438.534 211.352C437.786 211.352 437.097 211.191 436.466 210.868C435.85 210.531 435.329 210.061 434.904 209.46V215.4H433.408V200.704H434.904V202.222C435.329 201.635 435.85 201.181 436.466 200.858C437.082 200.521 437.757 200.352 438.49 200.352ZM438.534 209.988C439.223 209.988 439.839 209.812 440.382 209.46C440.925 209.108 441.35 208.624 441.658 208.008C441.966 207.377 442.12 206.666 442.12 205.874C442.12 205.067 441.966 204.349 441.658 203.718C441.35 203.087 440.925 202.596 440.382 202.244C439.839 201.892 439.223 201.716 438.534 201.716C437.83 201.716 437.199 201.892 436.642 202.244C436.099 202.596 435.674 203.087 435.366 203.718C435.058 204.349 434.904 205.06 434.904 205.852C434.904 206.644 435.058 207.355 435.366 207.986C435.674 208.617 436.099 209.108 436.642 209.46C437.199 209.812 437.83 209.988 438.534 209.988ZM450.778 200.352C451.13 200.352 451.467 200.403 451.79 200.506V201.87C451.482 201.723 451.145 201.65 450.778 201.65C450.147 201.65 449.561 201.826 449.018 202.178C448.475 202.53 448.035 203.043 447.698 203.718C447.375 204.378 447.214 205.163 447.214 206.072V211H445.718V200.704H447.214V202.772C447.61 202.009 448.109 201.415 448.71 200.99C449.326 200.565 450.015 200.352 450.778 200.352ZM457.446 211.352C456.464 211.352 455.584 211.117 454.806 210.648C454.029 210.179 453.42 209.526 452.98 208.69C452.54 207.839 452.32 206.886 452.32 205.83C452.32 204.774 452.533 203.835 452.958 203.014C453.398 202.178 454 201.525 454.762 201.056C455.54 200.587 456.42 200.352 457.402 200.352C458.385 200.352 459.265 200.587 460.042 201.056C460.82 201.525 461.428 202.178 461.868 203.014C462.308 203.85 462.528 204.796 462.528 205.852C462.528 206.908 462.308 207.854 461.868 208.69C461.443 209.526 460.842 210.179 460.064 210.648C459.302 211.117 458.429 211.352 457.446 211.352ZM457.402 209.988C458.106 209.988 458.73 209.812 459.272 209.46C459.83 209.108 460.262 208.617 460.57 207.986C460.878 207.355 461.032 206.644 461.032 205.852C461.032 205.06 460.878 204.349 460.57 203.718C460.262 203.087 459.83 202.596 459.272 202.244C458.73 201.892 458.106 201.716 457.402 201.716C456.713 201.716 456.097 201.892 455.554 202.244C455.012 202.596 454.586 203.087 454.278 203.718C453.97 204.334 453.816 205.038 453.816 205.83C453.816 206.637 453.97 207.355 454.278 207.986C454.586 208.617 455.012 209.108 455.554 209.46C456.097 209.812 456.713 209.988 457.402 209.988ZM474.216 195.028V211H472.72V209.482C472.294 210.069 471.774 210.531 471.158 210.868C470.542 211.191 469.867 211.352 469.134 211.352C468.151 211.352 467.271 211.117 466.494 210.648C465.716 210.179 465.108 209.526 464.668 208.69C464.228 207.854 464.008 206.901 464.008 205.83C464.008 204.774 464.22 203.835 464.646 203.014C465.086 202.178 465.687 201.525 466.45 201.056C467.227 200.587 468.107 200.352 469.09 200.352C469.838 200.352 470.52 200.521 471.136 200.858C471.766 201.181 472.294 201.643 472.72 202.244V195.028H474.216ZM469.09 209.988C469.794 209.988 470.417 209.812 470.96 209.46C471.517 209.108 471.95 208.617 472.258 207.986C472.566 207.355 472.72 206.644 472.72 205.852C472.72 205.06 472.566 204.349 472.258 203.718C471.95 203.087 471.517 202.596 470.96 202.244C470.417 201.892 469.794 201.716 469.09 201.716C468.4 201.716 467.784 201.892 467.242 202.244C466.699 202.596 466.274 203.087 465.966 203.718C465.658 204.334 465.504 205.038 465.504 205.83C465.504 206.637 465.658 207.355 465.966 207.986C466.274 208.617 466.699 209.108 467.242 209.46C467.784 209.812 468.4 209.988 469.09 209.988ZM486.02 200.704V211H484.524V209.284C484.172 209.944 483.702 210.457 483.116 210.824C482.544 211.176 481.876 211.352 481.114 211.352C480.395 211.352 479.728 211.205 479.112 210.912C478.51 210.619 478.026 210.186 477.66 209.614C477.308 209.042 477.132 208.367 477.132 207.59V200.704H478.628V206.93C478.628 208.969 479.537 209.988 481.356 209.988C482.412 209.988 483.204 209.614 483.732 208.866C484.26 208.118 484.524 207.113 484.524 205.852V200.704H486.02ZM493.26 211.352C492.263 211.352 491.376 211.117 490.598 210.648C489.821 210.179 489.212 209.526 488.772 208.69C488.332 207.854 488.112 206.908 488.112 205.852C488.112 204.796 488.325 203.85 488.75 203.014C489.19 202.178 489.799 201.525 490.576 201.056C491.354 200.587 492.234 200.352 493.216 200.352C494.052 200.352 494.778 200.535 495.394 200.902C496.025 201.254 496.597 201.76 497.11 202.42L496.01 203.278C495.292 202.237 494.36 201.716 493.216 201.716C492.527 201.716 491.904 201.892 491.346 202.244C490.804 202.596 490.378 203.087 490.07 203.718C489.762 204.349 489.608 205.06 489.608 205.852C489.608 206.644 489.762 207.355 490.07 207.986C490.378 208.617 490.804 209.108 491.346 209.46C491.904 209.812 492.527 209.988 493.216 209.988C493.92 209.988 494.5 209.871 494.954 209.636C495.409 209.387 495.82 209.027 496.186 208.558L497.352 209.372C496.868 209.973 496.267 210.457 495.548 210.824C494.844 211.176 494.082 211.352 493.26 211.352ZM499.829 211V202.068H498.069V200.704H499.829V197.294H501.325V200.704H503.701V202.068H501.325V211H499.829ZM519.806 195.028V211H518.31V209.482C517.884 210.069 517.364 210.531 516.748 210.868C516.132 211.191 515.457 211.352 514.724 211.352C513.741 211.352 512.861 211.117 512.084 210.648C511.306 210.179 510.698 209.526 510.258 208.69C509.818 207.854 509.598 206.901 509.598 205.83C509.598 204.774 509.81 203.835 510.236 203.014C510.676 202.178 511.277 201.525 512.04 201.056C512.817 200.587 513.697 200.352 514.68 200.352C515.428 200.352 516.11 200.521 516.726 200.858C517.356 201.181 517.884 201.643 518.31 202.244V195.028H519.806ZM514.68 209.988C515.384 209.988 516.007 209.812 516.55 209.46C517.107 209.108 517.54 208.617 517.848 207.986C518.156 207.355 518.31 206.644 518.31 205.852C518.31 205.06 518.156 204.349 517.848 203.718C517.54 203.087 517.107 202.596 516.55 202.244C516.007 201.892 515.384 201.716 514.68 201.716C513.99 201.716 513.374 201.892 512.832 202.244C512.289 202.596 511.864 203.087 511.556 203.718C511.248 204.334 511.094 205.038 511.094 205.83C511.094 206.637 511.248 207.355 511.556 207.986C511.864 208.617 512.289 209.108 512.832 209.46C513.374 209.812 513.99 209.988 514.68 209.988ZM527.012 200.352C527.936 200.352 528.772 200.579 529.52 201.034C530.268 201.489 530.854 202.112 531.28 202.904C531.705 203.681 531.918 204.554 531.918 205.522C531.918 205.801 531.91 206.013 531.896 206.16H523.426C523.484 207.216 523.829 208.118 524.46 208.866C525.09 209.614 525.948 209.988 527.034 209.988C527.914 209.988 528.64 209.827 529.212 209.504C529.798 209.167 530.268 208.705 530.62 208.118L531.808 208.91C531.324 209.673 530.686 210.274 529.894 210.714C529.102 211.139 528.163 211.352 527.078 211.352C526.08 211.352 525.193 211.117 524.416 210.648C523.638 210.179 523.03 209.526 522.59 208.69C522.15 207.854 521.93 206.908 521.93 205.852C521.93 204.796 522.142 203.85 522.568 203.014C523.008 202.178 523.609 201.525 524.372 201.056C525.149 200.587 526.029 200.352 527.012 200.352ZM530.422 204.928C530.275 203.857 529.916 203.058 529.344 202.53C528.772 201.987 527.994 201.716 527.012 201.716C526.058 201.716 525.274 202.024 524.658 202.64C524.056 203.241 523.675 204.004 523.514 204.928H530.422ZM537.756 211.352C536.759 211.352 535.879 211.139 535.116 210.714C534.368 210.289 533.796 209.687 533.4 208.91L534.742 208.25C535.285 209.409 536.348 209.988 537.932 209.988C538.695 209.988 539.326 209.849 539.824 209.57C540.323 209.291 540.572 208.859 540.572 208.272C540.572 207.671 540.367 207.223 539.956 206.93C539.56 206.637 538.856 206.446 537.844 206.358C536.436 206.241 535.424 205.925 534.808 205.412C534.207 204.899 533.906 204.217 533.906 203.366C533.906 202.413 534.251 201.672 534.94 201.144C535.63 200.616 536.576 200.352 537.778 200.352C539.817 200.352 541.203 201.159 541.936 202.772L540.594 203.432C540.345 202.845 539.978 202.413 539.494 202.134C539.025 201.855 538.416 201.716 537.668 201.716C536.906 201.716 536.319 201.855 535.908 202.134C535.512 202.413 535.314 202.809 535.314 203.322C535.314 203.806 535.527 204.202 535.952 204.51C536.392 204.803 537.14 204.994 538.196 205.082C539.502 205.199 540.47 205.522 541.1 206.05C541.746 206.563 542.068 207.245 542.068 208.096C542.068 208.785 541.87 209.379 541.474 209.878C541.078 210.362 540.55 210.729 539.89 210.978C539.23 211.227 538.519 211.352 537.756 211.352ZM545.145 211V200.704H546.641V211H545.145ZM545.893 198.702C545.556 198.702 545.27 198.585 545.035 198.35C544.815 198.115 544.705 197.829 544.705 197.492C544.705 197.169 544.815 196.898 545.035 196.678C545.27 196.443 545.556 196.326 545.893 196.326C546.216 196.326 546.495 196.443 546.729 196.678C546.964 196.898 547.081 197.177 547.081 197.514C547.081 197.837 546.964 198.115 546.729 198.35C546.495 198.585 546.216 198.702 545.893 198.702ZM559.788 200.704V210.604C559.788 211.528 559.597 212.349 559.216 213.068C558.835 213.801 558.299 214.373 557.61 214.784C556.921 215.195 556.136 215.4 555.256 215.4H550.988V214.036H555.256C556.151 214.036 556.877 213.713 557.434 213.068C558.006 212.423 558.292 211.601 558.292 210.604V209.482C557.867 210.069 557.346 210.531 556.73 210.868C556.114 211.191 555.439 211.352 554.706 211.352C553.723 211.352 552.843 211.117 552.066 210.648C551.289 210.179 550.68 209.526 550.24 208.69C549.8 207.854 549.58 206.901 549.58 205.83C549.58 204.774 549.793 203.835 550.218 203.014C550.658 202.178 551.259 201.525 552.022 201.056C552.799 200.587 553.679 200.352 554.662 200.352C555.41 200.352 556.092 200.521 556.708 200.858C557.339 201.181 557.867 201.643 558.292 202.244V200.704H559.788ZM554.662 209.988C555.366 209.988 555.989 209.812 556.532 209.46C557.089 209.108 557.522 208.617 557.83 207.986C558.138 207.355 558.292 206.644 558.292 205.852C558.292 205.06 558.138 204.349 557.83 203.718C557.522 203.087 557.089 202.596 556.532 202.244C555.989 201.892 555.366 201.716 554.662 201.716C553.973 201.716 553.357 201.892 552.814 202.244C552.271 202.596 551.846 203.087 551.538 203.718C551.23 204.334 551.076 205.038 551.076 205.83C551.076 206.637 551.23 207.355 551.538 207.986C551.846 208.617 552.271 209.108 552.814 209.46C553.357 209.812 553.973 209.988 554.662 209.988ZM567.456 200.352C568.175 200.352 568.835 200.499 569.436 200.792C570.052 201.085 570.536 201.518 570.888 202.09C571.255 202.662 571.438 203.337 571.438 204.114V211H569.942V204.774C569.942 202.735 569.033 201.716 567.214 201.716C566.158 201.716 565.366 202.09 564.838 202.838C564.31 203.586 564.046 204.591 564.046 205.852V211H562.55V200.704H564.046V202.42C564.398 201.76 564.86 201.254 565.432 200.902C566.019 200.535 566.693 200.352 567.456 200.352ZM578.81 200.352C579.734 200.352 580.57 200.579 581.318 201.034C582.066 201.489 582.653 202.112 583.078 202.904C583.504 203.681 583.716 204.554 583.716 205.522C583.716 205.801 583.709 206.013 583.694 206.16H575.224C575.283 207.216 575.628 208.118 576.258 208.866C576.889 209.614 577.747 209.988 578.832 209.988C579.712 209.988 580.438 209.827 581.01 209.504C581.597 209.167 582.066 208.705 582.418 208.118L583.606 208.91C583.122 209.673 582.484 210.274 581.692 210.714C580.9 211.139 579.962 211.352 578.876 211.352C577.879 211.352 576.992 211.117 576.214 210.648C575.437 210.179 574.828 209.526 574.388 208.69C573.948 207.854 573.728 206.908 573.728 205.852C573.728 204.796 573.941 203.85 574.366 203.014C574.806 202.178 575.408 201.525 576.17 201.056C576.948 200.587 577.828 200.352 578.81 200.352ZM582.22 204.928C582.074 203.857 581.714 203.058 581.142 202.53C580.57 201.987 579.793 201.716 578.81 201.716C577.857 201.716 577.072 202.024 576.456 202.64C575.855 203.241 575.474 204.004 575.312 204.928H582.22ZM595.495 195.028V211H593.999V209.482C593.574 210.069 593.053 210.531 592.437 210.868C591.821 211.191 591.146 211.352 590.413 211.352C589.43 211.352 588.55 211.117 587.773 210.648C586.996 210.179 586.387 209.526 585.947 208.69C585.507 207.854 585.287 206.901 585.287 205.83C585.287 204.774 585.5 203.835 585.925 203.014C586.365 202.178 586.966 201.525 587.729 201.056C588.506 200.587 589.386 200.352 590.369 200.352C591.117 200.352 591.799 200.521 592.415 200.858C593.046 201.181 593.574 201.643 593.999 202.244V195.028H595.495ZM590.369 209.988C591.073 209.988 591.696 209.812 592.239 209.46C592.796 209.108 593.229 208.617 593.537 207.986C593.845 207.355 593.999 206.644 593.999 205.852C593.999 205.06 593.845 204.349 593.537 203.718C593.229 203.087 592.796 202.596 592.239 202.244C591.696 201.892 591.073 201.716 590.369 201.716C589.68 201.716 589.064 201.892 588.521 202.244C587.978 202.596 587.553 203.087 587.245 203.718C586.937 204.334 586.783 205.038 586.783 205.83C586.783 206.637 586.937 207.355 587.245 207.986C587.553 208.617 587.978 209.108 588.521 209.46C589.064 209.812 589.68 209.988 590.369 209.988ZM606.962 196.018C606.448 196.018 606.023 196.194 605.686 196.546C605.363 196.898 605.202 197.353 605.202 197.91V200.704H607.578V202.068H605.202V211H603.706V202.068H602.386V200.704H603.706V197.91C603.706 196.957 604.006 196.179 604.608 195.578C605.224 194.962 606.008 194.654 606.962 194.654H607.578V196.018H606.962ZM613.702 211.352C612.719 211.352 611.839 211.117 611.062 210.648C610.285 210.179 609.676 209.526 609.236 208.69C608.796 207.839 608.576 206.886 608.576 205.83C608.576 204.774 608.789 203.835 609.214 203.014C609.654 202.178 610.255 201.525 611.018 201.056C611.795 200.587 612.675 200.352 613.658 200.352C614.641 200.352 615.521 200.587 616.298 201.056C617.075 201.525 617.684 202.178 618.124 203.014C618.564 203.85 618.784 204.796 618.784 205.852C618.784 206.908 618.564 207.854 618.124 208.69C617.699 209.526 617.097 210.179 616.32 210.648C615.557 211.117 614.685 211.352 613.702 211.352ZM613.658 209.988C614.362 209.988 614.985 209.812 615.528 209.46C616.085 209.108 616.518 208.617 616.826 207.986C617.134 207.355 617.288 206.644 617.288 205.852C617.288 205.06 617.134 204.349 616.826 203.718C616.518 203.087 616.085 202.596 615.528 202.244C614.985 201.892 614.362 201.716 613.658 201.716C612.969 201.716 612.353 201.892 611.81 202.244C611.267 202.596 610.842 203.087 610.534 203.718C610.226 204.334 610.072 205.038 610.072 205.83C610.072 206.637 610.226 207.355 610.534 207.986C610.842 208.617 611.267 209.108 611.81 209.46C612.353 209.812 612.969 209.988 613.658 209.988ZM625.962 200.352C626.314 200.352 626.651 200.403 626.974 200.506V201.87C626.666 201.723 626.328 201.65 625.962 201.65C625.331 201.65 624.744 201.826 624.202 202.178C623.659 202.53 623.219 203.043 622.882 203.718C622.559 204.378 622.398 205.163 622.398 206.072V211H620.902V200.704H622.398V202.772C622.794 202.009 623.292 201.415 623.894 200.99C624.51 200.565 625.199 200.352 625.962 200.352ZM633.805 211V202.068H632.045V200.704H633.805V197.294H635.301V200.704H637.677V202.068H635.301V211H633.805ZM644.22 200.352C644.938 200.352 645.598 200.499 646.2 200.792C646.816 201.085 647.3 201.518 647.652 202.09C648.018 202.662 648.202 203.337 648.202 204.114V211H646.706V204.774C646.706 202.735 645.796 201.716 643.978 201.716C642.922 201.716 642.13 202.09 641.602 202.838C641.074 203.586 640.81 204.591 640.81 205.852V211H639.314V195.028H640.81V202.42C641.162 201.76 641.624 201.254 642.196 200.902C642.782 200.535 643.457 200.352 644.22 200.352ZM655.51 200.352C656.434 200.352 657.27 200.579 658.018 201.034C658.766 201.489 659.352 202.112 659.778 202.904C660.203 203.681 660.416 204.554 660.416 205.522C660.416 205.801 660.408 206.013 660.394 206.16H651.924C651.982 207.216 652.327 208.118 652.958 208.866C653.588 209.614 654.446 209.988 655.532 209.988C656.412 209.988 657.138 209.827 657.71 209.504C658.296 209.167 658.766 208.705 659.118 208.118L660.306 208.91C659.822 209.673 659.184 210.274 658.392 210.714C657.6 211.139 656.661 211.352 655.576 211.352C654.578 211.352 653.691 211.117 652.914 210.648C652.136 210.179 651.528 209.526 651.088 208.69C650.648 207.854 650.428 206.908 650.428 205.852C650.428 204.796 650.64 203.85 651.066 203.014C651.506 202.178 652.107 201.525 652.87 201.056C653.647 200.587 654.527 200.352 655.51 200.352ZM658.92 204.928C658.773 203.857 658.414 203.058 657.842 202.53C657.27 201.987 656.492 201.716 655.51 201.716C654.556 201.716 653.772 202.024 653.156 202.64C652.554 203.241 652.173 204.004 652.012 204.928H658.92ZM667.684 200.352C668.036 200.352 668.374 200.403 668.696 200.506V201.87C668.388 201.723 668.051 201.65 667.684 201.65C667.054 201.65 666.467 201.826 665.924 202.178C665.382 202.53 664.942 203.043 664.604 203.718C664.282 204.378 664.12 205.163 664.12 206.072V211H662.624V200.704H664.12V202.772C664.516 202.009 665.015 201.415 665.616 200.99C666.232 200.565 666.922 200.352 667.684 200.352ZM679.649 200.704V211H678.153V209.482C677.728 210.069 677.207 210.531 676.591 210.868C675.975 211.191 675.301 211.352 674.567 211.352C673.585 211.352 672.705 211.117 671.927 210.648C671.15 210.179 670.541 209.526 670.101 208.69C669.661 207.854 669.441 206.901 669.441 205.83C669.441 204.774 669.654 203.835 670.079 203.014C670.519 202.178 671.121 201.525 671.883 201.056C672.661 200.587 673.541 200.352 674.523 200.352C675.271 200.352 675.953 200.521 676.569 200.858C677.2 201.181 677.728 201.643 678.153 202.244V200.704H679.649ZM674.523 209.988C675.227 209.988 675.851 209.812 676.393 209.46C676.951 209.108 677.383 208.617 677.691 207.986C677.999 207.355 678.153 206.644 678.153 205.852C678.153 205.06 677.999 204.349 677.691 203.718C677.383 203.087 676.951 202.596 676.393 202.244C675.851 201.892 675.227 201.716 674.523 201.716C673.834 201.716 673.218 201.892 672.675 202.244C672.133 202.596 671.707 203.087 671.399 203.718C671.091 204.334 670.937 205.038 670.937 205.83C670.937 206.637 671.091 207.355 671.399 207.986C671.707 208.617 672.133 209.108 672.675 209.46C673.218 209.812 673.834 209.988 674.523 209.988ZM687.515 200.352C688.498 200.352 689.378 200.587 690.155 201.056C690.933 201.525 691.541 202.178 691.981 203.014C692.421 203.85 692.641 204.803 692.641 205.874C692.641 206.93 692.421 207.876 691.981 208.712C691.556 209.533 690.955 210.179 690.177 210.648C689.415 211.117 688.542 211.352 687.559 211.352C686.811 211.352 686.122 211.191 685.491 210.868C684.875 210.531 684.355 210.061 683.929 209.46V215.4H682.433V200.704H683.929V202.222C684.355 201.635 684.875 201.181 685.491 200.858C686.107 200.521 686.782 200.352 687.515 200.352ZM687.559 209.988C688.249 209.988 688.865 209.812 689.407 209.46C689.95 209.108 690.375 208.624 690.683 208.008C690.991 207.377 691.145 206.666 691.145 205.874C691.145 205.067 690.991 204.349 690.683 203.718C690.375 203.087 689.95 202.596 689.407 202.244C688.865 201.892 688.249 201.716 687.559 201.716C686.855 201.716 686.225 201.892 685.667 202.244C685.125 202.596 684.699 203.087 684.391 203.718C684.083 204.349 683.929 205.06 683.929 205.852C683.929 206.644 684.083 207.355 684.391 207.986C684.699 208.617 685.125 209.108 685.667 209.46C686.225 209.812 686.855 209.988 687.559 209.988ZM695.557 211V200.704H697.053V211H695.557ZM696.305 198.702C695.968 198.702 695.682 198.585 695.447 198.35C695.227 198.115 695.117 197.829 695.117 197.492C695.117 197.169 695.227 196.898 695.447 196.678C695.682 196.443 695.968 196.326 696.305 196.326C696.628 196.326 696.907 196.443 697.141 196.678C697.376 196.898 697.493 197.177 697.493 197.514C697.493 197.837 697.376 198.115 697.141 198.35C696.907 198.585 696.628 198.702 696.305 198.702ZM704.26 211.352C703.263 211.352 702.383 211.139 701.62 210.714C700.872 210.289 700.3 209.687 699.904 208.91L701.246 208.25C701.789 209.409 702.852 209.988 704.436 209.988C705.199 209.988 705.829 209.849 706.328 209.57C706.827 209.291 707.076 208.859 707.076 208.272C707.076 207.671 706.871 207.223 706.46 206.93C706.064 206.637 705.36 206.446 704.348 206.358C702.94 206.241 701.928 205.925 701.312 205.412C700.711 204.899 700.41 204.217 700.41 203.366C700.41 202.413 700.755 201.672 701.444 201.144C702.133 200.616 703.079 200.352 704.282 200.352C706.321 200.352 707.707 201.159 708.44 202.772L707.098 203.432C706.849 202.845 706.482 202.413 705.998 202.134C705.529 201.855 704.92 201.716 704.172 201.716C703.409 201.716 702.823 201.855 702.412 202.134C702.016 202.413 701.818 202.809 701.818 203.322C701.818 203.806 702.031 204.202 702.456 204.51C702.896 204.803 703.644 204.994 704.7 205.082C706.005 205.199 706.973 205.522 707.604 206.05C708.249 206.563 708.572 207.245 708.572 208.096C708.572 208.785 708.374 209.379 707.978 209.878C707.582 210.362 707.054 210.729 706.394 210.978C705.734 211.227 705.023 211.352 704.26 211.352ZM711.385 211V202.068H709.625V200.704H711.385V197.294H712.881V200.704H715.257V202.068H712.881V211H711.385ZM720.524 211.352C719.526 211.352 718.646 211.139 717.884 210.714C717.136 210.289 716.564 209.687 716.168 208.91L717.51 208.25C718.052 209.409 719.116 209.988 720.7 209.988C721.462 209.988 722.093 209.849 722.592 209.57C723.09 209.291 723.34 208.859 723.34 208.272C723.34 207.671 723.134 207.223 722.724 206.93C722.328 206.637 721.624 206.446 720.612 206.358C719.204 206.241 718.192 205.925 717.576 205.412C716.974 204.899 716.674 204.217 716.674 203.366C716.674 202.413 717.018 201.672 717.708 201.144C718.397 200.616 719.343 200.352 720.546 200.352C722.584 200.352 723.97 201.159 724.704 202.772L723.362 203.432C723.112 202.845 722.746 202.413 722.262 202.134C721.792 201.855 721.184 201.716 720.436 201.716C719.673 201.716 719.086 201.855 718.676 202.134C718.28 202.413 718.082 202.809 718.082 203.322C718.082 203.806 718.294 204.202 718.72 204.51C719.16 204.803 719.908 204.994 720.964 205.082C722.269 205.199 723.237 205.522 723.868 206.05C724.513 206.563 724.836 207.245 724.836 208.096C724.836 208.785 724.638 209.379 724.242 209.878C723.846 210.362 723.318 210.729 722.658 210.978C721.998 211.227 721.286 211.352 720.524 211.352Z" fill="#0A1417"/>
<circle cx="584.995" cy="64.9953" r="64.995" fill="#DCDCDC"/>
<path fill-rule="evenodd" clip-rule="evenodd" d="M522.691 83.5299C530.67 110.395 555.549 129.99 585.005 129.99C620.901 129.99 650 100.891 650 64.995C650 29.0992 620.901 -4.57764e-05 585.005 -4.57764e-05C584.903 -4.57764e-05 584.801 0.000183105 584.7 0.000656128V64.69H584.154L522.691 83.5299Z" fill="#428EFC"/>
<path fill-rule="evenodd" clip-rule="evenodd" d="M51.8431 26.966C51.8431 31.9178 47.5077 35.932 42.1598 35.932C36.8119 35.932 32.4766 31.9178 32.4766 26.966C32.4766 22.0142 36.8119 18 42.1598 18C47.5077 18 51.8431 22.0142 51.8431 26.966ZM31.0422 38.0837H54.7124V38.0838L56.147 38.0837C56.1521 38.0837 56.1572 38.0837 56.1623 38.0838H56.1964L56.1964 38.0839C60.9273 38.1105 64.7543 41.9539 64.7543 46.6911V76.0995C64.7543 78.4764 62.8275 80.4032 60.4506 80.4032C58.0738 80.4032 56.147 78.4764 56.147 76.0995V50.9947H54.7124V81.1204H41.4691V124.765C41.4691 127.599 39.1721 129.896 36.3387 129.896C33.5156 129.896 31.223 127.615 31.2084 124.792L30.9999 84.5L31.0422 76.2077V50.9947H29.6073V76.0994C29.6073 78.4763 27.6805 80.4031 25.3037 80.4031C22.9268 80.4031 21 78.4763 21 76.0994V46.691C21 42.2449 24.3711 38.5861 28.6968 38.1313L28.6964 38.0838H29.5712C29.5832 38.0837 29.5953 38.0837 29.6073 38.0837V38.0838H31.0422V38.0837ZM43.2357 81.1205H54.7122V124.157C54.7122 127.326 52.1431 129.895 48.9739 129.895C45.8048 129.895 43.2357 127.326 43.2357 124.157V81.1205Z" fill="#428EFC"/>
<ellipse cx="99.5421" cy="26.966" rx="9.68326" ry="8.96598" fill="#DCDCDC"/>
<path fill-rule="evenodd" clip-rule="evenodd" d="M166.608 26.966C166.608 31.9178 162.272 35.932 156.925 35.932C151.577 35.932 147.241 31.9178 147.241 26.966C147.241 22.0142 151.577 18 156.925 18C162.272 18 166.608 22.0142 166.608 26.966ZM145.806 38.0837H169.477H170.911H171.5L171.503 38.1037C175.981 38.4081 179.518 42.1364 179.518 46.691V76.0994C179.518 78.4763 177.592 80.4031 175.215 80.4031C172.838 80.4031 170.911 78.4763 170.911 76.0994V50.9947H169.477V81.1204H156.776V124.437C156.776 127.452 154.332 129.896 151.317 129.896C148.303 129.896 145.859 127.452 145.859 124.437V81.1204H145.806V50.9947H144.372V76.0994C144.372 78.4763 142.445 80.4031 140.068 80.4031C137.691 80.4031 135.764 78.4763 135.764 76.0994V46.691C135.764 41.9373 139.618 38.0837 144.372 38.0837H145.806ZM158 81.1205H169.477V124.157C169.477 127.326 166.908 129.895 163.739 129.895C160.569 129.895 158 127.326 158 124.157V81.1205Z" fill="#DCDCDC"/>
<path fill-rule="evenodd" clip-rule="evenodd" d="M224.708 26.966C224.708 31.9178 220.373 35.932 215.025 35.932C209.677 35.932 205.341 31.9178 205.341 26.966C205.341 22.0142 209.677 18 215.025 18C220.373 18 224.708 22.0142 224.708 26.966ZM203.906 38.0837H227.577H229.012H229.5L229.502 38.0974C234.028 38.3518 237.619 42.102 237.619 46.691V76.0994C237.619 78.4763 235.692 80.4031 233.315 80.4031C230.938 80.4031 229.012 78.4763 229.012 76.0994V50.9947H227.577V81.1204H214.771V124.437C214.771 127.452 212.327 129.896 209.312 129.896C206.298 129.896 203.854 127.452 203.854 124.437V50.9947H202.472V76.0994C202.472 78.4763 200.545 80.4031 198.168 80.4031C195.791 80.4031 193.864 78.4763 193.864 76.0994V46.691C193.864 41.9373 197.718 38.0837 202.472 38.0837H203.906ZM216.1 81.1205H227.577V124.157C227.577 127.326 225.008 129.895 221.839 129.895C218.67 129.895 216.1 127.326 216.1 124.157V81.1205Z" fill="#DCDCDC"/>
<path fill-rule="evenodd" clip-rule="evenodd" d="M282.089 26.966C282.089 31.9178 277.754 35.932 272.406 35.932C267.058 35.932 262.723 31.9178 262.723 26.966C262.723 22.0142 267.058 18 272.406 18C277.754 18 282.089 22.0142 282.089 26.966ZM261.288 38.0837H284.958H286.393H287L287.004 38.105C291.472 38.4182 295 42.1426 295 46.691V76.0994C295 78.4763 293.073 80.4031 290.697 80.4031C288.32 80.4031 286.393 78.4763 286.393 76.0994V50.9947H284.958V81.1204H272.082V124.437C272.082 127.452 269.639 129.896 266.624 129.896C263.61 129.896 261.166 127.452 261.166 124.437V50.9947H259.853V76.0994C259.853 78.4763 257.927 80.4031 255.55 80.4031C253.173 80.4031 251.246 78.4763 251.246 76.0994V46.691C251.246 41.9373 255.1 38.0837 259.853 38.0837H261.288ZM273.482 81.1205H284.959V124.157C284.959 127.326 282.39 129.895 279.221 129.895C276.051 129.895 273.482 127.326 273.482 124.157V81.1205Z" fill="#DCDCDC"/>
<path fill-rule="evenodd" clip-rule="evenodd" d="M99.5419 35.932C104.89 35.932 109.225 31.9178 109.225 26.966C109.225 22.0142 104.89 18 99.5419 18C94.194 18 89.8587 22.0142 89.8587 26.966C89.8587 31.9178 94.194 35.932 99.5419 35.932ZM107.791 38.0839H88.4243V81.1205V81.1207V124.516C88.4243 127.487 90.8328 129.895 93.8039 129.895C96.775 129.895 99.1835 127.487 99.1835 124.516V81.1207H100.618V124.157C100.618 127.326 103.187 129.895 106.357 129.895C109.526 129.895 112.095 127.326 112.095 124.157V81.1205H112.095V50.995H113.529V76.0997C113.529 78.4766 115.456 80.4034 117.833 80.4034C120.21 80.4034 122.136 78.4766 122.136 76.0997V46.6913C122.136 42.4265 119.035 38.8861 114.964 38.203V38.0839H113.529H112.095H107.791Z" fill="#DCDCDC"/>
<path fill-rule="evenodd" clip-rule="evenodd" d="M94.1628 34.4975V19.4882C94.1628 19.4453 93.2064 20.1519 92.7282 20.5105C92.25 20.8692 91.7447 21.2937 91.2937 21.9451C90.9372 22.4601 90.5764 23.3797 90.5764 23.3797C90.5764 23.3797 90.3459 23.8925 90.2178 24.4556L90.1921 24.5681C90.0408 25.2315 89.881 25.932 89.8592 26.6075C89.851 26.8623 89.8327 27.0835 89.8156 27.2906C89.7755 27.7754 89.7418 28.1822 89.8592 28.7593C89.9919 29.4118 90.1835 29.7855 90.4613 30.327L90.4613 30.327L90.4613 30.327C90.4981 30.3989 90.5365 30.4737 90.5764 30.5525C91.0331 31.4533 91.3403 31.9492 92.0109 32.7043C92.7373 33.5222 94.1628 34.4975 94.1628 34.4975ZM78.3823 46.6913C78.3823 41.9376 82.236 38.0839 86.9897 38.0839H94.1625V50.9949H94.1628V129.896C90.9936 129.896 88.4245 127.326 88.4245 124.157V50.995H86.9897V76.0997C86.9897 78.4766 85.0628 80.4034 82.686 80.4034C80.3091 80.4034 78.3823 78.4766 78.3823 76.0997V46.6913Z" fill="#428EFC"/>
</svg>
