<svg width="700" height="223" viewBox="0 0 700 223" fill="none" xmlns="http://www.w3.org/2000/svg">
<path d="M8.33 161.85C10.0333 161.85 11.4917 162.153 12.705 162.76C13.9417 163.367 14.875 164.183 15.505 165.21C16.1583 166.237 16.485 167.368 16.485 168.605C16.485 169.865 16.2283 171.067 15.715 172.21C15.2017 173.353 14.2917 174.672 12.985 176.165C11.6783 177.635 9.77667 179.502 7.28 181.765H16.975L16.415 186H1.015V182.08C3.885 179.257 5.97333 177.133 7.28 175.71C8.58667 174.263 9.49667 173.062 10.01 172.105C10.5467 171.148 10.815 170.168 10.815 169.165C10.815 168.208 10.535 167.462 9.975 166.925C9.43833 166.365 8.70333 166.085 7.77 166.085C6.93 166.085 6.18333 166.283 5.53 166.68C4.87667 167.053 4.18833 167.672 3.465 168.535L0.21 165.945C1.19 164.662 2.35667 163.658 3.71 162.935C5.08667 162.212 6.62667 161.85 8.33 161.85ZM33.9711 166.295H25.3961V171.265C26.4927 170.752 27.6594 170.495 28.8961 170.495C30.2027 170.495 31.3694 170.798 32.3961 171.405C33.4227 172.012 34.2277 172.898 34.8111 174.065C35.3944 175.232 35.6861 176.608 35.6861 178.195C35.6861 179.852 35.3011 181.322 34.5311 182.605C33.7844 183.865 32.6994 184.845 31.2761 185.545C29.8761 186.245 28.2544 186.595 26.4111 186.595C23.2144 186.595 20.5894 185.405 18.5361 183.025L21.6161 180.155C22.8994 181.672 24.4277 182.43 26.2011 182.43C27.4144 182.43 28.3477 182.068 29.0011 181.345C29.6777 180.622 30.0161 179.583 30.0161 178.23C30.0161 175.593 28.9077 174.275 26.6911 174.275C26.2244 174.275 25.7694 174.345 25.3261 174.485C24.8827 174.602 24.3927 174.812 23.8561 175.115H20.1111V162.34H34.6011L33.9711 166.295ZM57.6521 160.8L61.0471 162.97L44.8421 187.4L41.4471 185.23L57.6521 160.8ZM43.4071 161.85C44.5738 161.85 45.6238 162.107 46.5571 162.62C47.5138 163.133 48.2604 163.868 48.7971 164.825C49.3571 165.782 49.6371 166.89 49.6371 168.15C49.6371 169.41 49.3571 170.518 48.7971 171.475C48.2604 172.432 47.5138 173.167 46.5571 173.68C45.6238 174.193 44.5738 174.45 43.4071 174.45C42.2404 174.45 41.1788 174.193 40.2221 173.68C39.2888 173.143 38.5421 172.408 37.9821 171.475C37.4454 170.518 37.1771 169.41 37.1771 168.15C37.1771 166.89 37.4454 165.793 37.9821 164.86C38.5421 163.903 39.2888 163.168 40.2221 162.655C41.1788 162.118 42.2404 161.85 43.4071 161.85ZM43.4071 165.175C41.8904 165.175 41.1321 166.167 41.1321 168.15C41.1321 169.013 41.2954 169.725 41.6221 170.285C41.9721 170.845 42.5671 171.125 43.4071 171.125C44.9004 171.125 45.6471 170.133 45.6471 168.15C45.6471 166.167 44.9004 165.175 43.4071 165.175ZM58.9821 174.03C60.1488 174.03 61.1988 174.287 62.1321 174.8C63.0888 175.313 63.8354 176.048 64.3721 177.005C64.9321 177.938 65.2121 179.035 65.2121 180.295C65.2121 181.555 64.9321 182.663 64.3721 183.62C63.8354 184.577 63.0888 185.312 62.1321 185.825C61.1988 186.338 60.1488 186.595 58.9821 186.595C57.8154 186.595 56.7538 186.338 55.7971 185.825C54.8404 185.312 54.0821 184.577 53.5221 183.62C52.9854 182.663 52.7171 181.555 52.7171 180.295C52.7171 179.035 52.9854 177.938 53.5221 177.005C54.0821 176.048 54.8404 175.313 55.7971 174.8C56.7538 174.287 57.8154 174.03 58.9821 174.03ZM58.9821 177.355C57.4654 177.355 56.7071 178.335 56.7071 180.295C56.7071 181.158 56.8704 181.882 57.1971 182.465C57.5471 183.025 58.1421 183.305 58.9821 183.305C60.4754 183.305 61.2221 182.302 61.2221 180.295C61.2221 178.335 60.4754 177.355 58.9821 177.355ZM85.9219 174.768V186H84.2899V184.128C83.9059 184.848 83.3939 185.408 82.7539 185.808C82.1299 186.192 81.4019 186.384 80.5699 186.384C79.7859 186.384 79.0579 186.224 78.3859 185.904C77.7299 185.584 77.2019 185.112 76.8019 184.488C76.4179 183.864 76.2259 183.128 76.2259 182.28V174.768H77.8579V181.56C77.8579 183.784 78.8499 184.896 80.8339 184.896C81.9859 184.896 82.8499 184.488 83.4259 183.672C84.0019 182.856 84.2899 181.76 84.2899 180.384V174.768H85.9219ZM92.9085 186.384C91.8205 186.384 90.8605 186.152 90.0285 185.688C89.2125 185.224 88.5885 184.568 88.1565 183.72L89.6205 183C90.2125 184.264 91.3725 184.896 93.1005 184.896C93.9325 184.896 94.6205 184.744 95.1645 184.44C95.7085 184.136 95.9805 183.664 95.9805 183.024C95.9805 182.368 95.7565 181.88 95.3085 181.56C94.8765 181.24 94.1085 181.032 93.0045 180.936C91.4685 180.808 90.3645 180.464 89.6925 179.904C89.0365 179.344 88.7085 178.6 88.7085 177.672C88.7085 176.632 89.0845 175.824 89.8365 175.248C90.5885 174.672 91.6205 174.384 92.9325 174.384C95.1565 174.384 96.6685 175.264 97.4685 177.024L96.0045 177.744C95.7325 177.104 95.3325 176.632 94.8045 176.328C94.2925 176.024 93.6285 175.872 92.8125 175.872C91.9805 175.872 91.3405 176.024 90.8925 176.328C90.4605 176.632 90.2445 177.064 90.2445 177.624C90.2445 178.152 90.4765 178.584 90.9405 178.92C91.4205 179.24 92.2365 179.448 93.3885 179.544C94.8125 179.672 95.8685 180.024 96.5565 180.6C97.2605 181.16 97.6125 181.904 97.6125 182.832C97.6125 183.584 97.3965 184.232 96.9645 184.776C96.5325 185.304 95.9565 185.704 95.2365 185.976C94.5165 186.248 93.7405 186.384 92.9085 186.384ZM104.929 174.384C105.937 174.384 106.849 174.632 107.665 175.128C108.481 175.624 109.121 176.304 109.585 177.168C110.049 178.016 110.281 178.968 110.281 180.024C110.281 180.328 110.273 180.56 110.257 180.72H101.017C101.081 181.872 101.457 182.856 102.145 183.672C102.833 184.488 103.769 184.896 104.953 184.896C105.913 184.896 106.705 184.72 107.329 184.368C107.969 184 108.481 183.496 108.865 182.856L110.161 183.72C109.633 184.552 108.937 185.208 108.073 185.688C107.209 186.152 106.185 186.384 105.001 186.384C103.913 186.384 102.945 186.128 102.097 185.616C101.249 185.104 100.585 184.392 100.105 183.48C99.6253 182.568 99.3853 181.536 99.3853 180.384C99.3853 179.232 99.6173 178.2 100.081 177.288C100.561 176.376 101.217 175.664 102.049 175.152C102.897 174.64 103.857 174.384 104.929 174.384ZM108.649 179.376C108.489 178.208 108.097 177.336 107.473 176.76C106.849 176.168 106.001 175.872 104.929 175.872C103.889 175.872 103.033 176.208 102.361 176.88C101.705 177.536 101.289 178.368 101.113 179.376H108.649ZM122.906 186.384C121.818 186.384 120.85 186.128 120.002 185.616C119.154 185.104 118.49 184.392 118.01 183.48C117.53 182.568 117.29 181.536 117.29 180.384C117.29 179.232 117.522 178.2 117.986 177.288C118.466 176.376 119.13 175.664 119.978 175.152C120.826 174.64 121.786 174.384 122.858 174.384C123.77 174.384 124.562 174.584 125.234 174.984C125.922 175.368 126.546 175.92 127.106 176.64L125.906 177.576C125.122 176.44 124.106 175.872 122.858 175.872C122.106 175.872 121.426 176.064 120.818 176.448C120.226 176.832 119.762 177.368 119.426 178.056C119.09 178.744 118.922 179.52 118.922 180.384C118.922 181.248 119.09 182.024 119.426 182.712C119.762 183.4 120.226 183.936 120.818 184.32C121.426 184.704 122.106 184.896 122.858 184.896C123.626 184.896 124.258 184.768 124.754 184.512C125.25 184.24 125.698 183.848 126.098 183.336L127.37 184.224C126.842 184.88 126.186 185.408 125.402 185.808C124.634 186.192 123.802 186.384 122.906 186.384ZM129.592 186V168.576H131.224V186H129.592ZM139.243 186.384C138.171 186.384 137.211 186.128 136.363 185.616C135.515 185.104 134.851 184.392 134.371 183.48C133.891 182.552 133.651 181.512 133.651 180.36C133.651 179.208 133.883 178.184 134.347 177.288C134.827 176.376 135.483 175.664 136.315 175.152C137.163 174.64 138.123 174.384 139.195 174.384C140.267 174.384 141.227 174.64 142.075 175.152C142.923 175.664 143.587 176.376 144.067 177.288C144.547 178.2 144.787 179.232 144.787 180.384C144.787 181.536 144.547 182.568 144.067 183.48C143.603 184.392 142.947 185.104 142.099 185.616C141.267 186.128 140.315 186.384 139.243 186.384ZM139.195 184.896C139.963 184.896 140.643 184.704 141.235 184.32C141.843 183.936 142.315 183.4 142.651 182.712C142.987 182.024 143.155 181.248 143.155 180.384C143.155 179.52 142.987 178.744 142.651 178.056C142.315 177.368 141.843 176.832 141.235 176.448C140.643 176.064 139.963 175.872 139.195 175.872C138.443 175.872 137.771 176.064 137.179 176.448C136.587 176.832 136.123 177.368 135.787 178.056C135.451 178.728 135.283 179.496 135.283 180.36C135.283 181.24 135.451 182.024 135.787 182.712C136.123 183.4 136.587 183.936 137.179 184.32C137.771 184.704 138.443 184.896 139.195 184.896ZM156.961 174.768V186H155.329V184.128C154.945 184.848 154.433 185.408 153.793 185.808C153.169 186.192 152.441 186.384 151.609 186.384C150.825 186.384 150.097 186.224 149.425 185.904C148.769 185.584 148.241 185.112 147.841 184.488C147.457 183.864 147.265 183.128 147.265 182.28V174.768H148.897V181.56C148.897 183.784 149.889 184.896 151.873 184.896C153.025 184.896 153.889 184.488 154.465 183.672C155.041 182.856 155.329 181.76 155.329 180.384V174.768H156.961ZM170.428 168.576V186H168.796V184.344C168.332 184.984 167.764 185.488 167.092 185.856C166.42 186.208 165.684 186.384 164.884 186.384C163.812 186.384 162.852 186.128 162.004 185.616C161.156 185.104 160.492 184.392 160.012 183.48C159.532 182.568 159.292 181.528 159.292 180.36C159.292 179.208 159.524 178.184 159.988 177.288C160.468 176.376 161.124 175.664 161.956 175.152C162.804 174.64 163.764 174.384 164.836 174.384C165.652 174.384 166.396 174.568 167.068 174.936C167.756 175.288 168.332 175.792 168.796 176.448V168.576H170.428ZM164.836 184.896C165.604 184.896 166.284 184.704 166.876 184.32C167.484 183.936 167.956 183.4 168.292 182.712C168.628 182.024 168.796 181.248 168.796 180.384C168.796 179.52 168.628 178.744 168.292 178.056C167.956 177.368 167.484 176.832 166.876 176.448C166.284 176.064 165.604 175.872 164.836 175.872C164.084 175.872 163.412 176.064 162.82 176.448C162.228 176.832 161.764 177.368 161.428 178.056C161.092 178.728 160.924 179.496 160.924 180.36C160.924 181.24 161.092 182.024 161.428 182.712C161.764 183.4 162.228 183.936 162.82 184.32C163.412 184.704 164.084 184.896 164.836 184.896ZM182.744 186.384C181.656 186.384 180.696 186.152 179.864 185.688C179.048 185.224 178.424 184.568 177.992 183.72L179.456 183C180.048 184.264 181.208 184.896 182.936 184.896C183.768 184.896 184.456 184.744 185 184.44C185.544 184.136 185.816 183.664 185.816 183.024C185.816 182.368 185.592 181.88 185.144 181.56C184.712 181.24 183.944 181.032 182.84 180.936C181.304 180.808 180.2 180.464 179.528 179.904C178.872 179.344 178.544 178.6 178.544 177.672C178.544 176.632 178.92 175.824 179.672 175.248C180.424 174.672 181.456 174.384 182.768 174.384C184.992 174.384 186.504 175.264 187.304 177.024L185.84 177.744C185.568 177.104 185.168 176.632 184.64 176.328C184.128 176.024 183.464 175.872 182.648 175.872C181.816 175.872 181.176 176.024 180.728 176.328C180.296 176.632 180.08 177.064 180.08 177.624C180.08 178.152 180.312 178.584 180.776 178.92C181.256 179.24 182.072 179.448 183.224 179.544C184.648 179.672 185.704 180.024 186.392 180.6C187.096 181.16 187.448 181.904 187.448 182.832C187.448 183.584 187.232 184.232 186.8 184.776C186.368 185.304 185.792 185.704 185.072 185.976C184.352 186.248 183.576 186.384 182.744 186.384ZM190.517 186V176.256H188.597V174.768H190.517V171.048H192.149V174.768H194.741V176.256H192.149V186H190.517ZM201.423 186.384C200.351 186.384 199.391 186.128 198.543 185.616C197.695 185.104 197.031 184.392 196.551 183.48C196.071 182.552 195.831 181.512 195.831 180.36C195.831 179.208 196.063 178.184 196.527 177.288C197.007 176.376 197.663 175.664 198.495 175.152C199.343 174.64 200.303 174.384 201.375 174.384C202.447 174.384 203.407 174.64 204.255 175.152C205.103 175.664 205.767 176.376 206.247 177.288C206.727 178.2 206.967 179.232 206.967 180.384C206.967 181.536 206.727 182.568 206.247 183.48C205.783 184.392 205.127 185.104 204.279 185.616C203.447 186.128 202.495 186.384 201.423 186.384ZM201.375 184.896C202.143 184.896 202.823 184.704 203.415 184.32C204.023 183.936 204.495 183.4 204.831 182.712C205.167 182.024 205.335 181.248 205.335 180.384C205.335 179.52 205.167 178.744 204.831 178.056C204.495 177.368 204.023 176.832 203.415 176.448C202.823 176.064 202.143 175.872 201.375 175.872C200.623 175.872 199.951 176.064 199.359 176.448C198.767 176.832 198.303 177.368 197.967 178.056C197.631 178.728 197.463 179.496 197.463 180.36C197.463 181.24 197.631 182.024 197.967 182.712C198.303 183.4 198.767 183.936 199.359 184.32C199.951 184.704 200.623 184.896 201.375 184.896ZM214.797 174.384C215.181 174.384 215.549 174.44 215.901 174.552V176.04C215.565 175.88 215.197 175.8 214.797 175.8C214.109 175.8 213.469 175.992 212.877 176.376C212.285 176.76 211.805 177.32 211.437 178.056C211.085 178.776 210.909 179.632 210.909 180.624V186H209.277V174.768H210.909V177.024C211.341 176.192 211.885 175.544 212.541 175.08C213.213 174.616 213.965 174.384 214.797 174.384ZM227.849 174.768V186H226.217V184.344C225.753 184.984 225.185 185.488 224.513 185.856C223.841 186.208 223.105 186.384 222.305 186.384C221.233 186.384 220.273 186.128 219.425 185.616C218.577 185.104 217.913 184.392 217.433 183.48C216.953 182.568 216.713 181.528 216.713 180.36C216.713 179.208 216.945 178.184 217.409 177.288C217.889 176.376 218.545 175.664 219.377 175.152C220.225 174.64 221.185 174.384 222.257 174.384C223.073 174.384 223.817 174.568 224.489 174.936C225.177 175.288 225.753 175.792 226.217 176.448V174.768H227.849ZM222.257 184.896C223.025 184.896 223.705 184.704 224.297 184.32C224.905 183.936 225.377 183.4 225.713 182.712C226.049 182.024 226.217 181.248 226.217 180.384C226.217 179.52 226.049 178.744 225.713 178.056C225.377 177.368 224.905 176.832 224.297 176.448C223.705 176.064 223.025 175.872 222.257 175.872C221.505 175.872 220.833 176.064 220.241 176.448C219.649 176.832 219.185 177.368 218.849 178.056C218.513 178.728 218.345 179.496 218.345 180.36C218.345 181.24 218.513 182.024 218.849 182.712C219.185 183.4 219.649 183.936 220.241 184.32C220.833 184.704 221.505 184.896 222.257 184.896ZM241.303 174.768V185.568C241.303 186.576 241.095 187.472 240.679 188.256C240.263 189.056 239.679 189.68 238.927 190.128C238.175 190.576 237.319 190.8 236.359 190.8H231.703V189.312H236.359C237.335 189.312 238.127 188.96 238.735 188.256C239.359 187.552 239.671 186.656 239.671 185.568V184.344C239.207 184.984 238.639 185.488 237.967 185.856C237.295 186.208 236.559 186.384 235.759 186.384C234.687 186.384 233.727 186.128 232.879 185.616C232.031 185.104 231.367 184.392 230.887 183.48C230.407 182.568 230.167 181.528 230.167 180.36C230.167 179.208 230.399 178.184 230.863 177.288C231.343 176.376 231.999 175.664 232.831 175.152C233.679 174.64 234.639 174.384 235.711 174.384C236.527 174.384 237.271 174.568 237.943 174.936C238.631 175.288 239.207 175.792 239.671 176.448V174.768H241.303ZM235.711 184.896C236.479 184.896 237.159 184.704 237.751 184.32C238.359 183.936 238.831 183.4 239.167 182.712C239.503 182.024 239.671 181.248 239.671 180.384C239.671 179.52 239.503 178.744 239.167 178.056C238.831 177.368 238.359 176.832 237.751 176.448C237.159 176.064 236.479 175.872 235.711 175.872C234.959 175.872 234.287 176.064 233.695 176.448C233.103 176.832 232.639 177.368 232.303 178.056C231.967 178.728 231.799 179.496 231.799 180.36C231.799 181.24 231.967 182.024 232.303 182.712C232.639 183.4 233.103 183.936 233.695 184.32C234.287 184.704 234.959 184.896 235.711 184.896ZM249.164 174.384C250.172 174.384 251.084 174.632 251.9 175.128C252.716 175.624 253.356 176.304 253.82 177.168C254.284 178.016 254.516 178.968 254.516 180.024C254.516 180.328 254.508 180.56 254.492 180.72H245.252C245.316 181.872 245.692 182.856 246.38 183.672C247.068 184.488 248.004 184.896 249.188 184.896C250.148 184.896 250.94 184.72 251.564 184.368C252.204 184 252.716 183.496 253.1 182.856L254.396 183.72C253.868 184.552 253.172 185.208 252.308 185.688C251.444 186.152 250.42 186.384 249.236 186.384C248.148 186.384 247.18 186.128 246.332 185.616C245.484 185.104 244.82 184.392 244.34 183.48C243.86 182.568 243.62 181.536 243.62 180.384C243.62 179.232 243.852 178.2 244.316 177.288C244.796 176.376 245.452 175.664 246.284 175.152C247.132 174.64 248.092 174.384 249.164 174.384ZM252.884 179.376C252.724 178.208 252.332 177.336 251.708 176.76C251.084 176.168 250.236 175.872 249.164 175.872C248.124 175.872 247.268 176.208 246.596 176.88C245.94 177.536 245.524 178.368 245.348 179.376H252.884ZM2.112 217V207.256H0.192V205.768H2.112V202.048H3.744V205.768H6.336V207.256H3.744V217H2.112ZM13.0174 217.384C11.9454 217.384 10.9854 217.128 10.1374 216.616C9.28938 216.104 8.62538 215.392 8.14538 214.48C7.66538 213.552 7.42538 212.512 7.42538 211.36C7.42538 210.208 7.65738 209.184 8.12138 208.288C8.60138 207.376 9.25738 206.664 10.0894 206.152C10.9374 205.64 11.8974 205.384 12.9694 205.384C14.0414 205.384 15.0014 205.64 15.8494 206.152C16.6974 206.664 17.3614 207.376 17.8414 208.288C18.3214 209.2 18.5614 210.232 18.5614 211.384C18.5614 212.536 18.3214 213.568 17.8414 214.48C17.3774 215.392 16.7214 216.104 15.8734 216.616C15.0414 217.128 14.0894 217.384 13.0174 217.384ZM12.9694 215.896C13.7374 215.896 14.4174 215.704 15.0094 215.32C15.6174 214.936 16.0894 214.4 16.4254 213.712C16.7614 213.024 16.9294 212.248 16.9294 211.384C16.9294 210.52 16.7614 209.744 16.4254 209.056C16.0894 208.368 15.6174 207.832 15.0094 207.448C14.4174 207.064 13.7374 206.872 12.9694 206.872C12.2174 206.872 11.5454 207.064 10.9534 207.448C10.3614 207.832 9.89738 208.368 9.56138 209.056C9.22538 209.728 9.05738 210.496 9.05738 211.36C9.05738 212.24 9.22538 213.024 9.56138 213.712C9.89738 214.4 10.3614 214.936 10.9534 215.32C11.5454 215.704 12.2174 215.896 12.9694 215.896ZM31.5671 205.384C32.3511 205.384 33.0711 205.544 33.7271 205.864C34.3991 206.184 34.9271 206.656 35.3111 207.28C35.7111 207.904 35.9111 208.64 35.9111 209.488V217H34.2791V210.208C34.2791 207.984 33.2871 206.872 31.3031 206.872C30.1511 206.872 29.2871 207.28 28.7111 208.096C28.1351 208.912 27.8471 210.008 27.8471 211.384V217H26.2151V199.576H27.8471V207.64C28.2311 206.92 28.7351 206.368 29.3591 205.984C29.9991 205.584 30.7351 205.384 31.5671 205.384ZM43.8834 205.384C44.8914 205.384 45.8034 205.632 46.6194 206.128C47.4354 206.624 48.0754 207.304 48.5394 208.168C49.0034 209.016 49.2354 209.968 49.2354 211.024C49.2354 211.328 49.2274 211.56 49.2114 211.72H39.9714C40.0354 212.872 40.4114 213.856 41.0994 214.672C41.7874 215.488 42.7234 215.896 43.9074 215.896C44.8674 215.896 45.6594 215.72 46.2834 215.368C46.9234 215 47.4354 214.496 47.8194 213.856L49.1154 214.72C48.5874 215.552 47.8914 216.208 47.0274 216.688C46.1634 217.152 45.1394 217.384 43.9554 217.384C42.8674 217.384 41.8994 217.128 41.0514 216.616C40.2034 216.104 39.5394 215.392 39.0594 214.48C38.5794 213.568 38.3394 212.536 38.3394 211.384C38.3394 210.232 38.5714 209.2 39.0354 208.288C39.5154 207.376 40.1714 206.664 41.0034 206.152C41.8514 205.64 42.8114 205.384 43.8834 205.384ZM47.6034 210.376C47.4434 209.208 47.0514 208.336 46.4274 207.76C45.8034 207.168 44.9554 206.872 43.8834 206.872C42.8434 206.872 41.9874 207.208 41.3154 207.88C40.6594 208.536 40.2434 209.368 40.0674 210.376H47.6034ZM51.7648 217V199.576H53.3968V217H51.7648ZM62.0878 205.384C63.1598 205.384 64.1198 205.64 64.9678 206.152C65.8158 206.664 66.4798 207.376 66.9598 208.288C67.4398 209.2 67.6798 210.24 67.6798 211.408C67.6798 212.56 67.4398 213.592 66.9598 214.504C66.4958 215.4 65.8398 216.104 64.9918 216.616C64.1598 217.128 63.2078 217.384 62.1358 217.384C61.3198 217.384 60.5678 217.208 59.8798 216.856C59.2078 216.488 58.6398 215.976 58.1758 215.32V221.8H56.5438V205.768H58.1758V207.424C58.6398 206.784 59.2078 206.288 59.8798 205.936C60.5518 205.568 61.2878 205.384 62.0878 205.384ZM62.1358 215.896C62.8878 215.896 63.5598 215.704 64.1518 215.32C64.7438 214.936 65.2078 214.408 65.5438 213.736C65.8798 213.048 66.0478 212.272 66.0478 211.408C66.0478 210.528 65.8798 209.744 65.5438 209.056C65.2078 208.368 64.7438 207.832 64.1518 207.448C63.5598 207.064 62.8878 206.872 62.1358 206.872C61.3678 206.872 60.6798 207.064 60.0718 207.448C59.4798 207.832 59.0158 208.368 58.6798 209.056C58.3438 209.744 58.1758 210.52 58.1758 211.384C58.1758 212.248 58.3438 213.024 58.6798 213.712C59.0158 214.4 59.4798 214.936 60.0718 215.32C60.6798 215.704 61.3678 215.896 62.1358 215.896ZM88.9967 205.768H90.5567L86.9087 217H85.2047L82.4687 208.384L79.5167 217H77.8847L74.1887 205.768H75.9167L78.7967 214.696L81.7247 205.768H83.3087L86.1407 214.648L88.9967 205.768ZM93.4547 217V205.768H95.0867V217H93.4547ZM94.2707 203.584C93.9027 203.584 93.5907 203.456 93.3347 203.2C93.0947 202.944 92.9747 202.632 92.9747 202.264C92.9747 201.912 93.0947 201.616 93.3347 201.376C93.5907 201.12 93.9027 200.992 94.2707 200.992C94.6227 200.992 94.9267 201.12 95.1827 201.376C95.4387 201.616 95.5667 201.92 95.5667 202.288C95.5667 202.64 95.4387 202.944 95.1827 203.2C94.9267 203.456 94.6227 203.584 94.2707 203.584ZM99.5886 217V207.256H97.6686V205.768H99.5886V202.048H101.221V205.768H103.813V207.256H101.221V217H99.5886ZM110.95 205.384C111.734 205.384 112.454 205.544 113.11 205.864C113.782 206.184 114.31 206.656 114.694 207.28C115.094 207.904 115.294 208.64 115.294 209.488V217H113.662V210.208C113.662 207.984 112.67 206.872 110.686 206.872C109.534 206.872 108.67 207.28 108.094 208.096C107.518 208.912 107.23 210.008 107.23 211.384V217H105.598V199.576H107.23V207.64C107.614 206.92 108.118 206.368 108.742 205.984C109.382 205.584 110.118 205.384 110.95 205.384ZM124.362 217V207.256H122.442V205.768H124.362V202.048H125.994V205.768H128.586V207.256H125.994V217H124.362ZM135.723 205.384C136.507 205.384 137.227 205.544 137.883 205.864C138.555 206.184 139.083 206.656 139.467 207.28C139.867 207.904 140.067 208.64 140.067 209.488V217H138.435V210.208C138.435 207.984 137.443 206.872 135.459 206.872C134.307 206.872 133.443 207.28 132.867 208.096C132.291 208.912 132.003 210.008 132.003 211.384V217H130.371V199.576H132.003V207.64C132.387 206.92 132.891 206.368 133.515 205.984C134.155 205.584 134.891 205.384 135.723 205.384ZM148.04 205.384C149.048 205.384 149.96 205.632 150.776 206.128C151.592 206.624 152.232 207.304 152.696 208.168C153.16 209.016 153.392 209.968 153.392 211.024C153.392 211.328 153.384 211.56 153.368 211.72H144.128C144.192 212.872 144.568 213.856 145.256 214.672C145.944 215.488 146.88 215.896 148.064 215.896C149.024 215.896 149.816 215.72 150.44 215.368C151.08 215 151.592 214.496 151.976 213.856L153.272 214.72C152.744 215.552 152.048 216.208 151.184 216.688C150.32 217.152 149.296 217.384 148.112 217.384C147.024 217.384 146.056 217.128 145.208 216.616C144.36 216.104 143.696 215.392 143.216 214.48C142.736 213.568 142.496 212.536 142.496 211.384C142.496 210.232 142.728 209.2 143.192 208.288C143.672 207.376 144.328 206.664 145.16 206.152C146.008 205.64 146.968 205.384 148.04 205.384ZM151.76 210.376C151.6 209.208 151.208 208.336 150.584 207.76C149.96 207.168 149.112 206.872 148.04 206.872C147 206.872 146.144 207.208 145.472 207.88C144.816 208.536 144.4 209.368 144.224 210.376H151.76ZM161.321 205.384C161.705 205.384 162.073 205.44 162.425 205.552V207.04C162.089 206.88 161.721 206.8 161.321 206.8C160.633 206.8 159.993 206.992 159.401 207.376C158.809 207.76 158.329 208.32 157.961 209.056C157.609 209.776 157.433 210.632 157.433 211.624V217H155.801V205.768H157.433V208.024C157.865 207.192 158.409 206.544 159.065 206.08C159.737 205.616 160.489 205.384 161.321 205.384ZM174.374 205.768V217H172.742V215.344C172.278 215.984 171.71 216.488 171.038 216.856C170.366 217.208 169.63 217.384 168.83 217.384C167.758 217.384 166.798 217.128 165.95 216.616C165.102 216.104 164.438 215.392 163.958 214.48C163.478 213.568 163.238 212.528 163.238 211.36C163.238 210.208 163.47 209.184 163.934 208.288C164.414 207.376 165.07 206.664 165.902 206.152C166.75 205.64 167.71 205.384 168.782 205.384C169.598 205.384 170.342 205.568 171.014 205.936C171.702 206.288 172.278 206.792 172.742 207.448V205.768H174.374ZM168.782 215.896C169.55 215.896 170.23 215.704 170.822 215.32C171.43 214.936 171.902 214.4 172.238 213.712C172.574 213.024 172.742 212.248 172.742 211.384C172.742 210.52 172.574 209.744 172.238 209.056C171.902 208.368 171.43 207.832 170.822 207.448C170.23 207.064 169.55 206.872 168.782 206.872C168.03 206.872 167.358 207.064 166.766 207.448C166.174 207.832 165.71 208.368 165.374 209.056C165.038 209.728 164.87 210.496 164.87 211.36C164.87 212.24 165.038 213.024 165.374 213.712C165.71 214.4 166.174 214.936 166.766 215.32C167.358 215.704 168.03 215.896 168.782 215.896ZM182.955 205.384C184.027 205.384 184.987 205.64 185.835 206.152C186.683 206.664 187.347 207.376 187.827 208.288C188.307 209.2 188.547 210.24 188.547 211.408C188.547 212.56 188.307 213.592 187.827 214.504C187.363 215.4 186.707 216.104 185.859 216.616C185.027 217.128 184.075 217.384 183.003 217.384C182.187 217.384 181.435 217.208 180.747 216.856C180.075 216.488 179.507 215.976 179.043 215.32V221.8H177.411V205.768H179.043V207.424C179.507 206.784 180.075 206.288 180.747 205.936C181.419 205.568 182.155 205.384 182.955 205.384ZM183.003 215.896C183.755 215.896 184.427 215.704 185.019 215.32C185.611 214.936 186.075 214.408 186.411 213.736C186.747 213.048 186.915 212.272 186.915 211.408C186.915 210.528 186.747 209.744 186.411 209.056C186.075 208.368 185.611 207.832 185.019 207.448C184.427 207.064 183.755 206.872 183.003 206.872C182.235 206.872 181.547 207.064 180.939 207.448C180.347 207.832 179.883 208.368 179.547 209.056C179.211 209.744 179.043 210.52 179.043 211.384C179.043 212.248 179.211 213.024 179.547 213.712C179.883 214.4 180.347 214.936 180.939 215.32C181.547 215.704 182.235 215.896 183.003 215.896ZM198.568 205.768H200.104L194.032 221.8H192.4L194.176 217.216L189.568 205.768H191.272L194.992 215.08L198.568 205.768ZM207.565 217V207.256H205.645V205.768H207.565V202.048H209.197V205.768H211.789V207.256H209.197V217H207.565ZM224.015 205.768V217H222.383V215.344C221.919 215.984 221.351 216.488 220.679 216.856C220.007 217.208 219.271 217.384 218.471 217.384C217.399 217.384 216.439 217.128 215.59 216.616C214.743 216.104 214.079 215.392 213.599 214.48C213.119 213.568 212.879 212.528 212.879 211.36C212.879 210.208 213.111 209.184 213.575 208.288C214.055 207.376 214.711 206.664 215.543 206.152C216.391 205.64 217.351 205.384 218.423 205.384C219.239 205.384 219.983 205.568 220.655 205.936C221.343 206.288 221.919 206.792 222.383 207.448V205.768H224.015ZM218.423 215.896C219.191 215.896 219.871 215.704 220.463 215.32C221.071 214.936 221.543 214.4 221.879 213.712C222.215 213.024 222.383 212.248 222.383 211.384C222.383 210.52 222.215 209.744 221.879 209.056C221.543 208.368 221.071 207.832 220.463 207.448C219.871 207.064 219.191 206.872 218.423 206.872C217.671 206.872 216.999 207.064 216.407 207.448C215.815 207.832 215.351 208.368 215.015 209.056C214.679 209.728 214.511 210.496 214.511 211.36C214.511 212.24 214.679 213.024 215.015 213.712C215.351 214.4 215.815 214.936 216.407 215.32C216.999 215.704 217.671 215.896 218.423 215.896ZM230.988 217.384C229.9 217.384 228.94 217.152 228.108 216.688C227.292 216.224 226.668 215.568 226.236 214.72L227.7 214C228.292 215.264 229.452 215.896 231.18 215.896C232.012 215.896 232.7 215.744 233.244 215.44C233.788 215.136 234.06 214.664 234.06 214.024C234.06 213.368 233.836 212.88 233.388 212.56C232.956 212.24 232.188 212.032 231.084 211.936C229.548 211.808 228.444 211.464 227.772 210.904C227.116 210.344 226.788 209.6 226.788 208.672C226.788 207.632 227.164 206.824 227.916 206.248C228.668 205.672 229.7 205.384 231.012 205.384C233.236 205.384 234.748 206.264 235.548 208.024L234.084 208.744C233.812 208.104 233.412 207.632 232.884 207.328C232.372 207.024 231.708 206.872 230.892 206.872C230.06 206.872 229.42 207.024 228.972 207.328C228.54 207.632 228.324 208.064 228.324 208.624C228.324 209.152 228.556 209.584 229.02 209.92C229.5 210.24 230.316 210.448 231.468 210.544C232.892 210.672 233.948 211.024 234.636 211.6C235.34 212.16 235.692 212.904 235.692 213.832C235.692 214.584 235.476 215.232 235.044 215.776C234.612 216.304 234.036 216.704 233.316 216.976C232.596 217.248 231.82 217.384 230.988 217.384ZM245.096 217L241.16 211.216L239.792 212.536V217H238.16V199.576H239.792V210.472L244.712 205.768H246.824L242.288 210.136L246.92 217H245.096ZM252.574 217.384C251.486 217.384 250.526 217.152 249.694 216.688C248.878 216.224 248.254 215.568 247.822 214.72L249.286 214C249.878 215.264 251.038 215.896 252.766 215.896C253.598 215.896 254.286 215.744 254.83 215.44C255.374 215.136 255.646 214.664 255.646 214.024C255.646 213.368 255.422 212.88 254.974 212.56C254.542 212.24 253.774 212.032 252.67 211.936C251.134 211.808 250.03 211.464 249.358 210.904C248.702 210.344 248.374 209.6 248.374 208.672C248.374 207.632 248.75 206.824 249.502 206.248C250.254 205.672 251.286 205.384 252.598 205.384C254.822 205.384 256.334 206.264 257.134 208.024L255.67 208.744C255.398 208.104 254.998 207.632 254.47 207.328C253.958 207.024 253.294 206.872 252.478 206.872C251.646 206.872 251.006 207.024 250.558 207.328C250.126 207.632 249.91 208.064 249.91 208.624C249.91 209.152 250.142 209.584 250.606 209.92C251.086 210.24 251.902 210.448 253.054 210.544C254.478 210.672 255.534 211.024 256.222 211.6C256.926 212.16 257.278 212.904 257.278 213.832C257.278 214.584 257.062 215.232 256.63 215.776C256.198 216.304 255.622 216.704 254.902 216.976C254.182 217.248 253.406 217.384 252.574 217.384Z" fill="#555C6E"/>
<path d="M428.075 170.075C429.382 170.075 430.548 170.39 431.575 171.02C432.602 171.627 433.407 172.525 433.99 173.715C434.573 174.882 434.865 176.282 434.865 177.915C434.865 179.525 434.515 180.995 433.815 182.325C433.115 183.632 432.112 184.67 430.805 185.44C429.522 186.21 428.017 186.595 426.29 186.595C423.257 186.595 421.005 185.58 419.535 183.55C418.065 181.52 417.33 178.732 417.33 175.185C417.33 172.525 417.738 170.192 418.555 168.185C419.395 166.178 420.585 164.627 422.125 163.53C423.688 162.41 425.52 161.85 427.62 161.85C429.65 161.85 431.447 162.375 433.01 163.425L430.98 166.715C429.93 166.108 428.857 165.805 427.76 165.805C426.43 165.805 425.357 166.365 424.54 167.485C423.723 168.605 423.233 170.192 423.07 172.245C424.493 170.798 426.162 170.075 428.075 170.075ZM426.36 182.64C427.34 182.64 428.075 182.232 428.565 181.415C429.078 180.575 429.335 179.432 429.335 177.985C429.335 176.515 429.102 175.465 428.635 174.835C428.168 174.205 427.468 173.89 426.535 173.89C425.275 173.89 424.12 174.508 423.07 175.745C423.117 178.242 423.385 180.015 423.875 181.065C424.365 182.115 425.193 182.64 426.36 182.64ZM450.617 162.34V166.085L441.937 186.56L436.932 184.88L444.877 166.505H435.322V162.34H450.617ZM473.071 160.8L476.466 162.97L460.261 187.4L456.866 185.23L473.071 160.8ZM458.826 161.85C459.993 161.85 461.043 162.107 461.976 162.62C462.933 163.133 463.679 163.868 464.216 164.825C464.776 165.782 465.056 166.89 465.056 168.15C465.056 169.41 464.776 170.518 464.216 171.475C463.679 172.432 462.933 173.167 461.976 173.68C461.043 174.193 459.993 174.45 458.826 174.45C457.659 174.45 456.598 174.193 455.641 173.68C454.708 173.143 453.961 172.408 453.401 171.475C452.864 170.518 452.596 169.41 452.596 168.15C452.596 166.89 452.864 165.793 453.401 164.86C453.961 163.903 454.708 163.168 455.641 162.655C456.598 162.118 457.659 161.85 458.826 161.85ZM458.826 165.175C457.309 165.175 456.551 166.167 456.551 168.15C456.551 169.013 456.714 169.725 457.041 170.285C457.391 170.845 457.986 171.125 458.826 171.125C460.319 171.125 461.066 170.133 461.066 168.15C461.066 166.167 460.319 165.175 458.826 165.175ZM474.401 174.03C475.568 174.03 476.618 174.287 477.551 174.8C478.508 175.313 479.254 176.048 479.791 177.005C480.351 177.938 480.631 179.035 480.631 180.295C480.631 181.555 480.351 182.663 479.791 183.62C479.254 184.577 478.508 185.312 477.551 185.825C476.618 186.338 475.568 186.595 474.401 186.595C473.234 186.595 472.173 186.338 471.216 185.825C470.259 185.312 469.501 184.577 468.941 183.62C468.404 182.663 468.136 181.555 468.136 180.295C468.136 179.035 468.404 177.938 468.941 177.005C469.501 176.048 470.259 175.313 471.216 174.8C472.173 174.287 473.234 174.03 474.401 174.03ZM474.401 177.355C472.884 177.355 472.126 178.335 472.126 180.295C472.126 181.158 472.289 181.882 472.616 182.465C472.966 183.025 473.561 183.305 474.401 183.305C475.894 183.305 476.641 182.302 476.641 180.295C476.641 178.335 475.894 177.355 474.401 177.355ZM505.157 174.768H506.717L503.069 186H501.365L498.629 177.384L495.677 186H494.045L490.349 174.768H492.077L494.957 183.696L497.885 174.768H499.469L502.301 183.648L505.157 174.768ZM513.154 186.384C512.082 186.384 511.122 186.128 510.274 185.616C509.426 185.104 508.762 184.392 508.282 183.48C507.802 182.552 507.562 181.512 507.562 180.36C507.562 179.208 507.794 178.184 508.258 177.288C508.738 176.376 509.394 175.664 510.226 175.152C511.074 174.64 512.034 174.384 513.106 174.384C514.178 174.384 515.138 174.64 515.986 175.152C516.834 175.664 517.498 176.376 517.978 177.288C518.458 178.2 518.698 179.232 518.698 180.384C518.698 181.536 518.458 182.568 517.978 183.48C517.514 184.392 516.858 185.104 516.01 185.616C515.178 186.128 514.226 186.384 513.154 186.384ZM513.106 184.896C513.874 184.896 514.554 184.704 515.146 184.32C515.754 183.936 516.226 183.4 516.562 182.712C516.898 182.024 517.066 181.248 517.066 180.384C517.066 179.52 516.898 178.744 516.562 178.056C516.226 177.368 515.754 176.832 515.146 176.448C514.554 176.064 513.874 175.872 513.106 175.872C512.354 175.872 511.682 176.064 511.09 176.448C510.498 176.832 510.034 177.368 509.698 178.056C509.362 178.728 509.194 179.496 509.194 180.36C509.194 181.24 509.362 182.024 509.698 182.712C510.034 183.4 510.498 183.936 511.09 184.32C511.682 184.704 512.354 184.896 513.106 184.896ZM530.872 174.768V186H529.24V184.128C528.856 184.848 528.344 185.408 527.704 185.808C527.08 186.192 526.352 186.384 525.52 186.384C524.736 186.384 524.008 186.224 523.336 185.904C522.68 185.584 522.152 185.112 521.752 184.488C521.368 183.864 521.176 183.128 521.176 182.28V174.768H522.808V181.56C522.808 183.784 523.8 184.896 525.784 184.896C526.936 184.896 527.8 184.488 528.376 183.672C528.952 182.856 529.24 181.76 529.24 180.384V174.768H530.872ZM534.019 186V168.576H535.651V186H534.019ZM549.214 168.576V186H547.582V184.344C547.118 184.984 546.55 185.488 545.878 185.856C545.206 186.208 544.47 186.384 543.67 186.384C542.598 186.384 541.638 186.128 540.79 185.616C539.942 185.104 539.278 184.392 538.798 183.48C538.318 182.568 538.078 181.528 538.078 180.36C538.078 179.208 538.31 178.184 538.774 177.288C539.254 176.376 539.91 175.664 540.742 175.152C541.59 174.64 542.55 174.384 543.622 174.384C544.438 174.384 545.182 174.568 545.854 174.936C546.542 175.288 547.118 175.792 547.582 176.448V168.576H549.214ZM543.622 184.896C544.39 184.896 545.07 184.704 545.662 184.32C546.27 183.936 546.742 183.4 547.078 182.712C547.414 182.024 547.582 181.248 547.582 180.384C547.582 179.52 547.414 178.744 547.078 178.056C546.742 177.368 546.27 176.832 545.662 176.448C545.07 176.064 544.39 175.872 543.622 175.872C542.87 175.872 542.198 176.064 541.606 176.448C541.014 176.832 540.55 177.368 540.214 178.056C539.878 178.728 539.71 179.496 539.71 180.36C539.71 181.24 539.878 182.024 540.214 182.712C540.55 183.4 541.014 183.936 541.606 184.32C542.198 184.704 542.87 184.896 543.622 184.896ZM567.435 174.768V186H565.803V184.128C565.419 184.848 564.907 185.408 564.267 185.808C563.643 186.192 562.915 186.384 562.083 186.384C561.299 186.384 560.571 186.224 559.899 185.904C559.243 185.584 558.715 185.112 558.315 184.488C557.931 183.864 557.739 183.128 557.739 182.28V174.768H559.371V181.56C559.371 183.784 560.363 184.896 562.347 184.896C563.499 184.896 564.363 184.488 564.939 183.672C565.515 182.856 565.803 181.76 565.803 180.384V174.768H567.435ZM574.421 186.384C573.333 186.384 572.373 186.152 571.541 185.688C570.725 185.224 570.101 184.568 569.669 183.72L571.133 183C571.725 184.264 572.885 184.896 574.613 184.896C575.445 184.896 576.133 184.744 576.677 184.44C577.221 184.136 577.493 183.664 577.493 183.024C577.493 182.368 577.269 181.88 576.821 181.56C576.389 181.24 575.621 181.032 574.517 180.936C572.981 180.808 571.877 180.464 571.205 179.904C570.549 179.344 570.221 178.6 570.221 177.672C570.221 176.632 570.597 175.824 571.349 175.248C572.101 174.672 573.133 174.384 574.445 174.384C576.669 174.384 578.181 175.264 578.981 177.024L577.517 177.744C577.245 177.104 576.845 176.632 576.317 176.328C575.805 176.024 575.141 175.872 574.325 175.872C573.493 175.872 572.853 176.024 572.405 176.328C571.973 176.632 571.757 177.064 571.757 177.624C571.757 178.152 571.989 178.584 572.453 178.92C572.933 179.24 573.749 179.448 574.901 179.544C576.325 179.672 577.381 180.024 578.069 180.6C578.773 181.16 579.125 181.904 579.125 182.832C579.125 183.584 578.909 184.232 578.477 184.776C578.045 185.304 577.469 185.704 576.749 185.976C576.029 186.248 575.253 186.384 574.421 186.384ZM586.442 174.384C587.45 174.384 588.362 174.632 589.178 175.128C589.994 175.624 590.634 176.304 591.098 177.168C591.562 178.016 591.794 178.968 591.794 180.024C591.794 180.328 591.786 180.56 591.77 180.72H582.53C582.594 181.872 582.97 182.856 583.658 183.672C584.346 184.488 585.282 184.896 586.466 184.896C587.426 184.896 588.218 184.72 588.842 184.368C589.482 184 589.994 183.496 590.378 182.856L591.674 183.72C591.146 184.552 590.45 185.208 589.586 185.688C588.722 186.152 587.698 186.384 586.514 186.384C585.426 186.384 584.458 186.128 583.61 185.616C582.762 185.104 582.098 184.392 581.618 183.48C581.138 182.568 580.898 181.536 580.898 180.384C580.898 179.232 581.13 178.2 581.594 177.288C582.074 176.376 582.73 175.664 583.562 175.152C584.41 174.64 585.37 174.384 586.442 174.384ZM590.162 179.376C590.002 178.208 589.61 177.336 588.986 176.76C588.362 176.168 587.514 175.872 586.442 175.872C585.402 175.872 584.546 176.208 583.874 176.88C583.218 177.536 582.802 178.368 582.626 179.376H590.162ZM609.987 174.768V186H608.355V184.344C607.891 184.984 607.323 185.488 606.651 185.856C605.979 186.208 605.243 186.384 604.443 186.384C603.371 186.384 602.411 186.128 601.563 185.616C600.715 185.104 600.051 184.392 599.571 183.48C599.091 182.568 598.851 181.528 598.851 180.36C598.851 179.208 599.083 178.184 599.547 177.288C600.027 176.376 600.683 175.664 601.515 175.152C602.363 174.64 603.323 174.384 604.395 174.384C605.211 174.384 605.955 174.568 606.627 174.936C607.315 175.288 607.891 175.792 608.355 176.448V174.768H609.987ZM604.395 184.896C605.163 184.896 605.843 184.704 606.435 184.32C607.043 183.936 607.515 183.4 607.851 182.712C608.187 182.024 608.355 181.248 608.355 180.384C608.355 179.52 608.187 178.744 607.851 178.056C607.515 177.368 607.043 176.832 606.435 176.448C605.843 176.064 605.163 175.872 604.395 175.872C603.643 175.872 602.971 176.064 602.379 176.448C601.787 176.832 601.323 177.368 600.987 178.056C600.651 178.728 600.483 179.496 600.483 180.36C600.483 181.24 600.651 182.024 600.987 182.712C601.323 183.4 601.787 183.936 602.379 184.32C602.971 184.704 603.643 184.896 604.395 184.896ZM623.912 174.384C624.984 174.384 625.944 174.64 626.792 175.152C627.64 175.664 628.304 176.376 628.784 177.288C629.264 178.2 629.504 179.24 629.504 180.408C629.504 181.56 629.264 182.592 628.784 183.504C628.32 184.4 627.664 185.104 626.816 185.616C625.984 186.128 625.032 186.384 623.96 186.384C623.144 186.384 622.392 186.208 621.704 185.856C621.032 185.488 620.464 184.976 620 184.32V190.8H618.368V174.768H620V176.424C620.464 175.784 621.032 175.288 621.704 174.936C622.376 174.568 623.112 174.384 623.912 174.384ZM623.96 184.896C624.712 184.896 625.384 184.704 625.976 184.32C626.568 183.936 627.032 183.408 627.368 182.736C627.704 182.048 627.872 181.272 627.872 180.408C627.872 179.528 627.704 178.744 627.368 178.056C627.032 177.368 626.568 176.832 625.976 176.448C625.384 176.064 624.712 175.872 623.96 175.872C623.192 175.872 622.504 176.064 621.896 176.448C621.304 176.832 620.84 177.368 620.504 178.056C620.168 178.744 620 179.52 620 180.384C620 181.248 620.168 182.024 620.504 182.712C620.84 183.4 621.304 183.936 621.896 184.32C622.504 184.704 623.192 184.896 623.96 184.896ZM637.317 174.384C637.701 174.384 638.069 174.44 638.421 174.552V176.04C638.085 175.88 637.717 175.8 637.317 175.8C636.629 175.8 635.989 175.992 635.397 176.376C634.805 176.76 634.325 177.32 633.957 178.056C633.605 178.776 633.429 179.632 633.429 180.624V186H631.797V174.768H633.429V177.024C633.861 176.192 634.405 175.544 635.061 175.08C635.733 174.616 636.485 174.384 637.317 174.384ZM644.592 186.384C643.52 186.384 642.56 186.128 641.712 185.616C640.864 185.104 640.2 184.392 639.72 183.48C639.24 182.552 639 181.512 639 180.36C639 179.208 639.232 178.184 639.696 177.288C640.176 176.376 640.832 175.664 641.664 175.152C642.512 174.64 643.472 174.384 644.544 174.384C645.616 174.384 646.576 174.64 647.424 175.152C648.272 175.664 648.936 176.376 649.416 177.288C649.896 178.2 650.136 179.232 650.136 180.384C650.136 181.536 649.896 182.568 649.416 183.48C648.952 184.392 648.296 185.104 647.448 185.616C646.616 186.128 645.664 186.384 644.592 186.384ZM644.544 184.896C645.312 184.896 645.992 184.704 646.584 184.32C647.192 183.936 647.664 183.4 648 182.712C648.336 182.024 648.504 181.248 648.504 180.384C648.504 179.52 648.336 178.744 648 178.056C647.664 177.368 647.192 176.832 646.584 176.448C645.992 176.064 645.312 175.872 644.544 175.872C643.792 175.872 643.12 176.064 642.528 176.448C641.936 176.832 641.472 177.368 641.136 178.056C640.8 178.728 640.632 179.496 640.632 180.36C640.632 181.24 640.8 182.024 641.136 182.712C641.472 183.4 641.936 183.936 642.528 184.32C643.12 184.704 643.792 184.896 644.544 184.896ZM662.886 168.576V186H661.254V184.344C660.79 184.984 660.222 185.488 659.55 185.856C658.878 186.208 658.142 186.384 657.342 186.384C656.27 186.384 655.31 186.128 654.462 185.616C653.614 185.104 652.95 184.392 652.47 183.48C651.99 182.568 651.75 181.528 651.75 180.36C651.75 179.208 651.982 178.184 652.446 177.288C652.926 176.376 653.582 175.664 654.414 175.152C655.262 174.64 656.222 174.384 657.294 174.384C658.11 174.384 658.854 174.568 659.526 174.936C660.214 175.288 660.79 175.792 661.254 176.448V168.576H662.886ZM657.294 184.896C658.062 184.896 658.742 184.704 659.334 184.32C659.942 183.936 660.414 183.4 660.75 182.712C661.086 182.024 661.254 181.248 661.254 180.384C661.254 179.52 661.086 178.744 660.75 178.056C660.414 177.368 659.942 176.832 659.334 176.448C658.742 176.064 658.062 175.872 657.294 175.872C656.542 175.872 655.87 176.064 655.278 176.448C654.686 176.832 654.222 177.368 653.886 178.056C653.55 178.728 653.382 179.496 653.382 180.36C653.382 181.24 653.55 182.024 653.886 182.712C654.222 183.4 654.686 183.936 655.278 184.32C655.87 184.704 656.542 184.896 657.294 184.896ZM675.763 174.768V186H674.131V184.128C673.747 184.848 673.235 185.408 672.595 185.808C671.971 186.192 671.243 186.384 670.411 186.384C669.627 186.384 668.899 186.224 668.227 185.904C667.571 185.584 667.043 185.112 666.643 184.488C666.259 183.864 666.067 183.128 666.067 182.28V174.768H667.699V181.56C667.699 183.784 668.691 184.896 670.675 184.896C671.827 184.896 672.691 184.488 673.267 183.672C673.843 182.856 674.131 181.76 674.131 180.384V174.768H675.763ZM683.661 186.384C682.573 186.384 681.605 186.128 680.757 185.616C679.909 185.104 679.245 184.392 678.765 183.48C678.285 182.568 678.045 181.536 678.045 180.384C678.045 179.232 678.277 178.2 678.741 177.288C679.221 176.376 679.885 175.664 680.733 175.152C681.581 174.64 682.541 174.384 683.613 174.384C684.525 174.384 685.317 174.584 685.989 174.984C686.677 175.368 687.301 175.92 687.861 176.64L686.661 177.576C685.877 176.44 684.861 175.872 683.613 175.872C682.861 175.872 682.181 176.064 681.573 176.448C680.981 176.832 680.517 177.368 680.181 178.056C679.845 178.744 679.677 179.52 679.677 180.384C679.677 181.248 679.845 182.024 680.181 182.712C680.517 183.4 680.981 183.936 681.573 184.32C682.181 184.704 682.861 184.896 683.613 184.896C684.381 184.896 685.013 184.768 685.509 184.512C686.005 184.24 686.453 183.848 686.853 183.336L688.125 184.224C687.597 184.88 686.941 185.408 686.157 185.808C685.389 186.192 684.557 186.384 683.661 186.384ZM690.827 186V176.256H688.907V174.768H690.827V171.048H692.459V174.768H695.051V176.256H692.459V186H690.827ZM427.952 199.576V217H426.32V215.344C425.856 215.984 425.288 216.488 424.616 216.856C423.944 217.208 423.208 217.384 422.408 217.384C421.336 217.384 420.376 217.128 419.528 216.616C418.68 216.104 418.016 215.392 417.536 214.48C417.056 213.568 416.816 212.528 416.816 211.36C416.816 210.208 417.048 209.184 417.512 208.288C417.992 207.376 418.648 206.664 419.48 206.152C420.328 205.64 421.288 205.384 422.36 205.384C423.176 205.384 423.92 205.568 424.592 205.936C425.28 206.288 425.856 206.792 426.32 207.448V199.576H427.952ZM422.36 215.896C423.128 215.896 423.808 215.704 424.4 215.32C425.008 214.936 425.48 214.4 425.816 213.712C426.152 213.024 426.32 212.248 426.32 211.384C426.32 210.52 426.152 209.744 425.816 209.056C425.48 208.368 425.008 207.832 424.4 207.448C423.808 207.064 423.128 206.872 422.36 206.872C421.608 206.872 420.936 207.064 420.344 207.448C419.752 207.832 419.288 208.368 418.952 209.056C418.616 209.728 418.448 210.496 418.448 211.36C418.448 212.24 418.616 213.024 418.952 213.712C419.288 214.4 419.752 214.936 420.344 215.32C420.936 215.704 421.608 215.896 422.36 215.896ZM435.813 205.384C436.821 205.384 437.733 205.632 438.549 206.128C439.365 206.624 440.005 207.304 440.469 208.168C440.933 209.016 441.165 209.968 441.165 211.024C441.165 211.328 441.157 211.56 441.141 211.72H431.901C431.965 212.872 432.341 213.856 433.029 214.672C433.717 215.488 434.653 215.896 435.837 215.896C436.797 215.896 437.589 215.72 438.213 215.368C438.853 215 439.365 214.496 439.749 213.856L441.045 214.72C440.517 215.552 439.821 216.208 438.957 216.688C438.093 217.152 437.069 217.384 435.885 217.384C434.797 217.384 433.829 217.128 432.981 216.616C432.133 216.104 431.469 215.392 430.989 214.48C430.509 213.568 430.269 212.536 430.269 211.384C430.269 210.232 430.501 209.2 430.965 208.288C431.445 207.376 432.101 206.664 432.933 206.152C433.781 205.64 434.741 205.384 435.813 205.384ZM439.533 210.376C439.373 209.208 438.981 208.336 438.357 207.76C437.733 207.168 436.885 206.872 435.813 206.872C434.773 206.872 433.917 207.208 433.245 207.88C432.589 208.536 432.173 209.368 431.997 210.376H439.533ZM447.535 217.384C446.447 217.384 445.487 217.152 444.655 216.688C443.839 216.224 443.215 215.568 442.783 214.72L444.247 214C444.839 215.264 445.999 215.896 447.727 215.896C448.559 215.896 449.247 215.744 449.791 215.44C450.335 215.136 450.607 214.664 450.607 214.024C450.607 213.368 450.383 212.88 449.935 212.56C449.503 212.24 448.735 212.032 447.631 211.936C446.095 211.808 444.991 211.464 444.319 210.904C443.663 210.344 443.335 209.6 443.335 208.672C443.335 207.632 443.711 206.824 444.463 206.248C445.215 205.672 446.247 205.384 447.559 205.384C449.783 205.384 451.295 206.264 452.095 208.024L450.631 208.744C450.359 208.104 449.959 207.632 449.431 207.328C448.919 207.024 448.255 206.872 447.439 206.872C446.607 206.872 445.967 207.024 445.519 207.328C445.087 207.632 444.871 208.064 444.871 208.624C444.871 209.152 445.103 209.584 445.567 209.92C446.047 210.24 446.863 210.448 448.015 210.544C449.439 210.672 450.495 211.024 451.183 211.6C451.887 212.16 452.239 212.904 452.239 213.832C452.239 214.584 452.023 215.232 451.591 215.776C451.159 216.304 450.583 216.704 449.863 216.976C449.143 217.248 448.367 217.384 447.535 217.384ZM455.595 217V205.768H457.227V217H455.595ZM456.411 203.584C456.043 203.584 455.731 203.456 455.475 203.2C455.235 202.944 455.115 202.632 455.115 202.264C455.115 201.912 455.235 201.616 455.475 201.376C455.731 201.12 456.043 200.992 456.411 200.992C456.763 200.992 457.067 201.12 457.323 201.376C457.579 201.616 457.707 201.92 457.707 202.288C457.707 202.64 457.579 202.944 457.323 203.2C457.067 203.456 456.763 203.584 456.411 203.584ZM471.569 205.768V216.568C471.569 217.576 471.361 218.472 470.945 219.256C470.529 220.056 469.945 220.68 469.193 221.128C468.441 221.576 467.585 221.8 466.625 221.8H461.969V220.312H466.625C467.601 220.312 468.393 219.96 469.001 219.256C469.625 218.552 469.937 217.656 469.937 216.568V215.344C469.473 215.984 468.905 216.488 468.233 216.856C467.561 217.208 466.825 217.384 466.025 217.384C464.953 217.384 463.993 217.128 463.145 216.616C462.297 216.104 461.633 215.392 461.153 214.48C460.673 213.568 460.433 212.528 460.433 211.36C460.433 210.208 460.665 209.184 461.129 208.288C461.609 207.376 462.265 206.664 463.097 206.152C463.945 205.64 464.905 205.384 465.977 205.384C466.793 205.384 467.537 205.568 468.209 205.936C468.897 206.288 469.473 206.792 469.937 207.448V205.768H471.569ZM465.977 215.896C466.745 215.896 467.425 215.704 468.017 215.32C468.625 214.936 469.097 214.4 469.433 213.712C469.769 213.024 469.937 212.248 469.937 211.384C469.937 210.52 469.769 209.744 469.433 209.056C469.097 208.368 468.625 207.832 468.017 207.448C467.425 207.064 466.745 206.872 465.977 206.872C465.225 206.872 464.553 207.064 463.961 207.448C463.369 207.832 462.905 208.368 462.569 209.056C462.233 209.728 462.065 210.496 462.065 211.36C462.065 212.24 462.233 213.024 462.569 213.712C462.905 214.4 463.369 214.936 463.961 215.32C464.553 215.704 465.225 215.896 465.977 215.896ZM479.934 205.384C480.718 205.384 481.438 205.544 482.094 205.864C482.766 206.184 483.294 206.656 483.678 207.28C484.078 207.904 484.278 208.64 484.278 209.488V217H482.646V210.208C482.646 207.984 481.654 206.872 479.67 206.872C478.518 206.872 477.654 207.28 477.078 208.096C476.502 208.912 476.214 210.008 476.214 211.384V217H474.582V205.768H476.214V207.64C476.598 206.92 477.102 206.368 477.726 205.984C478.366 205.584 479.102 205.384 479.934 205.384ZM492.321 205.384C493.329 205.384 494.241 205.632 495.057 206.128C495.873 206.624 496.513 207.304 496.977 208.168C497.441 209.016 497.673 209.968 497.673 211.024C497.673 211.328 497.665 211.56 497.649 211.72H488.409C488.473 212.872 488.849 213.856 489.537 214.672C490.225 215.488 491.161 215.896 492.345 215.896C493.305 215.896 494.097 215.72 494.721 215.368C495.361 215 495.873 214.496 496.257 213.856L497.553 214.72C497.025 215.552 496.329 216.208 495.465 216.688C494.601 217.152 493.577 217.384 492.393 217.384C491.305 217.384 490.337 217.128 489.489 216.616C488.641 216.104 487.977 215.392 487.497 214.48C487.017 213.568 486.777 212.536 486.777 211.384C486.777 210.232 487.009 209.2 487.473 208.288C487.953 207.376 488.609 206.664 489.441 206.152C490.289 205.64 491.249 205.384 492.321 205.384ZM496.041 210.376C495.881 209.208 495.489 208.336 494.865 207.76C494.241 207.168 493.393 206.872 492.321 206.872C491.281 206.872 490.425 207.208 489.753 207.88C489.097 208.536 488.681 209.368 488.505 210.376H496.041ZM510.522 199.576V217H508.89V215.344C508.426 215.984 507.858 216.488 507.186 216.856C506.514 217.208 505.778 217.384 504.978 217.384C503.906 217.384 502.946 217.128 502.098 216.616C501.25 216.104 500.586 215.392 500.106 214.48C499.626 213.568 499.386 212.528 499.386 211.36C499.386 210.208 499.618 209.184 500.082 208.288C500.562 207.376 501.218 206.664 502.05 206.152C502.898 205.64 503.858 205.384 504.93 205.384C505.746 205.384 506.49 205.568 507.162 205.936C507.85 206.288 508.426 206.792 508.89 207.448V199.576H510.522ZM504.93 215.896C505.698 215.896 506.378 215.704 506.97 215.32C507.578 214.936 508.05 214.4 508.386 213.712C508.722 213.024 508.89 212.248 508.89 211.384C508.89 210.52 508.722 209.744 508.386 209.056C508.05 208.368 507.578 207.832 506.97 207.448C506.378 207.064 505.698 206.872 504.93 206.872C504.178 206.872 503.506 207.064 502.914 207.448C502.322 207.832 501.858 208.368 501.522 209.056C501.186 209.728 501.018 210.496 501.018 211.36C501.018 212.24 501.186 213.024 501.522 213.712C501.858 214.4 502.322 214.936 502.914 215.32C503.506 215.704 504.178 215.896 504.93 215.896ZM528.375 200.656C527.815 200.656 527.351 200.848 526.983 201.232C526.631 201.616 526.455 202.112 526.455 202.72V205.768H529.047V207.256H526.455V217H524.823V207.256H523.383V205.768H524.823V202.72C524.823 201.68 525.151 200.832 525.807 200.176C526.479 199.504 527.335 199.168 528.375 199.168H529.047V200.656H528.375ZM535.728 217.384C534.656 217.384 533.696 217.128 532.848 216.616C532 216.104 531.336 215.392 530.856 214.48C530.376 213.552 530.136 212.512 530.136 211.36C530.136 210.208 530.368 209.184 530.832 208.288C531.312 207.376 531.968 206.664 532.8 206.152C533.648 205.64 534.608 205.384 535.68 205.384C536.752 205.384 537.712 205.64 538.56 206.152C539.408 206.664 540.072 207.376 540.552 208.288C541.032 209.2 541.272 210.232 541.272 211.384C541.272 212.536 541.032 213.568 540.552 214.48C540.088 215.392 539.432 216.104 538.584 216.616C537.752 217.128 536.8 217.384 535.728 217.384ZM535.68 215.896C536.448 215.896 537.128 215.704 537.72 215.32C538.328 214.936 538.8 214.4 539.136 213.712C539.472 213.024 539.64 212.248 539.64 211.384C539.64 210.52 539.472 209.744 539.136 209.056C538.8 208.368 538.328 207.832 537.72 207.448C537.128 207.064 536.448 206.872 535.68 206.872C534.928 206.872 534.256 207.064 533.664 207.448C533.072 207.832 532.608 208.368 532.272 209.056C531.936 209.728 531.768 210.496 531.768 211.36C531.768 212.24 531.936 213.024 532.272 213.712C532.608 214.4 533.072 214.936 533.664 215.32C534.256 215.704 534.928 215.896 535.68 215.896ZM549.102 205.384C549.486 205.384 549.854 205.44 550.206 205.552V207.04C549.87 206.88 549.502 206.8 549.102 206.8C548.414 206.8 547.774 206.992 547.182 207.376C546.59 207.76 546.11 208.32 545.742 209.056C545.39 209.776 545.214 210.632 545.214 211.624V217H543.582V205.768H545.214V208.024C545.646 207.192 546.19 206.544 546.846 206.08C547.518 205.616 548.27 205.384 549.102 205.384ZM557.659 217V207.256H555.739V205.768H557.659V202.048H559.291V205.768H561.883V207.256H559.291V217H557.659ZM569.02 205.384C569.804 205.384 570.524 205.544 571.18 205.864C571.852 206.184 572.38 206.656 572.764 207.28C573.164 207.904 573.364 208.64 573.364 209.488V217H571.732V210.208C571.732 207.984 570.74 206.872 568.756 206.872C567.604 206.872 566.74 207.28 566.164 208.096C565.588 208.912 565.3 210.008 565.3 211.384V217H563.668V199.576H565.3V207.64C565.684 206.92 566.188 206.368 566.812 205.984C567.452 205.584 568.188 205.384 569.02 205.384ZM581.337 205.384C582.345 205.384 583.257 205.632 584.073 206.128C584.889 206.624 585.529 207.304 585.993 208.168C586.457 209.016 586.689 209.968 586.689 211.024C586.689 211.328 586.681 211.56 586.665 211.72H577.425C577.489 212.872 577.865 213.856 578.553 214.672C579.241 215.488 580.177 215.896 581.361 215.896C582.321 215.896 583.113 215.72 583.737 215.368C584.377 215 584.889 214.496 585.273 213.856L586.569 214.72C586.041 215.552 585.345 216.208 584.481 216.688C583.617 217.152 582.593 217.384 581.409 217.384C580.321 217.384 579.353 217.128 578.505 216.616C577.657 216.104 576.993 215.392 576.513 214.48C576.033 213.568 575.793 212.536 575.793 211.384C575.793 210.232 576.025 209.2 576.489 208.288C576.969 207.376 577.625 206.664 578.457 206.152C579.305 205.64 580.265 205.384 581.337 205.384ZM585.057 210.376C584.897 209.208 584.505 208.336 583.881 207.76C583.257 207.168 582.409 206.872 581.337 206.872C580.297 206.872 579.441 207.208 578.769 207.88C578.113 208.536 577.697 209.368 577.521 210.376H585.057ZM594.618 205.384C595.002 205.384 595.37 205.44 595.722 205.552V207.04C595.386 206.88 595.018 206.8 594.618 206.8C593.93 206.8 593.29 206.992 592.698 207.376C592.106 207.76 591.626 208.32 591.258 209.056C590.906 209.776 590.73 210.632 590.73 211.624V217H589.098V205.768H590.73V208.024C591.162 207.192 591.706 206.544 592.362 206.08C593.034 205.616 593.786 205.384 594.618 205.384ZM607.671 205.768V217H606.039V215.344C605.575 215.984 605.007 216.488 604.335 216.856C603.663 217.208 602.927 217.384 602.127 217.384C601.055 217.384 600.095 217.128 599.247 216.616C598.399 216.104 597.735 215.392 597.255 214.48C596.775 213.568 596.535 212.528 596.535 211.36C596.535 210.208 596.767 209.184 597.231 208.288C597.711 207.376 598.367 206.664 599.199 206.152C600.047 205.64 601.007 205.384 602.079 205.384C602.895 205.384 603.639 205.568 604.311 205.936C604.999 206.288 605.575 206.792 606.039 207.448V205.768H607.671ZM602.079 215.896C602.847 215.896 603.527 215.704 604.119 215.32C604.727 214.936 605.199 214.4 605.535 213.712C605.871 213.024 606.039 212.248 606.039 211.384C606.039 210.52 605.871 209.744 605.535 209.056C605.199 208.368 604.727 207.832 604.119 207.448C603.527 207.064 602.847 206.872 602.079 206.872C601.327 206.872 600.655 207.064 600.063 207.448C599.471 207.832 599.007 208.368 598.671 209.056C598.335 209.728 598.167 210.496 598.167 211.36C598.167 212.24 598.335 213.024 598.671 213.712C599.007 214.4 599.471 214.936 600.063 215.32C600.655 215.704 601.327 215.896 602.079 215.896ZM616.252 205.384C617.324 205.384 618.284 205.64 619.132 206.152C619.98 206.664 620.644 207.376 621.124 208.288C621.604 209.2 621.844 210.24 621.844 211.408C621.844 212.56 621.604 213.592 621.124 214.504C620.66 215.4 620.004 216.104 619.156 216.616C618.324 217.128 617.372 217.384 616.3 217.384C615.484 217.384 614.732 217.208 614.044 216.856C613.372 216.488 612.804 215.976 612.34 215.32V221.8H610.708V205.768H612.34V207.424C612.804 206.784 613.372 206.288 614.044 205.936C614.716 205.568 615.452 205.384 616.252 205.384ZM616.3 215.896C617.052 215.896 617.724 215.704 618.316 215.32C618.908 214.936 619.372 214.408 619.708 213.736C620.044 213.048 620.212 212.272 620.212 211.408C620.212 210.528 620.044 209.744 619.708 209.056C619.372 208.368 618.908 207.832 618.316 207.448C617.724 207.064 617.052 206.872 616.3 206.872C615.532 206.872 614.844 207.064 614.236 207.448C613.644 207.832 613.18 208.368 612.844 209.056C612.508 209.744 612.34 210.52 612.34 211.384C612.34 212.248 612.508 213.024 612.844 213.712C613.18 214.4 613.644 214.936 614.236 215.32C614.844 215.704 615.532 215.896 616.3 215.896ZM625.025 217V205.768H626.657V217H625.025ZM625.841 203.584C625.473 203.584 625.161 203.456 624.905 203.2C624.665 202.944 624.545 202.632 624.545 202.264C624.545 201.912 624.665 201.616 624.905 201.376C625.161 201.12 625.473 200.992 625.841 200.992C626.193 200.992 626.497 201.12 626.753 201.376C627.009 201.616 627.137 201.92 627.137 202.288C627.137 202.64 627.009 202.944 626.753 203.2C626.497 203.456 626.193 203.584 625.841 203.584ZM634.519 217.384C633.431 217.384 632.471 217.152 631.639 216.688C630.823 216.224 630.199 215.568 629.767 214.72L631.231 214C631.823 215.264 632.983 215.896 634.711 215.896C635.543 215.896 636.231 215.744 636.775 215.44C637.319 215.136 637.591 214.664 637.591 214.024C637.591 213.368 637.367 212.88 636.919 212.56C636.487 212.24 635.719 212.032 634.615 211.936C633.079 211.808 631.975 211.464 631.303 210.904C630.647 210.344 630.319 209.6 630.319 208.672C630.319 207.632 630.695 206.824 631.447 206.248C632.199 205.672 633.231 205.384 634.543 205.384C636.767 205.384 638.279 206.264 639.079 208.024L637.615 208.744C637.343 208.104 636.943 207.632 636.415 207.328C635.903 207.024 635.239 206.872 634.423 206.872C633.591 206.872 632.951 207.024 632.503 207.328C632.071 207.632 631.855 208.064 631.855 208.624C631.855 209.152 632.087 209.584 632.551 209.92C633.031 210.24 633.847 210.448 634.999 210.544C636.423 210.672 637.479 211.024 638.167 211.6C638.871 212.16 639.223 212.904 639.223 213.832C639.223 214.584 639.007 215.232 638.575 215.776C638.143 216.304 637.567 216.704 636.847 216.976C636.127 217.248 635.351 217.384 634.519 217.384ZM642.292 217V207.256H640.372V205.768H642.292V202.048H643.924V205.768H646.516V207.256H643.924V217H642.292ZM652.261 217.384C651.173 217.384 650.213 217.152 649.381 216.688C648.565 216.224 647.941 215.568 647.509 214.72L648.973 214C649.565 215.264 650.725 215.896 652.453 215.896C653.285 215.896 653.973 215.744 654.517 215.44C655.061 215.136 655.333 214.664 655.333 214.024C655.333 213.368 655.109 212.88 654.661 212.56C654.229 212.24 653.461 212.032 652.357 211.936C650.821 211.808 649.717 211.464 649.045 210.904C648.389 210.344 648.061 209.6 648.061 208.672C648.061 207.632 648.437 206.824 649.189 206.248C649.941 205.672 650.973 205.384 652.285 205.384C654.509 205.384 656.021 206.264 656.821 208.024L655.357 208.744C655.085 208.104 654.685 207.632 654.157 207.328C653.645 207.024 652.981 206.872 652.165 206.872C651.333 206.872 650.693 207.024 650.245 207.328C649.813 207.632 649.597 208.064 649.597 208.624C649.597 209.152 649.829 209.584 650.293 209.92C650.773 210.24 651.589 210.448 652.741 210.544C654.165 210.672 655.221 211.024 655.909 211.6C656.613 212.16 656.965 212.904 656.965 213.832C656.965 214.584 656.749 215.232 656.317 215.776C655.885 216.304 655.309 216.704 654.589 216.976C653.869 217.248 653.093 217.384 652.261 217.384Z" fill="#555C6E"/>
<circle cx="557" cy="69.0002" r="68.9999" fill="#E5E5E5"/>
<path fill-rule="evenodd" clip-rule="evenodd" d="M490.857 88.6769C499.328 117.198 525.74 138 557.011 138C595.118 138 626.01 107.107 626.01 68.9998C626.01 30.8922 595.118 -9.15527e-05 557.011 -9.15527e-05C556.902 -9.15527e-05 556.794 0.000152588 556.686 0.000656128V68.6759H556.107L490.857 88.6769Z" fill="#2BB09F"/>
<path fill-rule="evenodd" clip-rule="evenodd" d="M28.391 34.2532C28.391 38.8113 24.4003 42.5064 19.4775 42.5064C14.5548 42.5064 10.5641 38.8113 10.5641 34.2532C10.5641 29.6951 14.5548 26 19.4775 26C24.4003 26 28.391 29.6951 28.391 34.2532ZM9.24357 44.4871H31.032H32.3526H34.9936V44.9379C38.0709 46.0256 40.2756 48.9604 40.2756 52.4102V79.4807C40.2756 81.6686 38.502 83.4422 36.3141 83.4422C34.1262 83.4422 32.3526 81.6686 32.3526 79.4807V56.3717H31.032V84.1025H18.8415V124.29C18.8415 126.891 16.7326 129 14.1312 129C11.5297 129 9.42082 126.891 9.42082 124.29V84.1025H9.24357V56.3717H7.92307V79.4807C7.92307 81.6686 6.14943 83.4422 3.96154 83.4422C1.77364 83.4422 0 81.6686 0 79.4807V52.4102C0 48.0344 3.54728 44.4871 7.92307 44.4871H9.24357ZM20.4681 84.1026H31.0322V123.718C31.0322 126.635 28.6673 129 25.7501 129C22.833 129 20.4681 126.635 20.4681 123.718V84.1026Z" fill="#8592EF"/>
<ellipse cx="72.2977" cy="34.2532" rx="8.91346" ry="8.2532" fill="#C4C4C4"/>
<path fill-rule="evenodd" clip-rule="evenodd" d="M134.032 34.2532C134.032 38.8113 130.041 42.5064 125.118 42.5064C120.196 42.5064 116.205 38.8113 116.205 34.2532C116.205 29.6951 120.196 26 125.118 26C130.041 26 134.032 29.6951 134.032 34.2532ZM114.884 44.4871H136.673H137.993H140.634V44.9379C143.712 46.0256 145.916 48.9604 145.916 52.4102V79.4807C145.916 81.6686 144.143 83.4422 141.955 83.4422C139.767 83.4422 137.993 81.6686 137.993 79.4807V56.3717H136.673V84.1025H124.981V123.976C124.981 126.75 122.732 129 119.957 129C117.182 129 114.933 126.75 114.933 123.976V84.1025H114.884V56.3717H113.564V79.4807C113.564 81.6686 111.79 83.4422 109.602 83.4422C107.414 83.4422 105.641 81.6686 105.641 79.4807V52.4102C105.641 48.0344 109.188 44.4871 113.564 44.4871H114.884ZM126.109 84.1026H136.673V123.718C136.673 126.635 134.308 129 131.391 129C128.474 129 126.109 126.635 126.109 123.718V84.1026Z" fill="#C4C4C4"/>
<path fill-rule="evenodd" clip-rule="evenodd" d="M187.513 34.2532C187.513 38.8113 183.522 42.5064 178.599 42.5064C173.677 42.5064 169.686 38.8113 169.686 34.2532C169.686 29.6951 173.677 26 178.599 26C183.522 26 187.513 29.6951 187.513 34.2532ZM168.365 44.4871H190.154H191.474H194.115V44.9378C197.193 46.0254 199.398 48.9603 199.398 52.4102V79.4807C199.398 81.6686 197.624 83.4422 195.436 83.4422C193.248 83.4422 191.474 81.6686 191.474 79.4807V56.3717H190.154V84.1025H178.366V123.976C178.366 126.75 176.116 129 173.341 129C170.567 129 168.317 126.75 168.317 123.976V56.3717H167.045V79.4807C167.045 81.6686 165.271 83.4422 163.083 83.4422C160.895 83.4422 159.122 81.6686 159.122 79.4807V52.4102C159.122 48.0344 162.669 44.4871 167.045 44.4871H168.365ZM179.59 84.1026H190.154V123.718C190.154 126.635 187.789 129 184.872 129C181.955 129 179.59 126.635 179.59 123.718V84.1026Z" fill="#C4C4C4"/>
<path fill-rule="evenodd" clip-rule="evenodd" d="M240.333 34.2532C240.333 38.8113 236.342 42.5064 231.419 42.5064C226.497 42.5064 222.506 38.8113 222.506 34.2532C222.506 29.6951 226.497 26 231.419 26C236.342 26 240.333 29.6951 240.333 34.2532ZM221.185 44.4871H242.974H244.294H246.935V44.9379C250.013 46.0256 252.218 48.9604 252.218 52.4102V79.4807C252.218 81.6686 250.444 83.4422 248.256 83.4422C246.068 83.4422 244.294 81.6686 244.294 79.4807V56.3717H242.974V84.1025H231.122V123.976C231.122 126.75 228.872 129 226.097 129C223.322 129 221.073 126.75 221.073 123.976V56.3717H219.865V79.4807C219.865 81.6686 218.091 83.4422 215.903 83.4422C213.716 83.4422 211.942 81.6686 211.942 79.4807V52.4102C211.942 48.0344 215.489 44.4871 219.865 44.4871H221.185ZM232.41 84.1026H242.974V123.718C242.974 126.635 240.609 129 237.692 129C234.775 129 232.41 126.635 232.41 123.718V84.1026Z" fill="#C4C4C4"/>
<path fill-rule="evenodd" clip-rule="evenodd" d="M72.2979 42.5064C77.2207 42.5064 81.2114 38.8113 81.2114 34.2532C81.2114 29.6951 77.2207 26 72.2979 26C67.3752 26 63.3845 29.6951 63.3845 34.2532C63.3845 38.8113 67.3752 42.5064 72.2979 42.5064ZM79.891 44.4873H62.064V84.1025V84.1026V124.048C62.064 126.783 64.281 129 67.0159 129C69.7508 129 71.9678 126.783 71.9678 124.048V84.1026H73.2885V123.718C73.2885 126.635 75.6533 129 78.5705 129C81.4877 129 83.8526 126.635 83.8526 123.718V84.1025H83.8524V56.3719H85.173V79.4808C85.173 81.6687 86.9466 83.4424 89.1345 83.4424C91.3224 83.4424 93.096 81.6687 93.096 79.4808V52.4103C93.096 48.4845 90.2407 45.2255 86.4935 44.5968V44.4873H85.173H83.8524H79.891Z" fill="#C4C4C4"/>
<path fill-rule="evenodd" clip-rule="evenodd" d="M67.3466 41.1859V27.3699C67.3466 27.3304 66.4663 27.9808 66.0261 28.3109C65.5859 28.6411 65.1208 29.0319 64.7056 29.6315C64.3775 30.1056 64.0454 30.952 64.0454 30.952C64.0454 30.952 63.8332 31.4241 63.7153 31.9424L63.6916 32.046L63.6916 32.046C63.5523 32.6566 63.4052 33.3014 63.3852 33.9232C63.3776 34.1577 63.3608 34.3614 63.345 34.5519L63.345 34.552C63.3081 34.9983 63.2771 35.3728 63.3851 35.9039C63.5073 36.5046 63.6837 36.8486 63.9394 37.3471L63.9396 37.3474L63.94 37.3482C63.9737 37.414 64.0088 37.4825 64.0454 37.5546C64.4657 38.3838 64.7485 38.8403 65.3658 39.5353C66.0345 40.2882 67.3466 41.1859 67.3466 41.1859ZM52.8208 52.4105C52.8208 48.0347 56.3681 44.4874 60.7439 44.4874H67.3464V56.372H67.3464V129C64.4292 129 62.0644 126.635 62.0644 123.718V56.372H60.7439V79.481C60.7439 81.6689 58.9702 83.4425 56.7823 83.4425C54.5944 83.4425 52.8208 81.6689 52.8208 79.481V52.4105Z" fill="#8592EF"/>
</svg>
