<svg width="698" height="249" viewBox="0 0 698 249" fill="none" xmlns="http://www.w3.org/2000/svg">
<path d="M9.6 211V197.36H11.1V203.26H18.3V197.36H19.8V211H18.3V204.5H11.1V211H9.6ZM26.6984 201.32C27.5384 201.32 28.2984 201.527 28.9784 201.94C29.6584 202.353 30.1918 202.92 30.5784 203.64C30.9651 204.347 31.1584 205.14 31.1584 206.02C31.1584 206.273 31.1518 206.467 31.1384 206.6H23.4384C23.4918 207.56 23.8051 208.38 24.3784 209.06C24.9518 209.74 25.7318 210.08 26.7184 210.08C27.5184 210.08 28.1784 209.933 28.6984 209.64C29.2318 209.333 29.6584 208.913 29.9784 208.38L31.0584 209.1C30.6184 209.793 30.0384 210.34 29.3184 210.74C28.5984 211.127 27.7451 211.32 26.7584 211.32C25.8518 211.32 25.0451 211.107 24.3384 210.68C23.6318 210.253 23.0784 209.66 22.6784 208.9C22.2784 208.14 22.0784 207.28 22.0784 206.32C22.0784 205.36 22.2718 204.5 22.6584 203.74C23.0584 202.98 23.6051 202.387 24.2984 201.96C25.0051 201.533 25.8051 201.32 26.6984 201.32ZM29.7984 205.48C29.6651 204.507 29.3384 203.78 28.8184 203.3C28.2984 202.807 27.5918 202.56 26.6984 202.56C25.8318 202.56 25.1184 202.84 24.5584 203.4C24.0118 203.947 23.6651 204.64 23.5184 205.48H29.7984ZM39.9008 211H38.3408L35.9008 207.1L33.4608 211H31.9408L34.9408 206.2L32.1208 201.64H33.6608L35.9208 205.32L38.3008 201.64H39.8008L36.8608 206.18L39.9008 211ZM55.5322 206.6V207.96H53.7922V211H52.4322V207.96H45.5922V206.6L52.4322 197.36H53.7922V206.6H55.5322ZM47.0322 206.6H52.4322V199.48L47.0322 206.6ZM57.2566 210.14C57.2566 209.553 57.3899 209.013 57.6566 208.52C57.9366 208.013 58.2766 207.567 58.6766 207.18C59.0766 206.78 59.6232 206.293 60.3166 205.72C60.7432 205.373 60.9699 205.187 60.9966 205.16C61.8632 204.427 62.5366 203.707 63.0166 203C63.4966 202.293 63.7366 201.48 63.7366 200.56C63.7366 199.92 63.5166 199.407 63.0766 199.02C62.6499 198.62 62.0832 198.42 61.3766 198.42C60.7232 198.42 60.1232 198.587 59.5766 198.92C59.0432 199.24 58.5432 199.713 58.0766 200.34L56.9766 199.4C57.5099 198.667 58.1632 198.093 58.9366 197.68C59.7232 197.267 60.5366 197.06 61.3766 197.06C62.5632 197.06 63.5099 197.38 64.2166 198.02C64.9232 198.647 65.2766 199.493 65.2766 200.56C65.2766 201.68 64.9566 202.68 64.3166 203.56C63.6766 204.44 62.7966 205.353 61.6766 206.3C61.3966 206.54 61.2632 206.653 61.2766 206.64C60.4499 207.32 59.8366 207.88 59.4366 208.32C59.0366 208.76 58.8366 209.2 58.8366 209.64H65.4566V211H57.2566V210.14ZM72.017 211.32C71.1504 211.32 70.3637 211.147 69.657 210.8C68.9504 210.453 68.3904 209.96 67.977 209.32C67.5637 208.68 67.357 207.947 67.357 207.12C67.357 206.2 67.5904 205.44 68.057 204.84C68.537 204.24 69.2237 203.807 70.117 203.54C68.6637 203.02 67.937 202.047 67.937 200.62C67.937 199.887 68.117 199.253 68.477 198.72C68.8504 198.187 69.3437 197.78 69.957 197.5C70.5837 197.207 71.2637 197.06 71.997 197.06C72.7437 197.06 73.4237 197.207 74.037 197.5C74.6637 197.78 75.157 198.193 75.517 198.74C75.877 199.273 76.057 199.9 76.057 200.62C76.057 202.047 75.337 203.02 73.897 203.54C74.8037 203.847 75.4837 204.293 75.937 204.88C76.4037 205.453 76.637 206.2 76.637 207.12C76.637 207.933 76.437 208.66 76.037 209.3C75.637 209.94 75.0837 210.44 74.377 210.8C73.6704 211.147 72.8837 211.32 72.017 211.32ZM72.017 202.88C72.8304 202.88 73.457 202.693 73.897 202.32C74.3504 201.947 74.577 201.387 74.577 200.64C74.577 199.88 74.3437 199.32 73.877 198.96C73.4237 198.587 72.797 198.4 71.997 198.4C71.197 198.4 70.5637 198.587 70.097 198.96C69.6304 199.333 69.397 199.887 69.397 200.62C69.397 201.38 69.637 201.947 70.117 202.32C70.597 202.693 71.2304 202.88 72.017 202.88ZM71.977 209.98C72.977 209.98 73.757 209.733 74.317 209.24C74.8904 208.733 75.177 208.02 75.177 207.1C75.177 206.167 74.897 205.453 74.337 204.96C73.777 204.467 72.997 204.22 71.997 204.22C71.0104 204.22 70.2304 204.467 69.657 204.96C69.0837 205.453 68.797 206.16 68.797 207.08C68.797 208.013 69.077 208.733 69.637 209.24C70.2104 209.733 70.9904 209.98 71.977 209.98ZM79.1113 211V197.36H86.7513V198.62H80.6113V203.38H85.4113V204.6H80.6113V209.76H86.8113V211H79.1113ZM89.1698 211V197.36H96.6098V198.62H90.6698V203.38H95.0698V204.6H90.6698V211H89.1698ZM103.273 211.32C102.127 211.32 101.133 211.04 100.293 210.48C99.4666 209.907 98.8266 209.093 98.3733 208.04C97.9333 206.973 97.7133 205.7 97.7133 204.22C97.7133 202.727 97.9266 201.447 98.3533 200.38C98.7933 199.3 99.4133 198.48 100.213 197.92C101.027 197.347 101.987 197.06 103.093 197.06C104.227 197.06 105.193 197.313 105.993 197.82C106.807 198.313 107.44 199.013 107.893 199.92L106.693 200.62C106.267 199.833 105.767 199.273 105.193 198.94C104.62 198.593 103.92 198.42 103.093 198.42C101.907 198.42 100.973 198.933 100.293 199.96C99.6266 200.973 99.2933 202.387 99.2933 204.2C99.2933 205.387 99.4466 206.413 99.7533 207.28C100.06 208.147 100.5 208.813 101.073 209.28C101.647 209.733 102.313 209.96 103.073 209.96C104.02 209.96 104.753 209.753 105.273 209.34C105.807 208.913 106.3 208.253 106.753 207.36L108.013 208.12C107.533 209.16 106.893 209.953 106.093 210.5C105.307 211.047 104.367 211.32 103.273 211.32Z" fill="#3B3B3B"/>
<path d="M241.6 99V85.36H243.1V91.26H250.3V85.36H251.8V99H250.3V92.5H243.1V99H241.6ZM258.698 89.32C259.538 89.32 260.298 89.5267 260.978 89.94C261.658 90.3533 262.192 90.92 262.578 91.64C262.965 92.3467 263.158 93.14 263.158 94.02C263.158 94.2733 263.152 94.4667 263.138 94.6H255.438C255.492 95.56 255.805 96.38 256.378 97.06C256.952 97.74 257.732 98.08 258.718 98.08C259.518 98.08 260.178 97.9333 260.698 97.64C261.232 97.3333 261.658 96.9133 261.978 96.38L263.058 97.1C262.618 97.7933 262.038 98.34 261.318 98.74C260.598 99.1267 259.745 99.32 258.758 99.32C257.852 99.32 257.045 99.1067 256.338 98.68C255.632 98.2533 255.078 97.66 254.678 96.9C254.278 96.14 254.078 95.28 254.078 94.32C254.078 93.36 254.272 92.5 254.658 91.74C255.058 90.98 255.605 90.3867 256.298 89.96C257.005 89.5333 257.805 89.32 258.698 89.32ZM261.798 93.48C261.665 92.5067 261.338 91.78 260.818 91.3C260.298 90.8067 259.592 90.56 258.698 90.56C257.832 90.56 257.118 90.84 256.558 91.4C256.012 91.9467 255.665 92.64 255.518 93.48H261.798ZM271.901 99H270.341L267.901 95.1L265.461 99H263.941L266.941 94.2L264.121 89.64H265.661L267.921 93.32L270.301 89.64H271.801L268.861 94.18L271.901 99ZM277.772 98.14C277.772 97.5533 277.906 97.0133 278.172 96.52C278.452 96.0133 278.792 95.5667 279.192 95.18C279.592 94.78 280.139 94.2933 280.832 93.72C281.259 93.3733 281.486 93.1867 281.512 93.16C282.379 92.4267 283.052 91.7067 283.532 91C284.012 90.2933 284.252 89.48 284.252 88.56C284.252 87.92 284.032 87.4067 283.592 87.02C283.166 86.62 282.599 86.42 281.892 86.42C281.239 86.42 280.639 86.5867 280.092 86.92C279.559 87.24 279.059 87.7133 278.592 88.34L277.492 87.4C278.026 86.6667 278.679 86.0933 279.452 85.68C280.239 85.2667 281.052 85.06 281.892 85.06C283.079 85.06 284.026 85.38 284.732 86.02C285.439 86.6467 285.792 87.4933 285.792 88.56C285.792 89.68 285.472 90.68 284.832 91.56C284.192 92.44 283.312 93.3533 282.192 94.3C281.912 94.54 281.779 94.6533 281.792 94.64C280.966 95.32 280.352 95.88 279.952 96.32C279.552 96.76 279.352 97.2 279.352 97.64H285.972V99H277.772V98.14ZM295.173 91.66C295.959 91.86 296.566 92.2467 296.993 92.82C297.419 93.3933 297.633 94.1467 297.633 95.08C297.633 96.2933 297.266 97.2533 296.533 97.96C295.799 98.6533 294.793 99 293.513 99H288.553V85.36H293.053C294.266 85.36 295.219 85.68 295.913 86.32C296.606 86.9467 296.953 87.7867 296.953 88.84C296.953 89.52 296.799 90.1067 296.493 90.6C296.186 91.08 295.746 91.4333 295.173 91.66ZM290.053 91.18H293.233C294.659 91.18 295.373 90.4 295.373 88.84C295.373 88.1333 295.166 87.5867 294.753 87.2C294.339 86.8133 293.766 86.62 293.033 86.62H290.053V91.18ZM293.313 97.76C294.166 97.76 294.833 97.52 295.313 97.04C295.806 96.56 296.053 95.9067 296.053 95.08C296.053 94.2533 295.806 93.6067 295.313 93.14C294.833 92.66 294.166 92.42 293.313 92.42H290.053V97.76H293.313ZM308.517 99L307.117 95.18H301.457L300.197 99H298.697L303.537 85.36H304.937L309.917 99H308.517ZM301.917 93.94H306.657L304.217 87.32L301.917 93.94ZM311.736 99V85.36H319.176V86.62H313.236V91.38H317.636V92.6H313.236V99H311.736ZM324.62 85.06C325.473 85.06 326.246 85.2933 326.94 85.76C327.646 86.2133 328.193 86.8533 328.58 87.68C328.98 88.5067 329.18 89.44 329.18 90.48C329.18 92.4267 328.846 94.0667 328.18 95.4C327.526 96.72 326.626 97.7067 325.48 98.36C324.346 99 323.06 99.32 321.62 99.32V98.04C323.246 98.04 324.586 97.6133 325.64 96.76C326.693 95.9067 327.366 94.6933 327.66 93.12C327.38 93.6133 326.953 93.9933 326.38 94.26C325.806 94.5267 325.233 94.66 324.66 94.66C323.806 94.66 323.033 94.4533 322.34 94.04C321.646 93.6267 321.1 93.06 320.7 92.34C320.3 91.6067 320.1 90.78 320.1 89.86C320.1 88.94 320.293 88.12 320.68 87.4C321.08 86.6667 321.62 86.0933 322.3 85.68C322.993 85.2667 323.766 85.06 324.62 85.06ZM324.66 93.42C325.633 93.42 326.4 93.1067 326.96 92.48C327.533 91.84 327.82 91.04 327.82 90.08C327.82 89.36 327.68 88.7133 327.4 88.14C327.12 87.5533 326.74 87.1 326.26 86.78C325.78 86.46 325.246 86.3 324.66 86.3C324.06 86.3 323.513 86.4533 323.02 86.76C322.54 87.0667 322.16 87.4933 321.88 88.04C321.6 88.5733 321.46 89.18 321.46 89.86C321.46 90.54 321.6 91.1533 321.88 91.7C322.16 92.2333 322.54 92.6533 323.02 92.96C323.513 93.2667 324.06 93.42 324.66 93.42ZM331.971 99V85.36H339.611V86.62H333.471V91.38H338.271V92.6H333.471V97.76H339.671V99H331.971Z" fill="#3B3B3B"/>
<path d="M596.6 99V85.36H598.1V91.26H605.3V85.36H606.8V99H605.3V92.5H598.1V99H596.6ZM613.698 89.32C614.538 89.32 615.298 89.5267 615.978 89.94C616.658 90.3533 617.192 90.92 617.578 91.64C617.965 92.3467 618.158 93.14 618.158 94.02C618.158 94.2733 618.152 94.4667 618.138 94.6H610.438C610.492 95.56 610.805 96.38 611.378 97.06C611.952 97.74 612.732 98.08 613.718 98.08C614.518 98.08 615.178 97.9333 615.698 97.64C616.232 97.3333 616.658 96.9133 616.978 96.38L618.058 97.1C617.618 97.7933 617.038 98.34 616.318 98.74C615.598 99.1267 614.745 99.32 613.758 99.32C612.852 99.32 612.045 99.1067 611.338 98.68C610.632 98.2533 610.078 97.66 609.678 96.9C609.278 96.14 609.078 95.28 609.078 94.32C609.078 93.36 609.272 92.5 609.658 91.74C610.058 90.98 610.605 90.3867 611.298 89.96C612.005 89.5333 612.805 89.32 613.698 89.32ZM616.798 93.48C616.665 92.5067 616.338 91.78 615.818 91.3C615.298 90.8067 614.592 90.56 613.698 90.56C612.832 90.56 612.118 90.84 611.558 91.4C611.012 91.9467 610.665 92.64 610.518 93.48H616.798ZM626.901 99H625.341L622.901 95.1L620.461 99H618.941L621.941 94.2L619.121 89.64H620.661L622.921 93.32L625.301 89.64H626.801L623.861 94.18L626.901 99ZM637.552 99.32C636.686 99.32 635.899 99.1467 635.192 98.8C634.486 98.4533 633.926 97.96 633.512 97.32C633.099 96.68 632.892 95.9467 632.892 95.12C632.892 94.2 633.126 93.44 633.592 92.84C634.072 92.24 634.759 91.8067 635.652 91.54C634.199 91.02 633.472 90.0467 633.472 88.62C633.472 87.8867 633.652 87.2533 634.012 86.72C634.386 86.1867 634.879 85.78 635.492 85.5C636.119 85.2067 636.799 85.06 637.532 85.06C638.279 85.06 638.959 85.2067 639.572 85.5C640.199 85.78 640.692 86.1933 641.052 86.74C641.412 87.2733 641.592 87.9 641.592 88.62C641.592 90.0467 640.872 91.02 639.432 91.54C640.339 91.8467 641.019 92.2933 641.472 92.88C641.939 93.4533 642.172 94.2 642.172 95.12C642.172 95.9333 641.972 96.66 641.572 97.3C641.172 97.94 640.619 98.44 639.912 98.8C639.206 99.1467 638.419 99.32 637.552 99.32ZM637.552 90.88C638.366 90.88 638.992 90.6933 639.432 90.32C639.886 89.9467 640.112 89.3867 640.112 88.64C640.112 87.88 639.879 87.32 639.412 86.96C638.959 86.5867 638.332 86.4 637.532 86.4C636.732 86.4 636.099 86.5867 635.632 86.96C635.166 87.3333 634.932 87.8867 634.932 88.62C634.932 89.38 635.172 89.9467 635.652 90.32C636.132 90.6933 636.766 90.88 637.552 90.88ZM637.512 97.98C638.512 97.98 639.292 97.7333 639.852 97.24C640.426 96.7333 640.712 96.02 640.712 95.1C640.712 94.1667 640.432 93.4533 639.872 92.96C639.312 92.4667 638.532 92.22 637.532 92.22C636.546 92.22 635.766 92.4667 635.192 92.96C634.619 93.4533 634.332 94.16 634.332 95.08C634.332 96.0133 634.612 96.7333 635.172 97.24C635.746 97.7333 636.526 97.98 637.512 97.98ZM648.806 90.16C650.126 90.16 651.153 90.56 651.886 91.36C652.633 92.16 653.006 93.2733 653.006 94.7C653.006 96.1533 652.613 97.2867 651.826 98.1C651.053 98.9133 649.966 99.32 648.566 99.32C647.66 99.32 646.82 99.1667 646.046 98.86C645.273 98.54 644.653 98.0933 644.186 97.52L645.246 96.78C645.58 97.1933 646.04 97.5133 646.626 97.74C647.226 97.9667 647.886 98.08 648.606 98.08C649.566 98.08 650.313 97.7867 650.846 97.2C651.393 96.6 651.666 95.7667 651.666 94.7C651.653 93.66 651.386 92.8533 650.866 92.28C650.346 91.6933 649.62 91.4 648.686 91.4C648.1 91.4 647.48 91.5 646.826 91.7C646.173 91.8867 645.56 92.1533 644.986 92.5V85.36H652.306V86.76H646.346V90.6C647.186 90.3067 648.006 90.16 648.806 90.16ZM659.717 85.06C660.571 85.06 661.344 85.2933 662.037 85.76C662.744 86.2133 663.291 86.8533 663.677 87.68C664.077 88.5067 664.277 89.44 664.277 90.48C664.277 92.4267 663.944 94.0667 663.277 95.4C662.624 96.72 661.724 97.7067 660.577 98.36C659.444 99 658.157 99.32 656.717 99.32V98.04C658.344 98.04 659.684 97.6133 660.737 96.76C661.791 95.9067 662.464 94.6933 662.757 93.12C662.477 93.6133 662.051 93.9933 661.477 94.26C660.904 94.5267 660.331 94.66 659.757 94.66C658.904 94.66 658.131 94.4533 657.437 94.04C656.744 93.6267 656.197 93.06 655.797 92.34C655.397 91.6067 655.197 90.78 655.197 89.86C655.197 88.94 655.391 88.12 655.777 87.4C656.177 86.6667 656.717 86.0933 657.397 85.68C658.091 85.2667 658.864 85.06 659.717 85.06ZM659.757 93.42C660.731 93.42 661.497 93.1067 662.057 92.48C662.631 91.84 662.917 91.04 662.917 90.08C662.917 89.36 662.777 88.7133 662.497 88.14C662.217 87.5533 661.837 87.1 661.357 86.78C660.877 86.46 660.344 86.3 659.757 86.3C659.157 86.3 658.611 86.4533 658.117 86.76C657.637 87.0667 657.257 87.4933 656.977 88.04C656.697 88.5733 656.557 89.18 656.557 89.86C656.557 90.54 656.697 91.1533 656.977 91.7C657.257 92.2333 657.637 92.6533 658.117 92.96C658.611 93.2667 659.157 93.42 659.757 93.42ZM665.878 98.14C665.878 97.5533 666.011 97.0133 666.278 96.52C666.558 96.0133 666.898 95.5667 667.298 95.18C667.698 94.78 668.244 94.2933 668.938 93.72C669.364 93.3733 669.591 93.1867 669.618 93.16C670.484 92.4267 671.158 91.7067 671.638 91C672.118 90.2933 672.358 89.48 672.358 88.56C672.358 87.92 672.138 87.4067 671.698 87.02C671.271 86.62 670.704 86.42 669.998 86.42C669.344 86.42 668.744 86.5867 668.198 86.92C667.664 87.24 667.164 87.7133 666.698 88.34L665.598 87.4C666.131 86.6667 666.784 86.0933 667.558 85.68C668.344 85.2667 669.158 85.06 669.998 85.06C671.184 85.06 672.131 85.38 672.838 86.02C673.544 86.6467 673.898 87.4933 673.898 88.56C673.898 89.68 673.578 90.68 672.938 91.56C672.298 92.44 671.418 93.3533 670.298 94.3C670.018 94.54 669.884 94.6533 669.898 94.64C669.071 95.32 668.458 95.88 668.058 96.32C667.658 96.76 667.458 97.2 667.458 97.64H674.078V99H665.878V98.14ZM676.658 99V85.36H684.298V86.62H678.158V91.38H682.958V92.6H678.158V97.76H684.358V99H676.658ZM686.717 99V85.36H694.157V86.62H688.217V91.38H692.617V92.6H688.217V99H686.717Z" fill="#3B3B3B"/>
<path d="M408.6 242V228.36H410.1V234.26H417.3V228.36H418.8V242H417.3V235.5H410.1V242H408.6ZM425.698 232.32C426.538 232.32 427.298 232.527 427.978 232.94C428.658 233.353 429.192 233.92 429.578 234.64C429.965 235.347 430.158 236.14 430.158 237.02C430.158 237.273 430.152 237.467 430.138 237.6H422.438C422.492 238.56 422.805 239.38 423.378 240.06C423.952 240.74 424.732 241.08 425.718 241.08C426.518 241.08 427.178 240.933 427.698 240.64C428.232 240.333 428.658 239.913 428.978 239.38L430.058 240.1C429.618 240.793 429.038 241.34 428.318 241.74C427.598 242.127 426.745 242.32 425.758 242.32C424.852 242.32 424.045 242.107 423.338 241.68C422.632 241.253 422.078 240.66 421.678 239.9C421.278 239.14 421.078 238.28 421.078 237.32C421.078 236.36 421.272 235.5 421.658 234.74C422.058 233.98 422.605 233.387 423.298 232.96C424.005 232.533 424.805 232.32 425.698 232.32ZM428.798 236.48C428.665 235.507 428.338 234.78 427.818 234.3C427.298 233.807 426.592 233.56 425.698 233.56C424.832 233.56 424.118 233.84 423.558 234.4C423.012 234.947 422.665 235.64 422.518 236.48H428.798ZM438.901 242H437.341L434.901 238.1L432.461 242H430.941L433.941 237.2L431.121 232.64H432.661L434.921 236.32L437.301 232.64H438.801L435.861 237.18L438.901 242ZM449.576 242V228.36H457.016V229.62H451.076V234.38H455.476V235.6H451.076V242H449.576ZM462.76 233.16C464.08 233.16 465.106 233.56 465.84 234.36C466.586 235.16 466.96 236.273 466.96 237.7C466.96 239.153 466.566 240.287 465.78 241.1C465.006 241.913 463.92 242.32 462.52 242.32C461.613 242.32 460.773 242.167 460 241.86C459.226 241.54 458.606 241.093 458.14 240.52L459.2 239.78C459.533 240.193 459.993 240.513 460.58 240.74C461.18 240.967 461.84 241.08 462.56 241.08C463.52 241.08 464.266 240.787 464.8 240.2C465.346 239.6 465.62 238.767 465.62 237.7C465.606 236.66 465.34 235.853 464.82 235.28C464.3 234.693 463.573 234.4 462.64 234.4C462.053 234.4 461.433 234.5 460.78 234.7C460.126 234.887 459.513 235.153 458.94 235.5V228.36H466.26V229.76H460.3V233.6C461.14 233.307 461.96 233.16 462.76 233.16ZM469.81 242V228.36H477.25V229.62H471.31V234.38H475.71V235.6H471.31V242H469.81ZM482.994 233.16C484.314 233.16 485.341 233.56 486.074 234.36C486.821 235.16 487.194 236.273 487.194 237.7C487.194 239.153 486.801 240.287 486.014 241.1C485.241 241.913 484.154 242.32 482.754 242.32C481.847 242.32 481.007 242.167 480.234 241.86C479.461 241.54 478.841 241.093 478.374 240.52L479.434 239.78C479.767 240.193 480.227 240.513 480.814 240.74C481.414 240.967 482.074 241.08 482.794 241.08C483.754 241.08 484.501 240.787 485.034 240.2C485.581 239.6 485.854 238.767 485.854 237.7C485.841 236.66 485.574 235.853 485.054 235.28C484.534 234.693 483.807 234.4 482.874 234.4C482.287 234.4 481.667 234.5 481.014 234.7C480.361 234.887 479.747 235.153 479.174 235.5V228.36H486.494V229.76H480.534V233.6C481.374 233.307 482.194 233.16 482.994 233.16ZM490.045 242V228.36H497.485V229.62H491.545V234.38H495.945V235.6H491.545V242H490.045ZM503.228 233.16C504.548 233.16 505.575 233.56 506.308 234.36C507.055 235.16 507.428 236.273 507.428 237.7C507.428 239.153 507.035 240.287 506.248 241.1C505.475 241.913 504.388 242.32 502.988 242.32C502.082 242.32 501.242 242.167 500.468 241.86C499.695 241.54 499.075 241.093 498.608 240.52L499.668 239.78C500.002 240.193 500.462 240.513 501.048 240.74C501.648 240.967 502.308 241.08 503.028 241.08C503.988 241.08 504.735 240.787 505.268 240.2C505.815 239.6 506.088 238.767 506.088 237.7C506.075 236.66 505.808 235.853 505.288 235.28C504.768 234.693 504.042 234.4 503.108 234.4C502.522 234.4 501.902 234.5 501.248 234.7C500.595 234.887 499.982 235.153 499.408 235.5V228.36H506.728V229.76H500.768V233.6C501.608 233.307 502.428 233.16 503.228 233.16Z" fill="#3B3B3B"/>
<path d="M595.6 242V228.36H597.1V234.26H604.3V228.36H605.8V242H604.3V235.5H597.1V242H595.6ZM612.698 232.32C613.538 232.32 614.298 232.527 614.978 232.94C615.658 233.353 616.192 233.92 616.578 234.64C616.965 235.347 617.158 236.14 617.158 237.02C617.158 237.273 617.152 237.467 617.138 237.6H609.438C609.492 238.56 609.805 239.38 610.378 240.06C610.952 240.74 611.732 241.08 612.718 241.08C613.518 241.08 614.178 240.933 614.698 240.64C615.232 240.333 615.658 239.913 615.978 239.38L617.058 240.1C616.618 240.793 616.038 241.34 615.318 241.74C614.598 242.127 613.745 242.32 612.758 242.32C611.852 242.32 611.045 242.107 610.338 241.68C609.632 241.253 609.078 240.66 608.678 239.9C608.278 239.14 608.078 238.28 608.078 237.32C608.078 236.36 608.272 235.5 608.658 234.74C609.058 233.98 609.605 233.387 610.298 232.96C611.005 232.533 611.805 232.32 612.698 232.32ZM615.798 236.48C615.665 235.507 615.338 234.78 614.818 234.3C614.298 233.807 613.592 233.56 612.698 233.56C611.832 233.56 611.118 233.84 610.558 234.4C610.012 234.947 609.665 235.64 609.518 236.48H615.798ZM625.901 242H624.341L621.901 238.1L619.461 242H617.941L620.941 237.2L618.121 232.64H619.661L621.921 236.32L624.301 232.64H625.801L622.861 237.18L625.901 242ZM636.432 242.32C635.539 242.32 634.719 242.013 633.972 241.4C633.226 240.787 632.639 239.94 632.212 238.86C631.786 237.767 631.572 236.54 631.572 235.18C631.572 233.82 631.786 232.6 632.212 231.52C632.639 230.427 633.219 229.58 633.952 228.98C634.699 228.367 635.519 228.06 636.412 228.06C637.306 228.06 638.119 228.367 638.852 228.98C639.599 229.58 640.186 230.427 640.612 231.52C641.039 232.6 641.252 233.82 641.252 235.18C641.252 236.54 641.039 237.767 640.612 238.86C640.186 239.94 639.606 240.787 638.872 241.4C638.139 242.013 637.326 242.32 636.432 242.32ZM636.412 241C637.052 241 637.619 240.76 638.112 240.28C638.606 239.787 638.992 239.1 639.272 238.22C639.552 237.327 639.692 236.313 639.692 235.18C639.692 234.047 639.552 233.04 639.272 232.16C638.992 231.28 638.606 230.6 638.112 230.12C637.619 229.627 637.052 229.38 636.412 229.38C635.772 229.38 635.199 229.627 634.692 230.12C634.199 230.6 633.812 231.28 633.532 232.16C633.252 233.04 633.112 234.047 633.112 235.18C633.112 236.313 633.252 237.327 633.532 238.22C633.812 239.1 634.199 239.787 634.692 240.28C635.199 240.76 635.772 241 636.412 241ZM643.783 242V228.36H651.223V229.62H645.283V234.38H649.683V235.6H645.283V242H643.783ZM652.007 241.14C652.007 240.553 652.14 240.013 652.407 239.52C652.687 239.013 653.027 238.567 653.427 238.18C653.827 237.78 654.373 237.293 655.067 236.72C655.493 236.373 655.72 236.187 655.747 236.16C656.613 235.427 657.287 234.707 657.767 234C658.247 233.293 658.487 232.48 658.487 231.56C658.487 230.92 658.267 230.407 657.827 230.02C657.4 229.62 656.833 229.42 656.127 229.42C655.473 229.42 654.873 229.587 654.327 229.92C653.793 230.24 653.293 230.713 652.827 231.34L651.727 230.4C652.26 229.667 652.913 229.093 653.687 228.68C654.473 228.267 655.287 228.06 656.127 228.06C657.313 228.06 658.26 228.38 658.967 229.02C659.673 229.647 660.027 230.493 660.027 231.56C660.027 232.68 659.707 233.68 659.067 234.56C658.427 235.44 657.547 236.353 656.427 237.3C656.147 237.54 656.013 237.653 656.027 237.64C655.2 238.32 654.587 238.88 654.187 239.32C653.787 239.76 653.587 240.2 653.587 240.64H660.207V242H652.007V241.14ZM666.947 233.16C668.267 233.16 669.294 233.56 670.027 234.36C670.774 235.16 671.147 236.273 671.147 237.7C671.147 239.153 670.754 240.287 669.967 241.1C669.194 241.913 668.107 242.32 666.707 242.32C665.8 242.32 664.96 242.167 664.187 241.86C663.414 241.54 662.794 241.093 662.327 240.52L663.387 239.78C663.72 240.193 664.18 240.513 664.767 240.74C665.367 240.967 666.027 241.08 666.747 241.08C667.707 241.08 668.454 240.787 668.987 240.2C669.534 239.6 669.807 238.767 669.807 237.7C669.794 236.66 669.527 235.853 669.007 235.28C668.487 234.693 667.76 234.4 666.827 234.4C666.24 234.4 665.62 234.5 664.967 234.7C664.314 234.887 663.7 235.153 663.127 235.5V228.36H670.447V229.76H664.487V233.6C665.327 233.307 666.147 233.16 666.947 233.16ZM679.378 234.74C680.111 234.967 680.705 235.4 681.158 236.04C681.611 236.68 681.838 237.42 681.838 238.26C681.838 239.033 681.645 239.733 681.258 240.36C680.885 240.973 680.365 241.453 679.698 241.8C679.045 242.147 678.325 242.32 677.538 242.32C676.551 242.32 675.705 242.067 674.998 241.56C674.291 241.053 673.765 240.373 673.418 239.52L674.618 238.82C674.938 239.5 675.345 240.04 675.838 240.44C676.345 240.827 676.931 241.02 677.598 241.02C678.385 241.02 679.038 240.76 679.558 240.24C680.091 239.72 680.358 239.06 680.358 238.26C680.358 237.433 680.091 236.753 679.558 236.22C679.025 235.687 678.345 235.42 677.518 235.42H676.558V234.18H677.438C678.171 234.18 678.758 233.947 679.198 233.48C679.638 233 679.858 232.387 679.858 231.64C679.858 230.96 679.645 230.407 679.218 229.98C678.805 229.54 678.271 229.32 677.618 229.32C676.925 229.32 676.338 229.513 675.858 229.9C675.378 230.273 674.965 230.813 674.618 231.52L673.518 230.92C673.905 230.04 674.451 229.347 675.158 228.84C675.865 228.32 676.685 228.06 677.618 228.06C678.325 228.06 678.958 228.213 679.518 228.52C680.078 228.827 680.511 229.253 680.818 229.8C681.138 230.333 681.298 230.947 681.298 231.64C681.298 232.36 681.125 233 680.778 233.56C680.445 234.107 679.978 234.5 679.378 234.74ZM688.403 232.72C689.256 232.72 690.03 232.927 690.723 233.34C691.416 233.753 691.963 234.327 692.363 235.06C692.763 235.78 692.963 236.6 692.963 237.52C692.963 238.44 692.763 239.267 692.363 240C691.976 240.72 691.436 241.287 690.743 241.7C690.063 242.113 689.296 242.32 688.443 242.32C687.59 242.32 686.81 242.093 686.103 241.64C685.41 241.173 684.863 240.527 684.463 239.7C684.076 238.873 683.883 237.94 683.883 236.9C683.883 234.953 684.21 233.32 684.863 232C685.53 230.667 686.43 229.68 687.563 229.04C688.71 228.387 690.003 228.06 691.443 228.06V229.34C689.816 229.34 688.476 229.767 687.423 230.62C686.37 231.473 685.696 232.687 685.403 234.26C685.683 233.767 686.11 233.387 686.683 233.12C687.256 232.853 687.83 232.72 688.403 232.72ZM688.403 241.08C689.003 241.08 689.543 240.927 690.023 240.62C690.516 240.313 690.903 239.893 691.183 239.36C691.463 238.813 691.603 238.2 691.603 237.52C691.603 236.84 691.463 236.233 691.183 235.7C690.903 235.153 690.516 234.727 690.023 234.42C689.543 234.113 689.003 233.96 688.403 233.96C687.43 233.96 686.656 234.28 686.083 234.92C685.523 235.547 685.243 236.34 685.243 237.3C685.243 238.02 685.383 238.673 685.663 239.26C685.943 239.833 686.323 240.28 686.803 240.6C687.283 240.92 687.816 241.08 688.403 241.08Z" fill="#3B3B3B"/>
<path d="M241.6 242V228.36H243.1V234.26H250.3V228.36H251.8V242H250.3V235.5H243.1V242H241.6ZM258.698 232.32C259.538 232.32 260.298 232.527 260.978 232.94C261.658 233.353 262.192 233.92 262.578 234.64C262.965 235.347 263.158 236.14 263.158 237.02C263.158 237.273 263.152 237.467 263.138 237.6H255.438C255.492 238.56 255.805 239.38 256.378 240.06C256.952 240.74 257.732 241.08 258.718 241.08C259.518 241.08 260.178 240.933 260.698 240.64C261.232 240.333 261.658 239.913 261.978 239.38L263.058 240.1C262.618 240.793 262.038 241.34 261.318 241.74C260.598 242.127 259.745 242.32 258.758 242.32C257.852 242.32 257.045 242.107 256.338 241.68C255.632 241.253 255.078 240.66 254.678 239.9C254.278 239.14 254.078 238.28 254.078 237.32C254.078 236.36 254.272 235.5 254.658 234.74C255.058 233.98 255.605 233.387 256.298 232.96C257.005 232.533 257.805 232.32 258.698 232.32ZM261.798 236.48C261.665 235.507 261.338 234.78 260.818 234.3C260.298 233.807 259.592 233.56 258.698 233.56C257.832 233.56 257.118 233.84 256.558 234.4C256.012 234.947 255.665 235.64 255.518 236.48H261.798ZM271.901 242H270.341L267.901 238.1L265.461 242H263.941L266.941 237.2L264.121 232.64H265.661L267.921 236.32L270.301 232.64H271.801L268.861 237.18L271.901 242ZM282.576 242V228.36H290.016V229.62H284.076V234.38H288.476V235.6H284.076V242H282.576ZM291.62 228.36H295C296.4 228.36 297.606 228.633 298.62 229.18C299.633 229.713 300.406 230.493 300.94 231.52C301.473 232.547 301.74 233.773 301.74 235.2C301.74 237.333 301.146 239 299.96 240.2C298.773 241.4 297.12 242 295 242H291.62V228.36ZM294.96 240.64C296.586 240.64 297.86 240.193 298.78 239.3C299.7 238.407 300.16 237.04 300.16 235.2C300.16 233.347 299.7 231.973 298.78 231.08C297.86 230.187 296.586 229.74 294.96 229.74H293.12V240.64H294.96ZM308.392 242.32C307.525 242.32 306.739 242.147 306.032 241.8C305.325 241.453 304.765 240.96 304.352 240.32C303.939 239.68 303.732 238.947 303.732 238.12C303.732 237.2 303.965 236.44 304.432 235.84C304.912 235.24 305.599 234.807 306.492 234.54C305.039 234.02 304.312 233.047 304.312 231.62C304.312 230.887 304.492 230.253 304.852 229.72C305.225 229.187 305.719 228.78 306.332 228.5C306.959 228.207 307.639 228.06 308.372 228.06C309.119 228.06 309.799 228.207 310.412 228.5C311.039 228.78 311.532 229.193 311.892 229.74C312.252 230.273 312.432 230.9 312.432 231.62C312.432 233.047 311.712 234.02 310.272 234.54C311.179 234.847 311.859 235.293 312.312 235.88C312.779 236.453 313.012 237.2 313.012 238.12C313.012 238.933 312.812 239.66 312.412 240.3C312.012 240.94 311.459 241.44 310.752 241.8C310.045 242.147 309.259 242.32 308.392 242.32ZM308.392 233.88C309.205 233.88 309.832 233.693 310.272 233.32C310.725 232.947 310.952 232.387 310.952 231.64C310.952 230.88 310.719 230.32 310.252 229.96C309.799 229.587 309.172 229.4 308.372 229.4C307.572 229.4 306.939 229.587 306.472 229.96C306.005 230.333 305.772 230.887 305.772 231.62C305.772 232.38 306.012 232.947 306.492 233.32C306.972 233.693 307.605 233.88 308.392 233.88ZM308.352 240.98C309.352 240.98 310.132 240.733 310.692 240.24C311.265 239.733 311.552 239.02 311.552 238.1C311.552 237.167 311.272 236.453 310.712 235.96C310.152 235.467 309.372 235.22 308.372 235.22C307.385 235.22 306.605 235.467 306.032 235.96C305.459 236.453 305.172 237.16 305.172 238.08C305.172 239.013 305.452 239.733 306.012 240.24C306.585 240.733 307.365 240.98 308.352 240.98ZM318.316 228.36H319.676V242H318.316V230.6L315.076 233.8L314.316 233.04L318.316 228.36ZM327.357 242.32C326.49 242.32 325.704 242.147 324.997 241.8C324.29 241.453 323.73 240.96 323.317 240.32C322.904 239.68 322.697 238.947 322.697 238.12C322.697 237.2 322.93 236.44 323.397 235.84C323.877 235.24 324.564 234.807 325.457 234.54C324.004 234.02 323.277 233.047 323.277 231.62C323.277 230.887 323.457 230.253 323.817 229.72C324.19 229.187 324.684 228.78 325.297 228.5C325.924 228.207 326.604 228.06 327.337 228.06C328.084 228.06 328.764 228.207 329.377 228.5C330.004 228.78 330.497 229.193 330.857 229.74C331.217 230.273 331.397 230.9 331.397 231.62C331.397 233.047 330.677 234.02 329.237 234.54C330.144 234.847 330.824 235.293 331.277 235.88C331.744 236.453 331.977 237.2 331.977 238.12C331.977 238.933 331.777 239.66 331.377 240.3C330.977 240.94 330.424 241.44 329.717 241.8C329.01 242.147 328.224 242.32 327.357 242.32ZM327.357 233.88C328.17 233.88 328.797 233.693 329.237 233.32C329.69 232.947 329.917 232.387 329.917 231.64C329.917 230.88 329.684 230.32 329.217 229.96C328.764 229.587 328.137 229.4 327.337 229.4C326.537 229.4 325.904 229.587 325.437 229.96C324.97 230.333 324.737 230.887 324.737 231.62C324.737 232.38 324.977 232.947 325.457 233.32C325.937 233.693 326.57 233.88 327.357 233.88ZM327.317 240.98C328.317 240.98 329.097 240.733 329.657 240.24C330.23 239.733 330.517 239.02 330.517 238.1C330.517 237.167 330.237 236.453 329.677 235.96C329.117 235.467 328.337 235.22 327.337 235.22C326.35 235.22 325.57 235.467 324.997 235.96C324.424 236.453 324.137 237.16 324.137 238.08C324.137 239.013 324.417 239.733 324.977 240.24C325.55 240.733 326.33 240.98 327.317 240.98ZM334.471 228.36H337.851C339.251 228.36 340.458 228.633 341.471 229.18C342.484 229.713 343.258 230.493 343.791 231.52C344.324 232.547 344.591 233.773 344.591 235.2C344.591 237.333 343.998 239 342.811 240.2C341.624 241.4 339.971 242 337.851 242H334.471V228.36ZM337.811 240.64C339.438 240.64 340.711 240.193 341.631 239.3C342.551 238.407 343.011 237.04 343.011 235.2C343.011 233.347 342.551 231.973 341.631 231.08C340.711 230.187 339.438 229.74 337.811 229.74H335.971V240.64H337.811Z" fill="#3B3B3B"/>
<path d="M408.6 99V85.36H410.1V91.26H417.3V85.36H418.8V99H417.3V92.5H410.1V99H408.6ZM425.698 89.32C426.538 89.32 427.298 89.5267 427.978 89.94C428.658 90.3533 429.192 90.92 429.578 91.64C429.965 92.3467 430.158 93.14 430.158 94.02C430.158 94.2733 430.152 94.4667 430.138 94.6H422.438C422.492 95.56 422.805 96.38 423.378 97.06C423.952 97.74 424.732 98.08 425.718 98.08C426.518 98.08 427.178 97.9333 427.698 97.64C428.232 97.3333 428.658 96.9133 428.978 96.38L430.058 97.1C429.618 97.7933 429.038 98.34 428.318 98.74C427.598 99.1267 426.745 99.32 425.758 99.32C424.852 99.32 424.045 99.1067 423.338 98.68C422.632 98.2533 422.078 97.66 421.678 96.9C421.278 96.14 421.078 95.28 421.078 94.32C421.078 93.36 421.272 92.5 421.658 91.74C422.058 90.98 422.605 90.3867 423.298 89.96C424.005 89.5333 424.805 89.32 425.698 89.32ZM428.798 93.48C428.665 92.5067 428.338 91.78 427.818 91.3C427.298 90.8067 426.592 90.56 425.698 90.56C424.832 90.56 424.118 90.84 423.558 91.4C423.012 91.9467 422.665 92.64 422.518 93.48H428.798ZM438.901 99H437.341L434.901 95.1L432.461 99H430.941L433.941 94.2L431.121 89.64H432.661L434.921 93.32L437.301 89.64H438.801L435.861 94.18L438.901 99ZM449.596 85.36H452.976C454.376 85.36 455.583 85.6333 456.596 86.18C457.609 86.7133 458.383 87.4933 458.916 88.52C459.449 89.5467 459.716 90.7733 459.716 92.2C459.716 94.3333 459.123 96 457.936 97.2C456.749 98.4 455.096 99 452.976 99H449.596V85.36ZM452.936 97.64C454.563 97.64 455.836 97.1933 456.756 96.3C457.676 95.4067 458.136 94.04 458.136 92.2C458.136 90.3467 457.676 88.9733 456.756 88.08C455.836 87.1867 454.563 86.74 452.936 86.74H451.096V97.64H452.936ZM466.549 90.16C467.869 90.16 468.895 90.56 469.629 91.36C470.375 92.16 470.749 93.2733 470.749 94.7C470.749 96.1533 470.355 97.2867 469.569 98.1C468.795 98.9133 467.709 99.32 466.309 99.32C465.402 99.32 464.562 99.1667 463.789 98.86C463.015 98.54 462.395 98.0933 461.929 97.52L462.989 96.78C463.322 97.1933 463.782 97.5133 464.369 97.74C464.969 97.9667 465.629 98.08 466.349 98.08C467.309 98.08 468.055 97.7867 468.589 97.2C469.135 96.6 469.409 95.7667 469.409 94.7C469.395 93.66 469.129 92.8533 468.609 92.28C468.089 91.6933 467.362 91.4 466.429 91.4C465.842 91.4 465.222 91.5 464.569 91.7C463.915 91.8867 463.302 92.1533 462.729 92.5V85.36H470.049V86.76H464.089V90.6C464.929 90.3067 465.749 90.16 466.549 90.16ZM473.6 99V85.36H481.24V86.62H475.1V91.38H479.9V92.6H475.1V97.76H481.3V99H473.6ZM482.978 85.36H491.218L486.338 99H484.958L489.358 86.76H482.978V85.36ZM492.994 99V85.36H500.434V86.62H494.494V91.38H498.894V92.6H494.494V99H492.994ZM502.018 99V85.36H509.658V86.62H503.518V91.38H508.318V92.6H503.518V97.76H509.718V99H502.018Z" fill="#3B3B3B"/>
<circle cx="60" cy="125" r="60" fill="#428EFC"/>
<circle cx="284" cy="35" r="35" fill="#2BAF9E"/>
<circle cx="459" cy="35" r="35" fill="#D5E7FE"/>
<circle cx="646" cy="35" r="35" fill="#8592EF"/>
<circle cx="284" cy="185" r="35" fill="#FD818D"/>
<circle cx="459" cy="185" r="35" fill="#F5F5F5"/>
<circle cx="646" cy="185" r="35" fill="#0F2536"/>
</svg>
