<svg width="32" height="35" viewBox="0 0 32 35" fill="none" xmlns="http://www.w3.org/2000/svg">
<rect y="2" width="32" height="32" fill="#1D1E21"/>
<path d="M9.73211 16.08C10.4654 16.12 11.1588 16.3667 11.8121 16.82C12.4654 17.26 12.9921 17.8133 13.3921 18.48C13.7921 19.1333 13.9921 19.7867 13.9921 20.44C13.9921 22.3067 13.2788 23.7267 11.8521 24.7C10.4254 25.6733 8.43878 26.16 5.89211 26.16L5.47211 26.14C5.43211 26.3267 5.41211 26.4867 5.41211 26.62C5.37211 26.78 5.29878 26.9133 5.19211 27.02C5.08544 27.14 4.97211 27.2 4.85211 27.2C4.62544 27.2 4.49878 27.0667 4.47211 26.8C4.49878 26.5333 4.54544 26.2667 4.61211 26L4.03211 25.88C3.51211 25.7867 3.17211 25.68 3.01211 25.56C2.85211 25.4267 2.77211 25.2667 2.77211 25.08C2.77211 25 2.81211 24.92 2.89211 24.84C2.97211 24.7467 3.04544 24.7 3.11211 24.7C3.15211 24.7 3.29211 24.74 3.53211 24.82C3.78544 24.9 4.00544 24.9667 4.19211 25.02C4.36544 25.06 4.57211 25.08 4.81211 25.08L6.75211 16.64L6.15211 16.62C5.95211 16.62 5.85211 16.5067 5.85211 16.28C5.85211 15.96 6.21211 15.8 6.93211 15.8C7.15878 14.8667 7.38544 13.7067 7.61211 12.32C7.75878 11.3733 7.89878 10.5667 8.03211 9.9C8.17878 9.23333 8.36544 8.55333 8.59211 7.86C8.47211 7.91333 8.27211 8.05333 7.99211 8.28C7.89878 8.37333 7.79878 8.46 7.69211 8.54C7.58544 8.60667 7.49211 8.64 7.41211 8.64C7.33211 8.64 7.25211 8.60667 7.17211 8.54C7.10544 8.47333 7.07211 8.37333 7.07211 8.24C7.07211 7.94667 7.25878 7.68 7.63211 7.44C8.00544 7.2 8.45878 7.02667 8.99211 6.92C9.07211 6.78667 9.17211 6.72 9.29211 6.72C9.39878 6.72 9.50544 6.77333 9.61211 6.88C10.8521 6.92 11.8454 7.34667 12.5921 8.16C13.3388 8.97333 13.7121 10.0533 13.7121 11.4C13.7121 12.12 13.5188 12.8267 13.1321 13.52C12.7588 14.2 12.2654 14.7733 11.6521 15.24C11.0388 15.7067 10.3988 15.9867 9.73211 16.08ZM9.41211 7.74C9.18544 8.5 9.00544 9.22667 8.87211 9.92C8.73878 10.6133 8.59211 11.4533 8.43211 12.44C8.39211 12.64 8.31211 13.0867 8.19211 13.78C8.08544 14.46 7.95878 15.1267 7.81211 15.78C8.70544 15.78 9.52544 15.5867 10.2721 15.2C11.0321 14.8 11.6321 14.2667 12.0721 13.6C12.5121 12.9333 12.7321 12.2067 12.7321 11.42C12.7321 10.2467 12.4321 9.34667 11.8321 8.72C11.2321 8.09333 10.4254 7.76667 9.41211 7.74ZM6.43211 25.26C7.83211 25.26 9.02544 25.0733 10.0121 24.7C11.0121 24.3133 11.7721 23.7667 12.2921 23.06C12.8121 22.3533 13.0721 21.52 13.0721 20.56C13.0721 19.9067 12.8588 19.2867 12.4321 18.7C12.0188 18.1 11.4721 17.62 10.7921 17.26C10.1121 16.9 9.40544 16.72 8.67211 16.72C8.24544 16.72 7.89211 16.7067 7.61211 16.68C7.39878 17.6133 7.07211 19.0467 6.63211 20.98C6.19211 22.9 5.86544 24.3133 5.65211 25.22C5.89211 25.2467 6.15211 25.26 6.43211 25.26ZM22.8655 34.96C22.6522 34.96 22.5322 34.82 22.5055 34.54C22.9189 31.9933 23.2722 30.1067 23.5655 28.88C23.8722 27.6667 24.2722 26.26 24.7655 24.66C23.5522 25.7533 21.9655 26.3 20.0055 26.3C19.0455 26.3 18.2255 26.02 17.5455 25.46C16.8789 24.9 16.3722 24.1733 16.0255 23.28C15.6789 22.3867 15.5055 21.4333 15.5055 20.42C15.5055 18.5 15.8989 16.4733 16.6855 14.34C17.4855 12.2067 18.4989 10.4267 19.7255 9C20.9655 7.57333 22.1989 6.86 23.4255 6.86C24.5322 6.86 25.4189 7.19333 26.0855 7.86C26.7655 8.51333 27.2055 9.42667 27.4055 10.6C27.3522 11 27.2455 11.2 27.0855 11.2C26.9522 11.2 26.7855 11.0533 26.5855 10.76C26.3989 10.4667 26.2122 10.1067 26.0255 9.68C25.5055 8.42667 24.6389 7.8 23.4255 7.8C22.2255 7.8 21.0855 8.48667 20.0055 9.86C18.9255 11.22 18.0589 12.8733 17.4055 14.82C16.7522 16.7533 16.4255 18.48 16.4255 20C16.4255 21.5867 16.7189 22.8867 17.3055 23.9C17.8922 24.9 18.8389 25.4 20.1455 25.4C22.4522 25.4 24.0255 24.76 24.8655 23.48C25.0789 23.16 25.2255 22.86 25.3055 22.58C25.3855 22.3 25.4255 22.0067 25.4255 21.7C25.3589 21.5133 25.0389 21.1267 24.4655 20.54C23.8922 19.9533 23.3589 19.4867 22.8655 19.14C22.0122 19.3133 21.0389 19.4733 19.9455 19.62C19.6789 19.5933 19.5455 19.4733 19.5455 19.26C19.5455 19.0867 19.6255 18.9333 19.7855 18.8C20.6522 18.1733 21.4055 17.86 22.0455 17.86C22.4322 17.86 22.8055 17.96 23.1655 18.16C24.7922 17.8 26.6055 17.3 28.6055 16.66C28.9255 16.66 29.0855 16.7733 29.0855 17C29.0855 17.08 29.0589 17.18 29.0055 17.3C27.2855 20.14 25.9922 23.2 25.1255 26.48C24.8455 27.52 24.6255 28.42 24.4655 29.18C24.3055 29.9533 24.0989 30.9733 23.8455 32.24L23.4255 34.4C23.4122 34.5467 23.3389 34.6733 23.2055 34.78C23.0855 34.9 22.9722 34.96 22.8655 34.96ZM26.1055 21.02C26.3189 20.5533 26.5989 19.9667 26.9455 19.26C27.3055 18.5533 27.5522 18.0867 27.6855 17.86C26.4855 18.26 25.2989 18.6 24.1255 18.88C24.4322 19.1733 24.7855 19.54 25.1855 19.98C25.5855 20.42 25.8922 20.7667 26.1055 21.02Z" fill="white"/>
</svg>
