<svg width="32" height="32" viewBox="0 0 32 32" fill="none" xmlns="http://www.w3.org/2000/svg">
<rect width="32" height="32" fill="#1D1E21"/>
<path d="M15.8356 11.12C15.8356 12.0833 15.4956 12.9163 14.8156 13.619C14.1356 14.3103 13.1439 14.809 11.8406 15.115C12.5433 15.3077 13.0759 15.625 13.4386 16.067C13.8013 16.4977 13.9826 16.9963 13.9826 17.563C13.9826 18.4583 13.6993 19.2347 13.1326 19.892C12.5773 20.5493 11.7613 21.0593 10.6846 21.422C9.60792 21.7733 8.31026 21.949 6.79159 21.949C6.22492 21.949 5.77159 21.932 5.43159 21.898C5.42026 22.2153 5.28426 22.4533 5.02359 22.612C4.76292 22.7707 4.42859 22.85 4.02059 22.85C3.61259 22.85 3.32926 22.7593 3.17059 22.578C3.02326 22.3967 2.96092 22.1303 2.98359 21.779C3.08559 20.1923 3.28392 18.532 3.57859 16.798C3.87326 15.0527 4.24726 13.3697 4.70059 11.749C4.77992 11.4657 4.93859 11.2673 5.17659 11.154C5.41459 11.0407 5.72626 10.984 6.11159 10.984C6.80292 10.984 7.14859 11.1767 7.14859 11.562C7.14859 11.7207 7.11459 11.902 7.04659 12.106C6.75192 12.99 6.45726 14.1913 6.16259 15.71C5.86792 17.2173 5.65826 18.6567 5.53359 20.028C6.07759 20.0733 6.51959 20.096 6.85959 20.096C8.44626 20.096 9.60792 19.8693 10.3446 19.416C11.0926 18.9513 11.4666 18.362 11.4666 17.648C11.4666 17.1493 11.2513 16.73 10.8206 16.39C10.4013 16.05 9.69292 15.863 8.69559 15.829C8.46892 15.8177 8.31026 15.761 8.21959 15.659C8.12892 15.557 8.08359 15.3927 8.08359 15.166C8.08359 14.8373 8.15159 14.571 8.28759 14.367C8.42359 14.163 8.67292 14.0553 9.03559 14.044C9.84026 14.0213 10.5656 13.9023 11.2116 13.687C11.8689 13.4717 12.3846 13.1713 12.7586 12.786C13.1326 12.3893 13.3196 11.9303 13.3196 11.409C13.3196 10.7517 12.9966 10.236 12.3506 9.862C11.7046 9.47667 10.7129 9.284 9.37559 9.284C8.16292 9.284 6.98992 9.44267 5.85659 9.76C4.72326 10.066 3.75992 10.457 2.96659 10.933C2.60392 11.1483 2.29792 11.256 2.04859 11.256C1.84459 11.256 1.68592 11.188 1.57259 11.052C1.47059 10.9047 1.41959 10.7233 1.41959 10.508C1.41959 10.2247 1.47626 9.981 1.58959 9.777C1.71426 9.573 2.00326 9.34067 2.45659 9.08C3.40859 8.536 4.52492 8.111 5.80559 7.805C7.08626 7.499 8.39526 7.346 9.73259 7.346C11.7839 7.346 13.3139 7.69167 14.3226 8.383C15.3313 9.07433 15.8356 9.98667 15.8356 11.12ZM30.3051 18.243C30.4524 18.243 30.5658 18.3167 30.6451 18.464C30.7358 18.6 30.7811 18.7757 30.7811 18.991C30.7811 19.2517 30.7414 19.4557 30.6621 19.603C30.5828 19.7503 30.4581 19.8807 30.2881 19.994C29.6194 20.436 28.5541 21.1613 27.0921 22.17C26.6501 24.516 26.0778 26.3633 25.3751 27.712C24.6724 29.0607 23.7828 29.735 22.7061 29.735C22.1281 29.735 21.6578 29.5537 21.2951 29.191C20.9324 28.8397 20.7511 28.375 20.7511 27.797C20.7511 27.2643 20.8701 26.726 21.1081 26.182C21.3461 25.638 21.7881 25.009 22.4341 24.295C23.0914 23.581 24.0151 22.765 25.2051 21.847L25.2561 21.524C24.3608 21.898 23.4824 22.085 22.6211 22.085C21.3518 22.085 20.2354 21.8413 19.2721 21.354C18.3088 20.8553 17.5608 20.1527 17.0281 19.246C16.4954 18.3393 16.2291 17.2853 16.2291 16.084C16.2291 14.4067 16.5464 12.9277 17.1811 11.647C17.8158 10.355 18.6884 9.35767 19.7991 8.655C20.9211 7.941 22.1734 7.584 23.5561 7.584C24.8821 7.584 25.8738 7.89567 26.5311 8.519C27.1998 9.131 27.5341 9.947 27.5341 10.967C27.5341 11.6357 27.4094 12.174 27.1601 12.582C26.9221 12.9787 26.5764 13.177 26.1231 13.177C25.8171 13.177 25.5678 13.1033 25.3751 12.956C25.1938 12.8087 25.1031 12.6047 25.1031 12.344C25.1031 12.2307 25.1258 12.038 25.1711 11.766C25.2391 11.4487 25.2731 11.1993 25.2731 11.018C25.2731 10.542 25.1258 10.1737 24.8311 9.913C24.5478 9.65233 24.0661 9.522 23.3861 9.522C22.5588 9.522 21.7881 9.76 21.0741 10.236C20.3714 10.712 19.8048 11.426 19.3741 12.378C18.9434 13.3187 18.7281 14.452 18.7281 15.778C18.7281 17.138 19.0964 18.192 19.8331 18.94C20.5811 19.6767 21.6578 20.045 23.0631 20.045C23.8451 20.045 24.6611 19.8693 25.5111 19.518L25.7491 17.444H24.0151C23.6978 17.444 23.4541 17.3703 23.2841 17.223C23.1141 17.0643 23.0291 16.8093 23.0291 16.458C23.0291 16.1407 23.1141 15.8913 23.2841 15.71C23.4541 15.5287 23.6808 15.438 23.9641 15.438H27.1431C27.3924 15.438 27.5964 15.523 27.7551 15.693C27.9251 15.8517 27.9931 16.084 27.9591 16.39C27.9251 16.7527 27.8118 17.5743 27.6191 18.855L27.4321 20.147C28.3388 19.467 29.1661 18.8777 29.9141 18.379C30.0614 18.2883 30.1918 18.243 30.3051 18.243ZM22.8931 28.086C23.1878 28.086 23.5108 27.7517 23.8621 27.083C24.2134 26.4143 24.5421 25.3377 24.8481 23.853C23.9868 24.5897 23.3634 25.2527 22.9781 25.842C22.6041 26.4427 22.4171 26.9697 22.4171 27.423C22.4171 27.865 22.5758 28.086 22.8931 28.086Z" fill="white"/>
</svg>
