<svg width="466" height="178" viewBox="0 0 466 178" fill="none" xmlns="http://www.w3.org/2000/svg">
<rect width="466" height="178" fill="white"/>
<path d="M37.5852 86H39.1705V80.1449H44.8466V78.7386H39.1705V74.3153H45.4347V72.9091H37.5852V86ZM53.5174 81.9858C53.5174 83.8267 52.1112 84.6705 50.9862 84.6705C49.7333 84.6705 48.8384 83.75 48.8384 82.3182V76.1818H47.3299V82.4205C47.3299 84.9261 48.6594 86.1278 50.5004 86.1278C51.9833 86.1278 52.9549 85.3352 53.4151 84.3381H53.5174V86H55.0259V76.1818H53.5174V81.9858ZM59.2974 72.9091H57.7889V86H59.2974V72.9091ZM63.5689 72.9091H62.0604V86H63.5689V72.9091ZM78.3489 78.3807C77.8759 76.9872 76.8148 76.054 74.8716 76.054C72.8006 76.054 71.2665 77.2301 71.2665 78.892C71.2665 80.2472 72.0719 81.1548 73.8745 81.5767L75.5108 81.9602C76.5016 82.1903 76.9682 82.6634 76.9682 83.3409C76.9682 84.1847 76.0733 84.875 74.6671 84.875C73.4334 84.875 72.66 84.3445 72.3915 83.2898L70.9597 83.6477C71.3113 85.3161 72.6855 86.2045 74.6926 86.2045C76.9746 86.2045 78.5279 84.9581 78.5279 83.2642C78.5279 81.8963 77.6713 81.0334 75.9199 80.6051L74.4625 80.2472C73.2992 79.9595 72.775 79.5696 72.775 78.8153C72.775 77.9716 73.6699 77.358 74.8716 77.358C76.1884 77.358 76.7317 78.0866 76.9938 78.7642L78.3489 78.3807ZM84.7873 86.2045C86.9606 86.2045 88.3924 84.875 88.6481 83.1364H87.1396C86.8583 84.2102 85.9634 84.8494 84.7873 84.8494C82.9975 84.8494 81.8469 83.3665 81.8469 81.0909C81.8469 78.8665 83.0231 77.4091 84.7873 77.4091C86.1168 77.4091 86.9094 78.2273 87.1396 79.1222H88.6481C88.3924 77.2812 86.8327 76.054 84.7617 76.054C82.1026 76.054 80.3384 78.1506 80.3384 81.142C80.3384 84.0824 82.0259 86.2045 84.7873 86.2045ZM93.7425 86.2301C95.4556 86.2301 96.3505 85.3097 96.6573 84.6705H96.734V86H98.2425V79.5312C98.2425 76.4119 95.8647 76.054 94.6119 76.054C93.1289 76.054 91.4414 76.5653 90.6744 78.3551L92.1062 78.8665C92.4386 78.1506 93.2248 77.3835 94.663 77.3835C96.0501 77.3835 96.734 78.1186 96.734 79.3778V79.429C96.734 80.1577 95.9925 80.0938 94.2028 80.3239C92.381 80.5604 90.3931 80.9631 90.3931 83.2131C90.3931 85.1307 91.8761 86.2301 93.7425 86.2301ZM93.9727 84.875C92.771 84.875 91.9016 84.3381 91.9016 83.2898C91.9016 82.1392 92.9499 81.7812 94.1261 81.6278C94.7653 81.5511 96.4783 81.3722 96.734 81.0653V82.446C96.734 83.6733 95.7624 84.875 93.9727 84.875ZM102.504 72.9091H100.996V86H102.504V72.9091ZM109.384 86.2045C111.378 86.2045 112.836 85.2074 113.296 83.7244L111.838 83.3153C111.455 84.3381 110.566 84.8494 109.384 84.8494C107.613 84.8494 106.392 83.7053 106.322 81.6023H113.449V80.9631C113.449 77.3068 111.276 76.054 109.23 76.054C106.571 76.054 104.807 78.1506 104.807 81.1676C104.807 84.1847 106.546 86.2045 109.384 86.2045ZM106.322 80.2983C106.424 78.7706 107.505 77.4091 109.23 77.4091C110.867 77.4091 111.915 78.6364 111.915 80.2983H106.322ZM120.806 86H122.315V79.7869C122.315 78.4574 123.363 77.4858 124.795 77.4858C125.198 77.4858 125.613 77.5625 125.716 77.5881V76.054C125.543 76.0412 125.147 76.0284 124.923 76.0284C123.747 76.0284 122.724 76.6932 122.366 77.6648H122.264V76.1818H120.806V86ZM131.321 86.2045C133.316 86.2045 134.773 85.2074 135.233 83.7244L133.776 83.3153C133.392 84.3381 132.504 84.8494 131.321 84.8494C129.551 84.8494 128.33 83.7053 128.26 81.6023H135.387V80.9631C135.387 77.3068 133.213 76.054 131.168 76.054C128.509 76.054 126.745 78.1506 126.745 81.1676C126.745 84.1847 128.483 86.2045 131.321 86.2045ZM128.26 80.2983C128.362 78.7706 129.442 77.4091 131.168 77.4091C132.804 77.4091 133.853 78.6364 133.853 80.2983H128.26ZM137.681 89.6818H139.19V84.4915H139.318C139.65 85.0284 140.289 86.2045 142.181 86.2045C144.636 86.2045 146.349 84.2358 146.349 81.1165C146.349 78.0227 144.636 76.054 142.156 76.054C140.238 76.054 139.65 77.2301 139.318 77.7415H139.139V76.1818H137.681V89.6818ZM139.164 81.0909C139.164 78.892 140.136 77.4091 141.977 77.4091C143.895 77.4091 144.841 79.0199 144.841 81.0909C144.841 83.1875 143.869 84.8494 141.977 84.8494C140.162 84.8494 139.164 83.3153 139.164 81.0909ZM152.639 86.2045C155.298 86.2045 157.088 84.1847 157.088 81.142C157.088 78.0739 155.298 76.054 152.639 76.054C149.98 76.054 148.19 78.0739 148.19 81.142C148.19 84.1847 149.98 86.2045 152.639 86.2045ZM152.639 84.8494C150.619 84.8494 149.699 83.1108 149.699 81.142C149.699 79.1733 150.619 77.4091 152.639 77.4091C154.659 77.4091 155.579 79.1733 155.579 81.142C155.579 83.1108 154.659 84.8494 152.639 84.8494ZM159.39 86H160.899V79.7869C160.899 78.4574 161.947 77.4858 163.379 77.4858C163.782 77.4858 164.197 77.5625 164.3 77.5881V76.054C164.127 76.0412 163.731 76.0284 163.507 76.0284C162.331 76.0284 161.308 76.6932 160.95 77.6648H160.848V76.1818H159.39V86ZM170.973 76.1818H168.876V73.8295H167.368V76.1818H165.885V77.4602H167.368V83.5966C167.368 85.3097 168.748 86.1278 170.027 86.1278C170.589 86.1278 170.947 86.0256 171.152 85.9489L170.845 84.5938C170.717 84.6193 170.513 84.6705 170.18 84.6705C169.515 84.6705 168.876 84.4659 168.876 83.1875V77.4602H170.973V76.1818ZM180.021 78.3807C179.548 76.9872 178.487 76.054 176.544 76.054C174.472 76.054 172.938 77.2301 172.938 78.892C172.938 80.2472 173.744 81.1548 175.546 81.5767L177.183 81.9602C178.173 82.1903 178.64 82.6634 178.64 83.3409C178.64 84.1847 177.745 84.875 176.339 84.875C175.105 84.875 174.332 84.3445 174.063 83.2898L172.632 83.6477C172.983 85.3161 174.357 86.2045 176.365 86.2045C178.646 86.2045 180.2 84.9581 180.2 83.2642C180.2 81.8963 179.343 81.0334 177.592 80.6051L176.134 80.2472C174.971 79.9595 174.447 79.5696 174.447 78.8153C174.447 77.9716 175.342 77.358 176.544 77.358C177.86 77.358 178.404 78.0866 178.666 78.7642L180.021 78.3807ZM190.422 86.2301C192.135 86.2301 193.03 85.3097 193.337 84.6705H193.414V86H194.922V79.5312C194.922 76.4119 192.544 76.054 191.292 76.054C189.809 76.054 188.121 76.5653 187.354 78.3551L188.786 78.8665C189.118 78.1506 189.904 77.3835 191.343 77.3835C192.73 77.3835 193.414 78.1186 193.414 79.3778V79.429C193.414 80.1577 192.672 80.0938 190.882 80.3239C189.061 80.5604 187.073 80.9631 187.073 83.2131C187.073 85.1307 188.556 86.2301 190.422 86.2301ZM190.652 84.875C189.451 84.875 188.581 84.3381 188.581 83.2898C188.581 82.1392 189.63 81.7812 190.806 81.6278C191.445 81.5511 193.158 81.3722 193.414 81.0653V82.446C193.414 83.6733 192.442 84.875 190.652 84.875ZM197.676 86H199.184V79.7869C199.184 78.4574 200.232 77.4858 201.664 77.4858C202.067 77.4858 202.482 77.5625 202.585 77.5881V76.054C202.412 76.0412 202.016 76.0284 201.792 76.0284C200.616 76.0284 199.593 76.6932 199.235 77.6648H199.133V76.1818H197.676V86ZM208.191 86.2045C210.185 86.2045 211.642 85.2074 212.102 83.7244L210.645 83.3153C210.262 84.3381 209.373 84.8494 208.191 84.8494C206.42 84.8494 205.199 83.7053 205.129 81.6023H212.256V80.9631C212.256 77.3068 210.083 76.054 208.037 76.054C205.378 76.054 203.614 78.1506 203.614 81.1676C203.614 84.1847 205.352 86.2045 208.191 86.2045ZM205.129 80.2983C205.231 78.7706 206.311 77.4091 208.037 77.4091C209.673 77.4091 210.722 78.6364 210.722 80.2983H205.129ZM223.32 86.2045C225.213 86.2045 225.852 85.0284 226.184 84.4915H226.363V86H227.82V72.9091H226.312V77.7415H226.184C225.852 77.2301 225.264 76.054 223.346 76.054C220.866 76.054 219.153 78.0227 219.153 81.1165C219.153 84.2358 220.866 86.2045 223.32 86.2045ZM223.525 84.8494C221.633 84.8494 220.661 83.1875 220.661 81.0909C220.661 79.0199 221.607 77.4091 223.525 77.4091C225.366 77.4091 226.338 78.892 226.338 81.0909C226.338 83.3153 225.34 84.8494 223.525 84.8494ZM230.793 86H232.301V76.1818H230.793V86ZM231.56 74.5455C232.148 74.5455 232.634 74.0852 232.634 73.5227C232.634 72.9602 232.148 72.5 231.56 72.5C230.972 72.5 230.486 72.9602 230.486 73.5227C230.486 74.0852 230.972 74.5455 231.56 74.5455ZM242.019 78.3807C241.546 76.9872 240.485 76.054 238.542 76.054C236.471 76.054 234.936 77.2301 234.936 78.892C234.936 80.2472 235.742 81.1548 237.544 81.5767L239.181 81.9602C240.172 82.1903 240.638 82.6634 240.638 83.3409C240.638 84.1847 239.743 84.875 238.337 84.875C237.103 84.875 236.33 84.3445 236.061 83.2898L234.63 83.6477C234.981 85.3161 236.355 86.2045 238.363 86.2045C240.645 86.2045 242.198 84.9581 242.198 83.2642C242.198 81.8963 241.341 81.0334 239.59 80.6051L238.132 80.2472C236.969 79.9595 236.445 79.5696 236.445 78.8153C236.445 77.9716 237.34 77.358 238.542 77.358C239.858 77.358 240.402 78.0866 240.664 78.7642L242.019 78.3807ZM248.457 86.2045C250.631 86.2045 252.062 84.875 252.318 83.1364H250.809C250.528 84.2102 249.633 84.8494 248.457 84.8494C246.667 84.8494 245.517 83.3665 245.517 81.0909C245.517 78.8665 246.693 77.4091 248.457 77.4091C249.787 77.4091 250.579 78.2273 250.809 79.1222H252.318C252.062 77.2812 250.503 76.054 248.432 76.054C245.773 76.054 244.008 78.1506 244.008 81.142C244.008 84.0824 245.696 86.2045 248.457 86.2045ZM258.512 86.2045C261.171 86.2045 262.961 84.1847 262.961 81.142C262.961 78.0739 261.171 76.054 258.512 76.054C255.853 76.054 254.063 78.0739 254.063 81.142C254.063 84.1847 255.853 86.2045 258.512 86.2045ZM258.512 84.8494C256.492 84.8494 255.572 83.1108 255.572 81.142C255.572 79.1733 256.492 77.4091 258.512 77.4091C260.532 77.4091 261.452 79.1733 261.452 81.142C261.452 83.1108 260.532 84.8494 258.512 84.8494ZM271.451 81.9858C271.451 83.8267 270.045 84.6705 268.92 84.6705C267.667 84.6705 266.772 83.75 266.772 82.3182V76.1818H265.263V82.4205C265.263 84.9261 266.593 86.1278 268.434 86.1278C269.917 86.1278 270.888 85.3352 271.349 84.3381H271.451V86H272.96V76.1818H271.451V81.9858ZM275.722 86H277.231V79.7869C277.231 78.4574 278.279 77.4858 279.711 77.4858C280.114 77.4858 280.529 77.5625 280.632 77.5881V76.054C280.459 76.0412 280.063 76.0284 279.839 76.0284C278.663 76.0284 277.64 76.6932 277.282 77.6648H277.18V76.1818H275.722V86ZM285.309 86.2301C287.022 86.2301 287.917 85.3097 288.224 84.6705H288.3V86H289.809V79.5312C289.809 76.4119 287.431 76.054 286.178 76.054C284.695 76.054 283.008 76.5653 282.241 78.3551L283.673 78.8665C284.005 78.1506 284.791 77.3835 286.229 77.3835C287.616 77.3835 288.3 78.1186 288.3 79.3778V79.429C288.3 80.1577 287.559 80.0938 285.769 80.3239C283.947 80.5604 281.96 80.9631 281.96 83.2131C281.96 85.1307 283.442 86.2301 285.309 86.2301ZM285.539 84.875C284.337 84.875 283.468 84.3381 283.468 83.2898C283.468 82.1392 284.516 81.7812 285.692 81.6278C286.332 81.5511 288.045 81.3722 288.3 81.0653V82.446C288.3 83.6733 287.329 84.875 285.539 84.875ZM296.525 89.8864C298.878 89.8864 300.77 88.8125 300.77 86.2812V76.1818H299.312V77.7415H299.159C298.827 77.2301 298.213 76.054 296.295 76.054C293.815 76.054 292.102 78.0227 292.102 81.0398C292.102 84.108 293.892 85.8466 296.27 85.8466C298.187 85.8466 298.801 84.7216 299.133 84.1847H299.261V86.179C299.261 87.8153 298.111 88.5568 296.525 88.5568C294.742 88.5568 294.116 87.6172 293.713 87.0739L292.511 87.9176C293.125 88.9467 294.333 89.8864 296.525 89.8864ZM296.474 84.4915C294.582 84.4915 293.611 83.0597 293.611 81.0142C293.611 79.0199 294.557 77.4091 296.474 77.4091C298.315 77.4091 299.287 78.892 299.287 81.0142C299.287 83.1875 298.29 84.4915 296.474 84.4915ZM303.531 86H305.04V76.1818H303.531V86ZM304.298 74.5455C304.886 74.5455 305.372 74.0852 305.372 73.5227C305.372 72.9602 304.886 72.5 304.298 72.5C303.71 72.5 303.224 72.9602 303.224 73.5227C303.224 74.0852 303.71 74.5455 304.298 74.5455ZM309.311 80.0938C309.311 78.3807 310.372 77.4091 311.817 77.4091C313.217 77.4091 314.067 78.3232 314.067 79.8636V86H315.575V79.7614C315.575 77.2557 314.239 76.054 312.251 76.054C310.768 76.054 309.848 76.7188 309.388 77.7159H309.26V76.1818H307.803V86H309.311V80.0938ZM322.295 89.8864C324.647 89.8864 326.539 88.8125 326.539 86.2812V76.1818H325.082V77.7415H324.928C324.596 77.2301 323.982 76.054 322.065 76.054C319.585 76.054 317.872 78.0227 317.872 81.0398C317.872 84.108 319.661 85.8466 322.039 85.8466C323.957 85.8466 324.57 84.7216 324.903 84.1847H325.031V86.179C325.031 87.8153 323.88 88.5568 322.295 88.5568C320.512 88.5568 319.885 87.6172 319.482 87.0739L318.281 87.9176C318.894 88.9467 320.102 89.8864 322.295 89.8864ZM322.244 84.4915C320.352 84.4915 319.38 83.0597 319.38 81.0142C319.38 79.0199 320.326 77.4091 322.244 77.4091C324.085 77.4091 325.056 78.892 325.056 81.0142C325.056 83.1875 324.059 84.4915 322.244 84.4915ZM338.633 76.1818H336.536V73.8295H335.028V76.1818H333.545V77.4602H335.028V83.5966C335.028 85.3097 336.409 86.1278 337.687 86.1278C338.249 86.1278 338.607 86.0256 338.812 85.9489L338.505 84.5938C338.377 84.6193 338.173 84.6705 337.84 84.6705C337.176 84.6705 336.536 84.4659 336.536 83.1875V77.4602H338.633V76.1818ZM344.785 86.2045C347.444 86.2045 349.234 84.1847 349.234 81.142C349.234 78.0739 347.444 76.054 344.785 76.054C342.126 76.054 340.336 78.0739 340.336 81.142C340.336 84.1847 342.126 86.2045 344.785 86.2045ZM344.785 84.8494C342.765 84.8494 341.845 83.1108 341.845 81.142C341.845 79.1733 342.765 77.4091 344.785 77.4091C346.805 77.4091 347.726 79.1733 347.726 81.142C347.726 83.1108 346.805 84.8494 344.785 84.8494ZM360.869 76.1818H358.773V73.8295H357.264V76.1818H355.781V77.4602H357.264V83.5966C357.264 85.3097 358.645 86.1278 359.923 86.1278C360.486 86.1278 360.844 86.0256 361.048 85.9489L360.741 84.5938C360.614 84.6193 360.409 84.6705 360.077 84.6705C359.412 84.6705 358.773 84.4659 358.773 83.1875V77.4602H360.869V76.1818ZM367.15 86.2045C369.144 86.2045 370.601 85.2074 371.061 83.7244L369.604 83.3153C369.221 84.3381 368.332 84.8494 367.15 84.8494C365.379 84.8494 364.158 83.7053 364.088 81.6023H371.215V80.9631C371.215 77.3068 369.042 76.054 366.996 76.054C364.337 76.054 362.573 78.1506 362.573 81.1676C362.573 84.1847 364.311 86.2045 367.15 86.2045ZM364.088 80.2983C364.19 78.7706 365.27 77.4091 366.996 77.4091C368.632 77.4091 369.681 78.6364 369.681 80.2983H364.088ZM376.399 86.2301C378.112 86.2301 379.007 85.3097 379.314 84.6705H379.39V86H380.899V79.5312C380.899 76.4119 378.521 76.054 377.268 76.054C375.785 76.054 374.098 76.5653 373.331 78.3551L374.762 78.8665C375.095 78.1506 375.881 77.3835 377.319 77.3835C378.706 77.3835 379.39 78.1186 379.39 79.3778V79.429C379.39 80.1577 378.649 80.0938 376.859 80.3239C375.037 80.5604 373.049 80.9631 373.049 83.2131C373.049 85.1307 374.532 86.2301 376.399 86.2301ZM376.629 84.875C375.427 84.875 374.558 84.3381 374.558 83.2898C374.558 82.1392 375.606 81.7812 376.782 81.6278C377.422 81.5511 379.135 81.3722 379.39 81.0653V82.446C379.39 83.6733 378.419 84.875 376.629 84.875ZM383.652 86H385.161V79.8636C385.161 78.4254 386.209 77.4091 387.385 77.4091C388.529 77.4091 389.328 78.157 389.328 79.2756V86H390.862V79.608C390.862 78.3423 391.655 77.4091 393.036 77.4091C394.11 77.4091 395.03 77.978 395.03 79.429V86H396.539V79.429C396.539 77.1214 395.298 76.054 393.547 76.054C392.141 76.054 391.112 76.6996 390.607 77.7159H390.504C390.019 76.6676 389.162 76.054 387.871 76.054C386.593 76.054 385.646 76.6676 385.237 77.7159H385.11V76.1818H383.652V86ZM37.3807 114H38.8892V107.864C38.8892 106.425 39.9375 105.409 41.1136 105.409C42.2578 105.409 43.0568 106.157 43.0568 107.276V114H44.5909V107.608C44.5909 106.342 45.3835 105.409 46.7642 105.409C47.8381 105.409 48.7585 105.978 48.7585 107.429V114H50.267V107.429C50.267 105.121 49.027 104.054 47.2756 104.054C45.8693 104.054 44.8402 104.7 44.3352 105.716H44.233C43.7472 104.668 42.8906 104.054 41.5994 104.054C40.321 104.054 39.375 104.668 38.9659 105.716H38.8381V104.182H37.3807V114ZM57.1417 114.205C59.136 114.205 60.5934 113.207 61.0536 111.724L59.5962 111.315C59.2127 112.338 58.3242 112.849 57.1417 112.849C55.3711 112.849 54.1502 111.705 54.0799 109.602H61.207V108.963C61.207 105.307 59.0337 104.054 56.9883 104.054C54.3292 104.054 52.565 106.151 52.565 109.168C52.565 112.185 54.3036 114.205 57.1417 114.205ZM54.0799 108.298C54.1822 106.771 55.2624 105.409 56.9883 105.409C58.6246 105.409 59.6729 106.636 59.6729 108.298H54.0799ZM63.5018 114H65.0103V107.864C65.0103 106.425 66.0586 105.409 67.2347 105.409C68.3789 105.409 69.1779 106.157 69.1779 107.276V114H70.712V107.608C70.712 106.342 71.5046 105.409 72.8853 105.409C73.9592 105.409 74.8796 105.978 74.8796 107.429V114H76.3881V107.429C76.3881 105.121 75.1481 104.054 73.3967 104.054C71.9904 104.054 70.9613 104.7 70.4563 105.716H70.354C69.8683 104.668 69.0117 104.054 67.7205 104.054C66.4421 104.054 65.4961 104.668 65.087 105.716H64.9592V104.182H63.5018V114ZM79.3509 114H80.8082V112.491H80.9872C81.3196 113.028 81.9588 114.205 83.8509 114.205C86.3054 114.205 88.0185 112.236 88.0185 109.116C88.0185 106.023 86.3054 104.054 83.8253 104.054C81.9077 104.054 81.3196 105.23 80.9872 105.741H80.8594V100.909H79.3509V114ZM80.8338 109.091C80.8338 106.892 81.8054 105.409 83.6463 105.409C85.5639 105.409 86.5099 107.02 86.5099 109.091C86.5099 111.188 85.5384 112.849 83.6463 112.849C81.831 112.849 80.8338 111.315 80.8338 109.091ZM94.4425 114.205C96.4368 114.205 97.8942 113.207 98.3544 111.724L96.897 111.315C96.5135 112.338 95.625 112.849 94.4425 112.849C92.6719 112.849 91.451 111.705 91.3807 109.602H98.5078V108.963C98.5078 105.307 96.3345 104.054 94.2891 104.054C91.63 104.054 89.8658 106.151 89.8658 109.168C89.8658 112.185 91.6044 114.205 94.4425 114.205ZM91.3807 108.298C91.483 106.771 92.5632 105.409 94.2891 105.409C95.9254 105.409 96.9737 106.636 96.9737 108.298H91.3807ZM100.803 114H102.311V107.787C102.311 106.457 103.359 105.486 104.791 105.486C105.194 105.486 105.609 105.562 105.712 105.588V104.054C105.539 104.041 105.143 104.028 104.919 104.028C103.743 104.028 102.72 104.693 102.362 105.665H102.26V104.182H100.803V114ZM114.454 106.381C113.981 104.987 112.92 104.054 110.977 104.054C108.906 104.054 107.372 105.23 107.372 106.892C107.372 108.247 108.177 109.155 109.98 109.577L111.616 109.96C112.607 110.19 113.074 110.663 113.074 111.341C113.074 112.185 112.179 112.875 110.773 112.875C109.539 112.875 108.765 112.344 108.497 111.29L107.065 111.648C107.417 113.316 108.791 114.205 110.798 114.205C113.08 114.205 114.633 112.958 114.633 111.264C114.633 109.896 113.777 109.033 112.025 108.605L110.568 108.247C109.405 107.96 108.881 107.57 108.881 106.815C108.881 105.972 109.775 105.358 110.977 105.358C112.294 105.358 112.837 106.087 113.099 106.764L114.454 106.381ZM118.004 114.102C118.636 114.102 119.154 113.585 119.154 112.952C119.154 112.319 118.636 111.801 118.004 111.801C117.371 111.801 116.853 112.319 116.853 112.952C116.853 113.585 117.371 114.102 118.004 114.102ZM128.713 100.909H127.128V114H128.713V100.909ZM135.957 104.182H133.861V101.83H132.352V104.182H130.869V105.46H132.352V111.597C132.352 113.31 133.733 114.128 135.011 114.128C135.574 114.128 135.932 114.026 136.136 113.949L135.829 112.594C135.702 112.619 135.497 112.67 135.165 112.67C134.5 112.67 133.861 112.466 133.861 111.188V105.46H135.957V104.182ZM146.996 114.205C148.888 114.205 149.528 113.028 149.86 112.491H150.039V114H151.496V100.909H149.988V105.741H149.86C149.528 105.23 148.939 104.054 147.022 104.054C144.542 104.054 142.829 106.023 142.829 109.116C142.829 112.236 144.542 114.205 146.996 114.205ZM147.201 112.849C145.309 112.849 144.337 111.188 144.337 109.091C144.337 107.02 145.283 105.409 147.201 105.409C149.042 105.409 150.013 106.892 150.013 109.091C150.013 111.315 149.016 112.849 147.201 112.849ZM158.585 114.205C160.579 114.205 162.037 113.207 162.497 111.724L161.04 111.315C160.656 112.338 159.768 112.849 158.585 112.849C156.814 112.849 155.594 111.705 155.523 109.602H162.65V108.963C162.65 105.307 160.477 104.054 158.432 104.054C155.773 104.054 154.008 106.151 154.008 109.168C154.008 112.185 155.747 114.205 158.585 114.205ZM155.523 108.298C155.626 106.771 156.706 105.409 158.432 105.409C160.068 105.409 161.116 106.636 161.116 108.298H155.523ZM168.934 114.205C171.107 114.205 172.539 112.875 172.795 111.136H171.286C171.005 112.21 170.11 112.849 168.934 112.849C167.144 112.849 165.993 111.366 165.993 109.091C165.993 106.866 167.17 105.409 168.934 105.409C170.263 105.409 171.056 106.227 171.286 107.122H172.795C172.539 105.281 170.979 104.054 168.908 104.054C166.249 104.054 164.485 106.151 164.485 109.142C164.485 112.082 166.172 114.205 168.934 114.205ZM175 114H176.508V107.787C176.508 106.457 177.557 105.486 178.988 105.486C179.391 105.486 179.807 105.562 179.909 105.588V104.054C179.736 104.041 179.34 104.028 179.116 104.028C177.94 104.028 176.917 104.693 176.559 105.665H176.457V104.182H175V114ZM185.515 114.205C187.509 114.205 188.966 113.207 189.427 111.724L187.969 111.315C187.586 112.338 186.697 112.849 185.515 112.849C183.744 112.849 182.523 111.705 182.453 109.602H189.58V108.963C189.58 105.307 187.407 104.054 185.361 104.054C182.702 104.054 180.938 106.151 180.938 109.168C180.938 112.185 182.677 114.205 185.515 114.205ZM182.453 108.298C182.555 106.771 183.635 105.409 185.361 105.409C186.998 105.409 188.046 106.636 188.046 108.298H182.453ZM194.764 114.23C196.477 114.23 197.372 113.31 197.679 112.67H197.756V114H199.264V107.531C199.264 104.412 196.886 104.054 195.633 104.054C194.15 104.054 192.463 104.565 191.696 106.355L193.128 106.866C193.46 106.151 194.246 105.384 195.684 105.384C197.072 105.384 197.756 106.119 197.756 107.378V107.429C197.756 108.158 197.014 108.094 195.224 108.324C193.403 108.56 191.415 108.963 191.415 111.213C191.415 113.131 192.898 114.23 194.764 114.23ZM194.994 112.875C193.792 112.875 192.923 112.338 192.923 111.29C192.923 110.139 193.971 109.781 195.148 109.628C195.787 109.551 197.5 109.372 197.756 109.065V110.446C197.756 111.673 196.784 112.875 194.994 112.875ZM208.972 106.381C208.499 104.987 207.438 104.054 205.495 104.054C203.424 104.054 201.89 105.23 201.89 106.892C201.89 108.247 202.695 109.155 204.498 109.577L206.134 109.96C207.125 110.19 207.591 110.663 207.591 111.341C207.591 112.185 206.696 112.875 205.29 112.875C204.056 112.875 203.283 112.344 203.015 111.29L201.583 111.648C201.934 113.316 203.309 114.205 205.316 114.205C207.598 114.205 209.151 112.958 209.151 111.264C209.151 109.896 208.294 109.033 206.543 108.605L205.086 108.247C203.922 107.96 203.398 107.57 203.398 106.815C203.398 105.972 204.293 105.358 205.495 105.358C206.811 105.358 207.355 106.087 207.617 106.764L208.972 106.381ZM215.538 114.205C217.532 114.205 218.99 113.207 219.45 111.724L217.993 111.315C217.609 112.338 216.721 112.849 215.538 112.849C213.768 112.849 212.547 111.705 212.476 109.602H219.604V108.963C219.604 105.307 217.43 104.054 215.385 104.054C212.726 104.054 210.961 106.151 210.961 109.168C210.961 112.185 212.7 114.205 215.538 114.205ZM212.476 108.298C212.579 106.771 213.659 105.409 215.385 105.409C217.021 105.409 218.069 106.636 218.069 108.298H212.476ZM228.853 106.381C228.38 104.987 227.319 104.054 225.376 104.054C223.305 104.054 221.77 105.23 221.77 106.892C221.77 108.247 222.576 109.155 224.378 109.577L226.015 109.96C227.006 110.19 227.472 110.663 227.472 111.341C227.472 112.185 226.577 112.875 225.171 112.875C223.937 112.875 223.164 112.344 222.895 111.29L221.464 111.648C221.815 113.316 223.189 114.205 225.197 114.205C227.479 114.205 229.032 112.958 229.032 111.264C229.032 109.896 228.175 109.033 226.424 108.605L224.966 108.247C223.803 107.96 223.279 107.57 223.279 106.815C223.279 105.972 224.174 105.358 225.376 105.358C226.692 105.358 227.236 106.087 227.498 106.764L228.853 106.381ZM240.354 114.205C242.527 114.205 243.959 112.875 244.214 111.136H242.706C242.425 112.21 241.53 112.849 240.354 112.849C238.564 112.849 237.413 111.366 237.413 109.091C237.413 106.866 238.589 105.409 240.354 105.409C241.683 105.409 242.476 106.227 242.706 107.122H244.214C243.959 105.281 242.399 104.054 240.328 104.054C237.669 104.054 235.905 106.151 235.905 109.142C235.905 112.082 237.592 114.205 240.354 114.205ZM250.408 114.205C253.067 114.205 254.857 112.185 254.857 109.142C254.857 106.074 253.067 104.054 250.408 104.054C247.749 104.054 245.96 106.074 245.96 109.142C245.96 112.185 247.749 114.205 250.408 114.205ZM250.408 112.849C248.388 112.849 247.468 111.111 247.468 109.142C247.468 107.173 248.388 105.409 250.408 105.409C252.428 105.409 253.349 107.173 253.349 109.142C253.349 111.111 252.428 112.849 250.408 112.849ZM258.669 100.909H257.16V114H258.669V100.909ZM262.94 100.909H261.431V114H262.94V100.909ZM268.592 114.23C270.305 114.23 271.2 113.31 271.507 112.67H271.584V114H273.092V107.531C273.092 104.412 270.714 104.054 269.461 104.054C267.979 104.054 266.291 104.565 265.524 106.355L266.956 106.866C267.288 106.151 268.074 105.384 269.513 105.384C270.9 105.384 271.584 106.119 271.584 107.378V107.429C271.584 108.158 270.842 108.094 269.052 108.324C267.231 108.56 265.243 108.963 265.243 111.213C265.243 113.131 266.726 114.23 268.592 114.23ZM268.822 112.875C267.621 112.875 266.751 112.338 266.751 111.29C266.751 110.139 267.8 109.781 268.976 109.628C269.615 109.551 271.328 109.372 271.584 109.065V110.446C271.584 111.673 270.612 112.875 268.822 112.875ZM276.05 114H277.507V112.491H277.686C278.019 113.028 278.658 114.205 280.55 114.205C283.005 114.205 284.718 112.236 284.718 109.116C284.718 106.023 283.005 104.054 280.525 104.054C278.607 104.054 278.019 105.23 277.686 105.741H277.559V100.909H276.05V114ZM277.533 109.091C277.533 106.892 278.505 105.409 280.346 105.409C282.263 105.409 283.209 107.02 283.209 109.091C283.209 111.188 282.238 112.849 280.346 112.849C278.53 112.849 277.533 111.315 277.533 109.091ZM291.014 114.205C293.673 114.205 295.463 112.185 295.463 109.142C295.463 106.074 293.673 104.054 291.014 104.054C288.355 104.054 286.565 106.074 286.565 109.142C286.565 112.185 288.355 114.205 291.014 114.205ZM291.014 112.849C288.994 112.849 288.074 111.111 288.074 109.142C288.074 107.173 288.994 105.409 291.014 105.409C293.034 105.409 293.954 107.173 293.954 109.142C293.954 111.111 293.034 112.849 291.014 112.849ZM297.765 114H299.274V107.787C299.274 106.457 300.322 105.486 301.754 105.486C302.157 105.486 302.572 105.562 302.675 105.588V104.054C302.502 104.041 302.106 104.028 301.882 104.028C300.706 104.028 299.683 104.693 299.325 105.665H299.223V104.182H297.765V114ZM307.352 114.23C309.065 114.23 309.96 113.31 310.267 112.67H310.343V114H311.852V107.531C311.852 104.412 309.474 104.054 308.221 104.054C306.738 104.054 305.051 104.565 304.284 106.355L305.716 106.866C306.048 106.151 306.834 105.384 308.272 105.384C309.659 105.384 310.343 106.119 310.343 107.378V107.429C310.343 108.158 309.602 108.094 307.812 108.324C305.99 108.56 304.002 108.963 304.002 111.213C304.002 113.131 305.485 114.23 307.352 114.23ZM307.582 112.875C306.38 112.875 305.511 112.338 305.511 111.29C305.511 110.139 306.559 109.781 307.735 109.628C308.375 109.551 310.088 109.372 310.343 109.065V110.446C310.343 111.673 309.372 112.875 307.582 112.875ZM318.875 104.182H316.779V101.83H315.27V104.182H313.787V105.46H315.27V111.597C315.27 113.31 316.651 114.128 317.929 114.128C318.492 114.128 318.85 114.026 319.054 113.949L318.747 112.594C318.619 112.619 318.415 112.67 318.083 112.67C317.418 112.67 316.779 112.466 316.779 111.188V105.46H318.875V104.182ZM321.144 114H322.653V104.182H321.144V114ZM321.911 102.545C322.499 102.545 322.985 102.085 322.985 101.523C322.985 100.96 322.499 100.5 321.911 100.5C321.323 100.5 320.838 100.96 320.838 101.523C320.838 102.085 321.323 102.545 321.911 102.545ZM329.404 114.205C332.064 114.205 333.853 112.185 333.853 109.142C333.853 106.074 332.064 104.054 329.404 104.054C326.745 104.054 324.956 106.074 324.956 109.142C324.956 112.185 326.745 114.205 329.404 114.205ZM329.404 112.849C327.385 112.849 326.464 111.111 326.464 109.142C326.464 107.173 327.385 105.409 329.404 105.409C331.424 105.409 332.345 107.173 332.345 109.142C332.345 111.111 331.424 112.849 329.404 112.849ZM337.665 108.094C337.665 106.381 338.726 105.409 340.17 105.409C341.57 105.409 342.42 106.323 342.42 107.864V114H343.929V107.761C343.929 105.256 342.593 104.054 340.605 104.054C339.122 104.054 338.202 104.719 337.741 105.716H337.613V104.182H336.156V114H337.665V108.094ZM354.637 114.23C356.35 114.23 357.245 113.31 357.552 112.67H357.629V114H359.137V107.531C359.137 104.412 356.759 104.054 355.506 104.054C354.023 104.054 352.336 104.565 351.569 106.355L353.001 106.866C353.333 106.151 354.119 105.384 355.558 105.384C356.945 105.384 357.629 106.119 357.629 107.378V107.429C357.629 108.158 356.887 108.094 355.097 108.324C353.276 108.56 351.288 108.963 351.288 111.213C351.288 113.131 352.771 114.23 354.637 114.23ZM354.867 112.875C353.665 112.875 352.796 112.338 352.796 111.29C352.796 110.139 353.844 109.781 355.021 109.628C355.66 109.551 357.373 109.372 357.629 109.065V110.446C357.629 111.673 356.657 112.875 354.867 112.875ZM363.399 108.094C363.399 106.381 364.46 105.409 365.905 105.409C367.305 105.409 368.155 106.323 368.155 107.864V114H369.663V107.761C369.663 105.256 368.327 104.054 366.339 104.054C364.856 104.054 363.936 104.719 363.476 105.716H363.348V104.182H361.89V114H363.399V108.094ZM376.127 114.205C378.019 114.205 378.658 113.028 378.991 112.491H379.17V114H380.627V100.909H379.119V105.741H378.991C378.658 105.23 378.07 104.054 376.153 104.054C373.673 104.054 371.96 106.023 371.96 109.116C371.96 112.236 373.673 114.205 376.127 114.205ZM376.332 112.849C374.44 112.849 373.468 111.188 373.468 109.091C373.468 107.02 374.414 105.409 376.332 105.409C378.173 105.409 379.144 106.892 379.144 109.091C379.144 111.315 378.147 112.849 376.332 112.849ZM41.3693 142.205C43.5426 142.205 44.9744 140.875 45.2301 139.136H43.7216C43.4403 140.21 42.5455 140.849 41.3693 140.849C39.5795 140.849 38.429 139.366 38.429 137.091C38.429 134.866 39.6051 133.409 41.3693 133.409C42.6989 133.409 43.4915 134.227 43.7216 135.122H45.2301C44.9744 133.281 43.4148 132.054 41.3438 132.054C38.6847 132.054 36.9205 134.151 36.9205 137.142C36.9205 140.082 38.608 142.205 41.3693 142.205ZM51.424 142.205C54.0831 142.205 55.8729 140.185 55.8729 137.142C55.8729 134.074 54.0831 132.054 51.424 132.054C48.7649 132.054 46.9751 134.074 46.9751 137.142C46.9751 140.185 48.7649 142.205 51.424 142.205ZM51.424 140.849C49.4041 140.849 48.4837 139.111 48.4837 137.142C48.4837 135.173 49.4041 133.409 51.424 133.409C53.4439 133.409 54.3643 135.173 54.3643 137.142C54.3643 139.111 53.4439 140.849 51.424 140.849ZM59.6841 136.094C59.6841 134.381 60.7452 133.409 62.1898 133.409C63.5897 133.409 64.4398 134.323 64.4398 135.864V142H65.9483V135.761C65.9483 133.256 64.6124 132.054 62.6245 132.054C61.1415 132.054 60.2211 132.719 59.7608 133.716H59.633V132.182H58.1756V142H59.6841V136.094ZM72.9748 132.182H70.8782V129.83H69.3697V132.182H67.8867V133.46H69.3697V139.597C69.3697 141.31 70.7504 142.128 72.0288 142.128C72.5913 142.128 72.9492 142.026 73.1538 141.949L72.8469 140.594C72.7191 140.619 72.5146 140.67 72.1822 140.67C71.5174 140.67 70.8782 140.466 70.8782 139.188V133.46H72.9748V132.182ZM75.244 142H76.7525V132.182H75.244V142ZM76.011 130.545C76.5991 130.545 77.0849 130.085 77.0849 129.523C77.0849 128.96 76.5991 128.5 76.011 128.5C75.4229 128.5 74.9371 128.96 74.9371 129.523C74.9371 130.085 75.4229 130.545 76.011 130.545ZM81.024 136.094C81.024 134.381 82.085 133.409 83.5297 133.409C84.9295 133.409 85.7797 134.323 85.7797 135.864V142H87.2882V135.761C87.2882 133.256 85.9522 132.054 83.9643 132.054C82.4814 132.054 81.5609 132.719 81.1007 133.716H80.9728V132.182H79.5154V142H81.024V136.094ZM96.2322 137.986C96.2322 139.827 94.826 140.67 93.701 140.67C92.4482 140.67 91.5533 139.75 91.5533 138.318V132.182H90.0447V138.42C90.0447 140.926 91.3743 142.128 93.2152 142.128C94.6982 142.128 95.6697 141.335 96.13 140.338H96.2322V142H97.7408V132.182H96.2322V137.986ZM100.504 142H102.012V132.182H100.504V142ZM101.271 130.545C101.859 130.545 102.345 130.085 102.345 129.523C102.345 128.96 101.859 128.5 101.271 128.5C100.683 128.5 100.197 128.96 100.197 129.523C100.197 130.085 100.683 130.545 101.271 130.545ZM109.045 132.182H106.949V129.83H105.44V132.182H103.957V133.46H105.44V139.597C105.44 141.31 106.821 142.128 108.099 142.128C108.662 142.128 109.02 142.026 109.224 141.949L108.917 140.594C108.789 140.619 108.585 140.67 108.252 140.67C107.588 140.67 106.949 140.466 106.949 139.188V133.46H109.045V132.182ZM112.286 145.682C113.647 145.682 114.606 144.96 115.175 143.432L119.355 132.207L117.706 132.182L114.996 140.006H114.894L112.184 132.182H110.547L114.178 142.051L113.897 142.818C113.347 144.314 112.669 144.455 111.57 144.173L111.186 145.503C111.34 145.58 111.775 145.682 112.286 145.682ZM129.303 142.23C131.016 142.23 131.911 141.31 132.218 140.67H132.295V142H133.803V135.531C133.803 132.412 131.425 132.054 130.172 132.054C128.689 132.054 127.002 132.565 126.235 134.355L127.667 134.866C127.999 134.151 128.785 133.384 130.224 133.384C131.611 133.384 132.295 134.119 132.295 135.378V135.429C132.295 136.158 131.553 136.094 129.763 136.324C127.942 136.56 125.954 136.963 125.954 139.213C125.954 141.131 127.437 142.23 129.303 142.23ZM129.533 140.875C128.331 140.875 127.462 140.338 127.462 139.29C127.462 138.139 128.51 137.781 129.687 137.628C130.326 137.551 132.039 137.372 132.295 137.065V138.446C132.295 139.673 131.323 140.875 129.533 140.875ZM140.545 142.205C142.718 142.205 144.15 140.875 144.406 139.136H142.897C142.616 140.21 141.721 140.849 140.545 140.849C138.755 140.849 137.605 139.366 137.605 137.091C137.605 134.866 138.781 133.409 140.545 133.409C141.875 133.409 142.667 134.227 142.897 135.122H144.406C144.15 133.281 142.591 132.054 140.52 132.054C137.86 132.054 136.096 134.151 136.096 137.142C136.096 140.082 137.784 142.205 140.545 142.205ZM146.611 142H148.12V135.787C148.12 134.457 149.168 133.486 150.6 133.486C151.002 133.486 151.418 133.562 151.52 133.588V132.054C151.348 132.041 150.951 132.028 150.728 132.028C149.551 132.028 148.529 132.693 148.171 133.665H148.069V132.182H146.611V142ZM156.998 142.205C159.657 142.205 161.447 140.185 161.447 137.142C161.447 134.074 159.657 132.054 156.998 132.054C154.339 132.054 152.549 134.074 152.549 137.142C152.549 140.185 154.339 142.205 156.998 142.205ZM156.998 140.849C154.978 140.849 154.058 139.111 154.058 137.142C154.058 135.173 154.978 133.409 156.998 133.409C159.018 133.409 159.939 135.173 159.939 137.142C159.939 139.111 159.018 140.849 156.998 140.849ZM170.704 134.381C170.231 132.987 169.17 132.054 167.227 132.054C165.156 132.054 163.622 133.23 163.622 134.892C163.622 136.247 164.427 137.155 166.23 137.577L167.866 137.96C168.857 138.19 169.324 138.663 169.324 139.341C169.324 140.185 168.429 140.875 167.023 140.875C165.789 140.875 165.015 140.344 164.747 139.29L163.315 139.648C163.667 141.316 165.041 142.205 167.048 142.205C169.33 142.205 170.883 140.958 170.883 139.264C170.883 137.896 170.027 137.033 168.275 136.605L166.818 136.247C165.655 135.96 165.131 135.57 165.131 134.815C165.131 133.972 166.025 133.358 167.227 133.358C168.544 133.358 169.087 134.087 169.349 134.764L170.704 134.381ZM180.109 134.381C179.636 132.987 178.575 132.054 176.631 132.054C174.56 132.054 173.026 133.23 173.026 134.892C173.026 136.247 173.832 137.155 175.634 137.577L177.271 137.96C178.261 138.19 178.728 138.663 178.728 139.341C178.728 140.185 177.833 140.875 176.427 140.875C175.193 140.875 174.42 140.344 174.151 139.29L172.719 139.648C173.071 141.316 174.445 142.205 176.452 142.205C178.734 142.205 180.288 140.958 180.288 139.264C180.288 137.896 179.431 137.033 177.68 136.605L176.222 136.247C175.059 135.96 174.535 135.57 174.535 134.815C174.535 133.972 175.43 133.358 176.631 133.358C177.948 133.358 178.491 134.087 178.754 134.764L180.109 134.381ZM187.621 145.682H189.129V140.491H189.257C189.59 141.028 190.229 142.205 192.121 142.205C194.575 142.205 196.289 140.236 196.289 137.116C196.289 134.023 194.575 132.054 192.095 132.054C190.178 132.054 189.59 133.23 189.257 133.741H189.078V132.182H187.621V145.682ZM189.104 137.091C189.104 134.892 190.075 133.409 191.916 133.409C193.834 133.409 194.78 135.02 194.78 137.091C194.78 139.188 193.808 140.849 191.916 140.849C190.101 140.849 189.104 139.315 189.104 137.091ZM201.479 142.23C203.192 142.23 204.087 141.31 204.394 140.67H204.47V142H205.979V135.531C205.979 132.412 203.601 132.054 202.348 132.054C200.865 132.054 199.178 132.565 198.411 134.355L199.843 134.866C200.175 134.151 200.961 133.384 202.399 133.384C203.786 133.384 204.47 134.119 204.47 135.378V135.429C204.47 136.158 203.729 136.094 201.939 136.324C200.117 136.56 198.129 136.963 198.129 139.213C198.129 141.131 199.612 142.23 201.479 142.23ZM201.709 140.875C200.507 140.875 199.638 140.338 199.638 139.29C199.638 138.139 200.686 137.781 201.862 137.628C202.502 137.551 204.215 137.372 204.47 137.065V138.446C204.47 139.673 203.499 140.875 201.709 140.875ZM213.002 132.182H210.906V129.83H209.397V132.182H207.914V133.46H209.397V139.597C209.397 141.31 210.778 142.128 212.056 142.128C212.619 142.128 212.977 142.026 213.181 141.949L212.874 140.594C212.746 140.619 212.542 140.67 212.21 140.67C211.545 140.67 210.906 140.466 210.906 139.188V133.46H213.002V132.182ZM215.271 142H216.78V132.182H215.271V142ZM216.038 130.545C216.626 130.545 217.112 130.085 217.112 129.523C217.112 128.96 216.626 128.5 216.038 128.5C215.45 128.5 214.964 128.96 214.964 129.523C214.964 130.085 215.45 130.545 216.038 130.545ZM223.659 142.205C225.654 142.205 227.111 141.207 227.571 139.724L226.114 139.315C225.73 140.338 224.842 140.849 223.659 140.849C221.889 140.849 220.668 139.705 220.597 137.602H227.725V136.963C227.725 133.307 225.551 132.054 223.506 132.054C220.847 132.054 219.083 134.151 219.083 137.168C219.083 140.185 220.821 142.205 223.659 142.205ZM220.597 136.298C220.7 134.771 221.78 133.409 223.506 133.409C225.142 133.409 226.191 134.636 226.191 136.298H220.597ZM231.528 136.094C231.528 134.381 232.589 133.409 234.034 133.409C235.433 133.409 236.284 134.323 236.284 135.864V142H237.792V135.761C237.792 133.256 236.456 132.054 234.468 132.054C232.985 132.054 232.065 132.719 231.605 133.716H231.477V132.182H230.019V142H231.528V136.094ZM244.819 132.182H242.722V129.83H241.213V132.182H239.73V133.46H241.213V139.597C241.213 141.31 242.594 142.128 243.873 142.128C244.435 142.128 244.793 142.026 244.998 141.949L244.691 140.594C244.563 140.619 244.358 140.67 244.026 140.67C243.361 140.67 242.722 140.466 242.722 139.188V133.46H244.819V132.182ZM256.139 142.205C258.312 142.205 259.744 140.875 260 139.136H258.491C258.21 140.21 257.315 140.849 256.139 140.849C254.349 140.849 253.199 139.366 253.199 137.091C253.199 134.866 254.375 133.409 256.139 133.409C257.468 133.409 258.261 134.227 258.491 135.122H260C259.744 133.281 258.184 132.054 256.113 132.054C253.454 132.054 251.69 134.151 251.69 137.142C251.69 140.082 253.377 142.205 256.139 142.205ZM265.094 142.23C266.807 142.23 267.702 141.31 268.009 140.67H268.086V142H269.594V135.531C269.594 132.412 267.216 132.054 265.963 132.054C264.48 132.054 262.793 132.565 262.026 134.355L263.458 134.866C263.79 134.151 264.576 133.384 266.015 133.384C267.402 133.384 268.086 134.119 268.086 135.378V135.429C268.086 136.158 267.344 136.094 265.554 136.324C263.733 136.56 261.745 136.963 261.745 139.213C261.745 141.131 263.228 142.23 265.094 142.23ZM265.324 140.875C264.123 140.875 263.253 140.338 263.253 139.29C263.253 138.139 264.301 137.781 265.478 137.628C266.117 137.551 267.83 137.372 268.086 137.065V138.446C268.086 139.673 267.114 140.875 265.324 140.875ZM272.347 142H273.856V135.787C273.856 134.457 274.904 133.486 276.336 133.486C276.739 133.486 277.154 133.562 277.257 133.588V132.054C277.084 132.041 276.688 132.028 276.464 132.028C275.288 132.028 274.265 132.693 273.907 133.665H273.805V132.182H272.347V142ZM282.862 142.205C284.857 142.205 286.314 141.207 286.774 139.724L285.317 139.315C284.933 140.338 284.045 140.849 282.862 140.849C281.092 140.849 279.871 139.705 279.801 137.602H286.928V136.963C286.928 133.307 284.754 132.054 282.709 132.054C280.05 132.054 278.286 134.151 278.286 137.168C278.286 140.185 280.024 142.205 282.862 142.205ZM279.801 136.298C279.903 134.771 280.983 133.409 282.709 133.409C284.345 133.409 285.394 134.636 285.394 136.298H279.801ZM290.322 142.102C290.955 142.102 291.472 141.585 291.472 140.952C291.472 140.319 290.955 139.801 290.322 139.801C289.689 139.801 289.171 140.319 289.171 140.952C289.171 141.585 289.689 142.102 290.322 142.102Z" fill="#0A1417"/>
<path d="M47.7859 32.2727V42.8335C47.7859 44.7447 46.4464 46.125 44.3881 46.125C42.3381 46.125 40.9904 44.7447 40.9904 42.8335V32.2727H37.4538V43.1357C37.4538 46.7947 40.2145 49.2369 44.3881 49.2369C48.5455 49.2369 51.3224 46.7947 51.3224 43.1357V32.2727H47.7859ZM64.605 40.032C64.2947 37.7205 62.4324 36.2912 59.2634 36.2912C56.0535 36.2912 53.9381 37.7777 53.9463 40.1953C53.9381 42.0739 55.1224 43.2908 57.5727 43.7809L59.7453 44.2138C60.8398 44.4343 61.338 44.8345 61.3543 45.4634C61.338 46.2067 60.5294 46.7376 59.3124 46.7376C58.0709 46.7376 57.246 46.2067 57.0336 45.1857L53.6114 45.3654C53.9381 47.7667 55.98 49.245 59.3042 49.245C62.555 49.245 64.8827 47.587 64.8909 45.1122C64.8827 43.299 63.6984 42.2127 61.2645 41.7145L58.9939 41.2571C57.8259 41.0039 57.393 40.6037 57.4012 39.9993C57.393 39.2479 58.2425 38.7578 59.3206 38.7578C60.5294 38.7578 61.2481 39.4194 61.4197 40.228L64.605 40.032ZM72.7992 49.245C75.9029 49.245 77.9938 47.734 78.4838 45.4062L75.2658 45.1939C74.9146 46.1495 74.0162 46.6477 72.8564 46.6477C71.1167 46.6477 70.014 45.4961 70.014 43.6257V43.6175H78.5574V42.6619C78.5574 38.3984 75.9764 36.2912 72.6603 36.2912C68.9686 36.2912 66.5755 38.913 66.5755 42.7844C66.5755 46.7621 68.9359 49.245 72.7992 49.245ZM70.014 41.4613C70.0875 40.032 71.1738 38.8885 72.7175 38.8885C74.2285 38.8885 75.274 39.9666 75.2821 41.4613H70.014ZM80.8279 49H84.3074V41.9023C84.3074 40.3587 85.4345 39.2969 86.97 39.2969C87.4519 39.2969 88.1135 39.3786 88.4402 39.4847V36.3974C88.1298 36.3239 87.6969 36.2749 87.3457 36.2749C85.9409 36.2749 84.7892 37.0916 84.3319 38.6435H84.2012V36.4545H80.8279V49ZM99.1642 32.2727H95.6277V49H99.1642V32.2727ZM102.009 49H105.488V41.4695C105.488 40.081 106.37 39.158 107.53 39.158C108.673 39.158 109.441 39.9421 109.441 41.1754V49H112.814V41.3388C112.814 40.0401 113.558 39.158 114.824 39.158C115.934 39.158 116.767 39.8523 116.767 41.2489V49H120.239V40.5629C120.239 37.843 118.622 36.2912 116.286 36.2912C114.448 36.2912 113.019 37.2305 112.504 38.668H112.373C111.973 37.2141 110.691 36.2912 108.967 36.2912C107.277 36.2912 105.994 37.1896 105.472 38.668H105.325V36.4545H102.009V49ZM122.987 53.7045H126.467V46.9908H126.573C127.055 48.0362 128.108 49.2042 130.134 49.2042C132.992 49.2042 135.222 46.9418 135.222 42.7436C135.222 38.4311 132.894 36.2912 130.142 36.2912C128.043 36.2912 127.038 37.5408 126.573 38.5618H126.418V36.4545H122.987V53.7045ZM126.393 42.7273C126.393 40.4893 127.34 39.06 129.031 39.06C130.755 39.06 131.669 40.5547 131.669 42.7273C131.669 44.9162 130.738 46.4354 129.031 46.4354C127.357 46.4354 126.393 44.9652 126.393 42.7273ZM141.119 49.2369C142.973 49.2369 144.174 48.4283 144.786 47.2603H144.884V49H148.184V40.5384C148.184 37.549 145.652 36.2912 142.859 36.2912C139.853 36.2912 137.877 37.7287 137.395 40.0156L140.613 40.277C140.85 39.4439 141.593 38.8313 142.843 38.8313C144.027 38.8313 144.705 39.4276 144.705 40.4567V40.5057C144.705 41.3143 143.847 41.4205 141.666 41.6328C139.184 41.8615 136.954 42.6946 136.954 45.4961C136.954 47.979 138.726 49.2369 141.119 49.2369ZM142.116 46.8356C141.046 46.8356 140.278 46.3374 140.278 45.3817C140.278 44.4016 141.087 43.9197 142.312 43.7482C143.071 43.642 144.313 43.4624 144.729 43.1847V44.516C144.729 45.831 143.643 46.8356 142.116 46.8356ZM156.552 49.245C159.892 49.245 161.992 47.2848 162.155 44.4016H158.872C158.667 45.7411 157.785 46.4925 156.593 46.4925C154.967 46.4925 153.914 45.1286 153.914 42.7273C153.914 40.3587 154.976 39.0028 156.593 39.0028C157.867 39.0028 158.684 39.8441 158.872 41.0938H162.155C162.008 38.1942 159.811 36.2912 156.536 36.2912C152.729 36.2912 150.377 38.9293 150.377 42.7763C150.377 46.5906 152.689 49.245 156.552 49.245ZM171.056 36.4545H168.695V33.4489H165.216V36.4545H163.501V39.0682H165.216V45.6023C165.199 48.0607 166.874 49.2777 169.398 49.1715C170.296 49.1388 170.933 48.9592 171.284 48.8448L170.737 46.2557C170.566 46.2884 170.198 46.37 169.871 46.37C169.177 46.37 168.695 46.1087 168.695 45.1449V39.0682H171.056V36.4545Z" fill="#0A1417"/>
</svg>
