<svg width="466" height="178" viewBox="0 0 466 178" fill="none" xmlns="http://www.w3.org/2000/svg">
<rect width="466" height="178" fill="white"/>
<path d="M47.9659 72.9091H46.4062V83.2131H46.2784L39.1193 72.9091H37.5852V86H39.1705V75.7216H39.2983L46.4318 86H47.9659V72.9091ZM54.9221 86.2045C57.5811 86.2045 59.3709 84.1847 59.3709 81.142C59.3709 78.0739 57.5811 76.054 54.9221 76.054C52.263 76.054 50.4732 78.0739 50.4732 81.142C50.4732 84.1847 52.263 86.2045 54.9221 86.2045ZM54.9221 84.8494C52.9022 84.8494 51.9817 83.1108 51.9817 81.142C51.9817 79.1733 52.9022 77.4091 54.9221 77.4091C56.9419 77.4091 57.8624 79.1733 57.8624 81.142C57.8624 83.1108 56.9419 84.8494 54.9221 84.8494ZM63.1822 80.0938C63.1822 78.3807 64.2433 77.4091 65.6879 77.4091C67.0877 77.4091 67.9379 78.3232 67.9379 79.8636V86H69.4464V79.7614C69.4464 77.2557 68.1104 76.054 66.1225 76.054C64.6396 76.054 63.7191 76.7188 63.2589 77.7159H63.131V76.1818H61.6737V86H63.1822V80.0938ZM77.8279 79.6847H72.1007V81.0909H77.8279V79.6847ZM80.4822 89.6818H81.9908V84.4915H82.1186C82.451 85.0284 83.0902 86.2045 84.9822 86.2045C87.4368 86.2045 89.1499 84.2358 89.1499 81.1165C89.1499 78.0227 87.4368 76.054 84.9567 76.054C83.0391 76.054 82.451 77.2301 82.1186 77.7415H81.9396V76.1818H80.4822V89.6818ZM81.9652 81.0909C81.9652 78.892 82.9368 77.4091 84.7777 77.4091C86.6953 77.4091 87.6413 79.0199 87.6413 81.0909C87.6413 83.1875 86.6697 84.8494 84.7777 84.8494C82.9624 84.8494 81.9652 83.3153 81.9652 81.0909ZM91.451 86H92.9595V79.7869C92.9595 78.4574 94.0078 77.4858 95.4396 77.4858C95.8423 77.4858 96.2578 77.5625 96.3601 77.5881V76.054C96.1875 76.0412 95.7912 76.0284 95.5675 76.0284C94.3913 76.0284 93.3686 76.6932 93.0107 77.6648H92.9084V76.1818H91.451V86ZM101.838 86.2045C104.497 86.2045 106.287 84.1847 106.287 81.142C106.287 78.0739 104.497 76.054 101.838 76.054C99.179 76.054 97.3892 78.0739 97.3892 81.142C97.3892 84.1847 99.179 86.2045 101.838 86.2045ZM101.838 84.8494C99.8182 84.8494 98.8977 83.1108 98.8977 81.142C98.8977 79.1733 99.8182 77.4091 101.838 77.4091C103.858 77.4091 104.778 79.1733 104.778 81.142C104.778 83.1108 103.858 84.8494 101.838 84.8494ZM112.297 86.2045C114.189 86.2045 114.828 85.0284 115.161 84.4915H115.34V86H116.797V72.9091H115.289V77.7415H115.161C114.828 77.2301 114.24 76.054 112.323 76.054C109.843 76.054 108.129 78.0227 108.129 81.1165C108.129 84.2358 109.843 86.2045 112.297 86.2045ZM112.502 84.8494C110.61 84.8494 109.638 83.1875 109.638 81.0909C109.638 79.0199 110.584 77.4091 112.502 77.4091C114.343 77.4091 115.314 78.892 115.314 81.0909C115.314 83.3153 114.317 84.8494 112.502 84.8494ZM125.957 81.9858C125.957 83.8267 124.551 84.6705 123.426 84.6705C122.173 84.6705 121.278 83.75 121.278 82.3182V76.1818H119.769V82.4205C119.769 84.9261 121.099 86.1278 122.94 86.1278C124.423 86.1278 125.394 85.3352 125.855 84.3381H125.957V86H127.465V76.1818H125.957V81.9858ZM134.217 86.2045C136.39 86.2045 137.822 84.875 138.078 83.1364H136.569C136.288 84.2102 135.393 84.8494 134.217 84.8494C132.427 84.8494 131.277 83.3665 131.277 81.0909C131.277 78.8665 132.453 77.4091 134.217 77.4091C135.547 77.4091 136.339 78.2273 136.569 79.1222H138.078C137.822 77.2812 136.262 76.054 134.191 76.054C131.532 76.054 129.768 78.1506 129.768 81.142C129.768 84.0824 131.456 86.2045 134.217 86.2045ZM144.553 76.1818H142.456V73.8295H140.948V76.1818H139.465V77.4602H140.948V83.5966C140.948 85.3097 142.328 86.1278 143.607 86.1278C144.169 86.1278 144.527 86.0256 144.732 85.9489L144.425 84.5938C144.297 84.6193 144.093 84.6705 143.76 84.6705C143.096 84.6705 142.456 84.4659 142.456 83.1875V77.4602H144.553V76.1818ZM146.822 86H148.331V76.1818H146.822V86ZM147.589 74.5455C148.177 74.5455 148.663 74.0852 148.663 73.5227C148.663 72.9602 148.177 72.5 147.589 72.5C147.001 72.5 146.515 72.9602 146.515 73.5227C146.515 74.0852 147.001 74.5455 147.589 74.5455ZM159.122 76.1818H157.486L154.775 84.0057H154.673L151.963 76.1818H150.327L153.957 86H155.491L159.122 76.1818ZM164.878 86.2045C166.872 86.2045 168.33 85.2074 168.79 83.7244L167.333 83.3153C166.949 84.3381 166.061 84.8494 164.878 84.8494C163.107 84.8494 161.887 83.7053 161.816 81.6023H168.943V80.9631C168.943 77.3068 166.77 76.054 164.725 76.054C162.066 76.054 160.301 78.1506 160.301 81.1676C160.301 84.1847 162.04 86.2045 164.878 86.2045ZM161.816 80.2983C161.919 78.7706 162.999 77.4091 164.725 77.4091C166.361 77.4091 167.409 78.6364 167.409 80.2983H161.816ZM180.289 86.2045C182.463 86.2045 183.894 84.875 184.15 83.1364H182.642C182.36 84.2102 181.465 84.8494 180.289 84.8494C178.499 84.8494 177.349 83.3665 177.349 81.0909C177.349 78.8665 178.525 77.4091 180.289 77.4091C181.619 77.4091 182.411 78.2273 182.642 79.1222H184.15C183.894 77.2812 182.335 76.054 180.264 76.054C177.605 76.054 175.84 78.1506 175.84 81.142C175.84 84.0824 177.528 86.2045 180.289 86.2045ZM187.864 72.9091H186.355V86H187.864V72.9091ZM190.627 86H192.135V76.1818H190.627V86ZM191.394 74.5455C191.982 74.5455 192.468 74.0852 192.468 73.5227C192.468 72.9602 191.982 72.5 191.394 72.5C190.806 72.5 190.32 72.9602 190.32 73.5227C190.32 74.0852 190.806 74.5455 191.394 74.5455ZM198.887 86.2045C201.06 86.2045 202.492 84.875 202.748 83.1364H201.239C200.958 84.2102 200.063 84.8494 198.887 84.8494C197.097 84.8494 195.947 83.3665 195.947 81.0909C195.947 78.8665 197.123 77.4091 198.887 77.4091C200.216 77.4091 201.009 78.2273 201.239 79.1222H202.748C202.492 77.2812 200.932 76.054 198.861 76.054C196.202 76.054 194.438 78.1506 194.438 81.142C194.438 84.0824 196.126 86.2045 198.887 86.2045ZM204.953 86H206.461V82.3246L207.516 81.3466L211.192 86H213.109L208.654 80.375L212.802 76.1818H210.936L206.64 80.554H206.461V72.9091H204.953V86ZM221.699 78.3807C221.225 76.9872 220.164 76.054 218.221 76.054C216.15 76.054 214.616 77.2301 214.616 78.892C214.616 80.2472 215.422 81.1548 217.224 81.5767L218.86 81.9602C219.851 82.1903 220.318 82.6634 220.318 83.3409C220.318 84.1847 219.423 84.875 218.017 84.875C216.783 84.875 216.01 84.3445 215.741 83.2898L214.309 83.6477C214.661 85.3161 216.035 86.2045 218.042 86.2045C220.324 86.2045 221.877 84.9581 221.877 83.2642C221.877 81.8963 221.021 81.0334 219.27 80.6051L217.812 80.2472C216.649 79.9595 216.125 79.5696 216.125 78.8153C216.125 77.9716 217.02 77.358 218.221 77.358C219.538 77.358 220.081 78.0866 220.343 78.7642L221.699 78.3807ZM232.918 86.2045C234.81 86.2045 235.449 85.0284 235.782 84.4915H235.961V86H237.418V72.9091H235.91V77.7415H235.782C235.449 77.2301 234.861 76.054 232.944 76.054C230.464 76.054 228.751 78.0227 228.751 81.1165C228.751 84.2358 230.464 86.2045 232.918 86.2045ZM233.123 84.8494C231.231 84.8494 230.259 83.1875 230.259 81.0909C230.259 79.0199 231.205 77.4091 233.123 77.4091C234.964 77.4091 235.935 78.892 235.935 81.0909C235.935 83.3153 234.938 84.8494 233.123 84.8494ZM244.507 86.2045C246.501 86.2045 247.959 85.2074 248.419 83.7244L246.961 83.3153C246.578 84.3381 245.689 84.8494 244.507 84.8494C242.736 84.8494 241.515 83.7053 241.445 81.6023H248.572V80.9631C248.572 77.3068 246.399 76.054 244.354 76.054C241.694 76.054 239.93 78.1506 239.93 81.1676C239.93 84.1847 241.669 86.2045 244.507 86.2045ZM241.445 80.2983C241.547 78.7706 242.628 77.4091 244.354 77.4091C245.99 77.4091 247.038 78.6364 247.038 80.2983H241.445ZM254.856 86.2045C257.029 86.2045 258.461 84.875 258.716 83.1364H257.208C256.927 84.2102 256.032 84.8494 254.856 84.8494C253.066 84.8494 251.915 83.3665 251.915 81.0909C251.915 78.8665 253.091 77.4091 254.856 77.4091C256.185 77.4091 256.978 78.2273 257.208 79.1222H258.716C258.461 77.2812 256.901 76.054 254.83 76.054C252.171 76.054 250.407 78.1506 250.407 81.142C250.407 84.0824 252.094 86.2045 254.856 86.2045ZM260.922 86H262.43V79.7869C262.43 78.4574 263.479 77.4858 264.91 77.4858C265.313 77.4858 265.729 77.5625 265.831 77.5881V76.054C265.658 76.0412 265.262 76.0284 265.038 76.0284C263.862 76.0284 262.839 76.6932 262.481 77.6648H262.379V76.1818H260.922V86ZM271.437 86.2045C273.431 86.2045 274.888 85.2074 275.349 83.7244L273.891 83.3153C273.508 84.3381 272.619 84.8494 271.437 84.8494C269.666 84.8494 268.445 83.7053 268.375 81.6023H275.502V80.9631C275.502 77.3068 273.329 76.054 271.283 76.054C268.624 76.054 266.86 78.1506 266.86 81.1676C266.86 84.1847 268.599 86.2045 271.437 86.2045ZM268.375 80.2983C268.477 78.7706 269.557 77.4091 271.283 77.4091C272.92 77.4091 273.968 78.6364 273.968 80.2983H268.375ZM280.686 86.2301C282.399 86.2301 283.294 85.3097 283.601 84.6705H283.677V86H285.186V79.5312C285.186 76.4119 282.808 76.054 281.555 76.054C280.072 76.054 278.385 76.5653 277.618 78.3551L279.05 78.8665C279.382 78.1506 280.168 77.3835 281.606 77.3835C282.993 77.3835 283.677 78.1186 283.677 79.3778V79.429C283.677 80.1577 282.936 80.0938 281.146 80.3239C279.324 80.5604 277.336 80.9631 277.336 83.2131C277.336 85.1307 278.819 86.2301 280.686 86.2301ZM280.916 84.875C279.714 84.875 278.845 84.3381 278.845 83.2898C278.845 82.1392 279.893 81.7812 281.069 81.6278C281.709 81.5511 283.422 81.3722 283.677 81.0653V82.446C283.677 83.6733 282.706 84.875 280.916 84.875ZM294.894 78.3807C294.421 76.9872 293.36 76.054 291.417 76.054C289.346 76.054 287.811 77.2301 287.811 78.892C287.811 80.2472 288.617 81.1548 290.419 81.5767L292.056 81.9602C293.047 82.1903 293.513 82.6634 293.513 83.3409C293.513 84.1847 292.618 84.875 291.212 84.875C289.978 84.875 289.205 84.3445 288.936 83.2898L287.505 83.6477C287.856 85.3161 289.23 86.2045 291.238 86.2045C293.52 86.2045 295.073 84.9581 295.073 83.2642C295.073 81.8963 294.216 81.0334 292.465 80.6051L291.007 80.2472C289.844 79.9595 289.32 79.5696 289.32 78.8153C289.32 77.9716 290.215 77.358 291.417 77.358C292.733 77.358 293.277 78.0866 293.539 78.7642L294.894 78.3807ZM301.46 86.2045C303.454 86.2045 304.912 85.2074 305.372 83.7244L303.915 83.3153C303.531 84.3381 302.643 84.8494 301.46 84.8494C299.689 84.8494 298.469 83.7053 298.398 81.6023H305.525V80.9631C305.525 77.3068 303.352 76.054 301.307 76.054C298.648 76.054 296.883 78.1506 296.883 81.1676C296.883 84.1847 298.622 86.2045 301.46 86.2045ZM298.398 80.2983C298.501 78.7706 299.581 77.4091 301.307 77.4091C302.943 77.4091 303.991 78.6364 303.991 80.2983H298.398ZM317.153 76.1818H315.056V73.8295H313.547V76.1818H312.064V77.4602H313.547V83.5966C313.547 85.3097 314.928 86.1278 316.206 86.1278C316.769 86.1278 317.127 86.0256 317.331 85.9489L317.025 84.5938C316.897 84.6193 316.692 84.6705 316.36 84.6705C315.695 84.6705 315.056 84.4659 315.056 83.1875V77.4602H317.153V76.1818ZM321.141 80.0938C321.141 78.3807 322.234 77.4091 323.724 77.4091C325.143 77.4091 325.999 78.304 325.999 79.8636V86H327.508V79.7614C327.508 77.2365 326.165 76.054 324.158 76.054C322.611 76.054 321.729 76.6996 321.269 77.7159H321.141V72.9091H319.633V86H321.141V80.0938ZM334.384 86.2045C336.378 86.2045 337.836 85.2074 338.296 83.7244L336.838 83.3153C336.455 84.3381 335.566 84.8494 334.384 84.8494C332.613 84.8494 331.392 83.7053 331.322 81.6023H338.449V80.9631C338.449 77.3068 336.276 76.054 334.23 76.054C331.571 76.054 329.807 78.1506 329.807 81.1676C329.807 84.1847 331.546 86.2045 334.384 86.2045ZM331.322 80.2983C331.424 78.7706 332.505 77.4091 334.23 77.4091C335.867 77.4091 336.915 78.6364 336.915 80.2983H331.322ZM340.744 86H342.252V79.7869C342.252 78.4574 343.301 77.4858 344.733 77.4858C345.135 77.4858 345.551 77.5625 345.653 77.5881V76.054C345.48 76.0412 345.084 76.0284 344.86 76.0284C343.684 76.0284 342.662 76.6932 342.304 77.6648H342.201V76.1818H340.744V86ZM350.33 86.2301C352.044 86.2301 352.938 85.3097 353.245 84.6705H353.322V86H354.83V79.5312C354.83 76.4119 352.453 76.054 351.2 76.054C349.717 76.054 348.029 76.5653 347.262 78.3551L348.694 78.8665C349.026 78.1506 349.813 77.3835 351.251 77.3835C352.638 77.3835 353.322 78.1186 353.322 79.3778V79.429C353.322 80.1577 352.58 80.0938 350.791 80.3239C348.969 80.5604 346.981 80.9631 346.981 83.2131C346.981 85.1307 348.464 86.2301 350.33 86.2301ZM350.561 84.875C349.359 84.875 348.49 84.3381 348.49 83.2898C348.49 82.1392 349.538 81.7812 350.714 81.6278C351.353 81.5511 353.066 81.3722 353.322 81.0653V82.446C353.322 83.6733 352.35 84.875 350.561 84.875ZM357.584 89.6818H359.092V84.4915H359.22C359.553 85.0284 360.192 86.2045 362.084 86.2045C364.538 86.2045 366.251 84.2358 366.251 81.1165C366.251 78.0227 364.538 76.054 362.058 76.054C360.141 76.054 359.553 77.2301 359.22 77.7415H359.041V76.1818H357.584V89.6818ZM359.067 81.0909C359.067 78.892 360.038 77.4091 361.879 77.4091C363.797 77.4091 364.743 79.0199 364.743 81.0909C364.743 83.1875 363.771 84.8494 361.879 84.8494C360.064 84.8494 359.067 83.3153 359.067 81.0909ZM368.553 86H370.061V76.1818H368.553V86ZM369.32 74.5455C369.908 74.5455 370.393 74.0852 370.393 73.5227C370.393 72.9602 369.908 72.5 369.32 72.5C368.732 72.5 368.246 72.9602 368.246 73.5227C368.246 74.0852 368.732 74.5455 369.32 74.5455ZM379.779 78.3807C379.306 76.9872 378.244 76.054 376.301 76.054C374.23 76.054 372.696 77.2301 372.696 78.892C372.696 80.2472 373.502 81.1548 375.304 81.5767L376.941 81.9602C377.931 82.1903 378.398 82.6634 378.398 83.3409C378.398 84.1847 377.503 84.875 376.097 84.875C374.863 84.875 374.09 84.3445 373.821 83.2898L372.389 83.6477C372.741 85.3161 374.115 86.2045 376.122 86.2045C378.404 86.2045 379.958 84.9581 379.958 83.2642C379.958 81.8963 379.101 81.0334 377.35 80.6051L375.892 80.2472C374.729 79.9595 374.205 79.5696 374.205 78.8153C374.205 77.9716 375.1 77.358 376.301 77.358C377.618 77.358 378.161 78.0866 378.423 78.7642L379.779 78.3807ZM386.498 76.1818H384.402V73.8295H382.893V76.1818H381.41V77.4602H382.893V83.5966C382.893 85.3097 384.274 86.1278 385.552 86.1278C386.115 86.1278 386.473 86.0256 386.677 85.9489L386.37 84.5938C386.243 84.6193 386.038 84.6705 385.706 84.6705C385.041 84.6705 384.402 84.4659 384.402 83.1875V77.4602H386.498V76.1818ZM37.3807 117.682H38.8892V112.491H39.017C39.3494 113.028 39.9886 114.205 41.8807 114.205C44.3352 114.205 46.0483 112.236 46.0483 109.116C46.0483 106.023 44.3352 104.054 41.8551 104.054C39.9375 104.054 39.3494 105.23 39.017 105.741H38.8381V104.182H37.3807V117.682ZM38.8636 109.091C38.8636 106.892 39.8352 105.409 41.6761 105.409C43.5938 105.409 44.5398 107.02 44.5398 109.091C44.5398 111.188 43.5682 112.849 41.6761 112.849C39.8608 112.849 38.8636 111.315 38.8636 109.091ZM48.3494 114H49.858V107.787C49.858 106.457 50.9062 105.486 52.3381 105.486C52.7408 105.486 53.1562 105.562 53.2585 105.588V104.054C53.0859 104.041 52.6896 104.028 52.4659 104.028C51.2898 104.028 50.267 104.693 49.9091 105.665H49.8068V104.182H48.3494V114ZM58.7365 114.205C61.3956 114.205 63.1854 112.185 63.1854 109.142C63.1854 106.074 61.3956 104.054 58.7365 104.054C56.0774 104.054 54.2876 106.074 54.2876 109.142C54.2876 112.185 56.0774 114.205 58.7365 114.205ZM58.7365 112.849C56.7166 112.849 55.7962 111.111 55.7962 109.142C55.7962 107.173 56.7166 105.409 58.7365 105.409C60.7564 105.409 61.6768 107.173 61.6768 109.142C61.6768 111.111 60.7564 112.849 58.7365 112.849ZM69.1955 114.205C71.0875 114.205 71.7267 113.028 72.0591 112.491H72.2381V114H73.6955V100.909H72.187V105.741H72.0591C71.7267 105.23 71.1387 104.054 69.2211 104.054C66.7409 104.054 65.0279 106.023 65.0279 109.116C65.0279 112.236 66.7409 114.205 69.1955 114.205ZM69.4 112.849C67.508 112.849 66.5364 111.188 66.5364 109.091C66.5364 107.02 67.4824 105.409 69.4 105.409C71.2409 105.409 72.2125 106.892 72.2125 109.091C72.2125 111.315 71.2154 112.849 69.4 112.849ZM82.8553 109.986C82.8553 111.827 81.449 112.67 80.324 112.67C79.0712 112.67 78.1763 111.75 78.1763 110.318V104.182H76.6678V110.42C76.6678 112.926 77.9973 114.128 79.8382 114.128C81.3212 114.128 82.2928 113.335 82.753 112.338H82.8553V114H84.3638V104.182H82.8553V109.986ZM91.1154 114.205C93.2887 114.205 94.7205 112.875 94.9762 111.136H93.4677C93.1864 112.21 92.2915 112.849 91.1154 112.849C89.3256 112.849 88.1751 111.366 88.1751 109.091C88.1751 106.866 89.3512 105.409 91.1154 105.409C92.445 105.409 93.2376 106.227 93.4677 107.122H94.9762C94.7205 105.281 93.1609 104.054 91.0898 104.054C88.4308 104.054 86.6665 106.151 86.6665 109.142C86.6665 112.082 88.354 114.205 91.1154 114.205ZM101.451 104.182H99.3548V101.83H97.8462V104.182H96.3633V105.46H97.8462V111.597C97.8462 113.31 99.2269 114.128 100.505 114.128C101.068 114.128 101.426 114.026 101.63 113.949L101.324 112.594C101.196 112.619 100.991 112.67 100.659 112.67C99.994 112.67 99.3548 112.466 99.3548 111.188V105.46H101.451V104.182ZM103.721 114H105.229V104.182H103.721V114ZM104.488 102.545C105.076 102.545 105.561 102.085 105.561 101.523C105.561 100.96 105.076 100.5 104.488 100.5C103.9 100.5 103.414 100.96 103.414 101.523C103.414 102.085 103.9 102.545 104.488 102.545ZM116.02 104.182H114.384L111.674 112.006H111.572L108.861 104.182H107.225L110.856 114H112.39L116.02 104.182ZM118.012 114H119.52V104.182H118.012V114ZM118.779 102.545C119.367 102.545 119.852 102.085 119.852 101.523C119.852 100.96 119.367 100.5 118.779 100.5C118.191 100.5 117.705 100.96 117.705 101.523C117.705 102.085 118.191 102.545 118.779 102.545ZM126.553 104.182H124.456V101.83H122.948V104.182H121.465V105.46H122.948V111.597C122.948 113.31 124.328 114.128 125.607 114.128C126.169 114.128 126.527 114.026 126.732 113.949L126.425 112.594C126.297 112.619 126.093 112.67 125.76 112.67C125.096 112.67 124.456 112.466 124.456 111.188V105.46H126.553V104.182ZM129.794 117.682C131.155 117.682 132.114 116.96 132.683 115.432L136.863 104.207L135.214 104.182L132.504 112.006H132.402L129.691 104.182H128.055L131.686 114.051L131.404 114.818C130.855 116.314 130.177 116.455 129.078 116.173L128.694 117.503C128.848 117.58 129.282 117.682 129.794 117.682ZM143.922 114H145.43V107.787C145.43 106.457 146.479 105.486 147.91 105.486C148.313 105.486 148.729 105.562 148.831 105.588V104.054C148.658 104.041 148.262 104.028 148.038 104.028C146.862 104.028 145.839 104.693 145.481 105.665H145.379V104.182H143.922V114ZM153.508 114.23C155.221 114.23 156.116 113.31 156.423 112.67H156.5V114H158.008V107.531C158.008 104.412 155.63 104.054 154.377 104.054C152.895 104.054 151.207 104.565 150.44 106.355L151.872 106.866C152.204 106.151 152.99 105.384 154.429 105.384C155.816 105.384 156.5 106.119 156.5 107.378V107.429C156.5 108.158 155.758 108.094 153.968 108.324C152.147 108.56 150.159 108.963 150.159 111.213C150.159 113.131 151.642 114.23 153.508 114.23ZM153.738 112.875C152.537 112.875 151.667 112.338 151.667 111.29C151.667 110.139 152.716 109.781 153.892 109.628C154.531 109.551 156.244 109.372 156.5 109.065V110.446C156.5 111.673 155.528 112.875 153.738 112.875ZM165.031 104.182H162.935V101.83H161.426V104.182H159.943V105.46H161.426V111.597C161.426 113.31 162.807 114.128 164.085 114.128C164.648 114.128 165.006 114.026 165.21 113.949L164.904 112.594C164.776 112.619 164.571 112.67 164.239 112.67C163.574 112.67 162.935 112.466 162.935 111.188V105.46H165.031V104.182ZM167.301 114H168.809V104.182H167.301V114ZM168.068 102.545C168.656 102.545 169.142 102.085 169.142 101.523C169.142 100.96 168.656 100.5 168.068 100.5C167.48 100.5 166.994 100.96 166.994 101.523C166.994 102.085 167.48 102.545 168.068 102.545ZM173.081 108.094C173.081 106.381 174.142 105.409 175.586 105.409C176.986 105.409 177.836 106.323 177.836 107.864V114H179.345V107.761C179.345 105.256 178.009 104.054 176.021 104.054C174.538 104.054 173.618 104.719 173.157 105.716H173.029V104.182H171.572V114H173.081V108.094ZM186.064 117.886C188.417 117.886 190.309 116.812 190.309 114.281V104.182H188.851V105.741H188.698C188.366 105.23 187.752 104.054 185.834 104.054C183.354 104.054 181.641 106.023 181.641 109.04C181.641 112.108 183.431 113.847 185.809 113.847C187.726 113.847 188.34 112.722 188.672 112.185H188.8V114.179C188.8 115.815 187.65 116.557 186.064 116.557C184.281 116.557 183.655 115.617 183.252 115.074L182.05 115.918C182.664 116.947 183.872 117.886 186.064 117.886ZM186.013 112.491C184.121 112.491 183.15 111.06 183.15 109.014C183.15 107.02 184.096 105.409 186.013 105.409C187.854 105.409 188.826 106.892 188.826 109.014C188.826 111.188 187.829 112.491 186.013 112.491ZM194.17 114.102C194.802 114.102 195.32 113.585 195.32 112.952C195.32 112.319 194.802 111.801 194.17 111.801C193.537 111.801 193.019 112.319 193.019 112.952C193.019 113.585 193.537 114.102 194.17 114.102ZM204.879 100.909H203.294V114H204.879V100.909ZM212.123 104.182H210.027V101.83H208.518V104.182H207.035V105.46H208.518V111.597C208.518 113.31 209.899 114.128 211.177 114.128C211.74 114.128 212.098 114.026 212.302 113.949L211.995 112.594C211.868 112.619 211.663 112.67 211.331 112.67C210.666 112.67 210.027 112.466 210.027 111.188V105.46H212.123V104.182ZM222.344 114.23C224.057 114.23 224.952 113.31 225.259 112.67H225.336V114H226.844V107.531C226.844 104.412 224.466 104.054 223.213 104.054C221.73 104.054 220.043 104.565 219.276 106.355L220.708 106.866C221.04 106.151 221.826 105.384 223.265 105.384C224.652 105.384 225.336 106.119 225.336 107.378V107.429C225.336 108.158 224.594 108.094 222.804 108.324C220.983 108.56 218.995 108.963 218.995 111.213C218.995 113.131 220.478 114.23 222.344 114.23ZM222.574 112.875C221.373 112.875 220.503 112.338 220.503 111.29C220.503 110.139 221.551 109.781 222.728 109.628C223.367 109.551 225.08 109.372 225.336 109.065V110.446C225.336 111.673 224.364 112.875 222.574 112.875ZM231.106 100.909H229.597V114H231.106V100.909ZM240.824 106.381C240.35 104.987 239.289 104.054 237.346 104.054C235.275 104.054 233.741 105.23 233.741 106.892C233.741 108.247 234.547 109.155 236.349 109.577L237.985 109.96C238.976 110.19 239.443 110.663 239.443 111.341C239.443 112.185 238.548 112.875 237.142 112.875C235.908 112.875 235.135 112.344 234.866 111.29L233.434 111.648C233.786 113.316 235.16 114.205 237.167 114.205C239.449 114.205 241.002 112.958 241.002 111.264C241.002 109.896 240.146 109.033 238.395 108.605L236.937 108.247C235.774 107.96 235.25 107.57 235.25 106.815C235.25 105.972 236.145 105.358 237.346 105.358C238.663 105.358 239.206 106.087 239.468 106.764L240.824 106.381ZM247.262 114.205C249.921 114.205 251.711 112.185 251.711 109.142C251.711 106.074 249.921 104.054 247.262 104.054C244.603 104.054 242.813 106.074 242.813 109.142C242.813 112.185 244.603 114.205 247.262 114.205ZM247.262 112.849C245.242 112.849 244.322 111.111 244.322 109.142C244.322 107.173 245.242 105.409 247.262 105.409C249.282 105.409 250.202 107.173 250.202 109.142C250.202 111.111 249.282 112.849 247.262 112.849ZM259.076 114H260.585V107.864C260.585 106.425 261.633 105.409 262.809 105.409C263.953 105.409 264.752 106.157 264.752 107.276V114H266.286V107.608C266.286 106.342 267.079 105.409 268.46 105.409C269.533 105.409 270.454 105.978 270.454 107.429V114H271.962V107.429C271.962 105.121 270.722 104.054 268.971 104.054C267.565 104.054 266.536 104.7 266.031 105.716H265.928C265.442 104.668 264.586 104.054 263.295 104.054C262.016 104.054 261.07 104.668 260.661 105.716H260.533V104.182H259.076V114ZM278.837 114.205C280.831 114.205 282.289 113.207 282.749 111.724L281.292 111.315C280.908 112.338 280.02 112.849 278.837 112.849C277.066 112.849 275.846 111.705 275.775 109.602H282.902V108.963C282.902 105.307 280.729 104.054 278.684 104.054C276.025 104.054 274.26 106.151 274.26 109.168C274.26 112.185 275.999 114.205 278.837 114.205ZM275.775 108.298C275.877 106.771 276.958 105.409 278.684 105.409C280.32 105.409 281.368 106.636 281.368 108.298H275.775ZM288.086 114.23C289.799 114.23 290.694 113.31 291.001 112.67H291.078V114H292.586V107.531C292.586 104.412 290.208 104.054 288.956 104.054C287.473 104.054 285.785 104.565 285.018 106.355L286.45 106.866C286.782 106.151 287.569 105.384 289.007 105.384C290.394 105.384 291.078 106.119 291.078 107.378V107.429C291.078 108.158 290.336 108.094 288.547 108.324C286.725 108.56 284.737 108.963 284.737 111.213C284.737 113.131 286.22 114.23 288.086 114.23ZM288.316 112.875C287.115 112.875 286.245 112.338 286.245 111.29C286.245 110.139 287.294 109.781 288.47 109.628C289.109 109.551 290.822 109.372 291.078 109.065V110.446C291.078 111.673 290.106 112.875 288.316 112.875ZM296.848 108.094C296.848 106.381 297.909 105.409 299.354 105.409C300.754 105.409 301.604 106.323 301.604 107.864V114H303.112V107.761C303.112 105.256 301.776 104.054 299.789 104.054C298.306 104.054 297.385 104.719 296.925 105.716H296.797V104.182H295.34V114H296.848V108.094ZM312.824 106.381C312.35 104.987 311.289 104.054 309.346 104.054C307.275 104.054 305.741 105.23 305.741 106.892C305.741 108.247 306.547 109.155 308.349 109.577L309.985 109.96C310.976 110.19 311.443 110.663 311.443 111.341C311.443 112.185 310.548 112.875 309.142 112.875C307.908 112.875 307.135 112.344 306.866 111.29L305.434 111.648C305.786 113.316 307.16 114.205 309.167 114.205C311.449 114.205 313.002 112.958 313.002 111.264C313.002 109.896 312.146 109.033 310.395 108.605L308.937 108.247C307.774 107.96 307.25 107.57 307.25 106.815C307.25 105.972 308.145 105.358 309.346 105.358C310.663 105.358 311.206 106.087 311.468 106.764L312.824 106.381ZM324.708 104.182H322.509V103.185C322.509 102.213 322.918 101.702 323.915 101.702C324.35 101.702 324.606 101.804 324.759 101.855L325.194 100.551C324.964 100.449 324.503 100.295 323.762 100.295C322.356 100.295 321.001 101.139 321.001 102.827V104.182H319.415V105.46H321.001V114H322.509V105.46H324.708V104.182ZM330.534 114.205C332.529 114.205 333.986 113.207 334.446 111.724L332.989 111.315C332.605 112.338 331.717 112.849 330.534 112.849C328.764 112.849 327.543 111.705 327.472 109.602H334.6V108.963C334.6 105.307 332.426 104.054 330.381 104.054C327.722 104.054 325.958 106.151 325.958 109.168C325.958 112.185 327.696 114.205 330.534 114.205ZM327.472 108.298C327.575 106.771 328.655 105.409 330.381 105.409C332.017 105.409 333.066 106.636 333.066 108.298H327.472ZM339.119 114H340.602L342.749 106.457H342.903L345.051 114H346.534L349.525 104.182H347.94L345.818 111.673H345.715L343.644 104.182H342.034L339.937 111.699H339.835L337.713 104.182H336.127L339.119 114ZM355.302 114.205C357.296 114.205 358.754 113.207 359.214 111.724L357.756 111.315C357.373 112.338 356.484 112.849 355.302 112.849C353.531 112.849 352.31 111.705 352.24 109.602H359.367V108.963C359.367 105.307 357.194 104.054 355.148 104.054C352.489 104.054 350.725 106.151 350.725 109.168C350.725 112.185 352.464 114.205 355.302 114.205ZM352.24 108.298C352.342 106.771 353.423 105.409 355.148 105.409C356.785 105.409 357.833 106.636 357.833 108.298H352.24ZM361.662 114H363.17V107.787C363.17 106.457 364.219 105.486 365.651 105.486C366.053 105.486 366.469 105.562 366.571 105.588V104.054C366.398 104.041 366.002 104.028 365.778 104.028C364.602 104.028 363.58 104.693 363.222 105.665H363.119V104.182H361.662V114ZM373.626 114H375.084V112.491H375.263C375.595 113.028 376.234 114.205 378.126 114.205C380.581 114.205 382.294 112.236 382.294 109.116C382.294 106.023 380.581 104.054 378.101 104.054C376.183 104.054 375.595 105.23 375.263 105.741H375.135V100.909H373.626V114ZM375.109 109.091C375.109 106.892 376.081 105.409 377.922 105.409C379.839 105.409 380.785 107.02 380.785 109.091C380.785 111.188 379.814 112.849 377.922 112.849C376.106 112.849 375.109 111.315 375.109 109.091ZM384.601 114H386.11V104.182H384.601V114ZM385.368 102.545C385.956 102.545 386.442 102.085 386.442 101.523C386.442 100.96 385.956 100.5 385.368 100.5C384.78 100.5 384.295 100.96 384.295 101.523C384.295 102.085 384.78 102.545 385.368 102.545ZM390.381 100.909H388.873V114H390.381V100.909ZM394.653 100.909H393.144V114H394.653V100.909ZM400.305 114.23C402.018 114.23 402.913 113.31 403.22 112.67H403.297V114H404.805V107.531C404.805 104.412 402.427 104.054 401.174 104.054C399.691 104.054 398.004 104.565 397.237 106.355L398.669 106.866C399.001 106.151 399.787 105.384 401.225 105.384C402.613 105.384 403.297 106.119 403.297 107.378V107.429C403.297 108.158 402.555 108.094 400.765 108.324C398.944 108.56 396.956 108.963 396.956 111.213C396.956 113.131 398.439 114.23 400.305 114.23ZM400.535 112.875C399.333 112.875 398.464 112.338 398.464 111.29C398.464 110.139 399.512 109.781 400.689 109.628C401.328 109.551 403.041 109.372 403.297 109.065V110.446C403.297 111.673 402.325 112.875 400.535 112.875ZM407.763 114H409.22V112.491H409.399C409.732 113.028 410.371 114.205 412.263 114.205C414.718 114.205 416.431 112.236 416.431 109.116C416.431 106.023 414.718 104.054 412.237 104.054C410.32 104.054 409.732 105.23 409.399 105.741H409.271V100.909H407.763V114ZM409.246 109.091C409.246 106.892 410.218 105.409 412.058 105.409C413.976 105.409 414.922 107.02 414.922 109.091C414.922 111.188 413.95 112.849 412.058 112.849C410.243 112.849 409.246 111.315 409.246 109.091ZM420.247 100.909H418.738V114H420.247V100.909ZM427.126 114.205C429.12 114.205 430.578 113.207 431.038 111.724L429.581 111.315C429.197 112.338 428.309 112.849 427.126 112.849C425.355 112.849 424.135 111.705 424.064 109.602H431.191V108.963C431.191 105.307 429.018 104.054 426.973 104.054C424.314 104.054 422.549 106.151 422.549 109.168C422.549 112.185 424.288 114.205 427.126 114.205ZM424.064 108.298C424.167 106.771 425.247 105.409 426.973 105.409C428.609 105.409 429.657 106.636 429.657 108.298H424.064ZM43.5682 137.986C43.5682 139.827 42.1619 140.67 41.0369 140.67C39.7841 140.67 38.8892 139.75 38.8892 138.318V132.182H37.3807V138.42C37.3807 140.926 38.7102 142.128 40.5511 142.128C42.0341 142.128 43.0057 141.335 43.4659 140.338H43.5682V142H45.0767V132.182H43.5682V137.986ZM49.3482 136.094C49.3482 134.381 50.4093 133.409 51.8539 133.409C53.2537 133.409 54.1039 134.323 54.1039 135.864V142H55.6124V135.761C55.6124 133.256 54.2765 132.054 52.2885 132.054C50.8056 132.054 49.8851 132.719 49.4249 133.716H49.2971V132.182H47.8397V142H49.3482V136.094ZM58.369 142H59.8775V132.182H58.369V142ZM59.136 130.545C59.7241 130.545 60.2099 130.085 60.2099 129.523C60.2099 128.96 59.7241 128.5 59.136 128.5C58.5479 128.5 58.0621 128.96 58.0621 129.523C58.0621 130.085 58.5479 130.545 59.136 130.545ZM66.9103 132.182H64.8137V129.83H63.3052V132.182H61.8223V133.46H63.3052V139.597C63.3052 141.31 64.6859 142.128 65.9643 142.128C66.5268 142.128 66.8848 142.026 67.0893 141.949L66.7825 140.594C66.6547 140.619 66.4501 140.67 66.1177 140.67C65.4529 140.67 64.8137 140.466 64.8137 139.188V133.46H66.9103V132.182ZM75.9583 134.381C75.4853 132.987 74.4242 132.054 72.481 132.054C70.41 132.054 68.8759 133.23 68.8759 134.892C68.8759 136.247 69.6813 137.155 71.4838 137.577L73.1202 137.96C74.111 138.19 74.5776 138.663 74.5776 139.341C74.5776 140.185 73.6827 140.875 72.2765 140.875C71.0428 140.875 70.2694 140.344 70.0009 139.29L68.5691 139.648C68.9206 141.316 70.2949 142.205 72.302 142.205C74.584 142.205 76.1373 140.958 76.1373 139.264C76.1373 137.896 75.2807 137.033 73.5293 136.605L72.0719 136.247C70.9086 135.96 70.3844 135.57 70.3844 134.815C70.3844 133.972 71.2793 133.358 72.481 133.358C73.7978 133.358 74.3411 134.087 74.6032 134.764L75.9583 134.381ZM86.3597 142.23C88.0728 142.23 88.9677 141.31 89.2745 140.67H89.3512V142H90.8597V135.531C90.8597 132.412 88.4819 132.054 87.229 132.054C85.7461 132.054 84.0586 132.565 83.2915 134.355L84.7234 134.866C85.0558 134.151 85.842 133.384 87.2802 133.384C88.6673 133.384 89.3512 134.119 89.3512 135.378V135.429C89.3512 136.158 88.6097 136.094 86.82 136.324C84.9982 136.56 83.0103 136.963 83.0103 139.213C83.0103 141.131 84.4933 142.23 86.3597 142.23ZM86.5898 140.875C85.3881 140.875 84.5188 140.338 84.5188 139.29C84.5188 138.139 85.5671 137.781 86.7433 137.628C87.3825 137.551 89.0955 137.372 89.3512 137.065V138.446C89.3512 139.673 88.3796 140.875 86.5898 140.875ZM95.1216 136.094C95.1216 134.381 96.1827 133.409 97.6273 133.409C99.0272 133.409 99.8773 134.323 99.8773 135.864V142H101.386V135.761C101.386 133.256 100.05 132.054 98.062 132.054C96.579 132.054 95.6586 132.719 95.1983 133.716H95.0705V132.182H93.6131V142H95.1216V136.094ZM107.85 142.205C109.742 142.205 110.381 141.028 110.713 140.491H110.892V142H112.35V128.909H110.841V133.741H110.713C110.381 133.23 109.793 132.054 107.875 132.054C105.395 132.054 103.682 134.023 103.682 137.116C103.682 140.236 105.395 142.205 107.85 142.205ZM108.054 140.849C106.162 140.849 105.191 139.188 105.191 137.091C105.191 135.02 106.137 133.409 108.054 133.409C109.895 133.409 110.867 134.892 110.867 137.091C110.867 139.315 109.87 140.849 108.054 140.849ZM121.893 128.909H120.385V142H121.893V128.909ZM128.773 142.205C130.767 142.205 132.224 141.207 132.684 139.724L131.227 139.315C130.844 140.338 129.955 140.849 128.773 140.849C127.002 140.849 125.781 139.705 125.711 137.602H132.838V136.963C132.838 133.307 130.665 132.054 128.619 132.054C125.96 132.054 124.196 134.151 124.196 137.168C124.196 140.185 125.934 142.205 128.773 142.205ZM125.711 136.298C125.813 134.771 126.893 133.409 128.619 133.409C130.256 133.409 131.304 134.636 131.304 136.298H125.711ZM142.087 134.381C141.614 132.987 140.553 132.054 138.61 132.054C136.539 132.054 135.005 133.23 135.005 134.892C135.005 136.247 135.81 137.155 137.613 137.577L139.249 137.96C140.24 138.19 140.706 138.663 140.706 139.341C140.706 140.185 139.812 140.875 138.405 140.875C137.172 140.875 136.398 140.344 136.13 139.29L134.698 139.648C135.05 141.316 136.424 142.205 138.431 142.205C140.713 142.205 142.266 140.958 142.266 139.264C142.266 137.896 141.41 137.033 139.658 136.605L138.201 136.247C137.037 135.96 136.513 135.57 136.513 134.815C136.513 133.972 137.408 133.358 138.61 133.358C139.927 133.358 140.47 134.087 140.732 134.764L142.087 134.381ZM151.491 134.381C151.018 132.987 149.957 132.054 148.014 132.054C145.943 132.054 144.409 133.23 144.409 134.892C144.409 136.247 145.214 137.155 147.017 137.577L148.653 137.96C149.644 138.19 150.111 138.663 150.111 139.341C150.111 140.185 149.216 140.875 147.81 140.875C146.576 140.875 145.803 140.344 145.534 139.29L144.102 139.648C144.454 141.316 145.828 142.205 147.835 142.205C150.117 142.205 151.67 140.958 151.67 139.264C151.67 137.896 150.814 137.033 149.062 136.605L147.605 136.247C146.442 135.96 145.918 135.57 145.918 134.815C145.918 133.972 146.812 133.358 148.014 133.358C149.331 133.358 149.874 134.087 150.136 134.764L151.491 134.381ZM159.004 142H160.512V135.787C160.512 134.457 161.561 133.486 162.992 133.486C163.395 133.486 163.811 133.562 163.913 133.588V132.054C163.74 132.041 163.344 132.028 163.12 132.028C161.944 132.028 160.921 132.693 160.563 133.665H160.461V132.182H159.004V142ZM169.519 142.205C171.513 142.205 172.97 141.207 173.431 139.724L171.973 139.315C171.59 140.338 170.701 140.849 169.519 140.849C167.748 140.849 166.527 139.705 166.457 137.602H173.584V136.963C173.584 133.307 171.411 132.054 169.365 132.054C166.706 132.054 164.942 134.151 164.942 137.168C164.942 140.185 166.681 142.205 169.519 142.205ZM166.457 136.298C166.559 134.771 167.639 133.409 169.365 133.409C171.002 133.409 172.05 134.636 172.05 136.298H166.457ZM183.608 132.182H181.972L179.262 140.006H179.159L176.449 132.182H174.813L178.444 142H179.978L183.608 132.182ZM189.364 142.205C191.359 142.205 192.816 141.207 193.276 139.724L191.819 139.315C191.435 140.338 190.547 140.849 189.364 140.849C187.594 140.849 186.373 139.705 186.303 137.602H193.43V136.963C193.43 133.307 191.256 132.054 189.211 132.054C186.552 132.054 184.788 134.151 184.788 137.168C184.788 140.185 186.526 142.205 189.364 142.205ZM186.303 136.298C186.405 134.771 187.485 133.409 189.211 133.409C190.847 133.409 191.896 134.636 191.896 136.298H186.303ZM197.233 136.094C197.233 134.381 198.294 133.409 199.739 133.409C201.138 133.409 201.989 134.323 201.989 135.864V142H203.497V135.761C203.497 133.256 202.161 132.054 200.173 132.054C198.69 132.054 197.77 132.719 197.31 133.716H197.182V132.182H195.724V142H197.233V136.094ZM212.441 137.986C212.441 139.827 211.035 140.67 209.91 140.67C208.657 140.67 207.762 139.75 207.762 138.318V132.182H206.254V138.42C206.254 140.926 207.583 142.128 209.424 142.128C210.907 142.128 211.879 141.335 212.339 140.338H212.441V142H213.95V132.182H212.441V137.986ZM220.829 142.205C222.824 142.205 224.281 141.207 224.741 139.724L223.284 139.315C222.9 140.338 222.012 140.849 220.829 140.849C219.059 140.849 217.838 139.705 217.767 137.602H224.895V136.963C224.895 133.307 222.721 132.054 220.676 132.054C218.017 132.054 216.252 134.151 216.252 137.168C216.252 140.185 217.991 142.205 220.829 142.205ZM217.767 136.298C217.87 134.771 218.95 133.409 220.676 133.409C222.312 133.409 223.36 134.636 223.36 136.298H217.767ZM228.289 142.102C228.922 142.102 229.439 141.585 229.439 140.952C229.439 140.319 228.922 139.801 228.289 139.801C227.656 139.801 227.138 140.319 227.138 140.952C227.138 141.585 227.656 142.102 228.289 142.102Z" fill="#0A1417"/>
<path d="M47.7859 32.2727V42.8335C47.7859 44.7447 46.4464 46.125 44.3881 46.125C42.3381 46.125 40.9904 44.7447 40.9904 42.8335V32.2727H37.4538V43.1357C37.4538 46.7947 40.2145 49.2369 44.3881 49.2369C48.5455 49.2369 51.3224 46.7947 51.3224 43.1357V32.2727H47.7859ZM64.605 40.032C64.2947 37.7205 62.4324 36.2912 59.2634 36.2912C56.0535 36.2912 53.9381 37.7777 53.9463 40.1953C53.9381 42.0739 55.1224 43.2908 57.5727 43.7809L59.7453 44.2138C60.8398 44.4343 61.338 44.8345 61.3543 45.4634C61.338 46.2067 60.5294 46.7376 59.3124 46.7376C58.0709 46.7376 57.246 46.2067 57.0336 45.1857L53.6114 45.3654C53.9381 47.7667 55.98 49.245 59.3042 49.245C62.555 49.245 64.8827 47.587 64.8909 45.1122C64.8827 43.299 63.6984 42.2127 61.2645 41.7145L58.9939 41.2571C57.8259 41.0039 57.393 40.6037 57.4012 39.9993C57.393 39.2479 58.2425 38.7578 59.3206 38.7578C60.5294 38.7578 61.2481 39.4194 61.4197 40.228L64.605 40.032ZM72.7992 49.245C75.9029 49.245 77.9938 47.734 78.4838 45.4062L75.2658 45.1939C74.9146 46.1495 74.0162 46.6477 72.8564 46.6477C71.1167 46.6477 70.014 45.4961 70.014 43.6257V43.6175H78.5574V42.6619C78.5574 38.3984 75.9764 36.2912 72.6603 36.2912C68.9686 36.2912 66.5755 38.913 66.5755 42.7844C66.5755 46.7621 68.9359 49.245 72.7992 49.245ZM70.014 41.4613C70.0875 40.032 71.1738 38.8885 72.7175 38.8885C74.2285 38.8885 75.274 39.9666 75.2821 41.4613H70.014ZM80.8279 49H84.3074V41.9023C84.3074 40.3587 85.4345 39.2969 86.97 39.2969C87.4519 39.2969 88.1135 39.3786 88.4402 39.4847V36.3974C88.1298 36.3239 87.6969 36.2749 87.3457 36.2749C85.9409 36.2749 84.7892 37.0916 84.3319 38.6435H84.2012V36.4545H80.8279V49ZM99.1642 32.2727H95.6277V49H99.1642V32.2727ZM102.009 49H105.488V41.4695C105.488 40.081 106.37 39.158 107.53 39.158C108.673 39.158 109.441 39.9421 109.441 41.1754V49H112.814V41.3388C112.814 40.0401 113.558 39.158 114.824 39.158C115.934 39.158 116.767 39.8523 116.767 41.2489V49H120.239V40.5629C120.239 37.843 118.622 36.2912 116.286 36.2912C114.448 36.2912 113.019 37.2305 112.504 38.668H112.373C111.973 37.2141 110.691 36.2912 108.967 36.2912C107.277 36.2912 105.994 37.1896 105.472 38.668H105.325V36.4545H102.009V49ZM122.987 53.7045H126.467V46.9908H126.573C127.055 48.0362 128.108 49.2042 130.134 49.2042C132.992 49.2042 135.222 46.9418 135.222 42.7436C135.222 38.4311 132.894 36.2912 130.142 36.2912C128.043 36.2912 127.038 37.5408 126.573 38.5618H126.418V36.4545H122.987V53.7045ZM126.393 42.7273C126.393 40.4893 127.34 39.06 129.031 39.06C130.755 39.06 131.669 40.5547 131.669 42.7273C131.669 44.9162 130.738 46.4354 129.031 46.4354C127.357 46.4354 126.393 44.9652 126.393 42.7273ZM141.119 49.2369C142.973 49.2369 144.174 48.4283 144.786 47.2603H144.884V49H148.184V40.5384C148.184 37.549 145.652 36.2912 142.859 36.2912C139.853 36.2912 137.877 37.7287 137.395 40.0156L140.613 40.277C140.85 39.4439 141.593 38.8313 142.843 38.8313C144.027 38.8313 144.705 39.4276 144.705 40.4567V40.5057C144.705 41.3143 143.847 41.4205 141.666 41.6328C139.184 41.8615 136.954 42.6946 136.954 45.4961C136.954 47.979 138.726 49.2369 141.119 49.2369ZM142.116 46.8356C141.046 46.8356 140.278 46.3374 140.278 45.3817C140.278 44.4016 141.087 43.9197 142.312 43.7482C143.071 43.642 144.313 43.4624 144.729 43.1847V44.516C144.729 45.831 143.643 46.8356 142.116 46.8356ZM156.552 49.245C159.892 49.245 161.992 47.2848 162.155 44.4016H158.872C158.667 45.7411 157.785 46.4925 156.593 46.4925C154.967 46.4925 153.914 45.1286 153.914 42.7273C153.914 40.3587 154.976 39.0028 156.593 39.0028C157.867 39.0028 158.684 39.8441 158.872 41.0938H162.155C162.008 38.1942 159.811 36.2912 156.536 36.2912C152.729 36.2912 150.377 38.9293 150.377 42.7763C150.377 46.5906 152.689 49.245 156.552 49.245ZM171.056 36.4545H168.695V33.4489H165.216V36.4545H163.501V39.0682H165.216V45.6023C165.199 48.0607 166.874 49.2777 169.398 49.1715C170.296 49.1388 170.933 48.9592 171.284 48.8448L170.737 46.2557C170.566 46.2884 170.198 46.37 169.871 46.37C169.177 46.37 168.695 46.1087 168.695 45.1449V39.0682H171.056V36.4545Z" fill="#0A1417"/>
</svg>
