<svg width="466" height="178" viewBox="0 0 466 178" fill="none" xmlns="http://www.w3.org/2000/svg">
<rect width="466" height="178" fill="white"/>
<path d="M37.5852 88H39.1705V82.1449H44.8466V80.7386H39.1705V76.3153H45.4347V74.9091H37.5852V88ZM47.8397 88H49.3482V81.7869C49.3482 80.4574 50.3965 79.4858 51.8283 79.4858C52.231 79.4858 52.6465 79.5625 52.7488 79.5881V78.054C52.5762 78.0412 52.1799 78.0284 51.9561 78.0284C50.78 78.0284 49.7573 78.6932 49.3993 79.6648H49.2971V78.1818H47.8397V88ZM58.3546 88.2045C60.3489 88.2045 61.8063 87.2074 62.2665 85.7244L60.8091 85.3153C60.4256 86.3381 59.5371 86.8494 58.3546 86.8494C56.584 86.8494 55.3631 85.7053 55.2928 83.6023H62.4199V82.9631C62.4199 79.3068 60.2466 78.054 58.2012 78.054C55.5421 78.054 53.7779 80.1506 53.7779 83.1676C53.7779 86.1847 55.5165 88.2045 58.3546 88.2045ZM55.2928 82.2983C55.3951 80.7706 56.4753 79.4091 58.2012 79.4091C59.8375 79.4091 60.8858 80.6364 60.8858 82.2983H55.2928ZM68.8311 88.2045C70.8255 88.2045 72.2828 87.2074 72.7431 85.7244L71.2857 85.3153C70.9022 86.3381 70.0137 86.8494 68.8311 86.8494C67.0605 86.8494 65.8397 85.7053 65.7694 83.6023H72.8965V82.9631C72.8965 79.3068 70.7232 78.054 68.6777 78.054C66.0186 78.054 64.2544 80.1506 64.2544 83.1676C64.2544 86.1847 65.9931 88.2045 68.8311 88.2045ZM65.7694 82.2983C65.8716 80.7706 66.9519 79.4091 68.6777 79.4091C70.3141 79.4091 71.3624 80.6364 71.3624 82.2983H65.7694ZM84.5236 78.1818H82.427V75.8295H80.9185V78.1818H79.4355V79.4602H80.9185V85.5966C80.9185 87.3097 82.2992 88.1278 83.5776 88.1278C84.1401 88.1278 84.498 88.0256 84.7026 87.9489L84.3958 86.5938C84.2679 86.6193 84.0634 86.6705 83.731 86.6705C83.0662 86.6705 82.427 86.4659 82.427 85.1875V79.4602H84.5236V78.1818ZM87.7644 91.6818C89.1259 91.6818 90.0847 90.9595 90.6536 89.4318L94.834 78.2074L93.1848 78.1818L90.4746 86.0057H90.3723L87.6621 78.1818H86.0257L89.6564 88.0511L89.3752 88.8182C88.8255 90.3139 88.1479 90.4545 87.0485 90.1733L86.665 91.5028C86.8184 91.5795 87.253 91.6818 87.7644 91.6818ZM96.8299 91.6818H98.3384V86.4915H98.4663C98.7987 87.0284 99.4379 88.2045 101.33 88.2045C103.784 88.2045 105.498 86.2358 105.498 83.1165C105.498 80.0227 103.784 78.054 101.304 78.054C99.3867 78.054 98.7987 79.2301 98.4663 79.7415H98.2873V78.1818H96.8299V91.6818ZM98.3129 83.0909C98.3129 80.892 99.2844 79.4091 101.125 79.4091C103.043 79.4091 103.989 81.0199 103.989 83.0909C103.989 85.1875 103.017 86.8494 101.125 86.8494C99.31 86.8494 98.3129 85.3153 98.3129 83.0909ZM107.799 88H109.307V78.1818H107.799V88ZM108.566 76.5455C109.154 76.5455 109.64 76.0852 109.64 75.5227C109.64 74.9602 109.154 74.5 108.566 74.5C107.978 74.5 107.492 74.9602 107.492 75.5227C107.492 76.0852 107.978 76.5455 108.566 76.5455ZM113.579 82.0938C113.579 80.3807 114.64 79.4091 116.084 79.4091C117.484 79.4091 118.334 80.3232 118.334 81.8636V88H119.843V81.7614C119.843 79.2557 118.507 78.054 116.519 78.054C115.036 78.054 114.116 78.7188 113.655 79.7159H113.528V78.1818H112.07V88H113.579V82.0938ZM126.562 91.8864C128.915 91.8864 130.807 90.8125 130.807 88.2812V78.1818H129.349V79.7415H129.196C128.864 79.2301 128.25 78.054 126.332 78.054C123.852 78.054 122.139 80.0227 122.139 83.0398C122.139 86.108 123.929 87.8466 126.307 87.8466C128.224 87.8466 128.838 86.7216 129.17 86.1847H129.298V88.179C129.298 89.8153 128.148 90.5568 126.562 90.5568C124.779 90.5568 124.153 89.6172 123.75 89.0739L122.548 89.9176C123.162 90.9467 124.37 91.8864 126.562 91.8864ZM126.511 86.4915C124.619 86.4915 123.648 85.0597 123.648 83.0142C123.648 81.0199 124.594 79.4091 126.511 79.4091C128.352 79.4091 129.324 80.892 129.324 83.0142C129.324 85.1875 128.327 86.4915 126.511 86.4915ZM138.631 88H140.139V78.1818H138.631V88ZM139.398 76.5455C139.986 76.5455 140.472 76.0852 140.472 75.5227C140.472 74.9602 139.986 74.5 139.398 74.5C138.81 74.5 138.324 74.9602 138.324 75.5227C138.324 76.0852 138.81 76.5455 139.398 76.5455ZM149.857 80.3807C149.384 78.9872 148.323 78.054 146.379 78.054C144.308 78.054 142.774 79.2301 142.774 80.892C142.774 82.2472 143.58 83.1548 145.382 83.5767L147.019 83.9602C148.009 84.1903 148.476 84.6634 148.476 85.3409C148.476 86.1847 147.581 86.875 146.175 86.875C144.941 86.875 144.168 86.3445 143.899 85.2898L142.468 85.6477C142.819 87.3161 144.193 88.2045 146.2 88.2045C148.482 88.2045 150.036 86.9581 150.036 85.2642C150.036 83.8963 149.179 83.0334 147.428 82.6051L145.97 82.2472C144.807 81.9595 144.283 81.5696 144.283 80.8153C144.283 79.9716 145.178 79.358 146.379 79.358C147.696 79.358 148.24 80.0866 148.502 80.7642L149.857 80.3807ZM161.639 78.1818H159.542V75.8295H158.034V78.1818H156.551V79.4602H158.034V85.5966C158.034 87.3097 159.414 88.1278 160.693 88.1278C161.255 88.1278 161.613 88.0256 161.818 87.9489L161.511 86.5938C161.383 86.6193 161.179 86.6705 160.846 86.6705C160.181 86.6705 159.542 86.4659 159.542 85.1875V79.4602H161.639V78.1818ZM163.908 88H165.417V78.1818H163.908V88ZM164.675 76.5455C165.263 76.5455 165.749 76.0852 165.749 75.5227C165.749 74.9602 165.263 74.5 164.675 74.5C164.087 74.5 163.601 74.9602 163.601 75.5227C163.601 76.0852 164.087 76.5455 164.675 76.5455ZM168.18 88H169.688V81.8636C169.688 80.4254 170.736 79.4091 171.912 79.4091C173.057 79.4091 173.856 80.157 173.856 81.2756V88H175.39V81.608C175.39 80.3423 176.182 79.4091 177.563 79.4091C178.637 79.4091 179.557 79.978 179.557 81.429V88H181.066V81.429C181.066 79.1214 179.826 78.054 178.074 78.054C176.668 78.054 175.639 78.6996 175.134 79.7159H175.032C174.546 78.6676 173.689 78.054 172.398 78.054C171.12 78.054 170.174 78.6676 169.765 79.7159H169.637V78.1818H168.18V88ZM187.941 88.2045C189.935 88.2045 191.392 87.2074 191.852 85.7244L190.395 85.3153C190.012 86.3381 189.123 86.8494 187.941 86.8494C186.17 86.8494 184.949 85.7053 184.879 83.6023H192.006V82.9631C192.006 79.3068 189.833 78.054 187.787 78.054C185.128 78.054 183.364 80.1506 183.364 83.1676C183.364 86.1847 185.102 88.2045 187.941 88.2045ZM184.879 82.2983C184.981 80.7706 186.061 79.4091 187.787 79.4091C189.423 79.4091 190.472 80.6364 190.472 82.2983H184.879ZM203.352 88.2045C205.525 88.2045 206.957 86.875 207.213 85.1364H205.704C205.423 86.2102 204.528 86.8494 203.352 86.8494C201.562 86.8494 200.411 85.3665 200.411 83.0909C200.411 80.8665 201.588 79.4091 203.352 79.4091C204.681 79.4091 205.474 80.2273 205.704 81.1222H207.213C206.957 79.2812 205.397 78.054 203.326 78.054C200.667 78.054 198.903 80.1506 198.903 83.142C198.903 86.0824 200.59 88.2045 203.352 88.2045ZM213.406 88.2045C216.066 88.2045 217.855 86.1847 217.855 83.142C217.855 80.0739 216.066 78.054 213.406 78.054C210.747 78.054 208.958 80.0739 208.958 83.142C208.958 86.1847 210.747 88.2045 213.406 88.2045ZM213.406 86.8494C211.387 86.8494 210.466 85.1108 210.466 83.142C210.466 81.1733 211.387 79.4091 213.406 79.4091C215.426 79.4091 216.347 81.1733 216.347 83.142C216.347 85.1108 215.426 86.8494 213.406 86.8494ZM221.667 82.0938C221.667 80.3807 222.728 79.4091 224.172 79.4091C225.572 79.4091 226.422 80.3232 226.422 81.8636V88H227.931V81.7614C227.931 79.2557 226.595 78.054 224.607 78.054C223.124 78.054 222.203 78.7188 221.743 79.7159H221.615V78.1818H220.158V88H221.667V82.0938ZM237.642 80.3807C237.169 78.9872 236.108 78.054 234.165 78.054C232.094 78.054 230.559 79.2301 230.559 80.892C230.559 82.2472 231.365 83.1548 233.167 83.5767L234.804 83.9602C235.795 84.1903 236.261 84.6634 236.261 85.3409C236.261 86.1847 235.366 86.875 233.96 86.875C232.726 86.875 231.953 86.3445 231.684 85.2898L230.253 85.6477C230.604 87.3161 231.979 88.2045 233.986 88.2045C236.268 88.2045 237.821 86.9581 237.821 85.2642C237.821 83.8963 236.964 83.0334 235.213 82.6051L233.756 82.2472C232.592 81.9595 232.068 81.5696 232.068 80.8153C232.068 79.9716 232.963 79.358 234.165 79.358C235.481 79.358 236.025 80.0866 236.287 80.7642L237.642 80.3807ZM246.279 83.9858C246.279 85.8267 244.873 86.6705 243.748 86.6705C242.495 86.6705 241.6 85.75 241.6 84.3182V78.1818H240.092V84.4205C240.092 86.9261 241.421 88.1278 243.262 88.1278C244.745 88.1278 245.717 87.3352 246.177 86.3381H246.279V88H247.788V78.1818H246.279V83.9858ZM250.551 88H252.059V81.8636C252.059 80.4254 253.107 79.4091 254.284 79.4091C255.428 79.4091 256.227 80.157 256.227 81.2756V88H257.761V81.608C257.761 80.3423 258.553 79.4091 259.934 79.4091C261.008 79.4091 261.928 79.978 261.928 81.429V88H263.437V81.429C263.437 79.1214 262.197 78.054 260.445 78.054C259.039 78.054 258.01 78.6996 257.505 79.7159H257.403C256.917 78.6676 256.061 78.054 254.769 78.054C253.491 78.054 252.545 78.6676 252.136 79.7159H252.008V78.1818H250.551V88ZM266.195 88H267.704V78.1818H266.195V88ZM266.962 76.5455C267.55 76.5455 268.036 76.0852 268.036 75.5227C268.036 74.9602 267.55 74.5 266.962 74.5C266.374 74.5 265.888 74.9602 265.888 75.5227C265.888 76.0852 266.374 76.5455 266.962 76.5455ZM271.975 82.0938C271.975 80.3807 273.036 79.4091 274.481 79.4091C275.881 79.4091 276.731 80.3232 276.731 81.8636V88H278.239V81.7614C278.239 79.2557 276.903 78.054 274.915 78.054C273.433 78.054 272.512 78.7188 272.052 79.7159H271.924V78.1818H270.467V88H271.975V82.0938ZM284.959 91.8864C287.311 91.8864 289.203 90.8125 289.203 88.2812V78.1818H287.746V79.7415H287.593C287.26 79.2301 286.646 78.054 284.729 78.054C282.249 78.054 280.536 80.0227 280.536 83.0398C280.536 86.108 282.325 87.8466 284.703 87.8466C286.621 87.8466 287.235 86.7216 287.567 86.1847H287.695V88.179C287.695 89.8153 286.544 90.5568 284.959 90.5568C283.176 90.5568 282.549 89.6172 282.146 89.0739L280.945 89.9176C281.558 90.9467 282.767 91.8864 284.959 91.8864ZM284.908 86.4915C283.016 86.4915 282.044 85.0597 282.044 83.0142C282.044 81.0199 282.99 79.4091 284.908 79.4091C286.749 79.4091 287.72 80.892 287.72 83.0142C287.72 85.1875 286.723 86.4915 284.908 86.4915ZM293.064 88.1023C293.697 88.1023 294.215 87.5845 294.215 86.9517C294.215 86.3189 293.697 85.8011 293.064 85.8011C292.431 85.8011 291.914 86.3189 291.914 86.9517C291.914 87.5845 292.431 88.1023 293.064 88.1023ZM303.774 74.9091H302.189V88H303.774V74.9091ZM311.018 78.1818H308.921V75.8295H307.413V78.1818H305.93V79.4602H307.413V85.5966C307.413 87.3097 308.793 88.1278 310.072 88.1278C310.634 88.1278 310.992 88.0256 311.197 87.9489L310.89 86.5938C310.762 86.6193 310.558 86.6705 310.225 86.6705C309.56 86.6705 308.921 86.4659 308.921 85.1875V79.4602H311.018V78.1818ZM319.858 74.9091H318.349V88H319.858V74.9091ZM326.737 88.2045C328.732 88.2045 330.189 87.2074 330.649 85.7244L329.192 85.3153C328.808 86.3381 327.92 86.8494 326.737 86.8494C324.967 86.8494 323.746 85.7053 323.676 83.6023H330.803V82.9631C330.803 79.3068 328.629 78.054 326.584 78.054C323.925 78.054 322.161 80.1506 322.161 83.1676C322.161 86.1847 323.899 88.2045 326.737 88.2045ZM323.676 82.2983C323.778 80.7706 324.858 79.4091 326.584 79.4091C328.22 79.4091 329.269 80.6364 329.269 82.2983H323.676ZM335.987 88.2301C337.7 88.2301 338.595 87.3097 338.901 86.6705H338.978V88H340.487V81.5312C340.487 78.4119 338.109 78.054 336.856 78.054C335.373 78.054 333.686 78.5653 332.919 80.3551L334.35 80.8665C334.683 80.1506 335.469 79.3835 336.907 79.3835C338.294 79.3835 338.978 80.1186 338.978 81.3778V81.429C338.978 82.1577 338.237 82.0938 336.447 82.3239C334.625 82.5604 332.637 82.9631 332.637 85.2131C332.637 87.1307 334.12 88.2301 335.987 88.2301ZM336.217 86.875C335.015 86.875 334.146 86.3381 334.146 85.2898C334.146 84.1392 335.194 83.7812 336.37 83.6278C337.009 83.5511 338.722 83.3722 338.978 83.0653V84.446C338.978 85.6733 338.007 86.875 336.217 86.875ZM350.917 78.1818H349.281L346.57 86.0057H346.468L343.758 78.1818H342.121L345.752 88H347.286L350.917 78.1818ZM356.673 88.2045C358.667 88.2045 360.125 87.2074 360.585 85.7244L359.127 85.3153C358.744 86.3381 357.855 86.8494 356.673 86.8494C354.902 86.8494 353.681 85.7053 353.611 83.6023H360.738V82.9631C360.738 79.3068 358.565 78.054 356.52 78.054C353.86 78.054 352.096 80.1506 352.096 83.1676C352.096 86.1847 353.835 88.2045 356.673 88.2045ZM353.611 82.2983C353.713 80.7706 354.794 79.4091 356.52 79.4091C358.156 79.4091 359.204 80.6364 359.204 82.2983H353.611ZM369.988 80.3807C369.515 78.9872 368.453 78.054 366.51 78.054C364.439 78.054 362.905 79.2301 362.905 80.892C362.905 82.2472 363.711 83.1548 365.513 83.5767L367.15 83.9602C368.14 84.1903 368.607 84.6634 368.607 85.3409C368.607 86.1847 367.712 86.875 366.306 86.875C365.072 86.875 364.299 86.3445 364.03 85.2898L362.598 85.6477C362.95 87.3161 364.324 88.2045 366.331 88.2045C368.613 88.2045 370.167 86.9581 370.167 85.2642C370.167 83.8963 369.31 83.0334 367.559 82.6051L366.101 82.2472C364.938 81.9595 364.414 81.5696 364.414 80.8153C364.414 79.9716 365.309 79.358 366.51 79.358C367.827 79.358 368.37 80.0866 368.632 80.7642L369.988 80.3807ZM377.5 88H379.008V81.7869C379.008 80.4574 380.057 79.4858 381.488 79.4858C381.891 79.4858 382.307 79.5625 382.409 79.5881V78.054C382.236 78.0412 381.84 78.0284 381.616 78.0284C380.44 78.0284 379.417 78.6932 379.059 79.6648H378.957V78.1818H377.5V88ZM387.887 88.2045C390.546 88.2045 392.336 86.1847 392.336 83.142C392.336 80.0739 390.546 78.054 387.887 78.054C385.228 78.054 383.438 80.0739 383.438 83.142C383.438 86.1847 385.228 88.2045 387.887 88.2045ZM387.887 86.8494C385.867 86.8494 384.947 85.1108 384.947 83.142C384.947 81.1733 385.867 79.4091 387.887 79.4091C389.907 79.4091 390.827 81.1733 390.827 83.142C390.827 85.1108 389.907 86.8494 387.887 86.8494ZM398.627 88.2045C401.286 88.2045 403.076 86.1847 403.076 83.142C403.076 80.0739 401.286 78.054 398.627 78.054C395.968 78.054 394.178 80.0739 394.178 83.142C394.178 86.1847 395.968 88.2045 398.627 88.2045ZM398.627 86.8494C396.607 86.8494 395.687 85.1108 395.687 83.142C395.687 81.1733 396.607 79.4091 398.627 79.4091C400.647 79.4091 401.567 81.1733 401.567 83.142C401.567 85.1108 400.647 86.8494 398.627 86.8494ZM405.379 88H406.887V81.8636C406.887 80.4254 407.936 79.4091 409.112 79.4091C410.256 79.4091 411.055 80.157 411.055 81.2756V88H412.589V81.608C412.589 80.3423 413.382 79.4091 414.762 79.4091C415.836 79.4091 416.757 79.978 416.757 81.429V88H418.265V81.429C418.265 79.1214 417.025 78.054 415.274 78.054C413.867 78.054 412.838 78.6996 412.333 79.7159H412.231C411.745 78.6676 410.889 78.054 409.597 78.054C408.319 78.054 407.373 78.6676 406.964 79.7159H406.836V78.1818H405.379V88ZM41.7528 106.182H39.554V105.185C39.554 104.213 39.9631 103.702 40.9602 103.702C41.3949 103.702 41.6506 103.804 41.804 103.855L42.2386 102.551C42.0085 102.449 41.5483 102.295 40.8068 102.295C39.4006 102.295 38.0455 103.139 38.0455 104.827V106.182H36.4602V107.46H38.0455V116H39.554V107.46H41.7528V106.182ZM47.4513 116.205C50.1104 116.205 51.9002 114.185 51.9002 111.142C51.9002 108.074 50.1104 106.054 47.4513 106.054C44.7923 106.054 43.0025 108.074 43.0025 111.142C43.0025 114.185 44.7923 116.205 47.4513 116.205ZM47.4513 114.849C45.4315 114.849 44.511 113.111 44.511 111.142C44.511 109.173 45.4315 107.409 47.4513 107.409C49.4712 107.409 50.3917 109.173 50.3917 111.142C50.3917 113.111 49.4712 114.849 47.4513 114.849ZM54.2029 116H55.7115V109.787C55.7115 108.457 56.7598 107.486 58.1916 107.486C58.5943 107.486 59.0098 107.562 59.112 107.588V106.054C58.9395 106.041 58.5431 106.028 58.3194 106.028C57.1433 106.028 56.1206 106.693 55.7626 107.665H55.6603V106.182H54.2029V116ZM70.0792 116.205C72.0735 116.205 73.5309 115.207 73.9911 113.724L72.5337 113.315C72.1502 114.338 71.2617 114.849 70.0792 114.849C68.3086 114.849 67.0877 113.705 67.0174 111.602H74.1445V110.963C74.1445 107.307 71.9712 106.054 69.9258 106.054C67.2667 106.054 65.5025 108.151 65.5025 111.168C65.5025 114.185 67.2411 116.205 70.0792 116.205ZM67.0174 110.298C67.1197 108.771 68.1999 107.409 69.9258 107.409C71.5621 107.409 72.6104 108.636 72.6104 110.298H67.0174ZM76.4393 116H77.9478V109.787C77.9478 108.457 78.9961 107.486 80.4279 107.486C80.8306 107.486 81.2461 107.562 81.3484 107.588V106.054C81.1758 106.041 80.7795 106.028 80.5558 106.028C79.3796 106.028 78.3569 106.693 77.9989 107.665H77.8967V106.182H76.4393V116ZM83.1365 116H84.6451V109.787C84.6451 108.457 85.6934 107.486 87.1252 107.486C87.5279 107.486 87.9434 107.562 88.0456 107.588V106.054C87.873 106.041 87.4767 106.028 87.253 106.028C86.0769 106.028 85.0542 106.693 84.6962 107.665H84.5939V106.182H83.1365V116ZM93.5236 116.205C96.1827 116.205 97.9725 114.185 97.9725 111.142C97.9725 108.074 96.1827 106.054 93.5236 106.054C90.8645 106.054 89.0748 108.074 89.0748 111.142C89.0748 114.185 90.8645 116.205 93.5236 116.205ZM93.5236 114.849C91.5037 114.849 90.5833 113.111 90.5833 111.142C90.5833 109.173 91.5037 107.409 93.5236 107.409C95.5435 107.409 96.464 109.173 96.464 111.142C96.464 113.111 95.5435 114.849 93.5236 114.849ZM100.275 116H101.784V109.787C101.784 108.457 102.832 107.486 104.264 107.486C104.667 107.486 105.082 107.562 105.184 107.588V106.054C105.012 106.041 104.615 106.028 104.392 106.028C103.216 106.028 102.193 106.693 101.835 107.665H101.733V106.182H100.275V116ZM113.927 108.381C113.454 106.987 112.393 106.054 110.45 106.054C108.379 106.054 106.845 107.23 106.845 108.892C106.845 110.247 107.65 111.155 109.453 111.577L111.089 111.96C112.08 112.19 112.546 112.663 112.546 113.341C112.546 114.185 111.651 114.875 110.245 114.875C109.012 114.875 108.238 114.344 107.97 113.29L106.538 113.648C106.889 115.316 108.264 116.205 110.271 116.205C112.553 116.205 114.106 114.958 114.106 113.264C114.106 111.896 113.249 111.033 111.498 110.605L110.041 110.247C108.877 109.96 108.353 109.57 108.353 108.815C108.353 107.972 109.248 107.358 110.45 107.358C111.767 107.358 112.31 108.087 112.572 108.764L113.927 108.381ZM122.948 102.909H121.439V116H122.948V102.909ZM125.711 116H127.219V106.182H125.711V116ZM126.478 104.545C127.066 104.545 127.552 104.085 127.552 103.523C127.552 102.96 127.066 102.5 126.478 102.5C125.89 102.5 125.404 102.96 125.404 103.523C125.404 104.085 125.89 104.545 126.478 104.545ZM129.982 116H131.491V112.325L132.545 111.347L136.221 116H138.138L133.683 110.375L137.832 106.182H135.965L131.67 110.554H131.491V102.909H129.982V116ZM143.485 116.205C145.48 116.205 146.937 115.207 147.397 113.724L145.94 113.315C145.556 114.338 144.668 114.849 143.485 114.849C141.715 114.849 140.494 113.705 140.424 111.602H147.551V110.963C147.551 107.307 145.377 106.054 143.332 106.054C140.673 106.054 138.909 108.151 138.909 111.168C138.909 114.185 140.647 116.205 143.485 116.205ZM140.424 110.298C140.526 108.771 141.606 107.409 143.332 107.409C144.968 107.409 146.017 108.636 146.017 110.298H140.424ZM156.417 110.094C156.417 108.381 157.478 107.409 158.922 107.409C160.322 107.409 161.172 108.323 161.172 109.864V116H162.681V109.761C162.681 107.256 161.345 106.054 159.357 106.054C157.874 106.054 156.953 106.719 156.493 107.716H156.365V106.182H154.908V116H156.417V110.094ZM168.327 116.23C170.04 116.23 170.934 115.31 171.241 114.67H171.318V116H172.827V109.531C172.827 106.412 170.449 106.054 169.196 106.054C167.713 106.054 166.025 106.565 165.258 108.355L166.69 108.866C167.023 108.151 167.809 107.384 169.247 107.384C170.634 107.384 171.318 108.119 171.318 109.378V109.429C171.318 110.158 170.577 110.094 168.787 110.324C166.965 110.56 164.977 110.963 164.977 113.213C164.977 115.131 166.46 116.23 168.327 116.23ZM168.557 114.875C167.355 114.875 166.486 114.338 166.486 113.29C166.486 112.139 167.534 111.781 168.71 111.628C169.349 111.551 171.062 111.372 171.318 111.065V112.446C171.318 113.673 170.346 114.875 168.557 114.875ZM175.58 116H177.088V109.864C177.088 108.425 178.137 107.409 179.313 107.409C180.457 107.409 181.256 108.157 181.256 109.276V116H182.79V109.608C182.79 108.342 183.583 107.409 184.963 107.409C186.037 107.409 186.958 107.978 186.958 109.429V116H188.466V109.429C188.466 107.121 187.226 106.054 185.475 106.054C184.069 106.054 183.039 106.7 182.534 107.716H182.432C181.946 106.668 181.09 106.054 179.799 106.054C178.52 106.054 177.574 106.668 177.165 107.716H177.037V106.182H175.58V116ZM195.341 116.205C197.335 116.205 198.793 115.207 199.253 113.724L197.795 113.315C197.412 114.338 196.523 114.849 195.341 114.849C193.57 114.849 192.349 113.705 192.279 111.602H199.406V110.963C199.406 107.307 197.233 106.054 195.188 106.054C192.528 106.054 190.764 108.151 190.764 111.168C190.764 114.185 192.503 116.205 195.341 116.205ZM192.279 110.298C192.381 108.771 193.462 107.409 195.188 107.409C196.824 107.409 197.872 108.636 197.872 110.298H192.279ZM206.763 116H208.272V109.864C208.272 108.425 209.32 107.409 210.496 107.409C211.641 107.409 212.44 108.157 212.44 109.276V116H213.974V109.608C213.974 108.342 214.766 107.409 216.147 107.409C217.221 107.409 218.141 107.978 218.141 109.429V116H219.65V109.429C219.65 107.121 218.41 106.054 216.658 106.054C215.252 106.054 214.223 106.7 213.718 107.716H213.616C213.13 106.668 212.273 106.054 210.982 106.054C209.704 106.054 208.758 106.668 208.349 107.716H208.221V106.182H206.763V116ZM222.408 116H223.917V106.182H222.408V116ZM223.175 104.545C223.763 104.545 224.249 104.085 224.249 103.523C224.249 102.96 223.763 102.5 223.175 102.5C222.587 102.5 222.101 102.96 222.101 103.523C222.101 104.085 222.587 104.545 223.175 104.545ZM233.634 108.381C233.161 106.987 232.1 106.054 230.157 106.054C228.086 106.054 226.552 107.23 226.552 108.892C226.552 110.247 227.357 111.155 229.16 111.577L230.796 111.96C231.787 112.19 232.253 112.663 232.253 113.341C232.253 114.185 231.358 114.875 229.952 114.875C228.719 114.875 227.945 114.344 227.677 113.29L226.245 113.648C226.596 115.316 227.971 116.205 229.978 116.205C232.26 116.205 233.813 114.958 233.813 113.264C233.813 111.896 232.956 111.033 231.205 110.605L229.748 110.247C228.584 109.96 228.06 109.57 228.06 108.815C228.06 107.972 228.955 107.358 230.157 107.358C231.474 107.358 232.017 108.087 232.279 108.764L233.634 108.381ZM243.038 108.381C242.565 106.987 241.504 106.054 239.561 106.054C237.49 106.054 235.956 107.23 235.956 108.892C235.956 110.247 236.761 111.155 238.564 111.577L240.2 111.96C241.191 112.19 241.658 112.663 241.658 113.341C241.658 114.185 240.763 114.875 239.357 114.875C238.123 114.875 237.349 114.344 237.081 113.29L235.649 113.648C236.001 115.316 237.375 116.205 239.382 116.205C241.664 116.205 243.217 114.958 243.217 113.264C243.217 111.896 242.361 111.033 240.609 110.605L239.152 110.247C237.989 109.96 237.464 109.57 237.464 108.815C237.464 107.972 238.359 107.358 239.561 107.358C240.878 107.358 241.421 108.087 241.683 108.764L243.038 108.381ZM245.488 119.682H246.997V114.491H247.124C247.457 115.028 248.096 116.205 249.988 116.205C252.443 116.205 254.156 114.236 254.156 111.116C254.156 108.023 252.443 106.054 249.963 106.054C248.045 106.054 247.457 107.23 247.124 107.741H246.945V106.182H245.488V119.682ZM246.971 111.091C246.971 108.892 247.943 107.409 249.784 107.409C251.701 107.409 252.647 109.02 252.647 111.091C252.647 113.188 251.676 114.849 249.784 114.849C247.968 114.849 246.971 113.315 246.971 111.091ZM260.573 116.205C262.568 116.205 264.025 115.207 264.485 113.724L263.028 113.315C262.644 114.338 261.756 114.849 260.573 114.849C258.803 114.849 257.582 113.705 257.512 111.602H264.639V110.963C264.639 107.307 262.465 106.054 260.42 106.054C257.761 106.054 255.997 108.151 255.997 111.168C255.997 114.185 257.735 116.205 260.573 116.205ZM257.512 110.298C257.614 108.771 258.694 107.409 260.42 107.409C262.056 107.409 263.105 108.636 263.105 110.298H257.512ZM268.442 102.909H266.933V116H268.442V102.909ZM272.713 102.909H271.205V116H272.713V102.909ZM275.476 116H276.985V106.182H275.476V116ZM276.243 104.545C276.831 104.545 277.317 104.085 277.317 103.523C277.317 102.96 276.831 102.5 276.243 102.5C275.655 102.5 275.17 102.96 275.17 103.523C275.17 104.085 275.655 104.545 276.243 104.545ZM281.256 110.094C281.256 108.381 282.317 107.409 283.762 107.409C285.162 107.409 286.012 108.323 286.012 109.864V116H287.521V109.761C287.521 107.256 286.185 106.054 284.197 106.054C282.714 106.054 281.793 106.719 281.333 107.716H281.205V106.182H279.748V116H281.256V110.094ZM294.24 119.886C296.593 119.886 298.485 118.812 298.485 116.281V106.182H297.027V107.741H296.874C296.541 107.23 295.928 106.054 294.01 106.054C291.53 106.054 289.817 108.023 289.817 111.04C289.817 114.108 291.607 115.847 293.985 115.847C295.902 115.847 296.516 114.722 296.848 114.185H296.976V116.179C296.976 117.815 295.825 118.557 294.24 118.557C292.457 118.557 291.83 117.617 291.428 117.074L290.226 117.918C290.84 118.947 292.048 119.886 294.24 119.886ZM294.189 114.491C292.297 114.491 291.325 113.06 291.325 111.014C291.325 109.02 292.271 107.409 294.189 107.409C296.03 107.409 297.002 108.892 297.002 111.014C297.002 113.188 296.004 114.491 294.189 114.491ZM308.2 108.381C307.727 106.987 306.666 106.054 304.723 106.054C302.652 106.054 301.118 107.23 301.118 108.892C301.118 110.247 301.923 111.155 303.726 111.577L305.362 111.96C306.353 112.19 306.82 112.663 306.82 113.341C306.82 114.185 305.925 114.875 304.519 114.875C303.285 114.875 302.512 114.344 302.243 113.29L300.811 113.648C301.163 115.316 302.537 116.205 304.544 116.205C306.826 116.205 308.379 114.958 308.379 113.264C308.379 111.896 307.523 111.033 305.771 110.605L304.314 110.247C303.151 109.96 302.627 109.57 302.627 108.815C302.627 107.972 303.521 107.358 304.723 107.358C306.04 107.358 306.583 108.087 306.845 108.764L308.2 108.381ZM318.602 116.23C320.315 116.23 321.21 115.31 321.517 114.67H321.593V116H323.102V109.531C323.102 106.412 320.724 106.054 319.471 106.054C317.988 106.054 316.301 106.565 315.534 108.355L316.966 108.866C317.298 108.151 318.084 107.384 319.522 107.384C320.909 107.384 321.593 108.119 321.593 109.378V109.429C321.593 110.158 320.852 110.094 319.062 110.324C317.24 110.56 315.252 110.963 315.252 113.213C315.252 115.131 316.735 116.23 318.602 116.23ZM318.832 114.875C317.63 114.875 316.761 114.338 316.761 113.29C316.761 112.139 317.809 111.781 318.985 111.628C319.625 111.551 321.338 111.372 321.593 111.065V112.446C321.593 113.673 320.622 114.875 318.832 114.875ZM327.364 110.094C327.364 108.381 328.425 107.409 329.869 107.409C331.269 107.409 332.119 108.323 332.119 109.864V116H333.628V109.761C333.628 107.256 332.292 106.054 330.304 106.054C328.821 106.054 327.901 106.719 327.441 107.716H327.313V106.182H325.855V116H327.364V110.094ZM340.092 116.205C341.984 116.205 342.623 115.028 342.956 114.491H343.135V116H344.592V102.909H343.083V107.741H342.956C342.623 107.23 342.035 106.054 340.118 106.054C337.637 106.054 335.924 108.023 335.924 111.116C335.924 114.236 337.637 116.205 340.092 116.205ZM340.297 114.849C338.404 114.849 337.433 113.188 337.433 111.091C337.433 109.02 338.379 107.409 340.297 107.409C342.137 107.409 343.109 108.892 343.109 111.091C343.109 113.315 342.112 114.849 340.297 114.849ZM356.334 116.205C358.226 116.205 358.865 115.028 359.198 114.491H359.377V116H360.834V102.909H359.326V107.741H359.198C358.865 107.23 358.277 106.054 356.36 106.054C353.88 106.054 352.167 108.023 352.167 111.116C352.167 114.236 353.88 116.205 356.334 116.205ZM356.539 114.849C354.647 114.849 353.675 113.188 353.675 111.091C353.675 109.02 354.621 107.409 356.539 107.409C358.38 107.409 359.351 108.892 359.351 111.091C359.351 113.315 358.354 114.849 356.539 114.849ZM367.795 116.205C370.454 116.205 372.244 114.185 372.244 111.142C372.244 108.074 370.454 106.054 367.795 106.054C365.136 106.054 363.346 108.074 363.346 111.142C363.346 114.185 365.136 116.205 367.795 116.205ZM367.795 114.849C365.775 114.849 364.855 113.111 364.855 111.142C364.855 109.173 365.775 107.409 367.795 107.409C369.815 107.409 370.735 109.173 370.735 111.142C370.735 113.111 369.815 114.849 367.795 114.849ZM380.734 111.986C380.734 113.827 379.328 114.67 378.203 114.67C376.95 114.67 376.055 113.75 376.055 112.318V106.182H374.547V112.42C374.547 114.926 375.876 116.128 377.717 116.128C379.2 116.128 380.172 115.335 380.632 114.338H380.734V116H382.243V106.182H380.734V111.986ZM385.21 116H386.668V114.491H386.847C387.179 115.028 387.818 116.205 389.71 116.205C392.165 116.205 393.878 114.236 393.878 111.116C393.878 108.023 392.165 106.054 389.685 106.054C387.767 106.054 387.179 107.23 386.847 107.741H386.719V102.909H385.21V116ZM386.693 111.091C386.693 108.892 387.665 107.409 389.506 107.409C391.423 107.409 392.369 109.02 392.369 111.091C392.369 113.188 391.398 114.849 389.506 114.849C387.69 114.849 386.693 113.315 386.693 111.091ZM397.694 102.909H396.185V116H397.694V102.909ZM404.573 116.205C406.568 116.205 408.025 115.207 408.485 113.724L407.028 113.315C406.644 114.338 405.756 114.849 404.573 114.849C402.803 114.849 401.582 113.705 401.512 111.602H408.639V110.963C408.639 107.307 406.465 106.054 404.42 106.054C401.761 106.054 399.997 108.151 399.997 111.168C399.997 114.185 401.735 116.205 404.573 116.205ZM401.512 110.298C401.614 108.771 402.694 107.409 404.42 107.409C406.056 107.409 407.105 108.636 407.105 110.298H401.512ZM37.5852 144H39.0426V142.491H39.2216C39.554 143.028 40.1932 144.205 42.0852 144.205C44.5398 144.205 46.2528 142.236 46.2528 139.116C46.2528 136.023 44.5398 134.054 42.0597 134.054C40.142 134.054 39.554 135.23 39.2216 135.741H39.0938V130.909H37.5852V144ZM39.0682 139.091C39.0682 136.892 40.0398 135.409 41.8807 135.409C43.7983 135.409 44.7443 137.02 44.7443 139.091C44.7443 141.188 43.7727 142.849 41.8807 142.849C40.0653 142.849 39.0682 141.315 39.0682 139.091ZM52.549 144.205C55.2081 144.205 56.9979 142.185 56.9979 139.142C56.9979 136.074 55.2081 134.054 52.549 134.054C49.8899 134.054 48.1001 136.074 48.1001 139.142C48.1001 142.185 49.8899 144.205 52.549 144.205ZM52.549 142.849C50.5291 142.849 49.6087 141.111 49.6087 139.142C49.6087 137.173 50.5291 135.409 52.549 135.409C54.5689 135.409 55.4893 137.173 55.4893 139.142C55.4893 141.111 54.5689 142.849 52.549 142.849ZM63.2892 144.205C65.9483 144.205 67.7381 142.185 67.7381 139.142C67.7381 136.074 65.9483 134.054 63.2892 134.054C60.6301 134.054 58.8404 136.074 58.8404 139.142C58.8404 142.185 60.6301 144.205 63.2892 144.205ZM63.2892 142.849C61.2694 142.849 60.3489 141.111 60.3489 139.142C60.3489 137.173 61.2694 135.409 63.2892 135.409C65.3091 135.409 66.2296 137.173 66.2296 139.142C66.2296 141.111 65.3091 142.849 63.2892 142.849ZM70.0408 144H71.5494V140.325L72.604 139.347L76.2795 144H78.1971L73.7418 138.375L77.8903 134.182H76.0238L71.7283 138.554H71.5494V130.909H70.0408V144ZM79.8319 144H81.3404V134.182H79.8319V144ZM80.5989 132.545C81.187 132.545 81.6728 132.085 81.6728 131.523C81.6728 130.96 81.187 130.5 80.5989 130.5C80.0108 130.5 79.525 130.96 79.525 131.523C79.525 132.085 80.0108 132.545 80.5989 132.545ZM85.6119 138.094C85.6119 136.381 86.6729 135.409 88.1175 135.409C89.5174 135.409 90.3675 136.323 90.3675 137.864V144H91.8761V137.761C91.8761 135.256 90.5401 134.054 88.5522 134.054C87.0692 134.054 86.1488 134.719 85.6886 135.716H85.5607V134.182H84.1033V144H85.6119V138.094ZM98.5957 147.886C100.948 147.886 102.84 146.812 102.84 144.281V134.182H101.383V135.741H101.229C100.897 135.23 100.283 134.054 98.3656 134.054C95.8855 134.054 94.1724 136.023 94.1724 139.04C94.1724 142.108 95.9622 143.847 98.34 143.847C100.258 143.847 100.871 142.722 101.204 142.185H101.331V144.179C101.331 145.815 100.181 146.557 98.5957 146.557C96.8123 146.557 96.1859 145.617 95.7832 145.074L94.5815 145.918C95.1951 146.947 96.4032 147.886 98.5957 147.886ZM98.5446 142.491C96.6525 142.491 95.6809 141.06 95.6809 139.014C95.6809 137.02 96.627 135.409 98.5446 135.409C100.385 135.409 101.357 136.892 101.357 139.014C101.357 141.188 100.36 142.491 98.5446 142.491ZM117.618 136.381C117.145 134.987 116.084 134.054 114.141 134.054C112.07 134.054 110.536 135.23 110.536 136.892C110.536 138.247 111.341 139.155 113.144 139.577L114.78 139.96C115.771 140.19 116.238 140.663 116.238 141.341C116.238 142.185 115.343 142.875 113.937 142.875C112.703 142.875 111.93 142.344 111.661 141.29L110.229 141.648C110.581 143.316 111.955 144.205 113.962 144.205C116.244 144.205 117.797 142.958 117.797 141.264C117.797 139.896 116.941 139.033 115.189 138.605L113.732 138.247C112.569 137.96 112.045 137.57 112.045 136.815C112.045 135.972 112.939 135.358 114.141 135.358C115.458 135.358 116.001 136.087 116.263 136.764L117.618 136.381ZM124.185 144.205C126.179 144.205 127.636 143.207 128.097 141.724L126.639 141.315C126.256 142.338 125.367 142.849 124.185 142.849C122.414 142.849 121.193 141.705 121.123 139.602H128.25V138.963C128.25 135.307 126.077 134.054 124.031 134.054C121.372 134.054 119.608 136.151 119.608 139.168C119.608 142.185 121.347 144.205 124.185 144.205ZM121.123 138.298C121.225 136.771 122.305 135.409 124.031 135.409C125.668 135.409 126.716 136.636 126.716 138.298H121.123ZM137.499 136.381C137.026 134.987 135.965 134.054 134.022 134.054C131.951 134.054 130.417 135.23 130.417 136.892C130.417 138.247 131.222 139.155 133.025 139.577L134.661 139.96C135.652 140.19 136.119 140.663 136.119 141.341C136.119 142.185 135.224 142.875 133.817 142.875C132.584 142.875 131.81 142.344 131.542 141.29L130.11 141.648C130.462 143.316 131.836 144.205 133.843 144.205C136.125 144.205 137.678 142.958 137.678 141.264C137.678 139.896 136.822 139.033 135.07 138.605L133.613 138.247C132.45 137.96 131.925 137.57 131.925 136.815C131.925 135.972 132.82 135.358 134.022 135.358C135.339 135.358 135.882 136.087 136.144 136.764L137.499 136.381ZM146.904 136.381C146.431 134.987 145.369 134.054 143.426 134.054C141.355 134.054 139.821 135.23 139.821 136.892C139.821 138.247 140.627 139.155 142.429 139.577L144.066 139.96C145.056 140.19 145.523 140.663 145.523 141.341C145.523 142.185 144.628 142.875 143.222 142.875C141.988 142.875 141.215 142.344 140.946 141.29L139.514 141.648C139.866 143.316 141.24 144.205 143.247 144.205C145.529 144.205 147.083 142.958 147.083 141.264C147.083 139.896 146.226 139.033 144.475 138.605L143.017 138.247C141.854 137.96 141.33 137.57 141.33 136.815C141.33 135.972 142.225 135.358 143.426 135.358C144.743 135.358 145.286 136.087 145.548 136.764L146.904 136.381ZM149.353 144H150.862V134.182H149.353V144ZM150.12 132.545C150.708 132.545 151.194 132.085 151.194 131.523C151.194 130.96 150.708 130.5 150.12 130.5C149.532 130.5 149.047 130.96 149.047 131.523C149.047 132.085 149.532 132.545 150.12 132.545ZM157.613 144.205C160.273 144.205 162.062 142.185 162.062 139.142C162.062 136.074 160.273 134.054 157.613 134.054C154.954 134.054 153.165 136.074 153.165 139.142C153.165 142.185 154.954 144.205 157.613 144.205ZM157.613 142.849C155.594 142.849 154.673 141.111 154.673 139.142C154.673 137.173 155.594 135.409 157.613 135.409C159.633 135.409 160.554 137.173 160.554 139.142C160.554 141.111 159.633 142.849 157.613 142.849ZM165.874 138.094C165.874 136.381 166.935 135.409 168.379 135.409C169.779 135.409 170.629 136.323 170.629 137.864V144H172.138V137.761C172.138 135.256 170.802 134.054 168.814 134.054C167.331 134.054 166.411 134.719 165.95 135.716H165.822V134.182H164.365V144H165.874V138.094ZM181.849 136.381C181.376 134.987 180.315 134.054 178.372 134.054C176.301 134.054 174.767 135.23 174.767 136.892C174.767 138.247 175.572 139.155 177.374 139.577L179.011 139.96C180.002 140.19 180.468 140.663 180.468 141.341C180.468 142.185 179.573 142.875 178.167 142.875C176.933 142.875 176.16 142.344 175.892 141.29L174.46 141.648C174.811 143.316 176.186 144.205 178.193 144.205C180.475 144.205 182.028 142.958 182.028 141.264C182.028 139.896 181.171 139.033 179.42 138.605L177.963 138.247C176.799 137.96 176.275 137.57 176.275 136.815C176.275 135.972 177.17 135.358 178.372 135.358C179.688 135.358 180.232 136.087 180.494 136.764L181.849 136.381ZM185.398 144.102C186.031 144.102 186.549 143.585 186.549 142.952C186.549 142.319 186.031 141.801 185.398 141.801C184.765 141.801 184.248 142.319 184.248 142.952C184.248 143.585 184.765 144.102 185.398 144.102Z" fill="#0A1417"/>
<path d="M47.7859 34.2727V44.8335C47.7859 46.7447 46.4464 48.125 44.3881 48.125C42.3381 48.125 40.9904 46.7447 40.9904 44.8335V34.2727H37.4538V45.1357C37.4538 48.7947 40.2145 51.2369 44.3881 51.2369C48.5455 51.2369 51.3224 48.7947 51.3224 45.1357V34.2727H47.7859ZM64.605 42.032C64.2947 39.7205 62.4324 38.2912 59.2634 38.2912C56.0535 38.2912 53.9381 39.7777 53.9463 42.1953C53.9381 44.0739 55.1224 45.2908 57.5727 45.7809L59.7453 46.2138C60.8398 46.4343 61.338 46.8345 61.3543 47.4634C61.338 48.2067 60.5294 48.7376 59.3124 48.7376C58.0709 48.7376 57.246 48.2067 57.0336 47.1857L53.6114 47.3654C53.9381 49.7667 55.98 51.245 59.3042 51.245C62.555 51.245 64.8827 49.587 64.8909 47.1122C64.8827 45.299 63.6984 44.2127 61.2645 43.7145L58.9939 43.2571C57.8259 43.0039 57.393 42.6037 57.4012 41.9993C57.393 41.2479 58.2425 40.7578 59.3206 40.7578C60.5294 40.7578 61.2481 41.4194 61.4197 42.228L64.605 42.032ZM72.7992 51.245C75.9029 51.245 77.9938 49.734 78.4838 47.4062L75.2658 47.1939C74.9146 48.1495 74.0162 48.6477 72.8564 48.6477C71.1167 48.6477 70.014 47.4961 70.014 45.6257V45.6175H78.5574V44.6619C78.5574 40.3984 75.9764 38.2912 72.6603 38.2912C68.9686 38.2912 66.5755 40.913 66.5755 44.7844C66.5755 48.7621 68.9359 51.245 72.7992 51.245ZM70.014 43.4613C70.0875 42.032 71.1738 40.8885 72.7175 40.8885C74.2285 40.8885 75.274 41.9666 75.2821 43.4613H70.014ZM80.8279 51H84.3074V43.9023C84.3074 42.3587 85.4345 41.2969 86.97 41.2969C87.4519 41.2969 88.1135 41.3786 88.4402 41.4847V38.3974C88.1298 38.3239 87.6969 38.2749 87.3457 38.2749C85.9409 38.2749 84.7892 39.0916 84.3319 40.6435H84.2012V38.4545H80.8279V51ZM99.1642 34.2727H95.6277V51H99.1642V34.2727ZM102.009 51H105.488V43.4695C105.488 42.081 106.37 41.158 107.53 41.158C108.673 41.158 109.441 41.9421 109.441 43.1754V51H112.814V43.3388C112.814 42.0401 113.558 41.158 114.824 41.158C115.934 41.158 116.767 41.8523 116.767 43.2489V51H120.239V42.5629C120.239 39.843 118.622 38.2912 116.286 38.2912C114.448 38.2912 113.019 39.2305 112.504 40.668H112.373C111.973 39.2141 110.691 38.2912 108.967 38.2912C107.277 38.2912 105.994 39.1896 105.472 40.668H105.325V38.4545H102.009V51ZM122.987 55.7045H126.467V48.9908H126.573C127.055 50.0362 128.108 51.2042 130.134 51.2042C132.992 51.2042 135.222 48.9418 135.222 44.7436C135.222 40.4311 132.894 38.2912 130.142 38.2912C128.043 38.2912 127.038 39.5408 126.573 40.5618H126.418V38.4545H122.987V55.7045ZM126.393 44.7273C126.393 42.4893 127.34 41.06 129.031 41.06C130.755 41.06 131.669 42.5547 131.669 44.7273C131.669 46.9162 130.738 48.4354 129.031 48.4354C127.357 48.4354 126.393 46.9652 126.393 44.7273ZM141.119 51.2369C142.973 51.2369 144.174 50.4283 144.786 49.2603H144.884V51H148.184V42.5384C148.184 39.549 145.652 38.2912 142.859 38.2912C139.853 38.2912 137.877 39.7287 137.395 42.0156L140.613 42.277C140.85 41.4439 141.593 40.8313 142.843 40.8313C144.027 40.8313 144.705 41.4276 144.705 42.4567V42.5057C144.705 43.3143 143.847 43.4205 141.666 43.6328C139.184 43.8615 136.954 44.6946 136.954 47.4961C136.954 49.979 138.726 51.2369 141.119 51.2369ZM142.116 48.8356C141.046 48.8356 140.278 48.3374 140.278 47.3817C140.278 46.4016 141.087 45.9197 142.312 45.7482C143.071 45.642 144.313 45.4624 144.729 45.1847V46.516C144.729 47.831 143.643 48.8356 142.116 48.8356ZM156.552 51.245C159.892 51.245 161.992 49.2848 162.155 46.4016H158.872C158.667 47.7411 157.785 48.4925 156.593 48.4925C154.967 48.4925 153.914 47.1286 153.914 44.7273C153.914 42.3587 154.976 41.0028 156.593 41.0028C157.867 41.0028 158.684 41.8441 158.872 43.0938H162.155C162.008 40.1942 159.811 38.2912 156.536 38.2912C152.729 38.2912 150.377 40.9293 150.377 44.7763C150.377 48.5906 152.689 51.245 156.552 51.245ZM171.056 38.4545H168.695V35.4489H165.216V38.4545H163.501V41.0682H165.216V47.6023C165.199 50.0607 166.874 51.2777 169.398 51.1715C170.296 51.1388 170.933 50.9592 171.284 50.8448L170.737 48.2557C170.566 48.2884 170.198 48.37 169.871 48.37C169.177 48.37 168.695 48.1087 168.695 47.1449V41.0682H171.056V38.4545Z" fill="#0A1417"/>
</svg>
