<svg width="43" height="51" viewBox="0 0 43 51" fill="none" xmlns="http://www.w3.org/2000/svg">
<path fill-rule="evenodd" clip-rule="evenodd" d="M5 0C2.23858 0 0 2.23857 0 5V44.7479C0 47.5093 2.23858 49.7479 5 49.7479H18.7048C19.7641 49.8851 20.864 49.9565 22 49.9565C33.1474 49.9565 42.1842 43.0827 42.1842 34.6035C42.1842 29.4196 39.7016 25.0996 35.2247 22.5248C37.5943 20.1158 38.9915 17.153 38.9915 13.9496C38.9915 5.87415 32.4654 0 21.5125 0C21.288 0 21.0639 0.00246867 20.8403 0.00737436V0H5Z" fill="#3D4361"/>
<path d="M0 5H15V50H5C2.23858 50 0 47.7614 0 45V5Z" fill="#5A71C9"/>
<path fill-rule="evenodd" clip-rule="evenodd" d="M17.0871 8.8551C16.7058 8.35712 16.4787 7.73461 16.4775 7.05893L16.4685 1.70537L22.3904 1.69532C24.6876 1.69142 26.5529 3.55045 26.5568 5.84758C26.5607 8.14471 24.7017 10.0101 22.4045 10.014L21.839 10.0149L21.8319 14.2183C21.8291 15.8559 20.4993 17.1812 18.8618 17.1784L15.9057 17.1734C13.6081 17.1695 11.7487 15.3038 11.7526 13.0062C11.7565 10.7086 13.6223 8.84922 15.9198 8.85312L17.0871 8.8551ZM12.0081 24.9999C11.5738 24.2604 11.3242 23.3993 11.3226 22.4798L11.3172 19.2844L26.5152 19.2586C28.7783 19.2548 30.616 21.0863 30.6199 23.3494C30.6237 25.6124 28.7922 27.4502 26.5291 27.454L25.2791 27.4561C25.7203 28.2013 25.9736 29.071 25.9736 29.9999V33.5297L11.1069 33.5297C8.6883 33.5297 6.75371 31.5207 6.84499 29.1038C6.93151 26.8126 8.81404 24.9999 11.1069 24.9999H12.0081ZM8.88046 41.4089C8.8808 41.6113 8.90155 41.809 8.94074 42H8C5.79086 42 4 43.7909 4 46C4 48.2091 5.79086 50 8 50H14V44.9412C14 44.7386 13.9795 44.5408 13.9405 44.3498L14.8161 44.3483C17.0792 44.3444 18.9107 42.5067 18.9068 40.2436C18.903 37.9806 17.0653 36.1491 14.8022 36.1529L8.87156 36.163L8.88046 41.4089Z" fill="#39C5C9"/>
<path d="M37.3194 13.0708C37.3147 15.8322 35.0723 18.067 32.3109 18.0623L18.1738 18.0383C15.9337 18.0345 14.1208 16.2154 14.1246 13.9753C14.1284 11.7352 15.9474 9.92229 18.1876 9.92609L37.3247 9.95858L37.3194 13.0708Z" fill="#3D4361"/>
<path d="M32.6135 30.2051C32.6088 32.9665 30.3664 35.2013 27.605 35.1966L13.3756 35.1724C11.1864 35.1687 9.41476 33.391 9.41847 31.2018C9.42219 29.0127 11.1999 27.241 13.3891 27.2447L32.6184 27.2774L32.6135 30.2051Z" fill="#3D4361"/>
<path d="M26.5393 44.564C26.7874 47.4775 24.4933 49.9812 21.5693 49.9881L16.5 50.0002L9.00106 49.9822C7.42152 49.9784 6.14381 48.6954 6.14649 47.1159V47.1159C6.14917 45.5356 7.43246 44.2566 9.0128 44.2593L26.5159 44.289L26.5393 44.564Z" fill="#3D4361"/>
<path d="M0 17H24C26.2091 17 28 18.7909 28 21V21C28 23.2091 26.2091 25 24 25H0V17Z" fill="#5A71C9"/>
<path d="M0 5C0 2.23858 2.23858 0 5 0H18.5C20.9853 0 23 2.01472 23 4.5V4.5C23 6.98528 20.9853 9 18.5 9H0V5Z" fill="#5A71C9"/>
<path d="M0 33H12.5C14.9853 33 17 35.0147 17 37.5V37.5C17 39.9853 14.9853 42 12.5 42H0V33Z" fill="#5A71C9"/>
<circle cx="28.7337" cy="37.3107" r="4.71747" fill="#39C5C9"/>
<circle cx="27.7175" cy="36.7175" r="4.71747" fill="#5A71C9"/>
</svg>
