<svg width="816" height="350" viewBox="0 0 816 350" fill="none" xmlns="http://www.w3.org/2000/svg">
<path d="M2 306.743H813V349.177H2V306.743Z" fill="#E2E1E1"/>
<rect x="2" width="811" height="307" fill="#E7F2FE"/>
<path d="M551.268 306.743V287.759L550.039 284.409H558.641V306.743H551.268Z" fill="#C0855F" stroke="#8D5A39"/>
<path d="M545.124 252.025L554.955 237.508L564.785 252.025H559.87L569.7 268.775H562.327L574.615 287.759H550.04H535.294L546.353 268.775H538.98L550.04 252.025H545.124Z" fill="#5C9B76" stroke="#03401C"/>
<g filter="url(#filter0_d)">
<rect width="66.3545" height="4.46678" transform="matrix(-1 0 0 1 805.627 273.243)" fill="#7C5629"/>
<rect width="66.3545" height="4.46678" transform="matrix(-1 0 0 1 805.627 293.343)" fill="#7C5629"/>
<path d="M795.797 266.542V306.744H788.424V266.542L792.111 264.309L795.797 266.542Z" fill="#7C5629" stroke="#553210"/>
<path d="M810.542 266.542V306.744H803.17V266.542L806.856 264.309L810.542 266.542Z" fill="#7C5629" stroke="#553210"/>
<path d="M781.051 266.542V306.744H773.679V266.542L777.365 264.309L781.051 266.542Z" fill="#7C5629" stroke="#553210"/>
<path d="M766.306 266.542V306.744H758.933V266.542L762.62 264.309L766.306 266.542Z" fill="#7C5629" stroke="#553210"/>
<path d="M754.018 266.542V306.744H746.645V266.542L750.331 264.309L754.018 266.542Z" fill="#7C5629" stroke="#553210"/>
</g>
<g filter="url(#filter1_d)">
<path d="M739.273 226.34H670.461L665.545 306.742H739.273V226.34Z" fill="#8592F0"/>
<path d="M739.273 226.34H670.461L665.545 306.742H739.273V226.34Z" stroke="black"/>
</g>
<path d="M701.18 267.658V296.692H719.612V267.658H701.18Z" fill="#FBE9C4" stroke="black"/>
<path d="M696.265 302.275V305.625V306.742H726.985V304.509V302.275H696.265Z" fill="#ACACAC" stroke="black"/>
<path d="M745.417 186.139H647.114L670.461 231.924H745.417V186.139Z" fill="#393742" stroke="black"/>
<g filter="url(#filter2_d)">
<path d="M589.361 306.743V215.174V212.94L632.368 177.206L676.605 212.94V306.743H589.361Z" fill="#8592F0"/>
<path d="M589.361 306.743V215.174V212.94L632.368 177.206L676.605 212.94V306.743H589.361Z" stroke="black"/>
</g>
<path d="M596.733 228.574H615.165V240.858V253.142H596.733V240.858V228.574Z" fill="#BED2E7"/>
<path d="M596.733 240.858V253.142H615.165V240.858M596.733 240.858V228.574H615.165V240.858M596.733 240.858H615.165" stroke="black"/>
<path d="M698.723 296.692V302.275H723.299V296.692H698.723Z" fill="#ACACAC" stroke="black"/>
<path d="M623.767 228.574H642.198V240.858V253.142H623.767V240.858V228.574Z" fill="#BED2E7"/>
<path d="M623.767 240.858V253.142H642.198V240.858M623.767 240.858V228.574H642.198V240.858M623.767 240.858H642.198" stroke="black"/>
<path d="M650.8 228.574H669.232V240.858V253.142H650.8V240.858V228.574Z" fill="#BED2E7"/>
<path d="M650.8 240.858V253.142H669.232V240.858M650.8 240.858V228.574H669.232V240.858M650.8 240.858H669.232" stroke="black"/>
<path d="M682.749 237.508H701.18V249.791V262.075H682.749V249.791V237.508Z" fill="#BED2E7"/>
<path d="M682.749 249.791V262.075H701.18V249.791M682.749 249.791V237.508H701.18V249.791M682.749 249.791H701.18" stroke="black"/>
<path d="M714.697 237.508H733.129V249.791V262.075H714.697V249.791V237.508Z" fill="#BED2E7"/>
<path d="M714.697 249.791V262.075H733.129V249.791M714.697 249.791V237.508H733.129V249.791M714.697 249.791H733.129" stroke="black"/>
<path d="M623.767 264.308H642.198V276.591V288.875H623.767V276.591V264.308Z" fill="#BED2E7"/>
<path d="M623.767 276.591V288.875H642.198V276.591M623.767 276.591V264.308H642.198V276.591M623.767 276.591H642.198" stroke="black"/>
<path d="M650.8 264.308H669.232V276.591V288.875H650.8V276.591V264.308Z" fill="#BED2E7"/>
<path d="M650.8 276.591V288.875H669.232V276.591M650.8 276.591V264.308H669.232V276.591M650.8 276.591H669.232" stroke="black"/>
<path d="M596.733 264.308H615.165V276.591V288.875H596.733V276.591V264.308Z" fill="#BED2E7"/>
<path d="M596.733 276.591V288.875H615.165V276.591M596.733 276.591V264.308H615.165V276.591M596.733 276.591H615.165" stroke="black"/>
<path d="M632.368 172.739L580.759 215.174L585.674 219.64L632.368 181.673L677.833 219.64L683.977 215.174L632.368 172.739Z" fill="#393742" stroke="black"/>
<path d="M310.426 287.758C308.314 279.385 300.595 267.658 300.595 267.658L303.053 263.191C303.053 263.191 308.064 269.747 310.426 274.358C312.155 277.736 314.112 283.291 314.112 283.291C314.112 283.291 315.013 268.931 316.569 259.841C317.698 253.249 320.256 243.09 320.256 243.09L325.171 246.44C325.171 246.44 321.493 262.69 320.256 273.241C318.73 286.258 319.027 306.742 319.027 306.742H311.654C311.654 306.742 312.251 294.997 310.426 287.758Z" fill="#C0855F" stroke="#8D5A39"/>
<mask id="path-36-inside-1" fill="white">
<path fill-rule="evenodd" clip-rule="evenodd" d="M265.167 259.326C256.583 257.408 250.215 250.367 250.215 241.974C250.215 232.106 259.017 224.107 269.875 224.107C278.127 224.107 285.191 228.726 288.107 235.274C288.174 235.274 288.241 235.274 288.307 235.274C301.202 235.274 311.654 244.773 311.654 256.491C311.654 268.209 301.202 277.708 288.307 277.708C276.471 277.708 266.692 269.703 265.167 259.326Z"/>
</mask>
<path fill-rule="evenodd" clip-rule="evenodd" d="M265.167 259.326C256.583 257.408 250.215 250.367 250.215 241.974C250.215 232.106 259.017 224.107 269.875 224.107C278.127 224.107 285.191 228.726 288.107 235.274C288.174 235.274 288.241 235.274 288.307 235.274C301.202 235.274 311.654 244.773 311.654 256.491C311.654 268.209 301.202 277.708 288.307 277.708C276.471 277.708 266.692 269.703 265.167 259.326Z" fill="#5C9B76"/>
<path d="M265.167 259.326L266.156 259.18L266.056 258.5L265.385 258.35L265.167 259.326ZM288.107 235.274L287.194 235.681L287.46 236.279L288.115 236.274L288.107 235.274ZM265.385 258.35C257.184 256.518 251.215 249.828 251.215 241.974H249.215C249.215 250.906 255.981 258.298 264.949 260.302L265.385 258.35ZM251.215 241.974C251.215 232.746 259.477 225.107 269.875 225.107V223.107C258.557 223.107 249.215 231.466 249.215 241.974H251.215ZM269.875 225.107C277.761 225.107 284.449 229.52 287.194 235.681L289.021 234.868C285.932 227.933 278.493 223.107 269.875 223.107V225.107ZM288.115 236.274C288.179 236.274 288.243 236.274 288.307 236.274V234.274C288.238 234.274 288.169 234.274 288.1 234.275L288.115 236.274ZM288.307 236.274C300.742 236.274 310.654 245.413 310.654 256.491H312.654C312.654 244.133 301.662 234.274 288.307 234.274V236.274ZM310.654 256.491C310.654 267.569 300.742 276.708 288.307 276.708V278.708C301.662 278.708 312.654 268.849 312.654 256.491H310.654ZM288.307 276.708C276.901 276.708 267.6 269.004 266.156 259.18L264.178 259.471C265.784 270.402 276.041 278.708 288.307 278.708V276.708Z" fill="#03401C" mask="url(#path-36-inside-1)"/>
<mask id="path-38-inside-2" fill="white">
<path fill-rule="evenodd" clip-rule="evenodd" d="M306.053 235.162C299.495 234.394 294.451 229.737 294.451 224.106C294.451 223.005 294.644 221.942 295.003 220.937C287.325 216.874 282.163 209.313 282.163 200.656C282.163 187.705 293.716 177.206 307.968 177.206C314.917 177.206 321.224 179.702 325.864 183.762C329.307 181.067 333.788 179.438 338.687 179.438C349.546 179.438 358.348 187.438 358.348 197.305C358.348 200.228 357.576 202.987 356.206 205.423C363.505 210.335 368.179 217.88 368.179 226.34C368.179 241.142 353.875 253.141 336.23 253.141C322.27 253.141 310.401 245.63 306.053 235.162Z"/>
</mask>
<path fill-rule="evenodd" clip-rule="evenodd" d="M306.053 235.162C299.495 234.394 294.451 229.737 294.451 224.106C294.451 223.005 294.644 221.942 295.003 220.937C287.325 216.874 282.163 209.313 282.163 200.656C282.163 187.705 293.716 177.206 307.968 177.206C314.917 177.206 321.224 179.702 325.864 183.762C329.307 181.067 333.788 179.438 338.687 179.438C349.546 179.438 358.348 187.438 358.348 197.305C358.348 200.228 357.576 202.987 356.206 205.423C363.505 210.335 368.179 217.88 368.179 226.34C368.179 241.142 353.875 253.141 336.23 253.141C322.27 253.141 310.401 245.63 306.053 235.162Z" fill="#5C9B76"/>
<path d="M306.053 235.162L306.976 234.779L306.752 234.237L306.169 234.169L306.053 235.162ZM295.003 220.937L295.945 221.273L296.237 220.458L295.471 220.053L295.003 220.937ZM325.864 183.762L325.205 184.514L325.828 185.059L326.48 184.549L325.864 183.762ZM356.206 205.423L355.335 204.933L354.882 205.738L355.648 206.253L356.206 205.423ZM306.169 234.169C299.953 233.441 295.451 229.082 295.451 224.106H293.451C293.451 230.392 299.036 235.347 305.937 236.155L306.169 234.169ZM295.451 224.106C295.451 223.123 295.623 222.173 295.945 221.273L294.062 220.6C293.665 221.71 293.451 222.887 293.451 224.106H295.451ZM295.471 220.053C288.075 216.14 283.163 208.894 283.163 200.656H281.163C281.163 209.732 286.574 217.608 294.536 221.821L295.471 220.053ZM283.163 200.656C283.163 188.345 294.176 178.206 307.968 178.206V176.206C293.256 176.206 281.163 187.065 281.163 200.656H283.163ZM307.968 178.206C314.677 178.206 320.75 180.615 325.205 184.514L326.522 183.009C321.699 178.788 315.157 176.206 307.968 176.206V178.206ZM326.48 184.549C329.746 181.993 334.01 180.438 338.687 180.438V178.438C333.565 178.438 328.867 180.141 325.248 182.974L326.48 184.549ZM338.687 180.438C349.086 180.438 357.348 188.078 357.348 197.305H359.348C359.348 186.798 350.006 178.438 338.687 178.438V180.438ZM357.348 197.305C357.348 200.049 356.624 202.64 355.335 204.933L357.078 205.913C358.528 203.335 359.348 200.408 359.348 197.305H357.348ZM355.648 206.253C362.723 211.014 367.179 218.27 367.179 226.34H369.179C369.179 217.489 364.288 209.656 356.765 204.593L355.648 206.253ZM367.179 226.34C367.179 240.432 353.494 252.141 336.23 252.141V254.141C354.255 254.141 369.179 241.851 369.179 226.34H367.179ZM336.23 252.141C322.602 252.141 311.144 244.81 306.976 234.779L305.129 235.546C309.659 246.449 321.938 254.141 336.23 254.141V252.141Z" fill="#03401C" mask="url(#path-38-inside-2)"/>
<g filter="url(#filter3_d)">
<path d="M339.917 306.743V262.075L338.688 257.608H400.127L398.899 306.743H339.917Z" fill="#FE828D"/>
<path d="M339.917 306.743V262.075L338.688 257.608H400.127L398.899 306.743H339.917Z" stroke="black"/>
</g>
<g filter="url(#filter4_d)">
<path d="M452.965 306.743V262.075L451.736 257.608H513.176V306.743H452.965Z" fill="#FE828D"/>
<path d="M452.965 306.743V262.075L451.736 257.608H513.176V306.743H452.965Z" stroke="black"/>
</g>
<path d="M350.976 281.059V275.475H365.721H380.467V281.059V286.642V296.692H365.721H350.976V286.642V281.059Z" fill="#FBF7EF"/>
<path d="M350.976 286.642V296.692H365.721H380.467V286.642M350.976 286.642V281.059V275.475H365.721H380.467V281.059V286.642M350.976 286.642H380.467" stroke="black"/>
<path d="M471.397 275.475H500.888V285.525V296.692H471.397V285.525V275.475Z" fill="#FBF7EF"/>
<path d="M471.397 285.525V296.692H500.888V285.525M471.397 285.525V275.475H500.888V285.525M471.397 285.525H500.888" stroke="black"/>
<path d="M330.086 262.075L349.747 214.057H503.345L523.006 262.075H330.086Z" fill="#8F6247" stroke="black"/>
<path d="M357.12 254.258V235.274L368.179 225.224L380.467 233.041V254.258H357.12Z" fill="#FE828D" stroke="black"/>
<path d="M368.179 221.874L350.976 231.924L354.662 236.391L368.179 228.574L382.924 236.391L386.611 231.924L368.179 221.874Z" fill="#B17957" stroke="black"/>
<path d="M472.626 254.258V235.274L483.685 225.224L495.973 233.041V254.258H472.626Z" fill="#FE828D" stroke="black"/>
<path d="M483.685 221.874L466.482 231.924L470.168 236.391L483.685 228.574L498.43 236.391L502.117 231.924L483.685 221.874Z" fill="#B17957" stroke="black"/>
<g filter="url(#filter5_d)">
<path d="M393.983 306.742V263.191V262.074L427.161 240.857L459.109 262.074V306.742H393.983Z" fill="#FE828D"/>
<path d="M393.983 306.742V263.191V262.074L427.161 240.857L459.109 262.074V306.742H393.983Z" stroke="black"/>
</g>
<path d="M417.33 274.358V306.743H436.991V274.358H417.33Z" fill="#EFF1D7" stroke="black"/>
<path d="M382.924 267.658L378.009 260.958L425.932 236.391L473.854 262.075L470.168 268.775L425.932 245.324L393.983 262.075L382.924 267.658Z" fill="#B17957" stroke="black"/>
<path fill-rule="evenodd" clip-rule="evenodd" d="M403.857 90.1998C397.366 97.8674 387.797 102.715 377.126 102.715C368.224 102.715 360.09 99.3414 353.868 93.7714C350.562 94.5204 347.048 94.9238 343.406 94.9238C323.852 94.9238 308 83.2968 308 68.9541C308 54.6115 323.852 42.9845 343.406 42.9845C345.546 42.9845 347.642 43.1237 349.678 43.3906C356.17 35.2184 366.055 30 377.126 30C386.853 30 395.663 34.0272 402.062 40.5463C406.751 38.7813 412.02 37.7907 417.591 37.7907C437.145 37.7907 452.997 49.999 452.997 65.0588C452.997 80.1186 437.145 92.327 417.591 92.327C412.721 92.327 408.08 91.5697 403.857 90.1998Z" fill="#F1FAFF"/>
<path fill-rule="evenodd" clip-rule="evenodd" d="M92.3138 131.554C87.3628 137.402 80.0649 141.099 71.9261 141.099C65.1365 141.099 58.9322 138.526 54.1873 134.278C51.6652 134.849 48.9854 135.157 46.2075 135.157C31.2932 135.157 19.2028 126.289 19.2028 115.349C19.2028 104.41 31.2932 95.5419 46.2075 95.5419C47.8396 95.5419 49.4379 95.6481 50.9903 95.8516C55.9422 89.6184 63.4815 85.6382 71.9261 85.6382C79.3446 85.6382 86.0645 88.7099 90.9452 93.6824C94.5212 92.3362 98.5405 91.5807 102.789 91.5807C117.703 91.5807 129.794 100.892 129.794 112.378C129.794 123.865 117.703 133.176 102.789 133.176C99.0743 133.176 95.5349 132.598 92.3138 131.554Z" fill="#F1FAFF"/>
<path fill-rule="evenodd" clip-rule="evenodd" d="M548.969 170.287C545.38 174.526 540.09 177.206 534.19 177.206C529.269 177.206 524.771 175.341 521.332 172.262C519.504 172.676 517.561 172.899 515.547 172.899C504.737 172.899 495.973 166.471 495.973 158.541C495.973 150.612 504.737 144.184 515.547 144.184C516.731 144.184 517.889 144.261 519.015 144.408C522.604 139.89 528.069 137.005 534.19 137.005C539.567 137.005 544.438 139.231 547.976 142.835C550.568 141.86 553.482 141.312 556.561 141.312C567.372 141.312 576.136 148.061 576.136 156.387C576.136 164.713 567.372 171.463 556.561 171.463C553.869 171.463 551.303 171.044 548.969 170.287Z" fill="#F1FAFF"/>
<rect x="361.306" y="238.008" width="13.7455" height="10.167" fill="#FBF7EF" stroke="black"/>
<rect x="476.812" y="238.008" width="13.7455" height="10.167" fill="#FBF7EF" stroke="black"/>
<path d="M2 306.743H813" stroke="black"/>
<path d="M14.2878 333.544H32.7197" stroke="black"/>
<path d="M56.0669 333.544H74.4987" stroke="black"/>
<path d="M97.8456 333.544H116.277" stroke="black"/>
<path d="M137.167 333.544H155.599" stroke="black"/>
<path d="M178.945 333.544H197.377" stroke="black"/>
<path d="M218.267 333.544H236.698" stroke="black"/>
<path d="M260.045 333.544H278.477" stroke="black"/>
<path d="M301.824 333.544H320.256" stroke="black"/>
<path d="M341.146 333.544H359.577" stroke="black"/>
<path d="M382.924 333.544H401.356" stroke="black"/>
<path d="M422.246 333.544H440.677" stroke="black"/>
<path d="M461.567 333.544H479.999" stroke="black"/>
<path d="M503.345 333.544H521.777" stroke="black"/>
<path d="M540.209 333.544H558.641" stroke="black"/>
<path d="M581.988 333.544H600.42" stroke="black"/>
<path d="M623.767 333.544H642.198" stroke="black"/>
<path d="M663.088 333.544H681.52" stroke="black"/>
<path d="M704.867 333.544H723.299" stroke="black"/>
<path d="M744.188 333.544H762.62" stroke="black"/>
<path d="M785.967 333.544H804.398" stroke="black"/>
<g filter="url(#filter6_d)">
<rect x="56.0669" y="258.609" width="100.761" height="49.1346" fill="#2BB09F"/>
<rect x="56.5669" y="259.109" width="99.7606" height="48.1346" stroke="black"/>
</g>
<path d="M49.9229 264.192L56.0668 246.325L56.3079 245.208H183.861L185.09 264.192H49.9229Z" fill="#555C6E" stroke="black"/>
<g filter="url(#filter7_d)">
<path d="M155.599 306.627V264.192L201.064 241.858L245.3 263.076V306.627H155.599Z" fill="#2BB09F"/>
<path d="M155.599 306.627V264.192L201.064 241.858L245.3 263.076V306.627H155.599Z" stroke="black"/>
</g>
<path d="M167.887 276.476V306.627H231.784V276.476H167.887Z" fill="#FBE9C4" stroke="black"/>
<path d="M194.92 301.043H205.979" stroke="black"/>
<path d="M255.131 261.959L199.835 238.509L145.768 263.076L149.455 267.543L199.835 244.092L250.215 265.309L255.131 261.959Z" fill="#555C6E" stroke="black"/>
<path d="M57.2955 245.209V205.008L121.192 177.091L183.861 205.008V245.209H57.2955Z" fill="#2BB09F" stroke="black"/>
<path d="M106.447 211.708V217.291V222.875V234.042H91.0874H75.7275V222.875V217.291V211.708H91.0874H106.447Z" fill="#E5E5E5"/>
<path d="M75.7275 217.291V211.708M75.7275 211.708H91.0874M75.7275 211.708V222.875M91.0874 211.708H106.447V217.291V222.875M91.0874 211.708V234.042M91.0874 234.042H106.447V222.875M91.0874 234.042H75.7275V222.875M75.7275 222.875H106.447" stroke="black"/>
<path d="M140.853 278.709V284.293V289.876V301.043H125.493H110.133V289.876V284.293V278.709H125.493H140.853Z" fill="#E5E5E5"/>
<path d="M110.133 284.293V278.709M110.133 278.709H125.493M110.133 278.709V289.876M125.493 278.709H140.853V284.293V289.876M125.493 278.709V301.043M125.493 301.043H140.853V289.876M125.493 301.043H110.133V289.876M110.133 289.876H140.853" stroke="black"/>
<path d="M160.514 211.708V217.291V222.875V234.042H145.154H129.794V222.875V217.291V211.708H145.154H160.514Z" fill="#E5E5E5"/>
<path d="M129.794 217.291V211.708M129.794 211.708H145.154M129.794 211.708V222.875M145.154 211.708H160.514V217.291V222.875M145.154 211.708V234.042M145.154 234.042H160.514V222.875M145.154 234.042H129.794V222.875M129.794 222.875H160.514" stroke="black"/>
<rect x="63.9396" y="165.307" width="26.0333" height="5.70017" fill="#BD9576" stroke="black"/>
<path d="M76.9564 276.476V306.627H94.1595V276.476H76.9564Z" fill="#FBE9C4" stroke="black"/>
<path d="M68.3549 196.074V170.39H86.7867V188.257L68.3549 196.074Z" fill="#BD9576" stroke="black"/>
<path d="M121.193 170.39L41.3214 205.008L46.2366 209.474L121.193 178.207L196.149 209.474L199.835 205.008L121.193 170.39Z" fill="#555C6E" stroke="black"/>
<g filter="url(#filter8_d)">
<path d="M56.0668 274.242V306.626H48.555H41.0432H34.7833H27.2715H19.7596H12.2478H4.73596V274.242H12.2478H19.7596H27.2715H34.7833H41.0432H48.555H56.0668Z" fill="#B17957"/>
<path d="M12.2478 274.242H4.73596V306.626H12.2478M12.2478 274.242V306.626M12.2478 274.242H19.7596M12.2478 306.626H19.7596M19.7596 306.626V274.242M19.7596 306.626H27.2715M19.7596 274.242H27.2715M27.2715 274.242V306.626M27.2715 274.242H34.7833M27.2715 306.626H34.7833M34.7833 306.626V274.242M34.7833 306.626H41.0432M34.7833 274.242H41.0432M41.0432 274.242V306.626M41.0432 274.242H48.555M41.0432 306.626H48.555M48.555 306.626H56.0668V274.242H48.555M48.555 306.626V274.242" stroke="#553210"/>
</g>
<defs>
<filter id="filter0_d" x="735.272" y="263.725" width="79.7697" height="51.519" filterUnits="userSpaceOnUse" color-interpolation-filters="sRGB">
<feFlood flood-opacity="0" result="BackgroundImageFix"/>
<feColorMatrix in="SourceAlpha" type="matrix" values="0 0 0 0 0 0 0 0 0 0 0 0 0 0 0 0 0 0 127 0"/>
<feOffset dy="4"/>
<feGaussianBlur stdDeviation="2"/>
<feColorMatrix type="matrix" values="0 0 0 0 0 0 0 0 0 0 0 0 0 0 0 0 0 0 0.25 0"/>
<feBlend mode="normal" in2="BackgroundImageFix" result="effect1_dropShadow"/>
<feBlend mode="normal" in="SourceGraphic" in2="effect1_dropShadow" result="shape"/>
</filter>
<filter id="filter1_d" x="661.014" y="225.84" width="82.7588" height="89.4021" filterUnits="userSpaceOnUse" color-interpolation-filters="sRGB">
<feFlood flood-opacity="0" result="BackgroundImageFix"/>
<feColorMatrix in="SourceAlpha" type="matrix" values="0 0 0 0 0 0 0 0 0 0 0 0 0 0 0 0 0 0 127 0"/>
<feOffset dy="4"/>
<feGaussianBlur stdDeviation="2"/>
<feColorMatrix type="matrix" values="0 0 0 0 0.65098 0 0 0 0 0.65098 0 0 0 0 0.65098 0 0 0 1 0"/>
<feBlend mode="normal" in2="BackgroundImageFix" result="effect1_dropShadow"/>
<feBlend mode="normal" in="SourceGraphic" in2="effect1_dropShadow" result="shape"/>
</filter>
<filter id="filter2_d" x="584.861" y="176.56" width="96.2439" height="138.683" filterUnits="userSpaceOnUse" color-interpolation-filters="sRGB">
<feFlood flood-opacity="0" result="BackgroundImageFix"/>
<feColorMatrix in="SourceAlpha" type="matrix" values="0 0 0 0 0 0 0 0 0 0 0 0 0 0 0 0 0 0 127 0"/>
<feOffset dy="4"/>
<feGaussianBlur stdDeviation="2"/>
<feColorMatrix type="matrix" values="0 0 0 0 0.65098 0 0 0 0 0.65098 0 0 0 0 0.65098 0 0 0 1 0"/>
<feBlend mode="normal" in2="BackgroundImageFix" result="effect1_dropShadow"/>
<feBlend mode="normal" in="SourceGraphic" in2="effect1_dropShadow" result="shape"/>
</filter>
<filter id="filter3_d" x="334.032" y="257.108" width="70.6082" height="58.1346" filterUnits="userSpaceOnUse" color-interpolation-filters="sRGB">
<feFlood flood-opacity="0" result="BackgroundImageFix"/>
<feColorMatrix in="SourceAlpha" type="matrix" values="0 0 0 0 0 0 0 0 0 0 0 0 0 0 0 0 0 0 127 0"/>
<feOffset dy="4"/>
<feGaussianBlur stdDeviation="2"/>
<feColorMatrix type="matrix" values="0 0 0 0 0.623529 0 0 0 0 0.623529 0 0 0 0 0.623529 0 0 0 1 0"/>
<feBlend mode="normal" in2="BackgroundImageFix" result="effect1_dropShadow"/>
<feBlend mode="normal" in="SourceGraphic" in2="effect1_dropShadow" result="shape"/>
</filter>
<filter id="filter4_d" x="447.08" y="257.108" width="70.5955" height="58.1346" filterUnits="userSpaceOnUse" color-interpolation-filters="sRGB">
<feFlood flood-opacity="0" result="BackgroundImageFix"/>
<feColorMatrix in="SourceAlpha" type="matrix" values="0 0 0 0 0 0 0 0 0 0 0 0 0 0 0 0 0 0 127 0"/>
<feOffset dy="4"/>
<feGaussianBlur stdDeviation="2"/>
<feColorMatrix type="matrix" values="0 0 0 0 0.623529 0 0 0 0 0.623529 0 0 0 0 0.623529 0 0 0 1 0"/>
<feBlend mode="normal" in2="BackgroundImageFix" result="effect1_dropShadow"/>
<feBlend mode="normal" in="SourceGraphic" in2="effect1_dropShadow" result="shape"/>
</filter>
<filter id="filter5_d" x="389.483" y="240.26" width="74.1258" height="74.9818" filterUnits="userSpaceOnUse" color-interpolation-filters="sRGB">
<feFlood flood-opacity="0" result="BackgroundImageFix"/>
<feColorMatrix in="SourceAlpha" type="matrix" values="0 0 0 0 0 0 0 0 0 0 0 0 0 0 0 0 0 0 127 0"/>
<feOffset dy="4"/>
<feGaussianBlur stdDeviation="2"/>
<feColorMatrix type="matrix" values="0 0 0 0 0.623529 0 0 0 0 0.623529 0 0 0 0 0.623529 0 0 0 1 0"/>
<feBlend mode="normal" in2="BackgroundImageFix" result="effect1_dropShadow"/>
<feBlend mode="normal" in="SourceGraphic" in2="effect1_dropShadow" result="shape"/>
</filter>
<filter id="filter6_d" x="52.0669" y="258.609" width="108.761" height="57.1346" filterUnits="userSpaceOnUse" color-interpolation-filters="sRGB">
<feFlood flood-opacity="0" result="BackgroundImageFix"/>
<feColorMatrix in="SourceAlpha" type="matrix" values="0 0 0 0 0 0 0 0 0 0 0 0 0 0 0 0 0 0 127 0"/>
<feOffset dy="4"/>
<feGaussianBlur stdDeviation="2"/>
<feColorMatrix type="matrix" values="0 0 0 0 0.38143 0 0 0 0 0.38163 0 0 0 0 0.381829 0 0 0 0.4 0"/>
<feBlend mode="normal" in2="BackgroundImageFix" result="effect1_dropShadow"/>
<feBlend mode="normal" in="SourceGraphic" in2="effect1_dropShadow" result="shape"/>
</filter>
<filter id="filter7_d" x="151.099" y="241.303" width="98.7015" height="73.8241" filterUnits="userSpaceOnUse" color-interpolation-filters="sRGB">
<feFlood flood-opacity="0" result="BackgroundImageFix"/>
<feColorMatrix in="SourceAlpha" type="matrix" values="0 0 0 0 0 0 0 0 0 0 0 0 0 0 0 0 0 0 127 0"/>
<feOffset dy="4"/>
<feGaussianBlur stdDeviation="2"/>
<feColorMatrix type="matrix" values="0 0 0 0 0.38143 0 0 0 0 0.38163 0 0 0 0 0.381829 0 0 0 0.4 0"/>
<feBlend mode="normal" in2="BackgroundImageFix" result="effect1_dropShadow"/>
<feBlend mode="normal" in="SourceGraphic" in2="effect1_dropShadow" result="shape"/>
</filter>
<filter id="filter8_d" x="0.235962" y="273.742" width="60.3309" height="41.3842" filterUnits="userSpaceOnUse" color-interpolation-filters="sRGB">
<feFlood flood-opacity="0" result="BackgroundImageFix"/>
<feColorMatrix in="SourceAlpha" type="matrix" values="0 0 0 0 0 0 0 0 0 0 0 0 0 0 0 0 0 0 127 0"/>
<feOffset dy="4"/>
<feGaussianBlur stdDeviation="2"/>
<feColorMatrix type="matrix" values="0 0 0 0 0 0 0 0 0 0 0 0 0 0 0 0 0 0 0.25 0"/>
<feBlend mode="normal" in2="BackgroundImageFix" result="effect1_dropShadow"/>
<feBlend mode="normal" in="SourceGraphic" in2="effect1_dropShadow" result="shape"/>
</filter>
</defs>
</svg>
