<svg width="628" height="317" viewBox="0 0 628 317" fill="none" xmlns="http://www.w3.org/2000/svg">
<path d="M3 284.343H625V308.888C625 313.306 621.418 316.888 617 316.888H11C6.58172 316.888 3 313.306 3 308.888V284.343Z" fill="#C4C4C4"/>
<rect x="3" width="622" height="284.343" rx="8" fill="#C8D8E8"/>
<g filter="url(#filter0_d)">
<path d="M44.4668 258.649V283.487H38.7056H32.9444H28.1433H22.3821H16.6209H10.8596H5.09839V258.649H10.8596H16.6209H22.3821H28.1433H32.9444H38.7056H44.4668Z" fill="#B17957"/>
<path d="M10.8596 258.649H5.09839V283.487H10.8596M10.8596 258.649V283.487M10.8596 258.649H16.6209M10.8596 283.487H16.6209M16.6209 283.487V258.649M16.6209 283.487H22.3821M16.6209 258.649H22.3821M22.3821 258.649V283.487M22.3821 258.649H28.1433M22.3821 283.487H28.1433M28.1433 283.487V258.649M28.1433 283.487H32.9444M28.1433 258.649H32.9444M32.9444 258.649V283.487M32.9444 258.649H38.7056M32.9444 283.487H38.7056M38.7056 283.487H44.4668V258.649H38.7056M38.7056 283.487V258.649" stroke="#553210"/>
</g>
<path d="M424.264 284.343V269.783L423.321 267.214H429.918V284.343H424.264Z" fill="#C0855F" stroke="#8D5A39"/>
<path d="M419.552 242.377L427.091 231.243L434.63 242.377H430.861L438.4 255.223H432.746L442.17 269.783H423.321H412.012L420.494 255.223H414.839L423.321 242.377H419.552Z" fill="#5C9B76" stroke="#03401C"/>
<g filter="url(#filter1_d)">
<rect width="50.8909" height="3.42582" transform="matrix(-1 0 0 1 619.345 258.65)" fill="#7C5629"/>
<rect width="50.8909" height="3.42582" transform="matrix(-1 0 0 1 619.345 274.066)" fill="#7C5629"/>
<path d="M611.806 253.511V284.343H606.152V253.511L608.979 251.798L611.806 253.511Z" fill="#7C5629" stroke="#553210"/>
<path d="M623.115 253.511V284.343H617.46V253.511L620.288 251.798L623.115 253.511Z" fill="#7C5629" stroke="#553210"/>
<path d="M600.497 253.511V284.343H594.842V253.511L597.67 251.798L600.497 253.511Z" fill="#7C5629" stroke="#553210"/>
<path d="M589.188 253.511V284.343H583.533V253.511L586.361 251.798L589.188 253.511Z" fill="#7C5629" stroke="#553210"/>
<path d="M579.763 253.511V284.343H574.109V253.511L576.936 251.798L579.763 253.511Z" fill="#7C5629" stroke="#553210"/>
</g>
<g filter="url(#filter2_d)">
<path d="M568.455 222.678H515.679L511.909 284.342H568.455V222.678Z" fill="#8592F0"/>
<path d="M568.455 222.678H515.679L511.909 284.342H568.455V222.678Z" stroke="black"/>
</g>
<path d="M539.24 254.367V276.635H553.376V254.367H539.24Z" fill="#FBE9C4" stroke="black"/>
<path d="M535.47 280.917V283.486V284.342H559.03V282.629V280.917H535.47Z" fill="#ACACAC" stroke="black"/>
<path d="M573.167 191.845H497.773L515.679 226.96H573.167V191.845Z" fill="#393742" stroke="black"/>
<g filter="url(#filter3_d)">
<path d="M453.479 284.343V214.114V212.401L486.464 184.994L520.391 212.401V284.343H453.479Z" fill="#8592F0"/>
<path d="M453.479 284.343V214.114V212.401L486.464 184.994L520.391 212.401V284.343H453.479Z" stroke="black"/>
</g>
<path d="M459.133 224.391H473.27V233.812V243.233H459.133V233.812V224.391Z" fill="#BED2E7"/>
<path d="M459.133 233.812V243.233H473.27V233.812M459.133 233.812V224.391H473.27V233.812M459.133 233.812H473.27" stroke="black"/>
<path d="M537.355 276.634V280.917H556.203V276.634H537.355Z" fill="#ACACAC" stroke="black"/>
<path d="M479.867 224.391H494.003V233.812V243.233H479.867V233.812V224.391Z" fill="#BED2E7"/>
<path d="M479.867 233.812V243.233H494.003V233.812M479.867 233.812V224.391H494.003V233.812M479.867 233.812H494.003" stroke="black"/>
<path d="M500.6 224.391H514.736V233.812V243.233H500.6V233.812V224.391Z" fill="#BED2E7"/>
<path d="M500.6 233.812V243.233H514.736V233.812M500.6 233.812V224.391H514.736V233.812M500.6 233.812H514.736" stroke="black"/>
<path d="M525.103 231.243H539.24V240.664V250.085H525.103V240.664V231.243Z" fill="#BED2E7"/>
<path d="M525.103 240.664V250.085H539.24V240.664M525.103 240.664V231.243H539.24V240.664M525.103 240.664H539.24" stroke="black"/>
<path d="M549.606 231.243H563.742V240.664V250.085H549.606V240.664V231.243Z" fill="#BED2E7"/>
<path d="M549.606 240.664V250.085H563.742V240.664M549.606 240.664V231.243H563.742V240.664M549.606 240.664H563.742" stroke="black"/>
<path d="M479.867 251.797H494.003V261.218V270.639H479.867V261.218V251.797Z" fill="#BED2E7"/>
<path d="M479.867 261.218V270.639H494.003V261.218M479.867 261.218V251.797H494.003V261.218M479.867 261.218H494.003" stroke="black"/>
<path d="M500.6 251.797H514.736V261.218V270.639H500.6V261.218V251.797Z" fill="#BED2E7"/>
<path d="M500.6 261.218V270.639H514.736V261.218M500.6 261.218V251.797H514.736V261.218M500.6 261.218H514.736" stroke="black"/>
<path d="M459.133 251.797H473.27V261.218V270.639H459.133V261.218V251.797Z" fill="#BED2E7"/>
<path d="M459.133 261.218V270.639H473.27V261.218M459.133 261.218V251.797H473.27V261.218M459.133 261.218H473.27" stroke="black"/>
<path d="M486.464 181.568L446.882 214.114L450.652 217.539L486.464 188.42L521.333 217.539L526.045 214.114L486.464 181.568Z" fill="#393742" stroke="black"/>
<g filter="url(#filter4_d)">
<rect x="44.4668" y="246.659" width="77.2788" height="37.684" fill="#2BB09F"/>
<rect x="44.9668" y="247.159" width="76.2788" height="36.684" stroke="black"/>
</g>
<path d="M39.7546 250.942L44.4668 237.238L44.6517 236.382H142.479L143.421 250.942H39.7546Z" fill="#555C6E" stroke="black"/>
<g filter="url(#filter5_d)">
<path d="M120.803 283.487V250.942L155.673 233.812L189.6 250.085V283.487H120.803Z" fill="#2BB09F"/>
<path d="M120.803 283.487V250.942L155.673 233.812L189.6 250.085V283.487H120.803Z" stroke="black"/>
</g>
<path d="M130.227 260.363V283.487H179.233V260.363H130.227Z" fill="#FBE9C4" stroke="black"/>
<path d="M150.961 279.205H159.443" stroke="black"/>
<path d="M197.14 249.229L154.73 231.244L113.264 250.086L116.091 253.511L154.73 235.526L193.37 251.799L197.14 249.229Z" fill="#555C6E" stroke="black"/>
<path d="M45.4092 236.382V205.55L94.4152 184.139L142.479 205.55V236.382H45.4092Z" fill="#2BB09F" stroke="black"/>
<path d="M83.1063 210.688V214.971V219.253V227.818H71.326H59.5457V219.253V214.971V210.688H71.326H83.1063Z" fill="#E5E5E5"/>
<path d="M59.5457 214.971V210.688M59.5457 210.688H71.326M59.5457 210.688V219.253M71.326 210.688H83.1063V214.971V219.253M71.326 210.688V227.818M71.326 227.818H83.1063V219.253M71.326 227.818H59.5457V219.253M59.5457 219.253H83.1063" stroke="black"/>
<path d="M109.494 262.076V266.358V270.64V279.205H97.7137H85.9333V270.64V266.358V262.076H97.7137H109.494Z" fill="#E5E5E5"/>
<path d="M85.9333 266.358V262.076M85.9333 262.076H97.7137M85.9333 262.076V270.64M97.7137 262.076H109.494V266.358V270.64M97.7137 262.076V279.205M97.7137 279.205H109.494V270.64M97.7137 279.205H85.9333V270.64M85.9333 270.64H109.494" stroke="black"/>
<path d="M124.573 210.688V214.971V219.253V227.818H112.793H101.012V219.253V214.971V210.688H112.793H124.573Z" fill="#E5E5E5"/>
<path d="M101.012 214.971V210.688M101.012 210.688H112.793M101.012 210.688V219.253M112.793 210.688H124.573V214.971V219.253M112.793 210.688V227.818M112.793 227.818H124.573V219.253M112.793 227.818H101.012V219.253M101.012 219.253H124.573" stroke="black"/>
<rect x="50.6213" y="175.217" width="19.7333" height="4.13873" fill="#BD9576" stroke="black"/>
<path d="M60.4882 260.363V283.487H73.6821V260.363H60.4882Z" fill="#FBE9C4" stroke="black"/>
<path d="M53.8911 198.698V179H68.0275V192.703L53.8911 198.698Z" fill="#BD9576" stroke="black"/>
<path d="M94.4153 179L33.1577 205.55L36.9274 208.975L94.4153 184.995L151.903 208.975L154.73 205.55L94.4153 179Z" fill="#555C6E" stroke="black"/>
<path d="M239.548 269.783C237.929 263.361 232.009 254.366 232.009 254.366L233.894 250.941C233.894 250.941 237.737 255.969 239.548 259.505C240.875 262.096 242.376 266.357 242.376 266.357C242.376 266.357 243.067 255.343 244.26 248.371C245.126 243.316 247.088 235.524 247.088 235.524L250.857 238.094C250.857 238.094 248.036 250.557 247.088 258.649C245.917 268.632 246.145 284.342 246.145 284.342H240.491C240.491 284.342 240.948 275.334 239.548 269.783Z" fill="#C0855F" stroke="#8D5A39"/>
<mask id="path-56-inside-1" fill="white">
<path fill-rule="evenodd" clip-rule="evenodd" d="M204.837 247.976C198.253 246.505 193.37 241.105 193.37 234.668C193.37 227.1 200.121 220.965 208.448 220.965C214.777 220.965 220.195 224.508 222.431 229.53C222.482 229.53 222.534 229.529 222.585 229.529C232.474 229.529 240.491 236.815 240.491 245.802C240.491 254.789 232.474 262.075 222.585 262.075C213.507 262.075 206.006 255.935 204.837 247.976Z"/>
</mask>
<path fill-rule="evenodd" clip-rule="evenodd" d="M204.837 247.976C198.253 246.505 193.37 241.105 193.37 234.668C193.37 227.1 200.121 220.965 208.448 220.965C214.777 220.965 220.195 224.508 222.431 229.53C222.482 229.53 222.534 229.529 222.585 229.529C232.474 229.529 240.491 236.815 240.491 245.802C240.491 254.789 232.474 262.075 222.585 262.075C213.507 262.075 206.006 255.935 204.837 247.976Z" fill="#5C9B76"/>
<path d="M204.837 247.976L205.826 247.831L205.726 247.15L205.055 247L204.837 247.976ZM222.431 229.53L221.518 229.937L221.784 230.535L222.439 230.53L222.431 229.53ZM205.055 247C198.855 245.615 194.37 240.566 194.37 234.668H192.37C192.37 241.644 197.651 247.396 204.619 248.952L205.055 247ZM194.37 234.668C194.37 227.74 200.581 221.965 208.448 221.965V219.965C199.66 219.965 192.37 226.46 192.37 234.668H194.37ZM208.448 221.965C214.411 221.965 219.453 225.301 221.518 229.937L223.345 229.123C220.936 223.714 215.143 219.965 208.448 219.965V221.965ZM222.439 230.53C222.487 230.53 222.536 230.529 222.585 230.529V228.529C222.531 228.529 222.477 228.53 222.424 228.53L222.439 230.53ZM222.585 230.529C232.014 230.529 239.491 237.455 239.491 245.802H241.491C241.491 236.175 232.934 228.529 222.585 228.529V230.529ZM239.491 245.802C239.491 254.149 232.014 261.075 222.585 261.075V263.075C232.934 263.075 241.491 255.429 241.491 245.802H239.491ZM222.585 261.075C213.937 261.075 206.914 255.236 205.826 247.831L203.848 248.121C205.098 256.634 213.077 263.075 222.585 263.075V261.075Z" fill="#03401C" mask="url(#path-56-inside-1)"/>
<mask id="path-58-inside-2" fill="white">
<path fill-rule="evenodd" clip-rule="evenodd" d="M236.195 229.444C231.165 228.854 227.297 225.282 227.297 220.964C227.297 220.12 227.445 219.304 227.72 218.533C221.831 215.418 217.872 209.618 217.872 202.979C217.872 193.046 226.733 184.994 237.663 184.994C242.993 184.994 247.831 186.908 251.389 190.022C254.029 187.955 257.466 186.706 261.224 186.706C269.552 186.706 276.303 192.841 276.303 200.409C276.303 202.651 275.71 204.767 274.66 206.635C280.258 210.403 283.842 216.189 283.842 222.678C283.842 234.03 272.872 243.233 259.339 243.233C248.632 243.233 239.529 237.472 236.195 229.444Z"/>
</mask>
<path fill-rule="evenodd" clip-rule="evenodd" d="M236.195 229.444C231.165 228.854 227.297 225.282 227.297 220.964C227.297 220.12 227.445 219.304 227.72 218.533C221.831 215.418 217.872 209.618 217.872 202.979C217.872 193.046 226.733 184.994 237.663 184.994C242.993 184.994 247.831 186.908 251.389 190.022C254.029 187.955 257.466 186.706 261.224 186.706C269.552 186.706 276.303 192.841 276.303 200.409C276.303 202.651 275.71 204.767 274.66 206.635C280.258 210.403 283.842 216.189 283.842 222.678C283.842 234.03 272.872 243.233 259.339 243.233C248.632 243.233 239.529 237.472 236.195 229.444Z" fill="#5C9B76"/>
<path d="M236.195 229.444L237.118 229.06L236.893 228.519L236.311 228.45L236.195 229.444ZM227.72 218.533L228.662 218.87L228.953 218.055L228.188 217.65L227.72 218.533ZM251.389 190.022L250.73 190.774L251.353 191.32L252.005 190.809L251.389 190.022ZM274.66 206.635L273.788 206.145L273.336 206.95L274.102 207.465L274.66 206.635ZM236.311 228.45C231.623 227.901 228.297 224.628 228.297 220.964H226.297C226.297 225.937 230.706 229.807 236.078 230.437L236.311 228.45ZM228.297 220.964C228.297 220.238 228.424 219.536 228.662 218.87L226.779 218.197C226.465 219.072 226.297 220.002 226.297 220.964H228.297ZM228.188 217.65C222.581 214.683 218.872 209.2 218.872 202.979H216.872C216.872 210.037 221.081 216.152 227.253 219.417L228.188 217.65ZM218.872 202.979C218.872 193.686 227.193 185.994 237.663 185.994V183.994C226.273 183.994 216.872 192.406 216.872 202.979H218.872ZM237.663 185.994C242.753 185.994 247.356 187.822 250.73 190.774L252.047 189.269C248.305 185.995 243.233 183.994 237.663 183.994V185.994ZM252.005 190.809C254.469 188.881 257.688 187.706 261.224 187.706V185.706C257.244 185.706 253.59 187.03 250.773 189.234L252.005 190.809ZM261.224 187.706C269.092 187.706 275.303 193.481 275.303 200.409H277.303C277.303 192.201 270.012 185.706 261.224 185.706V187.706ZM275.303 200.409C275.303 202.472 274.758 204.42 273.788 206.145L275.532 207.126C276.662 205.115 277.303 202.831 277.303 200.409H275.303ZM274.102 207.465C279.476 211.081 282.842 216.58 282.842 222.678H284.842C284.842 215.798 281.041 209.724 275.218 205.806L274.102 207.465ZM282.842 222.678C282.842 233.32 272.491 242.233 259.339 242.233V244.233C273.252 244.233 284.842 234.74 284.842 222.678H282.842ZM259.339 242.233C248.964 242.233 240.272 236.653 237.118 229.06L235.271 229.827C238.787 238.291 248.3 244.233 259.339 244.233V242.233Z" fill="#03401C" mask="url(#path-58-inside-2)"/>
<g filter="url(#filter6_d)">
<path d="M262.167 284.343V250.085L261.224 246.659H308.346L307.403 284.343H262.167Z" fill="#FE828D"/>
<path d="M262.167 284.343V250.085L261.224 246.659H308.346L307.403 284.343H262.167Z" stroke="black"/>
</g>
<g filter="url(#filter7_d)">
<path d="M348.87 284.343V250.085L347.927 246.659H395.048V284.343H348.87Z" fill="#FE828D"/>
<path d="M348.87 284.343V250.085L347.927 246.659H395.048V284.343H348.87Z" stroke="black"/>
</g>
<path d="M270.649 264.644V260.362H281.958H293.267V264.644V268.926V276.634H281.958H270.649V268.926V264.644Z" fill="#FBF7EF"/>
<path d="M270.649 268.926V276.634H281.958H293.267V268.926M270.649 268.926V264.644V260.362H281.958H293.267V264.644V268.926M270.649 268.926H293.267" stroke="black"/>
<path d="M363.006 260.362H385.624V268.07V276.634H363.006V268.07V260.362Z" fill="#FBF7EF"/>
<path d="M363.006 268.07V276.634H385.624V268.07M363.006 268.07V260.362H385.624V268.07M363.006 268.07H385.624" stroke="black"/>
<path d="M254.627 250.084L269.706 213.257H387.509L402.588 250.084H254.627Z" fill="#8F6247" stroke="black"/>
<path d="M275.361 244.089V229.529L283.843 221.821L293.267 227.816V244.089H275.361Z" fill="#FE828D" stroke="black"/>
<path d="M283.842 219.252L270.649 226.961L273.476 230.386L283.842 224.391L295.152 230.386L297.979 226.961L283.842 219.252Z" fill="#B17957" stroke="black"/>
<path d="M363.949 244.089V229.529L372.43 221.821L381.855 227.816V244.089H363.949Z" fill="#FE828D" stroke="black"/>
<path d="M372.43 219.252L359.236 226.961L362.064 230.386L372.43 224.391L383.739 230.386L386.567 226.961L372.43 219.252Z" fill="#B17957" stroke="black"/>
<g filter="url(#filter8_d)">
<path d="M303.633 284.342V250.941V250.084L329.079 233.812L353.582 250.084V284.342H303.633Z" fill="#FE828D"/>
<path d="M303.633 284.342V250.941V250.084L329.079 233.812L353.582 250.084V284.342H303.633Z" stroke="black"/>
</g>
<path d="M321.539 259.505V284.343H336.618V259.505H321.539Z" fill="#EFF1D7" stroke="black"/>
<path d="M295.151 254.366L291.382 249.228L328.136 230.386L364.891 250.084L362.064 255.223L328.136 237.237L303.633 250.084L295.151 254.366Z" fill="#B17957" stroke="black"/>
<path d="M3 284.343H625" stroke="black"/>
<path d="M12.4242 304.898H26.5606" stroke="black"/>
<path d="M44.4668 304.898H58.6032" stroke="black"/>
<path d="M76.5092 304.898H90.6455" stroke="black"/>
<path d="M106.667 304.898H120.803" stroke="black"/>
<path d="M138.709 304.898H152.845" stroke="black"/>
<path d="M168.867 304.898H183.003" stroke="black"/>
<path d="M200.909 304.898H215.045" stroke="black"/>
<path d="M232.952 304.898H247.088" stroke="black"/>
<path d="M263.109 304.898H277.245" stroke="black"/>
<path d="M295.151 304.898H309.288" stroke="black"/>
<path d="M325.309 304.898H339.446" stroke="black"/>
<path d="M355.467 304.898H369.603" stroke="black"/>
<path d="M387.509 304.898H401.645" stroke="black"/>
<path d="M415.782 304.898H429.918" stroke="black"/>
<path d="M447.824 304.898H461.961" stroke="black"/>
<path d="M479.867 304.898H494.003" stroke="black"/>
<path d="M510.024 304.898H524.161" stroke="black"/>
<path d="M542.067 304.898H556.203" stroke="black"/>
<path d="M572.224 304.898H586.361" stroke="black"/>
<path d="M604.267 304.898H618.403" stroke="black"/>
<path fill-rule="evenodd" clip-rule="evenodd" d="M344.167 104.41C339.188 110.29 331.85 114.008 323.665 114.008C316.838 114.008 310.599 111.421 305.828 107.149C303.292 107.724 300.597 108.033 297.804 108.033C282.806 108.033 270.649 99.1156 270.649 88.1155C270.649 77.1153 282.806 68.1979 297.804 68.1979C299.445 68.1979 301.052 68.3048 302.613 68.5094C307.593 62.2416 315.174 58.2393 323.665 58.2393C331.125 58.2393 337.882 61.3279 342.79 66.3277C346.386 64.974 350.427 64.2142 354.7 64.2142C369.697 64.2142 381.855 73.5774 381.855 85.1276C381.855 96.6777 369.697 106.041 354.7 106.041C350.965 106.041 347.406 105.46 344.167 104.41Z" fill="#F1FAFF"/>
<path fill-rule="evenodd" clip-rule="evenodd" d="M72.2665 149.981C68.4693 154.466 62.8722 157.301 56.6301 157.301C51.4229 157.301 46.6646 155.328 43.0255 152.07C41.0911 152.508 39.0357 152.744 36.9051 152.744C25.4665 152.744 16.1937 145.943 16.1937 137.553C16.1937 129.163 25.4665 122.362 36.9051 122.362C38.1569 122.362 39.3826 122.443 40.5732 122.599C44.3711 117.818 50.1534 114.766 56.6301 114.766C62.3199 114.766 67.4737 117.122 71.2171 120.935C73.9596 119.903 77.0422 119.323 80.3005 119.323C91.7391 119.323 101.012 126.465 101.012 135.274C101.012 144.084 91.7391 151.225 80.3005 151.225C77.4515 151.225 74.7369 150.782 72.2665 149.981Z" fill="#F1FAFF"/>
<path fill-rule="evenodd" clip-rule="evenodd" d="M422.5 179.687C419.748 182.938 415.69 184.994 411.166 184.994C407.391 184.994 403.942 183.564 401.304 181.202C399.902 181.52 398.412 181.691 396.868 181.691C388.576 181.691 381.855 176.761 381.855 170.679C381.855 164.598 388.576 159.668 396.868 159.668C397.775 159.668 398.664 159.727 399.527 159.84C402.279 156.374 406.471 154.162 411.166 154.162C415.29 154.162 419.025 155.869 421.739 158.633C423.727 157.885 425.961 157.465 428.323 157.465C436.614 157.465 443.336 162.641 443.336 169.027C443.336 175.413 436.614 180.589 428.323 180.589C426.258 180.589 424.291 180.268 422.5 179.687Z" fill="#F1FAFF"/>
<rect x="278.688" y="231.743" width="10.3091" height="7.56454" fill="#FBF7EF" stroke="black"/>
<rect x="367.276" y="231.743" width="10.3091" height="7.56454" fill="#FBF7EF" stroke="black"/>
<defs>
<filter id="filter0_d" x="0.598389" y="258.149" width="48.3684" height="33.8372" filterUnits="userSpaceOnUse" color-interpolation-filters="sRGB">
<feFlood flood-opacity="0" result="BackgroundImageFix"/>
<feColorMatrix in="SourceAlpha" type="matrix" values="0 0 0 0 0 0 0 0 0 0 0 0 0 0 0 0 0 0 127 0"/>
<feOffset dy="4"/>
<feGaussianBlur stdDeviation="2"/>
<feColorMatrix type="matrix" values="0 0 0 0 0 0 0 0 0 0 0 0 0 0 0 0 0 0 0.25 0"/>
<feBlend mode="normal" in2="BackgroundImageFix" result="effect1_dropShadow"/>
<feBlend mode="normal" in="SourceGraphic" in2="effect1_dropShadow" result="shape"/>
</filter>
<filter id="filter1_d" x="564.454" y="251.213" width="63.1606" height="41.6299" filterUnits="userSpaceOnUse" color-interpolation-filters="sRGB">
<feFlood flood-opacity="0" result="BackgroundImageFix"/>
<feColorMatrix in="SourceAlpha" type="matrix" values="0 0 0 0 0 0 0 0 0 0 0 0 0 0 0 0 0 0 127 0"/>
<feOffset dy="4"/>
<feGaussianBlur stdDeviation="2"/>
<feColorMatrix type="matrix" values="0 0 0 0 0 0 0 0 0 0 0 0 0 0 0 0 0 0 0.25 0"/>
<feBlend mode="normal" in2="BackgroundImageFix" result="effect1_dropShadow"/>
<feBlend mode="normal" in="SourceGraphic" in2="effect1_dropShadow" result="shape"/>
</filter>
<filter id="filter2_d" x="507.378" y="222.178" width="65.577" height="70.6647" filterUnits="userSpaceOnUse" color-interpolation-filters="sRGB">
<feFlood flood-opacity="0" result="BackgroundImageFix"/>
<feColorMatrix in="SourceAlpha" type="matrix" values="0 0 0 0 0 0 0 0 0 0 0 0 0 0 0 0 0 0 127 0"/>
<feOffset dy="4"/>
<feGaussianBlur stdDeviation="2"/>
<feColorMatrix type="matrix" values="0 0 0 0 0.65098 0 0 0 0 0.65098 0 0 0 0 0.65098 0 0 0 1 0"/>
<feBlend mode="normal" in2="BackgroundImageFix" result="effect1_dropShadow"/>
<feBlend mode="normal" in="SourceGraphic" in2="effect1_dropShadow" result="shape"/>
</filter>
<filter id="filter3_d" x="448.979" y="184.348" width="75.9121" height="108.495" filterUnits="userSpaceOnUse" color-interpolation-filters="sRGB">
<feFlood flood-opacity="0" result="BackgroundImageFix"/>
<feColorMatrix in="SourceAlpha" type="matrix" values="0 0 0 0 0 0 0 0 0 0 0 0 0 0 0 0 0 0 127 0"/>
<feOffset dy="4"/>
<feGaussianBlur stdDeviation="2"/>
<feColorMatrix type="matrix" values="0 0 0 0 0.65098 0 0 0 0 0.65098 0 0 0 0 0.65098 0 0 0 1 0"/>
<feBlend mode="normal" in2="BackgroundImageFix" result="effect1_dropShadow"/>
<feBlend mode="normal" in="SourceGraphic" in2="effect1_dropShadow" result="shape"/>
</filter>
<filter id="filter4_d" x="40.4668" y="246.659" width="85.2788" height="45.684" filterUnits="userSpaceOnUse" color-interpolation-filters="sRGB">
<feFlood flood-opacity="0" result="BackgroundImageFix"/>
<feColorMatrix in="SourceAlpha" type="matrix" values="0 0 0 0 0 0 0 0 0 0 0 0 0 0 0 0 0 0 127 0"/>
<feOffset dy="4"/>
<feGaussianBlur stdDeviation="2"/>
<feColorMatrix type="matrix" values="0 0 0 0 0.38143 0 0 0 0 0.38163 0 0 0 0 0.381829 0 0 0 0.4 0"/>
<feBlend mode="normal" in2="BackgroundImageFix" result="effect1_dropShadow"/>
<feBlend mode="normal" in="SourceGraphic" in2="effect1_dropShadow" result="shape"/>
</filter>
<filter id="filter5_d" x="116.303" y="233.257" width="77.797" height="58.7301" filterUnits="userSpaceOnUse" color-interpolation-filters="sRGB">
<feFlood flood-opacity="0" result="BackgroundImageFix"/>
<feColorMatrix in="SourceAlpha" type="matrix" values="0 0 0 0 0 0 0 0 0 0 0 0 0 0 0 0 0 0 127 0"/>
<feOffset dy="4"/>
<feGaussianBlur stdDeviation="2"/>
<feColorMatrix type="matrix" values="0 0 0 0 0.38143 0 0 0 0 0.38163 0 0 0 0 0.381829 0 0 0 0.4 0"/>
<feBlend mode="normal" in2="BackgroundImageFix" result="effect1_dropShadow"/>
<feBlend mode="normal" in="SourceGraphic" in2="effect1_dropShadow" result="shape"/>
</filter>
<filter id="filter6_d" x="256.568" y="246.159" width="56.29" height="46.684" filterUnits="userSpaceOnUse" color-interpolation-filters="sRGB">
<feFlood flood-opacity="0" result="BackgroundImageFix"/>
<feColorMatrix in="SourceAlpha" type="matrix" values="0 0 0 0 0 0 0 0 0 0 0 0 0 0 0 0 0 0 127 0"/>
<feOffset dy="4"/>
<feGaussianBlur stdDeviation="2"/>
<feColorMatrix type="matrix" values="0 0 0 0 0.623529 0 0 0 0 0.623529 0 0 0 0 0.623529 0 0 0 1 0"/>
<feBlend mode="normal" in2="BackgroundImageFix" result="effect1_dropShadow"/>
<feBlend mode="normal" in="SourceGraphic" in2="effect1_dropShadow" result="shape"/>
</filter>
<filter id="filter7_d" x="343.271" y="246.159" width="56.2773" height="46.684" filterUnits="userSpaceOnUse" color-interpolation-filters="sRGB">
<feFlood flood-opacity="0" result="BackgroundImageFix"/>
<feColorMatrix in="SourceAlpha" type="matrix" values="0 0 0 0 0 0 0 0 0 0 0 0 0 0 0 0 0 0 127 0"/>
<feOffset dy="4"/>
<feGaussianBlur stdDeviation="2"/>
<feColorMatrix type="matrix" values="0 0 0 0 0.623529 0 0 0 0 0.623529 0 0 0 0 0.623529 0 0 0 1 0"/>
<feBlend mode="normal" in2="BackgroundImageFix" result="effect1_dropShadow"/>
<feBlend mode="normal" in="SourceGraphic" in2="effect1_dropShadow" result="shape"/>
</filter>
<filter id="filter8_d" x="299.133" y="233.215" width="58.9485" height="59.6276" filterUnits="userSpaceOnUse" color-interpolation-filters="sRGB">
<feFlood flood-opacity="0" result="BackgroundImageFix"/>
<feColorMatrix in="SourceAlpha" type="matrix" values="0 0 0 0 0 0 0 0 0 0 0 0 0 0 0 0 0 0 127 0"/>
<feOffset dy="4"/>
<feGaussianBlur stdDeviation="2"/>
<feColorMatrix type="matrix" values="0 0 0 0 0.623529 0 0 0 0 0.623529 0 0 0 0 0.623529 0 0 0 1 0"/>
<feBlend mode="normal" in2="BackgroundImageFix" result="effect1_dropShadow"/>
<feBlend mode="normal" in="SourceGraphic" in2="effect1_dropShadow" result="shape"/>
</filter>
</defs>
</svg>
