<svg width="333" height="228" viewBox="0 0 333 228" fill="none" xmlns="http://www.w3.org/2000/svg">
<path d="M23.0449 154H20.0566V141.906H6.52148V154H3.5332V128.301H6.52148V139.234H20.0566V128.301H23.0449V154ZM37.8105 154.352C34.9629 154.352 32.7129 153.484 31.0605 151.75C29.4199 150.016 28.5996 147.607 28.5996 144.525C28.5996 141.42 29.3613 138.953 30.8848 137.125C32.4199 135.297 34.4766 134.383 37.0547 134.383C39.4688 134.383 41.3789 135.18 42.7852 136.773C44.1914 138.355 44.8945 140.447 44.8945 143.049V144.895H31.623C31.6816 147.156 32.25 148.873 33.3281 150.045C34.418 151.217 35.9473 151.803 37.916 151.803C39.9902 151.803 42.041 151.369 44.0684 150.502V153.104C43.0371 153.549 42.0586 153.865 41.1328 154.053C40.2188 154.252 39.1113 154.352 37.8105 154.352ZM37.0195 136.826C35.4727 136.826 34.2363 137.33 33.3105 138.338C32.3965 139.346 31.8574 140.74 31.6934 142.521H41.7656C41.7656 140.682 41.3555 139.275 40.5352 138.303C39.7148 137.318 38.543 136.826 37.0195 136.826ZM61.7344 154L61.1543 151.258H61.0137C60.0527 152.465 59.0918 153.285 58.1309 153.719C57.1816 154.141 55.9922 154.352 54.5625 154.352C52.6523 154.352 51.1523 153.859 50.0625 152.875C48.9844 151.891 48.4453 150.49 48.4453 148.674C48.4453 144.783 51.5566 142.744 57.7793 142.557L61.0488 142.451V141.256C61.0488 139.744 60.7207 138.631 60.0645 137.916C59.4199 137.189 58.3828 136.826 56.9531 136.826C55.3477 136.826 53.5312 137.318 51.5039 138.303L50.6074 136.07C51.5566 135.555 52.5938 135.15 53.7188 134.857C54.8555 134.564 55.9922 134.418 57.1289 134.418C59.4258 134.418 61.125 134.928 62.2266 135.947C63.3398 136.967 63.8965 138.602 63.8965 140.852V154H61.7344ZM55.1426 151.943C56.959 151.943 58.3828 151.445 59.4141 150.449C60.457 149.453 60.9785 148.059 60.9785 146.266V144.525L58.0605 144.648C55.7402 144.73 54.0645 145.094 53.0332 145.738C52.0137 146.371 51.5039 147.361 51.5039 148.709C51.5039 149.764 51.8203 150.566 52.4531 151.117C53.0977 151.668 53.9941 151.943 55.1426 151.943ZM83.0391 151.416H82.8809C81.5332 153.373 79.5176 154.352 76.834 154.352C74.3145 154.352 72.3516 153.49 70.9453 151.768C69.5508 150.045 68.8535 147.596 68.8535 144.42C68.8535 141.244 69.5566 138.777 70.9629 137.02C72.3691 135.262 74.3262 134.383 76.834 134.383C79.4473 134.383 81.4512 135.332 82.8457 137.23H83.0742L82.9512 135.842L82.8809 134.488V126.648H85.7988V154H83.4258L83.0391 151.416ZM77.2031 151.908C79.1953 151.908 80.6367 151.369 81.5273 150.291C82.4297 149.201 82.8809 147.449 82.8809 145.035V144.42C82.8809 141.689 82.4238 139.744 81.5098 138.584C80.6074 137.412 79.1602 136.826 77.168 136.826C75.457 136.826 74.1445 137.494 73.2305 138.83C72.3281 140.154 71.877 142.029 71.877 144.455C71.877 146.916 72.3281 148.773 73.2305 150.027C74.1328 151.281 75.457 151.908 77.2031 151.908ZM94.9219 154H92.0039V134.734H94.9219V154ZM91.7578 129.514C91.7578 128.846 91.9219 128.359 92.25 128.055C92.5781 127.738 92.9883 127.58 93.4805 127.58C93.9492 127.58 94.3535 127.738 94.6934 128.055C95.0332 128.371 95.2031 128.857 95.2031 129.514C95.2031 130.17 95.0332 130.662 94.6934 130.99C94.3535 131.307 93.9492 131.465 93.4805 131.465C92.9883 131.465 92.5781 131.307 92.25 130.99C91.9219 130.662 91.7578 130.17 91.7578 129.514ZM114.293 154V141.537C114.293 139.967 113.936 138.795 113.221 138.021C112.506 137.248 111.387 136.861 109.863 136.861C107.848 136.861 106.371 137.406 105.434 138.496C104.496 139.586 104.027 141.385 104.027 143.893V154H101.109V134.734H103.482L103.957 137.371H104.098C104.695 136.422 105.533 135.689 106.611 135.174C107.689 134.646 108.891 134.383 110.215 134.383C112.535 134.383 114.281 134.945 115.453 136.07C116.625 137.184 117.211 138.971 117.211 141.432V154H114.293ZM138.99 134.734V136.58L135.422 137.002C135.75 137.412 136.043 137.951 136.301 138.619C136.559 139.275 136.688 140.02 136.688 140.852C136.688 142.738 136.043 144.244 134.754 145.369C133.465 146.494 131.695 147.057 129.445 147.057C128.871 147.057 128.332 147.01 127.828 146.916C126.586 147.572 125.965 148.398 125.965 149.395C125.965 149.922 126.182 150.314 126.615 150.572C127.049 150.818 127.793 150.941 128.848 150.941H132.258C134.344 150.941 135.943 151.381 137.057 152.26C138.182 153.139 138.744 154.416 138.744 156.092C138.744 158.225 137.889 159.848 136.178 160.961C134.467 162.086 131.971 162.648 128.689 162.648C126.17 162.648 124.225 162.18 122.854 161.242C121.494 160.305 120.814 158.98 120.814 157.27C120.814 156.098 121.189 155.084 121.939 154.229C122.689 153.373 123.744 152.793 125.104 152.488C124.611 152.266 124.195 151.92 123.855 151.451C123.527 150.982 123.363 150.438 123.363 149.816C123.363 149.113 123.551 148.498 123.926 147.971C124.301 147.443 124.893 146.934 125.701 146.441C124.705 146.031 123.891 145.334 123.258 144.35C122.637 143.365 122.326 142.24 122.326 140.975C122.326 138.865 122.959 137.242 124.225 136.105C125.49 134.957 127.283 134.383 129.604 134.383C130.611 134.383 131.52 134.5 132.328 134.734H138.99ZM123.627 157.234C123.627 158.277 124.066 159.068 124.945 159.607C125.824 160.146 127.084 160.416 128.725 160.416C131.174 160.416 132.984 160.047 134.156 159.309C135.34 158.582 135.932 157.592 135.932 156.338C135.932 155.295 135.609 154.568 134.965 154.158C134.32 153.76 133.107 153.561 131.326 153.561H127.828C126.504 153.561 125.473 153.877 124.734 154.51C123.996 155.143 123.627 156.051 123.627 157.234ZM125.209 140.904C125.209 142.252 125.59 143.271 126.352 143.963C127.113 144.654 128.174 145 129.533 145C132.381 145 133.805 143.617 133.805 140.852C133.805 137.957 132.363 136.51 129.48 136.51C128.109 136.51 127.055 136.879 126.316 137.617C125.578 138.355 125.209 139.451 125.209 140.904ZM175.043 141.115C175.043 145.229 174 148.463 171.914 150.818C169.84 153.174 166.951 154.352 163.248 154.352C159.463 154.352 156.539 153.197 154.477 150.889C152.426 148.568 151.4 145.299 151.4 141.08C151.4 136.896 152.432 133.656 154.494 131.359C156.557 129.051 159.486 127.896 163.283 127.896C166.975 127.896 169.857 129.068 171.932 131.412C174.006 133.756 175.043 136.99 175.043 141.115ZM154.564 141.115C154.564 144.596 155.303 147.238 156.779 149.043C158.268 150.836 160.424 151.732 163.248 151.732C166.096 151.732 168.246 150.836 169.699 149.043C171.152 147.25 171.879 144.607 171.879 141.115C171.879 137.658 171.152 135.039 169.699 133.258C168.258 131.465 166.119 130.568 163.283 130.568C160.436 130.568 158.268 131.471 156.779 133.275C155.303 135.068 154.564 137.682 154.564 141.115ZM193.535 154V141.537C193.535 139.967 193.178 138.795 192.463 138.021C191.748 137.248 190.629 136.861 189.105 136.861C187.09 136.861 185.613 137.406 184.676 138.496C183.738 139.586 183.27 141.385 183.27 143.893V154H180.352V134.734H182.725L183.199 137.371H183.34C183.938 136.422 184.775 135.689 185.854 135.174C186.932 134.646 188.133 134.383 189.457 134.383C191.777 134.383 193.523 134.945 194.695 136.07C195.867 137.184 196.453 138.971 196.453 141.432V154H193.535ZM210.604 154.352C207.756 154.352 205.506 153.484 203.854 151.75C202.213 150.016 201.393 147.607 201.393 144.525C201.393 141.42 202.154 138.953 203.678 137.125C205.213 135.297 207.27 134.383 209.848 134.383C212.262 134.383 214.172 135.18 215.578 136.773C216.984 138.355 217.688 140.447 217.688 143.049V144.895H204.416C204.475 147.156 205.043 148.873 206.121 150.045C207.211 151.217 208.74 151.803 210.709 151.803C212.783 151.803 214.834 151.369 216.861 150.502V153.104C215.83 153.549 214.852 153.865 213.926 154.053C213.012 154.252 211.904 154.352 210.604 154.352ZM209.812 136.826C208.266 136.826 207.029 137.33 206.104 138.338C205.189 139.346 204.65 140.74 204.486 142.521H214.559C214.559 140.682 214.148 139.275 213.328 138.303C212.508 137.318 211.336 136.826 209.812 136.826ZM230.379 144.139C230.379 141.033 230.83 138.127 231.732 135.42C232.646 132.713 233.959 130.34 235.67 128.301H238.518C236.83 130.562 235.559 133.047 234.703 135.754C233.859 138.461 233.438 141.244 233.438 144.104C233.438 146.916 233.871 149.664 234.738 152.348C235.605 155.031 236.854 157.48 238.482 159.695H235.67C233.947 157.703 232.635 155.377 231.732 152.717C230.83 150.057 230.379 147.197 230.379 144.139ZM259.453 148.094H255.639V154H252.844V148.094H240.346V145.545L252.545 128.16H255.639V145.439H259.453V148.094ZM252.844 145.439V136.896C252.844 135.221 252.902 133.328 253.02 131.219H252.879C252.316 132.344 251.789 133.275 251.297 134.014L243.264 145.439H252.844ZM270.457 127.932C272.801 127.932 274.658 128.477 276.029 129.566C277.4 130.656 278.086 132.162 278.086 134.084C278.086 135.35 277.693 136.504 276.908 137.547C276.123 138.59 274.869 139.539 273.146 140.395C275.232 141.391 276.715 142.439 277.594 143.541C278.473 144.631 278.912 145.896 278.912 147.338C278.912 149.471 278.168 151.176 276.68 152.453C275.191 153.719 273.152 154.352 270.562 154.352C267.82 154.352 265.711 153.754 264.234 152.559C262.758 151.352 262.02 149.646 262.02 147.443C262.02 144.502 263.812 142.211 267.398 140.57C265.781 139.656 264.621 138.672 263.918 137.617C263.215 136.551 262.863 135.361 262.863 134.049C262.863 132.186 263.549 130.703 264.92 129.602C266.303 128.488 268.148 127.932 270.457 127.932ZM264.902 147.514C264.902 148.92 265.389 150.016 266.361 150.801C267.346 151.586 268.723 151.979 270.492 151.979C272.238 151.979 273.598 151.568 274.57 150.748C275.543 149.928 276.029 148.803 276.029 147.373C276.029 146.236 275.572 145.229 274.658 144.35C273.744 143.459 272.15 142.598 269.877 141.766C268.131 142.516 266.865 143.348 266.08 144.262C265.295 145.164 264.902 146.248 264.902 147.514ZM270.422 130.305C268.957 130.305 267.809 130.656 266.977 131.359C266.145 132.062 265.729 133 265.729 134.172C265.729 135.25 266.074 136.176 266.766 136.949C267.457 137.723 268.734 138.496 270.598 139.27C272.273 138.566 273.457 137.811 274.148 137.002C274.852 136.193 275.203 135.25 275.203 134.172C275.203 132.988 274.775 132.051 273.92 131.359C273.076 130.656 271.91 130.305 270.422 130.305ZM292.852 154.352C291.598 154.352 290.449 154.123 289.406 153.666C288.375 153.197 287.508 152.482 286.805 151.521H286.594C286.734 152.646 286.805 153.713 286.805 154.721V162.648H283.887V134.734H286.26L286.664 137.371H286.805C287.555 136.316 288.428 135.555 289.424 135.086C290.42 134.617 291.562 134.383 292.852 134.383C295.406 134.383 297.375 135.256 298.758 137.002C300.152 138.748 300.85 141.197 300.85 144.35C300.85 147.514 300.141 149.975 298.723 151.732C297.316 153.479 295.359 154.352 292.852 154.352ZM292.43 136.861C290.461 136.861 289.037 137.406 288.158 138.496C287.279 139.586 286.828 141.32 286.805 143.699V144.35C286.805 147.057 287.256 148.996 288.158 150.168C289.061 151.328 290.508 151.908 292.5 151.908C294.164 151.908 295.465 151.234 296.402 149.887C297.352 148.539 297.826 146.682 297.826 144.314C297.826 141.912 297.352 140.072 296.402 138.795C295.465 137.506 294.141 136.861 292.43 136.861ZM310.605 144.139L303.908 134.734H307.23L312.311 142.117L317.373 134.734H320.66L313.963 144.139L321.012 154H317.707L312.311 146.195L306.861 154H303.557L310.605 144.139ZM330.961 144.139C330.961 147.221 330.504 150.092 329.59 152.752C328.688 155.412 327.381 157.727 325.67 159.695H322.857C324.486 157.492 325.734 155.049 326.602 152.365C327.469 149.67 327.902 146.916 327.902 144.104C327.902 141.244 327.475 138.461 326.619 135.754C325.775 133.047 324.51 130.562 322.822 128.301H325.67C327.393 130.352 328.705 132.736 329.607 135.455C330.51 138.162 330.961 141.057 330.961 144.139Z" fill="#4F4F4F"/>
<path d="M18.9238 193H16.5996V183.594H6.07227V193H3.74805V173.012H6.07227V181.516H16.5996V173.012H18.9238V193ZM30.4082 193.273C28.1934 193.273 26.4434 192.599 25.1582 191.25C23.8822 189.901 23.2441 188.028 23.2441 185.631C23.2441 183.215 23.8366 181.297 25.0215 179.875C26.2155 178.453 27.8151 177.742 29.8203 177.742C31.6979 177.742 33.1836 178.362 34.2773 179.602C35.3711 180.832 35.918 182.459 35.918 184.482V185.918H25.5957C25.6413 187.677 26.0833 189.012 26.9219 189.924C27.7695 190.835 28.959 191.291 30.4902 191.291C32.1035 191.291 33.6986 190.954 35.2754 190.279V192.303C34.4733 192.649 33.7122 192.895 32.9922 193.041C32.2812 193.196 31.4199 193.273 30.4082 193.273ZM29.793 179.643C28.5898 179.643 27.6283 180.035 26.9082 180.818C26.1973 181.602 25.778 182.687 25.6504 184.072H33.4844C33.4844 182.641 33.1654 181.548 32.5273 180.791C31.8893 180.025 30.9779 179.643 29.793 179.643ZM49.0156 193L48.5645 190.867H48.4551C47.7077 191.806 46.9603 192.444 46.2129 192.781C45.4746 193.109 44.5495 193.273 43.4375 193.273C41.9518 193.273 40.7852 192.891 39.9375 192.125C39.099 191.359 38.6797 190.27 38.6797 188.857C38.6797 185.831 41.0996 184.245 45.9395 184.1L48.4824 184.018V183.088C48.4824 181.912 48.2272 181.046 47.7168 180.49C47.2155 179.925 46.4089 179.643 45.2969 179.643C44.0482 179.643 42.6354 180.025 41.0586 180.791L40.3613 179.055C41.0996 178.654 41.9062 178.339 42.7812 178.111C43.6654 177.883 44.5495 177.77 45.4336 177.77C47.2201 177.77 48.5417 178.166 49.3984 178.959C50.2643 179.752 50.6973 181.023 50.6973 182.773V193H49.0156ZM43.8887 191.4C45.3014 191.4 46.4089 191.013 47.2109 190.238C48.0221 189.464 48.4277 188.379 48.4277 186.984V185.631L46.1582 185.727C44.3535 185.79 43.0501 186.073 42.248 186.574C41.4551 187.066 41.0586 187.837 41.0586 188.885C41.0586 189.705 41.3047 190.329 41.7969 190.758C42.2982 191.186 42.9954 191.4 43.8887 191.4ZM65.5859 190.99H65.4629C64.4147 192.512 62.847 193.273 60.7598 193.273C58.8001 193.273 57.2734 192.604 56.1797 191.264C55.0951 189.924 54.5527 188.019 54.5527 185.549C54.5527 183.079 55.0996 181.16 56.1934 179.793C57.2871 178.426 58.8092 177.742 60.7598 177.742C62.7923 177.742 64.3509 178.48 65.4355 179.957H65.6133L65.5176 178.877L65.4629 177.824V171.727H67.7324V193H65.8867L65.5859 190.99ZM61.0469 191.373C62.5964 191.373 63.7174 190.954 64.4102 190.115C65.112 189.268 65.4629 187.905 65.4629 186.027V185.549C65.4629 183.425 65.1074 181.912 64.3965 181.01C63.6947 180.098 62.569 179.643 61.0195 179.643C59.6888 179.643 58.668 180.162 57.957 181.201C57.2552 182.231 56.9043 183.689 56.9043 185.576C56.9043 187.49 57.2552 188.935 57.957 189.91C58.6589 190.885 59.6888 191.373 61.0469 191.373ZM74.8281 193H72.5586V178.016H74.8281V193ZM72.3672 173.955C72.3672 173.436 72.4948 173.057 72.75 172.82C73.0052 172.574 73.3242 172.451 73.707 172.451C74.0716 172.451 74.3861 172.574 74.6504 172.82C74.9147 173.066 75.0469 173.445 75.0469 173.955C75.0469 174.465 74.9147 174.848 74.6504 175.104C74.3861 175.35 74.0716 175.473 73.707 175.473C73.3242 175.473 73.0052 175.35 72.75 175.104C72.4948 174.848 72.3672 174.465 72.3672 173.955ZM89.8945 193V183.307C89.8945 182.085 89.6165 181.174 89.0605 180.572C88.5046 179.971 87.6341 179.67 86.4492 179.67C84.8815 179.67 83.7331 180.094 83.0039 180.941C82.2747 181.789 81.9102 183.188 81.9102 185.139V193H79.6406V178.016H81.4863L81.8555 180.066H81.9648C82.4297 179.328 83.0814 178.758 83.9199 178.357C84.7585 177.947 85.6927 177.742 86.7227 177.742C88.5273 177.742 89.8854 178.18 90.7969 179.055C91.7083 179.921 92.1641 181.311 92.1641 183.225V193H89.8945ZM109.104 178.016V179.451L106.328 179.779C106.583 180.098 106.811 180.518 107.012 181.037C107.212 181.548 107.312 182.126 107.312 182.773C107.312 184.241 106.811 185.412 105.809 186.287C104.806 187.162 103.43 187.6 101.68 187.6C101.233 187.6 100.814 187.563 100.422 187.49C99.4557 188.001 98.9727 188.643 98.9727 189.418C98.9727 189.828 99.1413 190.133 99.4785 190.334C99.8158 190.525 100.395 190.621 101.215 190.621H103.867C105.49 190.621 106.734 190.963 107.6 191.646C108.475 192.33 108.912 193.324 108.912 194.627C108.912 196.286 108.247 197.548 106.916 198.414C105.585 199.289 103.644 199.727 101.092 199.727C99.1322 199.727 97.6191 199.362 96.5527 198.633C95.4954 197.904 94.9668 196.874 94.9668 195.543C94.9668 194.632 95.2585 193.843 95.8418 193.178C96.4251 192.512 97.2454 192.061 98.3027 191.824C97.9199 191.651 97.5964 191.382 97.332 191.018C97.0768 190.653 96.9492 190.229 96.9492 189.746C96.9492 189.199 97.0951 188.721 97.3867 188.311C97.6784 187.9 98.1387 187.504 98.7676 187.121C97.9928 186.802 97.3594 186.26 96.8672 185.494C96.3841 184.729 96.1426 183.854 96.1426 182.869C96.1426 181.229 96.6348 179.966 97.6191 179.082C98.6035 178.189 99.998 177.742 101.803 177.742C102.587 177.742 103.293 177.833 103.922 178.016H109.104ZM97.1543 195.516C97.1543 196.327 97.4961 196.942 98.1797 197.361C98.8633 197.781 99.8431 197.99 101.119 197.99C103.024 197.99 104.432 197.703 105.344 197.129C106.264 196.564 106.725 195.794 106.725 194.818C106.725 194.007 106.474 193.442 105.973 193.123C105.471 192.813 104.528 192.658 103.143 192.658H100.422C99.3919 192.658 98.5898 192.904 98.0156 193.396C97.4414 193.889 97.1543 194.595 97.1543 195.516ZM98.3848 182.814C98.3848 183.863 98.681 184.656 99.2734 185.193C99.8659 185.731 100.691 186 101.748 186C103.963 186 105.07 184.924 105.07 182.773C105.07 180.522 103.949 179.396 101.707 179.396C100.641 179.396 99.8203 179.684 99.2461 180.258C98.6719 180.832 98.3848 181.684 98.3848 182.814ZM125.947 193H123.623V175.076H117.293V173.012H132.277V175.076H125.947V193ZM147.193 193L144.445 184.209C144.272 183.671 143.949 182.45 143.475 180.545H143.365C143.001 182.14 142.682 183.37 142.408 184.236L139.578 193H136.953L132.865 178.016H135.244C136.21 181.78 136.944 184.646 137.445 186.615C137.956 188.584 138.247 189.91 138.32 190.594H138.43C138.53 190.074 138.689 189.404 138.908 188.584C139.136 187.755 139.332 187.098 139.496 186.615L142.244 178.016H144.705L147.385 186.615C147.895 188.183 148.242 189.5 148.424 190.566H148.533C148.57 190.238 148.665 189.732 148.82 189.049C148.984 188.365 149.937 184.688 151.678 178.016H154.029L149.887 193H147.193ZM169.684 185.494C169.684 187.937 169.068 189.846 167.838 191.223C166.607 192.59 164.908 193.273 162.738 193.273C161.398 193.273 160.209 192.959 159.17 192.33C158.131 191.701 157.329 190.799 156.764 189.623C156.199 188.447 155.916 187.071 155.916 185.494C155.916 183.051 156.527 181.151 157.748 179.793C158.969 178.426 160.665 177.742 162.834 177.742C164.93 177.742 166.594 178.439 167.824 179.834C169.064 181.229 169.684 183.115 169.684 185.494ZM158.268 185.494C158.268 187.408 158.65 188.867 159.416 189.869C160.182 190.872 161.307 191.373 162.793 191.373C164.279 191.373 165.404 190.876 166.17 189.883C166.945 188.88 167.332 187.417 167.332 185.494C167.332 183.589 166.945 182.145 166.17 181.16C165.404 180.167 164.27 179.67 162.766 179.67C161.28 179.67 160.159 180.158 159.402 181.133C158.646 182.108 158.268 183.562 158.268 185.494ZM179.664 185.33C179.664 182.915 180.015 180.654 180.717 178.549C181.428 176.443 182.449 174.598 183.779 173.012H185.994C184.682 174.771 183.693 176.703 183.027 178.809C182.371 180.914 182.043 183.079 182.043 185.303C182.043 187.49 182.38 189.628 183.055 191.715C183.729 193.802 184.7 195.707 185.967 197.43H183.779C182.439 195.88 181.419 194.071 180.717 192.002C180.015 189.933 179.664 187.709 179.664 185.33ZM200.582 177.715C200.582 178.991 200.222 180.035 199.502 180.846C198.791 181.657 197.779 182.199 196.467 182.473V182.582C198.071 182.783 199.26 183.293 200.035 184.113C200.81 184.934 201.197 186.009 201.197 187.34C201.197 189.245 200.536 190.712 199.215 191.742C197.893 192.763 196.016 193.273 193.582 193.273C192.525 193.273 191.554 193.191 190.67 193.027C189.795 192.872 188.943 192.594 188.113 192.193V190.033C188.979 190.462 189.9 190.79 190.875 191.018C191.859 191.236 192.789 191.346 193.664 191.346C197.118 191.346 198.846 189.992 198.846 187.285C198.846 184.861 196.941 183.648 193.131 183.648H191.162V181.693H193.158C194.717 181.693 195.952 181.352 196.863 180.668C197.775 179.975 198.23 179.018 198.23 177.797C198.23 176.822 197.893 176.056 197.219 175.5C196.553 174.944 195.646 174.666 194.498 174.666C193.623 174.666 192.798 174.785 192.023 175.021C191.249 175.258 190.365 175.696 189.371 176.334L188.223 174.803C189.043 174.156 189.986 173.65 191.053 173.285C192.128 172.911 193.258 172.725 194.443 172.725C196.385 172.725 197.893 173.171 198.969 174.064C200.044 174.949 200.582 176.165 200.582 177.715ZM204.451 184.455C204.451 180.527 205.212 177.592 206.734 175.65C208.266 173.7 210.526 172.725 213.516 172.725C214.546 172.725 215.357 172.811 215.949 172.984V174.939C215.247 174.712 214.445 174.598 213.543 174.598C211.401 174.598 209.765 175.268 208.635 176.607C207.505 177.938 206.885 180.035 206.775 182.896H206.939C207.942 181.329 209.528 180.545 211.697 180.545C213.493 180.545 214.906 181.087 215.936 182.172C216.975 183.257 217.494 184.729 217.494 186.588C217.494 188.666 216.924 190.302 215.785 191.496C214.655 192.681 213.124 193.273 211.191 193.273C209.122 193.273 207.482 192.499 206.27 190.949C205.057 189.391 204.451 187.226 204.451 184.455ZM211.164 191.346C212.458 191.346 213.461 190.94 214.172 190.129C214.892 189.309 215.252 188.128 215.252 186.588C215.252 185.266 214.919 184.227 214.254 183.471C213.589 182.714 212.595 182.336 211.273 182.336C210.453 182.336 209.701 182.505 209.018 182.842C208.334 183.179 207.787 183.644 207.377 184.236C206.976 184.829 206.775 185.444 206.775 186.082C206.775 187.021 206.958 187.896 207.322 188.707C207.687 189.518 208.202 190.161 208.867 190.635C209.542 191.109 210.307 191.346 211.164 191.346ZM228.254 193.273C227.279 193.273 226.385 193.096 225.574 192.74C224.772 192.376 224.098 191.82 223.551 191.072H223.387C223.496 191.947 223.551 192.777 223.551 193.561V199.727H221.281V178.016H223.127L223.441 180.066H223.551C224.134 179.246 224.813 178.654 225.588 178.289C226.363 177.924 227.251 177.742 228.254 177.742C230.241 177.742 231.772 178.421 232.848 179.779C233.932 181.137 234.475 183.042 234.475 185.494C234.475 187.955 233.923 189.869 232.82 191.236C231.727 192.594 230.204 193.273 228.254 193.273ZM227.926 179.67C226.395 179.67 225.287 180.094 224.604 180.941C223.92 181.789 223.569 183.138 223.551 184.988V185.494C223.551 187.6 223.902 189.108 224.604 190.02C225.305 190.922 226.431 191.373 227.98 191.373C229.275 191.373 230.286 190.849 231.016 189.801C231.754 188.753 232.123 187.308 232.123 185.467C232.123 183.598 231.754 182.167 231.016 181.174C230.286 180.171 229.257 179.67 227.926 179.67ZM242.062 185.33L236.854 178.016H239.438L243.389 183.758L247.326 178.016H249.883L244.674 185.33L250.156 193H247.586L243.389 186.93L239.15 193H236.58L242.062 185.33ZM257.895 185.33C257.895 187.727 257.539 189.96 256.828 192.029C256.126 194.098 255.11 195.898 253.779 197.43H251.592C252.859 195.716 253.829 193.816 254.504 191.729C255.178 189.632 255.516 187.49 255.516 185.303C255.516 183.079 255.183 180.914 254.518 178.809C253.861 176.703 252.877 174.771 251.564 173.012H253.779C255.119 174.607 256.14 176.462 256.842 178.576C257.544 180.682 257.895 182.933 257.895 185.33Z" fill="#4F4F4F"/>
<path d="M14.8027 222H13.1426V215.281H5.62305V222H3.96289V207.723H5.62305V213.797H13.1426V207.723H14.8027V222ZM23.0059 222.195C21.4238 222.195 20.1738 221.714 19.2559 220.75C18.3444 219.786 17.8887 218.449 17.8887 216.736C17.8887 215.011 18.3118 213.641 19.1582 212.625C20.0111 211.609 21.1536 211.102 22.5859 211.102C23.9271 211.102 24.9883 211.544 25.7695 212.43C26.5508 213.309 26.9414 214.471 26.9414 215.916V216.941H19.5684C19.6009 218.198 19.9167 219.152 20.5156 219.803C21.1211 220.454 21.9707 220.779 23.0645 220.779C24.2168 220.779 25.3561 220.538 26.4824 220.057V221.502C25.9095 221.749 25.3659 221.925 24.8516 222.029C24.3438 222.14 23.7285 222.195 23.0059 222.195ZM22.5664 212.459C21.707 212.459 21.0202 212.739 20.5059 213.299C19.998 213.859 19.6986 214.633 19.6074 215.623H25.2031C25.2031 214.601 24.9753 213.82 24.5195 213.279C24.0638 212.732 23.4128 212.459 22.5664 212.459ZM36.2969 222L35.9746 220.477H35.8965C35.3626 221.147 34.8288 221.603 34.2949 221.844C33.7676 222.078 33.1068 222.195 32.3125 222.195C31.2513 222.195 30.418 221.922 29.8125 221.375C29.2135 220.828 28.9141 220.05 28.9141 219.041C28.9141 216.88 30.6426 215.747 34.0996 215.643L35.916 215.584V214.92C35.916 214.08 35.7337 213.462 35.3691 213.064C35.0111 212.661 34.4349 212.459 33.6406 212.459C32.7487 212.459 31.7396 212.732 30.6133 213.279L30.1152 212.039C30.6426 211.753 31.2188 211.528 31.8438 211.365C32.4753 211.202 33.1068 211.121 33.7383 211.121C35.0143 211.121 35.9583 211.404 36.5703 211.971C37.1888 212.537 37.498 213.445 37.498 214.695V222H36.2969ZM32.6348 220.857C33.6439 220.857 34.4349 220.581 35.0078 220.027C35.5872 219.474 35.877 218.699 35.877 217.703V216.736L34.2559 216.805C32.9668 216.85 32.0358 217.052 31.4629 217.41C30.8965 217.762 30.6133 218.312 30.6133 219.061C30.6133 219.646 30.7891 220.092 31.1406 220.398C31.4987 220.704 31.9967 220.857 32.6348 220.857ZM48.1328 220.564H48.0449C47.2962 221.652 46.1764 222.195 44.6855 222.195C43.2858 222.195 42.1953 221.717 41.4141 220.76C40.6393 219.803 40.252 218.442 40.252 216.678C40.252 214.913 40.6426 213.543 41.4238 212.566C42.2051 211.59 43.2923 211.102 44.6855 211.102C46.1374 211.102 47.2507 211.629 48.0254 212.684H48.1523L48.084 211.912L48.0449 211.16V206.805H49.666V222H48.3477L48.1328 220.564ZM44.8906 220.838C45.9974 220.838 46.7982 220.538 47.293 219.939C47.7943 219.334 48.0449 218.361 48.0449 217.02V216.678C48.0449 215.161 47.791 214.08 47.2832 213.436C46.7819 212.785 45.9779 212.459 44.8711 212.459C43.9206 212.459 43.1914 212.83 42.6836 213.572C42.1823 214.308 41.9316 215.35 41.9316 216.697C41.9316 218.064 42.1823 219.096 42.6836 219.793C43.1849 220.49 43.9206 220.838 44.8906 220.838ZM54.7344 222H53.1133V211.297H54.7344V222ZM52.9766 208.396C52.9766 208.025 53.0677 207.755 53.25 207.586C53.4323 207.41 53.6602 207.322 53.9336 207.322C54.194 207.322 54.4186 207.41 54.6074 207.586C54.7962 207.762 54.8906 208.032 54.8906 208.396C54.8906 208.761 54.7962 209.035 54.6074 209.217C54.4186 209.393 54.194 209.48 53.9336 209.48C53.6602 209.48 53.4323 209.393 53.25 209.217C53.0677 209.035 52.9766 208.761 52.9766 208.396ZM65.4961 222V215.076C65.4961 214.204 65.2975 213.553 64.9004 213.123C64.5033 212.693 63.8815 212.479 63.0352 212.479C61.9154 212.479 61.0951 212.781 60.5742 213.387C60.0534 213.992 59.793 214.992 59.793 216.385V222H58.1719V211.297H59.4902L59.7539 212.762H59.832C60.1641 212.234 60.6296 211.827 61.2285 211.541C61.8275 211.248 62.4948 211.102 63.2305 211.102C64.5195 211.102 65.4896 211.414 66.1406 212.039C66.7917 212.658 67.1172 213.65 67.1172 215.018V222H65.4961ZM79.2168 211.297V212.322L77.2344 212.557C77.4167 212.785 77.5794 213.084 77.7227 213.455C77.8659 213.82 77.9375 214.233 77.9375 214.695C77.9375 215.743 77.5794 216.58 76.8633 217.205C76.1471 217.83 75.1641 218.143 73.9141 218.143C73.5951 218.143 73.2956 218.117 73.0156 218.064C72.3255 218.429 71.9805 218.888 71.9805 219.441C71.9805 219.734 72.1009 219.952 72.3418 220.096C72.5827 220.232 72.9961 220.301 73.582 220.301H75.4766C76.6354 220.301 77.5241 220.545 78.1426 221.033C78.7676 221.521 79.0801 222.231 79.0801 223.162C79.0801 224.347 78.6048 225.249 77.6543 225.867C76.7038 226.492 75.3171 226.805 73.4941 226.805C72.0944 226.805 71.0137 226.544 70.252 226.023C69.4967 225.503 69.1191 224.767 69.1191 223.816C69.1191 223.165 69.3275 222.602 69.7441 222.127C70.1608 221.652 70.7467 221.329 71.502 221.16C71.2285 221.036 70.9974 220.844 70.8086 220.584C70.6263 220.324 70.5352 220.021 70.5352 219.676C70.5352 219.285 70.6393 218.943 70.8477 218.65C71.056 218.357 71.3848 218.074 71.834 217.801C71.2806 217.573 70.8281 217.186 70.4766 216.639C70.1315 216.092 69.959 215.467 69.959 214.764C69.959 213.592 70.3105 212.69 71.0137 212.059C71.7168 211.421 72.7129 211.102 74.002 211.102C74.5618 211.102 75.0664 211.167 75.5156 211.297H79.2168ZM70.6816 223.797C70.6816 224.376 70.9258 224.816 71.4141 225.115C71.9023 225.415 72.6022 225.564 73.5137 225.564C74.8743 225.564 75.8802 225.359 76.5312 224.949C77.1888 224.546 77.5176 223.995 77.5176 223.299C77.5176 222.719 77.3385 222.316 76.9805 222.088C76.6224 221.867 75.9486 221.756 74.959 221.756H73.0156C72.2799 221.756 71.707 221.932 71.2969 222.283C70.8867 222.635 70.6816 223.139 70.6816 223.797ZM71.5605 214.725C71.5605 215.473 71.7721 216.04 72.1953 216.424C72.6185 216.808 73.2077 217 73.9629 217C75.5449 217 76.3359 216.232 76.3359 214.695C76.3359 213.087 75.5352 212.283 73.9336 212.283C73.1719 212.283 72.5859 212.488 72.1758 212.898C71.7656 213.309 71.5605 213.917 71.5605 214.725ZM91.248 222H89.5879V209.197H85.0664V207.723H95.7695V209.197H91.248V222ZM105.008 222V215.076C105.008 214.204 104.809 213.553 104.412 213.123C104.015 212.693 103.393 212.479 102.547 212.479C101.421 212.479 100.597 212.785 100.076 213.396C99.5618 214.008 99.3047 215.011 99.3047 216.404V222H97.6836V206.805H99.3047V211.404C99.3047 211.958 99.2786 212.417 99.2266 212.781H99.3242C99.6432 212.267 100.096 211.863 100.682 211.57C101.274 211.271 101.948 211.121 102.703 211.121C104.012 211.121 104.992 211.434 105.643 212.059C106.3 212.677 106.629 213.663 106.629 215.018V222H105.008ZM114.852 211.102C115.327 211.102 115.753 211.141 116.131 211.219L115.906 212.723C115.464 212.625 115.073 212.576 114.734 212.576C113.868 212.576 113.126 212.928 112.508 213.631C111.896 214.334 111.59 215.21 111.59 216.258V222H109.969V211.297H111.307L111.492 213.279H111.57C111.967 212.583 112.446 212.046 113.006 211.668C113.566 211.29 114.181 211.102 114.852 211.102ZM122.654 222.195C121.072 222.195 119.822 221.714 118.904 220.75C117.993 219.786 117.537 218.449 117.537 216.736C117.537 215.011 117.96 213.641 118.807 212.625C119.66 211.609 120.802 211.102 122.234 211.102C123.576 211.102 124.637 211.544 125.418 212.43C126.199 213.309 126.59 214.471 126.59 215.916V216.941H119.217C119.249 218.198 119.565 219.152 120.164 219.803C120.77 220.454 121.619 220.779 122.713 220.779C123.865 220.779 125.005 220.538 126.131 220.057V221.502C125.558 221.749 125.014 221.925 124.5 222.029C123.992 222.14 123.377 222.195 122.654 222.195ZM122.215 212.459C121.355 212.459 120.669 212.739 120.154 213.299C119.646 213.859 119.347 214.633 119.256 215.623H124.852C124.852 214.601 124.624 213.82 124.168 213.279C123.712 212.732 123.061 212.459 122.215 212.459ZM133.885 222.195C132.303 222.195 131.053 221.714 130.135 220.75C129.223 219.786 128.768 218.449 128.768 216.736C128.768 215.011 129.191 213.641 130.037 212.625C130.89 211.609 132.033 211.102 133.465 211.102C134.806 211.102 135.867 211.544 136.648 212.43C137.43 213.309 137.82 214.471 137.82 215.916V216.941H130.447C130.48 218.198 130.796 219.152 131.395 219.803C132 220.454 132.85 220.779 133.943 220.779C135.096 220.779 136.235 220.538 137.361 220.057V221.502C136.788 221.749 136.245 221.925 135.73 222.029C135.223 222.14 134.607 222.195 133.885 222.195ZM133.445 212.459C132.586 212.459 131.899 212.739 131.385 213.299C130.877 213.859 130.577 214.633 130.486 215.623H136.082C136.082 214.601 135.854 213.82 135.398 213.279C134.943 212.732 134.292 212.459 133.445 212.459ZM144.871 216.521C144.871 214.796 145.122 213.182 145.623 211.678C146.131 210.174 146.86 208.855 147.811 207.723H149.393C148.455 208.979 147.749 210.359 147.273 211.863C146.805 213.367 146.57 214.913 146.57 216.502C146.57 218.064 146.811 219.591 147.293 221.082C147.775 222.573 148.468 223.934 149.373 225.164H147.811C146.854 224.057 146.124 222.765 145.623 221.287C145.122 219.809 144.871 218.221 144.871 216.521ZM160.35 222H150.965V220.604L154.725 216.824C155.87 215.665 156.626 214.839 156.99 214.344C157.355 213.849 157.628 213.367 157.811 212.898C157.993 212.43 158.084 211.925 158.084 211.385C158.084 210.623 157.853 210.021 157.391 209.578C156.928 209.129 156.287 208.904 155.467 208.904C154.874 208.904 154.311 209.002 153.777 209.197C153.25 209.393 152.661 209.747 152.01 210.262L151.15 209.158C152.465 208.064 153.898 207.518 155.447 207.518C156.788 207.518 157.84 207.863 158.602 208.553C159.363 209.236 159.744 210.158 159.744 211.316C159.744 212.221 159.49 213.117 158.982 214.002C158.475 214.887 157.524 216.007 156.131 217.361L153.006 220.418V220.496H160.35V222ZM162.576 215.896C162.576 213.09 163.12 210.994 164.207 209.607C165.301 208.214 166.915 207.518 169.051 207.518C169.786 207.518 170.366 207.579 170.789 207.703V209.1C170.288 208.937 169.715 208.855 169.07 208.855C167.54 208.855 166.372 209.334 165.564 210.291C164.757 211.242 164.314 212.739 164.236 214.783H164.354C165.07 213.663 166.202 213.104 167.752 213.104C169.035 213.104 170.044 213.491 170.779 214.266C171.521 215.04 171.893 216.092 171.893 217.42C171.893 218.904 171.486 220.073 170.672 220.926C169.865 221.772 168.771 222.195 167.391 222.195C165.913 222.195 164.741 221.642 163.875 220.535C163.009 219.422 162.576 217.876 162.576 215.896ZM167.371 220.818C168.296 220.818 169.012 220.529 169.52 219.949C170.034 219.363 170.291 218.52 170.291 217.42C170.291 216.476 170.053 215.734 169.578 215.193C169.103 214.653 168.393 214.383 167.449 214.383C166.863 214.383 166.326 214.503 165.838 214.744C165.35 214.985 164.959 215.317 164.666 215.74C164.38 216.163 164.236 216.603 164.236 217.059C164.236 217.729 164.367 218.354 164.627 218.934C164.887 219.513 165.255 219.972 165.73 220.311C166.212 220.649 166.759 220.818 167.371 220.818ZM179.578 222.195C178.882 222.195 178.243 222.068 177.664 221.814C177.091 221.554 176.609 221.157 176.219 220.623H176.102C176.18 221.248 176.219 221.84 176.219 222.4V226.805H174.598V211.297H175.916L176.141 212.762H176.219C176.635 212.176 177.12 211.753 177.674 211.492C178.227 211.232 178.862 211.102 179.578 211.102C180.997 211.102 182.091 211.587 182.859 212.557C183.634 213.527 184.021 214.887 184.021 216.639C184.021 218.396 183.628 219.764 182.84 220.74C182.059 221.71 180.971 222.195 179.578 222.195ZM179.344 212.479C178.25 212.479 177.459 212.781 176.971 213.387C176.482 213.992 176.232 214.956 176.219 216.277V216.639C176.219 218.143 176.469 219.22 176.971 219.871C177.472 220.516 178.276 220.838 179.383 220.838C180.307 220.838 181.03 220.464 181.551 219.715C182.078 218.966 182.342 217.934 182.342 216.619C182.342 215.285 182.078 214.262 181.551 213.553C181.03 212.837 180.294 212.479 179.344 212.479ZM189.441 216.521L185.721 211.297H187.566L190.389 215.398L193.201 211.297H195.027L191.307 216.521L195.223 222H193.387L190.389 217.664L187.361 222H185.525L189.441 216.521ZM200.75 216.521C200.75 218.234 200.496 219.829 199.988 221.307C199.487 222.785 198.761 224.07 197.811 225.164H196.248C197.153 223.94 197.846 222.583 198.328 221.092C198.81 219.594 199.051 218.064 199.051 216.502C199.051 214.913 198.813 213.367 198.338 211.863C197.869 210.359 197.166 208.979 196.229 207.723H197.811C198.768 208.862 199.497 210.187 199.998 211.697C200.499 213.201 200.75 214.809 200.75 216.521Z" fill="#4F4F4F"/>
<path d="M16.7559 13.8418C16.7559 16.2051 16.1699 18.0215 14.998 19.291C13.8262 20.5605 12.1465 21.1953 9.95898 21.1953C7.77148 21.1953 6.0918 20.5605 4.91992 19.291C3.74805 18.0215 3.16211 16.1986 3.16211 13.8223C3.16211 11.446 3.74805 9.63281 4.91992 8.38281C6.09831 7.1263 7.78451 6.49805 9.97852 6.49805C12.1725 6.49805 13.849 7.12956 15.0078 8.39258C16.1732 9.6556 16.7559 11.472 16.7559 13.8418ZM6.33594 13.8418C6.33594 15.4368 6.63867 16.638 7.24414 17.4453C7.84961 18.2526 8.75456 18.6562 9.95898 18.6562C12.3743 18.6562 13.582 17.0514 13.582 13.8418C13.582 10.6257 12.3809 9.01758 9.97852 9.01758C8.77409 9.01758 7.86589 9.42448 7.25391 10.2383C6.64193 11.0456 6.33594 12.2467 6.33594 13.8418ZM25.4766 21.1953C24.194 21.1953 23.1882 20.7298 22.459 19.7988H22.3027C22.4069 20.7103 22.459 21.2376 22.459 21.3809V25.8047H19.4805V10.082H21.9023L22.3223 11.498H22.459C23.1556 10.4173 24.1875 9.87695 25.5547 9.87695C26.8438 9.87695 27.8529 10.375 28.582 11.3711C29.3112 12.3672 29.6758 13.7507 29.6758 15.5215C29.6758 16.6868 29.5033 17.6992 29.1582 18.5586C28.8197 19.418 28.3346 20.0723 27.7031 20.5215C27.0716 20.9707 26.3294 21.1953 25.4766 21.1953ZM24.5977 12.2598C23.862 12.2598 23.3249 12.4876 22.9863 12.9434C22.6478 13.3926 22.472 14.138 22.459 15.1797V15.502C22.459 16.6738 22.6315 17.5137 22.9766 18.0215C23.3281 18.5293 23.8815 18.7832 24.6367 18.7832C25.9714 18.7832 26.6387 17.6829 26.6387 15.4824C26.6387 14.4082 26.4727 13.6042 26.1406 13.0703C25.8151 12.5299 25.3008 12.2598 24.5977 12.2598ZM36.6582 11.9961C36.0267 11.9961 35.5319 12.1979 35.1738 12.6016C34.8158 12.9987 34.6107 13.5651 34.5586 14.3008H38.7383C38.7253 13.5651 38.5332 12.9987 38.1621 12.6016C37.791 12.1979 37.2897 11.9961 36.6582 11.9961ZM37.0781 21.1953C35.3203 21.1953 33.9466 20.7103 32.957 19.7402C31.9674 18.7702 31.4727 17.3965 31.4727 15.6191C31.4727 13.7897 31.9284 12.377 32.8398 11.3809C33.7578 10.3783 35.0241 9.87695 36.6387 9.87695C38.1816 9.87695 39.3828 10.3164 40.2422 11.1953C41.1016 12.0742 41.5312 13.2884 41.5312 14.8379V16.2832H34.4902C34.5228 17.1296 34.7734 17.7904 35.2422 18.2656C35.7109 18.7409 36.3685 18.9785 37.2148 18.9785C37.8724 18.9785 38.4941 18.9102 39.0801 18.7734C39.666 18.6367 40.278 18.4186 40.916 18.1191V20.4238C40.3952 20.6842 39.8385 20.8763 39.2461 21C38.6536 21.1302 37.931 21.1953 37.0781 21.1953ZM54.0312 21H51.0527V14.623C51.0527 13.8353 50.9128 13.2461 50.6328 12.8555C50.3529 12.4583 49.9069 12.2598 49.2949 12.2598C48.4616 12.2598 47.8594 12.5397 47.4883 13.0996C47.1172 13.653 46.9316 14.5742 46.9316 15.8633V21H43.9531V10.082H46.2285L46.6289 11.4785H46.7949C47.127 10.9512 47.5827 10.554 48.1621 10.2871C48.748 10.0137 49.4121 9.87695 50.1543 9.87695C51.4238 9.87695 52.3874 10.222 53.0449 10.9121C53.7025 11.5957 54.0312 12.5853 54.0312 13.8809V21ZM70.9551 17.0352C70.9551 18.3242 70.4896 19.3398 69.5586 20.082C68.6341 20.8242 67.3451 21.1953 65.6914 21.1953C64.168 21.1953 62.8203 20.9089 61.6484 20.3359V17.5234C62.612 17.9531 63.4258 18.2559 64.0898 18.4316C64.7604 18.6074 65.3724 18.6953 65.9258 18.6953C66.5898 18.6953 67.0977 18.5684 67.4492 18.3145C67.8073 18.0605 67.9863 17.6829 67.9863 17.1816C67.9863 16.9017 67.9082 16.6543 67.752 16.4395C67.5957 16.2181 67.3646 16.0065 67.0586 15.8047C66.7591 15.6029 66.1439 15.2806 65.2129 14.8379C64.3405 14.4277 63.6862 14.0339 63.25 13.6562C62.8138 13.2786 62.4655 12.8392 62.2051 12.3379C61.9447 11.8366 61.8145 11.2507 61.8145 10.5801C61.8145 9.31706 62.2409 8.32422 63.0938 7.60156C63.9531 6.87891 65.138 6.51758 66.6484 6.51758C67.3906 6.51758 68.097 6.60547 68.7676 6.78125C69.4447 6.95703 70.151 7.20443 70.8867 7.52344L69.9102 9.87695C69.1484 9.56445 68.5169 9.34635 68.0156 9.22266C67.5208 9.09896 67.0326 9.03711 66.5508 9.03711C65.9779 9.03711 65.5384 9.17057 65.2324 9.4375C64.9264 9.70443 64.7734 10.0527 64.7734 10.4824C64.7734 10.7493 64.8353 10.9837 64.959 11.1855C65.0827 11.3809 65.278 11.5729 65.5449 11.7617C65.8184 11.944 66.4596 12.276 67.4688 12.7578C68.8034 13.3958 69.7181 14.0371 70.2129 14.6816C70.7077 15.3197 70.9551 16.1042 70.9551 17.0352ZM80.2422 21L79.666 19.5156H79.5879C79.0866 20.1471 78.569 20.5866 78.0352 20.834C77.5078 21.0749 76.8177 21.1953 75.9648 21.1953C74.9167 21.1953 74.0898 20.8958 73.4844 20.2969C72.8854 19.6979 72.5859 18.8451 72.5859 17.7383C72.5859 16.5794 72.9896 15.7266 73.7969 15.1797C74.6107 14.6263 75.8346 14.3203 77.4688 14.2617L79.3633 14.2031V13.7246C79.3633 12.6178 78.7969 12.0645 77.6641 12.0645C76.7917 12.0645 75.7663 12.3281 74.5879 12.8555L73.6016 10.8438C74.8581 10.1862 76.2513 9.85742 77.7812 9.85742C79.2461 9.85742 80.3691 10.1764 81.1504 10.8145C81.9316 11.4525 82.3223 12.4225 82.3223 13.7246V21H80.2422ZM79.3633 15.9414L78.2109 15.9805C77.3451 16.0065 76.7005 16.1628 76.2773 16.4492C75.8542 16.7357 75.6426 17.1719 75.6426 17.7578C75.6426 18.5977 76.1243 19.0176 77.0879 19.0176C77.778 19.0176 78.3281 18.819 78.7383 18.4219C79.1549 18.0247 79.3633 17.4974 79.3633 16.8398V15.9414ZM95.4766 21H92.498V14.623C92.498 13.8353 92.3581 13.2461 92.0781 12.8555C91.7982 12.4583 91.3522 12.2598 90.7402 12.2598C89.9069 12.2598 89.3047 12.5397 88.9336 13.0996C88.5625 13.653 88.377 14.5742 88.377 15.8633V21H85.3984V10.082H87.6738L88.0742 11.4785H88.2402C88.5723 10.9512 89.028 10.554 89.6074 10.2871C90.1934 10.0137 90.8574 9.87695 91.5996 9.87695C92.8691 9.87695 93.8327 10.222 94.4902 10.9121C95.1478 11.5957 95.4766 12.5853 95.4766 13.8809V21ZM106.16 17.7578C106.16 18.8776 105.77 19.7305 104.988 20.3164C104.214 20.9023 103.051 21.1953 101.502 21.1953C100.708 21.1953 100.031 21.14 99.4707 21.0293C98.9108 20.9251 98.3867 20.7689 97.8984 20.5605V18.0996C98.4518 18.36 99.0736 18.5781 99.7637 18.7539C100.46 18.9297 101.072 19.0176 101.6 19.0176C102.68 19.0176 103.221 18.7051 103.221 18.0801C103.221 17.8457 103.149 17.6569 103.006 17.5137C102.863 17.3639 102.615 17.1979 102.264 17.0156C101.912 16.8268 101.443 16.6087 100.857 16.3613C100.018 16.0098 99.3991 15.6842 99.002 15.3848C98.6113 15.0853 98.3249 14.7435 98.1426 14.3594C97.9668 13.9688 97.8789 13.4902 97.8789 12.9238C97.8789 11.9538 98.2533 11.2051 99.002 10.6777C99.7572 10.1439 100.825 9.87695 102.205 9.87695C103.52 9.87695 104.799 10.1634 106.043 10.7363L105.145 12.8848C104.598 12.6504 104.087 12.4583 103.611 12.3086C103.136 12.1589 102.651 12.084 102.156 12.084C101.277 12.084 100.838 12.3216 100.838 12.7969C100.838 13.0638 100.978 13.2949 101.258 13.4902C101.544 13.6855 102.166 13.9753 103.123 14.3594C103.976 14.7044 104.601 15.0267 104.998 15.3262C105.395 15.6257 105.688 15.9707 105.877 16.3613C106.066 16.752 106.16 17.2174 106.16 17.7578ZM113.914 6.72266H118.357C120.382 6.72266 121.85 7.01237 122.762 7.5918C123.68 8.16471 124.139 9.07943 124.139 10.3359C124.139 11.1888 123.937 11.8887 123.533 12.4355C123.136 12.9824 122.605 13.3112 121.941 13.4219V13.5195C122.846 13.7214 123.497 14.099 123.895 14.6523C124.298 15.2057 124.5 15.9414 124.5 16.8594C124.5 18.1615 124.028 19.1771 123.084 19.9062C122.146 20.6354 120.87 21 119.256 21H113.914V6.72266ZM116.941 12.377H118.699C119.52 12.377 120.112 12.25 120.477 11.9961C120.848 11.7422 121.033 11.3223 121.033 10.7363C121.033 10.1895 120.831 9.79883 120.428 9.56445C120.031 9.32357 119.399 9.20312 118.533 9.20312H116.941V12.377ZM116.941 14.7793V18.5H118.914C119.747 18.5 120.363 18.3405 120.76 18.0215C121.157 17.7025 121.355 17.2142 121.355 16.5566C121.355 15.3717 120.509 14.7793 118.816 14.7793H116.941ZM129.49 15.5215C129.49 16.6022 129.666 17.4193 130.018 17.9727C130.376 18.526 130.955 18.8027 131.756 18.8027C132.55 18.8027 133.12 18.5293 133.465 17.9824C133.816 17.429 133.992 16.6087 133.992 15.5215C133.992 14.4408 133.816 13.6302 133.465 13.0898C133.113 12.5495 132.537 12.2793 131.736 12.2793C130.942 12.2793 130.369 12.5495 130.018 13.0898C129.666 13.6237 129.49 14.4342 129.49 15.5215ZM137.039 15.5215C137.039 17.2988 136.57 18.6888 135.633 19.6914C134.695 20.694 133.39 21.1953 131.717 21.1953C130.669 21.1953 129.744 20.9674 128.943 20.5117C128.143 20.0495 127.527 19.3887 127.098 18.5293C126.668 17.6699 126.453 16.6673 126.453 15.5215C126.453 13.7376 126.919 12.3509 127.85 11.3613C128.781 10.3717 130.089 9.87695 131.775 9.87695C132.824 9.87695 133.748 10.1048 134.549 10.5605C135.35 11.0163 135.965 11.6706 136.395 12.5234C136.824 13.3763 137.039 14.3757 137.039 15.5215ZM142.479 21H139.5V5.80469H142.479V21ZM149.07 21.1953C147.788 21.1953 146.779 20.6973 146.043 19.7012C145.314 18.7051 144.949 17.3249 144.949 15.5605C144.949 13.7702 145.32 12.377 146.062 11.3809C146.811 10.3783 147.84 9.87695 149.148 9.87695C150.522 9.87695 151.57 10.4108 152.293 11.4785H152.391C152.241 10.6647 152.166 9.9388 152.166 9.30078V5.80469H155.154V21H152.869L152.293 19.584H152.166C151.489 20.6582 150.457 21.1953 149.07 21.1953ZM150.115 18.8223C150.877 18.8223 151.434 18.6009 151.785 18.1582C152.143 17.7155 152.339 16.9635 152.371 15.9023V15.5801C152.371 14.4082 152.189 13.5684 151.824 13.0605C151.466 12.5527 150.88 12.2988 150.066 12.2988C149.402 12.2988 148.885 12.582 148.514 13.1484C148.149 13.7083 147.967 14.5254 147.967 15.5996C147.967 16.6738 148.152 17.4811 148.523 18.0215C148.895 18.5553 149.425 18.8223 150.115 18.8223ZM16.5605 40.8418C16.5605 43.166 15.9779 44.9727 14.8125 46.2617C13.6536 47.5508 12.0098 48.1953 9.88086 48.1953C7.72591 48.1953 6.06901 47.5573 4.91016 46.2812C3.75781 44.9987 3.18164 43.179 3.18164 40.8223C3.18164 38.4655 3.76107 36.6556 4.91992 35.3926C6.08529 34.1296 7.74544 33.498 9.90039 33.498C12.0228 33.498 13.6634 34.1393 14.8223 35.4219C15.9811 36.7044 16.5605 38.5111 16.5605 40.8418ZM5.66211 40.8418C5.66211 42.5996 6.01693 43.9342 6.72656 44.8457C7.4362 45.7507 8.48763 46.2031 9.88086 46.2031C11.2676 46.2031 12.3125 45.7539 13.0156 44.8555C13.7253 43.957 14.0801 42.6191 14.0801 40.8418C14.0801 39.0905 13.7285 37.7624 13.0254 36.8574C12.3288 35.9525 11.2871 35.5 9.90039 35.5C8.50065 35.5 7.44271 35.9525 6.72656 36.8574C6.01693 37.7624 5.66211 39.0905 5.66211 40.8418ZM24.8613 48.1953C23.4941 48.1953 22.4329 47.7038 21.6777 46.7207H21.541C21.6322 47.6322 21.6777 48.1855 21.6777 48.3809V52.8047H19.3828V37.1992H21.2383C21.2904 37.401 21.3978 37.8828 21.5605 38.6445H21.6777C22.3939 37.5508 23.4681 37.0039 24.9004 37.0039C26.248 37.0039 27.2962 37.4922 28.0449 38.4688C28.8001 39.4453 29.1777 40.8158 29.1777 42.5801C29.1777 44.3444 28.7936 45.7214 28.0254 46.7109C27.2637 47.7005 26.209 48.1953 24.8613 48.1953ZM24.3047 38.8789C23.3932 38.8789 22.7259 39.1458 22.3027 39.6797C21.8861 40.2135 21.6777 41.0664 21.6777 42.2383V42.5801C21.6777 43.8952 21.8861 44.849 22.3027 45.4414C22.7194 46.0273 23.3997 46.3203 24.3438 46.3203C25.138 46.3203 25.75 45.9948 26.1797 45.3438C26.6094 44.6927 26.8242 43.765 26.8242 42.5605C26.8242 41.3496 26.6094 40.4349 26.1797 39.8164C25.7565 39.1914 25.1315 38.8789 24.3047 38.8789ZM36.5605 48.1953C34.8809 48.1953 33.5658 47.707 32.6152 46.7305C31.6712 45.7474 31.1992 44.3965 31.1992 42.6777C31.1992 40.9134 31.6387 39.5267 32.5176 38.5176C33.3965 37.5085 34.6042 37.0039 36.1406 37.0039C37.5664 37.0039 38.6927 37.4368 39.5195 38.3027C40.3464 39.1686 40.7598 40.36 40.7598 41.877V43.1172H33.5625C33.5951 44.1654 33.8783 44.9727 34.4121 45.5391C34.946 46.099 35.6979 46.3789 36.668 46.3789C37.306 46.3789 37.8984 46.3203 38.4453 46.2031C38.9987 46.0794 39.5911 45.8776 40.2227 45.5977V47.4629C39.6628 47.7298 39.0964 47.9186 38.5234 48.0293C37.9505 48.14 37.2962 48.1953 36.5605 48.1953ZM36.1406 38.7422C35.4115 38.7422 34.8255 38.9733 34.3828 39.4355C33.9466 39.8978 33.6862 40.5716 33.6016 41.457H38.5039C38.4909 40.5651 38.276 39.8913 37.8594 39.4355C37.4427 38.9733 36.8698 38.7422 36.1406 38.7422ZM52.8691 48H50.5645V41.3594C50.5645 40.526 50.3952 39.9043 50.0566 39.4941C49.7246 39.084 49.194 38.8789 48.4648 38.8789C47.4948 38.8789 46.7852 39.1654 46.3359 39.7383C45.8867 40.3112 45.6621 41.2715 45.6621 42.6191V48H43.3672V37.1992H45.1641L45.4863 38.6152H45.6035C45.929 38.1009 46.3913 37.7038 46.9902 37.4238C47.5892 37.1439 48.2533 37.0039 48.9824 37.0039C51.5736 37.0039 52.8691 38.3223 52.8691 40.959V48ZM69.7344 44.123C69.7344 45.3926 69.2754 46.3887 68.3574 47.1113C67.4395 47.834 66.1732 48.1953 64.5586 48.1953C62.944 48.1953 61.6224 47.9447 60.5938 47.4434V45.2363C61.2448 45.5423 61.9349 45.7832 62.6641 45.959C63.3997 46.1348 64.0833 46.2227 64.7148 46.2227C65.6393 46.2227 66.3197 46.0469 66.7559 45.6953C67.1986 45.3438 67.4199 44.8717 67.4199 44.2793C67.4199 43.7454 67.2181 43.293 66.8145 42.9219C66.4108 42.5508 65.5775 42.1113 64.3145 41.6035C63.0124 41.0762 62.0944 40.474 61.5605 39.7969C61.0267 39.1198 60.7598 38.306 60.7598 37.3555C60.7598 36.1641 61.1829 35.2266 62.0293 34.543C62.8757 33.8594 64.0117 33.5176 65.4375 33.5176C66.8047 33.5176 68.1654 33.8171 69.5195 34.416L68.7773 36.3203C67.5078 35.7865 66.375 35.5195 65.3789 35.5195C64.6237 35.5195 64.0508 35.6855 63.6602 36.0176C63.2695 36.3431 63.0742 36.776 63.0742 37.3164C63.0742 37.6875 63.1523 38.0065 63.3086 38.2734C63.4648 38.5339 63.722 38.7812 64.0801 39.0156C64.4382 39.25 65.0827 39.5592 66.0137 39.9434C67.0618 40.3796 67.8301 40.7865 68.3184 41.1641C68.8066 41.5417 69.1647 41.9681 69.3926 42.4434C69.6204 42.9186 69.7344 43.4785 69.7344 44.123ZM79.0117 48L78.5527 46.4961H78.4746C77.9538 47.1536 77.4297 47.6029 76.9023 47.8438C76.375 48.0781 75.6979 48.1953 74.8711 48.1953C73.8099 48.1953 72.9798 47.9089 72.3809 47.3359C71.7884 46.763 71.4922 45.9525 71.4922 44.9043C71.4922 43.791 71.9056 42.9512 72.7324 42.3848C73.5592 41.8184 74.819 41.5091 76.5117 41.457L78.377 41.3984V40.8223C78.377 40.1322 78.2142 39.6178 77.8887 39.2793C77.5697 38.9342 77.0716 38.7617 76.3945 38.7617C75.8411 38.7617 75.3105 38.8431 74.8027 39.0059C74.2949 39.1686 73.8066 39.3607 73.3379 39.582L72.5957 37.9414C73.1816 37.6354 73.8229 37.4043 74.5195 37.248C75.2161 37.0853 75.8737 37.0039 76.4922 37.0039C77.8659 37.0039 78.901 37.3034 79.5977 37.9023C80.3008 38.5013 80.6523 39.4421 80.6523 40.7246V48H79.0117ZM75.5938 46.4375C76.4271 46.4375 77.0944 46.2064 77.5957 45.7441C78.1035 45.2754 78.3574 44.6211 78.3574 43.7812V42.8438L76.9707 42.9023C75.89 42.9414 75.1022 43.1237 74.6074 43.4492C74.1191 43.7682 73.875 44.2598 73.875 44.9238C73.875 45.4056 74.0182 45.7799 74.3047 46.0469C74.5911 46.3073 75.0208 46.4375 75.5938 46.4375ZM93.3574 48H91.0527V41.3594C91.0527 40.526 90.8835 39.9043 90.5449 39.4941C90.2129 39.084 89.6823 38.8789 88.9531 38.8789C87.9831 38.8789 87.2734 39.1654 86.8242 39.7383C86.375 40.3112 86.1504 41.2715 86.1504 42.6191V48H83.8555V37.1992H85.6523L85.9746 38.6152H86.0918C86.4173 38.1009 86.8796 37.7038 87.4785 37.4238C88.0775 37.1439 88.7415 37.0039 89.4707 37.0039C92.0618 37.0039 93.3574 38.3223 93.3574 40.959V48ZM103.807 44.9238C103.807 45.9785 103.423 46.7891 102.654 47.3555C101.886 47.9154 100.786 48.1953 99.3535 48.1953C97.9147 48.1953 96.7591 47.9772 95.8867 47.541V45.5586C97.1562 46.1445 98.3379 46.4375 99.4316 46.4375C100.844 46.4375 101.551 46.0111 101.551 45.1582C101.551 44.8848 101.473 44.6569 101.316 44.4746C101.16 44.2923 100.903 44.1035 100.545 43.9082C100.187 43.7129 99.6888 43.4915 99.0508 43.2441C97.8073 42.7624 96.9642 42.2806 96.5215 41.7988C96.0853 41.3171 95.8672 40.6921 95.8672 39.9238C95.8672 38.9993 96.2383 38.2832 96.9805 37.7754C97.7292 37.2611 98.7448 37.0039 100.027 37.0039C101.297 37.0039 102.498 37.2611 103.631 37.7754L102.889 39.5039C101.723 39.0221 100.743 38.7812 99.9492 38.7812C98.7383 38.7812 98.1328 39.1263 98.1328 39.8164C98.1328 40.1549 98.2891 40.4414 98.6016 40.6758C98.9206 40.9102 99.6107 41.2324 100.672 41.6426C101.564 41.9876 102.212 42.3034 102.615 42.5898C103.019 42.8763 103.318 43.2083 103.514 43.5859C103.709 43.957 103.807 44.403 103.807 44.9238ZM119.969 44.123C119.969 45.3926 119.51 46.3887 118.592 47.1113C117.674 47.834 116.408 48.1953 114.793 48.1953C113.178 48.1953 111.857 47.9447 110.828 47.4434V45.2363C111.479 45.5423 112.169 45.7832 112.898 45.959C113.634 46.1348 114.318 46.2227 114.949 46.2227C115.874 46.2227 116.554 46.0469 116.99 45.6953C117.433 45.3438 117.654 44.8717 117.654 44.2793C117.654 43.7454 117.452 43.293 117.049 42.9219C116.645 42.5508 115.812 42.1113 114.549 41.6035C113.247 41.0762 112.329 40.474 111.795 39.7969C111.261 39.1198 110.994 38.306 110.994 37.3555C110.994 36.1641 111.417 35.2266 112.264 34.543C113.11 33.8594 114.246 33.5176 115.672 33.5176C117.039 33.5176 118.4 33.8171 119.754 34.416L119.012 36.3203C117.742 35.7865 116.609 35.5195 115.613 35.5195C114.858 35.5195 114.285 35.6855 113.895 36.0176C113.504 36.3431 113.309 36.776 113.309 37.3164C113.309 37.6875 113.387 38.0065 113.543 38.2734C113.699 38.5339 113.956 38.7812 114.314 39.0156C114.673 39.25 115.317 39.5592 116.248 39.9434C117.296 40.3796 118.064 40.7865 118.553 41.1641C119.041 41.5417 119.399 41.9681 119.627 42.4434C119.855 42.9186 119.969 43.4785 119.969 44.123ZM127.205 48.1953C125.525 48.1953 124.21 47.707 123.26 46.7305C122.316 45.7474 121.844 44.3965 121.844 42.6777C121.844 40.9134 122.283 39.5267 123.162 38.5176C124.041 37.5085 125.249 37.0039 126.785 37.0039C128.211 37.0039 129.337 37.4368 130.164 38.3027C130.991 39.1686 131.404 40.36 131.404 41.877V43.1172H124.207C124.24 44.1654 124.523 44.9727 125.057 45.5391C125.59 46.099 126.342 46.3789 127.312 46.3789C127.951 46.3789 128.543 46.3203 129.09 46.2031C129.643 46.0794 130.236 45.8776 130.867 45.5977V47.4629C130.307 47.7298 129.741 47.9186 129.168 48.0293C128.595 48.14 127.941 48.1953 127.205 48.1953ZM126.785 38.7422C126.056 38.7422 125.47 38.9733 125.027 39.4355C124.591 39.8978 124.331 40.5716 124.246 41.457H129.148C129.135 40.5651 128.921 39.8913 128.504 39.4355C128.087 38.9733 127.514 38.7422 126.785 38.7422ZM143.113 48H140.809V41.3398C140.809 40.513 140.652 39.8978 140.34 39.4941C140.027 39.084 139.539 38.8789 138.875 38.8789C137.99 38.8789 137.339 39.1686 136.922 39.748C136.512 40.321 136.307 41.278 136.307 42.6191V48H134.012V37.1992H135.809L136.131 38.6152H136.248C136.548 38.1009 136.98 37.7038 137.547 37.4238C138.12 37.1439 138.748 37.0039 139.432 37.0039C141.092 37.0039 142.192 37.5703 142.732 38.7031H142.889C143.208 38.1693 143.657 37.7526 144.236 37.4531C144.816 37.1536 145.48 37.0039 146.229 37.0039C147.518 37.0039 148.455 37.3294 149.041 37.9805C149.633 38.6315 149.93 39.6243 149.93 40.959V48H147.635V41.3398C147.635 40.513 147.475 39.8978 147.156 39.4941C146.844 39.084 146.355 38.8789 145.691 38.8789C144.799 38.8789 144.145 39.1589 143.729 39.7188C143.318 40.2721 143.113 41.125 143.113 42.2773V48ZM155.428 48H153.133V37.1992H155.428V48ZM152.996 34.3379C152.996 33.9277 153.107 33.612 153.328 33.3906C153.556 33.1693 153.878 33.0586 154.295 33.0586C154.699 33.0586 155.011 33.1693 155.232 33.3906C155.46 33.612 155.574 33.9277 155.574 34.3379C155.574 34.7285 155.46 35.0378 155.232 35.2656C155.011 35.487 154.699 35.5977 154.295 35.5977C153.878 35.5977 153.556 35.487 153.328 35.2656C153.107 35.0378 152.996 34.7285 152.996 34.3379ZM164.236 37.0039C165.584 37.0039 166.632 37.4922 167.381 38.4688C168.136 39.4453 168.514 40.8158 168.514 42.5801C168.514 44.3509 168.133 45.7311 167.371 46.7207C166.609 47.7038 165.551 48.1953 164.197 48.1953C162.83 48.1953 161.769 47.7038 161.014 46.7207H160.857L160.438 48H158.719V32.8047H161.014V36.418C161.014 36.6849 161.001 37.082 160.975 37.6094C160.949 38.1367 160.929 38.472 160.916 38.6152H161.014C161.743 37.541 162.817 37.0039 164.236 37.0039ZM163.641 38.8789C162.716 38.8789 162.049 39.1523 161.639 39.6992C161.235 40.2396 161.027 41.1478 161.014 42.4238V42.5801C161.014 43.8952 161.222 44.849 161.639 45.4414C162.055 46.0273 162.736 46.3203 163.68 46.3203C164.493 46.3203 165.109 45.998 165.525 45.3535C165.949 44.709 166.16 43.778 166.16 42.5605C166.16 40.1061 165.32 38.8789 163.641 38.8789ZM180.76 42.5801C180.76 44.3444 180.307 45.7214 179.402 46.7109C178.497 47.7005 177.238 48.1953 175.623 48.1953C174.614 48.1953 173.722 47.9674 172.947 47.5117C172.173 47.056 171.577 46.4017 171.16 45.5488C170.743 44.696 170.535 43.7064 170.535 42.5801C170.535 40.8288 170.984 39.4616 171.883 38.4785C172.781 37.4954 174.048 37.0039 175.682 37.0039C177.244 37.0039 178.481 37.5085 179.393 38.5176C180.304 39.5202 180.76 40.8743 180.76 42.5801ZM172.898 42.5801C172.898 45.0736 173.82 46.3203 175.662 46.3203C177.485 46.3203 178.396 45.0736 178.396 42.5801C178.396 40.1126 177.479 38.8789 175.643 38.8789C174.679 38.8789 173.979 39.1979 173.543 39.8359C173.113 40.474 172.898 41.3887 172.898 42.5801ZM185.701 48H183.406V32.8047H185.701V48ZM192.635 48.1953C191.287 48.1953 190.236 47.707 189.48 46.7305C188.725 45.7539 188.348 44.3835 188.348 42.6191C188.348 40.8483 188.729 39.4714 189.49 38.4883C190.258 37.4987 191.32 37.0039 192.674 37.0039C194.093 37.0039 195.174 37.528 195.916 38.5762H196.033C195.923 37.8014 195.867 37.1895 195.867 36.7402V32.8047H198.172V48H196.375L195.975 46.584H195.867C195.132 47.6582 194.054 48.1953 192.635 48.1953ZM193.25 46.3398C194.194 46.3398 194.881 46.0762 195.311 45.5488C195.74 45.015 195.962 44.1523 195.975 42.9609V42.6387C195.975 41.278 195.753 40.3112 195.311 39.7383C194.868 39.1654 194.174 38.8789 193.23 38.8789C192.423 38.8789 191.801 39.2077 191.365 39.8652C190.929 40.5163 190.711 41.4473 190.711 42.6582C190.711 43.8561 190.923 44.7708 191.346 45.4023C191.769 46.0273 192.404 46.3398 193.25 46.3398ZM16.3555 67.8418C16.3555 70.127 15.776 71.9238 14.6172 73.2324C13.4648 74.541 11.86 75.1953 9.80273 75.1953C7.69987 75.1953 6.07552 74.554 4.92969 73.2715C3.79036 71.9824 3.2207 70.166 3.2207 67.8223C3.2207 65.498 3.79362 63.6979 4.93945 62.4219C6.08529 61.1393 7.71289 60.498 9.82227 60.498C11.873 60.498 13.4746 61.1491 14.627 62.4512C15.7793 63.7533 16.3555 65.5501 16.3555 67.8418ZM4.97852 67.8418C4.97852 69.7754 5.38867 71.2435 6.20898 72.2461C7.03581 73.2422 8.23372 73.7402 9.80273 73.7402C11.3848 73.7402 12.5794 73.2422 13.3867 72.2461C14.194 71.25 14.5977 69.7819 14.5977 67.8418C14.5977 65.9212 14.194 64.4661 13.3867 63.4766C12.5859 62.4805 11.3978 61.9824 9.82227 61.9824C8.24023 61.9824 7.03581 62.4837 6.20898 63.4863C5.38867 64.4824 4.97852 65.9342 4.97852 67.8418ZM24.2852 75.1953C23.5885 75.1953 22.9505 75.0684 22.3711 74.8145C21.7982 74.554 21.3164 74.1569 20.9258 73.623H20.8086C20.8867 74.248 20.9258 74.8405 20.9258 75.4004V79.8047H19.3047V64.2969H20.623L20.8477 65.7617H20.9258C21.3424 65.1758 21.8275 64.7526 22.3809 64.4922C22.9342 64.2318 23.569 64.1016 24.2852 64.1016C25.7044 64.1016 26.7982 64.5866 27.5664 65.5566C28.3411 66.5267 28.7285 67.8874 28.7285 69.6387C28.7285 71.3965 28.3346 72.7637 27.5469 73.7402C26.7656 74.7103 25.6784 75.1953 24.2852 75.1953ZM24.0508 65.4785C22.957 65.4785 22.166 65.7812 21.6777 66.3867C21.1895 66.9922 20.9388 67.9557 20.9258 69.2773V69.6387C20.9258 71.1426 21.1764 72.2201 21.6777 72.8711C22.179 73.5156 22.9831 73.8379 24.0898 73.8379C25.0143 73.8379 25.737 73.4635 26.2578 72.7148C26.7852 71.9661 27.0488 70.9342 27.0488 69.6191C27.0488 68.2845 26.7852 67.2624 26.2578 66.5527C25.737 65.8366 25.0013 65.4785 24.0508 65.4785ZM36.0918 75.1953C34.5098 75.1953 33.2598 74.7135 32.3418 73.75C31.4303 72.7865 30.9746 71.4486 30.9746 69.7363C30.9746 68.0111 31.3978 66.6406 32.2441 65.625C33.097 64.6094 34.2396 64.1016 35.6719 64.1016C37.013 64.1016 38.0742 64.5443 38.8555 65.4297C39.6367 66.3086 40.0273 67.4707 40.0273 68.916V69.9414H32.6543C32.6868 71.1979 33.0026 72.1517 33.6016 72.8027C34.207 73.4538 35.0566 73.7793 36.1504 73.7793C37.3027 73.7793 38.4421 73.5384 39.5684 73.0566V74.502C38.9954 74.7493 38.4518 74.9251 37.9375 75.0293C37.4297 75.14 36.8145 75.1953 36.0918 75.1953ZM35.6523 65.459C34.793 65.459 34.1061 65.7389 33.5918 66.2988C33.084 66.8587 32.7845 67.6335 32.6934 68.623H38.2891C38.2891 67.6009 38.0612 66.8197 37.6055 66.2793C37.1497 65.7324 36.4987 65.459 35.6523 65.459ZM50.125 75V68.0762C50.125 67.2038 49.9264 66.5527 49.5293 66.123C49.1322 65.6934 48.5104 65.4785 47.6641 65.4785C46.5443 65.4785 45.724 65.7812 45.2031 66.3867C44.6823 66.9922 44.4219 67.9915 44.4219 69.3848V75H42.8008V64.2969H44.1191L44.3828 65.7617H44.4609C44.793 65.2344 45.2585 64.8275 45.8574 64.541C46.4564 64.248 47.1237 64.1016 47.8594 64.1016C49.1484 64.1016 50.1185 64.4141 50.7695 65.0391C51.4206 65.6576 51.7461 66.6504 51.7461 68.0176V75H50.125ZM68.582 71.2012C68.582 72.4577 68.1263 73.4375 67.2148 74.1406C66.3034 74.8438 65.0664 75.1953 63.5039 75.1953C61.8112 75.1953 60.5091 74.9772 59.5977 74.541V72.9395C60.1836 73.1868 60.8216 73.3822 61.5117 73.5254C62.2018 73.6686 62.8854 73.7402 63.5625 73.7402C64.6693 73.7402 65.5026 73.5319 66.0625 73.1152C66.6224 72.6921 66.9023 72.1061 66.9023 71.3574C66.9023 70.8626 66.8014 70.459 66.5996 70.1465C66.4043 69.8275 66.0723 69.5345 65.6035 69.2676C65.1413 69.0007 64.4349 68.6979 63.4844 68.3594C62.1562 67.8841 61.2057 67.321 60.6328 66.6699C60.0664 66.0189 59.7832 65.1693 59.7832 64.1211C59.7832 63.0208 60.1966 62.1452 61.0234 61.4941C61.8503 60.8431 62.944 60.5176 64.3047 60.5176C65.724 60.5176 67.0293 60.778 68.2207 61.2988L67.7031 62.7441C66.5247 62.2493 65.3789 62.002 64.2656 62.002C63.3867 62.002 62.6999 62.1908 62.2051 62.5684C61.7103 62.946 61.4629 63.4701 61.4629 64.1406C61.4629 64.6354 61.554 65.0423 61.7363 65.3613C61.9186 65.6738 62.2246 65.9635 62.6543 66.2305C63.0905 66.4909 63.7546 66.7806 64.6465 67.0996C66.1439 67.6335 67.1725 68.2064 67.7324 68.8184C68.2988 69.4303 68.582 70.2246 68.582 71.2012ZM77.8398 75L77.5176 73.4766H77.4395C76.9056 74.1471 76.3717 74.6029 75.8379 74.8438C75.3105 75.0781 74.6497 75.1953 73.8555 75.1953C72.7943 75.1953 71.9609 74.9219 71.3555 74.375C70.7565 73.8281 70.457 73.0501 70.457 72.041C70.457 69.8796 72.1855 68.7467 75.6426 68.6426L77.459 68.584V67.9199C77.459 67.0801 77.2767 66.4616 76.9121 66.0645C76.554 65.6608 75.9779 65.459 75.1836 65.459C74.2917 65.459 73.2826 65.7324 72.1562 66.2793L71.6582 65.0391C72.1855 64.7526 72.7617 64.528 73.3867 64.3652C74.0182 64.2025 74.6497 64.1211 75.2812 64.1211C76.5573 64.1211 77.5013 64.4043 78.1133 64.9707C78.7318 65.5371 79.041 66.4453 79.041 67.6953V75H77.8398ZM74.1777 73.8574C75.1868 73.8574 75.9779 73.5807 76.5508 73.0273C77.1302 72.474 77.4199 71.6992 77.4199 70.7031V69.7363L75.7988 69.8047C74.5098 69.8503 73.5788 70.0521 73.0059 70.4102C72.4395 70.7617 72.1562 71.3118 72.1562 72.0605C72.1562 72.6465 72.332 73.0924 72.6836 73.3984C73.0417 73.7044 73.5397 73.8574 74.1777 73.8574ZM89.7148 75V68.0762C89.7148 67.2038 89.5163 66.5527 89.1191 66.123C88.722 65.6934 88.1003 65.4785 87.2539 65.4785C86.1341 65.4785 85.3138 65.7812 84.793 66.3867C84.2721 66.9922 84.0117 67.9915 84.0117 69.3848V75H82.3906V64.2969H83.709L83.9727 65.7617H84.0508C84.3828 65.2344 84.8483 64.8275 85.4473 64.541C86.0462 64.248 86.7135 64.1016 87.4492 64.1016C88.7383 64.1016 89.7083 64.4141 90.3594 65.0391C91.0104 65.6576 91.3359 66.6504 91.3359 68.0176V75H89.7148ZM101.58 72.0801C101.58 73.0762 101.209 73.8444 100.467 74.3848C99.7246 74.9251 98.6829 75.1953 97.3418 75.1953C95.9225 75.1953 94.8158 74.9707 94.0215 74.5215V73.0176C94.5358 73.278 95.0859 73.4831 95.6719 73.6328C96.2643 73.7826 96.834 73.8574 97.3809 73.8574C98.2272 73.8574 98.8783 73.724 99.334 73.457C99.7897 73.1836 100.018 72.7702 100.018 72.2168C100.018 71.8001 99.8353 71.4453 99.4707 71.1523C99.1126 70.8529 98.4095 70.5013 97.3613 70.0977C96.3652 69.7266 95.6556 69.4043 95.2324 69.1309C94.8158 68.8509 94.5033 68.5352 94.2949 68.1836C94.0931 67.832 93.9922 67.4121 93.9922 66.9238C93.9922 66.0514 94.347 65.3646 95.0566 64.8633C95.7663 64.3555 96.7396 64.1016 97.9766 64.1016C99.1289 64.1016 100.255 64.3359 101.355 64.8047L100.779 66.123C99.7051 65.6803 98.7318 65.459 97.8594 65.459C97.0911 65.459 96.5117 65.5794 96.1211 65.8203C95.7305 66.0612 95.5352 66.3932 95.5352 66.8164C95.5352 67.1029 95.6068 67.347 95.75 67.5488C95.8997 67.7507 96.1374 67.9427 96.4629 68.125C96.7884 68.3073 97.4134 68.571 98.3379 68.916C99.6074 69.3783 100.464 69.8438 100.906 70.3125C101.355 70.7812 101.58 71.3704 101.58 72.0801ZM111.326 69.0625V75H109.666V60.7227H113.582C115.333 60.7227 116.626 61.0579 117.459 61.7285C118.299 62.3991 118.719 63.4082 118.719 64.7559C118.719 66.6439 117.762 67.9199 115.848 68.584L119.725 75H117.762L114.305 69.0625H111.326ZM111.326 67.6367H113.602C114.773 67.6367 115.633 67.4056 116.18 66.9434C116.727 66.4746 117 65.7747 117 64.8438C117 63.8997 116.72 63.2194 116.16 62.8027C115.607 62.3861 114.715 62.1777 113.484 62.1777H111.326V67.6367ZM126.307 75.1953C124.725 75.1953 123.475 74.7135 122.557 73.75C121.645 72.7865 121.189 71.4486 121.189 69.7363C121.189 68.0111 121.613 66.6406 122.459 65.625C123.312 64.6094 124.454 64.1016 125.887 64.1016C127.228 64.1016 128.289 64.5443 129.07 65.4297C129.852 66.3086 130.242 67.4707 130.242 68.916V69.9414H122.869C122.902 71.1979 123.217 72.1517 123.816 72.8027C124.422 73.4538 125.271 73.7793 126.365 73.7793C127.518 73.7793 128.657 73.5384 129.783 73.0566V74.502C129.21 74.7493 128.667 74.9251 128.152 75.0293C127.645 75.14 127.029 75.1953 126.307 75.1953ZM125.867 65.459C125.008 65.459 124.321 65.7389 123.807 66.2988C123.299 66.8587 122.999 67.6335 122.908 68.623H128.504C128.504 67.6009 128.276 66.8197 127.82 66.2793C127.365 65.7324 126.714 65.459 125.867 65.459ZM141.775 64.2969V65.3223L139.793 65.5566C139.975 65.7845 140.138 66.084 140.281 66.4551C140.424 66.8197 140.496 67.2331 140.496 67.6953C140.496 68.7435 140.138 69.5801 139.422 70.2051C138.706 70.8301 137.723 71.1426 136.473 71.1426C136.154 71.1426 135.854 71.1165 135.574 71.0645C134.884 71.429 134.539 71.888 134.539 72.4414C134.539 72.7344 134.66 72.9525 134.9 73.0957C135.141 73.2324 135.555 73.3008 136.141 73.3008H138.035C139.194 73.3008 140.083 73.5449 140.701 74.0332C141.326 74.5215 141.639 75.2311 141.639 76.1621C141.639 77.347 141.163 78.2487 140.213 78.8672C139.262 79.4922 137.876 79.8047 136.053 79.8047C134.653 79.8047 133.572 79.5443 132.811 79.0234C132.055 78.5026 131.678 77.7669 131.678 76.8164C131.678 76.1654 131.886 75.6022 132.303 75.127C132.719 74.6517 133.305 74.3294 134.061 74.1602C133.787 74.0365 133.556 73.8444 133.367 73.584C133.185 73.3236 133.094 73.0208 133.094 72.6758C133.094 72.2852 133.198 71.9434 133.406 71.6504C133.615 71.3574 133.943 71.0742 134.393 70.8008C133.839 70.5729 133.387 70.1855 133.035 69.6387C132.69 69.0918 132.518 68.4668 132.518 67.7637C132.518 66.5918 132.869 65.6901 133.572 65.0586C134.275 64.4206 135.271 64.1016 136.561 64.1016C137.12 64.1016 137.625 64.1667 138.074 64.2969H141.775ZM133.24 76.7969C133.24 77.3763 133.484 77.8158 133.973 78.1152C134.461 78.4147 135.161 78.5645 136.072 78.5645C137.433 78.5645 138.439 78.3594 139.09 77.9492C139.747 77.5456 140.076 76.9954 140.076 76.2988C140.076 75.7194 139.897 75.3158 139.539 75.0879C139.181 74.8665 138.507 74.7559 137.518 74.7559H135.574C134.839 74.7559 134.266 74.9316 133.855 75.2832C133.445 75.6348 133.24 76.1393 133.24 76.7969ZM134.119 67.7246C134.119 68.4733 134.331 69.0397 134.754 69.4238C135.177 69.8079 135.766 70 136.521 70C138.104 70 138.895 69.2318 138.895 67.6953C138.895 66.0872 138.094 65.2832 136.492 65.2832C135.73 65.2832 135.145 65.4883 134.734 65.8984C134.324 66.3086 134.119 66.9173 134.119 67.7246ZM145.496 64.2969V71.2402C145.496 72.1126 145.695 72.7637 146.092 73.1934C146.489 73.623 147.111 73.8379 147.957 73.8379C149.077 73.8379 149.894 73.5319 150.408 72.9199C150.929 72.3079 151.189 71.3086 151.189 69.9219V64.2969H152.811V75H151.473L151.238 73.5645H151.15C150.818 74.0918 150.356 74.4954 149.764 74.7754C149.178 75.0553 148.507 75.1953 147.752 75.1953C146.45 75.1953 145.473 74.8861 144.822 74.2676C144.178 73.6491 143.855 72.6595 143.855 71.2988V64.2969H145.496ZM157.879 75H156.258V59.8047H157.879V75ZM167.898 75L167.576 73.4766H167.498C166.964 74.1471 166.43 74.6029 165.896 74.8438C165.369 75.0781 164.708 75.1953 163.914 75.1953C162.853 75.1953 162.02 74.9219 161.414 74.375C160.815 73.8281 160.516 73.0501 160.516 72.041C160.516 69.8796 162.244 68.7467 165.701 68.6426L167.518 68.584V67.9199C167.518 67.0801 167.335 66.4616 166.971 66.0645C166.613 65.6608 166.036 65.459 165.242 65.459C164.35 65.459 163.341 65.7324 162.215 66.2793L161.717 65.0391C162.244 64.7526 162.82 64.528 163.445 64.3652C164.077 64.2025 164.708 64.1211 165.34 64.1211C166.616 64.1211 167.56 64.4043 168.172 64.9707C168.79 65.5371 169.1 66.4453 169.1 67.6953V75H167.898ZM164.236 73.8574C165.245 73.8574 166.036 73.5807 166.609 73.0273C167.189 72.474 167.479 71.6992 167.479 70.7031V69.7363L165.857 69.8047C164.568 69.8503 163.637 70.0521 163.064 70.4102C162.498 70.7617 162.215 71.3118 162.215 72.0605C162.215 72.6465 162.391 73.0924 162.742 73.3984C163.1 73.7044 163.598 73.8574 164.236 73.8574ZM177.332 64.1016C177.807 64.1016 178.234 64.1406 178.611 64.2188L178.387 65.7227C177.944 65.625 177.553 65.5762 177.215 65.5762C176.349 65.5762 175.607 65.9277 174.988 66.6309C174.376 67.334 174.07 68.2096 174.07 69.2578V75H172.449V64.2969H173.787L173.973 66.2793H174.051C174.448 65.5827 174.926 65.0456 175.486 64.668C176.046 64.2904 176.661 64.1016 177.332 64.1016ZM16.0234 94.8418C16.0234 97.1074 15.457 98.901 14.3242 100.223C13.1914 101.538 11.6289 102.195 9.63672 102.195C7.65104 102.195 6.0918 101.538 4.95898 100.223C3.82617 98.901 3.25977 97.1009 3.25977 94.8223C3.25977 92.5501 3.82943 90.763 4.96875 89.4609C6.11458 88.1523 7.67708 87.498 9.65625 87.498C11.6484 87.498 13.2077 88.1556 14.334 89.4707C15.4603 90.7793 16.0234 92.5697 16.0234 94.8418ZM4.34375 94.8418C4.34375 96.8861 4.79948 98.4681 5.71094 99.5879C6.6224 100.701 7.93099 101.258 9.63672 101.258C11.3555 101.258 12.6673 100.704 13.5723 99.5977C14.4837 98.4909 14.9395 96.9056 14.9395 94.8418C14.9395 92.7845 14.4837 91.209 13.5723 90.1152C12.6673 89.015 11.362 88.4648 9.65625 88.4648C7.95703 88.4648 6.64518 89.0182 5.7207 90.125C4.80273 91.2318 4.34375 92.804 4.34375 94.8418ZM23.6113 102.195C21.9772 102.195 20.7858 101.583 20.0371 100.359H19.9688L19.998 101.18C20.0241 101.661 20.0371 102.189 20.0371 102.762V106.805H19.0703V91.3848H19.8906L20.0762 92.8984H20.1348C20.8639 91.7526 22.0293 91.1797 23.6309 91.1797C25.0632 91.1797 26.1536 91.6517 26.9023 92.5957C27.6576 93.5332 28.0352 94.9004 28.0352 96.6973C28.0352 98.4421 27.638 99.7962 26.8438 100.76C26.056 101.717 24.9785 102.195 23.6113 102.195ZM23.5918 101.336C24.679 101.336 25.5189 100.932 26.1113 100.125C26.7103 99.3177 27.0098 98.1882 27.0098 96.7363C27.0098 93.6178 25.8835 92.0586 23.6309 92.0586C22.3939 92.0586 21.4857 92.4004 20.9062 93.084C20.3268 93.7611 20.0371 94.8678 20.0371 96.4043V96.7168C20.0371 98.377 20.3138 99.5618 20.8672 100.271C21.4271 100.981 22.3353 101.336 23.5918 101.336ZM35.2715 102.195C33.7285 102.195 32.5241 101.72 31.6582 100.77C30.7988 99.819 30.3691 98.4876 30.3691 96.7754C30.3691 95.0827 30.7858 93.7285 31.6191 92.7129C32.4525 91.6908 33.5755 91.1797 34.9883 91.1797C36.2383 91.1797 37.2246 91.6159 37.9473 92.4883C38.6699 93.3607 39.0312 94.5456 39.0312 96.043V96.8242H31.3848C31.3978 98.2826 31.7363 99.3958 32.4004 100.164C33.071 100.932 34.028 101.316 35.2715 101.316C35.877 101.316 36.4076 101.274 36.8633 101.189C37.3255 101.105 37.9082 100.923 38.6113 100.643V101.521C38.0124 101.782 37.459 101.958 36.9512 102.049C36.4434 102.146 35.8835 102.195 35.2715 102.195ZM34.9883 92.0391C33.9661 92.0391 33.1458 92.3776 32.5273 93.0547C31.9089 93.7253 31.5475 94.6953 31.4434 95.9648H38.0059C38.0059 94.7344 37.7389 93.7741 37.2051 93.084C36.6712 92.3874 35.9323 92.0391 34.9883 92.0391ZM49.3633 102V95.1152C49.3633 94.0475 49.1387 93.2728 48.6895 92.791C48.2402 92.3027 47.5436 92.0586 46.5996 92.0586C45.3301 92.0586 44.3991 92.3809 43.8066 93.0254C43.2207 93.6634 42.9277 94.7018 42.9277 96.1406V102H41.9609V91.3848H42.7812L42.9668 92.8398H43.0254C43.7155 91.7331 44.9427 91.1797 46.707 91.1797C49.1159 91.1797 50.3203 92.472 50.3203 95.0566V102H49.3633ZM67.0781 98.3184C67.0781 99.5098 66.6387 100.454 65.7598 101.15C64.8874 101.847 63.7253 102.195 62.2734 102.195C60.5286 102.195 59.1908 102.003 58.2598 101.619V100.623C59.2884 101.059 60.6003 101.277 62.1953 101.277C63.3672 101.277 64.2949 101.01 64.9785 100.477C65.6686 99.9362 66.0137 99.2298 66.0137 98.3574C66.0137 97.8171 65.8997 97.3711 65.6719 97.0195C65.444 96.6615 65.0729 96.3359 64.5586 96.043C64.0443 95.75 63.2891 95.4342 62.293 95.0957C60.8346 94.5944 59.8255 94.054 59.2656 93.4746C58.7122 92.8887 58.4355 92.1107 58.4355 91.1406C58.4355 90.0729 58.8522 89.2038 59.6855 88.5332C60.5254 87.8561 61.6029 87.5176 62.918 87.5176C64.2591 87.5176 65.5189 87.7715 66.6973 88.2793L66.3359 89.1387C65.151 88.6439 64.0182 88.3965 62.9375 88.3965C61.8828 88.3965 61.043 88.6406 60.418 89.1289C59.793 89.6172 59.4805 90.2812 59.4805 91.1211C59.4805 91.6484 59.5749 92.0814 59.7637 92.4199C59.959 92.7585 60.2747 93.0645 60.7109 93.3379C61.1471 93.6048 61.8958 93.9271 62.957 94.3047C64.0703 94.6888 64.9069 95.0632 65.4668 95.4277C66.0267 95.7858 66.4336 96.196 66.6875 96.6582C66.9479 97.1139 67.0781 97.6673 67.0781 98.3184ZM76.2969 102L76.0527 100.32H75.9746C75.4408 101.004 74.8906 101.489 74.3242 101.775C73.7643 102.055 73.1003 102.195 72.332 102.195C71.2904 102.195 70.4798 101.928 69.9004 101.395C69.321 100.861 69.0312 100.122 69.0312 99.1777C69.0312 98.1426 69.4609 97.3385 70.3203 96.7656C71.1862 96.1927 72.4362 95.89 74.0703 95.8574L76.0918 95.7988V95.0957C76.0918 94.0866 75.8867 93.3249 75.4766 92.8105C75.0664 92.2962 74.4056 92.0391 73.4941 92.0391C72.5111 92.0391 71.4922 92.3125 70.4375 92.8594L70.0762 92.0195C71.2415 91.4727 72.3939 91.1992 73.5332 91.1992C74.6986 91.1992 75.5677 91.502 76.1406 92.1074C76.7201 92.7129 77.0098 93.6569 77.0098 94.9395V102H76.2969ZM72.3906 101.316C73.5234 101.316 74.4154 100.994 75.0664 100.35C75.724 99.6986 76.0527 98.7969 76.0527 97.6445V96.5996L74.1973 96.6777C72.7064 96.7493 71.6419 96.9837 71.0039 97.3809C70.3724 97.7715 70.0566 98.3835 70.0566 99.2168C70.0566 99.8809 70.2585 100.398 70.6621 100.77C71.0723 101.134 71.6484 101.316 72.3906 101.316ZM87.8594 102V95.1152C87.8594 94.0475 87.6348 93.2728 87.1855 92.791C86.7363 92.3027 86.0397 92.0586 85.0957 92.0586C83.8262 92.0586 82.8952 92.3809 82.3027 93.0254C81.7168 93.6634 81.4238 94.7018 81.4238 96.1406V102H80.457V91.3848H81.2773L81.4629 92.8398H81.5215C82.2116 91.7331 83.4388 91.1797 85.2031 91.1797C87.612 91.1797 88.8164 92.472 88.8164 95.0566V102H87.8594ZM98.8359 99.2363C98.8359 100.187 98.4746 100.919 97.752 101.434C97.0293 101.941 96.0039 102.195 94.6758 102.195C93.2565 102.195 92.1302 101.977 91.2969 101.541V100.496C92.3646 101.03 93.4909 101.297 94.6758 101.297C95.724 101.297 96.5182 101.124 97.0586 100.779C97.6055 100.428 97.8789 99.9622 97.8789 99.3828C97.8789 98.849 97.6608 98.3997 97.2246 98.0352C96.7949 97.6706 96.0853 97.3125 95.0957 96.9609C94.0345 96.5768 93.2891 96.248 92.8594 95.9746C92.4297 95.6947 92.1042 95.3822 91.8828 95.0371C91.668 94.6855 91.5605 94.2591 91.5605 93.7578C91.5605 92.9635 91.8926 92.3353 92.5566 91.873C93.2272 91.4108 94.1615 91.1797 95.3594 91.1797C96.5052 91.1797 97.5924 91.3945 98.6211 91.8242L98.2598 92.7031C97.2181 92.2734 96.2513 92.0586 95.3594 92.0586C94.4935 92.0586 93.8066 92.2018 93.2988 92.4883C92.791 92.7747 92.5371 93.1719 92.5371 93.6797C92.5371 94.2331 92.7324 94.6758 93.123 95.0078C93.5202 95.3398 94.2917 95.7109 95.4375 96.1211C96.3945 96.4661 97.0911 96.7786 97.5273 97.0586C97.9635 97.332 98.2891 97.6445 98.5039 97.9961C98.7253 98.3477 98.8359 98.7611 98.8359 99.2363ZM107.01 102V87.7227H108.006V101.062H114.812V102H107.01ZM118.006 102H117.039V91.3848H118.006V102ZM116.902 88.4355C116.902 87.8105 117.107 87.498 117.518 87.498C117.719 87.498 117.876 87.5794 117.986 87.7422C118.104 87.9049 118.162 88.1361 118.162 88.4355C118.162 88.7285 118.104 88.9596 117.986 89.1289C117.876 89.2982 117.719 89.3828 117.518 89.3828C117.107 89.3828 116.902 89.0671 116.902 88.4355ZM129.852 91.3848V92.0586L127.654 92.1953C128.24 92.9245 128.533 93.7253 128.533 94.5977C128.533 95.6198 128.191 96.4499 127.508 97.0879C126.831 97.7194 125.919 98.0352 124.773 98.0352C124.292 98.0352 123.953 98.0156 123.758 97.9766C123.374 98.1784 123.081 98.416 122.879 98.6895C122.677 98.9629 122.576 99.2526 122.576 99.5586C122.576 99.8971 122.703 100.145 122.957 100.301C123.217 100.457 123.65 100.535 124.256 100.535H126.111C127.264 100.535 128.146 100.77 128.758 101.238C129.37 101.701 129.676 102.387 129.676 103.299C129.676 104.419 129.22 105.281 128.309 105.887C127.404 106.499 126.111 106.805 124.432 106.805C123.097 106.805 122.062 106.548 121.326 106.033C120.597 105.519 120.232 104.803 120.232 103.885C120.232 103.156 120.457 102.55 120.906 102.068C121.362 101.587 121.977 101.258 122.752 101.082C122.433 100.945 122.176 100.753 121.98 100.506C121.792 100.252 121.697 99.9622 121.697 99.6367C121.697 98.9271 122.15 98.3021 123.055 97.7617C122.436 97.5078 121.954 97.1107 121.609 96.5703C121.264 96.0234 121.092 95.3984 121.092 94.6953C121.092 93.6341 121.427 92.7845 122.098 92.1465C122.775 91.502 123.686 91.1797 124.832 91.1797C125.529 91.1797 126.069 91.248 126.453 91.3848H129.852ZM121.258 103.797C121.258 105.255 122.342 105.984 124.51 105.984C127.296 105.984 128.689 105.096 128.689 103.318C128.689 102.68 128.471 102.218 128.035 101.932C127.599 101.645 126.893 101.502 125.916 101.502H124.178C122.231 101.502 121.258 102.267 121.258 103.797ZM122.068 94.6953C122.068 95.5156 122.316 96.1536 122.811 96.6094C123.312 97.0586 123.979 97.2832 124.812 97.2832C125.698 97.2832 126.375 97.0586 126.844 96.6094C127.319 96.1602 127.557 95.5091 127.557 94.6562C127.557 93.7513 127.312 93.0742 126.824 92.625C126.342 92.1693 125.665 91.9414 124.793 91.9414C123.947 91.9414 123.279 92.1855 122.791 92.6738C122.309 93.1556 122.068 93.8294 122.068 94.6953ZM139.441 102V95.1152C139.441 94.0475 139.217 93.2728 138.768 92.791C138.318 92.3027 137.622 92.0586 136.678 92.0586C135.408 92.0586 134.477 92.3809 133.885 93.0254C133.299 93.6634 133.006 94.7018 133.006 96.1406V102H132.039V86.8047H133.006V91.6387L132.957 92.9961H133.025C133.423 92.3581 133.924 91.8958 134.529 91.6094C135.135 91.3229 135.887 91.1797 136.785 91.1797C139.194 91.1797 140.398 92.472 140.398 95.0566V102H139.441ZM146.639 101.336C147.251 101.336 147.785 101.284 148.24 101.18V101.961C147.771 102.117 147.231 102.195 146.619 102.195C145.682 102.195 144.988 101.945 144.539 101.443C144.096 100.942 143.875 100.154 143.875 99.0801V92.2246H142.303V91.6582L143.875 91.2188L144.363 88.8164H144.861V91.3848H147.977V92.2246H144.861V98.9434C144.861 99.7572 145.005 100.359 145.291 100.75C145.577 101.141 146.027 101.336 146.639 101.336Z" fill="#4F4F4F"/>
</svg>
