<svg width="242" height="178" viewBox="0 0 242 178" fill="none" xmlns="http://www.w3.org/2000/svg">
<rect width="242" height="178" fill="white"/>
<path d="M53.5074 50.4C53.0274 47.4 52.7874 44.7 52.7874 42.3C52.7874 36.86 54.0474 32.88 56.5674 30.36C59.1674 27.84 63.1274 26.58 68.4474 26.58V33.18L68.5074 33.24C67.5874 33.24 66.8274 33.3 66.2274 33.42C65.5474 33.54 65.0074 33.74 64.6074 34.02C64.2474 34.3 63.9274 34.6 63.6474 34.92C63.4074 35.2 63.2274 35.64 63.1074 36.24C62.9874 36.84 62.9274 37.36 62.9274 37.8C62.8874 38.08 62.8674 38.7 62.8674 39.66H68.4474V50.4H53.5074ZM35.0274 50.46C34.5474 47.46 34.3074 44.76 34.3074 42.36C34.3074 36.92 35.5874 32.94 38.1474 30.42C40.6674 27.9 44.6274 26.64 50.0274 26.64V33.3C49.1474 33.3 48.3874 33.36 47.7474 33.48C47.0274 33.6 46.5074 33.8 46.1874 34.08C45.7074 34.44 45.3874 34.74 45.2274 34.98C44.9874 35.26 44.8074 35.7 44.6874 36.3L44.4474 37.86V39.72H49.9674V50.46H35.0274Z" fill="#0A1417"/>
<path d="M32.8693 77.3153H36.9858V89H38.571V77.3153H42.6875V75.9091H32.8693V77.3153ZM46.438 83.0938C46.438 81.3807 47.5311 80.4091 49.0204 80.4091C50.4395 80.4091 51.296 81.304 51.296 82.8636V89H52.8045V82.7614C52.8045 80.2365 51.4622 79.054 49.4551 79.054C47.9082 79.054 47.0261 79.6996 46.5659 80.7159H46.438V75.9091H44.9295V89H46.438V83.0938ZM59.6808 89.2045C61.6751 89.2045 63.1325 88.2074 63.5927 86.7244L62.1353 86.3153C61.7518 87.3381 60.8633 87.8494 59.6808 87.8494C57.9102 87.8494 56.6893 86.7053 56.619 84.6023H63.7461V83.9631C63.7461 80.3068 61.5728 79.054 59.5273 79.054C56.8683 79.054 55.104 81.1506 55.104 84.1676C55.104 87.1847 56.8427 89.2045 59.6808 89.2045ZM56.619 83.2983C56.7212 81.7706 57.8015 80.4091 59.5273 80.4091C61.1637 80.4091 62.212 81.6364 62.212 83.2983H56.619ZM66.0408 89H67.5494V82.7869C67.5494 81.4574 68.5977 80.4858 70.0295 80.4858C70.4322 80.4858 70.8477 80.5625 70.9499 80.5881V79.054C70.7773 79.0412 70.381 79.0284 70.1573 79.0284C68.9812 79.0284 67.9585 79.6932 67.6005 80.6648H67.4982V79.1818H66.0408V89ZM76.5558 89.2045C78.5501 89.2045 80.0075 88.2074 80.4677 86.7244L79.0103 86.3153C78.6268 87.3381 77.7383 87.8494 76.5558 87.8494C74.7852 87.8494 73.5643 86.7053 73.494 84.6023H80.6211V83.9631C80.6211 80.3068 78.4478 79.054 76.4023 79.054C73.7433 79.054 71.979 81.1506 71.979 84.1676C71.979 87.1847 73.7177 89.2045 76.5558 89.2045ZM73.494 83.2983C73.5962 81.7706 74.6765 80.4091 76.4023 80.4091C78.0387 80.4091 79.087 81.6364 79.087 83.2983H73.494ZM84.2454 75.9091H82.8136V77.0852C82.8136 78.0312 82.3533 78.8494 81.8164 79.6165L82.6346 80.2812C83.6573 79.4631 84.2454 78.108 84.2454 77.0597V75.9091ZM91.804 81.3807C91.331 79.9872 90.2699 79.054 88.3267 79.054C86.2557 79.054 84.7216 80.2301 84.7216 81.892C84.7216 83.2472 85.527 84.1548 87.3295 84.5767L88.9659 84.9602C89.9567 85.1903 90.4233 85.6634 90.4233 86.3409C90.4233 87.1847 89.5284 87.875 88.1222 87.875C86.8885 87.875 86.1151 87.3445 85.8466 86.2898L84.4148 86.6477C84.7663 88.3161 86.1406 89.2045 88.1477 89.2045C90.4297 89.2045 91.983 87.9581 91.983 86.2642C91.983 84.8963 91.1264 84.0334 89.375 83.6051L87.9176 83.2472C86.7543 82.9595 86.2301 82.5696 86.2301 81.8153C86.2301 80.9716 87.125 80.358 88.3267 80.358C89.6435 80.358 90.1868 81.0866 90.4489 81.7642L91.804 81.3807ZM106.271 81.3807C105.798 79.9872 104.737 79.054 102.794 79.054C100.722 79.054 99.1884 80.2301 99.1884 81.892C99.1884 83.2472 99.9938 84.1548 101.796 84.5767L103.433 84.9602C104.423 85.1903 104.89 85.6634 104.89 86.3409C104.89 87.1847 103.995 87.875 102.589 87.875C101.355 87.875 100.582 87.3445 100.313 86.2898L98.8816 86.6477C99.2331 88.3161 100.607 89.2045 102.615 89.2045C104.896 89.2045 106.45 87.9581 106.45 86.2642C106.45 84.8963 105.593 84.0334 103.842 83.6051L102.384 83.2472C101.221 82.9595 100.697 82.5696 100.697 81.8153C100.697 80.9716 101.592 80.358 102.794 80.358C104.11 80.358 104.654 81.0866 104.916 81.7642L106.271 81.3807ZM112.709 89.2045C115.368 89.2045 117.158 87.1847 117.158 84.142C117.158 81.0739 115.368 79.054 112.709 79.054C110.05 79.054 108.26 81.0739 108.26 84.142C108.26 87.1847 110.05 89.2045 112.709 89.2045ZM112.709 87.8494C110.689 87.8494 109.769 86.1108 109.769 84.142C109.769 82.1733 110.689 80.4091 112.709 80.4091C114.729 80.4091 115.65 82.1733 115.65 84.142C115.65 86.1108 114.729 87.8494 112.709 87.8494ZM124.523 89H126.032V82.8636C126.032 81.4254 127.08 80.4091 128.256 80.4091C129.4 80.4091 130.199 81.157 130.199 82.2756V89H131.733V82.608C131.733 81.3423 132.526 80.4091 133.907 80.4091C134.981 80.4091 135.901 80.978 135.901 82.429V89H137.41V82.429C137.41 80.1214 136.17 79.054 134.418 79.054C133.012 79.054 131.983 79.6996 131.478 80.7159H131.376C130.89 79.6676 130.033 79.054 128.742 79.054C127.464 79.054 126.518 79.6676 126.108 80.7159H125.981V79.1818H124.523V89ZM146.355 84.9858C146.355 86.8267 144.949 87.6705 143.824 87.6705C142.571 87.6705 141.676 86.75 141.676 85.3182V79.1818H140.168V85.4205C140.168 87.9261 141.497 89.1278 143.338 89.1278C144.821 89.1278 145.793 88.3352 146.253 87.3381H146.355V89H147.864V79.1818H146.355V84.9858ZM154.615 89.2045C156.789 89.2045 158.221 87.875 158.476 86.1364H156.968C156.686 87.2102 155.792 87.8494 154.615 87.8494C152.826 87.8494 151.675 86.3665 151.675 84.0909C151.675 81.8665 152.851 80.4091 154.615 80.4091C155.945 80.4091 156.738 81.2273 156.968 82.1222H158.476C158.221 80.2812 156.661 79.054 154.59 79.054C151.931 79.054 150.167 81.1506 150.167 84.142C150.167 87.0824 151.854 89.2045 154.615 89.2045ZM162.19 83.0938C162.19 81.3807 163.283 80.4091 164.772 80.4091C166.191 80.4091 167.048 81.304 167.048 82.8636V89H168.556V82.7614C168.556 80.2365 167.214 79.054 165.207 79.054C163.66 79.054 162.778 79.6996 162.318 80.7159H162.19V75.9091H160.681V89H162.19V83.0938ZM180.649 79.1818H178.552V76.8295H177.044V79.1818H175.561V80.4602H177.044V86.5966C177.044 88.3097 178.424 89.1278 179.703 89.1278C180.265 89.1278 180.623 89.0256 180.828 88.9489L180.521 87.5938C180.393 87.6193 180.188 87.6705 179.856 87.6705C179.191 87.6705 178.552 87.4659 178.552 86.1875V80.4602H180.649V79.1818ZM186.929 89.2045C188.923 89.2045 190.381 88.2074 190.841 86.7244L189.383 86.3153C189 87.3381 188.111 87.8494 186.929 87.8494C185.158 87.8494 183.937 86.7053 183.867 84.6023H190.994V83.9631C190.994 80.3068 188.821 79.054 186.775 79.054C184.116 79.054 182.352 81.1506 182.352 84.1676C182.352 87.1847 184.091 89.2045 186.929 89.2045ZM183.867 83.2983C183.969 81.7706 185.05 80.4091 186.775 80.4091C188.412 80.4091 189.46 81.6364 189.46 83.2983H183.867ZM194.15 79.1818H192.412L195.531 84.0909L192.412 89H194.15L196.502 85.1903L198.855 89H200.593L197.423 84.0909L200.593 79.1818H198.855L196.502 83.196L194.15 79.1818ZM207.016 79.1818H204.919V76.8295H203.411V79.1818H201.928V80.4602H203.411V86.5966C203.411 88.3097 204.791 89.1278 206.07 89.1278C206.632 89.1278 206.99 89.0256 207.195 88.9489L206.888 87.5938C206.76 87.6193 206.556 87.6705 206.223 87.6705C205.558 87.6705 204.919 87.4659 204.919 86.1875V80.4602H207.016V79.1818ZM33.3807 117H34.8892V107.182H33.3807V117ZM34.1477 105.545C34.7358 105.545 35.2216 105.085 35.2216 104.523C35.2216 103.96 34.7358 103.5 34.1477 103.5C33.5597 103.5 33.0739 103.96 33.0739 104.523C33.0739 105.085 33.5597 105.545 34.1477 105.545ZM39.1607 111.094C39.1607 109.381 40.2218 108.409 41.6664 108.409C43.0662 108.409 43.9164 109.323 43.9164 110.864V117H45.4249V110.761C45.4249 108.256 44.089 107.054 42.101 107.054C40.6181 107.054 39.6976 107.719 39.2374 108.716H39.1096V107.182H37.6522V117H39.1607V111.094ZM57.5138 107.182H55.4173V104.83H53.9087V107.182H52.4258V108.46H53.9087V114.597C53.9087 116.31 55.2894 117.128 56.5678 117.128C57.1303 117.128 57.4883 117.026 57.6928 116.949L57.386 115.594C57.2582 115.619 57.0536 115.67 56.7212 115.67C56.0565 115.67 55.4173 115.466 55.4173 114.188V108.46H57.5138V107.182ZM61.5025 111.094C61.5025 109.381 62.5955 108.409 64.0849 108.409C65.5039 108.409 66.3604 109.304 66.3604 110.864V117H67.869V110.761C67.869 108.237 66.5266 107.054 64.5195 107.054C62.9727 107.054 62.0906 107.7 61.6303 108.716H61.5025V103.909H59.994V117H61.5025V111.094ZM74.7452 117.205C76.7395 117.205 78.1969 116.207 78.6571 114.724L77.1998 114.315C76.8162 115.338 75.9277 115.849 74.7452 115.849C72.9746 115.849 71.7537 114.705 71.6834 112.602H78.8105V111.963C78.8105 108.307 76.6373 107.054 74.5918 107.054C71.9327 107.054 70.1685 109.151 70.1685 112.168C70.1685 115.185 71.9071 117.205 74.7452 117.205ZM71.6834 111.298C71.7857 109.771 72.8659 108.409 74.5918 108.409C76.2282 108.409 77.2765 109.636 77.2765 111.298H71.6834ZM90.2843 117.205C92.2786 117.205 93.736 116.207 94.1962 114.724L92.7388 114.315C92.3553 115.338 91.4668 115.849 90.2843 115.849C88.5137 115.849 87.2928 114.705 87.2225 112.602H94.3496V111.963C94.3496 108.307 92.1763 107.054 90.1309 107.054C87.4718 107.054 85.7076 109.151 85.7076 112.168C85.7076 115.185 87.4462 117.205 90.2843 117.205ZM87.2225 111.298C87.3248 109.771 88.405 108.409 90.1309 108.409C91.7672 108.409 92.8155 109.636 92.8155 111.298H87.2225ZM104.374 107.182H102.738L100.027 115.006H99.9251L97.2148 107.182H95.5785L99.2092 117H100.743L104.374 107.182ZM108.955 117.23C110.669 117.23 111.563 116.31 111.87 115.67H111.947V117H113.455V110.531C113.455 107.412 111.078 107.054 109.825 107.054C108.342 107.054 106.654 107.565 105.887 109.355L107.319 109.866C107.651 109.151 108.438 108.384 109.876 108.384C111.263 108.384 111.947 109.119 111.947 110.378V110.429C111.947 111.158 111.205 111.094 109.416 111.324C107.594 111.56 105.606 111.963 105.606 114.213C105.606 116.131 107.089 117.23 108.955 117.23ZM109.186 115.875C107.984 115.875 107.115 115.338 107.115 114.29C107.115 113.139 108.163 112.781 109.339 112.628C109.978 112.551 111.691 112.372 111.947 112.065V113.446C111.947 114.673 110.975 115.875 109.186 115.875ZM117.717 103.909H116.209V117H117.717V103.909ZM126.668 112.986C126.668 114.827 125.262 115.67 124.137 115.67C122.884 115.67 121.989 114.75 121.989 113.318V107.182H120.48V113.42C120.48 115.926 121.81 117.128 123.651 117.128C125.134 117.128 126.105 116.335 126.566 115.338H126.668V117H128.176V107.182H126.668V112.986ZM133.828 117.23C135.542 117.23 136.436 116.31 136.743 115.67H136.82V117H138.328V110.531C138.328 107.412 135.951 107.054 134.698 107.054C133.215 107.054 131.527 107.565 130.76 109.355L132.192 109.866C132.525 109.151 133.311 108.384 134.749 108.384C136.136 108.384 136.82 109.119 136.82 110.378V110.429C136.82 111.158 136.078 111.094 134.289 111.324C132.467 111.56 130.479 111.963 130.479 114.213C130.479 116.131 131.962 117.23 133.828 117.23ZM134.059 115.875C132.857 115.875 131.988 115.338 131.988 114.29C131.988 113.139 133.036 112.781 134.212 112.628C134.851 112.551 136.564 112.372 136.82 112.065V113.446C136.82 114.673 135.848 115.875 134.059 115.875ZM145.352 107.182H143.255V104.83H141.747V107.182H140.264V108.46H141.747V114.597C141.747 116.31 143.127 117.128 144.406 117.128C144.968 117.128 145.326 117.026 145.531 116.949L145.224 115.594C145.096 115.619 144.892 115.67 144.559 115.67C143.894 115.67 143.255 115.466 143.255 114.188V108.46H145.352V107.182ZM147.621 117H149.129V107.182H147.621V117ZM148.388 105.545C148.976 105.545 149.462 105.085 149.462 104.523C149.462 103.96 148.976 103.5 148.388 103.5C147.8 103.5 147.314 103.96 147.314 104.523C147.314 105.085 147.8 105.545 148.388 105.545ZM155.881 117.205C158.54 117.205 160.33 115.185 160.33 112.142C160.33 109.074 158.54 107.054 155.881 107.054C153.222 107.054 151.432 109.074 151.432 112.142C151.432 115.185 153.222 117.205 155.881 117.205ZM155.881 115.849C153.861 115.849 152.941 114.111 152.941 112.142C152.941 110.173 153.861 108.409 155.881 108.409C157.901 108.409 158.821 110.173 158.821 112.142C158.821 114.111 157.901 115.849 155.881 115.849ZM164.141 111.094C164.141 109.381 165.202 108.409 166.647 108.409C168.047 108.409 168.897 109.323 168.897 110.864V117H170.405V110.761C170.405 108.256 169.069 107.054 167.081 107.054C165.599 107.054 164.678 107.719 164.218 108.716H164.09V107.182H162.633V117H164.141V111.094ZM180.116 109.381C179.643 107.987 178.582 107.054 176.639 107.054C174.568 107.054 173.034 108.23 173.034 109.892C173.034 111.247 173.839 112.155 175.642 112.577L177.278 112.96C178.269 113.19 178.736 113.663 178.736 114.341C178.736 115.185 177.841 115.875 176.435 115.875C175.201 115.875 174.428 115.344 174.159 114.29L172.727 114.648C173.079 116.316 174.453 117.205 176.46 117.205C178.742 117.205 180.295 115.958 180.295 114.264C180.295 112.896 179.439 112.033 177.688 111.605L176.23 111.247C175.067 110.96 174.543 110.57 174.543 109.815C174.543 108.972 175.438 108.358 176.639 108.358C177.956 108.358 178.499 109.087 178.761 109.764L180.116 109.381ZM183.666 117.102C184.298 117.102 184.816 116.585 184.816 115.952C184.816 115.319 184.298 114.801 183.666 114.801C183.033 114.801 182.515 115.319 182.515 115.952C182.515 116.585 183.033 117.102 183.666 117.102ZM38.5966 131.909V141.267C38.5966 142.897 37.8168 143.773 36.4489 143.773C35.2024 143.773 34.3011 143.044 34.3011 141.932H32.7415C32.7415 143.945 34.3011 145.179 36.4489 145.179C38.7244 145.179 40.1818 143.779 40.1818 141.267V131.909H38.5966ZM49.3416 140.986C49.3416 142.827 47.9354 143.67 46.8104 143.67C45.5575 143.67 44.6626 142.75 44.6626 141.318V135.182H43.1541V141.42C43.1541 143.926 44.4837 145.128 46.3246 145.128C47.8075 145.128 48.7791 144.335 49.2393 143.338H49.3416V145H50.8501V135.182H49.3416V140.986ZM60.5676 137.381C60.0946 135.987 59.0336 135.054 57.0904 135.054C55.0194 135.054 53.4853 136.23 53.4853 137.892C53.4853 139.247 54.2907 140.155 56.0932 140.577L57.7296 140.96C58.7203 141.19 59.187 141.663 59.187 142.341C59.187 143.185 58.2921 143.875 56.8858 143.875C55.6522 143.875 54.8787 143.344 54.6103 142.29L53.1784 142.648C53.53 144.316 54.9043 145.205 56.9114 145.205C59.1934 145.205 60.7466 143.958 60.7466 142.264C60.7466 140.896 59.8901 140.033 58.1387 139.605L56.6813 139.247C55.5179 138.96 54.9938 138.57 54.9938 137.815C54.9938 136.972 55.8887 136.358 57.0904 136.358C58.4071 136.358 58.9505 137.087 59.2125 137.764L60.5676 137.381ZM67.2873 135.182H65.1907V132.83H63.6822V135.182H62.1992V136.46H63.6822V142.597C63.6822 144.31 65.0629 145.128 66.3413 145.128C66.9038 145.128 67.2617 145.026 67.4663 144.949L67.1594 143.594C67.0316 143.619 66.8271 143.67 66.4947 143.67C65.8299 143.67 65.1907 143.466 65.1907 142.188V136.46H67.2873V135.182ZM78.582 148.886C80.9343 148.886 82.8264 147.812 82.8264 145.281V135.182H81.369V136.741H81.2156C80.8832 136.23 80.2695 135.054 78.3519 135.054C75.8718 135.054 74.1587 137.023 74.1587 140.04C74.1587 143.108 75.9485 144.847 78.3263 144.847C80.244 144.847 80.8576 143.722 81.19 143.185H81.3178V145.179C81.3178 146.815 80.1673 147.557 78.582 147.557C76.7987 147.557 76.1722 146.617 75.7695 146.074L74.5678 146.918C75.1815 147.947 76.3896 148.886 78.582 148.886ZM78.5309 143.491C76.6388 143.491 75.6673 142.06 75.6673 140.014C75.6673 138.02 76.6133 136.409 78.5309 136.409C80.3718 136.409 81.3434 137.892 81.3434 140.014C81.3434 142.188 80.3462 143.491 78.5309 143.491ZM85.5877 145H87.0962V135.182H85.5877V145ZM86.3548 133.545C86.9428 133.545 87.4286 133.085 87.4286 132.523C87.4286 131.96 86.9428 131.5 86.3548 131.5C85.7667 131.5 85.2809 131.96 85.2809 132.523C85.2809 133.085 85.7667 133.545 86.3548 133.545ZM97.8876 135.182H96.2512L93.541 143.006H93.4387L90.7285 135.182H89.0922L92.7228 145H94.2569L97.8876 135.182ZM103.644 145.205C105.638 145.205 107.095 144.207 107.556 142.724L106.098 142.315C105.715 143.338 104.826 143.849 103.644 143.849C101.873 143.849 100.652 142.705 100.582 140.602H107.709V139.963C107.709 136.307 105.536 135.054 103.49 135.054C100.831 135.054 99.0669 137.151 99.0669 140.168C99.0669 143.185 100.806 145.205 103.644 145.205ZM100.582 139.298C100.684 137.771 101.764 136.409 103.49 136.409C105.127 136.409 106.175 137.636 106.175 139.298H100.582ZM115.066 145H116.575V138.864C116.575 137.425 117.623 136.409 118.799 136.409C119.943 136.409 120.742 137.157 120.742 138.276V145H122.276V138.608C122.276 137.342 123.069 136.409 124.45 136.409C125.524 136.409 126.444 136.978 126.444 138.429V145H127.953V138.429C127.953 136.121 126.713 135.054 124.961 135.054C123.555 135.054 122.526 135.7 122.021 136.716H121.919C121.433 135.668 120.576 135.054 119.285 135.054C118.007 135.054 117.061 135.668 116.651 136.716H116.524V135.182H115.066V145ZM134.827 145.205C136.822 145.205 138.279 144.207 138.739 142.724L137.282 142.315C136.898 143.338 136.01 143.849 134.827 143.849C133.057 143.849 131.836 142.705 131.765 140.602H138.893V139.963C138.893 136.307 136.719 135.054 134.674 135.054C132.015 135.054 130.251 137.151 130.251 140.168C130.251 143.185 131.989 145.205 134.827 145.205ZM131.765 139.298C131.868 137.771 132.948 136.409 134.674 136.409C136.31 136.409 137.358 137.636 137.358 139.298H131.765ZM150.52 135.182H148.423V132.83H146.915V135.182H145.432V136.46H146.915V142.597C146.915 144.31 148.295 145.128 149.574 145.128C150.136 145.128 150.494 145.026 150.699 144.949L150.392 143.594C150.264 143.619 150.059 143.67 149.727 143.67C149.062 143.67 148.423 143.466 148.423 142.188V136.46H150.52V135.182ZM154.508 139.094C154.508 137.381 155.601 136.409 157.091 136.409C158.51 136.409 159.366 137.304 159.366 138.864V145H160.875V138.761C160.875 136.237 159.532 135.054 157.525 135.054C155.979 135.054 155.096 135.7 154.636 136.716H154.508V131.909H153V145H154.508V139.094ZM167.751 145.205C169.745 145.205 171.203 144.207 171.663 142.724L170.206 142.315C169.822 143.338 168.934 143.849 167.751 143.849C165.98 143.849 164.76 142.705 164.689 140.602H171.816V139.963C171.816 136.307 169.643 135.054 167.598 135.054C164.939 135.054 163.174 137.151 163.174 140.168C163.174 143.185 164.913 145.205 167.751 145.205ZM164.689 139.298C164.792 137.771 165.872 136.409 167.598 136.409C169.234 136.409 170.282 137.636 170.282 139.298H164.689ZM179.174 135.182V145.716C179.174 146.713 178.765 147.276 177.844 147.276H177.563V148.682H177.87C179.762 148.682 180.682 147.531 180.682 145.716V135.182H179.174ZM179.915 133.545C180.503 133.545 180.989 133.085 180.989 132.523C180.989 131.96 180.503 131.5 179.915 131.5C179.327 131.5 178.841 131.96 178.841 132.523C178.841 133.085 179.327 133.545 179.915 133.545ZM183.445 145H184.954V135.182H183.445V145ZM184.212 133.545C184.8 133.545 185.286 133.085 185.286 132.523C185.286 131.96 184.8 131.5 184.212 131.5C183.624 131.5 183.138 131.96 183.138 132.523C183.138 133.085 183.624 133.545 184.212 133.545ZM194.671 137.381C194.198 135.987 193.137 135.054 191.194 135.054C189.123 135.054 187.589 136.23 187.589 137.892C187.589 139.247 188.394 140.155 190.197 140.577L191.833 140.96C192.824 141.19 193.29 141.663 193.29 142.341C193.29 143.185 192.396 143.875 190.989 143.875C189.756 143.875 188.982 143.344 188.714 142.29L187.282 142.648C187.634 144.316 189.008 145.205 191.015 145.205C193.297 145.205 194.85 143.958 194.85 142.264C194.85 140.896 193.994 140.033 192.242 139.605L190.785 139.247C189.621 138.96 189.097 138.57 189.097 137.815C189.097 136.972 189.992 136.358 191.194 136.358C192.511 136.358 193.054 137.087 193.316 137.764L194.671 137.381ZM201.391 135.182H199.294V132.83H197.786V135.182H196.303V136.46H197.786V142.597C197.786 144.31 199.166 145.128 200.445 145.128C201.007 145.128 201.365 145.026 201.57 144.949L201.263 143.594C201.135 143.619 200.931 143.67 200.598 143.67C199.933 143.67 199.294 143.466 199.294 142.188V136.46H201.391V135.182Z" fill="#0A1417"/>
</svg>
