<svg width="242" height="178" viewBox="0 0 242 178" fill="none" xmlns="http://www.w3.org/2000/svg">
<rect width="242" height="178" fill="white"/>
<path d="M53.5074 50.4C53.0274 47.4 52.7874 44.7 52.7874 42.3C52.7874 36.86 54.0474 32.88 56.5674 30.36C59.1674 27.84 63.1274 26.58 68.4474 26.58V33.18L68.5074 33.24C67.5874 33.24 66.8274 33.3 66.2274 33.42C65.5474 33.54 65.0074 33.74 64.6074 34.02C64.2474 34.3 63.9274 34.6 63.6474 34.92C63.4074 35.2 63.2274 35.64 63.1074 36.24C62.9874 36.84 62.9274 37.36 62.9274 37.8C62.8874 38.08 62.8674 38.7 62.8674 39.66H68.4474V50.4H53.5074ZM35.0274 50.46C34.5474 47.46 34.3074 44.76 34.3074 42.36C34.3074 36.92 35.5874 32.94 38.1474 30.42C40.6674 27.9 44.6274 26.64 50.0274 26.64V33.3C49.1474 33.3 48.3874 33.36 47.7474 33.48C47.0274 33.6 46.5074 33.8 46.1874 34.08C45.7074 34.44 45.3874 34.74 45.2274 34.98C44.9874 35.26 44.8074 35.7 44.6874 36.3L44.4474 37.86V39.72H49.9674V50.46H35.0274Z" fill="#0A1417"/>
<path d="M32.8693 77.3153H36.9858V89H38.571V77.3153H42.6875V75.9091H32.8693V77.3153ZM46.438 83.0938C46.438 81.3807 47.5311 80.4091 49.0204 80.4091C50.4395 80.4091 51.296 81.304 51.296 82.8636V89H52.8045V82.7614C52.8045 80.2365 51.4622 79.054 49.4551 79.054C47.9082 79.054 47.0261 79.6996 46.5659 80.7159H46.438V75.9091H44.9295V89H46.438V83.0938ZM59.6808 89.2045C61.6751 89.2045 63.1325 88.2074 63.5927 86.7244L62.1353 86.3153C61.7518 87.3381 60.8633 87.8494 59.6808 87.8494C57.9102 87.8494 56.6893 86.7053 56.619 84.6023H63.7461V83.9631C63.7461 80.3068 61.5728 79.054 59.5273 79.054C56.8683 79.054 55.104 81.1506 55.104 84.1676C55.104 87.1847 56.8427 89.2045 59.6808 89.2045ZM56.619 83.2983C56.7212 81.7706 57.8015 80.4091 59.5273 80.4091C61.1637 80.4091 62.212 81.6364 62.212 83.2983H56.619ZM78.0579 81.3807C77.5849 79.9872 76.5238 79.054 74.5806 79.054C72.5096 79.054 70.9755 80.2301 70.9755 81.892C70.9755 83.2472 71.7809 84.1548 73.5835 84.5767L75.2198 84.9602C76.2106 85.1903 76.6772 85.6634 76.6772 86.3409C76.6772 87.1847 75.7823 87.875 74.3761 87.875C73.1424 87.875 72.369 87.3445 72.1005 86.2898L70.6687 86.6477C71.0202 88.3161 72.3945 89.2045 74.4016 89.2045C76.6836 89.2045 78.2369 87.9581 78.2369 86.2642C78.2369 84.8963 77.3803 84.0334 75.6289 83.6051L74.1715 83.2472C73.0082 82.9595 72.484 82.5696 72.484 81.8153C72.484 80.9716 73.3789 80.358 74.5806 80.358C75.8974 80.358 76.4407 81.0866 76.7028 81.7642L78.0579 81.3807ZM84.4963 89.2045C86.6696 89.2045 88.1014 87.875 88.3571 86.1364H86.8485C86.5673 87.2102 85.6724 87.8494 84.4963 87.8494C82.7065 87.8494 81.5559 86.3665 81.5559 84.0909C81.5559 81.8665 82.7321 80.4091 84.4963 80.4091C85.8258 80.4091 86.6184 81.2273 86.8485 82.1222H88.3571C88.1014 80.2812 86.5417 79.054 84.4707 79.054C81.8116 79.054 80.0474 81.1506 80.0474 84.142C80.0474 87.0824 81.7349 89.2045 84.4963 89.2045ZM92.0708 83.0938C92.0708 81.3807 93.1639 80.4091 94.6532 80.4091C96.0723 80.4091 96.9288 81.304 96.9288 82.8636V89H98.4373V82.7614C98.4373 80.2365 97.095 79.054 95.0879 79.054C93.541 79.054 92.6589 79.6996 92.1987 80.7159H92.0708V75.9091H90.5623V89H92.0708V83.0938ZM105.314 89.2045C107.308 89.2045 108.765 88.2074 109.225 86.7244L107.768 86.3153C107.385 87.3381 106.496 87.8494 105.314 87.8494C103.543 87.8494 102.322 86.7053 102.252 84.6023H109.379V83.9631C109.379 80.3068 107.206 79.054 105.16 79.054C102.501 79.054 100.737 81.1506 100.737 84.1676C100.737 87.1847 102.475 89.2045 105.314 89.2045ZM102.252 83.2983C102.354 81.7706 103.434 80.4091 105.16 80.4091C106.797 80.4091 107.845 81.6364 107.845 83.2983H102.252ZM115.381 89.2045C117.273 89.2045 117.912 88.0284 118.245 87.4915H118.424V89H119.881V75.9091H118.373V80.7415H118.245C117.912 80.2301 117.324 79.054 115.407 79.054C112.926 79.054 111.213 81.0227 111.213 84.1165C111.213 87.2358 112.926 89.2045 115.381 89.2045ZM115.586 87.8494C113.694 87.8494 112.722 86.1875 112.722 84.0909C112.722 82.0199 113.668 80.4091 115.586 80.4091C117.426 80.4091 118.398 81.892 118.398 84.0909C118.398 86.3153 117.401 87.8494 115.586 87.8494ZM129.041 84.9858C129.041 86.8267 127.635 87.6705 126.51 87.6705C125.257 87.6705 124.362 86.75 124.362 85.3182V79.1818H122.853V85.4205C122.853 87.9261 124.183 89.1278 126.024 89.1278C127.507 89.1278 128.478 88.3352 128.939 87.3381H129.041V89H130.549V79.1818H129.041V84.9858ZM134.821 75.9091H133.312V89H134.821V75.9091ZM137.584 89H139.092V79.1818H137.584V89ZM138.351 77.5455C138.939 77.5455 139.425 77.0852 139.425 76.5227C139.425 75.9602 138.939 75.5 138.351 75.5C137.763 75.5 137.277 75.9602 137.277 76.5227C137.277 77.0852 137.763 77.5455 138.351 77.5455ZM143.364 83.0938C143.364 81.3807 144.425 80.4091 145.869 80.4091C147.269 80.4091 148.119 81.3232 148.119 82.8636V89H149.628V82.7614C149.628 80.2557 148.292 79.054 146.304 79.054C144.821 79.054 143.901 79.7188 143.441 80.7159H143.313V79.1818H141.855V89H143.364V83.0938ZM156.348 92.8864C158.7 92.8864 160.592 91.8125 160.592 89.2812V79.1818H159.135V80.7415H158.981C158.649 80.2301 158.035 79.054 156.118 79.054C153.637 79.054 151.924 81.0227 151.924 84.0398C151.924 87.108 153.714 88.8466 156.092 88.8466C158.01 88.8466 158.623 87.7216 158.956 87.1847H159.083V89.179C159.083 90.8153 157.933 91.5568 156.348 91.5568C154.564 91.5568 153.938 90.6172 153.535 90.0739L152.333 90.9176C152.947 91.9467 154.155 92.8864 156.348 92.8864ZM156.297 87.4915C154.404 87.4915 153.433 86.0597 153.433 84.0142C153.433 82.0199 154.379 80.4091 156.297 80.4091C158.137 80.4091 159.109 81.892 159.109 84.0142C159.109 86.1875 158.112 87.4915 156.297 87.4915ZM172.686 79.1818H170.589V76.8295H169.081V79.1818H167.598V80.4602H169.081V86.5966C169.081 88.3097 170.461 89.1278 171.74 89.1278C172.302 89.1278 172.66 89.0256 172.865 88.9489L172.558 87.5938C172.43 87.6193 172.225 87.6705 171.893 87.6705C171.228 87.6705 170.589 87.4659 170.589 86.1875V80.4602H172.686V79.1818ZM178.838 89.2045C181.497 89.2045 183.287 87.1847 183.287 84.142C183.287 81.0739 181.497 79.054 178.838 79.054C176.179 79.054 174.389 81.0739 174.389 84.142C174.389 87.1847 176.179 89.2045 178.838 89.2045ZM178.838 87.8494C176.818 87.8494 175.898 86.1108 175.898 84.142C175.898 82.1733 176.818 80.4091 178.838 80.4091C180.858 80.4091 181.778 82.1733 181.778 84.142C181.778 86.1108 180.858 87.8494 178.838 87.8494ZM189.578 89.2045C192.237 89.2045 194.027 87.1847 194.027 84.142C194.027 81.0739 192.237 79.054 189.578 79.054C186.919 79.054 185.129 81.0739 185.129 84.142C185.129 87.1847 186.919 89.2045 189.578 89.2045ZM189.578 87.8494C187.558 87.8494 186.638 86.1108 186.638 84.142C186.638 82.1733 187.558 80.4091 189.578 80.4091C191.598 80.4091 192.519 82.1733 192.519 84.142C192.519 86.1108 191.598 87.8494 189.578 87.8494ZM197.838 75.9091H196.33V89H197.838V75.9091ZM37.0881 117.205C38.9801 117.205 39.6193 116.028 39.9517 115.491H40.1307V117H41.5881V103.909H40.0795V108.741H39.9517C39.6193 108.23 39.0312 107.054 37.1136 107.054C34.6335 107.054 32.9205 109.023 32.9205 112.116C32.9205 115.236 34.6335 117.205 37.0881 117.205ZM37.2926 115.849C35.4006 115.849 34.429 114.188 34.429 112.091C34.429 110.02 35.375 108.409 37.2926 108.409C39.1335 108.409 40.1051 109.892 40.1051 112.091C40.1051 114.315 39.108 115.849 37.2926 115.849ZM48.549 117.205C51.2081 117.205 52.9979 115.185 52.9979 112.142C52.9979 109.074 51.2081 107.054 48.549 107.054C45.8899 107.054 44.1001 109.074 44.1001 112.142C44.1001 115.185 45.8899 117.205 48.549 117.205ZM48.549 115.849C46.5291 115.849 45.6087 114.111 45.6087 112.142C45.6087 110.173 46.5291 108.409 48.549 108.409C50.5689 108.409 51.4893 110.173 51.4893 112.142C51.4893 114.111 50.5689 115.849 48.549 115.849ZM59.4171 117.205C61.4114 117.205 62.8688 116.207 63.329 114.724L61.8716 114.315C61.4881 115.338 60.5996 115.849 59.4171 115.849C57.6465 115.849 56.4256 114.705 56.3553 112.602H63.4824V111.963C63.4824 108.307 61.3091 107.054 59.2637 107.054C56.6046 107.054 54.8404 109.151 54.8404 112.168C54.8404 115.185 56.579 117.205 59.4171 117.205ZM56.3553 111.298C56.4576 109.771 57.5378 108.409 59.2637 108.409C60.9 108.409 61.9483 109.636 61.9483 111.298H56.3553ZM72.7317 109.381C72.2587 107.987 71.1976 107.054 69.2544 107.054C67.1834 107.054 65.6493 108.23 65.6493 109.892C65.6493 111.247 66.4547 112.155 68.2573 112.577L69.8936 112.96C70.8844 113.19 71.351 113.663 71.351 114.341C71.351 115.185 70.4561 115.875 69.0499 115.875C67.8162 115.875 67.0428 115.344 66.7743 114.29L65.3425 114.648C65.6941 116.316 67.0684 117.205 69.0755 117.205C71.3574 117.205 72.9107 115.958 72.9107 114.264C72.9107 112.896 72.0542 112.033 70.3027 111.605L68.8453 111.247C67.682 110.96 67.1578 110.57 67.1578 109.815C67.1578 108.972 68.0527 108.358 69.2544 108.358C70.5712 108.358 71.1145 109.087 71.3766 109.764L72.7317 109.381ZM76.69 111.094C76.69 109.381 77.7511 108.409 79.1957 108.409C80.5955 108.409 81.4457 109.323 81.4457 110.864V117H82.9542V110.761C82.9542 108.256 81.6183 107.054 79.6303 107.054C78.1474 107.054 77.2269 107.719 76.7667 108.716H76.6388V107.182H75.1815V117H76.69V111.094ZM87.0403 103.909H85.6085V105.085C85.6085 106.031 85.1483 106.849 84.6113 107.616L85.4295 108.281C86.4522 107.463 87.0403 106.108 87.0403 105.06V103.909ZM93.5666 107.182H91.47V104.83H89.9615V107.182H88.4785V108.46H89.9615V114.597C89.9615 116.31 91.3422 117.128 92.6206 117.128C93.1831 117.128 93.541 117.026 93.7456 116.949L93.4387 115.594C93.3109 115.619 93.1064 115.67 92.774 115.67C92.1092 115.67 91.47 115.466 91.47 114.188V108.46H93.5666V107.182ZM107.853 109.381C107.38 107.987 106.319 107.054 104.376 107.054C102.305 107.054 100.77 108.23 100.77 109.892C100.77 111.247 101.576 112.155 103.378 112.577L105.015 112.96C106.006 113.19 106.472 113.663 106.472 114.341C106.472 115.185 105.577 115.875 104.171 115.875C102.937 115.875 102.164 115.344 101.895 114.29L100.464 114.648C100.815 116.316 102.189 117.205 104.197 117.205C106.479 117.205 108.032 115.958 108.032 114.264C108.032 112.896 107.175 112.033 105.424 111.605L103.966 111.247C102.803 110.96 102.279 110.57 102.279 109.815C102.279 108.972 103.174 108.358 104.376 108.358C105.692 108.358 106.236 109.087 106.498 109.764L107.853 109.381ZM114.419 117.205C116.413 117.205 117.871 116.207 118.331 114.724L116.874 114.315C116.49 115.338 115.602 115.849 114.419 115.849C112.648 115.849 111.428 114.705 111.357 112.602H118.484V111.963C118.484 108.307 116.311 107.054 114.266 107.054C111.607 107.054 109.842 109.151 109.842 112.168C109.842 115.185 111.581 117.205 114.419 117.205ZM111.357 111.298C111.46 109.771 112.54 108.409 114.266 108.409C115.902 108.409 116.95 109.636 116.95 111.298H111.357ZM124.896 117.205C126.89 117.205 128.347 116.207 128.808 114.724L127.35 114.315C126.967 115.338 126.078 115.849 124.896 115.849C123.125 115.849 121.904 114.705 121.834 112.602H128.961V111.963C128.961 108.307 126.788 107.054 124.742 107.054C122.083 107.054 120.319 109.151 120.319 112.168C120.319 115.185 122.058 117.205 124.896 117.205ZM121.834 111.298C121.936 109.771 123.016 108.409 124.742 108.409C126.379 108.409 127.427 109.636 127.427 111.298H121.834ZM131.256 117H132.764V110.864C132.764 109.425 133.812 108.409 134.989 108.409C136.133 108.409 136.932 109.157 136.932 110.276V117H138.466V110.608C138.466 109.342 139.259 108.409 140.639 108.409C141.713 108.409 142.634 108.978 142.634 110.429V117H144.142V110.429C144.142 108.121 142.902 107.054 141.151 107.054C139.744 107.054 138.715 107.7 138.21 108.716H138.108C137.622 107.668 136.766 107.054 135.474 107.054C134.196 107.054 133.25 107.668 132.841 108.716H132.713V107.182H131.256V117ZM156.233 107.182H154.136V104.83H152.627V107.182H151.145V108.46H152.627V114.597C152.627 116.31 154.008 117.128 155.287 117.128C155.849 117.128 156.207 117.026 156.412 116.949L156.105 115.594C155.977 115.619 155.772 115.67 155.44 115.67C154.775 115.67 154.136 115.466 154.136 114.188V108.46H156.233V107.182ZM162.385 117.205C165.044 117.205 166.834 115.185 166.834 112.142C166.834 109.074 165.044 107.054 162.385 107.054C159.726 107.054 157.936 109.074 157.936 112.142C157.936 115.185 159.726 117.205 162.385 117.205ZM162.385 115.849C160.365 115.849 159.445 114.111 159.445 112.142C159.445 110.173 160.365 108.409 162.385 108.409C164.405 108.409 165.325 110.173 165.325 112.142C165.325 114.111 164.405 115.849 162.385 115.849ZM40.3352 137.381C39.8622 135.987 38.8011 135.054 36.858 135.054C34.7869 135.054 33.2528 136.23 33.2528 137.892C33.2528 139.247 34.0582 140.155 35.8608 140.577L37.4972 140.96C38.4879 141.19 38.9545 141.663 38.9545 142.341C38.9545 143.185 38.0597 143.875 36.6534 143.875C35.4197 143.875 34.6463 143.344 34.3778 142.29L32.946 142.648C33.2976 144.316 34.6719 145.205 36.679 145.205C38.9609 145.205 40.5142 143.958 40.5142 142.264C40.5142 140.896 39.6577 140.033 37.9062 139.605L36.4489 139.247C35.2855 138.96 34.7614 138.57 34.7614 137.815C34.7614 136.972 35.6562 136.358 36.858 136.358C38.1747 136.358 38.718 137.087 38.9801 137.764L40.3352 137.381ZM45.6742 145.23C47.3873 145.23 48.2821 144.31 48.589 143.67H48.6657V145H50.1742V138.531C50.1742 135.412 47.7963 135.054 46.5435 135.054C45.0605 135.054 43.373 135.565 42.606 137.355L44.0378 137.866C44.3702 137.151 45.1564 136.384 46.5946 136.384C47.9817 136.384 48.6657 137.119 48.6657 138.378V138.429C48.6657 139.158 47.9242 139.094 46.1344 139.324C44.3127 139.56 42.3248 139.963 42.3248 142.213C42.3248 144.131 43.8077 145.23 45.6742 145.23ZM45.9043 143.875C44.7026 143.875 43.8333 143.338 43.8333 142.29C43.8333 141.139 44.8816 140.781 46.0577 140.628C46.6969 140.551 48.41 140.372 48.6657 140.065V141.446C48.6657 142.673 47.6941 143.875 45.9043 143.875ZM60.6044 135.182H58.968L56.2578 143.006H56.1555L53.4453 135.182H51.8089L55.4396 145H56.9737L60.6044 135.182ZM66.3604 145.205C68.3548 145.205 69.8121 144.207 70.2724 142.724L68.815 142.315C68.4315 143.338 67.543 143.849 66.3604 143.849C64.5898 143.849 63.369 142.705 63.2987 140.602H70.4258V139.963C70.4258 136.307 68.2525 135.054 66.207 135.054C63.5479 135.054 61.7837 137.151 61.7837 140.168C61.7837 143.185 63.5224 145.205 66.3604 145.205ZM63.2987 139.298C63.4009 137.771 64.4812 136.409 66.207 136.409C67.8434 136.409 68.8917 137.636 68.8917 139.298H63.2987ZM77.783 145H79.2915V138.864C79.2915 137.425 80.3398 136.409 81.516 136.409C82.6602 136.409 83.4592 137.157 83.4592 138.276V145H84.9933V138.608C84.9933 137.342 85.7859 136.409 87.1665 136.409C88.2404 136.409 89.1609 136.978 89.1609 138.429V145H90.6694V138.429C90.6694 136.121 89.4293 135.054 87.6779 135.054C86.2717 135.054 85.2425 135.7 84.7376 136.716H84.6353C84.1495 135.668 83.293 135.054 82.0018 135.054C80.7234 135.054 79.7773 135.668 79.3683 136.716H79.2404V135.182H77.783V145ZM97.544 145.205C99.5384 145.205 100.996 144.207 101.456 142.724L99.9986 142.315C99.6151 143.338 98.7266 143.849 97.544 143.849C95.7734 143.849 94.5526 142.705 94.4822 140.602H101.609V139.963C101.609 136.307 99.4361 135.054 97.3906 135.054C94.7315 135.054 92.9673 137.151 92.9673 140.168C92.9673 143.185 94.706 145.205 97.544 145.205ZM94.4822 139.298C94.5845 137.771 95.6648 136.409 97.3906 136.409C99.027 136.409 100.075 137.636 100.075 139.298H94.4822ZM108.967 145H110.475V138.864C110.475 137.425 111.523 136.409 112.7 136.409C113.844 136.409 114.643 137.157 114.643 138.276V145H116.177V138.608C116.177 137.342 116.969 136.409 118.35 136.409C119.424 136.409 120.344 136.978 120.344 138.429V145H121.853V138.429C121.853 136.121 120.613 135.054 118.862 135.054C117.455 135.054 116.426 135.7 115.921 136.716H115.819C115.333 135.668 114.477 135.054 113.185 135.054C111.907 135.054 110.961 135.668 110.552 136.716H110.424V135.182H108.967V145ZM130.799 140.986C130.799 142.827 129.392 143.67 128.267 143.67C127.015 143.67 126.12 142.75 126.12 141.318V135.182H124.611V141.42C124.611 143.926 125.941 145.128 127.782 145.128C129.265 145.128 130.236 144.335 130.696 143.338H130.799V145H132.307V135.182H130.799V140.986ZM139.059 145.205C141.232 145.205 142.664 143.875 142.92 142.136H141.411C141.13 143.21 140.235 143.849 139.059 143.849C137.269 143.849 136.118 142.366 136.118 140.091C136.118 137.866 137.295 136.409 139.059 136.409C140.388 136.409 141.181 137.227 141.411 138.122H142.92C142.664 136.281 141.104 135.054 139.033 135.054C136.374 135.054 134.61 137.151 134.61 140.142C134.61 143.082 136.297 145.205 139.059 145.205ZM146.633 139.094C146.633 137.381 147.726 136.409 149.216 136.409C150.635 136.409 151.491 137.304 151.491 138.864V145H153V138.761C153 136.237 151.657 135.054 149.65 135.054C148.104 135.054 147.221 135.7 146.761 136.716H146.633V131.909H145.125V145H146.633V139.094ZM165.092 135.182H162.995V132.83H161.487V135.182H160.004V136.46H161.487V142.597C161.487 144.31 162.868 145.128 164.146 145.128C164.708 145.128 165.066 145.026 165.271 144.949L164.964 143.594C164.836 143.619 164.632 143.67 164.299 143.67C163.635 143.67 162.995 143.466 162.995 142.188V136.46H165.092V135.182ZM167.361 145H168.87V135.182H167.361V145ZM168.128 133.545C168.716 133.545 169.202 133.085 169.202 132.523C169.202 131.96 168.716 131.5 168.128 131.5C167.54 131.5 167.054 131.96 167.054 132.523C167.054 133.085 167.54 133.545 168.128 133.545ZM171.633 145H173.141V138.864C173.141 137.425 174.189 136.409 175.366 136.409C176.51 136.409 177.309 137.157 177.309 138.276V145H178.843V138.608C178.843 137.342 179.635 136.409 181.016 136.409C182.09 136.409 183.01 136.978 183.01 138.429V145H184.519V138.429C184.519 136.121 183.279 135.054 181.528 135.054C180.121 135.054 179.092 135.7 178.587 136.716H178.485C177.999 135.668 177.143 135.054 175.851 135.054C174.573 135.054 173.627 135.668 173.218 136.716H173.09V135.182H171.633V145ZM191.394 145.205C193.388 145.205 194.845 144.207 195.306 142.724L193.848 142.315C193.465 143.338 192.576 143.849 191.394 143.849C189.623 143.849 188.402 142.705 188.332 140.602H195.459V139.963C195.459 136.307 193.286 135.054 191.24 135.054C188.581 135.054 186.817 137.151 186.817 140.168C186.817 143.185 188.556 145.205 191.394 145.205ZM188.332 139.298C188.434 137.771 189.514 136.409 191.24 136.409C192.877 136.409 193.925 137.636 193.925 139.298H188.332Z" fill="#0A1417"/>
</svg>
