<svg width="388" height="210" viewBox="0 0 388 210" fill="none" xmlns="http://www.w3.org/2000/svg">
<rect width="388" height="210" fill="white"/>
<path d="M50.8693 95.3153H54.9858V107H56.571V95.3153H60.6875V93.9091H50.8693V95.3153ZM64.438 101.094C64.438 99.3807 65.5311 98.4091 67.0204 98.4091C68.4395 98.4091 69.296 99.304 69.296 100.864V107H70.8045V100.761C70.8045 98.2365 69.4622 97.054 67.4551 97.054C65.9082 97.054 65.0261 97.6996 64.5659 98.7159H64.438V93.9091H62.9295V107H64.438V101.094ZM77.6808 107.205C79.6751 107.205 81.1325 106.207 81.5927 104.724L80.1353 104.315C79.7518 105.338 78.8633 105.849 77.6808 105.849C75.9102 105.849 74.6893 104.705 74.619 102.602H81.7461V101.963C81.7461 98.3068 79.5728 97.054 77.5273 97.054C74.8683 97.054 73.104 99.1506 73.104 102.168C73.104 105.185 74.8427 107.205 77.6808 107.205ZM74.619 101.298C74.7212 99.7706 75.8015 98.4091 77.5273 98.4091C79.1637 98.4091 80.212 99.6364 80.212 101.298H74.619ZM84.0408 107H85.5494V100.787C85.5494 99.4574 86.5977 98.4858 88.0295 98.4858C88.4322 98.4858 88.8477 98.5625 88.9499 98.5881V97.054C88.7773 97.0412 88.381 97.0284 88.1573 97.0284C86.9812 97.0284 85.9585 97.6932 85.6005 98.6648H85.4982V97.1818H84.0408V107ZM94.5558 107.205C96.5501 107.205 98.0075 106.207 98.4677 104.724L97.0103 104.315C96.6268 105.338 95.7383 105.849 94.5558 105.849C92.7852 105.849 91.5643 104.705 91.494 102.602H98.6211V101.963C98.6211 98.3068 96.4478 97.054 94.4023 97.054C91.7433 97.054 89.979 99.1506 89.979 102.168C89.979 105.185 91.7177 107.205 94.5558 107.205ZM91.494 101.298C91.5962 99.7706 92.6765 98.4091 94.4023 98.4091C96.0387 98.4091 97.087 99.6364 97.087 101.298H91.494ZM102.245 93.9091H100.814V95.0852C100.814 96.0312 100.353 96.8494 99.8164 97.6165L100.635 98.2812C101.657 97.4631 102.245 96.108 102.245 95.0597V93.9091ZM109.804 99.3807C109.331 97.9872 108.27 97.054 106.327 97.054C104.256 97.054 102.722 98.2301 102.722 99.892C102.722 101.247 103.527 102.155 105.33 102.577L106.966 102.96C107.957 103.19 108.423 103.663 108.423 104.341C108.423 105.185 107.528 105.875 106.122 105.875C104.888 105.875 104.115 105.344 103.847 104.29L102.415 104.648C102.766 106.316 104.141 107.205 106.148 107.205C108.43 107.205 109.983 105.958 109.983 104.264C109.983 102.896 109.126 102.033 107.375 101.605L105.918 101.247C104.754 100.96 104.23 100.57 104.23 99.8153C104.23 98.9716 105.125 98.358 106.327 98.358C107.643 98.358 108.187 99.0866 108.449 99.7642L109.804 99.3807ZM124.271 99.3807C123.798 97.9872 122.737 97.054 120.794 97.054C118.722 97.054 117.188 98.2301 117.188 99.892C117.188 101.247 117.994 102.155 119.796 102.577L121.433 102.96C122.423 103.19 122.89 103.663 122.89 104.341C122.89 105.185 121.995 105.875 120.589 105.875C119.355 105.875 118.582 105.344 118.313 104.29L116.882 104.648C117.233 106.316 118.607 107.205 120.615 107.205C122.896 107.205 124.45 105.958 124.45 104.264C124.45 102.896 123.593 102.033 121.842 101.605L120.384 101.247C119.221 100.96 118.697 100.57 118.697 99.8153C118.697 98.9716 119.592 98.358 120.794 98.358C122.11 98.358 122.654 99.0866 122.916 99.7642L124.271 99.3807ZM130.709 107.205C133.368 107.205 135.158 105.185 135.158 102.142C135.158 99.0739 133.368 97.054 130.709 97.054C128.05 97.054 126.26 99.0739 126.26 102.142C126.26 105.185 128.05 107.205 130.709 107.205ZM130.709 105.849C128.689 105.849 127.769 104.111 127.769 102.142C127.769 100.173 128.689 98.4091 130.709 98.4091C132.729 98.4091 133.65 100.173 133.65 102.142C133.65 104.111 132.729 105.849 130.709 105.849ZM142.523 107H144.032V100.864C144.032 99.4254 145.08 98.4091 146.256 98.4091C147.4 98.4091 148.199 99.157 148.199 100.276V107H149.733V100.608C149.733 99.3423 150.526 98.4091 151.907 98.4091C152.981 98.4091 153.901 98.978 153.901 100.429V107H155.41V100.429C155.41 98.1214 154.17 97.054 152.418 97.054C151.012 97.054 149.983 97.6996 149.478 98.7159H149.376C148.89 97.6676 148.033 97.054 146.742 97.054C145.464 97.054 144.518 97.6676 144.108 98.7159H143.981V97.1818H142.523V107ZM164.355 102.986C164.355 104.827 162.949 105.67 161.824 105.67C160.571 105.67 159.676 104.75 159.676 103.318V97.1818H158.168V103.42C158.168 105.926 159.497 107.128 161.338 107.128C162.821 107.128 163.793 106.335 164.253 105.338H164.355V107H165.864V97.1818H164.355V102.986ZM172.615 107.205C174.789 107.205 176.221 105.875 176.476 104.136H174.968C174.686 105.21 173.792 105.849 172.615 105.849C170.826 105.849 169.675 104.366 169.675 102.091C169.675 99.8665 170.851 98.4091 172.615 98.4091C173.945 98.4091 174.738 99.2273 174.968 100.122H176.476C176.221 98.2812 174.661 97.054 172.59 97.054C169.931 97.054 168.167 99.1506 168.167 102.142C168.167 105.082 169.854 107.205 172.615 107.205ZM180.19 101.094C180.19 99.3807 181.283 98.4091 182.772 98.4091C184.191 98.4091 185.048 99.304 185.048 100.864V107H186.556V100.761C186.556 98.2365 185.214 97.054 183.207 97.054C181.66 97.054 180.778 97.6996 180.318 98.7159H180.19V93.9091H178.681V107H180.19V101.094ZM198.649 97.1818H196.552V94.8295H195.044V97.1818H193.561V98.4602H195.044V104.597C195.044 106.31 196.424 107.128 197.703 107.128C198.265 107.128 198.623 107.026 198.828 106.949L198.521 105.594C198.393 105.619 198.188 105.67 197.856 105.67C197.191 105.67 196.552 105.466 196.552 104.188V98.4602H198.649V97.1818ZM204.929 107.205C206.923 107.205 208.381 106.207 208.841 104.724L207.383 104.315C207 105.338 206.111 105.849 204.929 105.849C203.158 105.849 201.937 104.705 201.867 102.602H208.994V101.963C208.994 98.3068 206.821 97.054 204.775 97.054C202.116 97.054 200.352 99.1506 200.352 102.168C200.352 105.185 202.091 107.205 204.929 107.205ZM201.867 101.298C201.969 99.7706 203.05 98.4091 204.775 98.4091C206.412 98.4091 207.46 99.6364 207.46 101.298H201.867ZM212.15 97.1818H210.412L213.531 102.091L210.412 107H212.15L214.502 103.19L216.855 107H218.593L215.423 102.091L218.593 97.1818H216.855L214.502 101.196L212.15 97.1818ZM225.016 97.1818H222.919V94.8295H221.411V97.1818H219.928V98.4602H221.411V104.597C221.411 106.31 222.791 107.128 224.07 107.128C224.632 107.128 224.99 107.026 225.195 106.949L224.888 105.594C224.76 105.619 224.556 105.67 224.223 105.67C223.558 105.67 222.919 105.466 222.919 104.188V98.4602H225.016V97.1818ZM232.347 107H233.856V97.1818H232.347V107ZM233.115 95.5455C233.703 95.5455 234.188 95.0852 234.188 94.5227C234.188 93.9602 233.703 93.5 233.115 93.5C232.526 93.5 232.041 93.9602 232.041 94.5227C232.041 95.0852 232.526 95.5455 233.115 95.5455ZM238.127 101.094C238.127 99.3807 239.189 98.4091 240.633 98.4091C242.033 98.4091 242.883 99.3232 242.883 100.864V107H244.392V100.761C244.392 98.2557 243.056 97.054 241.068 97.054C239.585 97.054 238.664 97.7188 238.204 98.7159H238.076V97.1818H236.619V107H238.127V101.094ZM256.481 97.1818H254.384V94.8295H252.876V97.1818H251.393V98.4602H252.876V104.597C252.876 106.31 254.256 107.128 255.535 107.128C256.097 107.128 256.455 107.026 256.66 106.949L256.353 105.594C256.225 105.619 256.02 105.67 255.688 105.67C255.023 105.67 254.384 105.466 254.384 104.188V98.4602H256.481V97.1818ZM260.469 101.094C260.469 99.3807 261.562 98.4091 263.052 98.4091C264.471 98.4091 265.327 99.304 265.327 100.864V107H266.836V100.761C266.836 98.2365 265.493 97.054 263.486 97.054C261.939 97.054 261.057 97.6996 260.597 98.7159H260.469V93.9091H258.961V107H260.469V101.094ZM273.712 107.205C275.706 107.205 277.164 106.207 277.624 104.724L276.167 104.315C275.783 105.338 274.895 105.849 273.712 105.849C271.941 105.849 270.721 104.705 270.65 102.602H277.777V101.963C277.777 98.3068 275.604 97.054 273.559 97.054C270.9 97.054 269.135 99.1506 269.135 102.168C269.135 105.185 270.874 107.205 273.712 107.205ZM270.65 101.298C270.752 99.7706 271.833 98.4091 273.559 98.4091C275.195 98.4091 276.243 99.6364 276.243 101.298H270.65ZM287.027 99.3807C286.554 97.9872 285.493 97.054 283.549 97.054C281.478 97.054 279.944 98.2301 279.944 99.892C279.944 101.247 280.75 102.155 282.552 102.577L284.189 102.96C285.179 103.19 285.646 103.663 285.646 104.341C285.646 105.185 284.751 105.875 283.345 105.875C282.111 105.875 281.338 105.344 281.069 104.29L279.637 104.648C279.989 106.316 281.363 107.205 283.37 107.205C285.652 107.205 287.206 105.958 287.206 104.264C287.206 102.896 286.349 102.033 284.598 101.605L283.14 101.247C281.977 100.96 281.453 100.57 281.453 99.8153C281.453 98.9716 282.348 98.358 283.549 98.358C284.866 98.358 285.409 99.0866 285.672 99.7642L287.027 99.3807ZM293.593 107.205C295.587 107.205 297.045 106.207 297.505 104.724L296.047 104.315C295.664 105.338 294.775 105.849 293.593 105.849C291.822 105.849 290.601 104.705 290.531 102.602H297.658V101.963C297.658 98.3068 295.485 97.054 293.439 97.054C290.78 97.054 289.016 99.1506 289.016 102.168C289.016 105.185 290.755 107.205 293.593 107.205ZM290.531 101.298C290.633 99.7706 291.714 98.4091 293.439 98.4091C295.076 98.4091 296.124 99.6364 296.124 101.298H290.531ZM55.4972 135.205C57.4915 135.205 58.9489 134.207 59.4091 132.724L57.9517 132.315C57.5682 133.338 56.6797 133.849 55.4972 133.849C53.7266 133.849 52.5057 132.705 52.4354 130.602H59.5625V129.963C59.5625 126.307 57.3892 125.054 55.3438 125.054C52.6847 125.054 50.9205 127.151 50.9205 130.168C50.9205 133.185 52.6591 135.205 55.4972 135.205ZM52.4354 129.298C52.5376 127.771 53.6179 126.409 55.3438 126.409C56.9801 126.409 58.0284 127.636 58.0284 129.298H52.4354ZM69.5868 125.182H67.9505L65.2402 133.006H65.138L62.4277 125.182H60.7914L64.4221 135H65.9561L69.5868 125.182ZM74.1683 135.23C75.8814 135.23 76.7763 134.31 77.0831 133.67H77.1598V135H78.6683V128.531C78.6683 125.412 76.2905 125.054 75.0376 125.054C73.5547 125.054 71.8672 125.565 71.1001 127.355L72.532 127.866C72.8643 127.151 73.6506 126.384 75.0888 126.384C76.4759 126.384 77.1598 127.119 77.1598 128.378V128.429C77.1598 129.158 76.4183 129.094 74.6286 129.324C72.8068 129.56 70.8189 129.963 70.8189 132.213C70.8189 134.131 72.3018 135.23 74.1683 135.23ZM74.3984 133.875C73.1967 133.875 72.3274 133.338 72.3274 132.29C72.3274 131.139 73.3757 130.781 74.5518 130.628C75.1911 130.551 76.9041 130.372 77.1598 130.065V131.446C77.1598 132.673 76.1882 133.875 74.3984 133.875ZM82.9302 121.909H81.4217V135H82.9302V121.909ZM91.8807 130.986C91.8807 132.827 90.4744 133.67 89.3494 133.67C88.0966 133.67 87.2017 132.75 87.2017 131.318V125.182H85.6932V131.42C85.6932 133.926 87.0227 135.128 88.8636 135.128C90.3466 135.128 91.3182 134.335 91.7784 133.338H91.8807V135H93.3892V125.182H91.8807V130.986ZM99.0414 135.23C100.754 135.23 101.649 134.31 101.956 133.67H102.033V135H103.541V128.531C103.541 125.412 101.164 125.054 99.9107 125.054C98.4277 125.054 96.7402 125.565 95.9732 127.355L97.405 127.866C97.7374 127.151 98.5236 126.384 99.9618 126.384C101.349 126.384 102.033 127.119 102.033 128.378V128.429C102.033 129.158 101.291 129.094 99.5016 129.324C97.6799 129.56 95.6919 129.963 95.6919 132.213C95.6919 134.131 97.1749 135.23 99.0414 135.23ZM99.2715 133.875C98.0698 133.875 97.2005 133.338 97.2005 132.29C97.2005 131.139 98.2488 130.781 99.4249 130.628C100.064 130.551 101.777 130.372 102.033 130.065V131.446C102.033 132.673 101.061 133.875 99.2715 133.875ZM110.565 125.182H108.468V122.83H106.96V125.182H105.477V126.46H106.96V132.597C106.96 134.31 108.34 135.128 109.619 135.128C110.181 135.128 110.539 135.026 110.744 134.949L110.437 133.594C110.309 133.619 110.104 133.67 109.772 133.67C109.107 133.67 108.468 133.466 108.468 132.188V126.46H110.565V125.182ZM112.834 135H114.342V125.182H112.834V135ZM113.601 123.545C114.189 123.545 114.675 123.085 114.675 122.523C114.675 121.96 114.189 121.5 113.601 121.5C113.013 121.5 112.527 121.96 112.527 122.523C112.527 123.085 113.013 123.545 113.601 123.545ZM121.094 135.205C123.753 135.205 125.543 133.185 125.543 130.142C125.543 127.074 123.753 125.054 121.094 125.054C118.435 125.054 116.645 127.074 116.645 130.142C116.645 133.185 118.435 135.205 121.094 135.205ZM121.094 133.849C119.074 133.849 118.154 132.111 118.154 130.142C118.154 128.173 119.074 126.409 121.094 126.409C123.114 126.409 124.034 128.173 124.034 130.142C124.034 132.111 123.114 133.849 121.094 133.849ZM129.354 129.094C129.354 127.381 130.415 126.409 131.86 126.409C133.26 126.409 134.11 127.323 134.11 128.864V135H135.618V128.761C135.618 126.256 134.282 125.054 132.294 125.054C130.811 125.054 129.891 125.719 129.431 126.716H129.303V125.182H127.846V135H129.354V129.094ZM145.329 127.381C144.856 125.987 143.795 125.054 141.852 125.054C139.781 125.054 138.247 126.23 138.247 127.892C138.247 129.247 139.052 130.155 140.855 130.577L142.491 130.96C143.482 131.19 143.949 131.663 143.949 132.341C143.949 133.185 143.054 133.875 141.648 133.875C140.414 133.875 139.64 133.344 139.372 132.29L137.94 132.648C138.292 134.316 139.666 135.205 141.673 135.205C143.955 135.205 145.508 133.958 145.508 132.264C145.508 130.896 144.652 130.033 142.9 129.605L141.443 129.247C140.28 128.96 139.756 128.57 139.756 127.815C139.756 126.972 140.65 126.358 141.852 126.358C143.169 126.358 143.712 127.087 143.974 127.764L145.329 127.381ZM148.879 135.102C149.511 135.102 150.029 134.585 150.029 133.952C150.029 133.319 149.511 132.801 148.879 132.801C148.246 132.801 147.728 133.319 147.728 133.952C147.728 134.585 148.246 135.102 148.879 135.102ZM163.015 121.909V131.267C163.015 132.897 162.235 133.773 160.867 133.773C159.62 133.773 158.719 133.044 158.719 131.932H157.159C157.159 133.945 158.719 135.179 160.867 135.179C163.142 135.179 164.6 133.779 164.6 131.267V121.909H163.015ZM173.76 130.986C173.76 132.827 172.353 133.67 171.228 133.67C169.975 133.67 169.081 132.75 169.081 131.318V125.182H167.572V131.42C167.572 133.926 168.902 135.128 170.743 135.128C172.225 135.128 173.197 134.335 173.657 133.338H173.76V135H175.268V125.182H173.76V130.986ZM184.986 127.381C184.513 125.987 183.452 125.054 181.508 125.054C179.437 125.054 177.903 126.23 177.903 127.892C177.903 129.247 178.709 130.155 180.511 130.577L182.148 130.96C183.138 131.19 183.605 131.663 183.605 132.341C183.605 133.185 182.71 133.875 181.304 133.875C180.07 133.875 179.297 133.344 179.028 132.29L177.596 132.648C177.948 134.316 179.322 135.205 181.329 135.205C183.611 135.205 185.165 133.958 185.165 132.264C185.165 130.896 184.308 130.033 182.557 129.605L181.099 129.247C179.936 128.96 179.412 128.57 179.412 127.815C179.412 126.972 180.307 126.358 181.508 126.358C182.825 126.358 183.368 127.087 183.631 127.764L184.986 127.381ZM191.705 125.182H189.609V122.83H188.1V125.182H186.617V126.46H188.1V132.597C188.1 134.31 189.481 135.128 190.759 135.128C191.322 135.128 191.68 135.026 191.884 134.949L191.577 133.594C191.45 133.619 191.245 133.67 190.913 133.67C190.248 133.67 189.609 133.466 189.609 132.188V126.46H191.705V125.182ZM203 138.886C205.352 138.886 207.244 137.812 207.244 135.281V125.182H205.787V126.741H205.634C205.301 126.23 204.688 125.054 202.77 125.054C200.29 125.054 198.577 127.023 198.577 130.04C198.577 133.108 200.366 134.847 202.744 134.847C204.662 134.847 205.276 133.722 205.608 133.185H205.736V135.179C205.736 136.815 204.585 137.557 203 137.557C201.217 137.557 200.59 136.617 200.188 136.074L198.986 136.918C199.599 137.947 200.808 138.886 203 138.886ZM202.949 133.491C201.057 133.491 200.085 132.06 200.085 130.014C200.085 128.02 201.031 126.409 202.949 126.409C204.79 126.409 205.761 127.892 205.761 130.014C205.761 132.188 204.764 133.491 202.949 133.491ZM210.006 135H211.514V125.182H210.006V135ZM210.773 123.545C211.361 123.545 211.847 123.085 211.847 122.523C211.847 121.96 211.361 121.5 210.773 121.5C210.185 121.5 209.699 121.96 209.699 122.523C209.699 123.085 210.185 123.545 210.773 123.545ZM222.306 125.182H220.669L217.959 133.006H217.857L215.146 125.182H213.51L217.141 135H218.675L222.306 125.182ZM228.062 135.205C230.056 135.205 231.513 134.207 231.974 132.724L230.516 132.315C230.133 133.338 229.244 133.849 228.062 133.849C226.291 133.849 225.07 132.705 225 130.602H232.127V129.963C232.127 126.307 229.954 125.054 227.908 125.054C225.249 125.054 223.485 127.151 223.485 130.168C223.485 133.185 225.224 135.205 228.062 135.205ZM225 129.298C225.102 127.771 226.182 126.409 227.908 126.409C229.545 126.409 230.593 127.636 230.593 129.298H225ZM239.484 135H240.993V128.864C240.993 127.425 242.041 126.409 243.217 126.409C244.361 126.409 245.16 127.157 245.16 128.276V135H246.694V128.608C246.694 127.342 247.487 126.409 248.868 126.409C249.942 126.409 250.862 126.978 250.862 128.429V135H252.371V128.429C252.371 126.121 251.131 125.054 249.379 125.054C247.973 125.054 246.944 125.7 246.439 126.716H246.336C245.851 125.668 244.994 125.054 243.703 125.054C242.425 125.054 241.479 125.668 241.069 126.716H240.942V125.182H239.484V135ZM259.245 135.205C261.24 135.205 262.697 134.207 263.157 132.724L261.7 132.315C261.316 133.338 260.428 133.849 259.245 133.849C257.475 133.849 256.254 132.705 256.183 130.602H263.311V129.963C263.311 126.307 261.137 125.054 259.092 125.054C256.433 125.054 254.669 127.151 254.669 130.168C254.669 133.185 256.407 135.205 259.245 135.205ZM256.183 129.298C256.286 127.771 257.366 126.409 259.092 126.409C260.728 126.409 261.776 127.636 261.776 129.298H256.183ZM274.938 125.182H272.841V122.83H271.333V125.182H269.85V126.46H271.333V132.597C271.333 134.31 272.713 135.128 273.992 135.128C274.554 135.128 274.912 135.026 275.117 134.949L274.81 133.594C274.682 133.619 274.477 133.67 274.145 133.67C273.48 133.67 272.841 133.466 272.841 132.188V126.46H274.938V125.182ZM278.926 129.094C278.926 127.381 280.019 126.409 281.509 126.409C282.928 126.409 283.784 127.304 283.784 128.864V135H285.293V128.761C285.293 126.237 283.95 125.054 281.943 125.054C280.396 125.054 279.514 125.7 279.054 126.716H278.926V121.909H277.418V135H278.926V129.094ZM292.169 135.205C294.163 135.205 295.621 134.207 296.081 132.724L294.624 132.315C294.24 133.338 293.352 133.849 292.169 133.849C290.398 133.849 289.178 132.705 289.107 130.602H296.234V129.963C296.234 126.307 294.061 125.054 292.016 125.054C289.357 125.054 287.592 127.151 287.592 130.168C287.592 133.185 289.331 135.205 292.169 135.205ZM289.107 129.298C289.21 127.771 290.29 126.409 292.016 126.409C293.652 126.409 294.7 127.636 294.7 129.298H289.107ZM303.592 125.182V135.716C303.592 136.713 303.183 137.276 302.262 137.276H301.981V138.682H302.288C304.18 138.682 305.1 137.531 305.1 135.716V125.182H303.592ZM304.333 123.545C304.921 123.545 305.407 123.085 305.407 122.523C305.407 121.96 304.921 121.5 304.333 121.5C303.745 121.5 303.259 121.96 303.259 122.523C303.259 123.085 303.745 123.545 304.333 123.545ZM307.863 135H309.372V125.182H307.863V135ZM308.63 123.545C309.218 123.545 309.704 123.085 309.704 122.523C309.704 121.96 309.218 121.5 308.63 121.5C308.042 121.5 307.556 121.96 307.556 122.523C307.556 123.085 308.042 123.545 308.63 123.545ZM319.089 127.381C318.616 125.987 317.555 125.054 315.612 125.054C313.541 125.054 312.007 126.23 312.007 127.892C312.007 129.247 312.812 130.155 314.615 130.577L316.251 130.96C317.242 131.19 317.708 131.663 317.708 132.341C317.708 133.185 316.814 133.875 315.407 133.875C314.174 133.875 313.4 133.344 313.132 132.29L311.7 132.648C312.051 134.316 313.426 135.205 315.433 135.205C317.715 135.205 319.268 133.958 319.268 132.264C319.268 130.896 318.412 130.033 316.66 129.605L315.203 129.247C314.039 128.96 313.515 128.57 313.515 127.815C313.515 126.972 314.41 126.358 315.612 126.358C316.929 126.358 317.472 127.087 317.734 127.764L319.089 127.381ZM325.809 125.182H323.712V122.83H322.204V125.182H320.721V126.46H322.204V132.597C322.204 134.31 323.584 135.128 324.863 135.128C325.425 135.128 325.783 135.026 325.988 134.949L325.681 133.594C325.553 133.619 325.349 133.67 325.016 133.67C324.351 133.67 323.712 133.466 323.712 132.188V126.46H325.809V125.182ZM55.7528 153.182H53.554V152.185C53.554 151.213 53.9631 150.702 54.9602 150.702C55.3949 150.702 55.6506 150.804 55.804 150.855L56.2386 149.551C56.0085 149.449 55.5483 149.295 54.8068 149.295C53.4006 149.295 52.0455 150.139 52.0455 151.827V153.182H50.4602V154.46H52.0455V163H53.554V154.46H55.7528V153.182ZM57.867 163H59.3755V156.787C59.3755 155.457 60.4238 154.486 61.8556 154.486C62.2583 154.486 62.6738 154.562 62.7761 154.588V153.054C62.6035 153.041 62.2072 153.028 61.9835 153.028C60.8074 153.028 59.7846 153.693 59.4267 154.665H59.3244V153.182H57.867V163ZM68.2541 163.205C70.9132 163.205 72.7029 161.185 72.7029 158.142C72.7029 155.074 70.9132 153.054 68.2541 153.054C65.595 153.054 63.8052 155.074 63.8052 158.142C63.8052 161.185 65.595 163.205 68.2541 163.205ZM68.2541 161.849C66.2342 161.849 65.3137 160.111 65.3137 158.142C65.3137 156.173 66.2342 154.409 68.2541 154.409C70.274 154.409 71.1944 156.173 71.1944 158.142C71.1944 160.111 70.274 161.849 68.2541 161.849ZM75.0057 163H76.5142V156.864C76.5142 155.425 77.5625 154.409 78.7386 154.409C79.8828 154.409 80.6818 155.157 80.6818 156.276V163H82.2159V156.608C82.2159 155.342 83.0085 154.409 84.3892 154.409C85.4631 154.409 86.3835 154.978 86.3835 156.429V163H87.892V156.429C87.892 154.121 86.652 153.054 84.9006 153.054C83.4943 153.054 82.4652 153.7 81.9602 154.716H81.858C81.3722 153.668 80.5156 153.054 79.2244 153.054C77.946 153.054 77 153.668 76.5909 154.716H76.4631V153.182H75.0057V163ZM99.9826 153.182H97.886V150.83H96.3775V153.182H94.8945V154.46H96.3775V160.597C96.3775 162.31 97.7582 163.128 99.0366 163.128C99.5991 163.128 99.957 163.026 100.162 162.949L99.8548 161.594C99.7269 161.619 99.5224 161.67 99.19 161.67C98.5252 161.67 97.886 161.466 97.886 160.188V154.46H99.9826V153.182ZM103.971 157.094C103.971 155.381 105.064 154.409 106.554 154.409C107.973 154.409 108.829 155.304 108.829 156.864V163H110.338V156.761C110.338 154.237 108.995 153.054 106.988 153.054C105.441 153.054 104.559 153.7 104.099 154.716H103.971V149.909H102.463V163H103.971V157.094ZM117.214 163.205C119.208 163.205 120.666 162.207 121.126 160.724L119.669 160.315C119.285 161.338 118.396 161.849 117.214 161.849C115.443 161.849 114.222 160.705 114.152 158.602H121.279V157.963C121.279 154.307 119.106 153.054 117.061 153.054C114.401 153.054 112.637 155.151 112.637 158.168C112.637 161.185 114.376 163.205 117.214 163.205ZM114.152 157.298C114.254 155.771 115.335 154.409 117.061 154.409C118.697 154.409 119.745 155.636 119.745 157.298H114.152ZM132.625 163.205C135.284 163.205 137.074 161.185 137.074 158.142C137.074 155.074 135.284 153.054 132.625 153.054C129.966 153.054 128.176 155.074 128.176 158.142C128.176 161.185 129.966 163.205 132.625 163.205ZM132.625 161.849C130.605 161.849 129.685 160.111 129.685 158.142C129.685 156.173 130.605 154.409 132.625 154.409C134.645 154.409 135.566 156.173 135.566 158.142C135.566 160.111 134.645 161.849 132.625 161.849ZM143.647 153.182H141.55V150.83H140.042V153.182H138.559V154.46H140.042V160.597C140.042 162.31 141.422 163.128 142.701 163.128C143.263 163.128 143.621 163.026 143.826 162.949L143.519 161.594C143.391 161.619 143.186 161.67 142.854 161.67C142.189 161.67 141.55 161.466 141.55 160.188V154.46H143.647V153.182ZM147.635 157.094C147.635 155.381 148.728 154.409 150.218 154.409C151.637 154.409 152.493 155.304 152.493 156.864V163H154.002V156.761C154.002 154.237 152.659 153.054 150.652 153.054C149.105 153.054 148.223 153.7 147.763 154.716H147.635V149.909H146.127V163H147.635V157.094ZM160.878 163.205C162.872 163.205 164.33 162.207 164.79 160.724L163.333 160.315C162.949 161.338 162.061 161.849 160.878 161.849C159.107 161.849 157.887 160.705 157.816 158.602H164.943V157.963C164.943 154.307 162.77 153.054 160.725 153.054C158.066 153.054 156.301 155.151 156.301 158.168C156.301 161.185 158.04 163.205 160.878 163.205ZM157.816 157.298C157.919 155.771 158.999 154.409 160.725 154.409C162.361 154.409 163.409 155.636 163.409 157.298H157.816ZM167.238 163H168.747V156.787C168.747 155.457 169.795 154.486 171.227 154.486C171.629 154.486 172.045 154.562 172.147 154.588V153.054C171.975 153.041 171.578 153.028 171.355 153.028C170.178 153.028 169.156 153.693 168.798 154.665H168.695V153.182H167.238V163ZM182.705 163.205C184.597 163.205 185.237 162.028 185.569 161.491H185.748V163H187.205V149.909H185.697V154.741H185.569C185.237 154.23 184.648 153.054 182.731 153.054C180.251 153.054 178.538 155.023 178.538 158.116C178.538 161.236 180.251 163.205 182.705 163.205ZM182.91 161.849C181.018 161.849 180.046 160.188 180.046 158.091C180.046 156.02 180.992 154.409 182.91 154.409C184.751 154.409 185.722 155.892 185.722 158.091C185.722 160.315 184.725 161.849 182.91 161.849ZM190.178 163H191.686V153.182H190.178V163ZM190.945 151.545C191.533 151.545 192.018 151.085 192.018 150.523C192.018 149.96 191.533 149.5 190.945 149.5C190.357 149.5 189.871 149.96 189.871 150.523C189.871 151.085 190.357 151.545 190.945 151.545ZM201.404 155.381C200.931 153.987 199.869 153.054 197.926 153.054C195.855 153.054 194.321 154.23 194.321 155.892C194.321 157.247 195.127 158.155 196.929 158.577L198.566 158.96C199.556 159.19 200.023 159.663 200.023 160.341C200.023 161.185 199.128 161.875 197.722 161.875C196.488 161.875 195.715 161.344 195.446 160.29L194.014 160.648C194.366 162.316 195.74 163.205 197.747 163.205C200.029 163.205 201.583 161.958 201.583 160.264C201.583 158.896 200.726 158.033 198.975 157.605L197.517 157.247C196.354 156.96 195.83 156.57 195.83 155.815C195.83 154.972 196.725 154.358 197.926 154.358C199.243 154.358 199.786 155.087 200.048 155.764L201.404 155.381ZM207.842 163.205C210.015 163.205 211.447 161.875 211.703 160.136H210.194C209.913 161.21 209.018 161.849 207.842 161.849C206.052 161.849 204.902 160.366 204.902 158.091C204.902 155.866 206.078 154.409 207.842 154.409C209.172 154.409 209.964 155.227 210.194 156.122H211.703C211.447 154.281 209.887 153.054 207.816 153.054C205.157 153.054 203.393 155.151 203.393 158.142C203.393 161.082 205.081 163.205 207.842 163.205ZM213.908 163H215.417V153.182H213.908V163ZM214.675 151.545C215.263 151.545 215.749 151.085 215.749 150.523C215.749 149.96 215.263 149.5 214.675 149.5C214.087 149.5 213.601 149.96 213.601 150.523C213.601 151.085 214.087 151.545 214.675 151.545ZM218.18 166.682H219.688V161.491H219.816C220.148 162.028 220.787 163.205 222.68 163.205C225.134 163.205 226.847 161.236 226.847 158.116C226.847 155.023 225.134 153.054 222.654 153.054C220.736 153.054 220.148 154.23 219.816 154.741H219.637V153.182H218.18V166.682ZM219.662 158.091C219.662 155.892 220.634 154.409 222.475 154.409C224.393 154.409 225.339 156.02 225.339 158.091C225.339 160.188 224.367 161.849 222.475 161.849C220.66 161.849 219.662 160.315 219.662 158.091ZM230.657 149.909H229.148V163H230.657V149.909ZM233.42 163H234.928V153.182H233.42V163ZM234.187 151.545C234.775 151.545 235.261 151.085 235.261 150.523C235.261 149.96 234.775 149.5 234.187 149.5C233.599 149.5 233.113 149.96 233.113 150.523C233.113 151.085 233.599 151.545 234.187 151.545ZM239.2 157.094C239.2 155.381 240.261 154.409 241.705 154.409C243.105 154.409 243.955 155.323 243.955 156.864V163H245.464V156.761C245.464 154.256 244.128 153.054 242.14 153.054C240.657 153.054 239.737 153.719 239.276 154.716H239.149V153.182H237.691V163H239.2V157.094ZM252.337 163.205C254.331 163.205 255.789 162.207 256.249 160.724L254.792 160.315C254.408 161.338 253.52 161.849 252.337 161.849C250.566 161.849 249.346 160.705 249.275 158.602H256.402V157.963C256.402 154.307 254.229 153.054 252.184 153.054C249.525 153.054 247.76 155.151 247.76 158.168C247.76 161.185 249.499 163.205 252.337 163.205ZM249.275 157.298C249.377 155.771 250.458 154.409 252.184 154.409C253.82 154.409 254.868 155.636 254.868 157.298H249.275ZM265.652 155.381C265.179 153.987 264.118 153.054 262.174 153.054C260.103 153.054 258.569 154.23 258.569 155.892C258.569 157.247 259.375 158.155 261.177 158.577L262.814 158.96C263.804 159.19 264.271 159.663 264.271 160.341C264.271 161.185 263.376 161.875 261.97 161.875C260.736 161.875 259.963 161.344 259.694 160.29L258.262 160.648C258.614 162.316 259.988 163.205 261.995 163.205C264.277 163.205 265.831 161.958 265.831 160.264C265.831 158.896 264.974 158.033 263.223 157.605L261.765 157.247C260.602 156.96 260.078 156.57 260.078 155.815C260.078 154.972 260.973 154.358 262.174 154.358C263.491 154.358 264.034 155.087 264.297 155.764L265.652 155.381Z" fill="#0A1417"/>
<path d="M75.9574 62.7408C75.3974 59.2408 75.1174 56.0908 75.1174 53.2908C75.1174 46.9442 76.5874 42.3008 79.5274 39.3608C82.5607 36.4208 87.1807 34.9508 93.3874 34.9508V42.6508L93.4574 42.7208C92.384 42.7208 91.4974 42.7908 90.7974 42.9308C90.004 43.0708 89.374 43.3042 88.9074 43.6308C88.4874 43.9575 88.114 44.3075 87.7874 44.6808C87.5074 45.0075 87.2974 45.5208 87.1574 46.2208C87.0174 46.9208 86.9474 47.5275 86.9474 48.0408C86.9007 48.3675 86.8774 49.0908 86.8774 50.2108H93.3874V62.7408H75.9574ZM54.3974 62.8108C53.8374 59.3108 53.5574 56.1608 53.5574 53.3608C53.5574 47.0142 55.0507 42.3708 58.0374 39.4308C60.9774 36.4908 65.5974 35.0208 71.8974 35.0208V42.7908C70.8707 42.7908 69.984 42.8608 69.2374 43.0008C68.3974 43.1408 67.7907 43.3742 67.4174 43.7008C66.8574 44.1208 66.484 44.4708 66.2974 44.7508C66.0174 45.0775 65.8074 45.5908 65.6674 46.2908L65.3874 48.1108V50.2808H71.8274V62.8108H54.3974Z" fill="#0A1417"/>
</svg>
