<svg width="242" height="178" viewBox="0 0 242 178" fill="none" xmlns="http://www.w3.org/2000/svg">
<rect width="242" height="178" fill="white"/>
<path d="M53.5074 50.4C53.0274 47.4 52.7874 44.7 52.7874 42.3C52.7874 36.86 54.0474 32.88 56.5674 30.36C59.1674 27.84 63.1274 26.58 68.4474 26.58V33.18L68.5074 33.24C67.5874 33.24 66.8274 33.3 66.2274 33.42C65.5474 33.54 65.0074 33.74 64.6074 34.02C64.2474 34.3 63.9274 34.6 63.6474 34.92C63.4074 35.2 63.2274 35.64 63.1074 36.24C62.9874 36.84 62.9274 37.36 62.9274 37.8C62.8874 38.08 62.8674 38.7 62.8674 39.66H68.4474V50.4H53.5074ZM35.0274 50.46C34.5474 47.46 34.3074 44.76 34.3074 42.36C34.3074 36.92 35.5874 32.94 38.1474 30.42C40.6674 27.9 44.6274 26.64 50.0274 26.64V33.3C49.1474 33.3 48.3874 33.36 47.7474 33.48C47.0274 33.6 46.5074 33.8 46.1874 34.08C45.7074 34.44 45.3874 34.74 45.2274 34.98C44.9874 35.26 44.8074 35.7 44.6874 36.3L44.4474 37.86V39.72H49.9674V50.46H35.0274Z" fill="#0A1417"/>
<path d="M36.1705 75.9091H34.5852V89H36.1705V75.9091ZM43.4142 79.1818H41.3176V76.8295H39.8091V79.1818H38.3262V80.4602H39.8091V86.5966C39.8091 88.3097 41.1898 89.1278 42.4682 89.1278C43.0307 89.1278 43.3887 89.0256 43.5932 88.9489L43.2864 87.5938C43.1586 87.6193 42.954 87.6705 42.6216 87.6705C41.9569 87.6705 41.3176 87.4659 41.3176 86.1875V80.4602H43.4142V79.1818ZM57.7005 81.3807C57.2275 79.9872 56.1664 79.054 54.2232 79.054C52.1522 79.054 50.6181 80.2301 50.6181 81.892C50.6181 83.2472 51.4235 84.1548 53.226 84.5767L54.8624 84.9602C55.8532 85.1903 56.3198 85.6634 56.3198 86.3409C56.3198 87.1847 55.4249 87.875 54.0186 87.875C52.785 87.875 52.0115 87.3445 51.7431 86.2898L50.3113 86.6477C50.6628 88.3161 52.0371 89.2045 54.0442 89.2045C56.3262 89.2045 57.8794 87.9581 57.8794 86.2642C57.8794 84.8963 57.0229 84.0334 55.2715 83.6051L53.8141 83.2472C52.6507 82.9595 52.1266 82.5696 52.1266 81.8153C52.1266 80.9716 53.0215 80.358 54.2232 80.358C55.54 80.358 56.0833 81.0866 56.3453 81.7642L57.7005 81.3807ZM61.6587 83.0938C61.6587 81.3807 62.7518 80.4091 64.2411 80.4091C65.6602 80.4091 66.5167 81.304 66.5167 82.8636V89H68.0252V82.7614C68.0252 80.2365 66.6829 79.054 64.6758 79.054C63.1289 79.054 62.2468 79.6996 61.7866 80.7159H61.6587V75.9091H60.1502V89H61.6587V83.0938ZM74.7736 89.2045C77.4327 89.2045 79.2225 87.1847 79.2225 84.142C79.2225 81.0739 77.4327 79.054 74.7736 79.054C72.1145 79.054 70.3248 81.0739 70.3248 84.142C70.3248 87.1847 72.1145 89.2045 74.7736 89.2045ZM74.7736 87.8494C72.7537 87.8494 71.8333 86.1108 71.8333 84.142C71.8333 82.1733 72.7537 80.4091 74.7736 80.4091C76.7935 80.4091 77.714 82.1733 77.714 84.142C77.714 86.1108 76.7935 87.8494 74.7736 87.8494ZM87.7127 84.9858C87.7127 86.8267 86.3065 87.6705 85.1815 87.6705C83.9286 87.6705 83.0337 86.75 83.0337 85.3182V79.1818H81.5252V85.4205C81.5252 87.9261 82.8548 89.1278 84.6957 89.1278C86.1786 89.1278 87.1502 88.3352 87.6104 87.3381H87.7127V89H89.2212V79.1818H87.7127V84.9858ZM93.4927 75.9091H91.9842V89H93.4927V75.9091ZM99.9631 89.2045C101.855 89.2045 102.494 88.0284 102.827 87.4915H103.006V89H104.463V75.9091H102.955V80.7415H102.827C102.494 80.2301 101.906 79.054 99.9886 79.054C97.5085 79.054 95.7955 81.0227 95.7955 84.1165C95.7955 87.2358 97.5085 89.2045 99.9631 89.2045ZM100.168 87.8494C98.2756 87.8494 97.304 86.1875 97.304 84.0909C97.304 82.0199 98.25 80.4091 100.168 80.4091C102.009 80.4091 102.98 81.892 102.98 84.0909C102.98 86.3153 101.983 87.8494 100.168 87.8494ZM112.702 89H114.16V87.4915H114.339C114.671 88.0284 115.31 89.2045 117.202 89.2045C119.657 89.2045 121.37 87.2358 121.37 84.1165C121.37 81.0227 119.657 79.054 117.177 79.054C115.259 79.054 114.671 80.2301 114.339 80.7415H114.211V75.9091H112.702V89ZM114.185 84.0909C114.185 81.892 115.157 80.4091 116.998 80.4091C118.915 80.4091 119.862 82.0199 119.862 84.0909C119.862 86.1875 118.89 87.8494 116.998 87.8494C115.183 87.8494 114.185 86.3153 114.185 84.0909ZM127.794 89.2045C129.788 89.2045 131.246 88.2074 131.706 86.7244L130.249 86.3153C129.865 87.3381 128.977 87.8494 127.794 87.8494C126.023 87.8494 124.803 86.7053 124.732 84.6023H131.859V83.9631C131.859 80.3068 129.686 79.054 127.641 79.054C124.982 79.054 123.217 81.1506 123.217 84.1676C123.217 87.1847 124.956 89.2045 127.794 89.2045ZM124.732 83.2983C124.835 81.7706 125.915 80.4091 127.641 80.4091C129.277 80.4091 130.325 81.6364 130.325 83.2983H124.732ZM139.217 89H140.725V82.8636C140.725 81.4254 141.773 80.4091 142.95 80.4091C144.094 80.4091 144.893 81.157 144.893 82.2756V89H146.427V82.608C146.427 81.3423 147.219 80.4091 148.6 80.4091C149.674 80.4091 150.594 80.978 150.594 82.429V89H152.103V82.429C152.103 80.1214 150.863 79.054 149.112 79.054C147.705 79.054 146.676 79.6996 146.171 80.7159H146.069C145.583 79.6676 144.727 79.054 143.435 79.054C142.157 79.054 141.211 79.6676 140.802 80.7159H140.674V79.1818H139.217V89ZM158.85 89.2045C161.509 89.2045 163.299 87.1847 163.299 84.142C163.299 81.0739 161.509 79.054 158.85 79.054C156.191 79.054 154.401 81.0739 154.401 84.142C154.401 87.1847 156.191 89.2045 158.85 89.2045ZM158.85 87.8494C156.83 87.8494 155.909 86.1108 155.909 84.142C155.909 82.1733 156.83 80.4091 158.85 80.4091C160.87 80.4091 161.79 82.1733 161.79 84.142C161.79 86.1108 160.87 87.8494 158.85 87.8494ZM165.601 89H167.11V82.7869C167.11 81.4574 168.158 80.4858 169.59 80.4858C169.993 80.4858 170.408 80.5625 170.51 80.5881V79.054C170.338 79.0412 169.942 79.0284 169.718 79.0284C168.542 79.0284 167.519 79.6932 167.161 80.6648H167.059V79.1818H165.601V89ZM176.116 89.2045C178.111 89.2045 179.568 88.2074 180.028 86.7244L178.571 86.3153C178.187 87.3381 177.299 87.8494 176.116 87.8494C174.346 87.8494 173.125 86.7053 173.055 84.6023H180.182V83.9631C180.182 80.3068 178.008 79.054 175.963 79.054C173.304 79.054 171.54 81.1506 171.54 84.1676C171.54 87.1847 173.278 89.2045 176.116 89.2045ZM173.055 83.2983C173.157 81.7706 174.237 80.4091 175.963 80.4091C177.599 80.4091 178.648 81.6364 178.648 83.2983H173.055ZM38.3693 117.205C41.0284 117.205 42.8182 115.185 42.8182 112.142C42.8182 109.074 41.0284 107.054 38.3693 107.054C35.7102 107.054 33.9205 109.074 33.9205 112.142C33.9205 115.185 35.7102 117.205 38.3693 117.205ZM38.3693 115.849C36.3494 115.849 35.429 114.111 35.429 112.142C35.429 110.173 36.3494 108.409 38.3693 108.409C40.3892 108.409 41.3097 110.173 41.3097 112.142C41.3097 114.111 40.3892 115.849 38.3693 115.849ZM45.3255 117H46.7828V115.491H46.9618C47.2942 116.028 47.9334 117.205 49.8255 117.205C52.28 117.205 53.9931 115.236 53.9931 112.116C53.9931 109.023 52.28 107.054 49.7999 107.054C47.8823 107.054 47.2942 108.23 46.9618 108.741H46.834V103.909H45.3255V117ZM46.8084 112.091C46.8084 109.892 47.78 108.409 49.6209 108.409C51.5385 108.409 52.4846 110.02 52.4846 112.091C52.4846 114.188 51.513 115.849 49.6209 115.849C47.8056 115.849 46.8084 114.315 46.8084 112.091ZM63.9775 107.182H62.3411L59.6309 115.006H59.5286L56.8184 107.182H55.182L58.8127 117H60.3468L63.9775 107.182ZM65.9686 117H67.4771V107.182H65.9686V117ZM66.7356 105.545C67.3237 105.545 67.8095 105.085 67.8095 104.523C67.8095 103.96 67.3237 103.5 66.7356 103.5C66.1475 103.5 65.6618 103.96 65.6618 104.523C65.6618 105.085 66.1475 105.545 66.7356 105.545ZM74.2287 117.205C76.8878 117.205 78.6776 115.185 78.6776 112.142C78.6776 109.074 76.8878 107.054 74.2287 107.054C71.5696 107.054 69.7798 109.074 69.7798 112.142C69.7798 115.185 71.5696 117.205 74.2287 117.205ZM74.2287 115.849C72.2088 115.849 71.2884 114.111 71.2884 112.142C71.2884 110.173 72.2088 108.409 74.2287 108.409C76.2486 108.409 77.169 110.173 77.169 112.142C77.169 114.111 76.2486 115.849 74.2287 115.849ZM87.1678 112.986C87.1678 114.827 85.7615 115.67 84.6365 115.67C83.3837 115.67 82.4888 114.75 82.4888 113.318V107.182H80.9803V113.42C80.9803 115.926 82.3098 117.128 84.1507 117.128C85.6337 117.128 86.6053 116.335 87.0655 115.338H87.1678V117H88.6763V107.182H87.1678V112.986ZM98.3938 109.381C97.9208 107.987 96.8597 107.054 94.9165 107.054C92.8455 107.054 91.3114 108.23 91.3114 109.892C91.3114 111.247 92.1168 112.155 93.9194 112.577L95.5558 112.96C96.5465 113.19 97.0131 113.663 97.0131 114.341C97.0131 115.185 96.1183 115.875 94.712 115.875C93.4783 115.875 92.7049 115.344 92.4364 114.29L91.0046 114.648C91.3562 116.316 92.7305 117.205 94.7376 117.205C97.0195 117.205 98.5728 115.958 98.5728 114.264C98.5728 112.896 97.7163 112.033 95.9648 111.605L94.5075 111.247C93.3441 110.96 92.82 110.57 92.82 109.815C92.82 108.972 93.7148 108.358 94.9165 108.358C96.2333 108.358 96.7766 109.087 97.0387 109.764L98.3938 109.381ZM110.176 107.182H108.079V104.83H106.571V107.182H105.088V108.46H106.571V114.597C106.571 116.31 107.952 117.128 109.23 117.128C109.792 117.128 110.15 117.026 110.355 116.949L110.048 115.594C109.92 115.619 109.716 115.67 109.383 115.67C108.719 115.67 108.079 115.466 108.079 114.188V108.46H110.176V107.182ZM116.328 117.205C118.987 117.205 120.777 115.185 120.777 112.142C120.777 109.074 118.987 107.054 116.328 107.054C113.669 107.054 111.879 109.074 111.879 112.142C111.879 115.185 113.669 117.205 116.328 117.205ZM116.328 115.849C114.308 115.849 113.388 114.111 113.388 112.142C113.388 110.173 114.308 108.409 116.328 108.409C118.348 108.409 119.269 110.173 119.269 112.142C119.269 114.111 118.348 115.849 116.328 115.849ZM132.515 107.182H130.316V106.185C130.316 105.213 130.725 104.702 131.722 104.702C132.157 104.702 132.412 104.804 132.566 104.855L133 103.551C132.77 103.449 132.31 103.295 131.569 103.295C130.162 103.295 128.807 104.139 128.807 105.827V107.182H127.222V108.46H128.807V117H130.316V108.46H132.515V107.182ZM134.629 117H136.137V107.182H134.629V117ZM135.396 105.545C135.984 105.545 136.47 105.085 136.47 104.523C136.47 103.96 135.984 103.5 135.396 103.5C134.808 103.5 134.322 103.96 134.322 104.523C134.322 105.085 134.808 105.545 135.396 105.545ZM140.409 111.094C140.409 109.381 141.47 108.409 142.914 108.409C144.314 108.409 145.164 109.323 145.164 110.864V117H146.673V110.761C146.673 108.256 145.337 107.054 143.349 107.054C141.866 107.054 140.946 107.719 140.485 108.716H140.358V107.182H138.9V117H140.409V111.094ZM153.137 117.205C155.029 117.205 155.668 116.028 156.001 115.491H156.18V117H157.637V103.909H156.128V108.741H156.001C155.668 108.23 155.08 107.054 153.162 107.054C150.682 107.054 148.969 109.023 148.969 112.116C148.969 115.236 150.682 117.205 153.137 117.205ZM153.341 115.849C151.449 115.849 150.478 114.188 150.478 112.091C150.478 110.02 151.424 108.409 153.341 108.409C155.182 108.409 156.154 109.892 156.154 112.091C156.154 114.315 155.157 115.849 153.341 115.849ZM169.942 107.182H167.845V104.83H166.336V107.182H164.854V108.46H166.336V114.597C166.336 116.31 167.717 117.128 168.996 117.128C169.558 117.128 169.916 117.026 170.121 116.949L169.814 115.594C169.686 115.619 169.481 115.67 169.149 115.67C168.484 115.67 167.845 115.466 167.845 114.188V108.46H169.942V107.182ZM173.93 111.094C173.93 109.381 175.023 108.409 176.513 108.409C177.932 108.409 178.788 109.304 178.788 110.864V117H180.297V110.761C180.297 108.237 178.954 107.054 176.947 107.054C175.4 107.054 174.518 107.7 174.058 108.716H173.93V103.909H172.422V117H173.93V111.094ZM187.173 117.205C189.167 117.205 190.625 116.207 191.085 114.724L189.627 114.315C189.244 115.338 188.355 115.849 187.173 115.849C185.402 115.849 184.181 114.705 184.111 112.602H191.238V111.963C191.238 108.307 189.065 107.054 187.02 107.054C184.36 107.054 182.596 109.151 182.596 112.168C182.596 115.185 184.335 117.205 187.173 117.205ZM184.111 111.298C184.213 109.771 185.294 108.409 187.02 108.409C188.656 108.409 189.704 109.636 189.704 111.298H184.111ZM41.3352 137.381C40.8622 135.987 39.8011 135.054 37.858 135.054C35.7869 135.054 34.2528 136.23 34.2528 137.892C34.2528 139.247 35.0582 140.155 36.8608 140.577L38.4972 140.96C39.4879 141.19 39.9545 141.663 39.9545 142.341C39.9545 143.185 39.0597 143.875 37.6534 143.875C36.4197 143.875 35.6463 143.344 35.3778 142.29L33.946 142.648C34.2976 144.316 35.6719 145.205 37.679 145.205C39.9609 145.205 41.5142 143.958 41.5142 142.264C41.5142 140.896 40.6577 140.033 38.9062 139.605L37.4489 139.247C36.2855 138.96 35.7614 138.57 35.7614 137.815C35.7614 136.972 36.6562 136.358 37.858 136.358C39.1747 136.358 39.718 137.087 39.9801 137.764L41.3352 137.381ZM48.0549 135.182H45.9583V132.83H44.4498V135.182H42.9668V136.46H44.4498V142.597C44.4498 144.31 45.8304 145.128 47.1088 145.128C47.6713 145.128 48.0293 145.026 48.2338 144.949L47.927 143.594C47.7992 143.619 47.5946 143.67 47.2623 143.67C46.5975 143.67 45.9583 143.466 45.9583 142.188V136.46H48.0549V135.182ZM56.5115 140.986C56.5115 142.827 55.1053 143.67 53.9803 143.67C52.7275 143.67 51.8326 142.75 51.8326 141.318V135.182H50.324V141.42C50.324 143.926 51.6536 145.128 53.4945 145.128C54.9775 145.128 55.949 144.335 56.4093 143.338H56.5115V145H58.0201V135.182H56.5115V140.986ZM65.1552 135.182H62.9563V134.185C62.9563 133.213 63.3654 132.702 64.3626 132.702C64.7972 132.702 65.0529 132.804 65.2063 132.855L65.641 131.551C65.4109 131.449 64.9506 131.295 64.2092 131.295C62.8029 131.295 61.4478 132.139 61.4478 133.827V135.182H59.8626V136.46H61.4478V145H62.9563V136.46H65.1552V135.182ZM71.6415 135.182H69.4426V134.185C69.4426 133.213 69.8517 132.702 70.8489 132.702C71.2836 132.702 71.5392 132.804 71.6926 132.855L72.1273 131.551C71.8972 131.449 71.437 131.295 70.6955 131.295C69.2892 131.295 67.9341 132.139 67.9341 133.827V135.182H66.3489V136.46H67.9341V145H69.4426V136.46H71.6415V135.182ZM80.608 131.909H79.0227V145H80.608V131.909ZM94.8319 140.986C94.8319 142.827 93.4256 143.67 92.3006 143.67C91.0478 143.67 90.1529 142.75 90.1529 141.318V135.182H88.6444V141.42C88.6444 143.926 89.9739 145.128 91.8148 145.128C93.2978 145.128 94.2694 144.335 94.7296 143.338H94.8319V145H96.3404V135.182H94.8319V140.986ZM106.058 137.381C105.585 135.987 104.524 135.054 102.581 135.054C100.51 135.054 98.9755 136.23 98.9755 137.892C98.9755 139.247 99.7809 140.155 101.583 140.577L103.22 140.96C104.211 141.19 104.677 141.663 104.677 142.341C104.677 143.185 103.782 143.875 102.376 143.875C101.142 143.875 100.369 143.344 100.1 142.29L98.6687 142.648C99.0202 144.316 100.395 145.205 102.402 145.205C104.684 145.205 106.237 143.958 106.237 142.264C106.237 140.896 105.38 140.033 103.629 139.605L102.172 139.247C101.008 138.96 100.484 138.57 100.484 137.815C100.484 136.972 101.379 136.358 102.581 136.358C103.897 136.358 104.441 137.087 104.703 137.764L106.058 137.381ZM112.624 145.205C114.618 145.205 116.076 144.207 116.536 142.724L115.079 142.315C114.695 143.338 113.807 143.849 112.624 143.849C110.854 143.849 109.633 142.705 109.562 140.602H116.689V139.963C116.689 136.307 114.516 135.054 112.471 135.054C109.812 135.054 108.047 137.151 108.047 140.168C108.047 143.185 109.786 145.205 112.624 145.205ZM109.562 139.298C109.665 137.771 110.745 136.409 112.471 136.409C114.107 136.409 115.155 137.636 115.155 139.298H109.562ZM128.163 145.205C130.157 145.205 131.615 144.207 132.075 142.724L130.618 142.315C130.234 143.338 129.346 143.849 128.163 143.849C126.393 143.849 125.172 142.705 125.101 140.602H132.229V139.963C132.229 136.307 130.055 135.054 128.01 135.054C125.351 135.054 123.586 137.151 123.586 140.168C123.586 143.185 125.325 145.205 128.163 145.205ZM125.101 139.298C125.204 137.771 126.284 136.409 128.01 136.409C129.646 136.409 130.694 137.636 130.694 139.298H125.101ZM142.253 135.182H140.616L137.906 143.006H137.804L135.094 135.182H133.457L137.088 145H138.622L142.253 135.182ZM148.009 145.205C150.003 145.205 151.461 144.207 151.921 142.724L150.463 142.315C150.08 143.338 149.191 143.849 148.009 143.849C146.238 143.849 145.017 142.705 144.947 140.602H152.074V139.963C152.074 136.307 149.901 135.054 147.855 135.054C145.196 135.054 143.432 137.151 143.432 140.168C143.432 143.185 145.171 145.205 148.009 145.205ZM144.947 139.298C145.049 137.771 146.13 136.409 147.855 136.409C149.492 136.409 150.54 137.636 150.54 139.298H144.947ZM154.369 145H155.877V138.787C155.877 137.457 156.926 136.486 158.358 136.486C158.76 136.486 159.176 136.562 159.278 136.588V135.054C159.105 135.041 158.709 135.028 158.485 135.028C157.309 135.028 156.287 135.693 155.929 136.665H155.826V135.182H154.369V145ZM162.337 148.682C163.698 148.682 164.657 147.96 165.226 146.432L169.406 135.207L167.757 135.182L165.047 143.006H164.945L162.234 135.182H160.598L164.229 145.051L163.947 145.818C163.398 147.314 162.72 147.455 161.621 147.173L161.237 148.503C161.391 148.58 161.825 148.682 162.337 148.682ZM174.758 145.205C176.65 145.205 177.289 144.028 177.622 143.491H177.801V145H179.258V131.909H177.749V136.741H177.622C177.289 136.23 176.701 135.054 174.784 135.054C172.303 135.054 170.59 137.023 170.59 140.116C170.59 143.236 172.303 145.205 174.758 145.205ZM174.963 143.849C173.07 143.849 172.099 142.188 172.099 140.091C172.099 138.02 173.045 136.409 174.963 136.409C176.803 136.409 177.775 137.892 177.775 140.091C177.775 142.315 176.778 143.849 174.963 143.849ZM185.119 145.23C186.833 145.23 187.727 144.31 188.034 143.67H188.111V145H189.619V138.531C189.619 135.412 187.242 135.054 185.989 135.054C184.506 135.054 182.818 135.565 182.051 137.355L183.483 137.866C183.816 137.151 184.602 136.384 186.04 136.384C187.427 136.384 188.111 137.119 188.111 138.378V138.429C188.111 139.158 187.369 139.094 185.58 139.324C183.758 139.56 181.77 139.963 181.77 142.213C181.77 144.131 183.253 145.23 185.119 145.23ZM185.35 143.875C184.148 143.875 183.279 143.338 183.279 142.29C183.279 141.139 184.327 140.781 185.503 140.628C186.142 140.551 187.855 140.372 188.111 140.065V141.446C188.111 142.673 187.139 143.875 185.35 143.875ZM192.993 148.682C194.354 148.682 195.313 147.96 195.882 146.432L200.062 135.207L198.413 135.182L195.703 143.006H195.601L192.891 135.182H191.254L194.885 145.051L194.604 145.818C194.054 147.314 193.376 147.455 192.277 147.173L191.893 148.503C192.047 148.58 192.482 148.682 192.993 148.682Z" fill="#0A1417"/>
</svg>
