<svg width="491" height="174" viewBox="0 0 491 174" fill="none" xmlns="http://www.w3.org/2000/svg">
<path d="M58.1729 15.9902V21H56.4854V8.20312H61.2051C62.6055 8.20312 63.7012 8.56055 64.4922 9.27539C65.2891 9.99023 65.6875 10.9365 65.6875 12.1143C65.6875 13.3564 65.2979 14.3145 64.5186 14.9883C63.7451 15.6562 62.6348 15.9902 61.1875 15.9902H58.1729ZM58.1729 14.6104H61.2051C62.1074 14.6104 62.7988 14.3994 63.2793 13.9775C63.7598 13.5498 64 12.9346 64 12.1318C64 11.3701 63.7598 10.7607 63.2793 10.3037C62.7988 9.84668 62.1396 9.60938 61.3018 9.5918H58.1729V14.6104ZM72.1826 12.9492C71.9365 12.9082 71.6699 12.8877 71.3828 12.8877C70.3164 12.8877 69.5928 13.3418 69.2119 14.25V21H67.5859V11.4902H69.168L69.1943 12.5889C69.7275 11.7393 70.4834 11.3145 71.4619 11.3145C71.7783 11.3145 72.0186 11.3555 72.1826 11.4375V12.9492ZM73.0791 16.1572C73.0791 15.2256 73.2607 14.3877 73.624 13.6436C73.9932 12.8994 74.5029 12.3252 75.1533 11.9209C75.8096 11.5166 76.5566 11.3145 77.3945 11.3145C78.6895 11.3145 79.7354 11.7627 80.5322 12.6592C81.335 13.5557 81.7363 14.748 81.7363 16.2363V16.3506C81.7363 17.2764 81.5576 18.1084 81.2002 18.8467C80.8486 19.5791 80.3418 20.1504 79.6797 20.5605C79.0234 20.9707 78.2676 21.1758 77.4121 21.1758C76.123 21.1758 75.0771 20.7275 74.2744 19.8311C73.4775 18.9346 73.0791 17.748 73.0791 16.2715V16.1572ZM74.7139 16.3506C74.7139 17.4053 74.957 18.252 75.4434 18.8906C75.9355 19.5293 76.5918 19.8486 77.4121 19.8486C78.2383 19.8486 78.8945 19.5264 79.3809 18.8818C79.8672 18.2314 80.1104 17.3232 80.1104 16.1572C80.1104 15.1143 79.8613 14.2705 79.3633 13.626C78.8711 12.9756 78.2148 12.6504 77.3945 12.6504C76.5918 12.6504 75.9443 12.9697 75.4521 13.6084C74.96 14.2471 74.7139 15.1611 74.7139 16.3506ZM86.7725 18.7939L89.1279 11.4902H90.7891L87.3789 21H86.1396L82.6943 11.4902H84.3555L86.7725 18.7939ZM94.1201 21H92.4941V11.4902H94.1201V21ZM92.3623 8.96777C92.3623 8.7041 92.4414 8.48145 92.5996 8.2998C92.7637 8.11816 93.0039 8.02734 93.3203 8.02734C93.6367 8.02734 93.877 8.11816 94.041 8.2998C94.2051 8.48145 94.2871 8.7041 94.2871 8.96777C94.2871 9.23145 94.2051 9.45117 94.041 9.62695C93.877 9.80273 93.6367 9.89062 93.3203 9.89062C93.0039 9.89062 92.7637 9.80273 92.5996 9.62695C92.4414 9.45117 92.3623 9.23145 92.3623 8.96777ZM96.335 16.166C96.335 14.707 96.6807 13.5352 97.3721 12.6504C98.0635 11.7598 98.9688 11.3145 100.088 11.3145C101.201 11.3145 102.083 11.6953 102.733 12.457V7.5H104.359V21H102.865L102.786 19.9805C102.136 20.7773 101.23 21.1758 100.07 21.1758C98.9688 21.1758 98.0693 20.7246 97.3721 19.8223C96.6807 18.9199 96.335 17.7422 96.335 16.2891V16.166ZM97.9609 16.3506C97.9609 17.4287 98.1836 18.2725 98.6289 18.8818C99.0742 19.4912 99.6895 19.7959 100.475 19.7959C101.506 19.7959 102.259 19.333 102.733 18.4072V14.0391C102.247 13.1426 101.5 12.6943 100.492 12.6943C99.6953 12.6943 99.0742 13.002 98.6289 13.6172C98.1836 14.2324 97.9609 15.1436 97.9609 16.3506ZM110.837 21.1758C109.548 21.1758 108.499 20.7539 107.69 19.9102C106.882 19.0605 106.478 17.9268 106.478 16.5088V16.21C106.478 15.2666 106.656 14.4258 107.014 13.6875C107.377 12.9434 107.881 12.3633 108.525 11.9473C109.176 11.5254 109.879 11.3145 110.635 11.3145C111.871 11.3145 112.832 11.7217 113.518 12.5361C114.203 13.3506 114.546 14.5166 114.546 16.0342V16.7109H108.104C108.127 17.6484 108.399 18.4072 108.921 18.9873C109.448 19.5615 110.116 19.8486 110.925 19.8486C111.499 19.8486 111.985 19.7314 112.384 19.4971C112.782 19.2627 113.131 18.9521 113.43 18.5654L114.423 19.3389C113.626 20.5635 112.431 21.1758 110.837 21.1758ZM110.635 12.6504C109.979 12.6504 109.428 12.8906 108.982 13.3711C108.537 13.8457 108.262 14.5137 108.156 15.375H112.92V15.252C112.873 14.4258 112.65 13.7871 112.252 13.3359C111.854 12.8789 111.314 12.6504 110.635 12.6504ZM122.43 11.4902L122.474 12.5449C123.171 11.7246 124.111 11.3145 125.295 11.3145C126.625 11.3145 127.53 11.8242 128.011 12.8438C128.327 12.3867 128.737 12.0176 129.241 11.7363C129.751 11.4551 130.352 11.3145 131.043 11.3145C133.129 11.3145 134.189 12.4189 134.225 14.6279V21H132.599V14.7246C132.599 14.0449 132.443 13.5381 132.133 13.2041C131.822 12.8643 131.301 12.6943 130.568 12.6943C129.965 12.6943 129.464 12.876 129.065 13.2393C128.667 13.5967 128.436 14.0801 128.371 14.6895V21H126.736V14.7686C126.736 13.3857 126.06 12.6943 124.706 12.6943C123.64 12.6943 122.91 13.1484 122.518 14.0566V21H120.892V11.4902H122.43ZM142.557 20.0596C141.924 20.8037 140.995 21.1758 139.771 21.1758C138.757 21.1758 137.983 20.8828 137.45 20.2969C136.923 19.7051 136.656 18.832 136.65 17.6777V11.4902H138.276V17.6338C138.276 19.0752 138.862 19.7959 140.034 19.7959C141.276 19.7959 142.103 19.333 142.513 18.4072V11.4902H144.139V21H142.592L142.557 20.0596ZM148.384 21H146.758V7.5H148.384V21ZM153.2 9.1875V11.4902H154.976V12.7471H153.2V18.6445C153.2 19.0254 153.279 19.3125 153.438 19.5059C153.596 19.6934 153.865 19.7871 154.246 19.7871C154.434 19.7871 154.691 19.752 155.02 19.6816V21C154.592 21.1172 154.176 21.1758 153.771 21.1758C153.045 21.1758 152.497 20.9561 152.128 20.5166C151.759 20.0771 151.574 19.4531 151.574 18.6445V12.7471H149.843V11.4902H151.574V9.1875H153.2ZM158.649 21H157.023V11.4902H158.649V21ZM156.892 8.96777C156.892 8.7041 156.971 8.48145 157.129 8.2998C157.293 8.11816 157.533 8.02734 157.85 8.02734C158.166 8.02734 158.406 8.11816 158.57 8.2998C158.734 8.48145 158.816 8.7041 158.816 8.96777C158.816 9.23145 158.734 9.45117 158.57 9.62695C158.406 9.80273 158.166 9.89062 157.85 9.89062C157.533 9.89062 157.293 9.80273 157.129 9.62695C156.971 9.45117 156.892 9.23145 156.892 8.96777ZM169.293 16.3506C169.293 17.7979 168.962 18.9639 168.3 19.8486C167.638 20.7334 166.741 21.1758 165.61 21.1758C164.456 21.1758 163.548 20.8096 162.886 20.0771V24.6562H161.26V11.4902H162.745L162.824 12.5449C163.486 11.7246 164.406 11.3145 165.584 11.3145C166.727 11.3145 167.629 11.7451 168.291 12.6064C168.959 13.4678 169.293 14.666 169.293 16.2012V16.3506ZM167.667 16.166C167.667 15.0938 167.438 14.2471 166.981 13.626C166.524 13.0049 165.897 12.6943 165.101 12.6943C164.116 12.6943 163.378 13.1309 162.886 14.0039V18.5479C163.372 19.415 164.116 19.8486 165.118 19.8486C165.897 19.8486 166.516 19.541 166.973 18.9258C167.436 18.3047 167.667 17.3848 167.667 16.166ZM173.134 21H171.508V7.5H173.134V21ZM179.69 21.1758C178.401 21.1758 177.353 20.7539 176.544 19.9102C175.735 19.0605 175.331 17.9268 175.331 16.5088V16.21C175.331 15.2666 175.51 14.4258 175.867 13.6875C176.23 12.9434 176.734 12.3633 177.379 11.9473C178.029 11.5254 178.732 11.3145 179.488 11.3145C180.725 11.3145 181.686 11.7217 182.371 12.5361C183.057 13.3506 183.399 14.5166 183.399 16.0342V16.7109H176.957C176.98 17.6484 177.253 18.4072 177.774 18.9873C178.302 19.5615 178.97 19.8486 179.778 19.8486C180.353 19.8486 180.839 19.7314 181.237 19.4971C181.636 19.2627 181.984 18.9521 182.283 18.5654L183.276 19.3389C182.479 20.5635 181.284 21.1758 179.69 21.1758ZM179.488 12.6504C178.832 12.6504 178.281 12.8906 177.836 13.3711C177.391 13.8457 177.115 14.5137 177.01 15.375H181.773V15.252C181.727 14.4258 181.504 13.7871 181.105 13.3359C180.707 12.8789 180.168 12.6504 179.488 12.6504ZM191.96 9.1875V11.4902H193.735V12.7471H191.96V18.6445C191.96 19.0254 192.039 19.3125 192.197 19.5059C192.355 19.6934 192.625 19.7871 193.006 19.7871C193.193 19.7871 193.451 19.752 193.779 19.6816V21C193.352 21.1172 192.936 21.1758 192.531 21.1758C191.805 21.1758 191.257 20.9561 190.888 20.5166C190.519 20.0771 190.334 19.4531 190.334 18.6445V12.7471H188.603V11.4902H190.334V9.1875H191.96ZM195.036 16.1572C195.036 15.2256 195.218 14.3877 195.581 13.6436C195.95 12.8994 196.46 12.3252 197.11 11.9209C197.767 11.5166 198.514 11.3145 199.352 11.3145C200.646 11.3145 201.692 11.7627 202.489 12.6592C203.292 13.5557 203.693 14.748 203.693 16.2363V16.3506C203.693 17.2764 203.515 18.1084 203.157 18.8467C202.806 19.5791 202.299 20.1504 201.637 20.5605C200.98 20.9707 200.225 21.1758 199.369 21.1758C198.08 21.1758 197.034 20.7275 196.231 19.8311C195.435 18.9346 195.036 17.748 195.036 16.2715V16.1572ZM196.671 16.3506C196.671 17.4053 196.914 18.252 197.4 18.8906C197.893 19.5293 198.549 19.8486 199.369 19.8486C200.195 19.8486 200.852 19.5264 201.338 18.8818C201.824 18.2314 202.067 17.3232 202.067 16.1572C202.067 15.1143 201.818 14.2705 201.32 13.626C200.828 12.9756 200.172 12.6504 199.352 12.6504C198.549 12.6504 197.901 12.9697 197.409 13.6084C196.917 14.2471 196.671 15.1611 196.671 16.3506ZM211.604 20.0596C210.971 20.8037 210.042 21.1758 208.817 21.1758C207.804 21.1758 207.03 20.8828 206.497 20.2969C205.97 19.7051 205.703 18.832 205.697 17.6777V11.4902H207.323V17.6338C207.323 19.0752 207.909 19.7959 209.081 19.7959C210.323 19.7959 211.149 19.333 211.56 18.4072V11.4902H213.186V21H211.639L211.604 20.0596ZM219.479 19.8486C220.059 19.8486 220.565 19.6729 220.999 19.3213C221.433 18.9697 221.673 18.5303 221.72 18.0029H223.258C223.229 18.5479 223.041 19.0664 222.695 19.5586C222.35 20.0508 221.887 20.4434 221.307 20.7363C220.732 21.0293 220.123 21.1758 219.479 21.1758C218.184 21.1758 217.152 20.7451 216.385 19.8838C215.623 19.0166 215.242 17.833 215.242 16.333V16.0605C215.242 15.1348 215.412 14.3115 215.752 13.5908C216.092 12.8701 216.578 12.3105 217.211 11.9121C217.85 11.5137 218.603 11.3145 219.47 11.3145C220.536 11.3145 221.421 11.6338 222.124 12.2725C222.833 12.9111 223.211 13.7402 223.258 14.7598H221.72C221.673 14.1445 221.438 13.6406 221.017 13.248C220.601 12.8496 220.085 12.6504 219.47 12.6504C218.644 12.6504 218.002 12.9492 217.545 13.5469C217.094 14.1387 216.868 14.9971 216.868 16.1221V16.4297C216.868 17.5254 217.094 18.3691 217.545 18.9609C217.996 19.5527 218.641 19.8486 219.479 19.8486ZM226.712 12.6416C227.433 11.7568 228.37 11.3145 229.524 11.3145C231.534 11.3145 232.548 12.4482 232.565 14.7158V21H230.939V14.707C230.934 14.0215 230.775 13.5146 230.465 13.1865C230.16 12.8584 229.683 12.6943 229.032 12.6943C228.505 12.6943 228.042 12.835 227.644 13.1162C227.245 13.3975 226.935 13.7666 226.712 14.2236V21H225.086V7.5H226.712V12.6416ZM243.033 16.3506C243.033 17.7979 242.702 18.9639 242.04 19.8486C241.378 20.7334 240.481 21.1758 239.351 21.1758C238.196 21.1758 237.288 20.8096 236.626 20.0771V24.6562H235V11.4902H236.485L236.564 12.5449C237.227 11.7246 238.146 11.3145 239.324 11.3145C240.467 11.3145 241.369 11.7451 242.031 12.6064C242.699 13.4678 243.033 14.666 243.033 16.2012V16.3506ZM241.407 16.166C241.407 15.0938 241.179 14.2471 240.722 13.626C240.265 13.0049 239.638 12.6943 238.841 12.6943C237.856 12.6943 237.118 13.1309 236.626 14.0039V18.5479C237.112 19.415 237.856 19.8486 238.858 19.8486C239.638 19.8486 240.256 19.541 240.713 18.9258C241.176 18.3047 241.407 17.3848 241.407 16.166ZM244.677 16.1572C244.677 15.2256 244.858 14.3877 245.222 13.6436C245.591 12.8994 246.101 12.3252 246.751 11.9209C247.407 11.5166 248.154 11.3145 248.992 11.3145C250.287 11.3145 251.333 11.7627 252.13 12.6592C252.933 13.5557 253.334 14.748 253.334 16.2363V16.3506C253.334 17.2764 253.155 18.1084 252.798 18.8467C252.446 19.5791 251.939 20.1504 251.277 20.5605C250.621 20.9707 249.865 21.1758 249.01 21.1758C247.721 21.1758 246.675 20.7275 245.872 19.8311C245.075 18.9346 244.677 17.748 244.677 16.2715V16.1572ZM246.312 16.3506C246.312 17.4053 246.555 18.252 247.041 18.8906C247.533 19.5293 248.189 19.8486 249.01 19.8486C249.836 19.8486 250.492 19.5264 250.979 18.8818C251.465 18.2314 251.708 17.3232 251.708 16.1572C251.708 15.1143 251.459 14.2705 250.961 13.626C250.469 12.9756 249.812 12.6504 248.992 12.6504C248.189 12.6504 247.542 12.9697 247.05 13.6084C246.558 14.2471 246.312 15.1611 246.312 16.3506ZM257.14 21H255.514V11.4902H257.14V21ZM255.382 8.96777C255.382 8.7041 255.461 8.48145 255.619 8.2998C255.783 8.11816 256.023 8.02734 256.34 8.02734C256.656 8.02734 256.896 8.11816 257.061 8.2998C257.225 8.48145 257.307 8.7041 257.307 8.96777C257.307 9.23145 257.225 9.45117 257.061 9.62695C256.896 9.80273 256.656 9.89062 256.34 9.89062C256.023 9.89062 255.783 9.80273 255.619 9.62695C255.461 9.45117 255.382 9.23145 255.382 8.96777ZM261.288 11.4902L261.341 12.6855C262.067 11.7715 263.017 11.3145 264.188 11.3145C266.198 11.3145 267.212 12.4482 267.229 14.7158V21H265.604V14.707C265.598 14.0215 265.439 13.5146 265.129 13.1865C264.824 12.8584 264.347 12.6943 263.696 12.6943C263.169 12.6943 262.706 12.835 262.308 13.1162C261.909 13.3975 261.599 13.7666 261.376 14.2236V21H259.75V11.4902H261.288ZM271.888 9.1875V11.4902H273.663V12.7471H271.888V18.6445C271.888 19.0254 271.967 19.3125 272.125 19.5059C272.283 19.6934 272.553 19.7871 272.934 19.7871C273.121 19.7871 273.379 19.752 273.707 19.6816V21C273.279 21.1172 272.863 21.1758 272.459 21.1758C271.732 21.1758 271.185 20.9561 270.815 20.5166C270.446 20.0771 270.262 19.4531 270.262 18.6445V12.7471H268.53V11.4902H270.262V9.1875H271.888ZM281.107 18.4775C281.107 18.0381 280.94 17.6982 280.606 17.458C280.278 17.2119 279.701 17.001 278.875 16.8252C278.055 16.6494 277.401 16.4385 276.915 16.1924C276.435 15.9463 276.077 15.6533 275.843 15.3135C275.614 14.9736 275.5 14.5693 275.5 14.1006C275.5 13.3213 275.828 12.6621 276.484 12.123C277.146 11.584 277.99 11.3145 279.016 11.3145C280.094 11.3145 280.967 11.5928 281.635 12.1494C282.309 12.7061 282.646 13.418 282.646 14.2852H281.011C281.011 13.8398 280.82 13.4561 280.439 13.1338C280.064 12.8115 279.59 12.6504 279.016 12.6504C278.424 12.6504 277.961 12.7793 277.627 13.0371C277.293 13.2949 277.126 13.6318 277.126 14.0479C277.126 14.4404 277.281 14.7363 277.592 14.9355C277.902 15.1348 278.462 15.3252 279.271 15.5068C280.085 15.6885 280.744 15.9053 281.248 16.1572C281.752 16.4092 282.124 16.7139 282.364 17.0713C282.61 17.4229 282.733 17.8535 282.733 18.3633C282.733 19.2129 282.394 19.8955 281.714 20.4111C281.034 20.9209 280.152 21.1758 279.068 21.1758C278.307 21.1758 277.633 21.041 277.047 20.7715C276.461 20.502 276.001 20.127 275.667 19.6465C275.339 19.1602 275.175 18.6357 275.175 18.0732H276.801C276.83 18.6182 277.047 19.0518 277.451 19.374C277.861 19.6904 278.4 19.8486 279.068 19.8486C279.684 19.8486 280.176 19.7256 280.545 19.4795C280.92 19.2275 281.107 18.8936 281.107 18.4775ZM290.116 21V12.7471H288.613V11.4902H290.116V10.5146C290.116 9.49512 290.389 8.70703 290.934 8.15039C291.479 7.59375 292.249 7.31543 293.245 7.31543C293.62 7.31543 293.992 7.36523 294.361 7.46484L294.273 8.7832C293.998 8.73047 293.705 8.7041 293.395 8.7041C292.867 8.7041 292.46 8.85938 292.173 9.16992C291.886 9.47461 291.742 9.91406 291.742 10.4883V11.4902H293.772V12.7471H291.742V21H290.116ZM295.144 16.1572C295.144 15.2256 295.325 14.3877 295.688 13.6436C296.058 12.8994 296.567 12.3252 297.218 11.9209C297.874 11.5166 298.621 11.3145 299.459 11.3145C300.754 11.3145 301.8 11.7627 302.597 12.6592C303.399 13.5557 303.801 14.748 303.801 16.2363V16.3506C303.801 17.2764 303.622 18.1084 303.265 18.8467C302.913 19.5791 302.406 20.1504 301.744 20.5605C301.088 20.9707 300.332 21.1758 299.477 21.1758C298.188 21.1758 297.142 20.7275 296.339 19.8311C295.542 18.9346 295.144 17.748 295.144 16.2715V16.1572ZM296.778 16.3506C296.778 17.4053 297.021 18.252 297.508 18.8906C298 19.5293 298.656 19.8486 299.477 19.8486C300.303 19.8486 300.959 19.5264 301.445 18.8818C301.932 18.2314 302.175 17.3232 302.175 16.1572C302.175 15.1143 301.926 14.2705 301.428 13.626C300.936 12.9756 300.279 12.6504 299.459 12.6504C298.656 12.6504 298.009 12.9697 297.517 13.6084C297.024 14.2471 296.778 15.1611 296.778 16.3506ZM310.437 12.9492C310.19 12.9082 309.924 12.8877 309.637 12.8877C308.57 12.8877 307.847 13.3418 307.466 14.25V21H305.84V11.4902H307.422L307.448 12.5889C307.981 11.7393 308.737 11.3145 309.716 11.3145C310.032 11.3145 310.272 11.3555 310.437 11.4375V12.9492ZM318.03 12.6416C318.751 11.7568 319.688 11.3145 320.843 11.3145C322.853 11.3145 323.866 12.4482 323.884 14.7158V21H322.258V14.707C322.252 14.0215 322.094 13.5146 321.783 13.1865C321.479 12.8584 321.001 12.6943 320.351 12.6943C319.823 12.6943 319.36 12.835 318.962 13.1162C318.563 13.3975 318.253 13.7666 318.03 14.2236V21H316.404V7.5H318.03V12.6416ZM328.085 21H326.459V11.4902H328.085V21ZM326.327 8.96777C326.327 8.7041 326.406 8.48145 326.564 8.2998C326.729 8.11816 326.969 8.02734 327.285 8.02734C327.602 8.02734 327.842 8.11816 328.006 8.2998C328.17 8.48145 328.252 8.7041 328.252 8.96777C328.252 9.23145 328.17 9.45117 328.006 9.62695C327.842 9.80273 327.602 9.89062 327.285 9.89062C326.969 9.89062 326.729 9.80273 326.564 9.62695C326.406 9.45117 326.327 9.23145 326.327 8.96777ZM330.309 16.166C330.309 14.6836 330.651 13.5059 331.337 12.6328C332.022 11.7539 332.931 11.3145 334.062 11.3145C335.222 11.3145 336.127 11.7246 336.777 12.5449L336.856 11.4902H338.342V20.7715C338.342 22.002 337.976 22.9717 337.243 23.6807C336.517 24.3896 335.538 24.7441 334.308 24.7441C333.622 24.7441 332.951 24.5977 332.295 24.3047C331.639 24.0117 331.138 23.6104 330.792 23.1006L331.636 22.125C332.333 22.9863 333.186 23.417 334.193 23.417C334.984 23.417 335.6 23.1943 336.039 22.749C336.484 22.3037 336.707 21.6768 336.707 20.8682V20.0508C336.057 20.8008 335.169 21.1758 334.044 21.1758C332.931 21.1758 332.028 20.7275 331.337 19.8311C330.651 18.9346 330.309 17.7129 330.309 16.166ZM331.943 16.3506C331.943 17.4229 332.163 18.2666 332.603 18.8818C333.042 19.4912 333.657 19.7959 334.448 19.7959C335.474 19.7959 336.227 19.3301 336.707 18.3984V14.0566C336.209 13.1484 335.462 12.6943 334.466 12.6943C333.675 12.6943 333.057 13.002 332.611 13.6172C332.166 14.2324 331.943 15.1436 331.943 16.3506ZM342.429 12.6416C343.149 11.7568 344.087 11.3145 345.241 11.3145C347.251 11.3145 348.265 12.4482 348.282 14.7158V21H346.656V14.707C346.65 14.0215 346.492 13.5146 346.182 13.1865C345.877 12.8584 345.399 12.6943 344.749 12.6943C344.222 12.6943 343.759 12.835 343.36 13.1162C342.962 13.3975 342.651 13.7666 342.429 14.2236V21H340.803V7.5H342.429V12.6416ZM363.215 16.3506C363.215 17.7979 362.884 18.9639 362.222 19.8486C361.56 20.7334 360.663 21.1758 359.532 21.1758C358.378 21.1758 357.47 20.8096 356.808 20.0771V24.6562H355.182V11.4902H356.667L356.746 12.5449C357.408 11.7246 358.328 11.3145 359.506 11.3145C360.648 11.3145 361.551 11.7451 362.213 12.6064C362.881 13.4678 363.215 14.666 363.215 16.2012V16.3506ZM361.589 16.166C361.589 15.0938 361.36 14.2471 360.903 13.626C360.446 13.0049 359.819 12.6943 359.022 12.6943C358.038 12.6943 357.3 13.1309 356.808 14.0039V18.5479C357.294 19.415 358.038 19.8486 359.04 19.8486C359.819 19.8486 360.438 19.541 360.895 18.9258C361.357 18.3047 361.589 17.3848 361.589 16.166ZM369.886 12.9492C369.64 12.9082 369.373 12.8877 369.086 12.8877C368.02 12.8877 367.296 13.3418 366.915 14.25V21H365.289V11.4902H366.871L366.897 12.5889C367.431 11.7393 368.187 11.3145 369.165 11.3145C369.481 11.3145 369.722 11.3555 369.886 11.4375V12.9492ZM373.155 21H371.529V11.4902H373.155V21ZM371.397 8.96777C371.397 8.7041 371.477 8.48145 371.635 8.2998C371.799 8.11816 372.039 8.02734 372.355 8.02734C372.672 8.02734 372.912 8.11816 373.076 8.2998C373.24 8.48145 373.322 8.7041 373.322 8.96777C373.322 9.23145 373.24 9.45117 373.076 9.62695C372.912 9.80273 372.672 9.89062 372.355 9.89062C372.039 9.89062 371.799 9.80273 371.635 9.62695C371.477 9.45117 371.397 9.23145 371.397 8.96777ZM375.335 16.1572C375.335 15.2256 375.517 14.3877 375.88 13.6436C376.249 12.8994 376.759 12.3252 377.409 11.9209C378.065 11.5166 378.812 11.3145 379.65 11.3145C380.945 11.3145 381.991 11.7627 382.788 12.6592C383.591 13.5557 383.992 14.748 383.992 16.2363V16.3506C383.992 17.2764 383.813 18.1084 383.456 18.8467C383.104 19.5791 382.598 20.1504 381.936 20.5605C381.279 20.9707 380.523 21.1758 379.668 21.1758C378.379 21.1758 377.333 20.7275 376.53 19.8311C375.733 18.9346 375.335 17.748 375.335 16.2715V16.1572ZM376.97 16.3506C376.97 17.4053 377.213 18.252 377.699 18.8906C378.191 19.5293 378.848 19.8486 379.668 19.8486C380.494 19.8486 381.15 19.5264 381.637 18.8818C382.123 18.2314 382.366 17.3232 382.366 16.1572C382.366 15.1143 382.117 14.2705 381.619 13.626C381.127 12.9756 380.471 12.6504 379.65 12.6504C378.848 12.6504 378.2 12.9697 377.708 13.6084C377.216 14.2471 376.97 15.1611 376.97 16.3506ZM390.628 12.9492C390.382 12.9082 390.115 12.8877 389.828 12.8877C388.762 12.8877 388.038 13.3418 387.657 14.25V21H386.031V11.4902H387.613L387.64 12.5889C388.173 11.7393 388.929 11.3145 389.907 11.3145C390.224 11.3145 390.464 11.3555 390.628 11.4375V12.9492ZM393.897 21H392.271V11.4902H393.897V21ZM392.14 8.96777C392.14 8.7041 392.219 8.48145 392.377 8.2998C392.541 8.11816 392.781 8.02734 393.098 8.02734C393.414 8.02734 393.654 8.11816 393.818 8.2998C393.982 8.48145 394.064 8.7041 394.064 8.96777C394.064 9.23145 393.982 9.45117 393.818 9.62695C393.654 9.80273 393.414 9.89062 393.098 9.89062C392.781 9.89062 392.541 9.80273 392.377 9.62695C392.219 9.45117 392.14 9.23145 392.14 8.96777ZM398.714 9.1875V11.4902H400.489V12.7471H398.714V18.6445C398.714 19.0254 398.793 19.3125 398.951 19.5059C399.109 19.6934 399.379 19.7871 399.76 19.7871C399.947 19.7871 400.205 19.752 400.533 19.6816V21C400.105 21.1172 399.689 21.1758 399.285 21.1758C398.559 21.1758 398.011 20.9561 397.642 20.5166C397.272 20.0771 397.088 19.4531 397.088 18.6445V12.7471H395.356V11.4902H397.088V9.1875H398.714ZM405.508 18.6182L407.723 11.4902H409.463L405.64 22.4678C405.048 24.0498 404.107 24.8408 402.818 24.8408L402.511 24.8145L401.904 24.7002V23.3818L402.344 23.417C402.895 23.417 403.322 23.3057 403.627 23.083C403.938 22.8604 404.192 22.4531 404.392 21.8613L404.752 20.8945L401.359 11.4902H403.135L405.508 18.6182ZM417.593 9.1875V11.4902H419.368V12.7471H417.593V18.6445C417.593 19.0254 417.672 19.3125 417.83 19.5059C417.988 19.6934 418.258 19.7871 418.639 19.7871C418.826 19.7871 419.084 19.752 419.412 19.6816V21C418.984 21.1172 418.568 21.1758 418.164 21.1758C417.438 21.1758 416.89 20.9561 416.521 20.5166C416.151 20.0771 415.967 19.4531 415.967 18.6445V12.7471H414.235V11.4902H415.967V9.1875H417.593ZM427.146 21C427.053 20.8125 426.977 20.4785 426.918 19.998C426.162 20.7832 425.26 21.1758 424.211 21.1758C423.273 21.1758 422.503 20.9121 421.899 20.3848C421.302 19.8516 421.003 19.1777 421.003 18.3633C421.003 17.373 421.378 16.6055 422.128 16.0605C422.884 15.5098 423.944 15.2344 425.31 15.2344H426.892V14.4873C426.892 13.9189 426.722 13.4678 426.382 13.1338C426.042 12.7939 425.541 12.624 424.879 12.624C424.299 12.624 423.812 12.7705 423.42 13.0635C423.027 13.3564 422.831 13.7109 422.831 14.127H421.196C421.196 13.6523 421.363 13.1953 421.697 12.7559C422.037 12.3105 422.494 11.959 423.068 11.7012C423.648 11.4434 424.284 11.3145 424.976 11.3145C426.071 11.3145 426.93 11.5898 427.551 12.1406C428.172 12.6855 428.494 13.4385 428.518 14.3994V18.7764C428.518 19.6494 428.629 20.3438 428.852 20.8594V21H427.146ZM424.448 19.7607C424.958 19.7607 425.441 19.6289 425.898 19.3652C426.355 19.1016 426.687 18.7588 426.892 18.3369V16.3857H425.617C423.625 16.3857 422.629 16.9688 422.629 18.1348C422.629 18.6445 422.799 19.043 423.139 19.3301C423.479 19.6172 423.915 19.7607 424.448 19.7607ZM436.604 18.4775C436.604 18.0381 436.437 17.6982 436.103 17.458C435.774 17.2119 435.197 17.001 434.371 16.8252C433.551 16.6494 432.897 16.4385 432.411 16.1924C431.931 15.9463 431.573 15.6533 431.339 15.3135C431.11 14.9736 430.996 14.5693 430.996 14.1006C430.996 13.3213 431.324 12.6621 431.98 12.123C432.643 11.584 433.486 11.3145 434.512 11.3145C435.59 11.3145 436.463 11.5928 437.131 12.1494C437.805 12.7061 438.142 13.418 438.142 14.2852H436.507C436.507 13.8398 436.316 13.4561 435.936 13.1338C435.561 12.8115 435.086 12.6504 434.512 12.6504C433.92 12.6504 433.457 12.7793 433.123 13.0371C432.789 13.2949 432.622 13.6318 432.622 14.0479C432.622 14.4404 432.777 14.7363 433.088 14.9355C433.398 15.1348 433.958 15.3252 434.767 15.5068C435.581 15.6885 436.24 15.9053 436.744 16.1572C437.248 16.4092 437.62 16.7139 437.86 17.0713C438.106 17.4229 438.229 17.8535 438.229 18.3633C438.229 19.2129 437.89 19.8955 437.21 20.4111C436.53 20.9209 435.648 21.1758 434.564 21.1758C433.803 21.1758 433.129 21.041 432.543 20.7715C431.957 20.502 431.497 20.127 431.163 19.6465C430.835 19.1602 430.671 18.6357 430.671 18.0732H432.297C432.326 18.6182 432.543 19.0518 432.947 19.374C433.357 19.6904 433.896 19.8486 434.564 19.8486C435.18 19.8486 435.672 19.7256 436.041 19.4795C436.416 19.2275 436.604 18.8936 436.604 18.4775ZM443.002 16.5967L441.982 17.6602V21H440.356V7.5H441.982V15.665L442.853 14.6191L445.814 11.4902H447.792L444.092 15.4629L448.223 21H446.315L443.002 16.5967ZM455.008 18.4775C455.008 18.0381 454.841 17.6982 454.507 17.458C454.179 17.2119 453.602 17.001 452.775 16.8252C451.955 16.6494 451.302 16.4385 450.815 16.1924C450.335 15.9463 449.978 15.6533 449.743 15.3135C449.515 14.9736 449.4 14.5693 449.4 14.1006C449.4 13.3213 449.729 12.6621 450.385 12.123C451.047 11.584 451.891 11.3145 452.916 11.3145C453.994 11.3145 454.867 11.5928 455.535 12.1494C456.209 12.7061 456.546 13.418 456.546 14.2852H454.911C454.911 13.8398 454.721 13.4561 454.34 13.1338C453.965 12.8115 453.49 12.6504 452.916 12.6504C452.324 12.6504 451.861 12.7793 451.527 13.0371C451.193 13.2949 451.026 13.6318 451.026 14.0479C451.026 14.4404 451.182 14.7363 451.492 14.9355C451.803 15.1348 452.362 15.3252 453.171 15.5068C453.985 15.6885 454.645 15.9053 455.148 16.1572C455.652 16.4092 456.024 16.7139 456.265 17.0713C456.511 17.4229 456.634 17.8535 456.634 18.3633C456.634 19.2129 456.294 19.8955 455.614 20.4111C454.935 20.9209 454.053 21.1758 452.969 21.1758C452.207 21.1758 451.533 21.041 450.947 20.7715C450.361 20.502 449.901 20.127 449.567 19.6465C449.239 19.1602 449.075 18.6357 449.075 18.0732H450.701C450.73 18.6182 450.947 19.0518 451.352 19.374C451.762 19.6904 452.301 19.8486 452.969 19.8486C453.584 19.8486 454.076 19.7256 454.445 19.4795C454.82 19.2275 455.008 18.8936 455.008 18.4775Z" fill="#272F31"/>
<path d="M15.6445 29H10V7.24219L3.26172 9.33203V4.74219L15.0391 0.523438H15.6445V29Z" fill="#6E76F6"/>
<path d="M58.2959 93H56.6084V80.2031H58.2959V93ZM62.6641 83.4902L62.708 84.5449C63.4053 83.7246 64.3457 83.3145 65.5293 83.3145C66.8594 83.3145 67.7646 83.8242 68.2451 84.8438C68.5615 84.3867 68.9717 84.0176 69.4756 83.7363C69.9854 83.4551 70.5859 83.3145 71.2773 83.3145C73.3633 83.3145 74.4238 84.4189 74.459 86.6279V93H72.833V86.7246C72.833 86.0449 72.6777 85.5381 72.3672 85.2041C72.0566 84.8643 71.5352 84.6943 70.8027 84.6943C70.1992 84.6943 69.6982 84.876 69.2998 85.2393C68.9014 85.5967 68.6699 86.0801 68.6055 86.6895V93H66.9707V86.7686C66.9707 85.3857 66.2939 84.6943 64.9404 84.6943C63.874 84.6943 63.1445 85.1484 62.752 86.0566V93H61.126V83.4902H62.6641ZM84.9531 88.3506C84.9531 89.7979 84.6221 90.9639 83.96 91.8486C83.2979 92.7334 82.4014 93.1758 81.2705 93.1758C80.1162 93.1758 79.208 92.8096 78.5459 92.0771V96.6562H76.9199V83.4902H78.4053L78.4844 84.5449C79.1465 83.7246 80.0664 83.3145 81.2441 83.3145C82.3867 83.3145 83.2891 83.7451 83.9512 84.6064C84.6191 85.4678 84.9531 86.666 84.9531 88.2012V88.3506ZM83.3271 88.166C83.3271 87.0938 83.0986 86.2471 82.6416 85.626C82.1846 85.0049 81.5576 84.6943 80.7607 84.6943C79.7764 84.6943 79.0381 85.1309 78.5459 86.0039V90.5479C79.0322 91.415 79.7764 91.8486 80.7783 91.8486C81.5576 91.8486 82.1758 91.541 82.6328 90.9258C83.0957 90.3047 83.3271 89.3848 83.3271 88.166ZM88.7939 93H87.168V79.5H88.7939V93ZM95.3506 93.1758C94.0615 93.1758 93.0127 92.7539 92.2041 91.9102C91.3955 91.0605 90.9912 89.9268 90.9912 88.5088V88.21C90.9912 87.2666 91.1699 86.4258 91.5273 85.6875C91.8906 84.9434 92.3945 84.3633 93.0391 83.9473C93.6895 83.5254 94.3926 83.3145 95.1484 83.3145C96.3848 83.3145 97.3457 83.7217 98.0312 84.5361C98.7168 85.3506 99.0596 86.5166 99.0596 88.0342V88.7109H92.6172C92.6406 89.6484 92.9131 90.4072 93.4346 90.9873C93.9619 91.5615 94.6299 91.8486 95.4385 91.8486C96.0127 91.8486 96.499 91.7314 96.8975 91.4971C97.2959 91.2627 97.6445 90.9521 97.9434 90.5654L98.9365 91.3389C98.1396 92.5635 96.9443 93.1758 95.3506 93.1758ZM95.1484 84.6504C94.4922 84.6504 93.9414 84.8906 93.4961 85.3711C93.0508 85.8457 92.7754 86.5137 92.6699 87.375H97.4336V87.252C97.3867 86.4258 97.1641 85.7871 96.7656 85.3359C96.3672 84.8789 95.8281 84.6504 95.1484 84.6504ZM102.479 83.4902L102.522 84.5449C103.22 83.7246 104.16 83.3145 105.344 83.3145C106.674 83.3145 107.579 83.8242 108.06 84.8438C108.376 84.3867 108.786 84.0176 109.29 83.7363C109.8 83.4551 110.4 83.3145 111.092 83.3145C113.178 83.3145 114.238 84.4189 114.273 86.6279V93H112.647V86.7246C112.647 86.0449 112.492 85.5381 112.182 85.2041C111.871 84.8643 111.35 84.6943 110.617 84.6943C110.014 84.6943 109.513 84.876 109.114 85.2393C108.716 85.5967 108.484 86.0801 108.42 86.6895V93H106.785V86.7686C106.785 85.3857 106.108 84.6943 104.755 84.6943C103.688 84.6943 102.959 85.1484 102.566 86.0566V93H100.94V83.4902H102.479ZM120.681 93.1758C119.392 93.1758 118.343 92.7539 117.534 91.9102C116.726 91.0605 116.321 89.9268 116.321 88.5088V88.21C116.321 87.2666 116.5 86.4258 116.857 85.6875C117.221 84.9434 117.725 84.3633 118.369 83.9473C119.02 83.5254 119.723 83.3145 120.479 83.3145C121.715 83.3145 122.676 83.7217 123.361 84.5361C124.047 85.3506 124.39 86.5166 124.39 88.0342V88.7109H117.947C117.971 89.6484 118.243 90.4072 118.765 90.9873C119.292 91.5615 119.96 91.8486 120.769 91.8486C121.343 91.8486 121.829 91.7314 122.228 91.4971C122.626 91.2627 122.975 90.9521 123.273 90.5654L124.267 91.3389C123.47 92.5635 122.274 93.1758 120.681 93.1758ZM120.479 84.6504C119.822 84.6504 119.271 84.8906 118.826 85.3711C118.381 85.8457 118.105 86.5137 118 87.375H122.764V87.252C122.717 86.4258 122.494 85.7871 122.096 85.3359C121.697 84.8789 121.158 84.6504 120.479 84.6504ZM127.817 83.4902L127.87 84.6855C128.597 83.7715 129.546 83.3145 130.718 83.3145C132.728 83.3145 133.741 84.4482 133.759 86.7158V93H132.133V86.707C132.127 86.0215 131.969 85.5146 131.658 85.1865C131.354 84.8584 130.876 84.6943 130.226 84.6943C129.698 84.6943 129.235 84.835 128.837 85.1162C128.438 85.3975 128.128 85.7666 127.905 86.2236V93H126.279V83.4902H127.817ZM138.417 81.1875V83.4902H140.192V84.7471H138.417V90.6445C138.417 91.0254 138.496 91.3125 138.654 91.5059C138.812 91.6934 139.082 91.7871 139.463 91.7871C139.65 91.7871 139.908 91.752 140.236 91.6816V93C139.809 93.1172 139.393 93.1758 138.988 93.1758C138.262 93.1758 137.714 92.9561 137.345 92.5166C136.976 92.0771 136.791 91.4531 136.791 90.6445V84.7471H135.06V83.4902H136.791V81.1875H138.417ZM152.436 93C152.342 92.8125 152.266 92.4785 152.207 91.998C151.451 92.7832 150.549 93.1758 149.5 93.1758C148.562 93.1758 147.792 92.9121 147.188 92.3848C146.591 91.8516 146.292 91.1777 146.292 90.3633C146.292 89.373 146.667 88.6055 147.417 88.0605C148.173 87.5098 149.233 87.2344 150.599 87.2344H152.181V86.4873C152.181 85.9189 152.011 85.4678 151.671 85.1338C151.331 84.7939 150.83 84.624 150.168 84.624C149.588 84.624 149.102 84.7705 148.709 85.0635C148.316 85.3564 148.12 85.7109 148.12 86.127H146.485C146.485 85.6523 146.652 85.1953 146.986 84.7559C147.326 84.3105 147.783 83.959 148.357 83.7012C148.938 83.4434 149.573 83.3145 150.265 83.3145C151.36 83.3145 152.219 83.5898 152.84 84.1406C153.461 84.6855 153.783 85.4385 153.807 86.3994V90.7764C153.807 91.6494 153.918 92.3438 154.141 92.8594V93H152.436ZM149.737 91.7607C150.247 91.7607 150.73 91.6289 151.188 91.3652C151.645 91.1016 151.976 90.7588 152.181 90.3369V88.3857H150.906C148.914 88.3857 147.918 88.9688 147.918 90.1348C147.918 90.6445 148.088 91.043 148.428 91.3301C148.768 91.6172 149.204 91.7607 149.737 91.7607ZM158.122 93H156.496V79.5H158.122V93ZM162.938 81.1875V83.4902H164.714V84.7471H162.938V90.6445C162.938 91.0254 163.018 91.3125 163.176 91.5059C163.334 91.6934 163.604 91.7871 163.984 91.7871C164.172 91.7871 164.43 91.752 164.758 91.6816V93C164.33 93.1172 163.914 93.1758 163.51 93.1758C162.783 93.1758 162.235 92.9561 161.866 92.5166C161.497 92.0771 161.312 91.4531 161.312 90.6445V84.7471H159.581V83.4902H161.312V81.1875H162.938ZM170.567 93.1758C169.278 93.1758 168.229 92.7539 167.421 91.9102C166.612 91.0605 166.208 89.9268 166.208 88.5088V88.21C166.208 87.2666 166.387 86.4258 166.744 85.6875C167.107 84.9434 167.611 84.3633 168.256 83.9473C168.906 83.5254 169.609 83.3145 170.365 83.3145C171.602 83.3145 172.562 83.7217 173.248 84.5361C173.934 85.3506 174.276 86.5166 174.276 88.0342V88.7109H167.834C167.857 89.6484 168.13 90.4072 168.651 90.9873C169.179 91.5615 169.847 91.8486 170.655 91.8486C171.229 91.8486 171.716 91.7314 172.114 91.4971C172.513 91.2627 172.861 90.9521 173.16 90.5654L174.153 91.3389C173.356 92.5635 172.161 93.1758 170.567 93.1758ZM170.365 84.6504C169.709 84.6504 169.158 84.8906 168.713 85.3711C168.268 85.8457 167.992 86.5137 167.887 87.375H172.65V87.252C172.604 86.4258 172.381 85.7871 171.982 85.3359C171.584 84.8789 171.045 84.6504 170.365 84.6504ZM180.763 84.9492C180.517 84.9082 180.25 84.8877 179.963 84.8877C178.896 84.8877 178.173 85.3418 177.792 86.25V93H176.166V83.4902H177.748L177.774 84.5889C178.308 83.7393 179.063 83.3145 180.042 83.3145C180.358 83.3145 180.599 83.3555 180.763 83.4375V84.9492ZM183.804 83.4902L183.856 84.6855C184.583 83.7715 185.532 83.3145 186.704 83.3145C188.714 83.3145 189.728 84.4482 189.745 86.7158V93H188.119V86.707C188.113 86.0215 187.955 85.5146 187.645 85.1865C187.34 84.8584 186.862 84.6943 186.212 84.6943C185.685 84.6943 185.222 84.835 184.823 85.1162C184.425 85.3975 184.114 85.7666 183.892 86.2236V93H182.266V83.4902H183.804ZM198.068 93C197.975 92.8125 197.898 92.4785 197.84 91.998C197.084 92.7832 196.182 93.1758 195.133 93.1758C194.195 93.1758 193.425 92.9121 192.821 92.3848C192.224 91.8516 191.925 91.1777 191.925 90.3633C191.925 89.373 192.3 88.6055 193.05 88.0605C193.806 87.5098 194.866 87.2344 196.231 87.2344H197.813V86.4873C197.813 85.9189 197.644 85.4678 197.304 85.1338C196.964 84.7939 196.463 84.624 195.801 84.624C195.221 84.624 194.734 84.7705 194.342 85.0635C193.949 85.3564 193.753 85.7109 193.753 86.127H192.118C192.118 85.6523 192.285 85.1953 192.619 84.7559C192.959 84.3105 193.416 83.959 193.99 83.7012C194.57 83.4434 195.206 83.3145 195.897 83.3145C196.993 83.3145 197.852 83.5898 198.473 84.1406C199.094 84.6855 199.416 85.4385 199.439 86.3994V90.7764C199.439 91.6494 199.551 92.3438 199.773 92.8594V93H198.068ZM195.37 91.7607C195.88 91.7607 196.363 91.6289 196.82 91.3652C197.277 91.1016 197.608 90.7588 197.813 90.3369V88.3857H196.539C194.547 88.3857 193.551 88.9688 193.551 90.1348C193.551 90.6445 193.721 91.043 194.061 91.3301C194.4 91.6172 194.837 91.7607 195.37 91.7607ZM204.194 81.1875V83.4902H205.97V84.7471H204.194V90.6445C204.194 91.0254 204.273 91.3125 204.432 91.5059C204.59 91.6934 204.859 91.7871 205.24 91.7871C205.428 91.7871 205.686 91.752 206.014 91.6816V93C205.586 93.1172 205.17 93.1758 204.766 93.1758C204.039 93.1758 203.491 92.9561 203.122 92.5166C202.753 92.0771 202.568 91.4531 202.568 90.6445V84.7471H200.837V83.4902H202.568V81.1875H204.194ZM209.644 93H208.018V83.4902H209.644V93ZM207.886 80.9678C207.886 80.7041 207.965 80.4814 208.123 80.2998C208.287 80.1182 208.527 80.0273 208.844 80.0273C209.16 80.0273 209.4 80.1182 209.564 80.2998C209.729 80.4814 209.811 80.7041 209.811 80.9678C209.811 81.2314 209.729 81.4512 209.564 81.627C209.4 81.8027 209.16 81.8906 208.844 81.8906C208.527 81.8906 208.287 81.8027 208.123 81.627C207.965 81.4512 207.886 81.2314 207.886 80.9678ZM215.392 90.7939L217.747 83.4902H219.408L215.998 93H214.759L211.313 83.4902H212.975L215.392 90.7939ZM224.796 93.1758C223.507 93.1758 222.458 92.7539 221.649 91.9102C220.841 91.0605 220.437 89.9268 220.437 88.5088V88.21C220.437 87.2666 220.615 86.4258 220.973 85.6875C221.336 84.9434 221.84 84.3633 222.484 83.9473C223.135 83.5254 223.838 83.3145 224.594 83.3145C225.83 83.3145 226.791 83.7217 227.477 84.5361C228.162 85.3506 228.505 86.5166 228.505 88.0342V88.7109H222.062C222.086 89.6484 222.358 90.4072 222.88 90.9873C223.407 91.5615 224.075 91.8486 224.884 91.8486C225.458 91.8486 225.944 91.7314 226.343 91.4971C226.741 91.2627 227.09 90.9521 227.389 90.5654L228.382 91.3389C227.585 92.5635 226.39 93.1758 224.796 93.1758ZM224.594 84.6504C223.938 84.6504 223.387 84.8906 222.941 85.3711C222.496 85.8457 222.221 86.5137 222.115 87.375H226.879V87.252C226.832 86.4258 226.609 85.7871 226.211 85.3359C225.812 84.8789 225.273 84.6504 224.594 84.6504ZM235.932 90.4775C235.932 90.0381 235.765 89.6982 235.431 89.458C235.103 89.2119 234.525 89.001 233.699 88.8252C232.879 88.6494 232.226 88.4385 231.739 88.1924C231.259 87.9463 230.901 87.6533 230.667 87.3135C230.438 86.9736 230.324 86.5693 230.324 86.1006C230.324 85.3213 230.652 84.6621 231.309 84.123C231.971 83.584 232.814 83.3145 233.84 83.3145C234.918 83.3145 235.791 83.5928 236.459 84.1494C237.133 84.7061 237.47 85.418 237.47 86.2852H235.835C235.835 85.8398 235.645 85.4561 235.264 85.1338C234.889 84.8115 234.414 84.6504 233.84 84.6504C233.248 84.6504 232.785 84.7793 232.451 85.0371C232.117 85.2949 231.95 85.6318 231.95 86.0479C231.95 86.4404 232.105 86.7363 232.416 86.9355C232.727 87.1348 233.286 87.3252 234.095 87.5068C234.909 87.6885 235.568 87.9053 236.072 88.1572C236.576 88.4092 236.948 88.7139 237.188 89.0713C237.435 89.4229 237.558 89.8535 237.558 90.3633C237.558 91.2129 237.218 91.8955 236.538 92.4111C235.858 92.9209 234.977 93.1758 233.893 93.1758C233.131 93.1758 232.457 93.041 231.871 92.7715C231.285 92.502 230.825 92.127 230.491 91.6465C230.163 91.1602 229.999 90.6357 229.999 90.0732H231.625C231.654 90.6182 231.871 91.0518 232.275 91.374C232.686 91.6904 233.225 91.8486 233.893 91.8486C234.508 91.8486 235 91.7256 235.369 91.4795C235.744 91.2275 235.932 90.8936 235.932 90.4775ZM246.347 81.1875V83.4902H248.122V84.7471H246.347V90.6445C246.347 91.0254 246.426 91.3125 246.584 91.5059C246.742 91.6934 247.012 91.7871 247.393 91.7871C247.58 91.7871 247.838 91.752 248.166 91.6816V93C247.738 93.1172 247.322 93.1758 246.918 93.1758C246.191 93.1758 245.644 92.9561 245.274 92.5166C244.905 92.0771 244.721 91.4531 244.721 90.6445V84.7471H242.989V83.4902H244.721V81.1875H246.347ZM249.423 88.1572C249.423 87.2256 249.604 86.3877 249.968 85.6436C250.337 84.8994 250.847 84.3252 251.497 83.9209C252.153 83.5166 252.9 83.3145 253.738 83.3145C255.033 83.3145 256.079 83.7627 256.876 84.6592C257.679 85.5557 258.08 86.748 258.08 88.2363V88.3506C258.08 89.2764 257.901 90.1084 257.544 90.8467C257.192 91.5791 256.686 92.1504 256.023 92.5605C255.367 92.9707 254.611 93.1758 253.756 93.1758C252.467 93.1758 251.421 92.7275 250.618 91.8311C249.821 90.9346 249.423 89.748 249.423 88.2715V88.1572ZM251.058 88.3506C251.058 89.4053 251.301 90.252 251.787 90.8906C252.279 91.5293 252.936 91.8486 253.756 91.8486C254.582 91.8486 255.238 91.5264 255.725 90.8818C256.211 90.2314 256.454 89.3232 256.454 88.1572C256.454 87.1143 256.205 86.2705 255.707 85.626C255.215 84.9756 254.559 84.6504 253.738 84.6504C252.936 84.6504 252.288 84.9697 251.796 85.6084C251.304 86.2471 251.058 87.1611 251.058 88.3506ZM265.384 93V84.7471H263.881V83.4902H265.384V82.5146C265.384 81.4951 265.656 80.707 266.201 80.1504C266.746 79.5938 267.517 79.3154 268.513 79.3154C268.888 79.3154 269.26 79.3652 269.629 79.4648L269.541 80.7832C269.266 80.7305 268.973 80.7041 268.662 80.7041C268.135 80.7041 267.728 80.8594 267.44 81.1699C267.153 81.4746 267.01 81.9141 267.01 82.4883V83.4902H269.04V84.7471H267.01V93H265.384ZM275.438 84.9492C275.192 84.9082 274.926 84.8877 274.639 84.8877C273.572 84.8877 272.849 85.3418 272.468 86.25V93H270.842V83.4902H272.424L272.45 84.5889C272.983 83.7393 273.739 83.3145 274.718 83.3145C275.034 83.3145 275.274 83.3555 275.438 83.4375V84.9492ZM280.712 93.1758C279.423 93.1758 278.374 92.7539 277.565 91.9102C276.757 91.0605 276.353 89.9268 276.353 88.5088V88.21C276.353 87.2666 276.531 86.4258 276.889 85.6875C277.252 84.9434 277.756 84.3633 278.4 83.9473C279.051 83.5254 279.754 83.3145 280.51 83.3145C281.746 83.3145 282.707 83.7217 283.393 84.5361C284.078 85.3506 284.421 86.5166 284.421 88.0342V88.7109H277.979C278.002 89.6484 278.274 90.4072 278.796 90.9873C279.323 91.5615 279.991 91.8486 280.8 91.8486C281.374 91.8486 281.86 91.7314 282.259 91.4971C282.657 91.2627 283.006 90.9521 283.305 90.5654L284.298 91.3389C283.501 92.5635 282.306 93.1758 280.712 93.1758ZM280.51 84.6504C279.854 84.6504 279.303 84.8906 278.857 85.3711C278.412 85.8457 278.137 86.5137 278.031 87.375H282.795V87.252C282.748 86.4258 282.525 85.7871 282.127 85.3359C281.729 84.8789 281.189 84.6504 280.51 84.6504ZM290.257 93.1758C288.968 93.1758 287.919 92.7539 287.11 91.9102C286.302 91.0605 285.897 89.9268 285.897 88.5088V88.21C285.897 87.2666 286.076 86.4258 286.434 85.6875C286.797 84.9434 287.301 84.3633 287.945 83.9473C288.596 83.5254 289.299 83.3145 290.055 83.3145C291.291 83.3145 292.252 83.7217 292.938 84.5361C293.623 85.3506 293.966 86.5166 293.966 88.0342V88.7109H287.523C287.547 89.6484 287.819 90.4072 288.341 90.9873C288.868 91.5615 289.536 91.8486 290.345 91.8486C290.919 91.8486 291.405 91.7314 291.804 91.4971C292.202 91.2627 292.551 90.9521 292.85 90.5654L293.843 91.3389C293.046 92.5635 291.851 93.1758 290.257 93.1758ZM290.055 84.6504C289.398 84.6504 288.848 84.8906 288.402 85.3711C287.957 85.8457 287.682 86.5137 287.576 87.375H292.34V87.252C292.293 86.4258 292.07 85.7871 291.672 85.3359C291.273 84.8789 290.734 84.6504 290.055 84.6504ZM302.526 81.1875V83.4902H304.302V84.7471H302.526V90.6445C302.526 91.0254 302.605 91.3125 302.764 91.5059C302.922 91.6934 303.191 91.7871 303.572 91.7871C303.76 91.7871 304.018 91.752 304.346 91.6816V93C303.918 93.1172 303.502 93.1758 303.098 93.1758C302.371 93.1758 301.823 92.9561 301.454 92.5166C301.085 92.0771 300.9 91.4531 300.9 90.6445V84.7471H299.169V83.4902H300.9V81.1875H302.526ZM309.32 90.6182L311.535 83.4902H313.275L309.452 94.4678C308.86 96.0498 307.92 96.8408 306.631 96.8408L306.323 96.8145L305.717 96.7002V95.3818L306.156 95.417C306.707 95.417 307.135 95.3057 307.439 95.083C307.75 94.8604 308.005 94.4531 308.204 93.8613L308.564 92.8945L305.172 83.4902H306.947L309.32 90.6182ZM322.768 88.3506C322.768 89.7979 322.437 90.9639 321.774 91.8486C321.112 92.7334 320.216 93.1758 319.085 93.1758C317.931 93.1758 317.022 92.8096 316.36 92.0771V96.6562H314.734V83.4902H316.22L316.299 84.5449C316.961 83.7246 317.881 83.3145 319.059 83.3145C320.201 83.3145 321.104 83.7451 321.766 84.6064C322.434 85.4678 322.768 86.666 322.768 88.2012V88.3506ZM321.142 88.166C321.142 87.0938 320.913 86.2471 320.456 85.626C319.999 85.0049 319.372 84.6943 318.575 84.6943C317.591 84.6943 316.853 85.1309 316.36 86.0039V90.5479C316.847 91.415 317.591 91.8486 318.593 91.8486C319.372 91.8486 319.99 91.541 320.447 90.9258C320.91 90.3047 321.142 89.3848 321.142 88.166ZM326.608 93H324.982V83.4902H326.608V93ZM324.851 80.9678C324.851 80.7041 324.93 80.4814 325.088 80.2998C325.252 80.1182 325.492 80.0273 325.809 80.0273C326.125 80.0273 326.365 80.1182 326.529 80.2998C326.693 80.4814 326.775 80.7041 326.775 80.9678C326.775 81.2314 326.693 81.4512 326.529 81.627C326.365 81.8027 326.125 81.8906 325.809 81.8906C325.492 81.8906 325.252 81.8027 325.088 81.627C324.93 81.4512 324.851 81.2314 324.851 80.9678ZM330.757 83.4902L330.81 84.6855C331.536 83.7715 332.485 83.3145 333.657 83.3145C335.667 83.3145 336.681 84.4482 336.698 86.7158V93H335.072V86.707C335.066 86.0215 334.908 85.5146 334.598 85.1865C334.293 84.8584 333.815 84.6943 333.165 84.6943C332.638 84.6943 332.175 84.835 331.776 85.1162C331.378 85.3975 331.067 85.7666 330.845 86.2236V93H329.219V83.4902H330.757ZM338.764 88.166C338.764 86.6836 339.106 85.5059 339.792 84.6328C340.478 83.7539 341.386 83.3145 342.517 83.3145C343.677 83.3145 344.582 83.7246 345.232 84.5449L345.312 83.4902H346.797V92.7715C346.797 94.002 346.431 94.9717 345.698 95.6807C344.972 96.3896 343.993 96.7441 342.763 96.7441C342.077 96.7441 341.406 96.5977 340.75 96.3047C340.094 96.0117 339.593 95.6104 339.247 95.1006L340.091 94.125C340.788 94.9863 341.641 95.417 342.648 95.417C343.439 95.417 344.055 95.1943 344.494 94.749C344.939 94.3037 345.162 93.6768 345.162 92.8682V92.0508C344.512 92.8008 343.624 93.1758 342.499 93.1758C341.386 93.1758 340.483 92.7275 339.792 91.8311C339.106 90.9346 338.764 89.7129 338.764 88.166ZM340.398 88.3506C340.398 89.4229 340.618 90.2666 341.058 90.8818C341.497 91.4912 342.112 91.7959 342.903 91.7959C343.929 91.7959 344.682 91.3301 345.162 90.3984V86.0566C344.664 85.1484 343.917 84.6943 342.921 84.6943C342.13 84.6943 341.512 85.002 341.066 85.6172C340.621 86.2324 340.398 87.1436 340.398 88.3506ZM362.143 90.7588L363.971 83.4902H365.597L362.828 93H361.51L359.198 85.793L356.948 93H355.63L352.87 83.4902H354.487L356.359 90.6094L358.574 83.4902H359.884L362.143 90.7588ZM368.884 84.6416C369.604 83.7568 370.542 83.3145 371.696 83.3145C373.706 83.3145 374.72 84.4482 374.737 86.7158V93H373.111V86.707C373.105 86.0215 372.947 85.5146 372.637 85.1865C372.332 84.8584 371.854 84.6943 371.204 84.6943C370.677 84.6943 370.214 84.835 369.815 85.1162C369.417 85.3975 369.106 85.7666 368.884 86.2236V93H367.258V79.5H368.884V84.6416ZM381.118 93.1758C379.829 93.1758 378.78 92.7539 377.972 91.9102C377.163 91.0605 376.759 89.9268 376.759 88.5088V88.21C376.759 87.2666 376.938 86.4258 377.295 85.6875C377.658 84.9434 378.162 84.3633 378.807 83.9473C379.457 83.5254 380.16 83.3145 380.916 83.3145C382.152 83.3145 383.113 83.7217 383.799 84.5361C384.484 85.3506 384.827 86.5166 384.827 88.0342V88.7109H378.385C378.408 89.6484 378.681 90.4072 379.202 90.9873C379.729 91.5615 380.397 91.8486 381.206 91.8486C381.78 91.8486 382.267 91.7314 382.665 91.4971C383.063 91.2627 383.412 90.9521 383.711 90.5654L384.704 91.3389C383.907 92.5635 382.712 93.1758 381.118 93.1758ZM380.916 84.6504C380.26 84.6504 379.709 84.8906 379.264 85.3711C378.818 85.8457 378.543 86.5137 378.438 87.375H383.201V87.252C383.154 86.4258 382.932 85.7871 382.533 85.3359C382.135 84.8789 381.596 84.6504 380.916 84.6504ZM391.313 84.9492C391.067 84.9082 390.801 84.8877 390.514 84.8877C389.447 84.8877 388.724 85.3418 388.343 86.25V93H386.717V83.4902H388.299L388.325 84.5889C388.858 83.7393 389.614 83.3145 390.593 83.3145C390.909 83.3145 391.149 83.3555 391.313 83.4375V84.9492ZM396.587 93.1758C395.298 93.1758 394.249 92.7539 393.44 91.9102C392.632 91.0605 392.228 89.9268 392.228 88.5088V88.21C392.228 87.2666 392.406 86.4258 392.764 85.6875C393.127 84.9434 393.631 84.3633 394.275 83.9473C394.926 83.5254 395.629 83.3145 396.385 83.3145C397.621 83.3145 398.582 83.7217 399.268 84.5361C399.953 85.3506 400.296 86.5166 400.296 88.0342V88.7109H393.854C393.877 89.6484 394.149 90.4072 394.671 90.9873C395.198 91.5615 395.866 91.8486 396.675 91.8486C397.249 91.8486 397.735 91.7314 398.134 91.4971C398.532 91.2627 398.881 90.9521 399.18 90.5654L400.173 91.3389C399.376 92.5635 398.181 93.1758 396.587 93.1758ZM396.385 84.6504C395.729 84.6504 395.178 84.8906 394.732 85.3711C394.287 85.8457 394.012 86.5137 393.906 87.375H398.67V87.252C398.623 86.4258 398.4 85.7871 398.002 85.3359C397.604 84.8789 397.064 84.6504 396.385 84.6504ZM414.684 88.3506C414.684 89.7979 414.353 90.9639 413.69 91.8486C413.028 92.7334 412.132 93.1758 411.001 93.1758C409.847 93.1758 408.938 92.8096 408.276 92.0771V96.6562H406.65V83.4902H408.136L408.215 84.5449C408.877 83.7246 409.797 83.3145 410.975 83.3145C412.117 83.3145 413.02 83.7451 413.682 84.6064C414.35 85.4678 414.684 86.666 414.684 88.2012V88.3506ZM413.058 88.166C413.058 87.0938 412.829 86.2471 412.372 85.626C411.915 85.0049 411.288 84.6943 410.491 84.6943C409.507 84.6943 408.769 85.1309 408.276 86.0039V90.5479C408.763 91.415 409.507 91.8486 410.509 91.8486C411.288 91.8486 411.906 91.541 412.363 90.9258C412.826 90.3047 413.058 89.3848 413.058 88.166ZM416.327 88.1572C416.327 87.2256 416.509 86.3877 416.872 85.6436C417.241 84.8994 417.751 84.3252 418.401 83.9209C419.058 83.5166 419.805 83.3145 420.643 83.3145C421.938 83.3145 422.983 83.7627 423.78 84.6592C424.583 85.5557 424.984 86.748 424.984 88.2363V88.3506C424.984 89.2764 424.806 90.1084 424.448 90.8467C424.097 91.5791 423.59 92.1504 422.928 92.5605C422.271 92.9707 421.516 93.1758 420.66 93.1758C419.371 93.1758 418.325 92.7275 417.522 91.8311C416.726 90.9346 416.327 89.748 416.327 88.2715V88.1572ZM417.962 88.3506C417.962 89.4053 418.205 90.252 418.691 90.8906C419.184 91.5293 419.84 91.8486 420.66 91.8486C421.486 91.8486 422.143 91.5264 422.629 90.8818C423.115 90.2314 423.358 89.3232 423.358 88.1572C423.358 87.1143 423.109 86.2705 422.611 85.626C422.119 84.9756 421.463 84.6504 420.643 84.6504C419.84 84.6504 419.192 84.9697 418.7 85.6084C418.208 86.2471 417.962 87.1611 417.962 88.3506ZM432.561 90.4775C432.561 90.0381 432.394 89.6982 432.06 89.458C431.731 89.2119 431.154 89.001 430.328 88.8252C429.508 88.6494 428.854 88.4385 428.368 88.1924C427.888 87.9463 427.53 87.6533 427.296 87.3135C427.067 86.9736 426.953 86.5693 426.953 86.1006C426.953 85.3213 427.281 84.6621 427.938 84.123C428.6 83.584 429.443 83.3145 430.469 83.3145C431.547 83.3145 432.42 83.5928 433.088 84.1494C433.762 84.7061 434.099 85.418 434.099 86.2852H432.464C432.464 85.8398 432.273 85.4561 431.893 85.1338C431.518 84.8115 431.043 84.6504 430.469 84.6504C429.877 84.6504 429.414 84.7793 429.08 85.0371C428.746 85.2949 428.579 85.6318 428.579 86.0479C428.579 86.4404 428.734 86.7363 429.045 86.9355C429.355 87.1348 429.915 87.3252 430.724 87.5068C431.538 87.6885 432.197 87.9053 432.701 88.1572C433.205 88.4092 433.577 88.7139 433.817 89.0713C434.063 89.4229 434.187 89.8535 434.187 90.3633C434.187 91.2129 433.847 91.8955 433.167 92.4111C432.487 92.9209 431.605 93.1758 430.521 93.1758C429.76 93.1758 429.086 93.041 428.5 92.7715C427.914 92.502 427.454 92.127 427.12 91.6465C426.792 91.1602 426.628 90.6357 426.628 90.0732H428.254C428.283 90.6182 428.5 91.0518 428.904 91.374C429.314 91.6904 429.854 91.8486 430.521 91.8486C431.137 91.8486 431.629 91.7256 431.998 91.4795C432.373 91.2275 432.561 90.8936 432.561 90.4775ZM441.842 90.4775C441.842 90.0381 441.675 89.6982 441.341 89.458C441.013 89.2119 440.436 89.001 439.609 88.8252C438.789 88.6494 438.136 88.4385 437.649 88.1924C437.169 87.9463 436.812 87.6533 436.577 87.3135C436.349 86.9736 436.234 86.5693 436.234 86.1006C436.234 85.3213 436.562 84.6621 437.219 84.123C437.881 83.584 438.725 83.3145 439.75 83.3145C440.828 83.3145 441.701 83.5928 442.369 84.1494C443.043 84.7061 443.38 85.418 443.38 86.2852H441.745C441.745 85.8398 441.555 85.4561 441.174 85.1338C440.799 84.8115 440.324 84.6504 439.75 84.6504C439.158 84.6504 438.695 84.7793 438.361 85.0371C438.027 85.2949 437.86 85.6318 437.86 86.0479C437.86 86.4404 438.016 86.7363 438.326 86.9355C438.637 87.1348 439.196 87.3252 440.005 87.5068C440.819 87.6885 441.479 87.9053 441.982 88.1572C442.486 88.4092 442.858 88.7139 443.099 89.0713C443.345 89.4229 443.468 89.8535 443.468 90.3633C443.468 91.2129 443.128 91.8955 442.448 92.4111C441.769 92.9209 440.887 93.1758 439.803 93.1758C439.041 93.1758 438.367 93.041 437.781 92.7715C437.195 92.502 436.735 92.127 436.401 91.6465C436.073 91.1602 435.909 90.6357 435.909 90.0732H437.535C437.564 90.6182 437.781 91.0518 438.186 91.374C438.596 91.6904 439.135 91.8486 439.803 91.8486C440.418 91.8486 440.91 91.7256 441.279 91.4795C441.654 91.2275 441.842 90.8936 441.842 90.4775ZM447.353 93H445.727V83.4902H447.353V93ZM445.595 80.9678C445.595 80.7041 445.674 80.4814 445.832 80.2998C445.996 80.1182 446.236 80.0273 446.553 80.0273C446.869 80.0273 447.109 80.1182 447.273 80.2998C447.438 80.4814 447.52 80.7041 447.52 80.9678C447.52 81.2314 447.438 81.4512 447.273 81.627C447.109 81.8027 446.869 81.8906 446.553 81.8906C446.236 81.8906 445.996 81.8027 445.832 81.627C445.674 81.4512 445.595 81.2314 445.595 80.9678ZM458.014 88.3506C458.014 89.8037 457.68 90.9727 457.012 91.8574C456.344 92.7363 455.447 93.1758 454.322 93.1758C453.121 93.1758 452.192 92.751 451.536 91.9014L451.457 93H449.963V79.5H451.589V84.5361C452.245 83.7217 453.15 83.3145 454.305 83.3145C455.459 83.3145 456.364 83.751 457.021 84.624C457.683 85.4971 458.014 86.6924 458.014 88.21V88.3506ZM456.388 88.166C456.388 87.0586 456.174 86.2031 455.746 85.5996C455.318 84.9961 454.703 84.6943 453.9 84.6943C452.828 84.6943 452.058 85.1924 451.589 86.1885V90.3018C452.087 91.2979 452.863 91.7959 453.918 91.7959C454.697 91.7959 455.304 91.4941 455.737 90.8906C456.171 90.2871 456.388 89.3789 456.388 88.166ZM461.837 93H460.211V79.5H461.837V93ZM468.394 93.1758C467.104 93.1758 466.056 92.7539 465.247 91.9102C464.438 91.0605 464.034 89.9268 464.034 88.5088V88.21C464.034 87.2666 464.213 86.4258 464.57 85.6875C464.934 84.9434 465.438 84.3633 466.082 83.9473C466.732 83.5254 467.436 83.3145 468.191 83.3145C469.428 83.3145 470.389 83.7217 471.074 84.5361C471.76 85.3506 472.103 86.5166 472.103 88.0342V88.7109H465.66C465.684 89.6484 465.956 90.4072 466.478 90.9873C467.005 91.5615 467.673 91.8486 468.481 91.8486C469.056 91.8486 469.542 91.7314 469.94 91.4971C470.339 91.2627 470.688 90.9521 470.986 90.5654L471.979 91.3389C471.183 92.5635 469.987 93.1758 468.394 93.1758ZM468.191 84.6504C467.535 84.6504 466.984 84.8906 466.539 85.3711C466.094 85.8457 465.818 86.5137 465.713 87.375H470.477V87.252C470.43 86.4258 470.207 85.7871 469.809 85.3359C469.41 84.8789 468.871 84.6504 468.191 84.6504Z" fill="#272F31"/>
<path d="M21.4258 101H1.93359V97.1328L11.1328 87.3281C12.3958 85.9479 13.3268 84.7435 13.9258 83.7148C14.5378 82.6862 14.8438 81.7096 14.8438 80.7852C14.8438 79.5221 14.5247 78.5326 13.8867 77.8164C13.2487 77.0872 12.3372 76.7227 11.1523 76.7227C9.8763 76.7227 8.86719 77.1654 8.125 78.0508C7.39583 78.9232 7.03125 80.0755 7.03125 81.5078H1.36719C1.36719 79.776 1.77734 78.194 2.59766 76.7617C3.43099 75.3294 4.60286 74.2096 6.11328 73.4023C7.6237 72.582 9.33594 72.1719 11.25 72.1719C14.1797 72.1719 16.4518 72.875 18.0664 74.2812C19.694 75.6875 20.5078 77.6732 20.5078 80.2383C20.5078 81.6445 20.1432 83.0768 19.4141 84.5352C18.6849 85.9935 17.4349 87.6927 15.6641 89.6328L9.19922 96.4492H21.4258V101Z" fill="#6E76F6"/>
<path d="M58.665 152.203L62.8486 162.645L67.0322 152.203H69.2207V165H67.5332V160.017L67.6914 154.638L63.4902 165H62.1982L58.0059 154.664L58.1729 160.017V165H56.4854V152.203H58.665ZM73.7119 165H72.0859V155.49H73.7119V165ZM71.9541 152.968C71.9541 152.704 72.0332 152.481 72.1914 152.3C72.3555 152.118 72.5957 152.027 72.9121 152.027C73.2285 152.027 73.4688 152.118 73.6328 152.3C73.7969 152.481 73.8789 152.704 73.8789 152.968C73.8789 153.231 73.7969 153.451 73.6328 153.627C73.4688 153.803 73.2285 153.891 72.9121 153.891C72.5957 153.891 72.3555 153.803 72.1914 153.627C72.0332 153.451 71.9541 153.231 71.9541 152.968ZM77.8516 155.49L77.8955 156.545C78.5928 155.725 79.5332 155.314 80.7168 155.314C82.0469 155.314 82.9521 155.824 83.4326 156.844C83.749 156.387 84.1592 156.018 84.6631 155.736C85.1729 155.455 85.7734 155.314 86.4648 155.314C88.5508 155.314 89.6113 156.419 89.6465 158.628V165H88.0205V158.725C88.0205 158.045 87.8652 157.538 87.5547 157.204C87.2441 156.864 86.7227 156.694 85.9902 156.694C85.3867 156.694 84.8857 156.876 84.4873 157.239C84.0889 157.597 83.8574 158.08 83.793 158.689V165H82.1582V158.769C82.1582 157.386 81.4814 156.694 80.1279 156.694C79.0615 156.694 78.332 157.148 77.9395 158.057V165H76.3135V155.49H77.8516ZM93.874 165H92.248V155.49H93.874V165ZM92.1162 152.968C92.1162 152.704 92.1953 152.481 92.3535 152.3C92.5176 152.118 92.7578 152.027 93.0742 152.027C93.3906 152.027 93.6309 152.118 93.7949 152.3C93.959 152.481 94.041 152.704 94.041 152.968C94.041 153.231 93.959 153.451 93.7949 153.627C93.6309 153.803 93.3906 153.891 93.0742 153.891C92.7578 153.891 92.5176 153.803 92.3535 153.627C92.1953 153.451 92.1162 153.231 92.1162 152.968ZM100.299 163.849C100.879 163.849 101.386 163.673 101.819 163.321C102.253 162.97 102.493 162.53 102.54 162.003H104.078C104.049 162.548 103.861 163.066 103.516 163.559C103.17 164.051 102.707 164.443 102.127 164.736C101.553 165.029 100.943 165.176 100.299 165.176C99.0039 165.176 97.9727 164.745 97.2051 163.884C96.4434 163.017 96.0625 161.833 96.0625 160.333V160.061C96.0625 159.135 96.2324 158.312 96.5723 157.591C96.9121 156.87 97.3984 156.311 98.0312 155.912C98.6699 155.514 99.4229 155.314 100.29 155.314C101.356 155.314 102.241 155.634 102.944 156.272C103.653 156.911 104.031 157.74 104.078 158.76H102.54C102.493 158.145 102.259 157.641 101.837 157.248C101.421 156.85 100.905 156.65 100.29 156.65C99.4639 156.65 98.8223 156.949 98.3652 157.547C97.9141 158.139 97.6885 158.997 97.6885 160.122V160.43C97.6885 161.525 97.9141 162.369 98.3652 162.961C98.8164 163.553 99.4609 163.849 100.299 163.849ZM112.577 153.188V155.49H114.353V156.747H112.577V162.645C112.577 163.025 112.656 163.312 112.814 163.506C112.973 163.693 113.242 163.787 113.623 163.787C113.811 163.787 114.068 163.752 114.396 163.682V165C113.969 165.117 113.553 165.176 113.148 165.176C112.422 165.176 111.874 164.956 111.505 164.517C111.136 164.077 110.951 163.453 110.951 162.645V156.747H109.22V155.49H110.951V153.188H112.577ZM117.886 156.642C118.606 155.757 119.544 155.314 120.698 155.314C122.708 155.314 123.722 156.448 123.739 158.716V165H122.113V158.707C122.107 158.021 121.949 157.515 121.639 157.187C121.334 156.858 120.856 156.694 120.206 156.694C119.679 156.694 119.216 156.835 118.817 157.116C118.419 157.397 118.108 157.767 117.886 158.224V165H116.26V151.5H117.886V156.642ZM130.12 165.176C128.831 165.176 127.782 164.754 126.974 163.91C126.165 163.061 125.761 161.927 125.761 160.509V160.21C125.761 159.267 125.939 158.426 126.297 157.688C126.66 156.943 127.164 156.363 127.809 155.947C128.459 155.525 129.162 155.314 129.918 155.314C131.154 155.314 132.115 155.722 132.801 156.536C133.486 157.351 133.829 158.517 133.829 160.034V160.711H127.387C127.41 161.648 127.683 162.407 128.204 162.987C128.731 163.562 129.399 163.849 130.208 163.849C130.782 163.849 131.269 163.731 131.667 163.497C132.065 163.263 132.414 162.952 132.713 162.565L133.706 163.339C132.909 164.563 131.714 165.176 130.12 165.176ZM129.918 156.65C129.262 156.65 128.711 156.891 128.266 157.371C127.82 157.846 127.545 158.514 127.439 159.375H132.203V159.252C132.156 158.426 131.934 157.787 131.535 157.336C131.137 156.879 130.598 156.65 129.918 156.65ZM141.722 155.49L141.774 156.686C142.501 155.771 143.45 155.314 144.622 155.314C146.632 155.314 147.646 156.448 147.663 158.716V165H146.037V158.707C146.031 158.021 145.873 157.515 145.562 157.187C145.258 156.858 144.78 156.694 144.13 156.694C143.603 156.694 143.14 156.835 142.741 157.116C142.343 157.397 142.032 157.767 141.81 158.224V165H140.184V155.49H141.722ZM155.986 165C155.893 164.812 155.816 164.479 155.758 163.998C155.002 164.783 154.1 165.176 153.051 165.176C152.113 165.176 151.343 164.912 150.739 164.385C150.142 163.852 149.843 163.178 149.843 162.363C149.843 161.373 150.218 160.605 150.968 160.061C151.724 159.51 152.784 159.234 154.149 159.234H155.731V158.487C155.731 157.919 155.562 157.468 155.222 157.134C154.882 156.794 154.381 156.624 153.719 156.624C153.139 156.624 152.652 156.771 152.26 157.063C151.867 157.356 151.671 157.711 151.671 158.127H150.036C150.036 157.652 150.203 157.195 150.537 156.756C150.877 156.311 151.334 155.959 151.908 155.701C152.488 155.443 153.124 155.314 153.815 155.314C154.911 155.314 155.77 155.59 156.391 156.141C157.012 156.686 157.334 157.438 157.357 158.399V162.776C157.357 163.649 157.469 164.344 157.691 164.859V165H155.986ZM153.288 163.761C153.798 163.761 154.281 163.629 154.738 163.365C155.195 163.102 155.526 162.759 155.731 162.337V160.386H154.457C152.465 160.386 151.469 160.969 151.469 162.135C151.469 162.645 151.639 163.043 151.979 163.33C152.318 163.617 152.755 163.761 153.288 163.761ZM162.112 153.188V155.49H163.888V156.747H162.112V162.645C162.112 163.025 162.191 163.312 162.35 163.506C162.508 163.693 162.777 163.787 163.158 163.787C163.346 163.787 163.604 163.752 163.932 163.682V165C163.504 165.117 163.088 165.176 162.684 165.176C161.957 165.176 161.409 164.956 161.04 164.517C160.671 164.077 160.486 163.453 160.486 162.645V156.747H158.755V155.49H160.486V153.188H162.112ZM171.666 164.06C171.033 164.804 170.104 165.176 168.88 165.176C167.866 165.176 167.093 164.883 166.56 164.297C166.032 163.705 165.766 162.832 165.76 161.678V155.49H167.386V161.634C167.386 163.075 167.972 163.796 169.144 163.796C170.386 163.796 171.212 163.333 171.622 162.407V155.49H173.248V165H171.701L171.666 164.06ZM180.323 156.949C180.077 156.908 179.811 156.888 179.523 156.888C178.457 156.888 177.733 157.342 177.353 158.25V165H175.727V155.49H177.309L177.335 156.589C177.868 155.739 178.624 155.314 179.603 155.314C179.919 155.314 180.159 155.355 180.323 155.438V156.949ZM187.346 165C187.252 164.812 187.176 164.479 187.117 163.998C186.361 164.783 185.459 165.176 184.41 165.176C183.473 165.176 182.702 164.912 182.099 164.385C181.501 163.852 181.202 163.178 181.202 162.363C181.202 161.373 181.577 160.605 182.327 160.061C183.083 159.51 184.144 159.234 185.509 159.234H187.091V158.487C187.091 157.919 186.921 157.468 186.581 157.134C186.241 156.794 185.74 156.624 185.078 156.624C184.498 156.624 184.012 156.771 183.619 157.063C183.227 157.356 183.03 157.711 183.03 158.127H181.396C181.396 157.652 181.562 157.195 181.896 156.756C182.236 156.311 182.693 155.959 183.268 155.701C183.848 155.443 184.483 155.314 185.175 155.314C186.271 155.314 187.129 155.59 187.75 156.141C188.371 156.686 188.693 157.438 188.717 158.399V162.776C188.717 163.649 188.828 164.344 189.051 164.859V165H187.346ZM184.647 163.761C185.157 163.761 185.641 163.629 186.098 163.365C186.555 163.102 186.886 162.759 187.091 162.337V160.386H185.816C183.824 160.386 182.828 160.969 182.828 162.135C182.828 162.645 182.998 163.043 183.338 163.33C183.678 163.617 184.114 163.761 184.647 163.761ZM193.032 165H191.406V151.5H193.032V165ZM206.049 152.88C205.322 152.763 204.736 152.704 204.291 152.704C203.119 152.704 202.533 153.319 202.533 154.55V155.49H204.563V156.747H202.533V165H200.907V156.747H199.404V155.49H200.907V154.453C200.913 153.439 201.197 152.663 201.76 152.124C202.322 151.585 203.122 151.315 204.159 151.315C204.751 151.315 205.923 151.494 207.675 151.852V165H206.049V152.88ZM209.907 160.157C209.907 159.226 210.089 158.388 210.452 157.644C210.821 156.899 211.331 156.325 211.981 155.921C212.638 155.517 213.385 155.314 214.223 155.314C215.518 155.314 216.563 155.763 217.36 156.659C218.163 157.556 218.564 158.748 218.564 160.236V160.351C218.564 161.276 218.386 162.108 218.028 162.847C217.677 163.579 217.17 164.15 216.508 164.561C215.852 164.971 215.096 165.176 214.24 165.176C212.951 165.176 211.905 164.728 211.103 163.831C210.306 162.935 209.907 161.748 209.907 160.271V160.157ZM211.542 160.351C211.542 161.405 211.785 162.252 212.271 162.891C212.764 163.529 213.42 163.849 214.24 163.849C215.066 163.849 215.723 163.526 216.209 162.882C216.695 162.231 216.938 161.323 216.938 160.157C216.938 159.114 216.689 158.271 216.191 157.626C215.699 156.976 215.043 156.65 214.223 156.65C213.42 156.65 212.772 156.97 212.28 157.608C211.788 158.247 211.542 159.161 211.542 160.351ZM229.023 162.759L230.852 155.49H232.478L229.709 165H228.391L226.079 157.793L223.829 165H222.511L219.751 155.49H221.368L223.24 162.609L225.455 155.49H226.765L229.023 162.759ZM238.173 160.157C238.173 159.226 238.354 158.388 238.718 157.644C239.087 156.899 239.597 156.325 240.247 155.921C240.903 155.517 241.65 155.314 242.488 155.314C243.783 155.314 244.829 155.763 245.626 156.659C246.429 157.556 246.83 158.748 246.83 160.236V160.351C246.83 161.276 246.651 162.108 246.294 162.847C245.942 163.579 245.436 164.15 244.773 164.561C244.117 164.971 243.361 165.176 242.506 165.176C241.217 165.176 240.171 164.728 239.368 163.831C238.571 162.935 238.173 161.748 238.173 160.271V160.157ZM239.808 160.351C239.808 161.405 240.051 162.252 240.537 162.891C241.029 163.529 241.686 163.849 242.506 163.849C243.332 163.849 243.988 163.526 244.475 162.882C244.961 162.231 245.204 161.323 245.204 160.157C245.204 159.114 244.955 158.271 244.457 157.626C243.965 156.976 243.309 156.65 242.488 156.65C241.686 156.65 241.038 156.97 240.546 157.608C240.054 158.247 239.808 159.161 239.808 160.351ZM249.669 165V156.747H248.166V155.49H249.669V154.515C249.669 153.495 249.941 152.707 250.486 152.15C251.031 151.594 251.802 151.315 252.798 151.315C253.173 151.315 253.545 151.365 253.914 151.465L253.826 152.783C253.551 152.73 253.258 152.704 252.947 152.704C252.42 152.704 252.013 152.859 251.726 153.17C251.438 153.475 251.295 153.914 251.295 154.488V155.49H253.325V156.747H251.295V165H249.669ZM261.798 153.188V155.49H263.573V156.747H261.798V162.645C261.798 163.025 261.877 163.312 262.035 163.506C262.193 163.693 262.463 163.787 262.844 163.787C263.031 163.787 263.289 163.752 263.617 163.682V165C263.189 165.117 262.773 165.176 262.369 165.176C261.643 165.176 261.095 164.956 260.726 164.517C260.356 164.077 260.172 163.453 260.172 162.645V156.747H258.44V155.49H260.172V153.188H261.798ZM267.106 156.642C267.827 155.757 268.765 155.314 269.919 155.314C271.929 155.314 272.942 156.448 272.96 158.716V165H271.334V158.707C271.328 158.021 271.17 157.515 270.859 157.187C270.555 156.858 270.077 156.694 269.427 156.694C268.899 156.694 268.437 156.835 268.038 157.116C267.64 157.397 267.329 157.767 267.106 158.224V165H265.48V151.5H267.106V156.642ZM279.341 165.176C278.052 165.176 277.003 164.754 276.194 163.91C275.386 163.061 274.981 161.927 274.981 160.509V160.21C274.981 159.267 275.16 158.426 275.518 157.688C275.881 156.943 276.385 156.363 277.029 155.947C277.68 155.525 278.383 155.314 279.139 155.314C280.375 155.314 281.336 155.722 282.021 156.536C282.707 157.351 283.05 158.517 283.05 160.034V160.711H276.607C276.631 161.648 276.903 162.407 277.425 162.987C277.952 163.562 278.62 163.849 279.429 163.849C280.003 163.849 280.489 163.731 280.888 163.497C281.286 163.263 281.635 162.952 281.934 162.565L282.927 163.339C282.13 164.563 280.935 165.176 279.341 165.176ZM279.139 156.65C278.482 156.65 277.932 156.891 277.486 157.371C277.041 157.846 276.766 158.514 276.66 159.375H281.424V159.252C281.377 158.426 281.154 157.787 280.756 157.336C280.357 156.879 279.818 156.65 279.139 156.65ZM289.536 156.949C289.29 156.908 289.023 156.888 288.736 156.888C287.67 156.888 286.946 157.342 286.565 158.25V165H284.939V155.49H286.521L286.548 156.589C287.081 155.739 287.837 155.314 288.815 155.314C289.132 155.314 289.372 155.355 289.536 155.438V156.949ZM296.559 165C296.465 164.812 296.389 164.479 296.33 163.998C295.574 164.783 294.672 165.176 293.623 165.176C292.686 165.176 291.915 164.912 291.312 164.385C290.714 163.852 290.415 163.178 290.415 162.363C290.415 161.373 290.79 160.605 291.54 160.061C292.296 159.51 293.356 159.234 294.722 159.234H296.304V158.487C296.304 157.919 296.134 157.468 295.794 157.134C295.454 156.794 294.953 156.624 294.291 156.624C293.711 156.624 293.225 156.771 292.832 157.063C292.439 157.356 292.243 157.711 292.243 158.127H290.608C290.608 157.652 290.775 157.195 291.109 156.756C291.449 156.311 291.906 155.959 292.48 155.701C293.061 155.443 293.696 155.314 294.388 155.314C295.483 155.314 296.342 155.59 296.963 156.141C297.584 156.686 297.906 157.438 297.93 158.399V162.776C297.93 163.649 298.041 164.344 298.264 164.859V165H296.559ZM293.86 163.761C294.37 163.761 294.854 163.629 295.311 163.365C295.768 163.102 296.099 162.759 296.304 162.337V160.386H295.029C293.037 160.386 292.041 160.969 292.041 162.135C292.041 162.645 292.211 163.043 292.551 163.33C292.891 163.617 293.327 163.761 293.86 163.761ZM308.512 160.351C308.512 161.798 308.181 162.964 307.519 163.849C306.856 164.733 305.96 165.176 304.829 165.176C303.675 165.176 302.767 164.81 302.104 164.077V168.656H300.479V155.49H301.964L302.043 156.545C302.705 155.725 303.625 155.314 304.803 155.314C305.945 155.314 306.848 155.745 307.51 156.606C308.178 157.468 308.512 158.666 308.512 160.201V160.351ZM306.886 160.166C306.886 159.094 306.657 158.247 306.2 157.626C305.743 157.005 305.116 156.694 304.319 156.694C303.335 156.694 302.597 157.131 302.104 158.004V162.548C302.591 163.415 303.335 163.849 304.337 163.849C305.116 163.849 305.734 163.541 306.191 162.926C306.654 162.305 306.886 161.385 306.886 160.166ZM313.592 162.618L315.807 155.49H317.547L313.724 166.468C313.132 168.05 312.191 168.841 310.902 168.841L310.595 168.814L309.988 168.7V167.382L310.428 167.417C310.979 167.417 311.406 167.306 311.711 167.083C312.021 166.86 312.276 166.453 312.476 165.861L312.836 164.895L309.443 155.49H311.219L313.592 162.618ZM325.237 165H323.611V155.49H325.237V165ZM323.479 152.968C323.479 152.704 323.559 152.481 323.717 152.3C323.881 152.118 324.121 152.027 324.438 152.027C324.754 152.027 324.994 152.118 325.158 152.3C325.322 152.481 325.404 152.704 325.404 152.968C325.404 153.231 325.322 153.451 325.158 153.627C324.994 153.803 324.754 153.891 324.438 153.891C324.121 153.891 323.881 153.803 323.717 153.627C323.559 153.451 323.479 153.231 323.479 152.968ZM329.386 155.49L329.438 156.686C330.165 155.771 331.114 155.314 332.286 155.314C334.296 155.314 335.31 156.448 335.327 158.716V165H333.701V158.707C333.695 158.021 333.537 157.515 333.227 157.187C332.922 156.858 332.444 156.694 331.794 156.694C331.267 156.694 330.804 156.835 330.405 157.116C330.007 157.397 329.696 157.767 329.474 158.224V165H327.848V155.49H329.386ZM350.277 160.351C350.277 161.798 349.946 162.964 349.284 163.849C348.622 164.733 347.726 165.176 346.595 165.176C345.44 165.176 344.532 164.81 343.87 164.077V168.656H342.244V155.49H343.729L343.809 156.545C344.471 155.725 345.391 155.314 346.568 155.314C347.711 155.314 348.613 155.745 349.275 156.606C349.943 157.468 350.277 158.666 350.277 160.201V160.351ZM348.651 160.166C348.651 159.094 348.423 158.247 347.966 157.626C347.509 157.005 346.882 156.694 346.085 156.694C345.101 156.694 344.362 157.131 343.87 158.004V162.548C344.356 163.415 345.101 163.849 346.103 163.849C346.882 163.849 347.5 163.541 347.957 162.926C348.42 162.305 348.651 161.385 348.651 160.166ZM356.948 156.949C356.702 156.908 356.436 156.888 356.148 156.888C355.082 156.888 354.358 157.342 353.978 158.25V165H352.352V155.49H353.934L353.96 156.589C354.493 155.739 355.249 155.314 356.228 155.314C356.544 155.314 356.784 155.355 356.948 155.438V156.949ZM357.845 160.157C357.845 159.226 358.026 158.388 358.39 157.644C358.759 156.899 359.269 156.325 359.919 155.921C360.575 155.517 361.322 155.314 362.16 155.314C363.455 155.314 364.501 155.763 365.298 156.659C366.101 157.556 366.502 158.748 366.502 160.236V160.351C366.502 161.276 366.323 162.108 365.966 162.847C365.614 163.579 365.107 164.15 364.445 164.561C363.789 164.971 363.033 165.176 362.178 165.176C360.889 165.176 359.843 164.728 359.04 163.831C358.243 162.935 357.845 161.748 357.845 160.271V160.157ZM359.479 160.351C359.479 161.405 359.723 162.252 360.209 162.891C360.701 163.529 361.357 163.849 362.178 163.849C363.004 163.849 363.66 163.526 364.146 162.882C364.633 162.231 364.876 161.323 364.876 160.157C364.876 159.114 364.627 158.271 364.129 157.626C363.637 156.976 362.98 156.65 362.16 156.65C361.357 156.65 360.71 156.97 360.218 157.608C359.726 158.247 359.479 159.161 359.479 160.351ZM368.146 160.166C368.146 158.707 368.491 157.535 369.183 156.65C369.874 155.76 370.779 155.314 371.898 155.314C373.012 155.314 373.894 155.695 374.544 156.457V151.5H376.17V165H374.676L374.597 163.98C373.946 164.777 373.041 165.176 371.881 165.176C370.779 165.176 369.88 164.725 369.183 163.822C368.491 162.92 368.146 161.742 368.146 160.289V160.166ZM369.771 160.351C369.771 161.429 369.994 162.272 370.439 162.882C370.885 163.491 371.5 163.796 372.285 163.796C373.316 163.796 374.069 163.333 374.544 162.407V158.039C374.058 157.143 373.311 156.694 372.303 156.694C371.506 156.694 370.885 157.002 370.439 157.617C369.994 158.232 369.771 159.144 369.771 160.351ZM384.572 164.06C383.939 164.804 383.011 165.176 381.786 165.176C380.772 165.176 379.999 164.883 379.466 164.297C378.938 163.705 378.672 162.832 378.666 161.678V155.49H380.292V161.634C380.292 163.075 380.878 163.796 382.05 163.796C383.292 163.796 384.118 163.333 384.528 162.407V155.49H386.154V165H384.607L384.572 164.06ZM392.447 163.849C393.027 163.849 393.534 163.673 393.968 163.321C394.401 162.97 394.642 162.53 394.688 162.003H396.227C396.197 162.548 396.01 163.066 395.664 163.559C395.318 164.051 394.855 164.443 394.275 164.736C393.701 165.029 393.092 165.176 392.447 165.176C391.152 165.176 390.121 164.745 389.354 163.884C388.592 163.017 388.211 161.833 388.211 160.333V160.061C388.211 159.135 388.381 158.312 388.721 157.591C389.061 156.87 389.547 156.311 390.18 155.912C390.818 155.514 391.571 155.314 392.438 155.314C393.505 155.314 394.39 155.634 395.093 156.272C395.802 156.911 396.18 157.74 396.227 158.76H394.688C394.642 158.145 394.407 157.641 393.985 157.248C393.569 156.85 393.054 156.65 392.438 156.65C391.612 156.65 390.971 156.949 390.514 157.547C390.062 158.139 389.837 158.997 389.837 160.122V160.43C389.837 161.525 390.062 162.369 390.514 162.961C390.965 163.553 391.609 163.849 392.447 163.849ZM400.261 153.188V155.49H402.036V156.747H400.261V162.645C400.261 163.025 400.34 163.312 400.498 163.506C400.656 163.693 400.926 163.787 401.307 163.787C401.494 163.787 401.752 163.752 402.08 163.682V165C401.652 165.117 401.236 165.176 400.832 165.176C400.105 165.176 399.558 164.956 399.188 164.517C398.819 164.077 398.635 163.453 398.635 162.645V156.747H396.903V155.49H398.635V153.188H400.261ZM409.946 155.49L409.999 156.686C410.726 155.771 411.675 155.314 412.847 155.314C414.856 155.314 415.87 156.448 415.888 158.716V165H414.262V158.707C414.256 158.021 414.098 157.515 413.787 157.187C413.482 156.858 413.005 156.694 412.354 156.694C411.827 156.694 411.364 156.835 410.966 157.116C410.567 157.397 410.257 157.767 410.034 158.224V165H408.408V155.49H409.946ZM424.211 165C424.117 164.812 424.041 164.479 423.982 163.998C423.227 164.783 422.324 165.176 421.275 165.176C420.338 165.176 419.567 164.912 418.964 164.385C418.366 163.852 418.067 163.178 418.067 162.363C418.067 161.373 418.442 160.605 419.192 160.061C419.948 159.51 421.009 159.234 422.374 159.234H423.956V158.487C423.956 157.919 423.786 157.468 423.446 157.134C423.106 156.794 422.605 156.624 421.943 156.624C421.363 156.624 420.877 156.771 420.484 157.063C420.092 157.356 419.896 157.711 419.896 158.127H418.261C418.261 157.652 418.428 157.195 418.762 156.756C419.102 156.311 419.559 155.959 420.133 155.701C420.713 155.443 421.349 155.314 422.04 155.314C423.136 155.314 423.994 155.59 424.615 156.141C425.236 156.686 425.559 157.438 425.582 158.399V162.776C425.582 163.649 425.693 164.344 425.916 164.859V165H424.211ZM421.513 163.761C422.022 163.761 422.506 163.629 422.963 163.365C423.42 163.102 423.751 162.759 423.956 162.337V160.386H422.682C420.689 160.386 419.693 160.969 419.693 162.135C419.693 162.645 419.863 163.043 420.203 163.33C420.543 163.617 420.979 163.761 421.513 163.761ZM431.128 162.794L433.483 155.49H435.145L431.734 165H430.495L427.05 155.49H428.711L431.128 162.794ZM438.476 165H436.85V155.49H438.476V165ZM436.718 152.968C436.718 152.704 436.797 152.481 436.955 152.3C437.119 152.118 437.359 152.027 437.676 152.027C437.992 152.027 438.232 152.118 438.396 152.3C438.561 152.481 438.643 152.704 438.643 152.968C438.643 153.231 438.561 153.451 438.396 153.627C438.232 153.803 437.992 153.891 437.676 153.891C437.359 153.891 437.119 153.803 436.955 153.627C436.797 153.451 436.718 153.231 436.718 152.968ZM440.699 160.166C440.699 158.684 441.042 157.506 441.728 156.633C442.413 155.754 443.321 155.314 444.452 155.314C445.612 155.314 446.518 155.725 447.168 156.545L447.247 155.49H448.732V164.771C448.732 166.002 448.366 166.972 447.634 167.681C446.907 168.39 445.929 168.744 444.698 168.744C444.013 168.744 443.342 168.598 442.686 168.305C442.029 168.012 441.528 167.61 441.183 167.101L442.026 166.125C442.724 166.986 443.576 167.417 444.584 167.417C445.375 167.417 445.99 167.194 446.43 166.749C446.875 166.304 447.098 165.677 447.098 164.868V164.051C446.447 164.801 445.56 165.176 444.435 165.176C443.321 165.176 442.419 164.728 441.728 163.831C441.042 162.935 440.699 161.713 440.699 160.166ZM442.334 160.351C442.334 161.423 442.554 162.267 442.993 162.882C443.433 163.491 444.048 163.796 444.839 163.796C445.864 163.796 446.617 163.33 447.098 162.398V158.057C446.6 157.148 445.853 156.694 444.856 156.694C444.065 156.694 443.447 157.002 443.002 157.617C442.557 158.232 442.334 159.144 442.334 160.351ZM457.064 165C456.971 164.812 456.895 164.479 456.836 163.998C456.08 164.783 455.178 165.176 454.129 165.176C453.191 165.176 452.421 164.912 451.817 164.385C451.22 163.852 450.921 163.178 450.921 162.363C450.921 161.373 451.296 160.605 452.046 160.061C452.802 159.51 453.862 159.234 455.228 159.234H456.81V158.487C456.81 157.919 456.64 157.468 456.3 157.134C455.96 156.794 455.459 156.624 454.797 156.624C454.217 156.624 453.73 156.771 453.338 157.063C452.945 157.356 452.749 157.711 452.749 158.127H451.114C451.114 157.652 451.281 157.195 451.615 156.756C451.955 156.311 452.412 155.959 452.986 155.701C453.566 155.443 454.202 155.314 454.894 155.314C455.989 155.314 456.848 155.59 457.469 156.141C458.09 156.686 458.412 157.438 458.436 158.399V162.776C458.436 163.649 458.547 164.344 458.77 164.859V165H457.064ZM454.366 163.761C454.876 163.761 455.359 163.629 455.816 163.365C456.273 163.102 456.604 162.759 456.81 162.337V160.386H455.535C453.543 160.386 452.547 160.969 452.547 162.135C452.547 162.645 452.717 163.043 453.057 163.33C453.396 163.617 453.833 163.761 454.366 163.761ZM463.19 153.188V155.49H464.966V156.747H463.19V162.645C463.19 163.025 463.27 163.312 463.428 163.506C463.586 163.693 463.855 163.787 464.236 163.787C464.424 163.787 464.682 163.752 465.01 163.682V165C464.582 165.117 464.166 165.176 463.762 165.176C463.035 165.176 462.487 164.956 462.118 164.517C461.749 164.077 461.564 163.453 461.564 162.645V156.747H459.833V155.49H461.564V153.188H463.19ZM468.64 165H467.014V155.49H468.64V165ZM466.882 152.968C466.882 152.704 466.961 152.481 467.119 152.3C467.283 152.118 467.523 152.027 467.84 152.027C468.156 152.027 468.396 152.118 468.561 152.3C468.725 152.481 468.807 152.704 468.807 152.968C468.807 153.231 468.725 153.451 468.561 153.627C468.396 153.803 468.156 153.891 467.84 153.891C467.523 153.891 467.283 153.803 467.119 153.627C466.961 153.451 466.882 153.231 466.882 152.968ZM470.819 160.157C470.819 159.226 471.001 158.388 471.364 157.644C471.733 156.899 472.243 156.325 472.894 155.921C473.55 155.517 474.297 155.314 475.135 155.314C476.43 155.314 477.476 155.763 478.272 156.659C479.075 157.556 479.477 158.748 479.477 160.236V160.351C479.477 161.276 479.298 162.108 478.94 162.847C478.589 163.579 478.082 164.15 477.42 164.561C476.764 164.971 476.008 165.176 475.152 165.176C473.863 165.176 472.817 164.728 472.015 163.831C471.218 162.935 470.819 161.748 470.819 160.271V160.157ZM472.454 160.351C472.454 161.405 472.697 162.252 473.184 162.891C473.676 163.529 474.332 163.849 475.152 163.849C475.979 163.849 476.635 163.526 477.121 162.882C477.607 162.231 477.851 161.323 477.851 160.157C477.851 159.114 477.602 158.271 477.104 157.626C476.611 156.976 475.955 156.65 475.135 156.65C474.332 156.65 473.685 156.97 473.192 157.608C472.7 158.247 472.454 159.161 472.454 160.351ZM483.054 155.49L483.106 156.686C483.833 155.771 484.782 155.314 485.954 155.314C487.964 155.314 488.978 156.448 488.995 158.716V165H487.369V158.707C487.363 158.021 487.205 157.515 486.895 157.187C486.59 156.858 486.112 156.694 485.462 156.694C484.935 156.694 484.472 156.835 484.073 157.116C483.675 157.397 483.364 157.767 483.142 158.224V165H481.516V155.49H483.054Z" fill="#272F31"/>
<path d="M7.67578 156.281H10.6836C12.1159 156.281 13.1771 155.923 13.8672 155.207C14.5573 154.491 14.9023 153.54 14.9023 152.355C14.9023 151.21 14.5573 150.318 13.8672 149.68C13.1901 149.042 12.2526 148.723 11.0547 148.723C9.97396 148.723 9.06901 149.022 8.33984 149.621C7.61068 150.207 7.24609 150.975 7.24609 151.926H1.60156C1.60156 150.441 1.9987 149.113 2.79297 147.941C3.60026 146.757 4.72005 145.832 6.15234 145.168C7.59766 144.504 9.1862 144.172 10.918 144.172C13.9258 144.172 16.2826 144.895 17.9883 146.34C19.694 147.772 20.5469 149.751 20.5469 152.277C20.5469 153.579 20.1497 154.777 19.3555 155.871C18.5612 156.965 17.5195 157.805 16.2305 158.391C17.832 158.964 19.0234 159.823 19.8047 160.969C20.599 162.115 20.9961 163.469 20.9961 165.031C20.9961 167.557 20.0716 169.582 18.2227 171.105C16.3867 172.629 13.9518 173.391 10.918 173.391C8.07943 173.391 5.75521 172.642 3.94531 171.145C2.14844 169.647 1.25 167.668 1.25 165.207H6.89453C6.89453 166.275 7.29167 167.147 8.08594 167.824C8.89323 168.501 9.88281 168.84 11.0547 168.84C12.3958 168.84 13.444 168.488 14.1992 167.785C14.9674 167.069 15.3516 166.125 15.3516 164.953C15.3516 162.115 13.7891 160.695 10.6641 160.695H7.67578V156.281Z" fill="#6E76F6"/>
</svg>
